  0
SECTION
  2
HEADER
  9
$ACADVER
  1
AC1027
  9
$ACADMAINTVER
 70
105
  9
$DWGCODEPAGE
  3
ANSI_1252
  9
$LASTSAVEDBY
  1
ezdxf
  9
$REQUIREDVERSIONS
160
0
  9
$INSBASE
 10
0.0
 20
0.0
 30
0.0
  9
$EXTMIN
 10
1e+20
 20
1e+20
 30
1e+20
  9
$EXTMAX
 10
-1e+20
 20
-1e+20
 30
-1e+20
  9
$LIMMIN
 10
0.0
 20
0.0
  9
$LIMMAX
 10
420.0
 20
297.0
  9
$ORTHOMODE
 70
0
  9
$REGENMODE
 70
1
  9
$FILLMODE
 70
1
  9
$QTEXTMODE
 70
0
  9
$MIRRTEXT
 70
1
  9
$LTSCALE
 40
1.0
  9
$ATTMODE
 70
1
  9
$TEXTSIZE
 40
2.5
  9
$TRACEWID
 40
1.0
  9
$TEXTSTYLE
  7
Standard
  9
$CLAYER
  8
0
  9
$CELTYPE
  6
ByLayer
  9
$CECOLOR
 62
256
  9
$CELTSCALE
 40
1.0
  9
$DISPSILH
 70
0
  9
$DIMSCALE
 40
1.0
  9
$DIMASZ
 40
2.5
  9
$DIMEXO
 40
0.625
  9
$DIMDLI
 40
3.75
  9
$DIMRND
 40
0.0
  9
$DIMDLE
 40
0.0
  9
$DIMEXE
 40
1.25
  9
$DIMTP
 40
0.0
  9
$DIMTM
 40
0.0
  9
$DIMTXT
 40
2.5
  9
$DIMCEN
 40
2.5
  9
$DIMTSZ
 40
0.0
  9
$DIMTOL
 70
0
  9
$DIMLIM
 70
0
  9
$DIMTIH
 70
0
  9
$DIMTOH
 70
0
  9
$DIMSE1
 70
0
  9
$DIMSE2
 70
0
  9
$DIMTAD
 70
1
  9
$DIMZIN
 70
8
  9
$DIMBLK
  1

  9
$DIMASO
 70
1
  9
$DIMSHO
 70
1
  9
$DIMPOST
  1

  9
$DIMAPOST
  1

  9
$DIMALT
 70
0
  9
$DIMALTD
 70
3
  9
$DIMALTF
 40
0.03937007874
  9
$DIMLFAC
 40
1.0
  9
$DIMTOFL
 70
1
  9
$DIMTVP
 40
0.0
  9
$DIMTIX
 70
0
  9
$DIMSOXD
 70
0
  9
$DIMSAH
 70
0
  9
$DIMBLK1
  1

  9
$DIMBLK2
  1

  9
$DIMSTYLE
  2
ISO-25
  9
$DIMCLRD
 70
0
  9
$DIMCLRE
 70
0
  9
$DIMCLRT
 70
0
  9
$DIMTFAC
 40
1.0
  9
$DIMGAP
 40
0.625
  9
$DIMJUST
 70
0
  9
$DIMSD1
 70
0
  9
$DIMSD2
 70
0
  9
$DIMTOLJ
 70
0
  9
$DIMTZIN
 70
8
  9
$DIMALTZ
 70
0
  9
$DIMALTTZ
 70
0
  9
$DIMUPT
 70
0
  9
$DIMDEC
 70
2
  9
$DIMTDEC
 70
2
  9
$DIMALTU
 70
2
  9
$DIMALTTD
 70
3
  9
$DIMTXSTY
  7
Standard
  9
$DIMAUNIT
 70
0
  9
$DIMADEC
 70
0
  9
$DIMALTRND
 40
0.0
  9
$DIMAZIN
 70
0
  9
$DIMDSEP
 70
44
  9
$DIMATFIT
 70
3
  9
$DIMFRAC
 70
0
  9
$DIMLDRBLK
  1

  9
$DIMLUNIT
 70
2
  9
$DIMLWD
 70
-2
  9
$DIMLWE
 70
-2
  9
$DIMTMOVE
 70
0
  9
$DIMFXL
 40
1.0
  9
$DIMFXLON
 70
0
  9
$DIMJOGANG
 40
0.785398163397
  9
$DIMTFILL
 70
0
  9
$DIMTFILLCLR
 70
0
  9
$DIMARCSYM
 70
0
  9
$DIMLTYPE
  6

  9
$DIMLTEX1
  6

  9
$DIMLTEX2
  6

  9
$DIMTXTDIRECTION
 70
0
  9
$LUNITS
 70
2
  9
$LUPREC
 70
4
  9
$SKETCHINC
 40
1.0
  9
$FILLETRAD
 40
10.0
  9
$AUNITS
 70
0
  9
$AUPREC
 70
2
  9
$MENU
  1
.
  9
$ELEVATION
 40
0.0
  9
$PELEVATION
 40
0.0
  9
$THICKNESS
 40
0.0
  9
$LIMCHECK
 70
0
  9
$CHAMFERA
 40
0.0
  9
$CHAMFERB
 40
0.0
  9
$CHAMFERC
 40
0.0
  9
$CHAMFERD
 40
0.0
  9
$SKPOLY
 70
0
  9
$TDCREATE
 40
2460229.444178241
  9
$TDUCREATE
 40
2458532.153996898
  9
$TDUPDATE
 40
2460229.444178241
  9
$TDUUPDATE
 40
2458532.1544311
  9
$TDINDWG
 40
0.0
  9
$TDUSRTIMER
 40
0.0
  9
$USRTIMER
 70
1
  9
$ANGBASE
 50
0.0
  9
$ANGDIR
 70
0
  9
$PDMODE
 70
0
  9
$PDSIZE
 40
0.0
  9
$PLINEWID
 40
0.0
  9
$SPLFRAME
 70
0
  9
$SPLINETYPE
 70
6
  9
$SPLINESEGS
 70
8
  9
$HANDSEED
  5
B1
  9
$SURFTAB1
 70
6
  9
$SURFTAB2
 70
6
  9
$SURFTYPE
 70
6
  9
$SURFU
 70
6
  9
$SURFV
 70
6
  9
$UCSBASE
  2

  9
$UCSNAME
  2

  9
$UCSORG
 10
0.0
 20
0.0
 30
0.0
  9
$UCSXDIR
 10
1.0
 20
0.0
 30
0.0
  9
$UCSYDIR
 10
0.0
 20
1.0
 30
0.0
  9
$UCSORTHOREF
  2

  9
$UCSORTHOVIEW
 70
0
  9
$UCSORGTOP
 10
0.0
 20
0.0
 30
0.0
  9
$UCSORGBOTTOM
 10
0.0
 20
0.0
 30
0.0
  9
$UCSORGLEFT
 10
0.0
 20
0.0
 30
0.0
  9
$UCSORGRIGHT
 10
0.0
 20
0.0
 30
0.0
  9
$UCSORGFRONT
 10
0.0
 20
0.0
 30
0.0
  9
$UCSORGBACK
 10
0.0
 20
0.0
 30
0.0
  9
$PUCSBASE
  2

  9
$PUCSNAME
  2

  9
$PUCSORG
 10
0.0
 20
0.0
 30
0.0
  9
$PUCSXDIR
 10
1.0
 20
0.0
 30
0.0
  9
$PUCSYDIR
 10
0.0
 20
1.0
 30
0.0
  9
$PUCSORTHOREF
  2

  9
$PUCSORTHOVIEW
 70
0
  9
$PUCSORGTOP
 10
0.0
 20
0.0
 30
0.0
  9
$PUCSORGBOTTOM
 10
0.0
 20
0.0
 30
0.0
  9
$PUCSORGLEFT
 10
0.0
 20
0.0
 30
0.0
  9
$PUCSORGRIGHT
 10
0.0
 20
0.0
 30
0.0
  9
$PUCSORGFRONT
 10
0.0
 20
0.0
 30
0.0
  9
$PUCSORGBACK
 10
0.0
 20
0.0
 30
0.0
  9
$USERI1
 70
0
  9
$USERI2
 70
0
  9
$USERI3
 70
0
  9
$USERI4
 70
0
  9
$USERI5
 70
0
  9
$USERR1
 40
0.0
  9
$USERR2
 40
0.0
  9
$USERR3
 40
0.0
  9
$USERR4
 40
0.0
  9
$USERR5
 40
0.0
  9
$WORLDVIEW
 70
1
  9
$SHADEDGE
 70
3
  9
$SHADEDIF
 70
70
  9
$TILEMODE
 70
1
  9
$MAXACTVP
 70
64
  9
$PINSBASE
 10
0.0
 20
0.0
 30
0.0
  9
$PLIMCHECK
 70
0
  9
$PEXTMIN
 10
1e+20
 20
1e+20
 30
1e+20
  9
$PEXTMAX
 10
-1e+20
 20
-1e+20
 30
-1e+20
  9
$PLIMMIN
 10
0.0
 20
0.0
  9
$PLIMMAX
 10
420.0
 20
297.0
  9
$UNITMODE
 70
0
  9
$VISRETAIN
 70
1
  9
$PLINEGEN
 70
0
  9
$PSLTSCALE
 70
1
  9
$TREEDEPTH
 70
3020
  9
$CMLSTYLE
  2
Standard
  9
$CMLJUST
 70
0
  9
$CMLSCALE
 40
20.0
  9
$PROXYGRAPHICS
 70
1
  9
$MEASUREMENT
 70
1
  9
$CELWEIGHT
370
-1
  9
$ENDCAPS
280
0
  9
$JOINSTYLE
280
0
  9
$LWDISPLAY
290
0
  9
$INSUNITS
 70
4
  9
$HYPERLINKBASE
  1

  9
$STYLESHEET
  1

  9
$XEDIT
290
1
  9
$CEPSNTYPE
380
0
  9
$PSTYLEMODE
290
1
  9
$FINGERPRINTGUID
  2
{1608670B-2A1B-4971-BF2D-D95F2C2218AB}
  9
$VERSIONGUID
  2
{0717504C-C837-4832-B8B7-98958E40623B}
  9
$EXTNAMES
290
1
  9
$PSVPSCALE
 40
0.0
  9
$OLESTARTUP
290
0
  9
$SORTENTS
280
127
  9
$INDEXCTL
280
0
  9
$HIDETEXT
280
1
  9
$XCLIPFRAME
280
0
  9
$HALOGAP
280
0
  9
$OBSCOLOR
 70
257
  9
$OBSLTYPE
280
0
  9
$INTERSECTIONDISPLAY
280
0
  9
$INTERSECTIONCOLOR
 70
257
  9
$DIMASSOC
280
2
  9
$PROJECTNAME
  1

  9
$CAMERADISPLAY
290
0
  9
$LENSLENGTH
 40
50.0
  9
$CAMERAHEIGHT
 40
0.0
  9
$STEPSPERSEC
 40
24.0
  9
$STEPSIZE
 40
100.0
  9
$3DDWFPREC
 40
2.0
  9
$PSOLWIDTH
 40
0.005
  9
$PSOLHEIGHT
 40
0.08
  9
$LOFTANG1
 40
1.570796326795
  9
$LOFTANG2
 40
1.570796326795
  9
$LOFTMAG1
 40
0.0
  9
$LOFTMAG2
 40
0.0
  9
$LOFTPARAM
 70
7
  9
$LOFTNORMALS
280
1
  9
$LATITUDE
 40
37.795
  9
$LONGITUDE
 40
-122.394
  9
$NORTHDIRECTION
 40
0.0
  9
$TIMEZONE
 70
-8000
  9
$LIGHTGLYPHDISPLAY
280
1
  9
$TILEMODELIGHTSYNCH
280
1
  9
$CMATERIAL
347
20
  9
$SOLIDHIST
280
0
  9
$SHOWHIST
280
1
  9
$DWFFRAME
280
2
  9
$DGNFRAME
280
2
  9
$REALWORLDSCALE
290
1
  9
$INTERFERECOLOR
 62
256
  9
$CSHADOW
280
0
  9
$SHADOWPLANELOCATION
 40
0.0
  0
ENDSEC
  0
SECTION
  2
CLASSES
  0
CLASS
  1
ACDBDICTIONARYWDFLT
  2
AcDbDictionaryWithDefault
  3
ObjectDBX Classes
 90
0
 91
0
280
0
281
0
  0
CLASS
  1
SUN
  2
AcDbSun
  3
SCENEOE
 90
1153
 91
0
280
0
281
0
  0
CLASS
  1
VISUALSTYLE
  2
AcDbVisualStyle
  3
ObjectDBX Classes
 90
4095
 91
0
280
0
281
0
  0
CLASS
  1
MATERIAL
  2
AcDbMaterial
  3
ObjectDBX Classes
 90
1153
 91
0
280
0
281
0
  0
CLASS
  1
SCALE
  2
AcDbScale
  3
ObjectDBX Classes
 90
1153
 91
0
280
0
281
0
  0
CLASS
  1
TABLESTYLE
  2
AcDbTableStyle
  3
ObjectDBX Classes
 90
4095
 91
0
280
0
281
0
  0
CLASS
  1
MLEADERSTYLE
  2
AcDbMLeaderStyle
  3
ACDB_MLEADERSTYLE_CLASS
 90
4095
 91
0
280
0
281
0
  0
CLASS
  1
DICTIONARYVAR
  2
AcDbDictionaryVar
  3
ObjectDBX Classes
 90
0
 91
0
280
0
281
0
  0
CLASS
  1
CELLSTYLEMAP
  2
AcDbCellStyleMap
  3
ObjectDBX Classes
 90
1152
 91
0
280
0
281
0
  0
CLASS
  1
MENTALRAYRENDERSETTINGS
  2
AcDbMentalRayRenderSettings
  3
SCENEOE
 90
1024
 91
0
280
0
281
0
  0
CLASS
  1
ACDBDETAILVIEWSTYLE
  2
AcDbDetailViewStyle
  3
ObjectDBX Classes
 90
1025
 91
0
280
0
281
0
  0
CLASS
  1
ACDBSECTIONVIEWSTYLE
  2
AcDbSectionViewStyle
  3
ObjectDBX Classes
 90
1025
 91
0
280
0
281
0
  0
CLASS
  1
RASTERVARIABLES
  2
AcDbRasterVariables
  3
ISM
 90
0
 91
0
280
0
281
0
  0
CLASS
  1
ACDBPLACEHOLDER
  2
AcDbPlaceHolder
  3
ObjectDBX Classes
 90
0
 91
0
280
0
281
0
  0
CLASS
  1
LAYOUT
  2
AcDbLayout
  3
ObjectDBX Classes
 90
0
 91
0
280
0
281
0
  0
ENDSEC
  0
SECTION
  2
TABLES
  0
TABLE
  2
VPORT
  5
8
330
0
100
AcDbSymbolTable
 70
1
  0
VPORT
  5
AD
330
8
100
AcDbSymbolTableRecord
100
AcDbViewportTableRecord
  2
*Active
 70
0
 10
0.0
 20
0.0
 11
1.0
 21
1.0
 12
0.0
 22
0.0
 13
0.0
 23
0.0
 14
0.5
 24
0.5
 15
0.5
 25
0.5
 16
0.0
 26
0.0
 36
1.0
 17
0.0
 27
0.0
 37
0.0
 40
88.0
 41
1.34
 42
50.0
 43
0.0
 44
0.0
 50
0.0
 51
0.0
 71
0
 72
1000
 73
1
 74
3
 75
0
 76
0
 77
0
 78
0
281
0
 65
1
110
0.0
120
0.0
130
0.0
111
1.0
121
0.0
131
0.0
112
0.0
122
1.0
132
0.0
 79
0
146
0.0
  0
ENDTAB
  0
TABLE
  2
LTYPE
  5
2
330
0
100
AcDbSymbolTable
 70
3
  0
LTYPE
  5
24
330
2
100
AcDbSymbolTableRecord
100
AcDbLinetypeTableRecord
  2
ByBlock
 70
0
  3

 72
65
 73
0
 40
0.0
  0
LTYPE
  5
25
330
2
100
AcDbSymbolTableRecord
100
AcDbLinetypeTableRecord
  2
ByLayer
 70
0
  3

 72
65
 73
0
 40
0.0
  0
LTYPE
  5
26
330
2
100
AcDbSymbolTableRecord
100
AcDbLinetypeTableRecord
  2
Continuous
 70
0
  3

 72
65
 73
0
 40
0.0
  0
ENDTAB
  0
TABLE
  2
LAYER
  5
1
330
0
100
AcDbSymbolTable
 70
2
  0
LAYER
  5
27
330
1
100
AcDbSymbolTableRecord
100
AcDbLayerTableRecord
  2
0
 70
0
 62
7
  6
Continuous
370
-3
390
13
347
21
  0
LAYER
  5
28
330
1
100
AcDbSymbolTableRecord
100
AcDbLayerTableRecord
  2
Defpoints
 70
0
 62
7
  6
Continuous
290
0
370
-3
390
13
347
21
  0
ENDTAB
  0
TABLE
  2
STYLE
  5
5
330
0
100
AcDbSymbolTable
 70
1
  0
STYLE
  5
29
330
5
100
AcDbSymbolTableRecord
100
AcDbTextStyleTableRecord
  2
Standard
 70
0
 40
0.0
 41
1.0
 50
0.0
 71
0
 42
2.5
  3
txt
  4

  0
ENDTAB
  0
TABLE
  2
VIEW
  5
7
330
0
100
AcDbSymbolTable
 70
0
  0
ENDTAB
  0
TABLE
  2
UCS
  5
6
330
0
100
AcDbSymbolTable
 70
0
  0
ENDTAB
  0
TABLE
  2
APPID
  5
3
330
0
100
AcDbSymbolTable
 70
3
  0
APPID
  5
2A
330
3
100
AcDbSymbolTableRecord
100
AcDbRegAppTableRecord
  2
ACAD
 70
0
  0
APPID
  5
AE
330
3
100
AcDbSymbolTableRecord
100
AcDbRegAppTableRecord
  2
HATCHBACKGROUNDCOLOR
 70
0
  0
APPID
  5
AF
330
3
100
AcDbSymbolTableRecord
100
AcDbRegAppTableRecord
  2
EZDXF
 70
0
  0
ENDTAB
  0
TABLE
  2
DIMSTYLE
  5
4
330
0
100
AcDbSymbolTable
 70
1
100
AcDbDimStyleTable
  0
DIMSTYLE
105
2B
330
4
100
AcDbSymbolTableRecord
100
AcDbDimStyleTableRecord
  2
Standard
 70
0
 40
1.0
 41
2.5
 42
0.625
 43
3.75
 44
1.25
 45
0.0
 46
0.0
 47
0.0
 48
0.0
 49
2.5
140
2.5
141
2.5
142
0.0
143
0.03937007874
144
1.0
145
0.0
146
1.0
147
0.625
148
0.0
 69
0
 70
0
 71
0
 72
0
 73
0
 74
0
 75
0
 76
0
 77
1
 78
8
 79
3
170
0
171
3
172
1
173
0
174
0
175
0
176
0
177
0
178
0
179
2
271
2
272
2
273
2
274
3
275
0
276
0
277
2
278
44
279
0
280
0
281
0
282
0
283
0
284
8
285
0
286
0
288
0
289
3
290
0
371
-2
372
-2
  0
ENDTAB
  0
TABLE
  2
BLOCK_RECORD
  5
9
330
0
100
AcDbSymbolTable
 70
2
  0
BLOCK_RECORD
  5
17
330
9
100
AcDbSymbolTableRecord
100
AcDbBlockTableRecord
  2
*Model_Space
340
1A
 70
0
280
1
281
0
  0
BLOCK_RECORD
  5
1B
330
9
100
AcDbSymbolTableRecord
100
AcDbBlockTableRecord
  2
*Paper_Space
340
1E
 70
0
280
1
281
0
  0
ENDTAB
  0
ENDSEC
  0
SECTION
  2
BLOCKS
  0
BLOCK
  5
18
330
17
100
AcDbEntity
  8
0
100
AcDbBlockBegin
  2
*Model_Space
 70
0
 10
0.0
 20
0.0
 30
0.0
  3
*Model_Space
  1

  0
ENDBLK
  5
19
330
17
100
AcDbEntity
  8
0
100
AcDbBlockEnd
  0
BLOCK
  5
1C
330
1B
100
AcDbEntity
  8
0
100
AcDbBlockBegin
  2
*Paper_Space
 70
0
 10
0.0
 20
0.0
 30
0.0
  3
*Paper_Space
  1

  0
ENDBLK
  5
1D
330
1B
100
AcDbEntity
  8
0
100
AcDbBlockEnd
  0
ENDSEC
  0
SECTION
  2
ENTITIES
  0
LINE
  5
2F
330
17
100
AcDbEntity
  8
0
100
AcDbLine
 10
-44.0
 20
0.0
 30
3.0
 11
-44.0
 21
0.0
 31
5.0
  0
CIRCLE
  5
30
330
17
100
AcDbEntity
  8
0
100
AcDbCircle
 10
0.0
 20
0.0
 30
3.0
 40
44.0
  0
LINE
  5
31
330
17
100
AcDbEntity
  8
0
100
AcDbLine
 10
-44.0
 20
0.0
 30
3.0
 11
-44.0
 21
0.0
 31
5.0
  0
CIRCLE
  5
32
330
17
100
AcDbEntity
  8
0
100
AcDbCircle
 10
0.0
 20
0.0
 30
5.0
 40
44.0
  0
CIRCLE
  5
33
330
17
100
AcDbEntity
  8
0
100
AcDbCircle
 10
0.0
 20
0.0
 30
3.0
 40
44.0
  0
CIRCLE
  5
34
330
17
100
AcDbEntity
  8
0
100
AcDbCircle
 10
0.0
 20
0.0
 30
3.0
 40
41.25
  0
CIRCLE
  5
35
330
17
100
AcDbEntity
  8
0
100
AcDbCircle
 10
0.0
 20
0.0
 30
5.0
 40
44.0
  0
CIRCLE
  5
36
330
17
100
AcDbEntity
  8
0
100
AcDbCircle
 10
0.0
 20
0.0
 30
5.0
 40
42.0
  0
LINE
  5
37
330
17
100
AcDbEntity
  8
0
100
AcDbLine
 10
-41.25
 20
0.0
 30
0.0
 11
-41.25
 21
0.0
 31
3.0
  0
CIRCLE
  5
38
330
17
100
AcDbEntity
  8
0
100
AcDbCircle
 10
0.0
 20
0.0
 30
0.0
 40
41.25
  0
LINE
  5
39
330
17
100
AcDbEntity
  8
0
100
AcDbLine
 10
-41.25
 20
0.0
 30
0.0
 11
-41.25
 21
0.0
 31
3.0
  0
CIRCLE
  5
3A
330
17
100
AcDbEntity
  8
0
100
AcDbCircle
 10
0.0
 20
0.0
 30
3.0
 40
41.25
  0
LINE
  5
3B
330
17
100
AcDbEntity
  8
0
100
AcDbLine
 10
-42.0
 20
0.0
 30
12.0
 11
-42.0
 21
0.0
 31
9.625
  0
SPLINE
  5
3C
330
17
100
AcDbEntity
  8
0
100
AcDbSpline
 70
0
 71
6
 72
24
 73
17
 74
0
 40
0.0
 40
0.0
 40
0.0
 40
0.0
 40
0.0
 40
0.0
 40
0.0
 40
0.4636222368597169
 40
0.4636222368597169
 40
0.4636222368597169
 40
0.4636222368597169
 40
0.4636222368597169
 40
0.7746851247405899
 40
0.7746851247405899
 40
0.7746851247405899
 40
0.7746851247405899
 40
0.7746851247405899
 40
1.0
 40
1.0
 40
1.0
 40
1.0
 40
1.0
 40
1.0
 40
1.0
 10
-41.98139468859985
 20
-1.2499999999999662
 30
8.375
 10
-41.98139468859985
 20
-1.2499999999999662
 30
8.510914268372916
 10
-41.981922767940155
 20
-1.2322660069563975
 30
8.646836213702795
 10
-41.9829786816346
 20
-1.1967952374965702
 30
8.781006429748645
 10
-41.9845180466048
 20
-1.143227391744021
 30
8.91155384056477
 10
-41.98644186589278
 20
-1.07100708108845
 30
9.036128914631744
 10
-41.99000462104692
 20
-0.9182994046683953
 30
9.228798051821942
 10
-41.99153253404776
 20
-0.848201524290203
 30
9.302178470012276
 10
-41.99309893293312
 20
-0.7693716010662666
 30
9.37018088347244
 10
-41.99462660856742
 20
-0.6820816528482311
 30
9.431370625752365
 10
-41.99602509186455
 20
-0.5868315128867814
 30
9.484268377169672
 10
-41.99806240753747
 20
-0.41019538219050705
 30
9.558519369475253
 10
-41.998804063072306
 20
-0.33226194020567607
 30
9.58453322726564
 10
-41.9993926578094
 20
-0.25135142741675703
 30
9.604600565549719
 10
-41.999797337195155
 20
-0.16835641097267018
 30
9.618186678625047
 10
-41.99999999999999
 20
-0.08424481821035147
 30
9.624999999999998
 10
-41.99999999999999
 20
3.0699290946740824e-15
 30
9.625
  0
SPLINE
  5
3D
330
17
100
AcDbEntity
  8
0
100
AcDbSpline
 70
0
 71
6
 72
24
 73
17
 74
0
 40
0.0
 40
0.0
 40
0.0
 40
0.0
 40
0.0
 40
0.0
 40
0.0
 40
0.22531487071193085
 40
0.22531487071193085
 40
0.22531487071193085
 40
0.22531487071193085
 40
0.22531487071193085
 40
0.5363777603762395
 40
0.5363777603762395
 40
0.5363777603762395
 40
0.5363777603762395
 40
0.5363777603762395
 40
1.0
 40
1.0
 40
1.0
 40
1.0
 40
1.0
 40
1.0
 40
1.0
 10
-41.99999999999999
 20
2.4046456479139087e-15
 30
7.125
 10
-41.99999999999999
 20
-0.08424481602970711
 30
7.125000000000001
 10
-41.99979733717944
 20
-0.16835641432713389
 30
7.131813321940574
 10
-41.99939265781965
 20
-0.2513514275440007
 30
7.145399434077411
 10
-41.99880406309287
 20
-0.33226193691194233
 30
7.165466771992455
 10
-41.99806240751545
 20
-0.4101953840988364
 30
7.1914806313269315
 10
-41.996025091864325
 20
-0.5868315129070433
 30
7.265731622838846
 10
-41.99462660856738
 20
-0.6820816528417154
 30
7.318629374249892
 10
-41.993098932933506
 20
-0.7693716010484766
 30
7.37981911651419
 10
-41.99153253404785
 20
-0.8482015242883623
 30
7.447821529978656
 10
-41.990004621046594
 20
-0.9182994046823709
 30
7.521201948195698
 10
-41.98644186589277
 20
-1.071007081088521
 30
7.7138710853683605
 10
-41.984518046604805
 20
-1.143227391743949
 30
7.838446159435108
 10
-41.98297868163459
 20
-1.196795237496604
 30
7.968993570251405
 10
-41.981922767940155
 20
-1.232266006956391
 30
8.103163786297223
 10
-41.98139468859985
 20
-1.2499999999999662
 30
8.239085731627096
 10
-41.98139468859985
 20
-1.2499999999999662
 30
8.375
  0
LINE
  5
3E
330
17
100
AcDbEntity
  8
0
100
AcDbLine
 10
-42.0
 20
0.0
 30
7.125
 11
-42.0
 21
0.0
 31
5.0
  0
CIRCLE
  5
3F
330
17
100
AcDbEntity
  8
0
100
AcDbCircle
 10
0.0
 20
0.0
 30
5.0
 40
42.0
  0
LINE
  5
40
330
17
100
AcDbEntity
  8
0
100
AcDbLine
 10
-42.0
 20
0.0
 30
7.125
 11
-42.0
 21
0.0
 31
5.0
  0
SPLINE
  5
41
330
17
100
AcDbEntity
  8
0
100
AcDbSpline
 70
0
 71
6
 72
39
 73
32
 74
0
 40
0.0
 40
0.0
 40
0.0
 40
0.0
 40
0.0
 40
0.0
 40
0.0
 40
1.0
 40
1.0
 40
1.0
 40
1.0
 40
1.0
 40
2.1172695785179347
 40
2.1172695785179347
 40
2.1172695785179347
 40
2.1172695785179347
 40
2.1172695785179347
 40
3.3394940859852364
 40
3.3394940859852364
 40
3.3394940859852364
 40
3.3394940859852364
 40
3.3394940859852364
 40
4.561718593452376
 40
4.561718593452376
 40
4.561718593452376
 40
4.561718593452376
 40
4.561718593452376
 40
5.678988172942098
 40
5.678988172942098
 40
5.678988172942098
 40
5.678988172942098
 40
5.678988172942098
 40
6.679003847763683
 40
6.679003847763683
 40
6.679003847763683
 40
6.679003847763683
 40
6.679003847763683
 40
6.679003847763683
 40
6.679003847763683
 10
-41.99999999999999
 20
7.549516567451064e-15
 30
7.125
 10
-41.99999999999999
 20
0.11213370478265784
 30
7.124999999999997
 10
-41.99964119692134
 20
0.22378153966246664
 30
7.137071113545445
 10
-41.998927185586275
 20
0.3328023286920642
 30
7.161016535373046
 10
-41.99791417281463
 20
0.4371282501921163
 30
7.195981299110197
 10
-41.99668937987047
 20
0.5349663408802566
 30
7.240487287940531
 10
-41.99385237633887
 20
0.7255918683771833
 30
7.3505449875552955
 10
-41.99220551445012
 20
0.8168156401863131
 30
7.418168525404833
 10
-41.990516715163224
 20
0.8982133560747718
 30
7.493463249641684
 10
-41.98888239986521
 20
0.9696074489403397
 30
7.574802985478702
 10
-41.987375407682876
 20
1.031001229192603
 30
7.660746511627517
 10
-41.984593362309006
 20
1.1389029944082105
 30
7.847637851207318
 10
-41.98335038180968
 20
1.1835869243453094
 30
7.949437313877253
 10
-41.982381399415395
 20
1.2168603921140853
 30
8.05406173924873
 10
-41.981723609913445
 20
1.238953349201712
 30
8.160460032074049
 10
-41.98139468859985
 20
1.2500000000000377
 30
8.267729857134198
 10
-41.98139468859985
 20
1.2500000000000377
 30
8.482270142865788
 10
-41.981723609913445
 20
1.2389533492017097
 30
8.589539967925958
 10
-41.982381399415395
 20
1.2168603921140915
 30
8.695938260751316
 10
-41.98335038180968
 20
1.183586924345332
 30
8.800562686122674
 10
-41.984593362309006
 20
1.1389029944081699
 30
8.902362148792761
 10
-41.98737540768403
 20
1.0310012291478063
 30
9.089253488450078
 10
-41.988882399865055
 20
0.9696074489416819
 30
9.175197014484233
 10
-41.99051671516161
 20
0.8982133561379296
 30
9.256536750295824
 10
-41.99220551445014
 20
0.8168156402135658
 30
9.331831474601309
 10
-41.993852376339994
 20
0.7255918683020948
 30
9.399455012488058
 10
-41.996689400871546
 20
0.5349649297642308
 30
9.50951352676769
 10
-41.99791418539696
 20
0.43712688248891346
 30
9.554019107764752
 10
-41.998927178993455
 20
0.33280221355484424
 30
9.588983208210395
 10
-41.999641183949024
 20
0.22378296952950882
 30
9.612928463574145
 10
-41.99999999999999
 20
0.11213565509901517
 30
9.625000000000002
 10
-41.99999999999999
 20
8.215650382226158e-15
 30
9.625
  0
LINE
  5
42
330
17
100
AcDbEntity
  8
0
100
AcDbLine
 10
-42.0
 20
0.0
 30
12.0
 11
-42.0
 21
0.0
 31
9.625
  0
CIRCLE
  5
43
330
17
100
AcDbEntity
  8
0
100
AcDbCircle
 10
0.0
 20
0.0
 30
12.0
 40
42.0
  0
SPLINE
  5
44
330
17
100
AcDbEntity
  8
0
100
AcDbSpline
 70
0
 71
7
 72
76
 73
68
 74
0
 40
0.0
 40
0.0
 40
0.0
 40
0.0
 40
0.0
 40
0.0
 40
0.0
 40
0.0
 40
0.35674291412606
 40
0.35674291412606
 40
0.35674291412606
 40
0.35674291412606
 40
0.35674291412606
 40
0.35674291412606
 40
0.5960961467092348
 40
0.5960961467092348
 40
0.5960961467092348
 40
0.5960961467092348
 40
0.5960961467092348
 40
0.5960961467092348
 40
1.0
 40
1.0
 40
1.0
 40
1.0
 40
1.0
 40
1.0
 40
1.258843900424261
 40
1.258843900424261
 40
1.258843900424261
 40
1.258843900424261
 40
1.258843900424261
 40
1.258843900424261
 40
1.5420032779411605
 40
1.5420032779411605
 40
1.5420032779411605
 40
1.5420032779411605
 40
1.5420032779411605
 40
1.5420032779411605
 40
1.825162655511046
 40
1.825162655511046
 40
1.825162655511046
 40
1.825162655511046
 40
1.825162655511046
 40
1.825162655511046
 40
2.084006556032512
 40
2.084006556032512
 40
2.084006556032512
 40
2.084006556032512
 40
2.084006556032512
 40
2.084006556032512
 40
2.315682446538404
 40
2.315682446538404
 40
2.315682446538404
 40
2.315682446538404
 40
2.315682446538404
 40
2.315682446538404
 40
2.4897361113814154
 40
2.4897361113814154
 40
2.4897361113814154
 40
2.4897361113814154
 40
2.4897361113814154
 40
2.4897361113814154
 40
2.730029325788773
 40
2.730029325788773
 40
2.730029325788773
 40
2.730029325788773
 40
2.730029325788773
 40
2.730029325788773
 40
3.088174461896755
 40
3.088174461896755
 40
3.088174461896755
 40
3.088174461896755
 40
3.088174461896755
 40
3.088174461896755
 40
3.088174461896755
 40
3.088174461896755
 10
-22.073229099030478
 20
-35.731954286628586
 30
8.375000000000002
 10
-22.073229099030478
 20
-35.731954286628586
 30
8.491497944319594
 10
-22.06244763559036
 20
-35.73861451994694
 30
8.60800137218003
 10
-22.040883261301904
 20
-35.75193566059625
 30
8.723504908586149
 10
-22.008392377005045
 20
-35.77197861125042
 30
8.836955320098392
 10
-21.96472792569699
 20
-35.798838707192125
 30
8.947146718869638
 10
-21.90958595944548
 20
-35.83261339507492
 30
9.052601173305472
 10
-21.797756802687278
 20
-35.900704201942055
 30
9.217746148034413
 10
-21.747456788491146
 20
-35.9312411128484
 30
9.281212636244197
 10
-21.691767182214416
 20
-35.9649311578054
 30
9.341036991993713
 10
-21.63077418586423
 20
-36.001676650458414
 30
9.396405058737667
 10
-21.564644829028186
 20
-36.041325836763555
 30
9.446484269013004
 10
-21.493634641360988
 20
-36.08367193517965
 30
9.490419886069304
 10
-21.290640080506304
 20
-36.20401360456887
 30
9.589612238254068
 10
-21.150238822274314
 20
-36.286538663516204
 30
9.631916552274792
 10
-21.00181800999015
 20
-36.37285796058008
 30
9.648382358337948
 10
-20.851834060702277
 20
-36.45901297889986
 30
9.636571105786386
 10
-20.707143112076306
 20
-36.5411348219699
 30
9.597420649943697
 10
-20.57392633328871
 20
-36.61600279450201
 30
9.535209304591506
 10
-20.381097147105034
 20
-36.723538975586514
 30
9.407751689951287
 10
-20.311526958262913
 20
-36.76210008177971
 30
9.351152485426095
 10
-20.24795572576608
 20
-36.79714530791553
 30
9.288805917855301
 10
-20.190534377848426
 20
-36.828653023364254
 30
9.221676863519436
 10
-20.13933021191236
 20
-36.85664021544013
 30
9.150641721331647
 10
-20.094344297584605
 20
-36.881150733803416
 30
9.076502990100051
 10
-20.013055704007396
 20
-36.92532921436554
 30
8.916310413266848
 10
-19.977892820742937
 20
-36.94436556815739
 30
8.829648246870336
 10
-19.949915898516476
 20
-36.95946861195447
 30
8.74077730018209
 10
-19.92901784864126
 20
-36.97072906336806
 30
8.650338992410044
 10
-19.915116404477317
 20
-36.97821252149733
 30
8.558891446498203
 10
-19.90816558956939
 20
-36.981954286628586
 30
8.466945836724978
 10
-19.90816558956939
 20
-36.981954286628586
 30
8.283054163257827
 10
-19.915116404479967
 20
-36.97821252149591
 30
8.191108553519905
 10
-19.929017848634864
 20
-36.97072906337153
 30
8.099661007602444
 10
-19.949915898516526
 20
-36.95946861195443
 30
8.009222699803768
 10
-19.97789282075363
 20
-36.94436556815159
 30
7.92035175311444
 10
-20.01305570399931
 20
-36.92532921436994
 30
7.833689586749098
 10
-20.0943442975993
 20
-36.88115073379543
 30
7.673497009870994
 10
-20.13933021191685
 20
-36.85664021543765
 30
7.599358278670299
 10
-20.190534377834393
 20
-36.82865302337185
 30
7.528323136503021
 10
-20.247955725747875
 20
-36.797145307925575
 30
7.461194082159077
 10
-20.31152695826372
 20
-36.76210008177942
 30
7.3988475145666515
 10
-20.381097147129516
 20
-36.723538975572865
 30
7.342248310032539
 10
-20.52381589874251
 20
-36.643948173882755
 30
7.247913048835642
 10
-20.596009288726997
 20
-36.603498521118446
 30
7.2086973370018965
 10
-20.672309919363965
 20
-36.560518817697485
 30
7.176001649239659
 10
-20.751863999535043
 20
-36.515442900648914
 30
7.150754495905924
 10
-20.83369596675481
 20
-36.468786694988594
 30
7.133622410179958
 10
-20.916761411243552
 20
-36.42112478057193
 30
7.125000000000004
 10
-21.062535559473986
 20
-36.33696203685019
 30
7.125000000000004
 10
-21.12491632747066
 20
-36.300779330190935
 30
7.129866658122347
 10
-21.18665585620152
 20
-36.26480011612731
 30
7.139576814560665
 10
-21.247277162678266
 20
-36.22930884530093
 30
7.153999722289766
 10
-21.306326887559667
 20
-36.19458341606941
 30
7.17289930353357
 10
-21.36338945399839
 20
-36.160885448739485
 30
7.195936406233092
 10
-21.49363464136477
 20
-36.083671935177414
 30
7.259580113932557
 10
-21.564644829028406
 20
-36.04132583676339
 30
7.303515730988025
 10
-21.63077418586141
 20
-36.001676650460105
 30
7.353594941260636
 10
-21.691767182212054
 20
-35.96493115780685
 30
7.408963008003385
 10
-21.747456788491746
 20
-35.931241112848035
 30
7.468787363755472
 10
-21.797756802689857
 20
-35.900704201940485
 30
7.532253851969405
 10
-21.90958618937172
 20
-35.83261325507687
 30
7.697399166240721
 10
-21.96472782924543
 20
-35.79883876474365
 30
7.802853304027688
 10
-22.008392041899587
 20
-35.77197881711673
 30
7.913044043160183
 10
-22.040882951257945
 20
-35.75193585252856
 30
8.026493952038564
 10
-22.062447504265872
 20
-35.738614600941155
 30
8.141997463274748
 10
-22.073229099030478
 20
-35.731954286628586
 30
8.25850134606826
 10
-22.073229099030478
 20
-35.731954286628586
 30
8.375000000000002
  0
SPLINE
  5
45
330
17
100
AcDbEntity
  8
0
100
AcDbSpline
 70
0
 71
7
 72
76
 73
68
 74
0
 40
0.0
 40
0.0
 40
0.0
 40
0.0
 40
0.0
 40
0.0
 40
0.0
 40
0.0
 40
0.35665861653440145
 40
0.35665861653440145
 40
0.35665861653440145
 40
0.35665861653440145
 40
0.35665861653440145
 40
0.35665861653440145
 40
0.5959544683486252
 40
0.5959544683486252
 40
0.5959544683486252
 40
0.5959544683486252
 40
0.5959544683486252
 40
0.5959544683486252
 40
0.7692857049029912
 40
0.7692857049029912
 40
0.7692857049029912
 40
0.7692857049029912
 40
0.7692857049029912
 40
0.7692857049029912
 40
1.0
 40
1.0
 40
1.0
 40
1.0
 40
1.0
 40
1.0
 40
1.2577695411425227
 40
1.2577695411425227
 40
1.2577695411425227
 40
1.2577695411425227
 40
1.2577695411425227
 40
1.2577695411425227
 40
1.539753635029004
 40
1.539753635029004
 40
1.539753635029004
 40
1.539753635029004
 40
1.539753635029004
 40
1.539753635029004
 40
1.821737728915485
 40
1.821737728915485
 40
1.821737728915485
 40
1.821737728915485
 40
1.821737728915485
 40
1.821737728915485
 40
2.079507269639619
 40
2.079507269639619
 40
2.079507269639619
 40
2.079507269639619
 40
2.079507269639619
 40
2.079507269639619
 40
2.4817346760348316
 40
2.4817346760348316
 40
2.4817346760348316
 40
2.4817346760348316
 40
2.4817346760348316
 40
2.4817346760348316
 40
2.720094446980033
 40
2.720094446980033
 40
2.720094446980033
 40
2.720094446980033
 40
2.720094446980033
 40
2.720094446980033
 40
3.075356660820683
 40
3.075356660820683
 40
3.075356660820683
 40
3.075356660820683
 40
3.075356660820683
 40
3.075356660820683
 40
3.075356660820683
 40
3.075356660820683
 10
19.908165589569368
 20
36.981954286628586
 30
8.375000000000012
 10
19.908165589569368
 20
36.981954286628586
 30
8.258501346068238
 10
19.91932438834356
 20
36.975947308825425
 30
8.141997463274802
 10
19.94164320713244
 20
36.96393248389297
 30
8.026493952038518
 10
19.9752463783121
 20
36.94581601329067
 30
7.913044043160144
 10
20.020339881628388
 20
36.92143166970942
 30
7.802853304027771
 10
20.077160268193705
 20
36.890564853939054
 30
7.6973991662407455
 10
20.192043451288946
 20
36.82776323761326
 30
7.532253851965572
 10
20.243639198984933
 20
36.79947060296189
 30
7.468787363755851
 10
20.300660436910714
 20
36.768087011678
 30
7.408963008006334
 10
20.362979465197935
 20
36.73363827371228
 30
7.353594941262337
 10
20.4303813461956
 20
36.69619316390889
 30
7.3035157309869865
 10
20.502559237008665
 20
36.65586958666969
 30
7.259580113930725
 10
20.63455069494397
 20
36.581680702475346
 30
7.195936406235168
 10
20.692265273935934
 20
36.5491120539941
 30
7.172899303532672
 10
20.751863240247225
 20
36.51533620677681
 30
7.153999722288175
 10
20.81291023562641
 20
36.48058225077479
 30
7.139576814560762
 10
20.874938913378447
 20
36.44510385750837
 30
7.129866658123571
 10
20.93746444053088
 20
36.40917188103985
 30
7.125000000000014
 10
21.08323858877501
 20
36.325009137310225
 30
7.125000000000014
 10
21.1660477396617
 20
36.2769033094353
 30
7.13362241017409
 10
21.247369182619458
 20
36.22936284981026
 30
7.150754495905464
 10
21.326183111995274
 20
36.1830049539157
 30
7.176001649247338
 10
21.401554942328715
 20
36.13841652116684
 30
7.208697337006309
 10
21.472682064156945
 20
36.096120037856096
 30
7.2479130488258
 10
21.612969096091927
 20
36.012317374233405
 30
7.342248309993975
 10
21.68114908815347
 20
35.97134837639987
 30
7.398847514549234
 10
21.743284760579453
 20
35.933816687137444
 30
7.4611940821934235
 10
21.799281916517877
 20
35.89984219885364
 30
7.528323136556634
 10
21.849121618743226
 20
35.869491686448555
 30
7.59935827867482
 10
21.892841307436242
 20
35.842788001030534
 30
7.673497009801906
 10
21.971745290740557
 20
35.79447925420624
 30
7.833689586733192
 10
22.00581269835195
 20
35.77354548092483
 30
7.920351753129698
 10
22.03288077906788
 20
35.756868277455546
 30
8.009222699817892
 10
22.05308164098776
 20
35.74440026108086
 30
8.099661007589972
 10
22.066513227917884
 20
35.736102986350254
 30
8.191108553501872
 10
22.073229099030467
 20
35.731954286628586
 30
8.283054163275024
 10
22.073229099030467
 20
35.731954286628586
 30
8.466945836725003
 10
22.066513227917888
 20
35.73610298635027
 30
8.55889144649816
 10
22.053081640987745
 20
35.74440026108084
 30
8.65033899241008
 10
22.032880779067884
 20
35.75686827745553
 30
8.740777300182117
 10
22.005812698351974
 20
35.77354548092486
 30
8.829648246870283
 10
21.97174529074051
 20
35.79447925420625
 30
8.916310413266912
 10
21.89284130749743
 20
35.84278800099305
 30
9.076502990073898
 10
21.84912161876212
 20
35.86949168643722
 30
9.150641721333361
 10
21.799281916459524
 20
35.899842198889445
 30
9.221676863539727
 10
21.743284760503084
 20
35.93381668718347
 30
9.288805917868311
 10
21.681149088156335
 20
35.97134837639752
 30
9.351152485419517
 10
21.612969096195105
 20
36.01231737417177
 30
9.407751689936672
 10
21.423425438436393
 20
36.12554425746865
 30
9.535209304591504
 10
21.29197948289994
 20
36.203479385842975
 30
9.597420649943736
 10
21.148514406282647
 20
36.28772450151574
 30
9.636571105786349
 10
20.998909997110324
 20
36.37453690259911
 30
9.648382358337976
 10
20.849944886874127
 20
36.459913447955465
 30
9.631916552274813
 10
20.708275460260904
 20
36.54024197483408
 30
9.589612238254066
 10
20.502559237008672
 20
36.65586958666969
 30
9.490419886069303
 10
20.430381346195578
 20
36.6961931639089
 30
9.446484269013013
 10
20.362979465197927
 20
36.73363827371229
 30
9.396405058737693
 10
20.300660436910757
 20
36.76808701167797
 30
9.341036991993729
 10
20.243639198984962
 20
36.79947060296187
 30
9.281212636244192
 10
20.19204345128892
 20
36.82776323761328
 30
9.217746148034413
 10
20.077160504398705
 20
36.890564724816095
 30
9.05260117330548
 10
20.020339783561504
 20
36.921431724463154
 30
8.94714671886961
 10
19.975246032473944
 20
36.94581620056736
 30
8.836955320098456
 10
19.941642885892218
 20
36.96393265643277
 30
8.723504908586188
 10
19.919324252538242
 20
36.975947382058656
 30
8.608001372179968
 10
19.908165589569368
 20
36.981954286628586
 30
8.491497944319624
 10
19.908165589569368
 20
36.981954286628586
 30
8.375000000000012
  0
SPLINE
  5
46
330
17
100
AcDbEntity
  8
0
100
AcDbSpline
 70
0
 71
7
 72
76
 73
68
 74
0
 40
0.0
 40
0.0
 40
0.0
 40
0.0
 40
0.0
 40
0.0
 40
0.0
 40
0.0
 40
0.3567429142014545
 40
0.3567429142014545
 40
0.3567429142014545
 40
0.3567429142014545
 40
0.3567429142014545
 40
0.3567429142014545
 40
0.5960961467842606
 40
0.5960961467842606
 40
0.5960961467842606
 40
0.5960961467842606
 40
0.5960961467842606
 40
0.5960961467842606
 40
1.0
 40
1.0
 40
1.0
 40
1.0
 40
1.0
 40
1.0
 40
1.258843900091135
 40
1.258843900091135
 40
1.258843900091135
 40
1.258843900091135
 40
1.258843900091135
 40
1.258843900091135
 40
1.5420032768805267
 40
1.5420032768805267
 40
1.5420032768805267
 40
1.5420032768805267
 40
1.5420032768805267
 40
1.5420032768805267
 40
1.825162653669975
 40
1.825162653669975
 40
1.825162653669975
 40
1.825162653669975
 40
1.825162653669975
 40
1.825162653669975
 40
2.0840065534294
 40
2.0840065534294
 40
2.0840065534294
 40
2.0840065534294
 40
2.0840065534294
 40
2.0840065534294
 40
2.315682443192986
 40
2.315682443192986
 40
2.315682443192986
 40
2.315682443192986
 40
2.315682443192986
 40
2.315682443192986
 40
2.4897361029323415
 40
2.4897361029323415
 40
2.4897361029323415
 40
2.4897361029323415
 40
2.4897361029323415
 40
2.4897361029323415
 40
2.7300293164842815
 40
2.7300293164842815
 40
2.7300293164842815
 40
2.7300293164842815
 40
2.7300293164842815
 40
2.7300293164842815
 40
3.088174451266381
 40
3.088174451266381
 40
3.088174451266381
 40
3.088174451266381
 40
3.088174451266381
 40
3.088174451266381
 40
3.088174451266381
 40
3.088174451266381
 10
19.908165589569368
 20
-36.981954286628586
 30
8.375000000000002
 10
19.908165589569368
 20
-36.981954286628586
 30
8.49149794431961
 10
19.91932425253827
 20
-36.97594738205868
 30
8.60800137218001
 10
19.94164288589219
 20
-36.9639326564328
 30
8.723504908586154
 10
19.975246032473922
 20
-36.94581620056736
 30
8.8369553200984
 10
20.020339783561536
 20
-36.921431724463126
 30
8.947146718869622
 10
20.077160504398712
 20
-36.8905647248161
 30
9.052601173305485
 10
20.192043451279094
 20
-36.82776323761866
 30
9.21774614802028
 10
20.24363919898274
 20
-36.79947060296308
 30
9.281212636245517
 10
20.30066043691982
 20
-36.76808701167306
 30
9.341036992004536
 10
20.362979465208582
 20
-36.73363827370639
 30
9.396405058743955
 10
20.43038134619457
 20
-36.696193163909356
 30
9.4464842690092
 10
20.50255923699454
 20
-36.65586958667763
 30
9.490419886062485
 10
20.70827546026099
 20
-36.54024197483403
 30
9.589612238254103
 10
20.849944886873928
 20
-36.45991344795568
 30
9.631916552274745
 10
20.998909997110527
 20
-36.37453690259878
 30
9.648382358337937
 10
21.14851440628251
 20
-36.28772450151601
 30
9.636571105786462
 10
21.29197948290004
 20
-36.203479385842854
 30
9.597420649943627
 10
21.42342543843636
 20
-36.125544257468675
 30
9.535209304591524
 10
21.61296909609186
 20
-36.01231737423346
 30
9.407751690006094
 10
21.681149088153514
 20
-35.97134837639986
 30
9.351152485450742
 10
21.743284760579463
 20
-35.93381668713743
 30
9.2888059178066
 10
21.79928191651786
 20
-35.89984219885364
 30
9.221676863443397
 10
21.849121618743247
 20
-35.86949168644857
 30
9.150641721325172
 10
21.89284130743621
 20
-35.84278800103054
 30
9.076502990198176
 10
21.97174529074055
 20
-35.79447925420623
 30
8.91631041326682
 10
22.005812698351935
 20
-35.773545480924845
 30
8.829648246870367
 10
22.032880779067888
 20
-35.75686827745558
 30
8.740777300182156
 10
22.053081640987767
 20
-35.74440026108088
 30
8.650338992410008
 10
22.06651322791788
 20
-35.73610298635021
 30
8.558891446498105
 10
22.07322909903047
 20
-35.73195428662859
 30
8.466945836725047
 10
22.07322909903047
 20
-35.73195428662859
 30
8.283054163274945
 10
22.066513227917888
 20
-35.73610298635021
 30
8.191108553501948
 10
22.053081640987767
 20
-35.744400261080884
 30
8.099661007589988
 10
22.032880779067884
 20
-35.75686827745559
 30
8.009222699817832
 10
22.005812698351946
 20
-35.77354548092483
 30
7.920351753129673
 10
21.97174529074055
 20
-35.79447925420624
 30
7.833689586733191
 10
21.89284130748451
 20
-35.84278800100097
 30
7.673497009899906
 10
21.849121618758158
 20
-35.86949168643958
 30
7.599358278668414
 10
21.79928191647181
 20
-35.89984219888192
 30
7.528323136480581
 10
21.74328476051917
 20
-35.933816687173795
 30
7.4611940821446945
 10
21.681149088155767
 20
-35.971348376397984
 30
7.398847514573947
 10
21.612969096173348
 20
-36.01231737418478
 30
7.342248310048709
 10
21.472682064167312
 20
-36.09612003784991
 30
7.247913048832756
 10
21.401554942316324
 20
-36.13841652117407
 30
7.208697337003188
 10
21.326183111986634
 20
-36.18300495392085
 30
7.176001649241907
 10
21.24736918263015
 20
-36.22936284980411
 30
7.1507544959057885
 10
21.166047739673694
 20
-36.27690330942828
 30
7.133622410178238
 10
21.083238588761873
 20
-36.325009137317785
 30
7.125000000000005
 10
20.937464442155242
 20
-36.40917188010201
 30
7.125000000000005
 10
20.874938911831993
 20
-36.445103858388215
 30
7.1298666585289885
 10
20.812910234313424
 20
-36.48058225153182
 30
7.139576814590195
 10
20.75186324141817
 20
-36.51533620611776
 30
7.153999721755279
 10
20.69226527551092
 20
-36.54911205309451
 30
7.17289930323087
 10
20.634550693513003
 20
-36.58168070327964
 30
7.195936406925142
 10
20.5025592370143
 20
-36.65586958666653
 30
7.259580113927997
 10
20.43038134619593
 20
-36.69619316390874
 30
7.303515730985522
 10
20.36297946519374
 20
-36.733638273714654
 30
7.353594941264805
 10
20.3006604369072
 20
-36.76808701167994
 30
7.4089630080105655
 10
20.243639198985797
 20
-36.79947060296138
 30
7.468787363756371
 10
20.192043451292818
 20
-36.82776323761116
 30
7.5322538519599975
 10
20.077160268193744
 20
-36.89056485393905
 30
7.697399166240689
 10
20.020339881628377
 20
-36.92143166970941
 30
7.802853304027762
 10
19.975246378312086
 20
-36.945816013290674
 30
7.913044043160176
 10
19.94164320713244
 20
-36.963932483893
 30
8.026493952038543
 10
19.919324388343565
 20
-36.97594730882543
 30
8.141997463274787
 10
19.908165589569368
 20
-36.981954286628586
 30
8.2585013460682
 10
19.908165589569368
 20
-36.981954286628586
 30
8.375000000000002
  0
SPLINE
  5
47
330
17
100
AcDbEntity
  8
0
100
AcDbSpline
 70
0
 71
6
 72
79
 73
72
 74
0
 40
0.0
 40
0.0
 40
0.0
 40
0.0
 40
0.0
 40
0.0
 40
0.0
 40
0.35679635927754877
 40
0.35679635927754877
 40
0.35679635927754877
 40
0.35679635927754877
 40
0.35679635927754877
 40
0.5961854503866777
 40
0.5961854503866777
 40
0.5961854503866777
 40
0.5961854503866777
 40
0.5961854503866777
 40
0.7695842237684644
 40
0.7695842237684644
 40
0.7695842237684644
 40
0.7695842237684644
 40
0.7695842237684644
 40
0.8734754177553246
 40
0.8734754177553246
 40
0.8734754177553246
 40
0.8734754177553246
 40
0.8734754177553246
 40
1.0
 40
1.0
 40
1.0
 40
1.0
 40
1.0
 40
1.256945710376005
 40
1.256945710376005
 40
1.256945710376005
 40
1.256945710376005
 40
1.256945710376005
 40
1.5380285842100552
 40
1.5380285842100552
 40
1.5380285842100552
 40
1.5380285842100552
 40
1.5380285842100552
 40
1.8191114580441843
 40
1.8191114580441843
 40
1.8191114580441843
 40
1.8191114580441843
 40
1.8191114580441843
 40
2.0760571687496725
 40
2.0760571687496725
 40
2.0760571687496725
 40
2.0760571687496725
 40
2.0760571687496725
 40
2.2071417620363345
 40
2.2071417620363345
 40
2.2071417620363345
 40
2.2071417620363345
 40
2.2071417620363345
 40
2.3042157887255144
 40
2.3042157887255144
 40
2.3042157887255144
 40
2.3042157887255144
 40
2.3042157887255144
 40
2.4798568524414
 40
2.4798568524414
 40
2.4798568524414
 40
2.4798568524414
 40
2.4798568524414
 40
2.7192475506230878
 40
2.7192475506230878
 40
2.7192475506230878
 40
2.7192475506230878
 40
2.7192475506230878
 40
3.0760463051765923
 40
3.0760463051765923
 40
3.0760463051765923
 40
3.0760463051765923
 40
3.0760463051765923
 40
3.0760463051765923
 40
3.0760463051765923
 10
41.981394688599856
 20
-1.2499999999999876
 30
8.375
 10
41.981394688599856
 20
-1.2499999999999876
 30
8.510914268372861
 10
41.981922767940134
 20
-1.2322660069563842
 30
8.646836213702855
 10
41.982978681634606
 20
-1.196795237496603
 30
8.78100642974863
 10
41.98451804660482
 20
-1.1432273917440061
 30
8.911553840564792
 10
41.98644186589277
 20
-1.0710070810884822
 30
9.03612891463172
 10
41.99000462104688
 20
-0.9182994046697344
 30
9.228798051820267
 10
41.991532534047785
 20
-0.848201524290042
 30
9.302178470013157
 10
41.993098932933115
 20
-0.7693716010645644
 30
9.370180883473703
 10
41.99462660856746
 20
-0.6820816528476505
 30
9.431370625752145
 10
41.996025091864524
 20
-0.5868315128887049
 30
9.484268377168867
 10
41.998062407537496
 20
-0.41019538218717616
 30
9.558519369476656
 10
41.9988040630723
 20
-0.3322619402114703
 30
9.584533227264336
 10
41.99939265780939
 20
-0.2513514274165485
 30
9.604600565549068
 10
41.99979733719516
 20
-0.16835641096679577
 30
9.61818667862604
 10
42.0
 20
-0.0842448182141813
 30
9.624999999999998
 10
42.0
 20
0.05047495193177728
 30
9.625
 10
41.99992721370711
 20
0.10093890009502515
 30
9.62255414510941
 10
41.99978167296434
 20
0.15116267326255223
 30
9.61766464182132
 10
41.999565694586046
 20
0.20092001141134594
 30
9.610371219100394
 10
41.99928362955433
 20
0.24999121962117746
 30
9.600750912767943
 10
41.99852508412213
 20
0.35683780002307897
 30
9.574506875479832
 10
41.99801982271621
 20
0.41415333240228575
 30
9.556820657829428
 10
41.99743620011209
 20
0.4698504604790769
 30
9.536043909019249
 10
41.99678705838385
 20
0.523691332119714
 30
9.51239590261401
 10
41.996086627775064
 20
0.5754667966805348
 30
9.486129763000873
 10
41.99385237634
 20
0.7255918683020066
 30
9.399455012488104
 10
41.992205514450134
 20
0.8168156402136322
 30
9.331831474601234
 10
41.99051671516158
 20
0.8982133561378965
 30
9.256536750295858
 10
41.98888239986508
 20
0.9696074489416653
 30
9.175197014484214
 10
41.98737540768402
 20
1.0310012291477775
 30
9.089253488450098
 10
41.984593362309276
 20
1.1389029943974358
 30
8.902362148811324
 10
41.983350381809146
 20
1.1835869243666355
 30
8.800562686093897
 10
41.98238139941581
 20
1.2168603920981098
 30
8.695938260748326
 10
41.98172360991332
 20
1.2389533492059932
 30
8.58953996795901
 10
41.981394688599856
 20
1.2500000000000113
 30
8.48227014284586
 10
41.981394688599856
 20
1.2500000000000113
 30
8.26772985715411
 10
41.98172360991332
 20
1.2389533492059779
 30
8.16046003204096
 10
41.98238139941581
 20
1.2168603920981247
 30
8.054061739251765
 10
41.983350381809146
 20
1.1835869243666315
 30
7.9494373139060635
 10
41.984593362309276
 20
1.138902994397442
 30
7.847637851188695
 10
41.987375407685725
 20
1.0310012290817152
 30
7.660746511435483
 10
41.98888239986485
 20
0.9696074489437025
 30
7.574802985570516
 10
41.99051671515921
 20
0.8982133562309754
 30
7.493463249796242
 10
41.99220551445016
 20
0.8168156402537994
 30
7.418168525389706
 10
41.99385237634164
 20
0.7255918681913506
 30
7.35054498744801
 10
41.996113196223035
 20
0.5736815946699406
 30
7.2628395501377545
 10
41.99683756914802
 20
0.5199516758216144
 30
7.235711126901815
 10
41.99750633126008
 20
0.46400950417947623
 30
7.211404104278923
 10
41.99810362465101
 20
0.40609189810113566
 30
7.190200205151791
 10
41.99861526590805
 20
0.3464687574784027
 30
7.172340868512848
 10
41.99933720944386
 20
0.24024300677441102
 30
7.147425843618788
 10
41.99959111711704
 20
0.1942961672335887
 30
7.138774093890109
 10
41.99978694221928
 20
0.1477706463854177
 30
7.132160623240108
 10
41.999921243363694
 20
0.10084654228251928
 30
7.127646475455182
 10
41.99999214038311
 20
0.053708869469066244
 30
7.125264086627284
 10
42.00001278816176
 20
-0.07879115854502446
 30
7.124570311762849
 10
41.99981813417237
 20
-0.16404868614826948
 30
7.131115171237146
 10
41.99941547995436
 20
-0.24820276202553296
 30
7.144621553975338
 10
41.99882326928792
 20
-0.3302427132328993
 30
7.16479348166074
 10
41.99807346854833
 20
-0.4092363878687663
 30
7.191077506431586
 10
41.99602509186446
 20
-0.5868315128941763
 30
7.265731622833432
 10
41.994626608567465
 20
-0.6820816528458133
 30
7.3186293742484265
 10
41.99309893293319
 20
-0.7693716010599969
 30
7.379819116522826
 10
41.991532534047835
 20
-0.8482015242894247
 30
7.447821529984321
 10
41.990004621046786
 20
-0.9182994046735398
 30
7.52120194818453
 10
41.98644186589276
 20
-1.0710070810885197
 30
7.713871085368332
 10
41.98451804660485
 20
-1.143227391743975
 30
7.83844615943518
 10
41.98297868163457
 20
-1.1967952374966364
 30
7.968993570251415
 10
41.98192276794014
 20
-1.2322660069563793
 30
8.103163786297118
 10
41.981394688599856
 20
-1.2499999999999876
 30
8.239085731627167
 10
41.981394688599856
 20
-1.2499999999999876
 30
8.375
  0
SPLINE
  5
48
330
17
100
AcDbEntity
  8
0
100
AcDbSpline
 70
0
 71
7
 72
76
 73
68
 74
0
 40
0.0
 40
0.0
 40
0.0
 40
0.0
 40
0.0
 40
0.0
 40
0.0
 40
0.0
 40
0.3566586181436632
 40
0.3566586181436632
 40
0.3566586181436632
 40
0.3566586181436632
 40
0.3566586181436632
 40
0.3566586181436632
 40
0.5959544710263467
 40
0.5959544710263467
 40
0.5959544710263467
 40
0.5959544710263467
 40
0.5959544710263467
 40
0.5959544710263467
 40
0.7692857038741299
 40
0.7692857038741299
 40
0.7692857038741299
 40
0.7692857038741299
 40
0.7692857038741299
 40
0.7692857038741299
 40
1.0
 40
1.0
 40
1.0
 40
1.0
 40
1.0
 40
1.0
 40
1.2577695425085142
 40
1.2577695425085142
 40
1.2577695425085142
 40
1.2577695425085142
 40
1.2577695425085142
 40
1.2577695425085142
 40
1.5397536381765278
 40
1.5397536381765278
 40
1.5397536381765278
 40
1.5397536381765278
 40
1.5397536381765278
 40
1.5397536381765278
 40
1.821737733844616
 40
1.821737733844616
 40
1.821737733844616
 40
1.821737733844616
 40
1.821737733844616
 40
1.821737733844616
 40
2.0795072762362663
 40
2.0795072762362663
 40
2.0795072762362663
 40
2.0795072762362663
 40
2.0795072762362663
 40
2.0795072762362663
 40
2.4817346855491587
 40
2.4817346855491587
 40
2.4817346855491587
 40
2.4817346855491587
 40
2.4817346855491587
 40
2.4817346855491587
 40
2.720094458135479
 40
2.720094458135479
 40
2.720094458135479
 40
2.720094458135479
 40
2.720094458135479
 40
2.720094458135479
 40
3.0753566744220793
 40
3.0753566744220793
 40
3.0753566744220793
 40
3.0753566744220793
 40
3.0753566744220793
 40
3.0753566744220793
 40
3.0753566744220793
 40
3.0753566744220793
 10
-22.07322909903047
 20
35.731954286628564
 30
8.375000000000012
 10
-22.07322909903047
 20
35.731954286628564
 30
8.258501346068268
 10
-22.06244750426586
 20
35.738614600941176
 30
8.14199746327478
 10
-22.04088295125793
 20
35.751935852528604
 30
8.026493952038539
 10
-22.008392041899576
 20
35.771978817116725
 30
7.91304404316016
 10
-21.96472782924542
 20
35.79883876474363
 30
7.802853304027729
 10
-21.909586189371726
 20
35.8326132550769
 30
7.697399166240745
 10
-21.797756802689367
 20
35.90070420194081
 30
7.532253851968693
 10
-21.7474567884916
 20
35.93124111284807
 30
7.468787363755527
 10
-21.691767182212526
 20
35.96493115780657
 30
7.408963008003964
 10
-21.63077418586193
 20
36.00167665045982
 30
7.353594941260966
 10
-21.564644829028282
 20
36.04132583676344
 30
7.303515730987797
 10
-21.4936346413641
 20
36.08367193517781
 30
7.25958011393224
 10
-21.363389455414627
 20
36.1608854478999
 30
7.195936406925144
 10
-21.306326885988415
 20
36.19458341698634
 30
7.17289930323088
 10
-21.24727716151857
 20
36.229308845987525
 30
7.153999721755291
 10
-21.186655857517525
 20
36.26480011536649
 30
7.139576814590202
 10
-21.124916329010425
 20
36.30077932928891
 30
7.129866658528992
 10
-21.062535557844747
 20
36.33696203779084
 30
7.125000000000013
 10
-20.916761411235882
 20
36.42112478057636
 30
7.125000000000013
 10
-20.83369596676183
 20
36.468786694984594
 30
7.133622410177544
 10
-20.751863999541253
 20
36.51544290064531
 30
7.150754495905741
 10
-20.67230991935884
 20
36.560518817700355
 30
7.1760016492428305
 10
-20.596009288719717
 20
36.6034985211226
 30
7.208697337003722
 10
-20.52381589874863
 20
36.64394817387936
 30
7.247913048831592
 10
-20.3810971471344
 20
36.723538975570136
 30
7.342248310029307
 10
-20.311526958263865
 20
36.76210008177936
 30
7.398847514565207
 10
-20.24795572574422
 20
36.797145307927586
 30
7.461194082161987
 10
-20.19053437783158
 20
36.828653023373384
 30
7.5283231365075105
 10
-20.13933021191774
 20
36.85664021543716
 30
7.599358278670657
 10
-20.09434429760221
 20
36.88115073379385
 30
7.673497009865256
 10
-20.01305570399929
 20
36.925329214369945
 30
7.833689586749136
 10
-19.977892820753645
 20
36.944365568151575
 30
7.9203517531143595
 10
-19.949915898516515
 20
36.959468611954435
 30
8.009222699803765
 10
-19.929017848634835
 20
36.97072906337156
 30
8.099661007602544
 10
-19.91511640447995
 20
36.978212521495934
 30
8.191108553519957
 10
-19.908165589569382
 20
36.98195428662856
 30
8.28305416325775
 10
-19.908165589569382
 20
36.98195428662856
 30
8.4669458367423
 10
-19.915116404479942
 20
36.97821252149595
 30
8.55889144648003
 10
-19.92901784863484
 20
36.97072906337154
 30
8.650338992397504
 10
-19.94991589851651
 20
36.95946861195442
 30
8.740777300196276
 10
-19.977892820753635
 20
36.94436556815159
 30
8.829648246885624
 10
-20.013055703999303
 20
36.925329214369945
 30
8.91631041325093
 10
-20.094344297584588
 20
36.88115073380344
 30
9.076502990100051
 10
-20.13933021191237
 20
36.856640215440144
 30
9.150641721331647
 10
-20.19053437784842
 20
36.82865302336427
 30
9.221676863519468
 10
-20.24795572576604
 20
36.79714530791555
 30
9.288805917855303
 10
-20.311526958262885
 20
36.76210008177973
 30
9.351152485426056
 10
-20.38109714710506
 20
36.72353897558651
 30
9.407751689951326
 10
-20.57392633334631
 20
36.61600279446989
 30
9.5352093046296
 10
-20.70714311202721
 20
36.54113482199649
 30
9.59742064988652
 10
-20.851834060643945
 20
36.45901297893411
 30
9.63657110580472
 10
-21.001818010033965
 20
36.372857960555635
 30
9.648382358367257
 10
-21.15023882232545
 20
36.286538663485324
 30
9.631916552230921
 10
-21.290640080459298
 20
36.20401360459674
 30
9.589612238277036
 10
-21.49363464136099
 20
36.08367193517966
 30
9.490419886069303
 10
-21.56464482902814
 20
36.041325836763555
 30
9.44648426901303
 10
-21.63077418586423
 20
36.00167665045846
 30
9.396405058737676
 10
-21.69176718221443
 20
35.96493115780542
 30
9.3410369919937
 10
-21.74745678849112
 20
35.93124111284835
 30
9.281212636244202
 10
-21.79775680268725
 20
35.90070420194209
 30
9.217746148034447
 10
-21.909585959445504
 20
35.83261339507492
 30
9.052601173305433
 10
-21.964727925696973
 20
35.798838707192104
 30
8.947146718869659
 10
-22.008392377005006
 20
35.77197861125043
 30
8.836955320098436
 10
-22.04088326130188
 20
35.75193566059629
 30
8.723504908586177
 10
-22.06244763559037
 20
35.73861451994696
 30
8.608001372180029
 10
-22.07322909903047
 20
35.731954286628564
 30
8.491497944319574
 10
-22.07322909903047
 20
35.731954286628564
 30
8.375000000000012
  0
CIRCLE
  5
49
330
17
100
AcDbEntity
  8
0
100
AcDbCircle
 10
0.0
 20
0.0
 30
0.0
 40
41.25
  0
CIRCLE
  5
4A
330
17
100
AcDbEntity
  8
0
100
AcDbCircle
 10
-1.9567916310872095e-13
 20
-1.7225278442669098e-15
 30
0.0
 40
36.25
  0
CIRCLE
  5
4B
330
17
100
AcDbEntity
  8
0
100
AcDbCircle
 10
0.0
 20
0.0
 30
12.0
 40
42.0
  0
CIRCLE
  5
4C
330
17
100
AcDbEntity
  8
0
100
AcDbCircle
 10
-1.9962867338021862e-13
 20
-1.0150610510858574e-15
 30
12.0
 40
38.0
  0
SPLINE
  5
4D
330
17
100
AcDbEntity
  8
0
100
AcDbSpline
 70
0
 71
6
 72
24
 73
17
 74
0
 40
0.0
 40
0.0
 40
0.0
 40
0.0
 40
0.0
 40
0.0
 40
0.0
 40
0.4636148435862576
 40
0.4636148435862576
 40
0.4636148435862576
 40
0.4636148435862576
 40
0.4636148435862576
 40
0.7746820865766182
 40
0.7746820865766182
 40
0.7746820865766182
 40
0.7746820865766182
 40
0.7746820865766182
 40
1.0
 40
1.0
 40
1.0
 40
1.0
 40
1.0
 40
1.0
 40
1.0
 10
-37.979435224868936
 20
-1.2499999999999774
 30
8.375
 10
-37.979435224868936
 20
-1.2499999999999774
 30
8.510915899244917
 10
-37.98001896279122
 20
-1.2322655807794203
 30
8.646839460601285
 10
-37.98118616804096
 20
-1.1967939704041304
 30
8.781010587218756
 10
-37.98288774660006
 20
-1.1432253888357646
 30
8.911557710585058
 10
-37.985014218213955
 20
-1.0710052477243583
 30
9.036131227761555
 10
-37.98895220609742
 20
-0.9182987984507465
 30
9.228798816678268
 10
-37.990641046090545
 20
-0.8482005738942432
 30
9.302179371365051
 10
-37.99237239842163
 20
-0.7693706254780569
 30
9.370181582389113
 10
-37.994060925340754
 20
-0.6820809250272399
 30
9.431371017196067
 10
-37.995606642820015
 20
-0.5868311722718469
 30
9.484268520351007
 10
-37.997858437990885
 20
-0.4101956672457965
 30
9.558519249649045
 10
-37.99867816912698
 20
-0.3322623558072381
 30
9.584533103638309
 10
-37.9993287242659
 20
-0.2513518705258202
 30
9.604600479011781
 10
-37.99977600293948
 20
-0.16835679678141371
 30
9.618186638937976
 10
-38.0000000000002
 20
-0.08424505965061664
 30
9.624999999999998
 10
-38.0000000000002
 20
2.1183093592811154e-15
 30
9.625
  0
LINE
  5
4E
330
17
100
AcDbEntity
  8
0
100
AcDbLine
 10
-37.97943522486892
 20
-1.25
 30
8.375
 11
-41.98139468859985
 21
-1.25
 31
8.375
  0
SPLINE
  5
4F
330
17
100
AcDbEntity
  8
0
100
AcDbSpline
 70
0
 71
6
 72
24
 73
17
 74
0
 40
0.0
 40
0.0
 40
0.0
 40
0.0
 40
0.0
 40
0.0
 40
0.0
 40
0.4636222368597169
 40
0.4636222368597169
 40
0.4636222368597169
 40
0.4636222368597169
 40
0.4636222368597169
 40
0.7746851247405899
 40
0.7746851247405899
 40
0.7746851247405899
 40
0.7746851247405899
 40
0.7746851247405899
 40
1.0
 40
1.0
 40
1.0
 40
1.0
 40
1.0
 40
1.0
 40
1.0
 10
-41.98139468859985
 20
-1.2499999999999662
 30
8.375
 10
-41.98139468859985
 20
-1.2499999999999662
 30
8.510914268372916
 10
-41.981922767940155
 20
-1.2322660069563975
 30
8.646836213702795
 10
-41.9829786816346
 20
-1.1967952374965702
 30
8.781006429748645
 10
-41.9845180466048
 20
-1.143227391744021
 30
8.91155384056477
 10
-41.98644186589278
 20
-1.07100708108845
 30
9.036128914631744
 10
-41.99000462104692
 20
-0.9182994046683953
 30
9.228798051821942
 10
-41.99153253404776
 20
-0.848201524290203
 30
9.302178470012276
 10
-41.99309893293312
 20
-0.7693716010662666
 30
9.37018088347244
 10
-41.99462660856742
 20
-0.6820816528482311
 30
9.431370625752365
 10
-41.99602509186455
 20
-0.5868315128867814
 30
9.484268377169672
 10
-41.99806240753747
 20
-0.41019538219050705
 30
9.558519369475253
 10
-41.998804063072306
 20
-0.33226194020567607
 30
9.58453322726564
 10
-41.9993926578094
 20
-0.25135142741675703
 30
9.604600565549719
 10
-41.999797337195155
 20
-0.16835641097267018
 30
9.618186678625047
 10
-41.99999999999999
 20
-0.08424481821035147
 30
9.624999999999998
 10
-41.99999999999999
 20
3.0699290946740824e-15
 30
9.625
  0
SPLINE
  5
50
330
17
100
AcDbEntity
  8
0
100
AcDbSpline
 70
0
 71
6
 72
39
 73
32
 74
0
 40
0.0
 40
0.0
 40
0.0
 40
0.0
 40
0.0
 40
0.0
 40
0.0
 40
1.0
 40
1.0
 40
1.0
 40
1.0
 40
1.0
 40
2.1172695785179347
 40
2.1172695785179347
 40
2.1172695785179347
 40
2.1172695785179347
 40
2.1172695785179347
 40
3.3394940859852364
 40
3.3394940859852364
 40
3.3394940859852364
 40
3.3394940859852364
 40
3.3394940859852364
 40
4.561718593452376
 40
4.561718593452376
 40
4.561718593452376
 40
4.561718593452376
 40
4.561718593452376
 40
5.678988172942098
 40
5.678988172942098
 40
5.678988172942098
 40
5.678988172942098
 40
5.678988172942098
 40
6.679003847763683
 40
6.679003847763683
 40
6.679003847763683
 40
6.679003847763683
 40
6.679003847763683
 40
6.679003847763683
 40
6.679003847763683
 10
-41.99999999999999
 20
7.549516567451064e-15
 30
7.125
 10
-41.99999999999999
 20
0.11213370478265784
 30
7.124999999999997
 10
-41.99964119692134
 20
0.22378153966246664
 30
7.137071113545445
 10
-41.998927185586275
 20
0.3328023286920642
 30
7.161016535373046
 10
-41.99791417281463
 20
0.4371282501921163
 30
7.195981299110197
 10
-41.99668937987047
 20
0.5349663408802566
 30
7.240487287940531
 10
-41.99385237633887
 20
0.7255918683771833
 30
7.3505449875552955
 10
-41.99220551445012
 20
0.8168156401863131
 30
7.418168525404833
 10
-41.990516715163224
 20
0.8982133560747718
 30
7.493463249641684
 10
-41.98888239986521
 20
0.9696074489403397
 30
7.574802985478702
 10
-41.987375407682876
 20
1.031001229192603
 30
7.660746511627517
 10
-41.984593362309006
 20
1.1389029944082105
 30
7.847637851207318
 10
-41.98335038180968
 20
1.1835869243453094
 30
7.949437313877253
 10
-41.982381399415395
 20
1.2168603921140853
 30
8.05406173924873
 10
-41.981723609913445
 20
1.238953349201712
 30
8.160460032074049
 10
-41.98139468859985
 20
1.2500000000000377
 30
8.267729857134198
 10
-41.98139468859985
 20
1.2500000000000377
 30
8.482270142865788
 10
-41.981723609913445
 20
1.2389533492017097
 30
8.589539967925958
 10
-41.982381399415395
 20
1.2168603921140915
 30
8.695938260751316
 10
-41.98335038180968
 20
1.183586924345332
 30
8.800562686122674
 10
-41.984593362309006
 20
1.1389029944081699
 30
8.902362148792761
 10
-41.98737540768403
 20
1.0310012291478063
 30
9.089253488450078
 10
-41.988882399865055
 20
0.9696074489416819
 30
9.175197014484233
 10
-41.99051671516161
 20
0.8982133561379296
 30
9.256536750295824
 10
-41.99220551445014
 20
0.8168156402135658
 30
9.331831474601309
 10
-41.993852376339994
 20
0.7255918683020948
 30
9.399455012488058
 10
-41.996689400871546
 20
0.5349649297642308
 30
9.50951352676769
 10
-41.99791418539696
 20
0.43712688248891346
 30
9.554019107764752
 10
-41.998927178993455
 20
0.33280221355484424
 30
9.588983208210395
 10
-41.999641183949024
 20
0.22378296952950882
 30
9.612928463574145
 10
-41.99999999999999
 20
0.11213565509901517
 30
9.625000000000002
 10
-41.99999999999999
 20
8.215650382226158e-15
 30
9.625
  0
SPLINE
  5
51
330
17
100
AcDbEntity
  8
0
100
AcDbSpline
 70
0
 71
6
 72
24
 73
17
 74
0
 40
0.0
 40
0.0
 40
0.0
 40
0.0
 40
0.0
 40
0.0
 40
0.0
 40
0.22531487071193085
 40
0.22531487071193085
 40
0.22531487071193085
 40
0.22531487071193085
 40
0.22531487071193085
 40
0.5363777603762395
 40
0.5363777603762395
 40
0.5363777603762395
 40
0.5363777603762395
 40
0.5363777603762395
 40
1.0
 40
1.0
 40
1.0
 40
1.0
 40
1.0
 40
1.0
 40
1.0
 10
-41.99999999999999
 20
2.4046456479139087e-15
 30
7.125
 10
-41.99999999999999
 20
-0.08424481602970711
 30
7.125000000000001
 10
-41.99979733717944
 20
-0.16835641432713389
 30
7.131813321940574
 10
-41.99939265781965
 20
-0.2513514275440007
 30
7.145399434077411
 10
-41.99880406309287
 20
-0.33226193691194233
 30
7.165466771992455
 10
-41.99806240751545
 20
-0.4101953840988364
 30
7.1914806313269315
 10
-41.996025091864325
 20
-0.5868315129070433
 30
7.265731622838846
 10
-41.99462660856738
 20
-0.6820816528417154
 30
7.318629374249892
 10
-41.993098932933506
 20
-0.7693716010484766
 30
7.37981911651419
 10
-41.99153253404785
 20
-0.8482015242883623
 30
7.447821529978656
 10
-41.990004621046594
 20
-0.9182994046823709
 30
7.521201948195698
 10
-41.98644186589277
 20
-1.071007081088521
 30
7.7138710853683605
 10
-41.984518046604805
 20
-1.143227391743949
 30
7.838446159435108
 10
-41.98297868163459
 20
-1.196795237496604
 30
7.968993570251405
 10
-41.981922767940155
 20
-1.232266006956391
 30
8.103163786297223
 10
-41.98139468859985
 20
-1.2499999999999662
 30
8.239085731627096
 10
-41.98139468859985
 20
-1.2499999999999662
 30
8.375
  0
LINE
  5
52
330
17
100
AcDbEntity
  8
0
100
AcDbLine
 10
-37.97943522486892
 20
-1.25
 30
8.375
 11
-41.98139468859985
 21
-1.25
 31
8.375
  0
SPLINE
  5
53
330
17
100
AcDbEntity
  8
0
100
AcDbSpline
 70
0
 71
6
 72
24
 73
17
 74
0
 40
0.0
 40
0.0
 40
0.0
 40
0.0
 40
0.0
 40
0.0
 40
0.0
 40
0.22531791334046417
 40
0.22531791334046417
 40
0.22531791334046417
 40
0.22531791334046417
 40
0.22531791334046417
 40
0.53638515631145
 40
0.53638515631145
 40
0.53638515631145
 40
0.53638515631145
 40
0.53638515631145
 40
1.0
 40
1.0
 40
1.0
 40
1.0
 40
1.0
 40
1.0
 40
1.0
 10
-38.0000000000002
 20
1.4530259125209411e-15
 30
7.125
 10
-38.0000000000002
 20
-0.08424505964553684
 30
7.125000000000001
 10
-37.999776002939434
 20
-0.16835679678923895
 30
7.13181336106334
 10
-37.999328724265936
 20
-0.25135187052614055
 30
7.145399520987357
 10
-37.99867816912703
 20
-0.3322623557995886
 30
7.165466896359973
 10
-37.99785843799083
 20
-0.4101956672502525
 30
7.191480750352825
 10
-37.99560664281969
 20
-0.5868311722970798
 30
7.265731479659601
 10
-37.994060925340705
 20
-0.6820809250191541
 30
7.318628982806776
 10
-37.99237239842215
 20
-0.76937062545578
 30
7.379818417594125
 10
-37.99064104609067
 20
-0.8482005738920749
 30
7.447820628623769
 10
-37.988952206096975
 20
-0.9182987984681054
 30
7.521201183343642
 10
-37.985014218213955
 20
-1.071005247724362
 30
7.713868772238465
 10
-37.98288774660006
 20
-1.1432253888357522
 30
7.838442289414877
 10
-37.98118616804096
 20
-1.196793970404138
 30
7.968989412781336
 10
-37.98001896279122
 20
-1.232265580779435
 30
8.103160539398742
 10
-37.979435224868936
 20
-1.2499999999999774
 30
8.239084100755047
 10
-37.979435224868936
 20
-1.2499999999999774
 30
8.375
  0
SPLINE
  5
54
330
17
100
AcDbEntity
  8
0
100
AcDbSpline
 70
0
 71
6
 72
39
 73
32
 74
0
 40
0.0
 40
0.0
 40
0.0
 40
0.0
 40
0.0
 40
0.0
 40
0.0
 40
1.0
 40
1.0
 40
1.0
 40
1.0
 40
1.0
 40
2.117264380811749
 40
2.117264380811749
 40
2.117264380811749
 40
2.117264380811749
 40
2.117264380811749
 40
3.3394477928685964
 40
3.3394477928685964
 40
3.3394477928685964
 40
3.3394477928685964
 40
3.3394477928685964
 40
4.5616312046971705
 40
4.5616312046971705
 40
4.5616312046971705
 40
4.5616312046971705
 40
4.5616312046971705
 40
5.678895585972507
 40
5.678895585972507
 40
5.678895585972507
 40
5.678895585972507
 40
5.678895585972507
 40
6.678911342039298
 40
6.678911342039298
 40
6.678911342039298
 40
6.678911342039298
 40
6.678911342039298
 40
6.678911342039298
 40
6.678911342039298
 10
-38.0000000000002
 20
6.106226635438361e-15
 30
7.125
 10
-38.0000000000002
 20
0.11213425216563644
 30
7.124999999999998
 10
-37.99960295874464
 20
0.22378238116692345
 30
7.137071232588658
 10
-37.99881509395426
 20
0.33280271410771123
 30
7.1610167300884235
 10
-37.99769412821986
 20
0.43712898723521476
 30
7.195981519104077
 10
-37.99634086002286
 20
0.5349667538911234
 30
7.240487526392457
 10
-37.99320516966518
 20
0.7255909389663773
 30
7.350544450959708
 10
-37.99138490873637
 20
0.816814146505063
 30
7.418167386829388
 10
-37.98951826677521
 20
0.8982117160255795
 30
7.4934616248129355
 10
-37.98771181320561
 20
0.9696060823174201
 30
7.574801218583545
 10
-37.98604606509785
 20
1.031000470572248
 30
7.6607451976585255
 10
-37.98297094759811
 20
1.1389021911124397
 30
7.8476364598582355
 10
-37.981597015228374
 20
1.1835860751181024
 30
7.9494351472104645
 10
-37.980525924428484
 20
1.2168598680015819
 30
8.05405951203343
 10
-37.97979881091581
 20
1.2389531749986367
 30
8.160458335469508
 10
-37.979435224868936
 20
1.250000000000026
 30
8.267729011949385
 10
-37.979435224868936
 20
1.2500000000000255
 30
8.48227098803058
 10
-37.97979881091569
 20
1.2389531750028842
 30
8.589541664563741
 10
-37.98052592442893
 20
1.2168598679856888
 30
8.695940487963469
 10
-37.98159701522776
 20
1.1835860751393683
 30
8.800564852760791
 10
-37.98297094759842
 20
1.138902191101711
 30
8.902363540160355
 10
-37.986046065098456
 20
1.0310004705510418
 30
9.089254802378209
 10
-37.98771181320552
 20
0.9696060823181543
 30
9.175198781398795
 10
-37.98951826677437
 20
0.8982117160553258
 30
9.256538375157655
 10
-37.991384908736386
 20
0.8168141465179735
 30
9.3318326131735
 10
-37.993205169665764
 20
0.7255909389308784
 30
9.399455549060779
 10
-37.99634088335662
 20
0.5349653353903819
 30
9.509513292579319
 10
-37.99769414253956
 20
0.43712763306563895
 30
9.554018883807894
 10
-37.998815085861175
 20
0.33280259374209353
 30
9.588983012994026
 10
-37.99960294481273
 20
0.22378380128664843
 30
9.612928346144315
 10
-38.0000000000002
 20
0.11213621270889818
 30
9.625000000000002
 10
-38.0000000000002
 20
6.772360450213455e-15
 30
9.625
  0
SPLINE
  5
55
330
17
100
AcDbEntity
  8
0
100
AcDbSpline
 70
0
 71
7
 72
76
 73
68
 74
0
 40
0.0
 40
0.0
 40
0.0
 40
0.0
 40
0.0
 40
0.0
 40
0.0
 40
0.0
 40
0.35674291412606
 40
0.35674291412606
 40
0.35674291412606
 40
0.35674291412606
 40
0.35674291412606
 40
0.35674291412606
 40
0.5960961467092348
 40
0.5960961467092348
 40
0.5960961467092348
 40
0.5960961467092348
 40
0.5960961467092348
 40
0.5960961467092348
 40
1.0
 40
1.0
 40
1.0
 40
1.0
 40
1.0
 40
1.0
 40
1.258843900424261
 40
1.258843900424261
 40
1.258843900424261
 40
1.258843900424261
 40
1.258843900424261
 40
1.258843900424261
 40
1.5420032779411605
 40
1.5420032779411605
 40
1.5420032779411605
 40
1.5420032779411605
 40
1.5420032779411605
 40
1.5420032779411605
 40
1.825162655511046
 40
1.825162655511046
 40
1.825162655511046
 40
1.825162655511046
 40
1.825162655511046
 40
1.825162655511046
 40
2.084006556032512
 40
2.084006556032512
 40
2.084006556032512
 40
2.084006556032512
 40
2.084006556032512
 40
2.084006556032512
 40
2.315682446538404
 40
2.315682446538404
 40
2.315682446538404
 40
2.315682446538404
 40
2.315682446538404
 40
2.315682446538404
 40
2.4897361113814154
 40
2.4897361113814154
 40
2.4897361113814154
 40
2.4897361113814154
 40
2.4897361113814154
 40
2.4897361113814154
 40
2.730029325788773
 40
2.730029325788773
 40
2.730029325788773
 40
2.730029325788773
 40
2.730029325788773
 40
2.730029325788773
 40
3.088174461896755
 40
3.088174461896755
 40
3.088174461896755
 40
3.088174461896755
 40
3.088174461896755
 40
3.088174461896755
 40
3.088174461896755
 40
3.088174461896755
 10
-22.073229099030478
 20
-35.731954286628586
 30
8.375000000000002
 10
-22.073229099030478
 20
-35.731954286628586
 30
8.491497944319594
 10
-22.06244763559036
 20
-35.73861451994694
 30
8.60800137218003
 10
-22.040883261301904
 20
-35.75193566059625
 30
8.723504908586149
 10
-22.008392377005045
 20
-35.77197861125042
 30
8.836955320098392
 10
-21.96472792569699
 20
-35.798838707192125
 30
8.947146718869638
 10
-21.90958595944548
 20
-35.83261339507492
 30
9.052601173305472
 10
-21.797756802687278
 20
-35.900704201942055
 30
9.217746148034413
 10
-21.747456788491146
 20
-35.9312411128484
 30
9.281212636244197
 10
-21.691767182214416
 20
-35.9649311578054
 30
9.341036991993713
 10
-21.63077418586423
 20
-36.001676650458414
 30
9.396405058737667
 10
-21.564644829028186
 20
-36.041325836763555
 30
9.446484269013004
 10
-21.493634641360988
 20
-36.08367193517965
 30
9.490419886069304
 10
-21.290640080506304
 20
-36.20401360456887
 30
9.589612238254068
 10
-21.150238822274314
 20
-36.286538663516204
 30
9.631916552274792
 10
-21.00181800999015
 20
-36.37285796058008
 30
9.648382358337948
 10
-20.851834060702277
 20
-36.45901297889986
 30
9.636571105786386
 10
-20.707143112076306
 20
-36.5411348219699
 30
9.597420649943697
 10
-20.57392633328871
 20
-36.61600279450201
 30
9.535209304591506
 10
-20.381097147105034
 20
-36.723538975586514
 30
9.407751689951287
 10
-20.311526958262913
 20
-36.76210008177971
 30
9.351152485426095
 10
-20.24795572576608
 20
-36.79714530791553
 30
9.288805917855301
 10
-20.190534377848426
 20
-36.828653023364254
 30
9.221676863519436
 10
-20.13933021191236
 20
-36.85664021544013
 30
9.150641721331647
 10
-20.094344297584605
 20
-36.881150733803416
 30
9.076502990100051
 10
-20.013055704007396
 20
-36.92532921436554
 30
8.916310413266848
 10
-19.977892820742937
 20
-36.94436556815739
 30
8.829648246870336
 10
-19.949915898516476
 20
-36.95946861195447
 30
8.74077730018209
 10
-19.92901784864126
 20
-36.97072906336806
 30
8.650338992410044
 10
-19.915116404477317
 20
-36.97821252149733
 30
8.558891446498203
 10
-19.90816558956939
 20
-36.981954286628586
 30
8.466945836724978
 10
-19.90816558956939
 20
-36.981954286628586
 30
8.283054163257827
 10
-19.915116404479967
 20
-36.97821252149591
 30
8.191108553519905
 10
-19.929017848634864
 20
-36.97072906337153
 30
8.099661007602444
 10
-19.949915898516526
 20
-36.95946861195443
 30
8.009222699803768
 10
-19.97789282075363
 20
-36.94436556815159
 30
7.92035175311444
 10
-20.01305570399931
 20
-36.92532921436994
 30
7.833689586749098
 10
-20.0943442975993
 20
-36.88115073379543
 30
7.673497009870994
 10
-20.13933021191685
 20
-36.85664021543765
 30
7.599358278670299
 10
-20.190534377834393
 20
-36.82865302337185
 30
7.528323136503021
 10
-20.247955725747875
 20
-36.797145307925575
 30
7.461194082159077
 10
-20.31152695826372
 20
-36.76210008177942
 30
7.3988475145666515
 10
-20.381097147129516
 20
-36.723538975572865
 30
7.342248310032539
 10
-20.52381589874251
 20
-36.643948173882755
 30
7.247913048835642
 10
-20.596009288726997
 20
-36.603498521118446
 30
7.2086973370018965
 10
-20.672309919363965
 20
-36.560518817697485
 30
7.176001649239659
 10
-20.751863999535043
 20
-36.515442900648914
 30
7.150754495905924
 10
-20.83369596675481
 20
-36.468786694988594
 30
7.133622410179958
 10
-20.916761411243552
 20
-36.42112478057193
 30
7.125000000000004
 10
-21.062535559473986
 20
-36.33696203685019
 30
7.125000000000004
 10
-21.12491632747066
 20
-36.300779330190935
 30
7.129866658122347
 10
-21.18665585620152
 20
-36.26480011612731
 30
7.139576814560665
 10
-21.247277162678266
 20
-36.22930884530093
 30
7.153999722289766
 10
-21.306326887559667
 20
-36.19458341606941
 30
7.17289930353357
 10
-21.36338945399839
 20
-36.160885448739485
 30
7.195936406233092
 10
-21.49363464136477
 20
-36.083671935177414
 30
7.259580113932557
 10
-21.564644829028406
 20
-36.04132583676339
 30
7.303515730988025
 10
-21.63077418586141
 20
-36.001676650460105
 30
7.353594941260636
 10
-21.691767182212054
 20
-35.96493115780685
 30
7.408963008003385
 10
-21.747456788491746
 20
-35.931241112848035
 30
7.468787363755472
 10
-21.797756802689857
 20
-35.900704201940485
 30
7.532253851969405
 10
-21.90958618937172
 20
-35.83261325507687
 30
7.697399166240721
 10
-21.96472782924543
 20
-35.79883876474365
 30
7.802853304027688
 10
-22.008392041899587
 20
-35.77197881711673
 30
7.913044043160183
 10
-22.040882951257945
 20
-35.75193585252856
 30
8.026493952038564
 10
-22.062447504265872
 20
-35.738614600941155
 30
8.141997463274748
 10
-22.073229099030478
 20
-35.731954286628586
 30
8.25850134606826
 10
-22.073229099030478
 20
-35.731954286628586
 30
8.375000000000002
  0
LINE
  5
56
330
17
100
AcDbEntity
  8
0
100
AcDbLine
 10
-22.07322909903047
 20
-35.731954286628564
 30
8.375
 11
-20.07224936716497
 21
-32.26615572612197
 31
8.375
  0
SPLINE
  5
57
330
17
100
AcDbEntity
  8
0
100
AcDbSpline
 70
0
 71
7
 72
76
 73
68
 74
0
 40
0.0
 40
0.0
 40
0.0
 40
0.0
 40
0.0
 40
0.0
 40
0.0
 40
0.0
 40
0.35673602632382934
 40
0.35673602632382934
 40
0.35673602632382934
 40
0.35673602632382934
 40
0.35673602632382934
 40
0.35673602632382934
 40
0.5960918056505136
 40
0.5960918056505136
 40
0.5960918056505136
 40
0.5960918056505136
 40
0.5960918056505136
 40
0.5960918056505136
 40
1.0
 40
1.0
 40
1.0
 40
1.0
 40
1.0
 40
1.0
 40
1.2588463391806222
 40
1.2588463391806222
 40
1.2588463391806222
 40
1.2588463391806222
 40
1.2588463391806222
 40
1.2588463391806222
 40
1.5420001807570944
 40
1.5420001807570944
 40
1.5420001807570944
 40
1.5420001807570944
 40
1.5420001807570944
 40
1.5420001807570944
 40
1.8251540223334262
 40
1.8251540223334262
 40
1.8251540223334262
 40
1.8251540223334262
 40
1.8251540223334262
 40
1.8251540223334262
 40
2.0840003611829183
 40
2.0840003611829183
 40
2.0840003611829183
 40
2.0840003611829183
 40
2.0840003611829183
 40
2.0840003611829183
 40
2.3156795112035646
 40
2.3156795112035646
 40
2.3156795112035646
 40
2.3156795112035646
 40
2.3156795112035646
 40
2.3156795112035646
 40
2.489735269679835
 40
2.489735269679835
 40
2.489735269679835
 40
2.489735269679835
 40
2.489735269679835
 40
2.489735269679835
 40
2.7300314984649905
 40
2.7300314984649905
 40
2.7300314984649905
 40
2.7300314984649905
 40
2.7300314984649905
 40
2.7300314984649905
 40
3.088170401164944
 40
3.088170401164944
 40
3.088170401164944
 40
3.088170401164944
 40
3.088170401164944
 40
3.088170401164944
 40
3.088170401164944
 40
3.088170401164944
 10
-20.072249367164975
 20
-32.26615572612196
 30
8.375000000000005
 10
-20.072249367164975
 20
-32.26615572612196
 30
8.491499342209897
 10
-20.06148751816126
 20
-32.27285054146494
 30
8.608004157356678
 10
-20.039962371089295
 20
-32.286240830222276
 30
8.723508675811262
 10
-20.007529509827886
 20
-32.30638563120581
 30
8.836959354375699
 10
-19.96394003340874
 20
-32.33337633151431
 30
8.947150144064082
 10
-19.908886812933424
 20
-32.367303965566286
 30
9.0526031559882
 10
-19.79721938111427
 20
-32.43567278458336
 30
9.21774680363711
 10
-19.746987317035444
 20
-32.46632805341928
 30
9.281213498596857
 10
-19.691367732264887
 20
-32.50013960462623
 30
9.341037777659887
 10
-19.630444633824954
 20
-32.53700597322958
 30
9.396405625875115
 10
-19.56438248636586
 20
-32.57677106518877
 30
9.446484589527694
 10
-19.493434048551343
 20
-32.61922346704178
 30
9.490420008801731
 10
-19.290583416080747
 20
-32.739812890282614
 30
9.589612037850085
 10
-19.150248700375084
 20
-32.822453683554215
 30
9.631916621207797
 10
-19.00185616389704
 20
-32.90882279931787
 30
9.64838245702417
 10
-18.8518518919921
 20
-32.99494342676734
 30
9.636571149202883
 10
-18.70709603731671
 20
-33.07695374414563
 30
9.597420464144674
 10
-18.573786017592724
 20
-33.15166027500576
 30
9.535208689841626
 10
-18.380785491693228
 20
-33.25889596404392
 30
9.40775214992542
 10
-18.3111425806444
 20
-33.297330040151486
 30
9.35115345202307
 10
-18.247495976676266
 20
-33.33224422944535
 30
9.288807334258667
 10
-18.18999958569246
 20
-33.363622075377
 30
9.221678549185137
 10
-18.138723272262858
 20
-33.39148496415436
 30
9.150643358815119
 10
-18.09367019057101
 20
-33.41588023050382
 30
9.076504116421999
 10
-18.01225602777699
 20
-33.459841142307035
 30
8.91631160583586
 10
-17.977035568960247
 20
-33.47877747714491
 30
8.829650192033027
 10
-17.949010615957906
 20
-33.49379767453523
 30
8.740779501462086
 10
-17.928075580020757
 20
-33.50499464281712
 30
8.650340992208287
 10
-17.9141491606366
 20
-33.5124353420165
 30
8.558892899822045
 10
-17.90718585770387
 20
-33.51615572612196
 30
8.466946561186187
 10
-17.90718585770387
 20
-33.51615572612196
 30
8.28305343881387
 10
-17.914149160636605
 20
-33.51243534201651
 30
8.191107100177957
 10
-17.928075580020746
 20
-33.5049946428171
 30
8.099659007791711
 10
-17.949010615957896
 20
-33.49379767453522
 30
8.00922049853794
 10
-17.977035568960257
 20
-33.47877747714491
 30
7.920349807967006
 10
-18.012256027776985
 20
-33.459841142307035
 30
7.83368839416415
 10
-18.093670190521273
 20
-33.41588023053067
 30
7.673495883675865
 10
-18.13872327224764
 20
-33.39148496416273
 30
7.599356641178502
 10
-18.189999585739955
 20
-33.36362207535142
 30
7.528321450738995
 10
-18.247495976737817
 20
-33.332244229411515
 30
7.4611926656927325
 10
-18.311142580641604
 20
-33.29733004015247
 30
7.398846548001595
 10
-18.380785491610485
 20
-33.2588959640899
 30
7.342247850129233
 10
-18.52363125539548
 20
-33.179527455458775
 30
7.247913253325057
 10
-18.595880354738366
 20
-33.13917487466925
 30
7.208697562092907
 10
-18.67223027557423
 20
-33.09628032895983
 30
7.176001854867293
 10
-18.751823276049297
 20
-33.051271911778066
 30
7.1507546584427955
 10
-18.83368165453395
 20
-33.004661804126115
 30
7.133622495289894
 10
-18.916761002764652
 20
-32.95702340126969
 30
7.125000000000006
 10
-19.06253573874617
 20
-32.87286031820971
 30
7.125000000000006
 10
-19.124909006445343
 20
-32.836664345652004
 30
7.129866686457964
 10
-19.18663338028527
 20
-32.800658734548925
 30
7.139576881018772
 10
-19.24723229224673
 20
-32.76512864957424
 30
7.153999824739317
 10
-19.306253114596775
 20
-32.730353265696515
 30
7.172899426084015
 10
-19.36328124538189
 20
-32.69659592221348
 30
7.195936508920346
 10
-19.493434048569846
 20
-32.61922346703078
 30
7.259579991207323
 10
-19.564382486367133
 20
-32.57677106518788
 30
7.303515410477435
 10
-19.63044463381104
 20
-32.53700597323794
 30
7.353594374116504
 10
-19.691367732253134
 20
-32.50013960463342
 30
7.408962222325699
 10
-19.746987317038393
 20
-32.46632805341753
 30
7.4687865014014605
 10
-19.79721938112696
 20
-32.43567278457559
 30
7.532253196381662
 10
-19.908887042399037
 20
-32.36730382507507
 30
7.697397183365792
 10
-19.96393993719915
 20
-32.333376389117255
 30
7.802849878989716
 10
-20.007529175413257
 20
-32.3063858379731
 30
7.913040009245991
 10
-20.039962061458972
 20
-32.28624102328461
 30
8.026490184785496
 10
-20.06148738677032
 20
-32.2728506230567
 30
8.14199467710409
 10
-20.072249367164975
 20
-32.26615572612196
 30
8.258499946489671
 10
-20.072249367164975
 20
-32.26615572612196
 30
8.375000000000005
  0
LINE
  5
58
330
17
100
AcDbEntity
  8
0
100
AcDbLine
 10
-22.07322909903047
 20
-35.731954286628564
 30
8.375
 11
-20.07224936716497
 21
-32.26615572612197
 31
8.375
  0
SPLINE
  5
59
330
17
100
AcDbEntity
  8
0
100
AcDbSpline
 70
0
 71
7
 72
76
 73
68
 74
0
 40
0.0
 40
0.0
 40
0.0
 40
0.0
 40
0.0
 40
0.0
 40
0.0
 40
0.0
 40
0.3566516510943547
 40
0.3566516510943547
 40
0.3566516510943547
 40
0.3566516510943547
 40
0.3566516510943547
 40
0.3566516510943547
 40
0.595949996238711
 40
0.595949996238711
 40
0.595949996238711
 40
0.595949996238711
 40
0.595949996238711
 40
0.595949996238711
 40
0.7692829492480989
 40
0.7692829492480989
 40
0.7692829492480989
 40
0.7692829492480989
 40
0.7692829492480989
 40
0.7692829492480989
 40
1.0
 40
1.0
 40
1.0
 40
1.0
 40
1.0
 40
1.0
 40
1.257771421460912
 40
1.257771421460912
 40
1.257771421460912
 40
1.257771421460912
 40
1.257771421460912
 40
1.257771421460912
 40
1.5397494028858711
 40
1.5397494028858711
 40
1.5397494028858711
 40
1.5397494028858711
 40
1.5397494028858711
 40
1.5397494028858711
 40
1.8217273843634547
 40
1.8217273843634547
 40
1.8217273843634547
 40
1.8217273843634547
 40
1.8217273843634547
 40
1.8217273843634547
 40
2.079498805493685
 40
2.079498805493685
 40
2.079498805493685
 40
2.079498805493685
 40
2.079498805493685
 40
2.079498805493685
 40
2.4817296791420036
 40
2.4817296791420036
 40
2.4817296791420036
 40
2.4817296791420036
 40
2.4817296791420036
 40
2.4817296791420036
 40
2.720091479190252
 40
2.720091479190252
 40
2.720091479190252
 40
2.720091479190252
 40
2.720091479190252
 40
2.720091479190252
 40
3.0753460781989106
 40
3.0753460781989106
 40
3.0753460781989106
 40
3.0753460781989106
 40
3.0753460781989106
 40
3.0753460781989106
 40
3.0753460781989106
 40
3.0753460781989106
 10
17.907185857703766
 20
33.51615572612179
 30
8.375000000000012
 10
17.907185857703766
 20
33.51615572612179
 30
8.258499946489648
 10
17.918364798722305
 20
33.51018302617239
 30
8.141994677104103
 10
17.940723888142124
 20
33.498236747741956
 30
8.026490184785585
 10
17.974386252439796
 20
33.480221451852564
 30
7.913040009245968
 10
18.01955537449991
 20
33.45596733979965
 30
7.802849878989584
 10
18.076463843324557
 20
33.425253852329796
 30
7.6973971833659025
 10
18.191506929718443
 20
33.3627313006372
 30
7.532253196381644
 10
18.24317120333966
 20
33.334556691472976
 30
7.4687865014014765
 10
18.300262658026586
 20
33.303294493708954
 30
7.4089622223257265
 10
18.36265141900446
 20
33.268966727083054
 30
7.353594374116499
 10
18.43012007253892
 20
33.231637775143035
 30
7.3035154104774165
 10
18.50235914988511
 20
33.191420826573264
 30
7.259579991207349
 10
18.63444206317543
 20
33.11739142025534
 30
7.195936508942077
 10
18.692190845683246
 20
33.084882281953035
 30
7.172899426074521
 10
18.751817622710018
 20
33.0511564423921
 30
7.153999824722546
 10
18.812887034799225
 20
33.01644128772365
 30
7.139576881019706
 10
18.874930995605883
 20
32.98098921750097
 30
7.129866686470735
 10
18.937464261304974
 20
32.94507036937809
 30
7.125000000000013
 10
19.083238997246543
 20
32.86090728634118
 30
7.125000000000013
 10
19.16603473840817
 20
32.81277766168504
 30
7.1336224952919
 10
19.247329464954824
 20
32.76519128022825
 30
7.150754658437903
 10
19.32610439787208
 20
32.71876592843482
 30
7.176001854867283
 10
19.401427124557625
 20
32.67409223026879
 30
7.208697562101056
 10
19.47249803428381
 20
32.63169896524247
 30
7.247913253319069
 10
19.61265606083905
 20
32.54767515934058
 30
7.342247850074587
 10
19.680762402643605
 20
32.50657966723258
 30
7.39884654797695
 10
19.742822279508736
 20
32.468917185978434
 30
7.461192665741408
 10
19.79874448669344
 20
32.434812773726385
 30
7.52832145081488
 10
19.848512612912206
 20
32.404337628072696
 30
7.599356641184826
 10
19.89216607414894
 20
32.37751814798342
 30
7.673495883578085
 10
19.970944421933165
 20
32.32899187068242
 30
7.833688394148182
 10
20.00495399838392
 20
32.30795822602194
 30
7.920349807982285
 10
20.031974347384647
 20
32.29119800348353
 30
8.009220498552061
 10
20.052138724324465
 20
32.278666214677585
 30
8.099659007779278
 10
20.065545768553914
 20
32.270325931301464
 30
8.19110710016
 10
20.072249367164858
 20
32.26615572612179
 30
8.28305343883095
 10
20.072249367164858
 20
32.26615572612179
 30
8.466946561186237
 10
20.065545768551342
 20
32.27032593130301
 30
8.558892899821979
 10
20.05213872433066
 20
32.27866621467378
 30
8.65034099220828
 10
20.031974347384597
 20
32.291198003483586
 30
8.740779501462137
 10
20.004953998373555
 20
32.307958226028305
 30
8.829650192033045
 10
19.97094442194102
 20
32.32899187067759
 30
8.916311605835862
 10
19.892166074197018
 20
32.37751814795381
 30
9.07650411632415
 10
19.848512612927124
 20
32.404337628063686
 30
9.150643358821535
 10
19.798744486647536
 20
32.43481277375474
 30
9.221678549261032
 10
19.742822279448614
 20
32.46891718601484
 30
9.288807334307275
 10
19.680762402645858
 20
32.50657966723065
 30
9.351153451998412
 10
19.612656060920244
 20
32.547675159291906
 30
9.407752149870792
 10
19.423286966989995
 20
32.661200673194166
 30
9.535208689841598
 10
19.291934203574314
 20
32.73929727142422
 30
9.597420464144705
 10
19.148533258014943
 20
32.82365436023022
 30
9.636571149202958
 10
18.99894847090094
 20
32.910501556651695
 30
9.64838245702403
 10
18.849954354308636
 20
32.99582870509155
 30
9.63191662120793
 10
18.708217970093397
 20
33.07604173728991
 30
9.589612037850047
 10
18.502359149881666
 20
33.1914208265752
 30
9.490420008791018
 10
18.43012007253869
 20
33.23163777514311
 30
9.446484589521697
 10
18.36265141900703
 20
33.268966727081654
 30
9.396405625885023
 10
18.300262658028792
 20
33.303294493707774
 30
9.341037777676934
 10
18.243171203339166
 20
33.33455669147322
 30
9.281213498598927
 10
18.19150692971602
 20
33.362731300638515
 30
9.217746803614904
 10
18.07646407972637
 20
33.42525372385233
 30
9.05260315598818
 10
18.019555276509426
 20
33.45596739431812
 30
8.947150144064096
 10
17.97438590616677
 20
33.4802216380805
 30
8.836959354375741
 10
17.940723566130124
 20
33.49823691935852
 30
8.723508675811258
 10
17.91836466236627
 20
33.51018309916439
 30
8.608004157356637
 10
17.907185857703766
 20
33.51615572612179
 30
8.491499342209957
 10
17.907185857703766
 20
33.51615572612179
 30
8.375000000000012
  0
LINE
  5
5A
330
17
100
AcDbEntity
  8
0
100
AcDbLine
 10
17.907185857703794
 20
33.51615572612183
 30
8.375
 11
19.908165589569393
 21
36.9819542866286
 31
8.375
  0
SPLINE
  5
5B
330
17
100
AcDbEntity
  8
0
100
AcDbSpline
 70
0
 71
7
 72
76
 73
68
 74
0
 40
0.0
 40
0.0
 40
0.0
 40
0.0
 40
0.0
 40
0.0
 40
0.0
 40
0.0
 40
0.35665861653440145
 40
0.35665861653440145
 40
0.35665861653440145
 40
0.35665861653440145
 40
0.35665861653440145
 40
0.35665861653440145
 40
0.5959544683486252
 40
0.5959544683486252
 40
0.5959544683486252
 40
0.5959544683486252
 40
0.5959544683486252
 40
0.5959544683486252
 40
0.7692857049029912
 40
0.7692857049029912
 40
0.7692857049029912
 40
0.7692857049029912
 40
0.7692857049029912
 40
0.7692857049029912
 40
1.0
 40
1.0
 40
1.0
 40
1.0
 40
1.0
 40
1.0
 40
1.2577695411425227
 40
1.2577695411425227
 40
1.2577695411425227
 40
1.2577695411425227
 40
1.2577695411425227
 40
1.2577695411425227
 40
1.539753635029004
 40
1.539753635029004
 40
1.539753635029004
 40
1.539753635029004
 40
1.539753635029004
 40
1.539753635029004
 40
1.821737728915485
 40
1.821737728915485
 40
1.821737728915485
 40
1.821737728915485
 40
1.821737728915485
 40
1.821737728915485
 40
2.079507269639619
 40
2.079507269639619
 40
2.079507269639619
 40
2.079507269639619
 40
2.079507269639619
 40
2.079507269639619
 40
2.4817346760348316
 40
2.4817346760348316
 40
2.4817346760348316
 40
2.4817346760348316
 40
2.4817346760348316
 40
2.4817346760348316
 40
2.720094446980033
 40
2.720094446980033
 40
2.720094446980033
 40
2.720094446980033
 40
2.720094446980033
 40
2.720094446980033
 40
3.075356660820683
 40
3.075356660820683
 40
3.075356660820683
 40
3.075356660820683
 40
3.075356660820683
 40
3.075356660820683
 40
3.075356660820683
 40
3.075356660820683
 10
19.908165589569368
 20
36.981954286628586
 30
8.375000000000012
 10
19.908165589569368
 20
36.981954286628586
 30
8.258501346068238
 10
19.91932438834356
 20
36.975947308825425
 30
8.141997463274802
 10
19.94164320713244
 20
36.96393248389297
 30
8.026493952038518
 10
19.9752463783121
 20
36.94581601329067
 30
7.913044043160144
 10
20.020339881628388
 20
36.92143166970942
 30
7.802853304027771
 10
20.077160268193705
 20
36.890564853939054
 30
7.6973991662407455
 10
20.192043451288946
 20
36.82776323761326
 30
7.532253851965572
 10
20.243639198984933
 20
36.79947060296189
 30
7.468787363755851
 10
20.300660436910714
 20
36.768087011678
 30
7.408963008006334
 10
20.362979465197935
 20
36.73363827371228
 30
7.353594941262337
 10
20.4303813461956
 20
36.69619316390889
 30
7.3035157309869865
 10
20.502559237008665
 20
36.65586958666969
 30
7.259580113930725
 10
20.63455069494397
 20
36.581680702475346
 30
7.195936406235168
 10
20.692265273935934
 20
36.5491120539941
 30
7.172899303532672
 10
20.751863240247225
 20
36.51533620677681
 30
7.153999722288175
 10
20.81291023562641
 20
36.48058225077479
 30
7.139576814560762
 10
20.874938913378447
 20
36.44510385750837
 30
7.129866658123571
 10
20.93746444053088
 20
36.40917188103985
 30
7.125000000000014
 10
21.08323858877501
 20
36.325009137310225
 30
7.125000000000014
 10
21.1660477396617
 20
36.2769033094353
 30
7.13362241017409
 10
21.247369182619458
 20
36.22936284981026
 30
7.150754495905464
 10
21.326183111995274
 20
36.1830049539157
 30
7.176001649247338
 10
21.401554942328715
 20
36.13841652116684
 30
7.208697337006309
 10
21.472682064156945
 20
36.096120037856096
 30
7.2479130488258
 10
21.612969096091927
 20
36.012317374233405
 30
7.342248309993975
 10
21.68114908815347
 20
35.97134837639987
 30
7.398847514549234
 10
21.743284760579453
 20
35.933816687137444
 30
7.4611940821934235
 10
21.799281916517877
 20
35.89984219885364
 30
7.528323136556634
 10
21.849121618743226
 20
35.869491686448555
 30
7.59935827867482
 10
21.892841307436242
 20
35.842788001030534
 30
7.673497009801906
 10
21.971745290740557
 20
35.79447925420624
 30
7.833689586733192
 10
22.00581269835195
 20
35.77354548092483
 30
7.920351753129698
 10
22.03288077906788
 20
35.756868277455546
 30
8.009222699817892
 10
22.05308164098776
 20
35.74440026108086
 30
8.099661007589972
 10
22.066513227917884
 20
35.736102986350254
 30
8.191108553501872
 10
22.073229099030467
 20
35.731954286628586
 30
8.283054163275024
 10
22.073229099030467
 20
35.731954286628586
 30
8.466945836725003
 10
22.066513227917888
 20
35.73610298635027
 30
8.55889144649816
 10
22.053081640987745
 20
35.74440026108084
 30
8.65033899241008
 10
22.032880779067884
 20
35.75686827745553
 30
8.740777300182117
 10
22.005812698351974
 20
35.77354548092486
 30
8.829648246870283
 10
21.97174529074051
 20
35.79447925420625
 30
8.916310413266912
 10
21.89284130749743
 20
35.84278800099305
 30
9.076502990073898
 10
21.84912161876212
 20
35.86949168643722
 30
9.150641721333361
 10
21.799281916459524
 20
35.899842198889445
 30
9.221676863539727
 10
21.743284760503084
 20
35.93381668718347
 30
9.288805917868311
 10
21.681149088156335
 20
35.97134837639752
 30
9.351152485419517
 10
21.612969096195105
 20
36.01231737417177
 30
9.407751689936672
 10
21.423425438436393
 20
36.12554425746865
 30
9.535209304591504
 10
21.29197948289994
 20
36.203479385842975
 30
9.597420649943736
 10
21.148514406282647
 20
36.28772450151574
 30
9.636571105786349
 10
20.998909997110324
 20
36.37453690259911
 30
9.648382358337976
 10
20.849944886874127
 20
36.459913447955465
 30
9.631916552274813
 10
20.708275460260904
 20
36.54024197483408
 30
9.589612238254066
 10
20.502559237008672
 20
36.65586958666969
 30
9.490419886069303
 10
20.430381346195578
 20
36.6961931639089
 30
9.446484269013013
 10
20.362979465197927
 20
36.73363827371229
 30
9.396405058737693
 10
20.300660436910757
 20
36.76808701167797
 30
9.341036991993729
 10
20.243639198984962
 20
36.79947060296187
 30
9.281212636244192
 10
20.19204345128892
 20
36.82776323761328
 30
9.217746148034413
 10
20.077160504398705
 20
36.890564724816095
 30
9.05260117330548
 10
20.020339783561504
 20
36.921431724463154
 30
8.94714671886961
 10
19.975246032473944
 20
36.94581620056736
 30
8.836955320098456
 10
19.941642885892218
 20
36.96393265643277
 30
8.723504908586188
 10
19.919324252538242
 20
36.975947382058656
 30
8.608001372179968
 10
19.908165589569368
 20
36.981954286628586
 30
8.491497944319624
 10
19.908165589569368
 20
36.981954286628586
 30
8.375000000000012
  0
LINE
  5
5C
330
17
100
AcDbEntity
  8
0
100
AcDbLine
 10
17.907185857703794
 20
33.51615572612183
 30
8.375
 11
19.908165589569393
 21
36.9819542866286
 31
8.375
  0
SPLINE
  5
5D
330
17
100
AcDbEntity
  8
0
100
AcDbSpline
 70
0
 71
7
 72
76
 73
68
 74
0
 40
0.0
 40
0.0
 40
0.0
 40
0.0
 40
0.0
 40
0.0
 40
0.0
 40
0.0
 40
0.3567429142014545
 40
0.3567429142014545
 40
0.3567429142014545
 40
0.3567429142014545
 40
0.3567429142014545
 40
0.3567429142014545
 40
0.5960961467842606
 40
0.5960961467842606
 40
0.5960961467842606
 40
0.5960961467842606
 40
0.5960961467842606
 40
0.5960961467842606
 40
1.0
 40
1.0
 40
1.0
 40
1.0
 40
1.0
 40
1.0
 40
1.258843900091135
 40
1.258843900091135
 40
1.258843900091135
 40
1.258843900091135
 40
1.258843900091135
 40
1.258843900091135
 40
1.5420032768805267
 40
1.5420032768805267
 40
1.5420032768805267
 40
1.5420032768805267
 40
1.5420032768805267
 40
1.5420032768805267
 40
1.825162653669975
 40
1.825162653669975
 40
1.825162653669975
 40
1.825162653669975
 40
1.825162653669975
 40
1.825162653669975
 40
2.0840065534294
 40
2.0840065534294
 40
2.0840065534294
 40
2.0840065534294
 40
2.0840065534294
 40
2.0840065534294
 40
2.315682443192986
 40
2.315682443192986
 40
2.315682443192986
 40
2.315682443192986
 40
2.315682443192986
 40
2.315682443192986
 40
2.4897361029323415
 40
2.4897361029323415
 40
2.4897361029323415
 40
2.4897361029323415
 40
2.4897361029323415
 40
2.4897361029323415
 40
2.7300293164842815
 40
2.7300293164842815
 40
2.7300293164842815
 40
2.7300293164842815
 40
2.7300293164842815
 40
2.7300293164842815
 40
3.088174451266381
 40
3.088174451266381
 40
3.088174451266381
 40
3.088174451266381
 40
3.088174451266381
 40
3.088174451266381
 40
3.088174451266381
 40
3.088174451266381
 10
19.908165589569368
 20
-36.981954286628586
 30
8.375000000000002
 10
19.908165589569368
 20
-36.981954286628586
 30
8.49149794431961
 10
19.91932425253827
 20
-36.97594738205868
 30
8.60800137218001
 10
19.94164288589219
 20
-36.9639326564328
 30
8.723504908586154
 10
19.975246032473922
 20
-36.94581620056736
 30
8.8369553200984
 10
20.020339783561536
 20
-36.921431724463126
 30
8.947146718869622
 10
20.077160504398712
 20
-36.8905647248161
 30
9.052601173305485
 10
20.192043451279094
 20
-36.82776323761866
 30
9.21774614802028
 10
20.24363919898274
 20
-36.79947060296308
 30
9.281212636245517
 10
20.30066043691982
 20
-36.76808701167306
 30
9.341036992004536
 10
20.362979465208582
 20
-36.73363827370639
 30
9.396405058743955
 10
20.43038134619457
 20
-36.696193163909356
 30
9.4464842690092
 10
20.50255923699454
 20
-36.65586958667763
 30
9.490419886062485
 10
20.70827546026099
 20
-36.54024197483403
 30
9.589612238254103
 10
20.849944886873928
 20
-36.45991344795568
 30
9.631916552274745
 10
20.998909997110527
 20
-36.37453690259878
 30
9.648382358337937
 10
21.14851440628251
 20
-36.28772450151601
 30
9.636571105786462
 10
21.29197948290004
 20
-36.203479385842854
 30
9.597420649943627
 10
21.42342543843636
 20
-36.125544257468675
 30
9.535209304591524
 10
21.61296909609186
 20
-36.01231737423346
 30
9.407751690006094
 10
21.681149088153514
 20
-35.97134837639986
 30
9.351152485450742
 10
21.743284760579463
 20
-35.93381668713743
 30
9.2888059178066
 10
21.79928191651786
 20
-35.89984219885364
 30
9.221676863443397
 10
21.849121618743247
 20
-35.86949168644857
 30
9.150641721325172
 10
21.89284130743621
 20
-35.84278800103054
 30
9.076502990198176
 10
21.97174529074055
 20
-35.79447925420623
 30
8.91631041326682
 10
22.005812698351935
 20
-35.773545480924845
 30
8.829648246870367
 10
22.032880779067888
 20
-35.75686827745558
 30
8.740777300182156
 10
22.053081640987767
 20
-35.74440026108088
 30
8.650338992410008
 10
22.06651322791788
 20
-35.73610298635021
 30
8.558891446498105
 10
22.07322909903047
 20
-35.73195428662859
 30
8.466945836725047
 10
22.07322909903047
 20
-35.73195428662859
 30
8.283054163274945
 10
22.066513227917888
 20
-35.73610298635021
 30
8.191108553501948
 10
22.053081640987767
 20
-35.744400261080884
 30
8.099661007589988
 10
22.032880779067884
 20
-35.75686827745559
 30
8.009222699817832
 10
22.005812698351946
 20
-35.77354548092483
 30
7.920351753129673
 10
21.97174529074055
 20
-35.79447925420624
 30
7.833689586733191
 10
21.89284130748451
 20
-35.84278800100097
 30
7.673497009899906
 10
21.849121618758158
 20
-35.86949168643958
 30
7.599358278668414
 10
21.79928191647181
 20
-35.89984219888192
 30
7.528323136480581
 10
21.74328476051917
 20
-35.933816687173795
 30
7.4611940821446945
 10
21.681149088155767
 20
-35.971348376397984
 30
7.398847514573947
 10
21.612969096173348
 20
-36.01231737418478
 30
7.342248310048709
 10
21.472682064167312
 20
-36.09612003784991
 30
7.247913048832756
 10
21.401554942316324
 20
-36.13841652117407
 30
7.208697337003188
 10
21.326183111986634
 20
-36.18300495392085
 30
7.176001649241907
 10
21.24736918263015
 20
-36.22936284980411
 30
7.1507544959057885
 10
21.166047739673694
 20
-36.27690330942828
 30
7.133622410178238
 10
21.083238588761873
 20
-36.325009137317785
 30
7.125000000000005
 10
20.937464442155242
 20
-36.40917188010201
 30
7.125000000000005
 10
20.874938911831993
 20
-36.445103858388215
 30
7.1298666585289885
 10
20.812910234313424
 20
-36.48058225153182
 30
7.139576814590195
 10
20.75186324141817
 20
-36.51533620611776
 30
7.153999721755279
 10
20.69226527551092
 20
-36.54911205309451
 30
7.17289930323087
 10
20.634550693513003
 20
-36.58168070327964
 30
7.195936406925142
 10
20.5025592370143
 20
-36.65586958666653
 30
7.259580113927997
 10
20.43038134619593
 20
-36.69619316390874
 30
7.303515730985522
 10
20.36297946519374
 20
-36.733638273714654
 30
7.353594941264805
 10
20.3006604369072
 20
-36.76808701167994
 30
7.4089630080105655
 10
20.243639198985797
 20
-36.79947060296138
 30
7.468787363756371
 10
20.192043451292818
 20
-36.82776323761116
 30
7.5322538519599975
 10
20.077160268193744
 20
-36.89056485393905
 30
7.697399166240689
 10
20.020339881628377
 20
-36.92143166970941
 30
7.802853304027762
 10
19.975246378312086
 20
-36.945816013290674
 30
7.913044043160176
 10
19.94164320713244
 20
-36.963932483893
 30
8.026493952038543
 10
19.919324388343565
 20
-36.97594730882543
 30
8.141997463274787
 10
19.908165589569368
 20
-36.981954286628586
 30
8.2585013460682
 10
19.908165589569368
 20
-36.981954286628586
 30
8.375000000000002
  0
LINE
  5
5E
330
17
100
AcDbEntity
  8
0
100
AcDbLine
 10
19.908165589569364
 20
-36.981954286628564
 30
8.375
 11
17.90718585770376
 21
-33.51615572612179
 31
8.375
  0
SPLINE
  5
5F
330
17
100
AcDbEntity
  8
0
100
AcDbSpline
 70
0
 71
7
 72
76
 73
68
 74
0
 40
0.0
 40
0.0
 40
0.0
 40
0.0
 40
0.0
 40
0.0
 40
0.0
 40
0.0
 40
0.35673602638987384
 40
0.35673602638987384
 40
0.35673602638987384
 40
0.35673602638987384
 40
0.35673602638987384
 40
0.35673602638987384
 40
0.5960918056931398
 40
0.5960918056931398
 40
0.5960918056931398
 40
0.5960918056931398
 40
0.5960918056931398
 40
0.5960918056931398
 40
1.0
 40
1.0
 40
1.0
 40
1.0
 40
1.0
 40
1.0
 40
1.2588463393553881
 40
1.2588463393553881
 40
1.2588463393553881
 40
1.2588463393553881
 40
1.2588463393553881
 40
1.2588463393553881
 40
1.5420001814852946
 40
1.5420001814852946
 40
1.5420001814852946
 40
1.5420001814852946
 40
1.5420001814852946
 40
1.5420001814852946
 40
1.8251540236153796
 40
1.8251540236153796
 40
1.8251540236153796
 40
1.8251540236153796
 40
1.8251540236153796
 40
1.8251540236153796
 40
2.0840003633018984
 40
2.0840003633018984
 40
2.0840003633018984
 40
2.0840003633018984
 40
2.0840003633018984
 40
2.0840003633018984
 40
2.3156795143573428
 40
2.3156795143573428
 40
2.3156795143573428
 40
2.3156795143573428
 40
2.3156795143573428
 40
2.3156795143573428
 40
2.4897352692605375
 40
2.4897352692605375
 40
2.4897352692605375
 40
2.4897352692605375
 40
2.4897352692605375
 40
2.4897352692605375
 40
2.7300314990487626
 40
2.7300314990487626
 40
2.7300314990487626
 40
2.7300314990487626
 40
2.7300314990487626
 40
2.7300314990487626
 40
3.0881704032438164
 40
3.0881704032438164
 40
3.0881704032438164
 40
3.0881704032438164
 40
3.0881704032438164
 40
3.0881704032438164
 40
3.0881704032438164
 40
3.0881704032438164
 10
17.907185857703766
 20
-33.5161557261218
 30
8.375000000000002
 10
17.907185857703766
 20
-33.5161557261218
 30
8.49149934220992
 10
17.91836466236627
 20
-33.51018309916439
 30
8.608004157356635
 10
17.94072356613015
 20
-33.498236919358526
 30
8.723508675811278
 10
17.97438590616677
 20
-33.48022163808052
 30
8.836959354375725
 10
18.019555276509397
 20
-33.455967394318115
 30
8.947150144064057
 10
18.076464079726396
 20
-33.42525372385233
 30
9.052603155988209
 10
18.19150692971842
 20
-33.36273130063722
 30
9.21774680361834
 10
18.2431712033397
 20
-33.33455669147292
 30
9.2812134985986
 10
18.300262658026572
 20
-33.30329449370896
 30
9.341037777674282
 10
18.36265141900444
 20
-33.26896672708309
 30
9.396405625883483
 10
18.43012007253895
 20
-33.231637775143
 30
9.446484589522624
 10
18.5023591498851
 20
-33.19142082657327
 30
9.490420008792663
 10
18.708217970124252
 20
-33.076041737272625
 30
9.589612037864908
 10
18.849954354274814
 20
-32.99582870511015
 30
9.631916621179471
 10
18.998948470872854
 20
-32.9105015566685
 30
9.648382457043095
 10
19.148533258053252
 20
-32.82365436020856
 30
9.63657114921471
 10
19.291934203605017
 20
-32.73929727140524
 30
9.597420464107712
 10
19.423286966953327
 20
-32.661200673216165
 30
9.535208689866268
 10
19.61265606092027
 20
-32.5476751592919
 30
9.407752149870769
 10
19.680762402645804
 20
-32.506579667230646
 30
9.351153451998462
 10
19.74282227944863
 20
-32.46891718601488
 30
9.28880733430725
 10
19.79874448664757
 20
-32.434812773754764
 30
9.221678549260997
 10
19.8485126129271
 20
-32.40433762806368
 30
9.150643358821565
 10
19.892166074197032
 20
-32.37751814795381
 30
9.07650411632413
 10
19.97094442194103
 20
-32.32899187067759
 30
8.916311605835848
 10
20.00495399837356
 20
-32.307958226028305
 30
8.829650192033053
 10
20.031974347384597
 20
-32.291198003483565
 30
8.740779501462098
 10
20.052138724330664
 20
-32.278666214673784
 30
8.650340992208273
 10
20.065545768551342
 20
-32.27032593130305
 30
8.558892899822027
 10
20.072249367164858
 20
-32.26615572612179
 30
8.466946561186178
 10
20.072249367164858
 20
-32.26615572612179
 30
8.283053438813772
 10
20.06554576855134
 20
-32.27032593130304
 30
8.191107100178028
 10
20.05213872433068
 20
-32.2786662146738
 30
8.099659007791772
 10
20.031974347384597
 20
-32.29119800348357
 30
8.009220498537886
 10
20.004953998373544
 20
-32.3079582260283
 30
7.9203498079669385
 10
19.97094442194106
 20
-32.32899187067758
 30
7.833688394164227
 10
19.89216607414891
 20
-32.37751814798345
 30
7.67349588357802
 10
19.848512612912263
 20
-32.40433762807264
 30
7.599356641184885
 10
19.798744486693458
 20
-32.43481277372639
 30
7.528321450814896
 10
19.74282227950872
 20
-32.46891718597847
 30
7.461192665741378
 10
19.68076240264361
 20
-32.506579667232565
 30
7.398846547976944
 10
19.61265606083904
 20
-32.547675159340585
 30
7.342247850074573
 10
19.4724980342838
 20
-32.63169896524247
 30
7.247913253319055
 10
19.40142712455765
 20
-32.6740922302688
 30
7.208697562101051
 10
19.326104397872083
 20
-32.71876592843479
 30
7.176001854867278
 10
19.24732946495482
 20
-32.765191280228244
 30
7.1507546584378945
 10
19.16603473840819
 20
-32.812777661685054
 30
7.1336224952918945
 10
19.083238997246543
 20
-32.860907286341195
 30
7.125000000000006
 10
18.9374642628085
 20
-32.94507036851004
 30
7.125000000000006
 10
18.8749309941739
 20
-32.98098921831443
 30
7.129866686846002
 10
18.81288703358388
 20
-33.0164412884243
 30
7.139576881046947
 10
18.751817623794615
 20
-33.0511564417833
 30
7.153999824229278
 10
18.6921908471415
 20
-33.084882281121075
 30
7.172899425795164
 10
18.63444206184996
 20
-33.11739142099824
 30
7.195936509580741
 10
18.5023591498851
 20
-33.19142082657327
 30
7.259579991207347
 10
18.430120072538987
 20
-33.23163777514299
 30
7.303515410477364
 10
18.36265141900442
 20
-33.2689667270831
 30
7.353594374116541
 10
18.300262658026547
 20
-33.303294493708975
 30
7.4089622223257425
 10
18.243171203339728
 20
-33.334556691472905
 30
7.4687865014013965
 10
18.19150692971841
 20
-33.36273130063723
 30
7.5322531963816814
 10
18.076463843324632
 20
-33.425253852329774
 30
7.697397183365799
 10
18.01955537449984
 20
-33.45596733979964
 30
7.80284987898967
 10
17.974386252439785
 20
-33.48022145185258
 30
7.913040009246009
 10
17.940723888142166
 20
-33.49823674774196
 30
8.026490184785532
 10
17.918364798722305
 20
-33.51018302617238
 30
8.141994677104066
 10
17.907185857703766
 20
-33.5161557261218
 30
8.258499946489641
 10
17.907185857703766
 20
-33.5161557261218
 30
8.375000000000002
  0
LINE
  5
60
330
17
100
AcDbEntity
  8
0
100
AcDbLine
 10
19.908165589569364
 20
-36.981954286628564
 30
8.375
 11
17.90718585770376
 21
-33.51615572612179
 31
8.375
  0
SPLINE
  5
61
330
17
100
AcDbEntity
  8
0
100
AcDbSpline
 70
0
 71
6
 72
79
 73
72
 74
0
 40
0.0
 40
0.0
 40
0.0
 40
0.0
 40
0.0
 40
0.0
 40
0.0
 40
0.35679635927754877
 40
0.35679635927754877
 40
0.35679635927754877
 40
0.35679635927754877
 40
0.35679635927754877
 40
0.5961854503866777
 40
0.5961854503866777
 40
0.5961854503866777
 40
0.5961854503866777
 40
0.5961854503866777
 40
0.7695842237684644
 40
0.7695842237684644
 40
0.7695842237684644
 40
0.7695842237684644
 40
0.7695842237684644
 40
0.8734754177553246
 40
0.8734754177553246
 40
0.8734754177553246
 40
0.8734754177553246
 40
0.8734754177553246
 40
1.0
 40
1.0
 40
1.0
 40
1.0
 40
1.0
 40
1.256945710376005
 40
1.256945710376005
 40
1.256945710376005
 40
1.256945710376005
 40
1.256945710376005
 40
1.5380285842100552
 40
1.5380285842100552
 40
1.5380285842100552
 40
1.5380285842100552
 40
1.5380285842100552
 40
1.8191114580441843
 40
1.8191114580441843
 40
1.8191114580441843
 40
1.8191114580441843
 40
1.8191114580441843
 40
2.0760571687496725
 40
2.0760571687496725
 40
2.0760571687496725
 40
2.0760571687496725
 40
2.0760571687496725
 40
2.2071417620363345
 40
2.2071417620363345
 40
2.2071417620363345
 40
2.2071417620363345
 40
2.2071417620363345
 40
2.3042157887255144
 40
2.3042157887255144
 40
2.3042157887255144
 40
2.3042157887255144
 40
2.3042157887255144
 40
2.4798568524414
 40
2.4798568524414
 40
2.4798568524414
 40
2.4798568524414
 40
2.4798568524414
 40
2.7192475506230878
 40
2.7192475506230878
 40
2.7192475506230878
 40
2.7192475506230878
 40
2.7192475506230878
 40
3.0760463051765923
 40
3.0760463051765923
 40
3.0760463051765923
 40
3.0760463051765923
 40
3.0760463051765923
 40
3.0760463051765923
 40
3.0760463051765923
 10
41.981394688599856
 20
-1.2499999999999876
 30
8.375
 10
41.981394688599856
 20
-1.2499999999999876
 30
8.510914268372861
 10
41.981922767940134
 20
-1.2322660069563842
 30
8.646836213702855
 10
41.982978681634606
 20
-1.196795237496603
 30
8.78100642974863
 10
41.98451804660482
 20
-1.1432273917440061
 30
8.911553840564792
 10
41.98644186589277
 20
-1.0710070810884822
 30
9.03612891463172
 10
41.99000462104688
 20
-0.9182994046697344
 30
9.228798051820267
 10
41.991532534047785
 20
-0.848201524290042
 30
9.302178470013157
 10
41.993098932933115
 20
-0.7693716010645644
 30
9.370180883473703
 10
41.99462660856746
 20
-0.6820816528476505
 30
9.431370625752145
 10
41.996025091864524
 20
-0.5868315128887049
 30
9.484268377168867
 10
41.998062407537496
 20
-0.41019538218717616
 30
9.558519369476656
 10
41.9988040630723
 20
-0.3322619402114703
 30
9.584533227264336
 10
41.99939265780939
 20
-0.2513514274165485
 30
9.604600565549068
 10
41.99979733719516
 20
-0.16835641096679577
 30
9.61818667862604
 10
42.0
 20
-0.0842448182141813
 30
9.624999999999998
 10
42.0
 20
0.05047495193177728
 30
9.625
 10
41.99992721370711
 20
0.10093890009502515
 30
9.62255414510941
 10
41.99978167296434
 20
0.15116267326255223
 30
9.61766464182132
 10
41.999565694586046
 20
0.20092001141134594
 30
9.610371219100394
 10
41.99928362955433
 20
0.24999121962117746
 30
9.600750912767943
 10
41.99852508412213
 20
0.35683780002307897
 30
9.574506875479832
 10
41.99801982271621
 20
0.41415333240228575
 30
9.556820657829428
 10
41.99743620011209
 20
0.4698504604790769
 30
9.536043909019249
 10
41.99678705838385
 20
0.523691332119714
 30
9.51239590261401
 10
41.996086627775064
 20
0.5754667966805348
 30
9.486129763000873
 10
41.99385237634
 20
0.7255918683020066
 30
9.399455012488104
 10
41.992205514450134
 20
0.8168156402136322
 30
9.331831474601234
 10
41.99051671516158
 20
0.8982133561378965
 30
9.256536750295858
 10
41.98888239986508
 20
0.9696074489416653
 30
9.175197014484214
 10
41.98737540768402
 20
1.0310012291477775
 30
9.089253488450098
 10
41.984593362309276
 20
1.1389029943974358
 30
8.902362148811324
 10
41.983350381809146
 20
1.1835869243666355
 30
8.800562686093897
 10
41.98238139941581
 20
1.2168603920981098
 30
8.695938260748326
 10
41.98172360991332
 20
1.2389533492059932
 30
8.58953996795901
 10
41.981394688599856
 20
1.2500000000000113
 30
8.48227014284586
 10
41.981394688599856
 20
1.2500000000000113
 30
8.26772985715411
 10
41.98172360991332
 20
1.2389533492059779
 30
8.16046003204096
 10
41.98238139941581
 20
1.2168603920981247
 30
8.054061739251765
 10
41.983350381809146
 20
1.1835869243666315
 30
7.9494373139060635
 10
41.984593362309276
 20
1.138902994397442
 30
7.847637851188695
 10
41.987375407685725
 20
1.0310012290817152
 30
7.660746511435483
 10
41.98888239986485
 20
0.9696074489437025
 30
7.574802985570516
 10
41.99051671515921
 20
0.8982133562309754
 30
7.493463249796242
 10
41.99220551445016
 20
0.8168156402537994
 30
7.418168525389706
 10
41.99385237634164
 20
0.7255918681913506
 30
7.35054498744801
 10
41.996113196223035
 20
0.5736815946699406
 30
7.2628395501377545
 10
41.99683756914802
 20
0.5199516758216144
 30
7.235711126901815
 10
41.99750633126008
 20
0.46400950417947623
 30
7.211404104278923
 10
41.99810362465101
 20
0.40609189810113566
 30
7.190200205151791
 10
41.99861526590805
 20
0.3464687574784027
 30
7.172340868512848
 10
41.99933720944386
 20
0.24024300677441102
 30
7.147425843618788
 10
41.99959111711704
 20
0.1942961672335887
 30
7.138774093890109
 10
41.99978694221928
 20
0.1477706463854177
 30
7.132160623240108
 10
41.999921243363694
 20
0.10084654228251928
 30
7.127646475455182
 10
41.99999214038311
 20
0.053708869469066244
 30
7.125264086627284
 10
42.00001278816176
 20
-0.07879115854502446
 30
7.124570311762849
 10
41.99981813417237
 20
-0.16404868614826948
 30
7.131115171237146
 10
41.99941547995436
 20
-0.24820276202553296
 30
7.144621553975338
 10
41.99882326928792
 20
-0.3302427132328993
 30
7.16479348166074
 10
41.99807346854833
 20
-0.4092363878687663
 30
7.191077506431586
 10
41.99602509186446
 20
-0.5868315128941763
 30
7.265731622833432
 10
41.994626608567465
 20
-0.6820816528458133
 30
7.3186293742484265
 10
41.99309893293319
 20
-0.7693716010599969
 30
7.379819116522826
 10
41.991532534047835
 20
-0.8482015242894247
 30
7.447821529984321
 10
41.990004621046786
 20
-0.9182994046735398
 30
7.52120194818453
 10
41.98644186589276
 20
-1.0710070810885197
 30
7.713871085368332
 10
41.98451804660485
 20
-1.143227391743975
 30
7.83844615943518
 10
41.98297868163457
 20
-1.1967952374966364
 30
7.968993570251415
 10
41.98192276794014
 20
-1.2322660069563793
 30
8.103163786297118
 10
41.981394688599856
 20
-1.2499999999999876
 30
8.239085731627167
 10
41.981394688599856
 20
-1.2499999999999876
 30
8.375
  0
LINE
  5
62
330
17
100
AcDbEntity
  8
0
100
AcDbLine
 10
41.98139468859985
 20
-1.25
 30
8.375
 11
37.979435224868524
 21
-1.25
 31
8.375
  0
SPLINE
  5
63
330
17
100
AcDbEntity
  8
0
100
AcDbSpline
 70
0
 71
6
 72
79
 73
72
 74
0
 40
0.0
 40
0.0
 40
0.0
 40
0.0
 40
0.0
 40
0.0
 40
0.0
 40
0.35678951038563683
 40
0.35678951038563683
 40
0.35678951038563683
 40
0.35678951038563683
 40
0.35678951038563683
 40
0.5961811753369447
 40
0.5961811753369447
 40
0.5961811753369447
 40
0.5961811753369447
 40
0.5961811753369447
 40
0.7695817235079713
 40
0.7695817235079713
 40
0.7695817235079713
 40
0.7695817235079713
 40
0.7695817235079713
 40
0.8734737980417159
 40
0.8734737980417159
 40
0.8734737980417159
 40
0.8734737980417159
 40
0.8734737980417159
 40
1.0
 40
1.0
 40
1.0
 40
1.0
 40
1.0
 40
1.2569469391704113
 40
1.2569469391704113
 40
1.2569469391704113
 40
1.2569469391704113
 40
1.2569469391704113
 40
1.5380230135854336
 40
1.5380230135854336
 40
1.5380230135854336
 40
1.5380230135854336
 40
1.5380230135854336
 40
1.8190990880004745
 40
1.8190990880004745
 40
1.8190990880004745
 40
1.8190990880004745
 40
1.8190990880004745
 40
2.0760460271706753
 40
2.0760460271706753
 40
2.0760460271706753
 40
2.0760460271706753
 40
2.0760460271706753
 40
2.2071322842544174
 40
2.2071322842544174
 40
2.2071322842544174
 40
2.2071322842544174
 40
2.2071322842544174
 40
2.304207125271013
 40
2.304207125271013
 40
2.304207125271013
 40
2.304207125271013
 40
2.304207125271013
 40
2.4798499820496596
 40
2.4798499820496596
 40
2.4798499820496596
 40
2.4798499820496596
 40
2.4798499820496596
 40
2.7192432604548182
 40
2.7192432604548182
 40
2.7192432604548182
 40
2.7192432604548182
 40
2.7192432604548182
 40
3.07603517553324
 40
3.07603517553324
 40
3.07603517553324
 40
3.07603517553324
 40
3.07603517553324
 40
3.07603517553324
 40
3.07603517553324
 10
37.97943522486854
 20
-1.2499999999999882
 30
8.375
 10
37.97943522486854
 20
-1.2499999999999882
 30
8.51091589924491
 10
37.98001896279083
 20
-1.2322655807794414
 30
8.646839460601296
 10
37.98118616804053
 20
-1.1967939704041068
 30
8.781010587218795
 10
37.982887746599694
 20
-1.1432253888358286
 30
8.911557710584974
 10
37.98501421821355
 20
-1.071005247724336
 30
9.036131227761597
 10
37.98895220609671
 20
-0.9182987984625399
 30
9.228798816663401
 10
37.990641046090275
 20
-0.8482005738927123
 30
9.302179371372644
 10
37.992372398421544
 20
-0.7693706254629631
 30
9.370181582400543
 10
37.99406092534034
 20
-0.6820809250217887
 30
9.431371017194103
 10
37.995606642819396
 20
-0.586831172288917
 30
9.484268520343836
 10
37.99785843799091
 20
-0.41019566721309014
 30
9.558519249662796
 10
37.9986781691262
 20
-0.33226235586366787
 30
9.584533103625594
 10
37.999328724265325
 20
-0.2513518705236812
 30
9.604600479005388
 10
37.99977600293937
 20
-0.16835679672398152
 30
9.618186638947668
 10
37.9999999999998
 20
-0.08424505968795003
 30
9.624999999999998
 10
37.9999999999998
 20
0.05047500779273947
 30
9.625
 10
37.999919551811736
 20
0.10093900215056643
 30
9.62255413968533
 10
37.99975869069853
 20
0.15116280379288766
 30
9.617664627356781
 10
37.99951997724278
 20
0.20092014265220146
 30
9.61037119617207
 10
37.9992082202594
 20
0.2499913119000884
 30
9.600750890102068
 10
37.99836982287185
 20
0.3568379414432075
 30
9.574506840743714
 10
37.997811370848126
 20
0.4141535186443655
 30
9.556820594674157
 10
37.997166307054165
 20
0.4698506303530285
 30
9.536043836765971
 10
37.996448824325476
 20
0.5236914531358748
 30
9.512395841570116
 10
37.99567464978659
 20
0.5754668571595016
 30
9.486129728083325
 10
37.993205169667185
 20
0.7255909388203747
 30
9.399455549124575
 10
37.99138490873603
 20
0.816814146558136
 30
9.331832613182453
 10
37.98951826677133
 20
0.8982117161481515
 30
9.256538375065805
 10
37.987711813204896
 20
0.969606082320126
 30
9.175198781344232
 10
37.986046065099934
 20
1.0310004704851499
 30
9.089254802492324
 10
37.98297094759802
 20
1.1389021911016868
 30
8.902363540160385
 10
37.981597015227365
 20
1.183586075139356
 30
8.800564852760768
 10
37.98052592442851
 20
1.2168598679856715
 30
8.695940487963457
 10
37.97979881091532
 20
1.238953175002872
 30
8.589541664563754
 10
37.97943522486853
 20
1.25000000000001
 30
8.482270988030555
 10
37.97943522486853
 20
1.2500000000000104
 30
8.267729011969438
 10
37.97979881091532
 20
1.2389531750028797
 30
8.160458335436303
 10
37.98052592442852
 20
1.216859867985651
 30
8.054059512036421
 10
37.981597015227365
 20
1.1835860751393659
 30
7.949435147239282
 10
37.98297094759802
 20
1.1389021911017205
 30
7.847636459839682
 10
37.986046065099934
 20
1.0310004704851716
 30
7.660745197507717
 10
37.9877118132049
 20
0.9696060823200491
 30
7.574801218655659
 10
37.98951826677132
 20
0.8982117161483079
 30
7.4934616249343575
 10
37.99138490873603
 20
0.8168141465580232
 30
7.418167386817467
 10
37.993205169667185
 20
0.725590938820417
 30
7.3505444508754465
 10
37.9957040155081
 20
0.5736816628013354
 30
7.26283958947343
 10
37.99650465290981
 20
0.5199518105555548
 30
7.235711194394386
 10
37.99724382136162
 20
0.4640096921069518
 30
7.211404183117977
 10
37.99790399486411
 20
0.4060921034959308
 30
7.190200273126014
 10
37.99846949816473
 20
0.34646891324393136
 30
7.172340905047321
 10
37.99926744041624
 20
0.2402430859346777
 30
7.14742586218566
 10
37.99954807595918
 20
0.19429628027461465
 30
7.138774112967692
 10
37.99976451466769
 20
0.14777075924048452
 30
7.132160635553119
 10
37.999912953029366
 20
0.1008466308045084
 30
7.127646480323406
 10
37.999991313046415
 20
0.05370891803278249
 30
7.125264086881565
 10
38.00001413432576
 20
-0.07879140172021198
 30
7.124570310489574
 10
37.99979898910659
 20
-0.1640490764833015
 30
7.131115209737229
 10
37.99935394881826
 20
-0.2482032123158453
 30
7.144621640312274
 10
37.99869939716646
 20
-0.33024313764025276
 30
7.164793606985359
 10
37.997870663400874
 20
-0.4092366805818351
 30
7.191077629476831
 10
37.995606642819396
 20
-0.5868311722889026
 30
7.265731479656158
 10
37.99406092534036
 20
-0.6820809250218896
 30
7.318628982805924
 10
37.99237239842151
 20
-0.769370625462908
 30
7.37981841759948
 10
37.9906410460903
 20
-0.8482005738927947
 30
7.447820628627395
 10
37.988952206096705
 20
-0.9182987984625368
 30
7.521201183336592
 10
37.98501421821354
 20
-1.0710052477243808
 30
7.713868772238465
 10
37.98288774659972
 20
-1.1432253888357453
 30
7.838442289414876
 10
37.9811861680405
 20
-1.1967939704041917
 30
7.968989412781445
 10
37.980018962790844
 20
-1.232265580779416
 30
8.103160539398592
 10
37.97943522486854
 20
-1.2499999999999882
 30
8.239084100755093
 10
37.97943522486854
 20
-1.2499999999999882
 30
8.375
  0
LINE
  5
64
330
17
100
AcDbEntity
  8
0
100
AcDbLine
 10
41.98139468859985
 20
-1.25
 30
8.375
 11
37.979435224868524
 21
-1.25
 31
8.375
  0
SPLINE
  5
65
330
17
100
AcDbEntity
  8
0
100
AcDbSpline
 70
0
 71
7
 72
76
 73
68
 74
0
 40
0.0
 40
0.0
 40
0.0
 40
0.0
 40
0.0
 40
0.0
 40
0.0
 40
0.0
 40
0.3566516511139175
 40
0.3566516511139175
 40
0.3566516511139175
 40
0.3566516511139175
 40
0.3566516511139175
 40
0.3566516511139175
 40
0.5959499962714501
 40
0.5959499962714501
 40
0.5959499962714501
 40
0.5959499962714501
 40
0.5959499962714501
 40
0.5959499962714501
 40
0.7692829492442956
 40
0.7692829492442956
 40
0.7692829492442956
 40
0.7692829492442956
 40
0.7692829492442956
 40
0.7692829492442956
 40
1.0
 40
1.0
 40
1.0
 40
1.0
 40
1.0
 40
1.0
 40
1.2577714217586542
 40
1.2577714217586542
 40
1.2577714217586542
 40
1.2577714217586542
 40
1.2577714217586542
 40
1.2577714217586542
 40
1.5397494039238886
 40
1.5397494039238886
 40
1.5397494039238886
 40
1.5397494039238886
 40
1.5397494039238886
 40
1.5397494039238886
 40
1.8217273860892678
 40
1.8217273860892678
 40
1.8217273860892678
 40
1.8217273860892678
 40
1.8217273860892678
 40
1.8217273860892678
 40
2.07949880784821
 40
2.07949880784821
 40
2.07949880784821
 40
2.07949880784821
 40
2.07949880784821
 40
2.07949880784821
 40
2.481729682477482
 40
2.481729682477482
 40
2.481729682477482
 40
2.481729682477482
 40
2.481729682477482
 40
2.481729682477482
 40
2.7200914830964247
 40
2.7200914830964247
 40
2.7200914830964247
 40
2.7200914830964247
 40
2.7200914830964247
 40
2.7200914830964247
 40
3.0753460829371972
 40
3.0753460829371972
 40
3.0753460829371972
 40
3.0753460829371972
 40
3.0753460829371972
 40
3.0753460829371972
 40
3.0753460829371972
 40
3.0753460829371972
 10
-20.072249367164968
 20
32.26615572612198
 30
8.375000000000012
 10
-20.072249367164968
 20
32.26615572612198
 30
8.258499946489676
 10
-20.061487386770327
 20
32.27285062305668
 30
8.141994677104087
 10
-20.039962061458954
 20
32.28624102328461
 30
8.02649018478552
 10
-20.00752917541323
 20
32.30638583797314
 30
7.9130400092459805
 10
-19.96393993719915
 20
32.33337638911727
 30
7.802849878989674
 10
-19.90888704239907
 20
32.36730382507505
 30
7.697397183365865
 10
-19.797219381126943
 20
32.43567278457561
 30
7.532253196381654
 10
-19.746987317038393
 20
32.46632805341752
 30
7.468786501401472
 10
-19.691367732253152
 20
32.500139604633425
 30
7.4089622223257265
 10
-19.630444633811013
 20
32.53700597323795
 30
7.353594374116505
 10
-19.56438248636709
 20
32.576771065187884
 30
7.3035154104774165
 10
-19.493434048569874
 20
32.61922346703076
 30
7.259579991207349
 10
-19.363281245440845
 20
32.696595922178446
 30
7.195936508949184
 10
-19.306253114531334
 20
32.73035326573476
 30
7.172899426071412
 10
-19.247232292198444
 20
32.76512864960291
 30
7.153999824717056
 10
-19.18663338034008
 20
32.800658734517235
 30
7.139576881020007
 10
-19.12490900650945
 20
32.83666434561438
 30
7.129866686474911
 10
-19.0625357386783
 20
32.87286031824891
 30
7.125000000000013
 10
-18.916761002756793
 20
32.957023401274235
 30
7.125000000000013
 10
-18.833681654542264
 20
33.00466180412127
 30
7.133622495291305
 10
-18.751823276054484
 20
33.05127191177518
 30
7.150754658439366
 10
-18.672230275567987
 20
33.09628032896344
 30
7.176001854867285
 10
-18.59588035473237
 20
33.13917487467253
 30
7.208697562098619
 10
-18.523631255401817
 20
33.17952745545525
 30
7.247913253320867
 10
-18.38078549161045
 20
33.25889596408992
 30
7.3422478501292545
 10
-18.31114258064165
 20
33.29733004015242
 30
7.398846548001544
 10
-18.247495976737785
 20
33.33224422941153
 30
7.461192665692793
 10
-18.1899995857399
 20
33.36362207535147
 30
7.528321450739057
 10
-18.13872327224766
 20
33.39148496416273
 30
7.5993566411784474
 10
-18.093670190521276
 20
33.41588023053067
 30
7.673495883675869
 10
-18.012256027776935
 20
33.45984114230705
 30
7.833688394164258
 10
-17.977035568960268
 20
33.478777477144924
 30
7.920349807966905
 10
-17.949010615957896
 20
33.49379767453523
 30
8.009220498537923
 10
-17.928075580020725
 20
33.50499464281712
 30
8.099659007791782
 10
-17.914149160636594
 20
33.51243534201651
 30
8.191107100177968
 10
-17.907185857703862
 20
33.51615572612196
 30
8.28305343881387
 10
-17.907185857703862
 20
33.51615572612196
 30
8.466946561186205
 10
-17.914149160636587
 20
33.51243534201652
 30
8.558892899822025
 10
-17.92807558002074
 20
33.50499464281711
 30
8.650340992208262
 10
-17.94901061595791
 20
33.49379767453522
 30
8.74077950146212
 10
-17.977035568960257
 20
33.47877747714491
 30
8.829650192033084
 10
-18.012256027776953
 20
33.459841142307035
 30
8.916311605835812
 10
-18.09367019052129
 20
33.415880230530654
 30
9.076504116324184
 10
-18.138723272247606
 20
33.391484964162764
 30
9.150643358821508
 10
-18.189999585739933
 20
33.36362207535145
 30
9.221678549261002
 10
-18.247495976737834
 20
33.332244229411515
 30
9.288807334307299
 10
-18.311142580641626
 20
33.29733004015245
 30
9.35115345199846
 10
-18.38078549161045
 20
33.258895964089916
 30
9.407752149870763
 10
-18.5737860175927
 20
33.15166027500577
 30
9.535208689841625
 10
-18.70709603731679
 20
33.07695374414563
 30
9.597420464144792
 10
-18.85185189199193
 20
32.99494342676738
 30
9.636571149202693
 10
-19.00185616389723
 20
32.90882279931781
 30
9.648382457024312
 10
-19.15024870037491
 20
32.822453683554286
 30
9.6319166212078
 10
-19.29058341608081
 20
32.73981289028257
 30
9.58961203785006
 10
-19.493434048569913
 20
32.61922346703073
 30
9.490420008792656
 10
-19.56438248636699
 20
32.576771065187934
 30
9.446484589522651
 10
-19.630444633811063
 20
32.53700597323793
 30
9.396405625883489
 10
-19.691367732253212
 20
32.50013960463339
 30
9.341037777674277
 10
-19.746987317038315
 20
32.466328053417556
 30
9.281213498598609
 10
-19.79721938112696
 20
32.43567278457559
 30
9.217746803618342
 10
-19.908886812933424
 20
32.36730396556628
 30
9.052603155988189
 10
-19.963940033408715
 20
32.333376331514295
 30
8.947150144064087
 10
-20.00752950982789
 20
32.306385631205856
 30
8.836959354375757
 10
-20.039962371089295
 20
32.286240830222305
 30
8.723508675811269
 10
-20.06148751816124
 20
32.272850541464905
 30
8.608004157356616
 10
-20.072249367164968
 20
32.26615572612198
 30
8.491499342209952
 10
-20.072249367164968
 20
32.26615572612198
 30
8.375000000000012
  0
LINE
  5
66
330
17
100
AcDbEntity
  8
0
100
AcDbLine
 10
-20.072249367164957
 20
32.26615572612196
 30
8.375
 11
-22.07322909903047
 21
35.73195428662857
 31
8.375
  0
SPLINE
  5
67
330
17
100
AcDbEntity
  8
0
100
AcDbSpline
 70
0
 71
7
 72
76
 73
68
 74
0
 40
0.0
 40
0.0
 40
0.0
 40
0.0
 40
0.0
 40
0.0
 40
0.0
 40
0.0
 40
0.3566586181436632
 40
0.3566586181436632
 40
0.3566586181436632
 40
0.3566586181436632
 40
0.3566586181436632
 40
0.3566586181436632
 40
0.5959544710263467
 40
0.5959544710263467
 40
0.5959544710263467
 40
0.5959544710263467
 40
0.5959544710263467
 40
0.5959544710263467
 40
0.7692857038741299
 40
0.7692857038741299
 40
0.7692857038741299
 40
0.7692857038741299
 40
0.7692857038741299
 40
0.7692857038741299
 40
1.0
 40
1.0
 40
1.0
 40
1.0
 40
1.0
 40
1.0
 40
1.2577695425085142
 40
1.2577695425085142
 40
1.2577695425085142
 40
1.2577695425085142
 40
1.2577695425085142
 40
1.2577695425085142
 40
1.5397536381765278
 40
1.5397536381765278
 40
1.5397536381765278
 40
1.5397536381765278
 40
1.5397536381765278
 40
1.5397536381765278
 40
1.821737733844616
 40
1.821737733844616
 40
1.821737733844616
 40
1.821737733844616
 40
1.821737733844616
 40
1.821737733844616
 40
2.0795072762362663
 40
2.0795072762362663
 40
2.0795072762362663
 40
2.0795072762362663
 40
2.0795072762362663
 40
2.0795072762362663
 40
2.4817346855491587
 40
2.4817346855491587
 40
2.4817346855491587
 40
2.4817346855491587
 40
2.4817346855491587
 40
2.4817346855491587
 40
2.720094458135479
 40
2.720094458135479
 40
2.720094458135479
 40
2.720094458135479
 40
2.720094458135479
 40
2.720094458135479
 40
3.0753566744220793
 40
3.0753566744220793
 40
3.0753566744220793
 40
3.0753566744220793
 40
3.0753566744220793
 40
3.0753566744220793
 40
3.0753566744220793
 40
3.0753566744220793
 10
-22.07322909903047
 20
35.731954286628564
 30
8.375000000000012
 10
-22.07322909903047
 20
35.731954286628564
 30
8.258501346068268
 10
-22.06244750426586
 20
35.738614600941176
 30
8.14199746327478
 10
-22.04088295125793
 20
35.751935852528604
 30
8.026493952038539
 10
-22.008392041899576
 20
35.771978817116725
 30
7.91304404316016
 10
-21.96472782924542
 20
35.79883876474363
 30
7.802853304027729
 10
-21.909586189371726
 20
35.8326132550769
 30
7.697399166240745
 10
-21.797756802689367
 20
35.90070420194081
 30
7.532253851968693
 10
-21.7474567884916
 20
35.93124111284807
 30
7.468787363755527
 10
-21.691767182212526
 20
35.96493115780657
 30
7.408963008003964
 10
-21.63077418586193
 20
36.00167665045982
 30
7.353594941260966
 10
-21.564644829028282
 20
36.04132583676344
 30
7.303515730987797
 10
-21.4936346413641
 20
36.08367193517781
 30
7.25958011393224
 10
-21.363389455414627
 20
36.1608854478999
 30
7.195936406925144
 10
-21.306326885988415
 20
36.19458341698634
 30
7.17289930323088
 10
-21.24727716151857
 20
36.229308845987525
 30
7.153999721755291
 10
-21.186655857517525
 20
36.26480011536649
 30
7.139576814590202
 10
-21.124916329010425
 20
36.30077932928891
 30
7.129866658528992
 10
-21.062535557844747
 20
36.33696203779084
 30
7.125000000000013
 10
-20.916761411235882
 20
36.42112478057636
 30
7.125000000000013
 10
-20.83369596676183
 20
36.468786694984594
 30
7.133622410177544
 10
-20.751863999541253
 20
36.51544290064531
 30
7.150754495905741
 10
-20.67230991935884
 20
36.560518817700355
 30
7.1760016492428305
 10
-20.596009288719717
 20
36.6034985211226
 30
7.208697337003722
 10
-20.52381589874863
 20
36.64394817387936
 30
7.247913048831592
 10
-20.3810971471344
 20
36.723538975570136
 30
7.342248310029307
 10
-20.311526958263865
 20
36.76210008177936
 30
7.398847514565207
 10
-20.24795572574422
 20
36.797145307927586
 30
7.461194082161987
 10
-20.19053437783158
 20
36.828653023373384
 30
7.5283231365075105
 10
-20.13933021191774
 20
36.85664021543716
 30
7.599358278670657
 10
-20.09434429760221
 20
36.88115073379385
 30
7.673497009865256
 10
-20.01305570399929
 20
36.925329214369945
 30
7.833689586749136
 10
-19.977892820753645
 20
36.944365568151575
 30
7.9203517531143595
 10
-19.949915898516515
 20
36.959468611954435
 30
8.009222699803765
 10
-19.929017848634835
 20
36.97072906337156
 30
8.099661007602544
 10
-19.91511640447995
 20
36.978212521495934
 30
8.191108553519957
 10
-19.908165589569382
 20
36.98195428662856
 30
8.28305416325775
 10
-19.908165589569382
 20
36.98195428662856
 30
8.4669458367423
 10
-19.915116404479942
 20
36.97821252149595
 30
8.55889144648003
 10
-19.92901784863484
 20
36.97072906337154
 30
8.650338992397504
 10
-19.94991589851651
 20
36.95946861195442
 30
8.740777300196276
 10
-19.977892820753635
 20
36.94436556815159
 30
8.829648246885624
 10
-20.013055703999303
 20
36.925329214369945
 30
8.91631041325093
 10
-20.094344297584588
 20
36.88115073380344
 30
9.076502990100051
 10
-20.13933021191237
 20
36.856640215440144
 30
9.150641721331647
 10
-20.19053437784842
 20
36.82865302336427
 30
9.221676863519468
 10
-20.24795572576604
 20
36.79714530791555
 30
9.288805917855303
 10
-20.311526958262885
 20
36.76210008177973
 30
9.351152485426056
 10
-20.38109714710506
 20
36.72353897558651
 30
9.407751689951326
 10
-20.57392633334631
 20
36.61600279446989
 30
9.5352093046296
 10
-20.70714311202721
 20
36.54113482199649
 30
9.59742064988652
 10
-20.851834060643945
 20
36.45901297893411
 30
9.63657110580472
 10
-21.001818010033965
 20
36.372857960555635
 30
9.648382358367257
 10
-21.15023882232545
 20
36.286538663485324
 30
9.631916552230921
 10
-21.290640080459298
 20
36.20401360459674
 30
9.589612238277036
 10
-21.49363464136099
 20
36.08367193517966
 30
9.490419886069303
 10
-21.56464482902814
 20
36.041325836763555
 30
9.44648426901303
 10
-21.63077418586423
 20
36.00167665045846
 30
9.396405058737676
 10
-21.69176718221443
 20
35.96493115780542
 30
9.3410369919937
 10
-21.74745678849112
 20
35.93124111284835
 30
9.281212636244202
 10
-21.79775680268725
 20
35.90070420194209
 30
9.217746148034447
 10
-21.909585959445504
 20
35.83261339507492
 30
9.052601173305433
 10
-21.964727925696973
 20
35.798838707192104
 30
8.947146718869659
 10
-22.008392377005006
 20
35.77197861125043
 30
8.836955320098436
 10
-22.04088326130188
 20
35.75193566059629
 30
8.723504908586177
 10
-22.06244763559037
 20
35.73861451994696
 30
8.608001372180029
 10
-22.07322909903047
 20
35.731954286628564
 30
8.491497944319574
 10
-22.07322909903047
 20
35.731954286628564
 30
8.375000000000012
  0
LINE
  5
68
330
17
100
AcDbEntity
  8
0
100
AcDbLine
 10
-20.072249367164957
 20
32.26615572612196
 30
8.375
 11
-22.07322909903047
 21
35.73195428662857
 31
8.375
  0
LINE
  5
69
330
17
100
AcDbEntity
  8
0
100
AcDbLine
 10
-36.2500000000002
 20
-1.7225278442669098e-15
 30
0.0
 11
-36.2500000000002
 21
-1.7225278442669098e-15
 31
3.0
  0
CIRCLE
  5
6A
330
17
100
AcDbEntity
  8
0
100
AcDbCircle
 10
-1.9567916310872095e-13
 20
-1.7225278442669098e-15
 30
3.0
 40
36.25
  0
LINE
  5
6B
330
17
100
AcDbEntity
  8
0
100
AcDbLine
 10
-36.2500000000002
 20
-1.7225278442669098e-15
 30
0.0
 11
-36.2500000000002
 21
-1.7225278442669098e-15
 31
3.0
  0
CIRCLE
  5
6C
330
17
100
AcDbEntity
  8
0
100
AcDbCircle
 10
-1.9567916310872095e-13
 20
-1.7225278442669098e-15
 30
0.0
 40
36.25
  0
CIRCLE
  5
6D
330
17
100
AcDbEntity
  8
0
100
AcDbCircle
 10
-1.9962867338021862e-13
 20
-1.0150610510858574e-15
 30
6.0
 40
38.0
  0
LINE
  5
6E
330
17
100
AcDbEntity
  8
0
100
AcDbLine
 10
-38.0000000000002
 20
-1.0150610510858574e-15
 30
6.0
 11
-38.0000000000002
 21
-1.0150610510858574e-15
 31
7.125
  0
SPLINE
  5
6F
330
17
100
AcDbEntity
  8
0
100
AcDbSpline
 70
0
 71
6
 72
24
 73
17
 74
0
 40
0.0
 40
0.0
 40
0.0
 40
0.0
 40
0.0
 40
0.0
 40
0.0
 40
0.22531791334046417
 40
0.22531791334046417
 40
0.22531791334046417
 40
0.22531791334046417
 40
0.22531791334046417
 40
0.53638515631145
 40
0.53638515631145
 40
0.53638515631145
 40
0.53638515631145
 40
0.53638515631145
 40
1.0
 40
1.0
 40
1.0
 40
1.0
 40
1.0
 40
1.0
 40
1.0
 10
-38.0000000000002
 20
1.4530259125209411e-15
 30
7.125
 10
-38.0000000000002
 20
-0.08424505964553684
 30
7.125000000000001
 10
-37.999776002939434
 20
-0.16835679678923895
 30
7.13181336106334
 10
-37.999328724265936
 20
-0.25135187052614055
 30
7.145399520987357
 10
-37.99867816912703
 20
-0.3322623557995886
 30
7.165466896359973
 10
-37.99785843799083
 20
-0.4101956672502525
 30
7.191480750352825
 10
-37.99560664281969
 20
-0.5868311722970798
 30
7.265731479659601
 10
-37.994060925340705
 20
-0.6820809250191541
 30
7.318628982806776
 10
-37.99237239842215
 20
-0.76937062545578
 30
7.379818417594125
 10
-37.99064104609067
 20
-0.8482005738920749
 30
7.447820628623769
 10
-37.988952206096975
 20
-0.9182987984681054
 30
7.521201183343642
 10
-37.985014218213955
 20
-1.071005247724362
 30
7.713868772238465
 10
-37.98288774660006
 20
-1.1432253888357522
 30
7.838442289414877
 10
-37.98118616804096
 20
-1.196793970404138
 30
7.968989412781336
 10
-37.98001896279122
 20
-1.232265580779435
 30
8.103160539398742
 10
-37.979435224868936
 20
-1.2499999999999774
 30
8.239084100755047
 10
-37.979435224868936
 20
-1.2499999999999774
 30
8.375
  0
SPLINE
  5
70
330
17
100
AcDbEntity
  8
0
100
AcDbSpline
 70
0
 71
6
 72
24
 73
17
 74
0
 40
0.0
 40
0.0
 40
0.0
 40
0.0
 40
0.0
 40
0.0
 40
0.0
 40
0.4636148435862576
 40
0.4636148435862576
 40
0.4636148435862576
 40
0.4636148435862576
 40
0.4636148435862576
 40
0.7746820865766182
 40
0.7746820865766182
 40
0.7746820865766182
 40
0.7746820865766182
 40
0.7746820865766182
 40
1.0
 40
1.0
 40
1.0
 40
1.0
 40
1.0
 40
1.0
 40
1.0
 10
-37.979435224868936
 20
-1.2499999999999774
 30
8.375
 10
-37.979435224868936
 20
-1.2499999999999774
 30
8.510915899244917
 10
-37.98001896279122
 20
-1.2322655807794203
 30
8.646839460601285
 10
-37.98118616804096
 20
-1.1967939704041304
 30
8.781010587218756
 10
-37.98288774660006
 20
-1.1432253888357646
 30
8.911557710585058
 10
-37.985014218213955
 20
-1.0710052477243583
 30
9.036131227761555
 10
-37.98895220609742
 20
-0.9182987984507465
 30
9.228798816678268
 10
-37.990641046090545
 20
-0.8482005738942432
 30
9.302179371365051
 10
-37.99237239842163
 20
-0.7693706254780569
 30
9.370181582389113
 10
-37.994060925340754
 20
-0.6820809250272399
 30
9.431371017196067
 10
-37.995606642820015
 20
-0.5868311722718469
 30
9.484268520351007
 10
-37.997858437990885
 20
-0.4101956672457965
 30
9.558519249649045
 10
-37.99867816912698
 20
-0.3322623558072381
 30
9.584533103638309
 10
-37.9993287242659
 20
-0.2513518705258202
 30
9.604600479011781
 10
-37.99977600293948
 20
-0.16835679678141371
 30
9.618186638937976
 10
-38.0000000000002
 20
-0.08424505965061664
 30
9.624999999999998
 10
-38.0000000000002
 20
2.1183093592811154e-15
 30
9.625
  0
LINE
  5
71
330
17
100
AcDbEntity
  8
0
100
AcDbLine
 10
-38.0000000000002
 20
-1.0150610510858574e-15
 30
9.625
 11
-38.0000000000002
 21
-1.0150610510858574e-15
 31
12.0
  0
CIRCLE
  5
72
330
17
100
AcDbEntity
  8
0
100
AcDbCircle
 10
-1.9962867338021862e-13
 20
-1.0150610510858574e-15
 30
12.0
 40
38.0
  0
LINE
  5
73
330
17
100
AcDbEntity
  8
0
100
AcDbLine
 10
-38.0000000000002
 20
-1.0150610510858574e-15
 30
9.625
 11
-38.0000000000002
 21
-1.0150610510858574e-15
 31
12.0
  0
SPLINE
  5
74
330
17
100
AcDbEntity
  8
0
100
AcDbSpline
 70
0
 71
6
 72
39
 73
32
 74
0
 40
0.0
 40
0.0
 40
0.0
 40
0.0
 40
0.0
 40
0.0
 40
0.0
 40
1.0
 40
1.0
 40
1.0
 40
1.0
 40
1.0
 40
2.117264380811749
 40
2.117264380811749
 40
2.117264380811749
 40
2.117264380811749
 40
2.117264380811749
 40
3.3394477928685964
 40
3.3394477928685964
 40
3.3394477928685964
 40
3.3394477928685964
 40
3.3394477928685964
 40
4.5616312046971705
 40
4.5616312046971705
 40
4.5616312046971705
 40
4.5616312046971705
 40
4.5616312046971705
 40
5.678895585972507
 40
5.678895585972507
 40
5.678895585972507
 40
5.678895585972507
 40
5.678895585972507
 40
6.678911342039298
 40
6.678911342039298
 40
6.678911342039298
 40
6.678911342039298
 40
6.678911342039298
 40
6.678911342039298
 40
6.678911342039298
 10
-38.0000000000002
 20
6.106226635438361e-15
 30
7.125
 10
-38.0000000000002
 20
0.11213425216563644
 30
7.124999999999998
 10
-37.99960295874464
 20
0.22378238116692345
 30
7.137071232588658
 10
-37.99881509395426
 20
0.33280271410771123
 30
7.1610167300884235
 10
-37.99769412821986
 20
0.43712898723521476
 30
7.195981519104077
 10
-37.99634086002286
 20
0.5349667538911234
 30
7.240487526392457
 10
-37.99320516966518
 20
0.7255909389663773
 30
7.350544450959708
 10
-37.99138490873637
 20
0.816814146505063
 30
7.418167386829388
 10
-37.98951826677521
 20
0.8982117160255795
 30
7.4934616248129355
 10
-37.98771181320561
 20
0.9696060823174201
 30
7.574801218583545
 10
-37.98604606509785
 20
1.031000470572248
 30
7.6607451976585255
 10
-37.98297094759811
 20
1.1389021911124397
 30
7.8476364598582355
 10
-37.981597015228374
 20
1.1835860751181024
 30
7.9494351472104645
 10
-37.980525924428484
 20
1.2168598680015819
 30
8.05405951203343
 10
-37.97979881091581
 20
1.2389531749986367
 30
8.160458335469508
 10
-37.979435224868936
 20
1.250000000000026
 30
8.267729011949385
 10
-37.979435224868936
 20
1.2500000000000255
 30
8.48227098803058
 10
-37.97979881091569
 20
1.2389531750028842
 30
8.589541664563741
 10
-37.98052592442893
 20
1.2168598679856888
 30
8.695940487963469
 10
-37.98159701522776
 20
1.1835860751393683
 30
8.800564852760791
 10
-37.98297094759842
 20
1.138902191101711
 30
8.902363540160355
 10
-37.986046065098456
 20
1.0310004705510418
 30
9.089254802378209
 10
-37.98771181320552
 20
0.9696060823181543
 30
9.175198781398795
 10
-37.98951826677437
 20
0.8982117160553258
 30
9.256538375157655
 10
-37.991384908736386
 20
0.8168141465179735
 30
9.3318326131735
 10
-37.993205169665764
 20
0.7255909389308784
 30
9.399455549060779
 10
-37.99634088335662
 20
0.5349653353903819
 30
9.509513292579319
 10
-37.99769414253956
 20
0.43712763306563895
 30
9.554018883807894
 10
-37.998815085861175
 20
0.33280259374209353
 30
9.588983012994026
 10
-37.99960294481273
 20
0.22378380128664843
 30
9.612928346144315
 10
-38.0000000000002
 20
0.11213621270889818
 30
9.625000000000002
 10
-38.0000000000002
 20
6.772360450213455e-15
 30
9.625
  0
LINE
  5
75
330
17
100
AcDbEntity
  8
0
100
AcDbLine
 10
-38.0000000000002
 20
-1.0150610510858574e-15
 30
6.0
 11
-38.0000000000002
 21
-1.0150610510858574e-15
 31
7.125
  0
SPLINE
  5
76
330
17
100
AcDbEntity
  8
0
100
AcDbSpline
 70
0
 71
7
 72
76
 73
68
 74
0
 40
0.0
 40
0.0
 40
0.0
 40
0.0
 40
0.0
 40
0.0
 40
0.0
 40
0.0
 40
0.35673602632382934
 40
0.35673602632382934
 40
0.35673602632382934
 40
0.35673602632382934
 40
0.35673602632382934
 40
0.35673602632382934
 40
0.5960918056505136
 40
0.5960918056505136
 40
0.5960918056505136
 40
0.5960918056505136
 40
0.5960918056505136
 40
0.5960918056505136
 40
1.0
 40
1.0
 40
1.0
 40
1.0
 40
1.0
 40
1.0
 40
1.2588463391806222
 40
1.2588463391806222
 40
1.2588463391806222
 40
1.2588463391806222
 40
1.2588463391806222
 40
1.2588463391806222
 40
1.5420001807570944
 40
1.5420001807570944
 40
1.5420001807570944
 40
1.5420001807570944
 40
1.5420001807570944
 40
1.5420001807570944
 40
1.8251540223334262
 40
1.8251540223334262
 40
1.8251540223334262
 40
1.8251540223334262
 40
1.8251540223334262
 40
1.8251540223334262
 40
2.0840003611829183
 40
2.0840003611829183
 40
2.0840003611829183
 40
2.0840003611829183
 40
2.0840003611829183
 40
2.0840003611829183
 40
2.3156795112035646
 40
2.3156795112035646
 40
2.3156795112035646
 40
2.3156795112035646
 40
2.3156795112035646
 40
2.3156795112035646
 40
2.489735269679835
 40
2.489735269679835
 40
2.489735269679835
 40
2.489735269679835
 40
2.489735269679835
 40
2.489735269679835
 40
2.7300314984649905
 40
2.7300314984649905
 40
2.7300314984649905
 40
2.7300314984649905
 40
2.7300314984649905
 40
2.7300314984649905
 40
3.088170401164944
 40
3.088170401164944
 40
3.088170401164944
 40
3.088170401164944
 40
3.088170401164944
 40
3.088170401164944
 40
3.088170401164944
 40
3.088170401164944
 10
-20.072249367164975
 20
-32.26615572612196
 30
8.375000000000005
 10
-20.072249367164975
 20
-32.26615572612196
 30
8.491499342209897
 10
-20.06148751816126
 20
-32.27285054146494
 30
8.608004157356678
 10
-20.039962371089295
 20
-32.286240830222276
 30
8.723508675811262
 10
-20.007529509827886
 20
-32.30638563120581
 30
8.836959354375699
 10
-19.96394003340874
 20
-32.33337633151431
 30
8.947150144064082
 10
-19.908886812933424
 20
-32.367303965566286
 30
9.0526031559882
 10
-19.79721938111427
 20
-32.43567278458336
 30
9.21774680363711
 10
-19.746987317035444
 20
-32.46632805341928
 30
9.281213498596857
 10
-19.691367732264887
 20
-32.50013960462623
 30
9.341037777659887
 10
-19.630444633824954
 20
-32.53700597322958
 30
9.396405625875115
 10
-19.56438248636586
 20
-32.57677106518877
 30
9.446484589527694
 10
-19.493434048551343
 20
-32.61922346704178
 30
9.490420008801731
 10
-19.290583416080747
 20
-32.739812890282614
 30
9.589612037850085
 10
-19.150248700375084
 20
-32.822453683554215
 30
9.631916621207797
 10
-19.00185616389704
 20
-32.90882279931787
 30
9.64838245702417
 10
-18.8518518919921
 20
-32.99494342676734
 30
9.636571149202883
 10
-18.70709603731671
 20
-33.07695374414563
 30
9.597420464144674
 10
-18.573786017592724
 20
-33.15166027500576
 30
9.535208689841626
 10
-18.380785491693228
 20
-33.25889596404392
 30
9.40775214992542
 10
-18.3111425806444
 20
-33.297330040151486
 30
9.35115345202307
 10
-18.247495976676266
 20
-33.33224422944535
 30
9.288807334258667
 10
-18.18999958569246
 20
-33.363622075377
 30
9.221678549185137
 10
-18.138723272262858
 20
-33.39148496415436
 30
9.150643358815119
 10
-18.09367019057101
 20
-33.41588023050382
 30
9.076504116421999
 10
-18.01225602777699
 20
-33.459841142307035
 30
8.91631160583586
 10
-17.977035568960247
 20
-33.47877747714491
 30
8.829650192033027
 10
-17.949010615957906
 20
-33.49379767453523
 30
8.740779501462086
 10
-17.928075580020757
 20
-33.50499464281712
 30
8.650340992208287
 10
-17.9141491606366
 20
-33.5124353420165
 30
8.558892899822045
 10
-17.90718585770387
 20
-33.51615572612196
 30
8.466946561186187
 10
-17.90718585770387
 20
-33.51615572612196
 30
8.28305343881387
 10
-17.914149160636605
 20
-33.51243534201651
 30
8.191107100177957
 10
-17.928075580020746
 20
-33.5049946428171
 30
8.099659007791711
 10
-17.949010615957896
 20
-33.49379767453522
 30
8.00922049853794
 10
-17.977035568960257
 20
-33.47877747714491
 30
7.920349807967006
 10
-18.012256027776985
 20
-33.459841142307035
 30
7.83368839416415
 10
-18.093670190521273
 20
-33.41588023053067
 30
7.673495883675865
 10
-18.13872327224764
 20
-33.39148496416273
 30
7.599356641178502
 10
-18.189999585739955
 20
-33.36362207535142
 30
7.528321450738995
 10
-18.247495976737817
 20
-33.332244229411515
 30
7.4611926656927325
 10
-18.311142580641604
 20
-33.29733004015247
 30
7.398846548001595
 10
-18.380785491610485
 20
-33.2588959640899
 30
7.342247850129233
 10
-18.52363125539548
 20
-33.179527455458775
 30
7.247913253325057
 10
-18.595880354738366
 20
-33.13917487466925
 30
7.208697562092907
 10
-18.67223027557423
 20
-33.09628032895983
 30
7.176001854867293
 10
-18.751823276049297
 20
-33.051271911778066
 30
7.1507546584427955
 10
-18.83368165453395
 20
-33.004661804126115
 30
7.133622495289894
 10
-18.916761002764652
 20
-32.95702340126969
 30
7.125000000000006
 10
-19.06253573874617
 20
-32.87286031820971
 30
7.125000000000006
 10
-19.124909006445343
 20
-32.836664345652004
 30
7.129866686457964
 10
-19.18663338028527
 20
-32.800658734548925
 30
7.139576881018772
 10
-19.24723229224673
 20
-32.76512864957424
 30
7.153999824739317
 10
-19.306253114596775
 20
-32.730353265696515
 30
7.172899426084015
 10
-19.36328124538189
 20
-32.69659592221348
 30
7.195936508920346
 10
-19.493434048569846
 20
-32.61922346703078
 30
7.259579991207323
 10
-19.564382486367133
 20
-32.57677106518788
 30
7.303515410477435
 10
-19.63044463381104
 20
-32.53700597323794
 30
7.353594374116504
 10
-19.691367732253134
 20
-32.50013960463342
 30
7.408962222325699
 10
-19.746987317038393
 20
-32.46632805341753
 30
7.4687865014014605
 10
-19.79721938112696
 20
-32.43567278457559
 30
7.532253196381662
 10
-19.908887042399037
 20
-32.36730382507507
 30
7.697397183365792
 10
-19.96393993719915
 20
-32.333376389117255
 30
7.802849878989716
 10
-20.007529175413257
 20
-32.3063858379731
 30
7.913040009245991
 10
-20.039962061458972
 20
-32.28624102328461
 30
8.026490184785496
 10
-20.06148738677032
 20
-32.2728506230567
 30
8.14199467710409
 10
-20.072249367164975
 20
-32.26615572612196
 30
8.258499946489671
 10
-20.072249367164975
 20
-32.26615572612196
 30
8.375000000000005
  0
SPLINE
  5
77
330
17
100
AcDbEntity
  8
0
100
AcDbSpline
 70
0
 71
7
 72
76
 73
68
 74
0
 40
0.0
 40
0.0
 40
0.0
 40
0.0
 40
0.0
 40
0.0
 40
0.0
 40
0.0
 40
0.3566516510943547
 40
0.3566516510943547
 40
0.3566516510943547
 40
0.3566516510943547
 40
0.3566516510943547
 40
0.3566516510943547
 40
0.595949996238711
 40
0.595949996238711
 40
0.595949996238711
 40
0.595949996238711
 40
0.595949996238711
 40
0.595949996238711
 40
0.7692829492480989
 40
0.7692829492480989
 40
0.7692829492480989
 40
0.7692829492480989
 40
0.7692829492480989
 40
0.7692829492480989
 40
1.0
 40
1.0
 40
1.0
 40
1.0
 40
1.0
 40
1.0
 40
1.257771421460912
 40
1.257771421460912
 40
1.257771421460912
 40
1.257771421460912
 40
1.257771421460912
 40
1.257771421460912
 40
1.5397494028858711
 40
1.5397494028858711
 40
1.5397494028858711
 40
1.5397494028858711
 40
1.5397494028858711
 40
1.5397494028858711
 40
1.8217273843634547
 40
1.8217273843634547
 40
1.8217273843634547
 40
1.8217273843634547
 40
1.8217273843634547
 40
1.8217273843634547
 40
2.079498805493685
 40
2.079498805493685
 40
2.079498805493685
 40
2.079498805493685
 40
2.079498805493685
 40
2.079498805493685
 40
2.4817296791420036
 40
2.4817296791420036
 40
2.4817296791420036
 40
2.4817296791420036
 40
2.4817296791420036
 40
2.4817296791420036
 40
2.720091479190252
 40
2.720091479190252
 40
2.720091479190252
 40
2.720091479190252
 40
2.720091479190252
 40
2.720091479190252
 40
3.0753460781989106
 40
3.0753460781989106
 40
3.0753460781989106
 40
3.0753460781989106
 40
3.0753460781989106
 40
3.0753460781989106
 40
3.0753460781989106
 40
3.0753460781989106
 10
17.907185857703766
 20
33.51615572612179
 30
8.375000000000012
 10
17.907185857703766
 20
33.51615572612179
 30
8.258499946489648
 10
17.918364798722305
 20
33.51018302617239
 30
8.141994677104103
 10
17.940723888142124
 20
33.498236747741956
 30
8.026490184785585
 10
17.974386252439796
 20
33.480221451852564
 30
7.913040009245968
 10
18.01955537449991
 20
33.45596733979965
 30
7.802849878989584
 10
18.076463843324557
 20
33.425253852329796
 30
7.6973971833659025
 10
18.191506929718443
 20
33.3627313006372
 30
7.532253196381644
 10
18.24317120333966
 20
33.334556691472976
 30
7.4687865014014765
 10
18.300262658026586
 20
33.303294493708954
 30
7.4089622223257265
 10
18.36265141900446
 20
33.268966727083054
 30
7.353594374116499
 10
18.43012007253892
 20
33.231637775143035
 30
7.3035154104774165
 10
18.50235914988511
 20
33.191420826573264
 30
7.259579991207349
 10
18.63444206317543
 20
33.11739142025534
 30
7.195936508942077
 10
18.692190845683246
 20
33.084882281953035
 30
7.172899426074521
 10
18.751817622710018
 20
33.0511564423921
 30
7.153999824722546
 10
18.812887034799225
 20
33.01644128772365
 30
7.139576881019706
 10
18.874930995605883
 20
32.98098921750097
 30
7.129866686470735
 10
18.937464261304974
 20
32.94507036937809
 30
7.125000000000013
 10
19.083238997246543
 20
32.86090728634118
 30
7.125000000000013
 10
19.16603473840817
 20
32.81277766168504
 30
7.1336224952919
 10
19.247329464954824
 20
32.76519128022825
 30
7.150754658437903
 10
19.32610439787208
 20
32.71876592843482
 30
7.176001854867283
 10
19.401427124557625
 20
32.67409223026879
 30
7.208697562101056
 10
19.47249803428381
 20
32.63169896524247
 30
7.247913253319069
 10
19.61265606083905
 20
32.54767515934058
 30
7.342247850074587
 10
19.680762402643605
 20
32.50657966723258
 30
7.39884654797695
 10
19.742822279508736
 20
32.468917185978434
 30
7.461192665741408
 10
19.79874448669344
 20
32.434812773726385
 30
7.52832145081488
 10
19.848512612912206
 20
32.404337628072696
 30
7.599356641184826
 10
19.89216607414894
 20
32.37751814798342
 30
7.673495883578085
 10
19.970944421933165
 20
32.32899187068242
 30
7.833688394148182
 10
20.00495399838392
 20
32.30795822602194
 30
7.920349807982285
 10
20.031974347384647
 20
32.29119800348353
 30
8.009220498552061
 10
20.052138724324465
 20
32.278666214677585
 30
8.099659007779278
 10
20.065545768553914
 20
32.270325931301464
 30
8.19110710016
 10
20.072249367164858
 20
32.26615572612179
 30
8.28305343883095
 10
20.072249367164858
 20
32.26615572612179
 30
8.466946561186237
 10
20.065545768551342
 20
32.27032593130301
 30
8.558892899821979
 10
20.05213872433066
 20
32.27866621467378
 30
8.65034099220828
 10
20.031974347384597
 20
32.291198003483586
 30
8.740779501462137
 10
20.004953998373555
 20
32.307958226028305
 30
8.829650192033045
 10
19.97094442194102
 20
32.32899187067759
 30
8.916311605835862
 10
19.892166074197018
 20
32.37751814795381
 30
9.07650411632415
 10
19.848512612927124
 20
32.404337628063686
 30
9.150643358821535
 10
19.798744486647536
 20
32.43481277375474
 30
9.221678549261032
 10
19.742822279448614
 20
32.46891718601484
 30
9.288807334307275
 10
19.680762402645858
 20
32.50657966723065
 30
9.351153451998412
 10
19.612656060920244
 20
32.547675159291906
 30
9.407752149870792
 10
19.423286966989995
 20
32.661200673194166
 30
9.535208689841598
 10
19.291934203574314
 20
32.73929727142422
 30
9.597420464144705
 10
19.148533258014943
 20
32.82365436023022
 30
9.636571149202958
 10
18.99894847090094
 20
32.910501556651695
 30
9.64838245702403
 10
18.849954354308636
 20
32.99582870509155
 30
9.63191662120793
 10
18.708217970093397
 20
33.07604173728991
 30
9.589612037850047
 10
18.502359149881666
 20
33.1914208265752
 30
9.490420008791018
 10
18.43012007253869
 20
33.23163777514311
 30
9.446484589521697
 10
18.36265141900703
 20
33.268966727081654
 30
9.396405625885023
 10
18.300262658028792
 20
33.303294493707774
 30
9.341037777676934
 10
18.243171203339166
 20
33.33455669147322
 30
9.281213498598927
 10
18.19150692971602
 20
33.362731300638515
 30
9.217746803614904
 10
18.07646407972637
 20
33.42525372385233
 30
9.05260315598818
 10
18.019555276509426
 20
33.45596739431812
 30
8.947150144064096
 10
17.97438590616677
 20
33.4802216380805
 30
8.836959354375741
 10
17.940723566130124
 20
33.49823691935852
 30
8.723508675811258
 10
17.91836466236627
 20
33.51018309916439
 30
8.608004157356637
 10
17.907185857703766
 20
33.51615572612179
 30
8.491499342209957
 10
17.907185857703766
 20
33.51615572612179
 30
8.375000000000012
  0
SPLINE
  5
78
330
17
100
AcDbEntity
  8
0
100
AcDbSpline
 70
0
 71
7
 72
76
 73
68
 74
0
 40
0.0
 40
0.0
 40
0.0
 40
0.0
 40
0.0
 40
0.0
 40
0.0
 40
0.0
 40
0.35673602638987384
 40
0.35673602638987384
 40
0.35673602638987384
 40
0.35673602638987384
 40
0.35673602638987384
 40
0.35673602638987384
 40
0.5960918056931398
 40
0.5960918056931398
 40
0.5960918056931398
 40
0.5960918056931398
 40
0.5960918056931398
 40
0.5960918056931398
 40
1.0
 40
1.0
 40
1.0
 40
1.0
 40
1.0
 40
1.0
 40
1.2588463393553881
 40
1.2588463393553881
 40
1.2588463393553881
 40
1.2588463393553881
 40
1.2588463393553881
 40
1.2588463393553881
 40
1.5420001814852946
 40
1.5420001814852946
 40
1.5420001814852946
 40
1.5420001814852946
 40
1.5420001814852946
 40
1.5420001814852946
 40
1.8251540236153796
 40
1.8251540236153796
 40
1.8251540236153796
 40
1.8251540236153796
 40
1.8251540236153796
 40
1.8251540236153796
 40
2.0840003633018984
 40
2.0840003633018984
 40
2.0840003633018984
 40
2.0840003633018984
 40
2.0840003633018984
 40
2.0840003633018984
 40
2.3156795143573428
 40
2.3156795143573428
 40
2.3156795143573428
 40
2.3156795143573428
 40
2.3156795143573428
 40
2.3156795143573428
 40
2.4897352692605375
 40
2.4897352692605375
 40
2.4897352692605375
 40
2.4897352692605375
 40
2.4897352692605375
 40
2.4897352692605375
 40
2.7300314990487626
 40
2.7300314990487626
 40
2.7300314990487626
 40
2.7300314990487626
 40
2.7300314990487626
 40
2.7300314990487626
 40
3.0881704032438164
 40
3.0881704032438164
 40
3.0881704032438164
 40
3.0881704032438164
 40
3.0881704032438164
 40
3.0881704032438164
 40
3.0881704032438164
 40
3.0881704032438164
 10
17.907185857703766
 20
-33.5161557261218
 30
8.375000000000002
 10
17.907185857703766
 20
-33.5161557261218
 30
8.49149934220992
 10
17.91836466236627
 20
-33.51018309916439
 30
8.608004157356635
 10
17.94072356613015
 20
-33.498236919358526
 30
8.723508675811278
 10
17.97438590616677
 20
-33.48022163808052
 30
8.836959354375725
 10
18.019555276509397
 20
-33.455967394318115
 30
8.947150144064057
 10
18.076464079726396
 20
-33.42525372385233
 30
9.052603155988209
 10
18.19150692971842
 20
-33.36273130063722
 30
9.21774680361834
 10
18.2431712033397
 20
-33.33455669147292
 30
9.2812134985986
 10
18.300262658026572
 20
-33.30329449370896
 30
9.341037777674282
 10
18.36265141900444
 20
-33.26896672708309
 30
9.396405625883483
 10
18.43012007253895
 20
-33.231637775143
 30
9.446484589522624
 10
18.5023591498851
 20
-33.19142082657327
 30
9.490420008792663
 10
18.708217970124252
 20
-33.076041737272625
 30
9.589612037864908
 10
18.849954354274814
 20
-32.99582870511015
 30
9.631916621179471
 10
18.998948470872854
 20
-32.9105015566685
 30
9.648382457043095
 10
19.148533258053252
 20
-32.82365436020856
 30
9.63657114921471
 10
19.291934203605017
 20
-32.73929727140524
 30
9.597420464107712
 10
19.423286966953327
 20
-32.661200673216165
 30
9.535208689866268
 10
19.61265606092027
 20
-32.5476751592919
 30
9.407752149870769
 10
19.680762402645804
 20
-32.506579667230646
 30
9.351153451998462
 10
19.74282227944863
 20
-32.46891718601488
 30
9.28880733430725
 10
19.79874448664757
 20
-32.434812773754764
 30
9.221678549260997
 10
19.8485126129271
 20
-32.40433762806368
 30
9.150643358821565
 10
19.892166074197032
 20
-32.37751814795381
 30
9.07650411632413
 10
19.97094442194103
 20
-32.32899187067759
 30
8.916311605835848
 10
20.00495399837356
 20
-32.307958226028305
 30
8.829650192033053
 10
20.031974347384597
 20
-32.291198003483565
 30
8.740779501462098
 10
20.052138724330664
 20
-32.278666214673784
 30
8.650340992208273
 10
20.065545768551342
 20
-32.27032593130305
 30
8.558892899822027
 10
20.072249367164858
 20
-32.26615572612179
 30
8.466946561186178
 10
20.072249367164858
 20
-32.26615572612179
 30
8.283053438813772
 10
20.06554576855134
 20
-32.27032593130304
 30
8.191107100178028
 10
20.05213872433068
 20
-32.2786662146738
 30
8.099659007791772
 10
20.031974347384597
 20
-32.29119800348357
 30
8.009220498537886
 10
20.004953998373544
 20
-32.3079582260283
 30
7.9203498079669385
 10
19.97094442194106
 20
-32.32899187067758
 30
7.833688394164227
 10
19.89216607414891
 20
-32.37751814798345
 30
7.67349588357802
 10
19.848512612912263
 20
-32.40433762807264
 30
7.599356641184885
 10
19.798744486693458
 20
-32.43481277372639
 30
7.528321450814896
 10
19.74282227950872
 20
-32.46891718597847
 30
7.461192665741378
 10
19.68076240264361
 20
-32.506579667232565
 30
7.398846547976944
 10
19.61265606083904
 20
-32.547675159340585
 30
7.342247850074573
 10
19.4724980342838
 20
-32.63169896524247
 30
7.247913253319055
 10
19.40142712455765
 20
-32.6740922302688
 30
7.208697562101051
 10
19.326104397872083
 20
-32.71876592843479
 30
7.176001854867278
 10
19.24732946495482
 20
-32.765191280228244
 30
7.1507546584378945
 10
19.16603473840819
 20
-32.812777661685054
 30
7.1336224952918945
 10
19.083238997246543
 20
-32.860907286341195
 30
7.125000000000006
 10
18.9374642628085
 20
-32.94507036851004
 30
7.125000000000006
 10
18.8749309941739
 20
-32.98098921831443
 30
7.129866686846002
 10
18.81288703358388
 20
-33.0164412884243
 30
7.139576881046947
 10
18.751817623794615
 20
-33.0511564417833
 30
7.153999824229278
 10
18.6921908471415
 20
-33.084882281121075
 30
7.172899425795164
 10
18.63444206184996
 20
-33.11739142099824
 30
7.195936509580741
 10
18.5023591498851
 20
-33.19142082657327
 30
7.259579991207347
 10
18.430120072538987
 20
-33.23163777514299
 30
7.303515410477364
 10
18.36265141900442
 20
-33.2689667270831
 30
7.353594374116541
 10
18.300262658026547
 20
-33.303294493708975
 30
7.4089622223257425
 10
18.243171203339728
 20
-33.334556691472905
 30
7.4687865014013965
 10
18.19150692971841
 20
-33.36273130063723
 30
7.5322531963816814
 10
18.076463843324632
 20
-33.425253852329774
 30
7.697397183365799
 10
18.01955537449984
 20
-33.45596733979964
 30
7.80284987898967
 10
17.974386252439785
 20
-33.48022145185258
 30
7.913040009246009
 10
17.940723888142166
 20
-33.49823674774196
 30
8.026490184785532
 10
17.918364798722305
 20
-33.51018302617238
 30
8.141994677104066
 10
17.907185857703766
 20
-33.5161557261218
 30
8.258499946489641
 10
17.907185857703766
 20
-33.5161557261218
 30
8.375000000000002
  0
SPLINE
  5
79
330
17
100
AcDbEntity
  8
0
100
AcDbSpline
 70
0
 71
6
 72
79
 73
72
 74
0
 40
0.0
 40
0.0
 40
0.0
 40
0.0
 40
0.0
 40
0.0
 40
0.0
 40
0.35678951038563683
 40
0.35678951038563683
 40
0.35678951038563683
 40
0.35678951038563683
 40
0.35678951038563683
 40
0.5961811753369447
 40
0.5961811753369447
 40
0.5961811753369447
 40
0.5961811753369447
 40
0.5961811753369447
 40
0.7695817235079713
 40
0.7695817235079713
 40
0.7695817235079713
 40
0.7695817235079713
 40
0.7695817235079713
 40
0.8734737980417159
 40
0.8734737980417159
 40
0.8734737980417159
 40
0.8734737980417159
 40
0.8734737980417159
 40
1.0
 40
1.0
 40
1.0
 40
1.0
 40
1.0
 40
1.2569469391704113
 40
1.2569469391704113
 40
1.2569469391704113
 40
1.2569469391704113
 40
1.2569469391704113
 40
1.5380230135854336
 40
1.5380230135854336
 40
1.5380230135854336
 40
1.5380230135854336
 40
1.5380230135854336
 40
1.8190990880004745
 40
1.8190990880004745
 40
1.8190990880004745
 40
1.8190990880004745
 40
1.8190990880004745
 40
2.0760460271706753
 40
2.0760460271706753
 40
2.0760460271706753
 40
2.0760460271706753
 40
2.0760460271706753
 40
2.2071322842544174
 40
2.2071322842544174
 40
2.2071322842544174
 40
2.2071322842544174
 40
2.2071322842544174
 40
2.304207125271013
 40
2.304207125271013
 40
2.304207125271013
 40
2.304207125271013
 40
2.304207125271013
 40
2.4798499820496596
 40
2.4798499820496596
 40
2.4798499820496596
 40
2.4798499820496596
 40
2.4798499820496596
 40
2.7192432604548182
 40
2.7192432604548182
 40
2.7192432604548182
 40
2.7192432604548182
 40
2.7192432604548182
 40
3.07603517553324
 40
3.07603517553324
 40
3.07603517553324
 40
3.07603517553324
 40
3.07603517553324
 40
3.07603517553324
 40
3.07603517553324
 10
37.97943522486854
 20
-1.2499999999999882
 30
8.375
 10
37.97943522486854
 20
-1.2499999999999882
 30
8.51091589924491
 10
37.98001896279083
 20
-1.2322655807794414
 30
8.646839460601296
 10
37.98118616804053
 20
-1.1967939704041068
 30
8.781010587218795
 10
37.982887746599694
 20
-1.1432253888358286
 30
8.911557710584974
 10
37.98501421821355
 20
-1.071005247724336
 30
9.036131227761597
 10
37.98895220609671
 20
-0.9182987984625399
 30
9.228798816663401
 10
37.990641046090275
 20
-0.8482005738927123
 30
9.302179371372644
 10
37.992372398421544
 20
-0.7693706254629631
 30
9.370181582400543
 10
37.99406092534034
 20
-0.6820809250217887
 30
9.431371017194103
 10
37.995606642819396
 20
-0.586831172288917
 30
9.484268520343836
 10
37.99785843799091
 20
-0.41019566721309014
 30
9.558519249662796
 10
37.9986781691262
 20
-0.33226235586366787
 30
9.584533103625594
 10
37.999328724265325
 20
-0.2513518705236812
 30
9.604600479005388
 10
37.99977600293937
 20
-0.16835679672398152
 30
9.618186638947668
 10
37.9999999999998
 20
-0.08424505968795003
 30
9.624999999999998
 10
37.9999999999998
 20
0.05047500779273947
 30
9.625
 10
37.999919551811736
 20
0.10093900215056643
 30
9.62255413968533
 10
37.99975869069853
 20
0.15116280379288766
 30
9.617664627356781
 10
37.99951997724278
 20
0.20092014265220146
 30
9.61037119617207
 10
37.9992082202594
 20
0.2499913119000884
 30
9.600750890102068
 10
37.99836982287185
 20
0.3568379414432075
 30
9.574506840743714
 10
37.997811370848126
 20
0.4141535186443655
 30
9.556820594674157
 10
37.997166307054165
 20
0.4698506303530285
 30
9.536043836765971
 10
37.996448824325476
 20
0.5236914531358748
 30
9.512395841570116
 10
37.99567464978659
 20
0.5754668571595016
 30
9.486129728083325
 10
37.993205169667185
 20
0.7255909388203747
 30
9.399455549124575
 10
37.99138490873603
 20
0.816814146558136
 30
9.331832613182453
 10
37.98951826677133
 20
0.8982117161481515
 30
9.256538375065805
 10
37.987711813204896
 20
0.969606082320126
 30
9.175198781344232
 10
37.986046065099934
 20
1.0310004704851499
 30
9.089254802492324
 10
37.98297094759802
 20
1.1389021911016868
 30
8.902363540160385
 10
37.981597015227365
 20
1.183586075139356
 30
8.800564852760768
 10
37.98052592442851
 20
1.2168598679856715
 30
8.695940487963457
 10
37.97979881091532
 20
1.238953175002872
 30
8.589541664563754
 10
37.97943522486853
 20
1.25000000000001
 30
8.482270988030555
 10
37.97943522486853
 20
1.2500000000000104
 30
8.267729011969438
 10
37.97979881091532
 20
1.2389531750028797
 30
8.160458335436303
 10
37.98052592442852
 20
1.216859867985651
 30
8.054059512036421
 10
37.981597015227365
 20
1.1835860751393659
 30
7.949435147239282
 10
37.98297094759802
 20
1.1389021911017205
 30
7.847636459839682
 10
37.986046065099934
 20
1.0310004704851716
 30
7.660745197507717
 10
37.9877118132049
 20
0.9696060823200491
 30
7.574801218655659
 10
37.98951826677132
 20
0.8982117161483079
 30
7.4934616249343575
 10
37.99138490873603
 20
0.8168141465580232
 30
7.418167386817467
 10
37.993205169667185
 20
0.725590938820417
 30
7.3505444508754465
 10
37.9957040155081
 20
0.5736816628013354
 30
7.26283958947343
 10
37.99650465290981
 20
0.5199518105555548
 30
7.235711194394386
 10
37.99724382136162
 20
0.4640096921069518
 30
7.211404183117977
 10
37.99790399486411
 20
0.4060921034959308
 30
7.190200273126014
 10
37.99846949816473
 20
0.34646891324393136
 30
7.172340905047321
 10
37.99926744041624
 20
0.2402430859346777
 30
7.14742586218566
 10
37.99954807595918
 20
0.19429628027461465
 30
7.138774112967692
 10
37.99976451466769
 20
0.14777075924048452
 30
7.132160635553119
 10
37.999912953029366
 20
0.1008466308045084
 30
7.127646480323406
 10
37.999991313046415
 20
0.05370891803278249
 30
7.125264086881565
 10
38.00001413432576
 20
-0.07879140172021198
 30
7.124570310489574
 10
37.99979898910659
 20
-0.1640490764833015
 30
7.131115209737229
 10
37.99935394881826
 20
-0.2482032123158453
 30
7.144621640312274
 10
37.99869939716646
 20
-0.33024313764025276
 30
7.164793606985359
 10
37.997870663400874
 20
-0.4092366805818351
 30
7.191077629476831
 10
37.995606642819396
 20
-0.5868311722889026
 30
7.265731479656158
 10
37.99406092534036
 20
-0.6820809250218896
 30
7.318628982805924
 10
37.99237239842151
 20
-0.769370625462908
 30
7.37981841759948
 10
37.9906410460903
 20
-0.8482005738927947
 30
7.447820628627395
 10
37.988952206096705
 20
-0.9182987984625368
 30
7.521201183336592
 10
37.98501421821354
 20
-1.0710052477243808
 30
7.713868772238465
 10
37.98288774659972
 20
-1.1432253888357453
 30
7.838442289414876
 10
37.9811861680405
 20
-1.1967939704041917
 30
7.968989412781445
 10
37.980018962790844
 20
-1.232265580779416
 30
8.103160539398592
 10
37.97943522486854
 20
-1.2499999999999882
 30
8.239084100755093
 10
37.97943522486854
 20
-1.2499999999999882
 30
8.375
  0
SPLINE
  5
7A
330
17
100
AcDbEntity
  8
0
100
AcDbSpline
 70
0
 71
7
 72
76
 73
68
 74
0
 40
0.0
 40
0.0
 40
0.0
 40
0.0
 40
0.0
 40
0.0
 40
0.0
 40
0.0
 40
0.3566516511139175
 40
0.3566516511139175
 40
0.3566516511139175
 40
0.3566516511139175
 40
0.3566516511139175
 40
0.3566516511139175
 40
0.5959499962714501
 40
0.5959499962714501
 40
0.5959499962714501
 40
0.5959499962714501
 40
0.5959499962714501
 40
0.5959499962714501
 40
0.7692829492442956
 40
0.7692829492442956
 40
0.7692829492442956
 40
0.7692829492442956
 40
0.7692829492442956
 40
0.7692829492442956
 40
1.0
 40
1.0
 40
1.0
 40
1.0
 40
1.0
 40
1.0
 40
1.2577714217586542
 40
1.2577714217586542
 40
1.2577714217586542
 40
1.2577714217586542
 40
1.2577714217586542
 40
1.2577714217586542
 40
1.5397494039238886
 40
1.5397494039238886
 40
1.5397494039238886
 40
1.5397494039238886
 40
1.5397494039238886
 40
1.5397494039238886
 40
1.8217273860892678
 40
1.8217273860892678
 40
1.8217273860892678
 40
1.8217273860892678
 40
1.8217273860892678
 40
1.8217273860892678
 40
2.07949880784821
 40
2.07949880784821
 40
2.07949880784821
 40
2.07949880784821
 40
2.07949880784821
 40
2.07949880784821
 40
2.481729682477482
 40
2.481729682477482
 40
2.481729682477482
 40
2.481729682477482
 40
2.481729682477482
 40
2.481729682477482
 40
2.7200914830964247
 40
2.7200914830964247
 40
2.7200914830964247
 40
2.7200914830964247
 40
2.7200914830964247
 40
2.7200914830964247
 40
3.0753460829371972
 40
3.0753460829371972
 40
3.0753460829371972
 40
3.0753460829371972
 40
3.0753460829371972
 40
3.0753460829371972
 40
3.0753460829371972
 40
3.0753460829371972
 10
-20.072249367164968
 20
32.26615572612198
 30
8.375000000000012
 10
-20.072249367164968
 20
32.26615572612198
 30
8.258499946489676
 10
-20.061487386770327
 20
32.27285062305668
 30
8.141994677104087
 10
-20.039962061458954
 20
32.28624102328461
 30
8.02649018478552
 10
-20.00752917541323
 20
32.30638583797314
 30
7.9130400092459805
 10
-19.96393993719915
 20
32.33337638911727
 30
7.802849878989674
 10
-19.90888704239907
 20
32.36730382507505
 30
7.697397183365865
 10
-19.797219381126943
 20
32.43567278457561
 30
7.532253196381654
 10
-19.746987317038393
 20
32.46632805341752
 30
7.468786501401472
 10
-19.691367732253152
 20
32.500139604633425
 30
7.4089622223257265
 10
-19.630444633811013
 20
32.53700597323795
 30
7.353594374116505
 10
-19.56438248636709
 20
32.576771065187884
 30
7.3035154104774165
 10
-19.493434048569874
 20
32.61922346703076
 30
7.259579991207349
 10
-19.363281245440845
 20
32.696595922178446
 30
7.195936508949184
 10
-19.306253114531334
 20
32.73035326573476
 30
7.172899426071412
 10
-19.247232292198444
 20
32.76512864960291
 30
7.153999824717056
 10
-19.18663338034008
 20
32.800658734517235
 30
7.139576881020007
 10
-19.12490900650945
 20
32.83666434561438
 30
7.129866686474911
 10
-19.0625357386783
 20
32.87286031824891
 30
7.125000000000013
 10
-18.916761002756793
 20
32.957023401274235
 30
7.125000000000013
 10
-18.833681654542264
 20
33.00466180412127
 30
7.133622495291305
 10
-18.751823276054484
 20
33.05127191177518
 30
7.150754658439366
 10
-18.672230275567987
 20
33.09628032896344
 30
7.176001854867285
 10
-18.59588035473237
 20
33.13917487467253
 30
7.208697562098619
 10
-18.523631255401817
 20
33.17952745545525
 30
7.247913253320867
 10
-18.38078549161045
 20
33.25889596408992
 30
7.3422478501292545
 10
-18.31114258064165
 20
33.29733004015242
 30
7.398846548001544
 10
-18.247495976737785
 20
33.33224422941153
 30
7.461192665692793
 10
-18.1899995857399
 20
33.36362207535147
 30
7.528321450739057
 10
-18.13872327224766
 20
33.39148496416273
 30
7.5993566411784474
 10
-18.093670190521276
 20
33.41588023053067
 30
7.673495883675869
 10
-18.012256027776935
 20
33.45984114230705
 30
7.833688394164258
 10
-17.977035568960268
 20
33.478777477144924
 30
7.920349807966905
 10
-17.949010615957896
 20
33.49379767453523
 30
8.009220498537923
 10
-17.928075580020725
 20
33.50499464281712
 30
8.099659007791782
 10
-17.914149160636594
 20
33.51243534201651
 30
8.191107100177968
 10
-17.907185857703862
 20
33.51615572612196
 30
8.28305343881387
 10
-17.907185857703862
 20
33.51615572612196
 30
8.466946561186205
 10
-17.914149160636587
 20
33.51243534201652
 30
8.558892899822025
 10
-17.92807558002074
 20
33.50499464281711
 30
8.650340992208262
 10
-17.94901061595791
 20
33.49379767453522
 30
8.74077950146212
 10
-17.977035568960257
 20
33.47877747714491
 30
8.829650192033084
 10
-18.012256027776953
 20
33.459841142307035
 30
8.916311605835812
 10
-18.09367019052129
 20
33.415880230530654
 30
9.076504116324184
 10
-18.138723272247606
 20
33.391484964162764
 30
9.150643358821508
 10
-18.189999585739933
 20
33.36362207535145
 30
9.221678549261002
 10
-18.247495976737834
 20
33.332244229411515
 30
9.288807334307299
 10
-18.311142580641626
 20
33.29733004015245
 30
9.35115345199846
 10
-18.38078549161045
 20
33.258895964089916
 30
9.407752149870763
 10
-18.5737860175927
 20
33.15166027500577
 30
9.535208689841625
 10
-18.70709603731679
 20
33.07695374414563
 30
9.597420464144792
 10
-18.85185189199193
 20
32.99494342676738
 30
9.636571149202693
 10
-19.00185616389723
 20
32.90882279931781
 30
9.648382457024312
 10
-19.15024870037491
 20
32.822453683554286
 30
9.6319166212078
 10
-19.29058341608081
 20
32.73981289028257
 30
9.58961203785006
 10
-19.493434048569913
 20
32.61922346703073
 30
9.490420008792656
 10
-19.56438248636699
 20
32.576771065187934
 30
9.446484589522651
 10
-19.630444633811063
 20
32.53700597323793
 30
9.396405625883489
 10
-19.691367732253212
 20
32.50013960463339
 30
9.341037777674277
 10
-19.746987317038315
 20
32.466328053417556
 30
9.281213498598609
 10
-19.79721938112696
 20
32.43567278457559
 30
9.217746803618342
 10
-19.908886812933424
 20
32.36730396556628
 30
9.052603155988189
 10
-19.963940033408715
 20
32.333376331514295
 30
8.947150144064087
 10
-20.00752950982789
 20
32.306385631205856
 30
8.836959354375757
 10
-20.039962371089295
 20
32.286240830222305
 30
8.723508675811269
 10
-20.06148751816124
 20
32.272850541464905
 30
8.608004157356616
 10
-20.072249367164968
 20
32.26615572612198
 30
8.491499342209952
 10
-20.072249367164968
 20
32.26615572612198
 30
8.375000000000012
  0
CIRCLE
  5
7B
330
17
100
AcDbEntity
  8
0
100
AcDbCircle
 10
-1.9567916310872095e-13
 20
-1.7225278442669098e-15
 30
3.0
 40
36.25
  0
CIRCLE
  5
7C
330
17
100
AcDbEntity
  8
0
100
AcDbCircle
 10
-33.0
 20
8.082668874372531e-15
 30
3.0
 40
1.625
  0
CIRCLE
  5
7D
330
17
100
AcDbEntity
  8
0
100
AcDbCircle
 10
-16.500000000000004
 20
28.578838324886473
 30
3.0
 40
1.625
  0
ARC
  5
7E
330
17
100
AcDbEntity
  8
0
100
AcDbCircle
 10
-20.8
 20
-12.0
 30
3.0
 40
7.5
100
AcDbArc
 50
167.8461437184431
 51
252.11713501925604
  0
ARC
  5
7F
330
17
100
AcDbEntity
  8
0
100
AcDbCircle
 10
-2.0799523719522933e-13
 20
-1.9378438248002735e-15
 30
3.0
 40
30.0
100
AcDbArc
 50
-140.3629897703507
 51
200.32626850804985
  0
CIRCLE
  5
80
330
17
100
AcDbEntity
  8
0
100
AcDbCircle
 10
-16.500000000000004
 20
-28.578838324886473
 30
3.0
 40
1.625
  0
CIRCLE
  5
81
330
17
100
AcDbEntity
  8
0
100
AcDbCircle
 10
16.500000000000014
 20
28.578838324886465
 30
3.0
 40
1.625
  0
CIRCLE
  5
82
330
17
100
AcDbEntity
  8
0
100
AcDbCircle
 10
16.499999999999993
 20
-28.578838324886476
 30
3.0
 40
1.625
  0
CIRCLE
  5
83
330
17
100
AcDbEntity
  8
0
100
AcDbCircle
 10
33.0
 20
-4.0413344371862654e-15
 30
3.0
 40
1.625
  0
CIRCLE
  5
84
330
17
100
AcDbEntity
  8
0
100
AcDbCircle
 10
-1.9962867338021862e-13
 20
-1.0150610510858574e-15
 30
6.0
 40
38.0
  0
CIRCLE
  5
85
330
17
100
AcDbEntity
  8
0
100
AcDbCircle
 10
-33.0
 20
8.082668874372531e-15
 30
6.0
 40
1.625
  0
CIRCLE
  5
86
330
17
100
AcDbEntity
  8
0
100
AcDbCircle
 10
-16.500000000000004
 20
28.578838324886473
 30
6.0
 40
1.625
  0
ARC
  5
87
330
17
100
AcDbEntity
  8
0
100
AcDbCircle
 10
-1.9962867338021862e-13
 20
-1.0150610510858574e-15
 30
6.0
 40
30.0
100
AcDbArc
 50
-140.36298977035068
 51
200.32626850804982
  0
ARC
  5
88
330
17
100
AcDbEntity
  8
0
100
AcDbCircle
 10
-20.8
 20
-12.0
 30
6.0
 40
7.5
100
AcDbArc
 50
167.84614371844296
 51
252.11713501925618
  0
CIRCLE
  5
89
330
17
100
AcDbEntity
  8
0
100
AcDbCircle
 10
-16.500000000000004
 20
-28.578838324886473
 30
6.0
 40
1.625
  0
CIRCLE
  5
8A
330
17
100
AcDbEntity
  8
0
100
AcDbCircle
 10
16.500000000000014
 20
28.578838324886465
 30
6.0
 40
1.625
  0
CIRCLE
  5
8B
330
17
100
AcDbEntity
  8
0
100
AcDbCircle
 10
16.499999999999993
 20
-28.578838324886476
 30
6.0
 40
1.625
  0
CIRCLE
  5
8C
330
17
100
AcDbEntity
  8
0
100
AcDbCircle
 10
33.0
 20
-4.0413344371862654e-15
 30
6.0
 40
1.625
  0
CIRCLE
  5
8D
330
17
100
AcDbEntity
  8
0
100
AcDbCircle
 10
-33.0
 20
8.082668874372531e-15
 30
3.0
 40
1.625
  0
LINE
  5
8E
330
17
100
AcDbEntity
  8
0
100
AcDbLine
 10
-31.375
 20
8.082668874372531e-15
 30
6.0
 11
-31.375
 21
8.082668874372531e-15
 31
3.0
  0
CIRCLE
  5
8F
330
17
100
AcDbEntity
  8
0
100
AcDbCircle
 10
-33.0
 20
8.082668874372531e-15
 30
6.0
 40
1.625
  0
LINE
  5
90
330
17
100
AcDbEntity
  8
0
100
AcDbLine
 10
-31.375
 20
8.082668874372531e-15
 30
6.0
 11
-31.375
 21
8.082668874372531e-15
 31
3.0
  0
CIRCLE
  5
91
330
17
100
AcDbEntity
  8
0
100
AcDbCircle
 10
-16.500000000000004
 20
28.578838324886473
 30
3.0
 40
1.625
  0
LINE
  5
92
330
17
100
AcDbEntity
  8
0
100
AcDbLine
 10
-15.687500000000004
 20
27.17154704373676
 30
6.0
 11
-15.687500000000004
 21
27.17154704373676
 31
3.0
  0
CIRCLE
  5
93
330
17
100
AcDbEntity
  8
0
100
AcDbCircle
 10
-16.500000000000004
 20
28.578838324886473
 30
6.0
 40
1.625
  0
LINE
  5
94
330
17
100
AcDbEntity
  8
0
100
AcDbLine
 10
-15.687500000000004
 20
27.17154704373676
 30
6.0
 11
-15.687500000000004
 21
27.17154704373676
 31
3.0
  0
ARC
  5
95
330
17
100
AcDbEntity
  8
0
100
AcDbCircle
 10
-2.0799523719522933e-13
 20
-1.9378438248002735e-15
 30
3.0
 40
30.0
100
AcDbArc
 50
-140.3629897703507
 51
200.32626850804985
  0
LINE
  5
96
330
17
100
AcDbEntity
  8
0
100
AcDbLine
 10
-23.10304013390989
 20
-19.13764710122324
 30
6.0
 11
-23.10304013390989
 21
-19.13764710122324
 31
3.0
  0
ARC
  5
97
330
17
100
AcDbEntity
  8
0
100
AcDbCircle
 10
-1.9962867338021862e-13
 20
-1.0150610510858574e-15
 30
6.0
 40
30.0
100
AcDbArc
 50
-140.36298977035068
 51
200.32626850804982
  0
LINE
  5
98
330
17
100
AcDbEntity
  8
0
100
AcDbLine
 10
-28.13189327341565
 20
-10.420968326080002
 30
6.0
 11
-28.13189327341565
 21
-10.420968326080002
 31
3.0
  0
ARC
  5
99
330
17
100
AcDbEntity
  8
0
100
AcDbCircle
 10
-20.8
 20
-12.0
 30
6.0
 40
7.5
100
AcDbArc
 50
167.84614371844296
 51
252.11713501925618
  0
LINE
  5
9A
330
17
100
AcDbEntity
  8
0
100
AcDbLine
 10
-23.10304013390989
 20
-19.13764710122324
 30
6.0
 11
-23.10304013390989
 21
-19.13764710122324
 31
3.0
  0
ARC
  5
9B
330
17
100
AcDbEntity
  8
0
100
AcDbCircle
 10
-20.8
 20
-12.0
 30
3.0
 40
7.5
100
AcDbArc
 50
167.8461437184431
 51
252.11713501925604
  0
LINE
  5
9C
330
17
100
AcDbEntity
  8
0
100
AcDbLine
 10
-28.13189327341565
 20
-10.420968326080002
 30
6.0
 11
-28.13189327341565
 21
-10.420968326080002
 31
3.0
  0
CIRCLE
  5
9D
330
17
100
AcDbEntity
  8
0
100
AcDbCircle
 10
-16.500000000000004
 20
-28.578838324886473
 30
3.0
 40
1.625
  0
LINE
  5
9E
330
17
100
AcDbEntity
  8
0
100
AcDbLine
 10
-15.687500000000004
 20
-27.17154704373676
 30
6.0
 11
-15.687500000000004
 21
-27.17154704373676
 31
3.0
  0
CIRCLE
  5
9F
330
17
100
AcDbEntity
  8
0
100
AcDbCircle
 10
-16.500000000000004
 20
-28.578838324886473
 30
6.0
 40
1.625
  0
LINE
  5
A0
330
17
100
AcDbEntity
  8
0
100
AcDbLine
 10
-15.687500000000004
 20
-27.17154704373676
 30
6.0
 11
-15.687500000000004
 21
-27.17154704373676
 31
3.0
  0
CIRCLE
  5
A1
330
17
100
AcDbEntity
  8
0
100
AcDbCircle
 10
16.500000000000014
 20
28.578838324886465
 30
3.0
 40
1.625
  0
LINE
  5
A2
330
17
100
AcDbEntity
  8
0
100
AcDbLine
 10
15.687500000000014
 20
27.17154704373675
 30
6.0
 11
15.687500000000014
 21
27.17154704373675
 31
3.0
  0
CIRCLE
  5
A3
330
17
100
AcDbEntity
  8
0
100
AcDbCircle
 10
16.500000000000014
 20
28.578838324886465
 30
6.0
 40
1.625
  0
LINE
  5
A4
330
17
100
AcDbEntity
  8
0
100
AcDbLine
 10
15.687500000000014
 20
27.17154704373675
 30
6.0
 11
15.687500000000014
 21
27.17154704373675
 31
3.0
  0
CIRCLE
  5
A5
330
17
100
AcDbEntity
  8
0
100
AcDbCircle
 10
16.499999999999993
 20
-28.578838324886476
 30
3.0
 40
1.625
  0
LINE
  5
A6
330
17
100
AcDbEntity
  8
0
100
AcDbLine
 10
15.687499999999993
 20
-27.171547043736762
 30
6.0
 11
15.687499999999993
 21
-27.171547043736762
 31
3.0
  0
CIRCLE
  5
A7
330
17
100
AcDbEntity
  8
0
100
AcDbCircle
 10
16.499999999999993
 20
-28.578838324886476
 30
6.0
 40
1.625
  0
LINE
  5
A8
330
17
100
AcDbEntity
  8
0
100
AcDbLine
 10
15.687499999999993
 20
-27.171547043736762
 30
6.0
 11
15.687499999999993
 21
-27.171547043736762
 31
3.0
  0
CIRCLE
  5
A9
330
17
100
AcDbEntity
  8
0
100
AcDbCircle
 10
33.0
 20
-4.0413344371862654e-15
 30
3.0
 40
1.625
  0
LINE
  5
AA
330
17
100
AcDbEntity
  8
0
100
AcDbLine
 10
31.375
 20
-4.24033954204771e-15
 30
6.0
 11
31.375
 21
-4.24033954204771e-15
 31
3.0
  0
CIRCLE
  5
AB
330
17
100
AcDbEntity
  8
0
100
AcDbCircle
 10
33.0
 20
-4.0413344371862654e-15
 30
6.0
 40
1.625
  0
LINE
  5
AC
330
17
100
AcDbEntity
  8
0
100
AcDbLine
 10
31.375
 20
-4.24033954204771e-15
 30
6.0
 11
31.375
 21
-4.24033954204771e-15
 31
3.0
  0
ENDSEC
  0
SECTION
  2
OBJECTS
  0
DICTIONARY
  5
A
330
0
100
AcDbDictionary
280
0
281
1
  3
ACAD_COLOR
350
B
  3
ACAD_GROUP
350
C
  3
ACAD_LAYOUT
350
D
  3
ACAD_MATERIAL
350
E
  3
ACAD_MLEADERSTYLE
350
F
  3
ACAD_MLINESTYLE
350
10
  3
ACAD_PLOTSETTINGS
350
11
  3
ACAD_PLOTSTYLENAME
350
12
  3
ACAD_SCALELIST
350
14
  3
ACAD_TABLESTYLE
350
15
  3
ACAD_VISUALSTYLE
350
16
  3
EZDXF_META
350
2D
  0
DICTIONARY
  5
B
330
A
100
AcDbDictionary
280
0
281
1
  0
DICTIONARY
  5
C
330
A
100
AcDbDictionary
280
0
281
1
  0
DICTIONARY
  5
D
330
A
100
AcDbDictionary
280
0
281
1
  3
Model
350
1A
  3
Layout1
350
1E
  0
DICTIONARY
  5
E
330
A
100
AcDbDictionary
280
0
281
1
  3
ByBlock
350
1F
  3
ByLayer
350
20
  3
Global
350
21
  0
DICTIONARY
  5
F
330
A
100
AcDbDictionary
280
0
281
1
  3
Standard
350
2C
  0
DICTIONARY
  5
10
330
A
100
AcDbDictionary
280
0
281
1
  3
Standard
350
22
  0
DICTIONARY
  5
11
330
A
100
AcDbDictionary
280
0
281
1
  0
ACDBDICTIONARYWDFLT
  5
12
330
A
100
AcDbDictionary
280
0
281
1
  3
Normal
350
13
100
AcDbDictionaryWithDefault
340
13
  0
ACDBPLACEHOLDER
  5
13
330
12
  0
DICTIONARY
  5
14
330
A
100
AcDbDictionary
280
0
281
1
  0
DICTIONARY
  5
15
330
A
100
AcDbDictionary
280
0
281
1
  0
DICTIONARY
  5
16
330
A
100
AcDbDictionary
280
0
281
1
  0
LAYOUT
  5
1A
330
D
100
AcDbPlotSettings
  1

  2
Adobe PDF
  4
A3
  6

 40
7.5
 41
20.0
 42
7.5
 43
20.0
 44
420.0
 45
297.0
 46
0.0
 47
0.0
 48
0.0
 49
0.0
140
0.0
141
0.0
142
1.0
143
1.0
 70
1024
 72
1
 73
0
 74
5
  7

 75
16
 76
0
 77
2
 78
300
147
1.0
148
0.0
149
0.0
100
AcDbLayout
  1
Model
 70
1
 71
0
 10
0.0
 20
0.0
 11
420.0
 21
297.0
 12
0.0
 22
0.0
 32
0.0
 14
1e+20
 24
1e+20
 34
1e+20
 15
-1e+20
 25
-1e+20
 35
-1e+20
146
0.0
 13
0.0
 23
0.0
 33
0.0
 16
1.0
 26
0.0
 36
0.0
 17
0.0
 27
1.0
 37
0.0
 76
1
330
17
  0
LAYOUT
  5
1E
330
D
100
AcDbPlotSettings
  1

  2
Adobe PDF
  4
A3
  6

 40
7.5
 41
20.0
 42
7.5
 43
20.0
 44
420.0
 45
297.0
 46
0.0
 47
0.0
 48
0.0
 49
0.0
140
0.0
141
0.0
142
1.0
143
1.0
 70
0
 72
1
 73
0
 74
5
  7

 75
16
 76
0
 77
2
 78
300
147
1.0
148
0.0
149
0.0
100
AcDbLayout
  1
Layout1
 70
1
 71
1
 10
0.0
 20
0.0
 11
420.0
 21
297.0
 12
0.0
 22
0.0
 32
0.0
 14
1e+20
 24
1e+20
 34
1e+20
 15
-1e+20
 25
-1e+20
 35
-1e+20
146
0.0
 13
0.0
 23
0.0
 33
0.0
 16
1.0
 26
0.0
 36
0.0
 17
0.0
 27
1.0
 37
0.0
 76
1
330
1B
  0
MATERIAL
  5
1F
102
{ACAD_REACTORS
330
E
102
}
330
E
100
AcDbMaterial
  1
ByBlock
  2

 70
0
 40
1.0
 71
1
 41
1.0
 91
-1023410177
 42
1.0
 72
1
  3

 73
1
 74
1
 75
1
 44
0.5
 73
0
 45
1.0
 46
1.0
 77
1
  4

 78
1
 79
1
170
1
 48
1.0
171
1
  6

172
1
173
1
174
1
140
1.0
141
1.0
175
1
  7

176
1
177
1
178
1
143
1.0
179
1
  8

270
1
271
1
272
1
145
1.0
146
1.0
273
1
  9

274
1
275
1
276
1
 42
1.0
 72
1
  3

 73
1
 74
1
 75
1
 94
63
  0
MATERIAL
  5
20
102
{ACAD_REACTORS
330
E
102
}
330
E
100
AcDbMaterial
  1
ByLayer
  2

 70
0
 40
1.0
 71
1
 41
1.0
 91
-1023410177
 42
1.0
 72
1
  3

 73
1
 74
1
 75
1
 44
0.5
 73
0
 45
1.0
 46
1.0
 77
1
  4

 78
1
 79
1
170
1
 48
1.0
171
1
  6

172
1
173
1
174
1
140
1.0
141
1.0
175
1
  7

176
1
177
1
178
1
143
1.0
179
1
  8

270
1
271
1
272
1
145
1.0
146
1.0
273
1
  9

274
1
275
1
276
1
 42
1.0
 72
1
  3

 73
1
 74
1
 75
1
 94
63
  0
MATERIAL
  5
21
102
{ACAD_REACTORS
330
E
102
}
330
E
100
AcDbMaterial
  1
Global
  2

 70
0
 40
1.0
 71
1
 41
1.0
 91
-1023410177
 42
1.0
 72
1
  3

 73
1
 74
1
 75
1
 44
0.5
 73
0
 45
1.0
 46
1.0
 77
1
  4

 78
1
 79
1
170
1
 48
1.0
171
1
  6

172
1
173
1
174
1
140
1.0
141
1.0
175
1
  7

176
1
177
1
178
1
143
1.0
179
1
  8

270
1
271
1
272
1
145
1.0
146
1.0
273
1
  9

274
1
275
1
276
1
 42
1.0
 72
1
  3

 73
1
 74
1
 75
1
 94
63
  0
MLINESTYLE
  5
22
102
{ACAD_REACTORS
330
10
102
}
330
10
100
AcDbMlineStyle
  2
Standard
 70
0
  3

 62
256
 51
90.0
 52
90.0
 71
2
 49
0.5
 62
256
  6
BYLAYER
 49
-0.5
 62
256
  6
BYLAYER
  0
MLEADERSTYLE
  5
2C
102
{ACAD_REACTORS
330
F
102
}
330
F
100
AcDbMLeaderStyle
179
2
170
2
171
1
172
0
 90
2
 40
0.0
 41
0.0
173
1
 91
-1056964608
 92
-2
290
1
 42
2.0
291
1
 43
8.0
  3
Standard
 44
4.0
300

342
29
174
1
175
1
176
0
178
1
 93
-1056964608
 45
4.0
292
0
297
0
 46
4.0
 94
-1056964608
 47
1.0
 49
1.0
140
1.0
294
1
141
0.0
177
0
142
1.0
295
0
296
0
143
3.75
271
0
272
9
273
9
  0
DICTIONARY
  5
2D
330
A
100
AcDbDictionary
281
1
  3
CREATED_BY_EZDXF
350
2E
  3
WRITTEN_BY_EZDXF
350
B0
  0
DICTIONARYVAR
  5
2E
330
2D
100
DictionaryVariables
280
0
  1
1.0.3 @ 2023-10-11T14:39:37.435319+00:00
  0
DICTIONARYVAR
  5
B0
330
2D
100
DictionaryVariables
280
0
  1
1.0.3 @ 2023-10-11T14:39:37.628319+00:00
  0
ENDSEC
  0
EOF
