  0
SECTION
  2
HEADER
  9
$ACADVER
  1
AC1027
  9
$ACADMAINTVER
 70
105
  9
$DWGCODEPAGE
  3
ANSI_1252
  9
$LASTSAVEDBY
  1
ezdxf
  9
$REQUIREDVERSIONS
160
0
  9
$INSBASE
 10
0.0
 20
0.0
 30
0.0
  9
$EXTMIN
 10
1e+20
 20
1e+20
 30
1e+20
  9
$EXTMAX
 10
-1e+20
 20
-1e+20
 30
-1e+20
  9
$LIMMIN
 10
0.0
 20
0.0
  9
$LIMMAX
 10
420.0
 20
297.0
  9
$ORTHOMODE
 70
0
  9
$REGENMODE
 70
1
  9
$FILLMODE
 70
1
  9
$QTEXTMODE
 70
0
  9
$MIRRTEXT
 70
1
  9
$LTSCALE
 40
1.0
  9
$ATTMODE
 70
1
  9
$TEXTSIZE
 40
2.5
  9
$TRACEWID
 40
1.0
  9
$TEXTSTYLE
  7
Standard
  9
$CLAYER
  8
0
  9
$CELTYPE
  6
ByLayer
  9
$CECOLOR
 62
256
  9
$CELTSCALE
 40
1.0
  9
$DISPSILH
 70
0
  9
$DIMSCALE
 40
1.0
  9
$DIMASZ
 40
2.5
  9
$DIMEXO
 40
0.625
  9
$DIMDLI
 40
3.75
  9
$DIMRND
 40
0.0
  9
$DIMDLE
 40
0.0
  9
$DIMEXE
 40
1.25
  9
$DIMTP
 40
0.0
  9
$DIMTM
 40
0.0
  9
$DIMTXT
 40
2.5
  9
$DIMCEN
 40
2.5
  9
$DIMTSZ
 40
0.0
  9
$DIMTOL
 70
0
  9
$DIMLIM
 70
0
  9
$DIMTIH
 70
0
  9
$DIMTOH
 70
0
  9
$DIMSE1
 70
0
  9
$DIMSE2
 70
0
  9
$DIMTAD
 70
1
  9
$DIMZIN
 70
8
  9
$DIMBLK
  1

  9
$DIMASO
 70
1
  9
$DIMSHO
 70
1
  9
$DIMPOST
  1

  9
$DIMAPOST
  1

  9
$DIMALT
 70
0
  9
$DIMALTD
 70
3
  9
$DIMALTF
 40
0.03937007874
  9
$DIMLFAC
 40
1.0
  9
$DIMTOFL
 70
1
  9
$DIMTVP
 40
0.0
  9
$DIMTIX
 70
0
  9
$DIMSOXD
 70
0
  9
$DIMSAH
 70
0
  9
$DIMBLK1
  1

  9
$DIMBLK2
  1

  9
$DIMSTYLE
  2
ISO-25
  9
$DIMCLRD
 70
0
  9
$DIMCLRE
 70
0
  9
$DIMCLRT
 70
0
  9
$DIMTFAC
 40
1.0
  9
$DIMGAP
 40
0.625
  9
$DIMJUST
 70
0
  9
$DIMSD1
 70
0
  9
$DIMSD2
 70
0
  9
$DIMTOLJ
 70
0
  9
$DIMTZIN
 70
8
  9
$DIMALTZ
 70
0
  9
$DIMALTTZ
 70
0
  9
$DIMUPT
 70
0
  9
$DIMDEC
 70
2
  9
$DIMTDEC
 70
2
  9
$DIMALTU
 70
2
  9
$DIMALTTD
 70
3
  9
$DIMTXSTY
  7
Standard
  9
$DIMAUNIT
 70
0
  9
$DIMADEC
 70
0
  9
$DIMALTRND
 40
0.0
  9
$DIMAZIN
 70
0
  9
$DIMDSEP
 70
44
  9
$DIMATFIT
 70
3
  9
$DIMFRAC
 70
0
  9
$DIMLDRBLK
  1

  9
$DIMLUNIT
 70
2
  9
$DIMLWD
 70
-2
  9
$DIMLWE
 70
-2
  9
$DIMTMOVE
 70
0
  9
$DIMFXL
 40
1.0
  9
$DIMFXLON
 70
0
  9
$DIMJOGANG
 40
0.785398163397
  9
$DIMTFILL
 70
0
  9
$DIMTFILLCLR
 70
0
  9
$DIMARCSYM
 70
0
  9
$DIMLTYPE
  6

  9
$DIMLTEX1
  6

  9
$DIMLTEX2
  6

  9
$DIMTXTDIRECTION
 70
0
  9
$LUNITS
 70
2
  9
$LUPREC
 70
4
  9
$SKETCHINC
 40
1.0
  9
$FILLETRAD
 40
10.0
  9
$AUNITS
 70
0
  9
$AUPREC
 70
2
  9
$MENU
  1
.
  9
$ELEVATION
 40
0.0
  9
$PELEVATION
 40
0.0
  9
$THICKNESS
 40
0.0
  9
$LIMCHECK
 70
0
  9
$CHAMFERA
 40
0.0
  9
$CHAMFERB
 40
0.0
  9
$CHAMFERC
 40
0.0
  9
$CHAMFERD
 40
0.0
  9
$SKPOLY
 70
0
  9
$TDCREATE
 40
2460216.5091319443
  9
$TDUCREATE
 40
2458532.153996898
  9
$TDUPDATE
 40
2460216.5091319443
  9
$TDUUPDATE
 40
2458532.1544311
  9
$TDINDWG
 40
0.0
  9
$TDUSRTIMER
 40
0.0
  9
$USRTIMER
 70
1
  9
$ANGBASE
 50
0.0
  9
$ANGDIR
 70
0
  9
$PDMODE
 70
0
  9
$PDSIZE
 40
0.0
  9
$PLINEWID
 40
0.0
  9
$SPLFRAME
 70
0
  9
$SPLINETYPE
 70
6
  9
$SPLINESEGS
 70
8
  9
$HANDSEED
  5
6F
  9
$SURFTAB1
 70
6
  9
$SURFTAB2
 70
6
  9
$SURFTYPE
 70
6
  9
$SURFU
 70
6
  9
$SURFV
 70
6
  9
$UCSBASE
  2

  9
$UCSNAME
  2

  9
$UCSORG
 10
0.0
 20
0.0
 30
0.0
  9
$UCSXDIR
 10
1.0
 20
0.0
 30
0.0
  9
$UCSYDIR
 10
0.0
 20
1.0
 30
0.0
  9
$UCSORTHOREF
  2

  9
$UCSORTHOVIEW
 70
0
  9
$UCSORGTOP
 10
0.0
 20
0.0
 30
0.0
  9
$UCSORGBOTTOM
 10
0.0
 20
0.0
 30
0.0
  9
$UCSORGLEFT
 10
0.0
 20
0.0
 30
0.0
  9
$UCSORGRIGHT
 10
0.0
 20
0.0
 30
0.0
  9
$UCSORGFRONT
 10
0.0
 20
0.0
 30
0.0
  9
$UCSORGBACK
 10
0.0
 20
0.0
 30
0.0
  9
$PUCSBASE
  2

  9
$PUCSNAME
  2

  9
$PUCSORG
 10
0.0
 20
0.0
 30
0.0
  9
$PUCSXDIR
 10
1.0
 20
0.0
 30
0.0
  9
$PUCSYDIR
 10
0.0
 20
1.0
 30
0.0
  9
$PUCSORTHOREF
  2

  9
$PUCSORTHOVIEW
 70
0
  9
$PUCSORGTOP
 10
0.0
 20
0.0
 30
0.0
  9
$PUCSORGBOTTOM
 10
0.0
 20
0.0
 30
0.0
  9
$PUCSORGLEFT
 10
0.0
 20
0.0
 30
0.0
  9
$PUCSORGRIGHT
 10
0.0
 20
0.0
 30
0.0
  9
$PUCSORGFRONT
 10
0.0
 20
0.0
 30
0.0
  9
$PUCSORGBACK
 10
0.0
 20
0.0
 30
0.0
  9
$USERI1
 70
0
  9
$USERI2
 70
0
  9
$USERI3
 70
0
  9
$USERI4
 70
0
  9
$USERI5
 70
0
  9
$USERR1
 40
0.0
  9
$USERR2
 40
0.0
  9
$USERR3
 40
0.0
  9
$USERR4
 40
0.0
  9
$USERR5
 40
0.0
  9
$WORLDVIEW
 70
1
  9
$SHADEDGE
 70
3
  9
$SHADEDIF
 70
70
  9
$TILEMODE
 70
1
  9
$MAXACTVP
 70
64
  9
$PINSBASE
 10
0.0
 20
0.0
 30
0.0
  9
$PLIMCHECK
 70
0
  9
$PEXTMIN
 10
1e+20
 20
1e+20
 30
1e+20
  9
$PEXTMAX
 10
-1e+20
 20
-1e+20
 30
-1e+20
  9
$PLIMMIN
 10
0.0
 20
0.0
  9
$PLIMMAX
 10
420.0
 20
297.0
  9
$UNITMODE
 70
0
  9
$VISRETAIN
 70
1
  9
$PLINEGEN
 70
0
  9
$PSLTSCALE
 70
1
  9
$TREEDEPTH
 70
3020
  9
$CMLSTYLE
  2
Standard
  9
$CMLJUST
 70
0
  9
$CMLSCALE
 40
20.0
  9
$PROXYGRAPHICS
 70
1
  9
$MEASUREMENT
 70
1
  9
$CELWEIGHT
370
-1
  9
$ENDCAPS
280
0
  9
$JOINSTYLE
280
0
  9
$LWDISPLAY
290
0
  9
$INSUNITS
 70
4
  9
$HYPERLINKBASE
  1

  9
$STYLESHEET
  1

  9
$XEDIT
290
1
  9
$CEPSNTYPE
380
0
  9
$PSTYLEMODE
290
1
  9
$FINGERPRINTGUID
  2
{E5396BA0-8A83-4D7C-B812-AE4F78701D0B}
  9
$VERSIONGUID
  2
{FF0D4C39-FA11-415F-BD23-0693BC091FD8}
  9
$EXTNAMES
290
1
  9
$PSVPSCALE
 40
0.0
  9
$OLESTARTUP
290
0
  9
$SORTENTS
280
127
  9
$INDEXCTL
280
0
  9
$HIDETEXT
280
1
  9
$XCLIPFRAME
280
0
  9
$HALOGAP
280
0
  9
$OBSCOLOR
 70
257
  9
$OBSLTYPE
280
0
  9
$INTERSECTIONDISPLAY
280
0
  9
$INTERSECTIONCOLOR
 70
257
  9
$DIMASSOC
280
2
  9
$PROJECTNAME
  1

  9
$CAMERADISPLAY
290
0
  9
$LENSLENGTH
 40
50.0
  9
$CAMERAHEIGHT
 40
0.0
  9
$STEPSPERSEC
 40
24.0
  9
$STEPSIZE
 40
100.0
  9
$3DDWFPREC
 40
2.0
  9
$PSOLWIDTH
 40
0.005
  9
$PSOLHEIGHT
 40
0.08
  9
$LOFTANG1
 40
1.570796326795
  9
$LOFTANG2
 40
1.570796326795
  9
$LOFTMAG1
 40
0.0
  9
$LOFTMAG2
 40
0.0
  9
$LOFTPARAM
 70
7
  9
$LOFTNORMALS
280
1
  9
$LATITUDE
 40
37.795
  9
$LONGITUDE
 40
-122.394
  9
$NORTHDIRECTION
 40
0.0
  9
$TIMEZONE
 70
-8000
  9
$LIGHTGLYPHDISPLAY
280
1
  9
$TILEMODELIGHTSYNCH
280
1
  9
$CMATERIAL
347
20
  9
$SOLIDHIST
280
0
  9
$SHOWHIST
280
1
  9
$DWFFRAME
280
2
  9
$DGNFRAME
280
2
  9
$REALWORLDSCALE
290
1
  9
$INTERFERECOLOR
 62
256
  9
$CSHADOW
280
0
  9
$SHADOWPLANELOCATION
 40
0.0
  0
ENDSEC
  0
SECTION
  2
CLASSES
  0
CLASS
  1
ACDBDICTIONARYWDFLT
  2
AcDbDictionaryWithDefault
  3
ObjectDBX Classes
 90
0
 91
0
280
0
281
0
  0
CLASS
  1
SUN
  2
AcDbSun
  3
SCENEOE
 90
1153
 91
0
280
0
281
0
  0
CLASS
  1
VISUALSTYLE
  2
AcDbVisualStyle
  3
ObjectDBX Classes
 90
4095
 91
0
280
0
281
0
  0
CLASS
  1
MATERIAL
  2
AcDbMaterial
  3
ObjectDBX Classes
 90
1153
 91
0
280
0
281
0
  0
CLASS
  1
SCALE
  2
AcDbScale
  3
ObjectDBX Classes
 90
1153
 91
0
280
0
281
0
  0
CLASS
  1
TABLESTYLE
  2
AcDbTableStyle
  3
ObjectDBX Classes
 90
4095
 91
0
280
0
281
0
  0
CLASS
  1
MLEADERSTYLE
  2
AcDbMLeaderStyle
  3
ACDB_MLEADERSTYLE_CLASS
 90
4095
 91
0
280
0
281
0
  0
CLASS
  1
DICTIONARYVAR
  2
AcDbDictionaryVar
  3
ObjectDBX Classes
 90
0
 91
0
280
0
281
0
  0
CLASS
  1
CELLSTYLEMAP
  2
AcDbCellStyleMap
  3
ObjectDBX Classes
 90
1152
 91
0
280
0
281
0
  0
CLASS
  1
MENTALRAYRENDERSETTINGS
  2
AcDbMentalRayRenderSettings
  3
SCENEOE
 90
1024
 91
0
280
0
281
0
  0
CLASS
  1
ACDBDETAILVIEWSTYLE
  2
AcDbDetailViewStyle
  3
ObjectDBX Classes
 90
1025
 91
0
280
0
281
0
  0
CLASS
  1
ACDBSECTIONVIEWSTYLE
  2
AcDbSectionViewStyle
  3
ObjectDBX Classes
 90
1025
 91
0
280
0
281
0
  0
CLASS
  1
RASTERVARIABLES
  2
AcDbRasterVariables
  3
ISM
 90
0
 91
0
280
0
281
0
  0
CLASS
  1
LAYOUT
  2
AcDbLayout
  3
ObjectDBX Classes
 90
0
 91
0
280
0
281
0
  0
CLASS
  1
ACDBPLACEHOLDER
  2
AcDbPlaceHolder
  3
ObjectDBX Classes
 90
0
 91
0
280
0
281
0
  0
ENDSEC
  0
SECTION
  2
TABLES
  0
TABLE
  2
VPORT
  5
8
330
0
100
AcDbSymbolTable
 70
1
  0
VPORT
  5
6B
330
8
100
AcDbSymbolTableRecord
100
AcDbViewportTableRecord
  2
*Active
 70
0
 10
0.0
 20
0.0
 11
1.0
 21
1.0
 12
0.0
 22
-2.0
 13
0.0
 23
0.0
 14
0.5
 24
0.5
 15
0.5
 25
0.5
 16
0.0
 26
0.0
 36
1.0
 17
0.0
 27
0.0
 37
0.0
 40
95.25
 41
1.34
 42
50.0
 43
0.0
 44
0.0
 50
0.0
 51
0.0
 71
0
 72
1000
 73
1
 74
3
 75
0
 76
0
 77
0
 78
0
281
0
 65
1
110
0.0
120
0.0
130
0.0
111
1.0
121
0.0
131
0.0
112
0.0
122
1.0
132
0.0
 79
0
146
0.0
  0
ENDTAB
  0
TABLE
  2
LTYPE
  5
2
330
0
100
AcDbSymbolTable
 70
3
  0
LTYPE
  5
24
330
2
100
AcDbSymbolTableRecord
100
AcDbLinetypeTableRecord
  2
ByBlock
 70
0
  3

 72
65
 73
0
 40
0.0
  0
LTYPE
  5
25
330
2
100
AcDbSymbolTableRecord
100
AcDbLinetypeTableRecord
  2
ByLayer
 70
0
  3

 72
65
 73
0
 40
0.0
  0
LTYPE
  5
26
330
2
100
AcDbSymbolTableRecord
100
AcDbLinetypeTableRecord
  2
Continuous
 70
0
  3

 72
65
 73
0
 40
0.0
  0
ENDTAB
  0
TABLE
  2
LAYER
  5
1
330
0
100
AcDbSymbolTable
 70
2
  0
LAYER
  5
27
330
1
100
AcDbSymbolTableRecord
100
AcDbLayerTableRecord
  2
0
 70
0
 62
7
  6
Continuous
370
-3
390
13
347
21
  0
LAYER
  5
28
330
1
100
AcDbSymbolTableRecord
100
AcDbLayerTableRecord
  2
Defpoints
 70
0
 62
7
  6
Continuous
290
0
370
-3
390
13
347
21
  0
ENDTAB
  0
TABLE
  2
STYLE
  5
5
330
0
100
AcDbSymbolTable
 70
1
  0
STYLE
  5
29
330
5
100
AcDbSymbolTableRecord
100
AcDbTextStyleTableRecord
  2
Standard
 70
0
 40
0.0
 41
1.0
 50
0.0
 71
0
 42
2.5
  3
txt
  4

  0
ENDTAB
  0
TABLE
  2
VIEW
  5
7
330
0
100
AcDbSymbolTable
 70
0
  0
ENDTAB
  0
TABLE
  2
UCS
  5
6
330
0
100
AcDbSymbolTable
 70
0
  0
ENDTAB
  0
TABLE
  2
APPID
  5
3
330
0
100
AcDbSymbolTable
 70
3
  0
APPID
  5
2A
330
3
100
AcDbSymbolTableRecord
100
AcDbRegAppTableRecord
  2
ACAD
 70
0
  0
APPID
  5
6C
330
3
100
AcDbSymbolTableRecord
100
AcDbRegAppTableRecord
  2
HATCHBACKGROUNDCOLOR
 70
0
  0
APPID
  5
6D
330
3
100
AcDbSymbolTableRecord
100
AcDbRegAppTableRecord
  2
EZDXF
 70
0
  0
ENDTAB
  0
TABLE
  2
DIMSTYLE
  5
4
330
0
100
AcDbSymbolTable
 70
1
100
AcDbDimStyleTable
  0
DIMSTYLE
105
2B
330
4
100
AcDbSymbolTableRecord
100
AcDbDimStyleTableRecord
  2
Standard
 70
0
 40
1.0
 41
2.5
 42
0.625
 43
3.75
 44
1.25
 45
0.0
 46
0.0
 47
0.0
 48
0.0
 49
2.5
140
2.5
141
2.5
142
0.0
143
0.03937007874
144
1.0
145
0.0
146
1.0
147
0.625
148
0.0
 69
0
 70
0
 71
0
 72
0
 73
0
 74
0
 75
0
 76
0
 77
1
 78
8
 79
3
170
0
171
3
172
1
173
0
174
0
175
0
176
0
177
0
178
0
179
2
271
2
272
2
273
2
274
3
275
0
276
0
277
2
278
44
279
0
280
0
281
0
282
0
283
0
284
8
285
0
286
0
288
0
289
3
290
0
371
-2
372
-2
  0
ENDTAB
  0
TABLE
  2
BLOCK_RECORD
  5
9
330
0
100
AcDbSymbolTable
 70
2
  0
BLOCK_RECORD
  5
17
330
9
100
AcDbSymbolTableRecord
100
AcDbBlockTableRecord
  2
*Model_Space
340
1A
 70
0
280
1
281
0
  0
BLOCK_RECORD
  5
1B
330
9
100
AcDbSymbolTableRecord
100
AcDbBlockTableRecord
  2
*Paper_Space
340
1E
 70
0
280
1
281
0
  0
ENDTAB
  0
ENDSEC
  0
SECTION
  2
BLOCKS
  0
BLOCK
  5
18
330
17
100
AcDbEntity
  8
0
100
AcDbBlockBegin
  2
*Model_Space
 70
0
 10
0.0
 20
0.0
 30
0.0
  3
*Model_Space
  1

  0
ENDBLK
  5
19
330
17
100
AcDbEntity
  8
0
100
AcDbBlockEnd
  0
BLOCK
  5
1C
330
1B
100
AcDbEntity
  8
0
100
AcDbBlockBegin
  2
*Paper_Space
 70
0
 10
0.0
 20
0.0
 30
0.0
  3
*Paper_Space
  1

  0
ENDBLK
  5
1D
330
1B
100
AcDbEntity
  8
0
100
AcDbBlockEnd
  0
ENDSEC
  0
SECTION
  2
ENTITIES
  0
LINE
  5
2F
330
17
100
AcDbEntity
  8
0
100
AcDbLine
 10
38.105117766515306
 20
-5.375
 30
-22.0
 11
38.105117766515306
 21
-3.375
 31
-22.0
  0
CIRCLE
  5
30
330
17
100
AcDbEntity
  8
0
100
AcDbCircle
 10
-2.983724378680109e-16
 20
-5.375
 30
-5.167962219655829e-16
 40
44.0
  0
CIRCLE
  5
31
330
17
100
AcDbEntity
  8
0
100
AcDbCircle
 10
-1.8735013540549526e-16
 20
-3.375
 30
-3.244999533272264e-16
 40
44.0
  0
CIRCLE
  5
32
330
17
100
AcDbEntity
  8
0
100
AcDbCircle
 10
-2.983724378680109e-16
 20
-5.375
 30
-5.167962219655829e-16
 40
41.25
  0
CIRCLE
  5
33
330
17
100
AcDbEntity
  8
0
100
AcDbCircle
 10
-1.8735013540549526e-16
 20
-3.375
 30
-3.244999533272264e-16
 40
42.0
  0
LINE
  5
34
330
17
100
AcDbEntity
  8
0
100
AcDbLine
 10
35.723547906108095
 20
-8.375
 30
-20.625
 11
35.723547906108095
 21
-5.375
 31
-20.625
  0
CIRCLE
  5
35
330
17
100
AcDbEntity
  8
0
100
AcDbCircle
 10
-4.649058915617845e-16
 20
-8.375
 30
-8.0524062492311745e-16
 40
41.25
  0
LINE
  5
36
330
17
100
AcDbEntity
  8
0
100
AcDbLine
 10
36.373066958946424
 20
3.625
 30
-21.0
 11
36.373066958946424
 21
1.25
 31
-21.0
  0
CIRCLE
  5
37
330
17
100
AcDbEntity
  8
0
100
AcDbCircle
 10
2.0122792321330972e-16
 20
3.625
 30
3.4853698690702094e-16
 40
42.0
  0
SPLINE
  5
38
330
17
100
AcDbEntity
  8
0
100
AcDbSpline
 70
0
 71
6
 72
39
 73
32
 74
0
 40
0.0
 40
0.0
 40
0.0
 40
0.0
 40
0.0
 40
0.0
 40
0.0
 40
1.0
 40
1.0
 40
1.0
 40
1.0
 40
1.0
 40
2.1172695785179347
 40
2.1172695785179347
 40
2.1172695785179347
 40
2.1172695785179347
 40
2.1172695785179347
 40
3.3394940859852364
 40
3.3394940859852364
 40
3.3394940859852364
 40
3.3394940859852364
 40
3.3394940859852364
 40
4.561718593452376
 40
4.561718593452376
 40
4.561718593452376
 40
4.561718593452376
 40
4.561718593452376
 40
5.678988172942098
 40
5.678988172942098
 40
5.678988172942098
 40
5.678988172942098
 40
5.678988172942098
 40
6.679003847763683
 40
6.679003847763683
 40
6.679003847763683
 40
6.679003847763683
 40
6.679003847763683
 40
6.679003847763683
 40
6.679003847763683
 10
36.373066958946424
 20
-1.25
 30
-20.99999999999999
 10
36.42913381133775
 20
-1.2500000000000027
 30
-20.90288936303775
 10
36.48464699619658
 20
-1.2379288864545552
 30
-20.80602010021498
 10
36.538539038756625
 20
-1.2139834646269536
 30
-20.711248321707192
 10
36.58982470471205
 20
-1.1790187008898032
 30
-20.620392917029104
 10
36.6376830482521
 20
-1.1345127120594691
 30
-20.535050248563326
 10
36.73053889487157
 20
-1.0244550124447045
 30
-20.36854519737538
 10
36.77472455654396
 20
-0.9568314745951669
 30
-20.288719662615264
 10
36.81396087140384
 20
-0.8815367503583156
 30
-20.21738277320238
 10
36.84824255927075
 20
-0.8001970145212978
 30
-20.15473651745165
 10
36.87763435588367
 20
-0.7142534883724831
 30
-20.100814448027663
 10
36.92917591652323
 20
-0.5273621487926823
 30
-20.005977755550827
 10
36.95044142880295
 20
-0.4255626861227473
 30
-19.96665884683471
 10
36.96623899931807
 20
-0.3209382607512694
 30
-19.937358687277808
 10
36.97671581544285
 20
-0.2145399679259512
 30
-19.917896730444227
 10
36.98195428662859
 20
-0.1072701428658025
 30
-19.908165589569343
 10
36.98195428662859
 20
0.10727014286578829
 30
-19.908165589569343
 10
36.97671581544285
 20
0.2145399679259583
 30
-19.91789673044423
 10
36.96623899931807
 20
0.3209382607513156
 30
-19.9373586872778
 10
36.95044142880296
 20
0.42556268612267445
 30
-19.96665884683469
 10
36.92917591652321
 20
0.5273621487927613
 30
-20.005977755550862
 10
36.87763435586228
 20
0.714253488450078
 30
-20.10081444806703
 10
36.84824255927129
 20
0.8001970144842332
 30
-20.15473651745041
 10
36.81396087143402
 20
0.8815367502958242
 30
-20.21738277314688
 10
36.7747245565576
 20
0.9568314746013087
 30
-20.288719662591674
 10
36.730538894835
 20
1.0244550124880583
 30
-20.36854519744097
 10
36.63768236088155
 20
1.1345135267676891
 30
-20.535051481126192
 10
36.58982403175706
 20
1.179019107764752
 30
-20.620394107785984
 10
36.53853897547847
 20
1.2139832082103954
 30
-20.711248418122537
 10
36.484647699895746
 20
1.2379284635741445
 30
-20.806018855427638
 10
36.42913478649592
 20
1.2500000000000018
 30
-20.902887674014238
 10
36.373066958946424
 20
1.25
 30
-20.99999999999999
  0
LINE
  5
39
330
17
100
AcDbEntity
  8
0
100
AcDbLine
 10
36.373066958946424
 20
-1.25
 30
-21.0
 11
36.373066958946424
 21
-3.375
 31
-21.0
  0
SPLINE
  5
3A
330
17
100
AcDbEntity
  8
0
100
AcDbSpline
 70
0
 71
6
 72
24
 73
17
 74
0
 40
0.0
 40
0.0
 40
0.0
 40
0.0
 40
0.0
 40
0.0
 40
0.0
 40
0.22531487071193085
 40
0.22531487071193085
 40
0.22531487071193085
 40
0.22531487071193085
 40
0.22531487071193085
 40
0.5363777603762395
 40
0.5363777603762395
 40
0.5363777603762395
 40
0.5363777603762395
 40
0.5363777603762395
 40
1.0
 40
1.0
 40
1.0
 40
1.0
 40
1.0
 40
1.0
 40
1.0
 10
36.37306695894642
 20
-1.25
 30
-20.999999999999993
 10
36.33094455093156
 20
-1.2499999999999991
 30
-21.07295815081887
 10
36.28871324063185
 20
-1.243186678059426
 30
-21.145699600287074
 10
36.246865271417455
 20
-1.2296005659225893
 30
-21.21737305044041
 10
36.205900278747556
 20
-1.2095332280075448
 30
-21.287149309622798
 10
36.1662912625832
 20
-1.1835193686730685
 30
-21.354270826902432
 10
36.0762088310697
 20
-1.109268377161154
 30
-21.50622354385092
 10
36.02737263904044
 20
-1.056370625750108
 30
-21.588013343099895
 10
35.982404659029385
 20
-0.9951808834858102
 30
-21.66284481792504
 10
35.94163315618201
 20
-0.9271784700213441
 30
-21.73033033458633
 10
35.90526100451114
 20
-0.8537980518043016
 30
-21.790272923258357
 10
35.825821729837386
 20
-0.6611289146316395
 30
-21.920740272802064
 10
35.788045498134004
 20
-0.536553840564892
 30
-21.982322986854886
 10
35.75992844608778
 20
-0.4060064297485946
 30
-22.027944419617587
 10
35.7412786132743
 20
-0.2718362137027768
 30
-22.058135050214325
 10
35.731954286628586
 20
-0.135914268372904
 30
-22.073229099030442
 10
35.731954286628586
 20
0.0
 30
-22.073229099030442
  0
SPLINE
  5
3B
330
17
100
AcDbEntity
  8
0
100
AcDbSpline
 70
0
 71
6
 72
24
 73
17
 74
0
 40
0.0
 40
0.0
 40
0.0
 40
0.0
 40
0.0
 40
0.0
 40
0.0
 40
0.4636222368597169
 40
0.4636222368597169
 40
0.4636222368597169
 40
0.4636222368597169
 40
0.4636222368597169
 40
0.7746851247405899
 40
0.7746851247405899
 40
0.7746851247405899
 40
0.7746851247405899
 40
0.7746851247405899
 40
1.0
 40
1.0
 40
1.0
 40
1.0
 40
1.0
 40
1.0
 40
1.0
 10
35.731954286628586
 20
0.0
 30
-22.073229099030442
 10
35.731954286628586
 20
0.13591426837291642
 30
-22.073229099030442
 10
35.7412786132743
 20
0.27183621370279454
 30
-22.05813505021433
 10
35.7599284460878
 20
0.4060064297486452
 30
-22.02794441961756
 10
35.78804549813396
 20
0.5365538405647694
 30
-21.982322986854946
 10
35.82582172983743
 20
0.6611289146317443
 30
-21.920740272802007
 10
35.905261004518415
 20
0.8537980518219417
 30
-21.790272923246416
 10
35.941633156181
 20
0.9271784700122758
 30
-21.730330334587876
 10
35.982404659020155
 20
0.9951808834724396
 30
-21.662844817940254
 10
36.027372639037225
 20
1.0563706257523648
 30
-21.58801334310556
 10
36.07620883108003
 20
1.1092683771696716
 30
-21.506223543833485
 10
36.16629126355644
 20
1.1835193694752526
 30
-21.35427082526078
 10
36.205900277082876
 20
1.2095332272656396
 30
-21.287149312464976
 10
36.2468652714722
 20
1.2296005655497186
 30
-21.217373050325094
 10
36.28871324232269
 20
1.2431866786250474
 30
-21.145699597389882
 10
36.33094454984124
 20
1.2499999999999982
 30
-21.07295815270736
 10
36.37306695894642
 20
1.25
 30
-20.999999999999993
  0
SPLINE
  5
3C
330
17
100
AcDbEntity
  8
0
100
AcDbSpline
 70
0
 71
7
 72
76
 73
68
 74
0
 40
0.0
 40
0.0
 40
0.0
 40
0.0
 40
0.0
 40
0.0
 40
0.0
 40
0.0
 40
0.35674291412606
 40
0.35674291412606
 40
0.35674291412606
 40
0.35674291412606
 40
0.35674291412606
 40
0.35674291412606
 40
0.5960961467092348
 40
0.5960961467092348
 40
0.5960961467092348
 40
0.5960961467092348
 40
0.5960961467092348
 40
0.5960961467092348
 40
1.0
 40
1.0
 40
1.0
 40
1.0
 40
1.0
 40
1.0
 40
1.258843900424261
 40
1.258843900424261
 40
1.258843900424261
 40
1.258843900424261
 40
1.258843900424261
 40
1.258843900424261
 40
1.5420032779411605
 40
1.5420032779411605
 40
1.5420032779411605
 40
1.5420032779411605
 40
1.5420032779411605
 40
1.5420032779411605
 40
1.825162655511046
 40
1.825162655511046
 40
1.825162655511046
 40
1.825162655511046
 40
1.825162655511046
 40
1.825162655511046
 40
2.084006556032512
 40
2.084006556032512
 40
2.084006556032512
 40
2.084006556032512
 40
2.084006556032512
 40
2.084006556032512
 40
2.315682446538404
 40
2.315682446538404
 40
2.315682446538404
 40
2.315682446538404
 40
2.315682446538404
 40
2.315682446538404
 40
2.4897361113814154
 40
2.4897361113814154
 40
2.4897361113814154
 40
2.4897361113814154
 40
2.4897361113814154
 40
2.4897361113814154
 40
2.730029325788773
 40
2.730029325788773
 40
2.730029325788773
 40
2.730029325788773
 40
2.730029325788773
 40
2.730029325788773
 40
3.088174461896755
 40
3.088174461896755
 40
3.088174461896755
 40
3.088174461896755
 40
3.088174461896755
 40
3.088174461896755
 40
3.088174461896755
 40
3.088174461896755
 10
1.2499999999999996
 20
5.329070518200751e-15
 30
-41.98139468859986
 10
1.2499999999999996
 20
0.11649794431959748
 30
-41.98139468859986
 10
1.2373328621117028
 20
0.23300137218003414
 30
-41.981771888128634
 10
1.211996995836532
 20
0.34850490858615224
 30
-41.98252614719409
 10
1.1738375893169457
 20
0.46195532009839546
 30
-41.98363840947897
 10
1.122593017271011
 20
0.5721467188696412
 30
-41.985067709258544
 10
1.057951329741179
 20
0.6776011733054759
 30
-41.986746463844185
 10
0.9270590356712165
 20
0.8427461480344167
 30
-41.989800253976206
 10
0.8682294901134777
 20
0.9062126362442005
 30
-41.99109598747613
 10
0.8031558538725743
 20
0.9660369919937164
 30
-41.992427619125166
 10
0.7319616232538766
 20
1.0214050587376704
 30
-41.993753651062164
 10
0.654867327145364
 20
1.0714842690130073
 30
-41.99502617522377
 10
0.5721976514900216
 20
1.1154198860693079
 30
-41.99619387836967
 10
0.3362283702651889
 20
1.2146122382540714
 30
-41.998915540767214
 10
0.17337478443932094
 20
1.2569165522747952
 30
-42.00018370914842
 10
0.0016789420189762053
 20
1.273382358337951
 30
-42.00072800710047
 10
-0.17128847738412792
 20
1.2615711057863894
 30
-42.000348466984974
 10
-0.33765543612690907
 20
1.2224206499437003
 30
-41.99912259497624
 10
-0.49045853703335185
 20
1.1602093045915094
 30
-41.99735177172509
 10
-0.7112216014017467
 20
1.03275168995129
 30
-41.9940662432784
 10
-0.7907517053817021
 20
0.9761524854260983
 30
-41.99267604641867
 10
-0.8633286207417581
 20
0.9138059178553046
 30
-41.99124048628525
 10
-0.9288108244823516
 20
0.8466768635194395
 30
-41.98981629432023
 10
-0.987148529000518
 20
0.7756417213316507
 30
-41.9884518306705
 10
-1.0383627328024656
 20
0.7015029901000549
 30
-41.98718560506916
 10
-1.1308499601592996
 20
0.5413104132668511
 30
-41.98480099474794
 10
-1.1708200872325532
 20
0.4546482468703399
 30
-41.98370551909488
 10
-1.2026003344989111
 20
0.36577730018209387
 30
-41.982796677584396
 10
-1.2263288022871994
 20
0.2753389924100471
 30
-41.982099489629036
 10
-1.2421095351471014
 20
0.18389144649820643
 30
-41.981629632395176
 10
-1.2499999999999933
 20
0.09194583672498169
 30
-41.98139468859987
 10
-1.2499999999999933
 20
-0.09194583674216972
 30
-41.98139468859987
 10
-1.2421095351440923
 20
-0.18389144648009115
 30
-41.98162963239527
 10
-1.2263288022944718
 20
-0.2753389923975522
 30
-41.98209948962884
 10
-1.2026003344988472
 20
-0.36577730019622834
 30
-41.98279667758438
 10
-1.1708200872203922
 20
-0.4546482468855553
 30
-41.98370551909521
 10
-1.1308499601685011
 20
-0.5413104132508977
 30
-41.984800994747715
 10
-1.03836273278575
 20
-0.7015029901290015
 30
-41.987185605069584
 10
-0.9871485289953914
 20
-0.7756417213296967
 30
-41.9884518306706
 10
-0.9288108244983033
 20
-0.8466768634969748
 30
-41.989816294319795
 10
-0.863328620762545
 20
-0.9138059178409188
 30
-41.991240486284845
 10
-0.7907517053808601
 20
-0.9761524854333441
 30
-41.992676046418836
 10
-0.7112216013737229
 20
-1.0327516899674567
 30
-41.99406624327882
 10
-0.5478281360354136
 20
-1.1270869511643538
 30
-41.99649796291411
 10
-0.465081999941376
 20
-1.166302662998099
 30
-41.997564231038204
 10
-0.377513863774507
 20
-1.1989983507603368
 30
-41.99849303134702
 10
-0.2860800508473642
 20
-1.2242455040940712
 30
-41.99923318216961
 10
-0.1918833855632305
 20
-1.2413775898200372
 30
-41.99974370643346
 10
-0.09611564325100067
 20
-1.2499999999999911
 30
-42.00000000000001
 10
0.07220984419246387
 20
-1.2499999999999911
 30
-42.0
 10
0.14432452731479326
 20
-1.245133341877649
 30
-41.99985524085374
 10
0.21578213464520554
 20
-1.2354231854393305
 30
-41.99956609183187
 10
0.286027361477863
 20
-1.2210002777102291
 30
-41.99914040292201
 10
0.35452863792739775
 20
-1.2021006964664256
 30
-41.9985921614909
 10
0.42079525373343385
 20
-1.1790635937669034
 30
-41.99794014894664
 10
0.5721976514944198
 20
-1.1154198860674382
 30
-41.996193878369624
 10
0.6548673271456376
 20
-1.0714842690119708
 30
-41.99502617522374
 10
0.7319616232505868
 20
-1.0214050587393597
 30
-41.993753651062214
 10
0.8031558538698031
 20
-0.9660369919966119
 30
-41.99242761912525
 10
0.8682294901141776
 20
-0.9062126362445246
 30
-41.991095987476115
 10
0.9270590356742363
 20
-0.8427461480305913
 30
-41.989800253976135
 10
1.0579515988621675
 20
-0.6776008337592758
 30
-41.98674645756544
 10
1.1225929049657455
 20
-0.5721466959723083
 30
-41.98506771087385
 10
1.173837196173952
 20
-0.4619559568398133
 30
-41.9836384202117
 10
1.2119966313644315
 20
-0.3485060479614326
 30
-41.98252615839037
 10
1.237332707884256
 20
-0.23300253672524818
 30
-41.98177189260944
 10
1.2499999999999996
 20
-0.1164986539317372
 30
-41.98139468859986
 10
1.2499999999999996
 20
5.329070518200751e-15
 30
-41.98139468859986
  0
SPLINE
  5
3D
330
17
100
AcDbEntity
  8
0
100
AcDbSpline
 70
0
 71
7
 72
76
 73
68
 74
0
 40
0.0
 40
0.0
 40
0.0
 40
0.0
 40
0.0
 40
0.0
 40
0.0
 40
0.0
 40
0.35665861653440145
 40
0.35665861653440145
 40
0.35665861653440145
 40
0.35665861653440145
 40
0.35665861653440145
 40
0.35665861653440145
 40
0.5959544683486252
 40
0.5959544683486252
 40
0.5959544683486252
 40
0.5959544683486252
 40
0.5959544683486252
 40
0.5959544683486252
 40
0.7692857049029912
 40
0.7692857049029912
 40
0.7692857049029912
 40
0.7692857049029912
 40
0.7692857049029912
 40
0.7692857049029912
 40
1.0
 40
1.0
 40
1.0
 40
1.0
 40
1.0
 40
1.0
 40
1.2577695411425227
 40
1.2577695411425227
 40
1.2577695411425227
 40
1.2577695411425227
 40
1.2577695411425227
 40
1.2577695411425227
 40
1.539753635029004
 40
1.539753635029004
 40
1.539753635029004
 40
1.539753635029004
 40
1.539753635029004
 40
1.539753635029004
 40
1.821737728915485
 40
1.821737728915485
 40
1.821737728915485
 40
1.821737728915485
 40
1.821737728915485
 40
1.821737728915485
 40
2.079507269639619
 40
2.079507269639619
 40
2.079507269639619
 40
2.079507269639619
 40
2.079507269639619
 40
2.079507269639619
 40
2.4817346760348316
 40
2.4817346760348316
 40
2.4817346760348316
 40
2.4817346760348316
 40
2.4817346760348316
 40
2.4817346760348316
 40
2.720094446980033
 40
2.720094446980033
 40
2.720094446980033
 40
2.720094446980033
 40
2.720094446980033
 40
2.720094446980033
 40
3.075356660820683
 40
3.075356660820683
 40
3.075356660820683
 40
3.075356660820683
 40
3.075356660820683
 40
3.075356660820683
 40
3.075356660820683
 40
3.075356660820683
 10
1.2500000000000138
 20
8.881784197001252e-15
 30
41.981394688599856
 10
1.2500000000000138
 20
-0.11649865393176562
 30
41.981394688599856
 10
1.237332707884263
 20
-0.233002536725202
 30
41.981771892609444
 10
1.211996631364403
 20
-0.3485060479614859
 30
41.98252615839036
 10
1.1738371961739484
 20
-0.46195595683986035
 30
41.98363842021168
 10
1.1225929049657846
 20
-0.5721466959722337
 30
41.98506771087386
 10
1.0579515988621853
 20
-0.677600833759259
 30
41.986746457565445
 10
0.9270590356711881
 20
-0.8427461480344327
 30
41.989800253976206
 10
0.8682294901135275
 20
-0.9062126362441534
 30
41.99109598747612
 10
0.8031558538726169
 20
-0.9660369919936702
 30
41.99242761912517
 10
0.7319616232538659
 20
-1.0214050587376677
 30
41.99375365106216
 10
0.6548673271453356
 20
-1.071484269013018
 30
41.99502617522376
 10
0.5721976514900393
 20
-1.1154198860692794
 30
41.996193878369674
 10
0.4207952537383508
 20
-1.1790635937648366
 30
41.997940148946604
 10
0.3545286379219621
 20
-1.2021006964673324
 30
41.998592161490905
 10
0.286027361473852
 20
-1.2210002777118296
 30
41.99914040292204
 10
0.21578213464975302
 20
-1.2354231854392426
 30
41.999566091831866
 10
0.14432452732012233
 20
-1.2451333418764339
 30
41.99985524085371
 10
0.07220984418684348
 20
-1.2499999999999902
 30
42.000000000000014
 10
-0.09611564327242708
 20
-1.2499999999999902
 30
42.000000000000014
 10
-0.19188338554358045
 20
-1.2413775898259143
 30
41.99974370643359
 10
-0.2860800508299275
 20
-1.2242455040945401
 30
41.999233182169604
 10
-0.37751386378873564
 20
-1.1989983507526665
 30
41.998493031346825
 10
-0.46508199996165844
 20
-1.1663026629936954
 30
41.9975642310381
 10
-0.5478281360183463
 20
-1.1270869511742045
 30
41.99649796291437
 10
-0.7112216013069035
 20
-1.0327516900060294
 30
41.9940662432798
 10
-0.7907517053787925
 20
-0.9761524854507693
 30
41.99267604641914
 10
-0.8633286208121302
 20
-0.91380591780658
 30
41.991240486283935
 10
-0.9288108245363884
 20
-0.8466768634433697
 30
41.9898162943188
 10
-0.9871485289831345
 20
-0.7756417213251838
 30
41.98845183067079
 10
-1.0383627327458425
 20
-0.7015029901980974
 30
41.98718560507062
 10
-1.1308499601593138
 20
-0.5413104132668112
 30
41.98480099474795
 10
-1.1708200872325603
 20
-0.45464824687030525
 30
41.98370551909488
 10
-1.2026003344988863
 20
-0.36577730018211163
 30
41.98279667758437
 10
-1.2263288022871852
 20
-0.2753389924100311
 30
41.98209948962903
 10
-1.2421095351471156
 20
-0.18389144649813183
 30
41.981629632395205
 10
-1.2499999999999898
 20
-0.09194583672497991
 30
41.98139468859986
 10
-1.2499999999999898
 20
0.09194583672499945
 30
41.98139468859986
 10
-1.242109535147112
 20
0.1838914464981567
 30
41.981629632395226
 10
-1.2263288022871852
 20
0.2753389924100773
 30
41.98209948962901
 10
-1.202600334498897
 20
0.3657773001821134
 30
41.98279667758435
 10
-1.1708200872325674
 20
0.4546482468702795
 30
41.983705519094926
 10
-1.130849960159264
 20
0.541310413266908
 30
41.984800994747935
 10
-1.0383627328175753
 20
0.7015029900738945
 30
41.98718560506876
 10
-0.9871485290051614
 20
0.7756417213333577
 30
41.98845183067042
 10
-0.9288108244679489
 20
0.8466768635397237
 30
41.989816294320626
 10
-0.8633286207229784
 20
0.9138059178683076
 30
41.99124048628561
 10
-0.7907517053824447
 20
0.9761524854195134
 30
41.99267604641855
 10
-0.711221601427074
 20
1.0327516899366689
 30
41.99406624327802
 10
-0.4904585370333696
 20
1.1602093045915005
 30
41.99735177172509
 10
-0.3376554361269162
 20
1.2224206499437322
 30
41.999122594976235
 10
-0.17128847738407818
 20
1.261571105786345
 30
42.00034846698496
 10
0.0016789420190010743
 20
1.2733823583379724
 30
42.00072800710053
 10
0.17337478443927476
 20
1.2569165522748094
 30
42.00018370914838
 10
0.3362283702652067
 20
1.2146122382540625
 30
41.998915540767236
 10
0.5721976514900358
 20
1.115419886069299
 30
41.99619387836968
 10
0.6548673271453604
 20
1.071484269013009
 30
41.99502617522376
 10
0.731961623253873
 20
1.02140505873769
 30
41.993753651062164
 10
0.8031558538725672
 20
0.9660369919937253
 30
41.992427619125166
 10
0.8682294901134919
 20
0.906212636244188
 30
41.991095987476115
 10
0.9270590356712236
 20
0.8427461480344096
 30
41.98980025397621
 10
1.0579513297411718
 20
0.6776011733054759
 30
41.986746463844185
 10
1.1225930172710643
 20
0.5721467188696057
 30
41.985067709258544
 10
1.1738375893169244
 20
0.4619553200984523
 30
41.98363840947898
 10
1.2119969958364964
 20
0.3485049085861842
 30
41.9825261471941
 10
1.2373328621117348
 20
0.23300137217996486
 30
41.98177188812863
 10
1.2500000000000138
 20
0.11649794431962057
 30
41.981394688599856
 10
1.2500000000000138
 20
8.881784197001252e-15
 30
41.981394688599856
  0
SPLINE
  5
3E
330
17
100
AcDbEntity
  8
0
100
AcDbSpline
 70
0
 71
7
 72
76
 73
68
 74
0
 40
0.0
 40
0.0
 40
0.0
 40
0.0
 40
0.0
 40
0.0
 40
0.0
 40
0.0
 40
0.3567429142014545
 40
0.3567429142014545
 40
0.3567429142014545
 40
0.3567429142014545
 40
0.3567429142014545
 40
0.3567429142014545
 40
0.5960961467842606
 40
0.5960961467842606
 40
0.5960961467842606
 40
0.5960961467842606
 40
0.5960961467842606
 40
0.5960961467842606
 40
1.0
 40
1.0
 40
1.0
 40
1.0
 40
1.0
 40
1.0
 40
1.258843900091135
 40
1.258843900091135
 40
1.258843900091135
 40
1.258843900091135
 40
1.258843900091135
 40
1.258843900091135
 40
1.5420032768805267
 40
1.5420032768805267
 40
1.5420032768805267
 40
1.5420032768805267
 40
1.5420032768805267
 40
1.5420032768805267
 40
1.825162653669975
 40
1.825162653669975
 40
1.825162653669975
 40
1.825162653669975
 40
1.825162653669975
 40
1.825162653669975
 40
2.0840065534294
 40
2.0840065534294
 40
2.0840065534294
 40
2.0840065534294
 40
2.0840065534294
 40
2.0840065534294
 40
2.315682443192986
 40
2.315682443192986
 40
2.315682443192986
 40
2.315682443192986
 40
2.315682443192986
 40
2.315682443192986
 40
2.4897361029323415
 40
2.4897361029323415
 40
2.4897361029323415
 40
2.4897361029323415
 40
2.4897361029323415
 40
2.4897361029323415
 40
2.7300293164842815
 40
2.7300293164842815
 40
2.7300293164842815
 40
2.7300293164842815
 40
2.7300293164842815
 40
2.7300293164842815
 40
3.088174451266381
 40
3.088174451266381
 40
3.088174451266381
 40
3.088174451266381
 40
3.088174451266381
 40
3.088174451266381
 40
3.088174451266381
 40
3.088174451266381
 10
-35.73195428662857
 20
5.329070518200751e-15
 30
-22.073229099030492
 10
-35.73195428662857
 20
0.11649794431961347
 30
-22.073229099030492
 10
-35.73861451994696
 20
0.23300137218001282
 30
-22.062447635590388
 10
-35.75193566059626
 20
0.34850490858615757
 30
-22.04088326130192
 10
-35.77197861125042
 20
0.46195532009840434
 30
-22.008392377005045
 10
-35.798838707192104
 20
0.5721467188696252
 30
-21.964727925696998
 10
-35.83261339507493
 20
0.6776011733054883
 30
-21.90958595944548
 10
-35.900704201936236
 20
0.842746148020284
 30
-21.79775680269686
 10
-35.93124111284706
 20
0.9062126362455203
 30
-21.747456788493317
 10
-35.964931157810796
 20
0.9660369920045397
 30
-21.691767182205623
 10
-36.00167665046469
 20
1.0214050587439587
 30
-21.630774185853795
 10
-36.041325836762894
 20
1.0714842690092041
 30
-21.564644829029074
 10
-36.08367193517138
 20
1.1154198860624884
 30
-21.49363464137495
 10
-36.20401360456892
 20
1.214612238254107
 30
-21.290640080506243
 10
-36.286538663516126
 20
1.256916552274749
 30
-21.150238822274538
 10
-36.37285796058012
 20
1.2733823583379404
 30
-21.001818009989808
 10
-36.459012978899835
 20
1.2615711057864658
 30
-20.851834060702615
 10
-36.54113482196992
 20
1.222420649943631
 30
-20.70714311207614
 10
-36.616002794502
 20
1.1602093045915272
 30
-20.57392633328874
 10
-36.72353897554028
 20
1.0327516900060978
 30
-20.38109714718796
 10
-36.76210008177869
 20
0.9761524854507453
 30
-20.31152695826564
 10
-36.79714530794958
 20
0.913805917806604
 30
-20.247955725704458
 10
-36.82865302339001
 20
0.8466768634434008
 30
-20.19053437780093
 10
-36.85664021543171
 20
0.7756417213251758
 30
-20.139330211927565
 10
-36.88115073377635
 20
0.7015029901981791
 30
-20.094344297634407
 10
-36.92532921436554
 20
0.5413104132668227
 30
-20.01305570400739
 10
-36.94436556815739
 20
0.4546482468703701
 30
-19.97789282074295
 10
-36.959468611954456
 20
0.3657773001821596
 30
-19.94991589851651
 10
-36.97072906336806
 20
0.2753389924100116
 30
-19.92901784864128
 10
-36.97821252149735
 20
0.18389144649810873
 30
-19.91511640447729
 10
-36.98195428662858
 20
0.09194583672505097
 30
-19.908165589569396
 10
-36.98195428662858
 20
-0.09194583672505097
 30
-19.908165589569396
 10
-36.978212521497355
 20
-0.18389144649804834
 30
-19.915116404477285
 10
-36.97072906336807
 20
-0.27533899241000803
 30
-19.929017848641287
 10
-36.959468611954456
 20
-0.3657773001821649
 30
-19.949915898516522
 10
-36.94436556815739
 20
-0.454648246870323
 30
-19.977892820742937
 10
-36.92532921436555
 20
-0.5413104132668058
 30
-20.013055704007396
 10
-36.881150733803395
 20
-0.7015029901000904
 30
-20.094344297584644
 10
-36.85664021544014
 20
-0.7756417213315823
 30
-20.139330211912323
 10
-36.82865302336427
 20
-0.8466768635194155
 30
-20.190534377848444
 10
-36.79714530791554
 20
-0.913805917855302
 30
-20.247955725766104
 10
-36.76210008177971
 20
-0.9761524854260495
 30
-20.311526958262895
 10
-36.72353897558651
 20
-1.0327516899512865
 30
-20.38109714710506
 10
-36.643948173880325
 20
-1.1270869511672394
 30
-20.523815898746882
 10
-36.60349852112138
 20
-1.1663026629968076
 30
-20.596009288721845
 10
-36.56051881769953
 20
-1.1989983507580888
 30
-20.67230991936033
 10
-36.51544290064637
 20
-1.224245504094207
 30
-20.751863999539474
 10
-36.46878669498575
 20
-1.2413775898217576
 30
-20.83369596675982
 10
-36.421124780575056
 20
-1.2499999999999902
 30
-20.916761411238124
 10
-36.336962037790826
 20
-1.2499999999999902
 30
-21.062535557844754
 10
-36.3007793292889
 20
-1.245133341471007
 30
-21.12491632901046
 10
-36.26480011536647
 20
-1.2354231854098003
 30
-21.186655857517565
 10
-36.229308845987504
 20
-1.2210002782447162
 30
-21.247277161518582
 10
-36.19458341698632
 20
-1.2021006967691257
 30
-21.30632688598841
 10
-36.16088544789989
 20
-1.1790635930748534
 30
-21.363389455414655
 10
-36.08367193518295
 20
-1.1154198860719982
 30
-21.493634641355463
 10
-36.04132583676376
 20
-1.0714842690144737
 30
-21.56464482902786
 10
-36.00167665045597
 20
-1.0214050587351906
 30
-21.630774185868376
 10
-35.964931157803306
 20
-0.96603699198943
 30
-21.691767182217895
 10
-35.93124111284885
 20
-0.9062126362436249
 30
-21.74745678849031
 10
-35.90070420194437
 20
-0.842746148039998
 30
-21.7977568026835
 10
-35.8326132550769
 20
-0.6776008337593069
 30
-21.909586189371716
 10
-35.79883876474362
 20
-0.5721466959722337
 30
-21.96472782924547
 10
-35.771978817116704
 20
-0.4619559568398195
 30
-22.008392041899594
 10
-35.751935852528575
 20
-0.3485060479614539
 30
-22.04088295125794
 10
-35.73861460094117
 20
-0.2330025367252091
 30
-22.06244750426589
 10
-35.73195428662857
 20
-0.11649865393179581
 30
-22.073229099030492
 10
-35.73195428662857
 20
5.329070518200751e-15
 30
-22.073229099030492
  0
SPLINE
  5
3F
330
17
100
AcDbEntity
  8
0
100
AcDbSpline
 70
0
 71
6
 72
79
 73
72
 74
0
 40
0.0
 40
0.0
 40
0.0
 40
0.0
 40
0.0
 40
0.0
 40
0.0
 40
0.35679635927754877
 40
0.35679635927754877
 40
0.35679635927754877
 40
0.35679635927754877
 40
0.35679635927754877
 40
0.5961854503866777
 40
0.5961854503866777
 40
0.5961854503866777
 40
0.5961854503866777
 40
0.5961854503866777
 40
0.7695842237684644
 40
0.7695842237684644
 40
0.7695842237684644
 40
0.7695842237684644
 40
0.7695842237684644
 40
0.8734754177553246
 40
0.8734754177553246
 40
0.8734754177553246
 40
0.8734754177553246
 40
0.8734754177553246
 40
1.0
 40
1.0
 40
1.0
 40
1.0
 40
1.0
 40
1.256945710376005
 40
1.256945710376005
 40
1.256945710376005
 40
1.256945710376005
 40
1.256945710376005
 40
1.5380285842100552
 40
1.5380285842100552
 40
1.5380285842100552
 40
1.5380285842100552
 40
1.5380285842100552
 40
1.8191114580441843
 40
1.8191114580441843
 40
1.8191114580441843
 40
1.8191114580441843
 40
1.8191114580441843
 40
2.0760571687496725
 40
2.0760571687496725
 40
2.0760571687496725
 40
2.0760571687496725
 40
2.0760571687496725
 40
2.2071417620363345
 40
2.2071417620363345
 40
2.2071417620363345
 40
2.2071417620363345
 40
2.2071417620363345
 40
2.3042157887255144
 40
2.3042157887255144
 40
2.3042157887255144
 40
2.3042157887255144
 40
2.3042157887255144
 40
2.4798568524414
 40
2.4798568524414
 40
2.4798568524414
 40
2.4798568524414
 40
2.4798568524414
 40
2.7192475506230878
 40
2.7192475506230878
 40
2.7192475506230878
 40
2.7192475506230878
 40
2.7192475506230878
 40
3.0760463051765923
 40
3.0760463051765923
 40
3.0760463051765923
 40
3.0760463051765923
 40
3.0760463051765923
 40
3.0760463051765923
 40
3.0760463051765923
 10
-36.98195428662857
 20
0.0
 30
19.90816558956939
 10
-36.98195428662857
 20
0.13591426837286136
 30
19.90816558956939
 10
-36.97354462023066
 20
0.27183621370285493
 30
19.923787717725826
 10
-36.95672368358439
 20
0.4060064297486292
 30
19.955034262017016
 10
-36.931272889877995
 20
0.5365538405647925
 30
20.002195059749877
 10
-36.89682881092589
 20
0.6611289146317194
 30
20.06570159309074
 10
-36.82356040918744
 20
0.8537980518202666
 30
20.199731697799322
 10
-36.78983468047115
 20
0.9271784700131569
 30
20.261202199460033
 10
-36.75177626008556
 20
0.9951808834737026
 30
20.33025411499434
 10
-36.709454291885194
 20
1.0563706257521446
 30
20.406613265462386
 10
-36.66304034396775
 20
1.109268377168867
 30
20.489801548029387
 10
-36.576486645745305
 20
1.183519369476656
 30
20.643791582279587
 10
-36.53816221729144
 20
1.2095332272643358
 30
20.71165475060231
 10
-36.49821669888884
 20
1.2296005655490685
 30
20.782019607484482
 10
-36.45706965329243
 20
1.2431866786260404
 30
20.854097739810364
 10
-36.41518936805352
 20
1.2499999999999982
 30
20.927041847289317
 10
-36.347829482980536
 20
1.25
 30
21.043712590627717
 10
-36.32253447412022
 20
1.2475541451094099
 30
21.087379258565907
 10
-36.29729654555594
 20
1.2426646418213192
 30
21.130801551631507
 10
-36.27223083371927
 20
1.2353712191003936
 30
21.173784681303907
 10
-36.24745095413136
 20
1.2257509127679427
 30
21.216140561692157
 10
-36.193370744316205
 20
1.1995068754798321
 30
21.3082931419116
 10
-36.164275408913525
 20
1.1818206578294284
 30
21.357677218280465
 10
-36.135921412873735
 20
1.1610439090192486
 30
21.405620534810744
 10
-36.10843880382611
 20
1.13739590261401
 30
21.45192352654931
 10
-36.0819444808449
 20
1.1111297630008732
 30
21.49641217884733
 10
-36.00494702653296
 20
1.0244550124881044
 30
21.62530717889895
 10
-35.957908916343996
 20
0.9568314746012341
 30
21.703485851858524
 10
-35.91574751529608
 20
0.881536750295858
 30
21.773133942014688
 10
-35.87863511032964
 20
0.8001970144842137
 30
21.834145882414646
 10
-35.84663312671448
 20
0.7142534884500975
 30
21.886560959616965
 10
-35.790272922120636
 20
0.5273621488113243
 30
21.978615606748985
 10
-35.76685450444651
 20
0.42556268609389747
 30
22.01669153499317
 10
-35.74937860721233
 20
0.320938260748326
 30
22.04502271212396
 10
-35.737762466238884
 20
0.2145399679590092
 30
22.063826879472863
 10
-35.73195428662857
 20
0.10727014284585934
 30
22.073229099030485
 10
-35.73195428662857
 20
-0.10727014284588954
 30
22.073229099030485
 10
-35.7377624662389
 20
-0.2145399679590394
 30
22.06382687947285
 10
-35.74937860721232
 20
-0.3209382607482354
 30
22.045022712123973
 10
-35.76685450444651
 20
-0.42556268609393655
 30
22.016691534993168
 10
-35.790272922120636
 20
-0.5273621488113047
 30
21.97861560674899
 10
-35.84663312674899
 20
-0.7142534885645171
 30
21.886560959560608
 10
-35.87863511032842
 20
-0.8001970144294841
 30
21.834145882416294
 10
-35.915747515247496
 20
-0.8815367502037583
 30
21.773133942094113
 10
-35.95790891632394
 20
-0.9568314746102944
 30
21.703485851893323
 10
-36.00494702658971
 20
-1.0244550125519902
 30
21.62530717880394
 10
-36.082860090801084
 20
-1.1121604498622455
 30
21.494879432779253
 10
-36.11035237558009
 20
-1.1392888730981854
 30
21.44871014457582
 10
-36.13890262637929
 20
-1.1635958957210768
 30
21.400597183846887
 10
-36.16837870066852
 20
-1.1847997948482094
 30
21.350737712352128
 10
-36.19863336530611
 20
-1.2026591314871524
 30
21.29935837854795
 10
-36.252371462100214
 20
-1.2275741563812117
 30
21.207725151670125
 10
-36.27556477236582
 20
-1.2362259061098912
 30
21.16806097524076
 10
-36.298997122303135
 20
-1.2428393767598918
 30
21.127866604813057
 10
-36.322575482557404
 20
-1.2473535245448177
 30
21.08729628918233
 10
-36.346205717584
 20
-1.2497359133727164
 30
21.046509315560307
 10
-36.4124736130919
 20
-1.2504296882371513
 30
20.931771249187282
 10
-36.454933801593754
 20
-1.2438848287628543
 30
20.857838737424323
 10
-36.49666213075064
 20
-1.2303784460246616
 30
20.784757842773605
 10
-36.5371692368728
 20
-1.2102065183392599
 30
20.713413055569568
 10
-36.576016727702466
 20
-1.1839224935684136
 30
20.64462762622683
 10
-36.66304034397043
 20
-1.1092683771665683
 30
20.48980154802462
 10
-36.70945429188428
 20
-1.0563706257515735
 30
20.406613265463978
 10
-36.751776260083346
 20
-0.9951808834771736
 30
20.33025411499833
 10
-36.78983468047088
 20
-0.9271784700156793
 30
20.26120219946059
 10
-36.823560409189255
 20
-0.8537980518154704
 30
20.199731697795983
 10
-36.896828810925896
 20
-0.6611289146316679
 30
20.0657015930907
 10
-36.931272889878
 20
-0.53655384056482
 30
20.002195059749916
 10
-36.95672368358438
 20
-0.4060064297485848
 30
19.955034262016966
 10
-36.97354462023067
 20
-0.2718362137028816
 30
19.923787717725833
 10
-36.98195428662857
 20
-0.13591426837283294
 30
19.90816558956939
 10
-36.98195428662857
 20
0.0
 30
19.90816558956939
  0
SPLINE
  5
40
330
17
100
AcDbEntity
  8
0
100
AcDbSpline
 70
0
 71
7
 72
76
 73
68
 74
0
 40
0.0
 40
0.0
 40
0.0
 40
0.0
 40
0.0
 40
0.0
 40
0.0
 40
0.0
 40
0.3566586181436632
 40
0.3566586181436632
 40
0.3566586181436632
 40
0.3566586181436632
 40
0.3566586181436632
 40
0.3566586181436632
 40
0.5959544710263467
 40
0.5959544710263467
 40
0.5959544710263467
 40
0.5959544710263467
 40
0.5959544710263467
 40
0.5959544710263467
 40
0.7692857038741299
 40
0.7692857038741299
 40
0.7692857038741299
 40
0.7692857038741299
 40
0.7692857038741299
 40
0.7692857038741299
 40
1.0
 40
1.0
 40
1.0
 40
1.0
 40
1.0
 40
1.0
 40
1.2577695425085142
 40
1.2577695425085142
 40
1.2577695425085142
 40
1.2577695425085142
 40
1.2577695425085142
 40
1.2577695425085142
 40
1.5397536381765278
 40
1.5397536381765278
 40
1.5397536381765278
 40
1.5397536381765278
 40
1.5397536381765278
 40
1.5397536381765278
 40
1.821737733844616
 40
1.821737733844616
 40
1.821737733844616
 40
1.821737733844616
 40
1.821737733844616
 40
1.821737733844616
 40
2.0795072762362663
 40
2.0795072762362663
 40
2.0795072762362663
 40
2.0795072762362663
 40
2.0795072762362663
 40
2.0795072762362663
 40
2.4817346855491587
 40
2.4817346855491587
 40
2.4817346855491587
 40
2.4817346855491587
 40
2.4817346855491587
 40
2.4817346855491587
 40
2.720094458135479
 40
2.720094458135479
 40
2.720094458135479
 40
2.720094458135479
 40
2.720094458135479
 40
2.720094458135479
 40
3.0753566744220793
 40
3.0753566744220793
 40
3.0753566744220793
 40
3.0753566744220793
 40
3.0753566744220793
 40
3.0753566744220793
 40
3.0753566744220793
 40
3.0753566744220793
 10
36.981954286628564
 20
8.881784197001252e-15
 30
19.90816558956937
 10
36.981954286628564
 20
-0.11649865393173542
 30
19.90816558956937
 10
36.97594730882541
 20
-0.2330025367252233
 30
19.919324388343586
 10
36.963932483893004
 20
-0.34850604796146456
 30
19.941643207132472
 10
36.94581601329067
 20
-0.4619559568398435
 30
19.97524637831211
 10
36.92143166970938
 20
-0.5721466959722745
 30
20.02033988162841
 10
36.89056485393906
 20
-0.677600833759259
 30
20.077160268193737
 10
36.82776323761446
 20
-0.8427461480313108
 30
20.1920434512868
 10
36.7994706029621
 20
-0.9062126362444767
 30
20.243639198984475
 10
36.768087011676926
 20
-0.9660369919960399
 30
20.300660436912707
 10
36.733638273711
 20
-1.0214050587390382
 30
20.3629794652003
 10
36.696193163908944
 20
-1.071484269012207
 30
20.430381346195443
 10
36.65586958667145
 20
-1.1154198860677642
 30
20.502559237005535
 10
36.58168070327962
 20
-1.1790635930748605
 30
20.63455069351303
 10
36.54911205309453
 20
-1.2021006967691248
 30
20.692265275510934
 10
36.515336206117766
 20
-1.2210002782447136
 30
20.7518632414182
 10
36.4805822515318
 20
-1.2354231854098021
 30
20.812910234313463
 10
36.445103858388194
 20
-1.2451333414710124
 30
20.874938911832018
 10
36.409171880102015
 20
-1.2499999999999911
 30
20.93746444215526
 10
36.3250091373165
 20
-1.2499999999999911
 30
21.083238588764132
 10
36.27690330942944
 20
-1.2413775898224602
 30
21.166047739671683
 10
36.22936284980513
 20
-1.224245504094263
 30
21.247369182628347
 10
36.183004953919976
 20
-1.198998350757174
 30
21.3261831119881
 10
36.13841652117284
 20
-1.1663026629962827
 30
21.401554942318448
 10
36.096120037850945
 20
-1.1270869511684127
 30
21.472682064165603
 10
36.01231737420201
 20
-1.0327516899706977
 30
21.612969096144496
 10
35.97134837639865
 20
-0.9761524854347972
 30
21.68114908815498
 10
35.93381668716087
 20
-0.9138059178380171
 30
21.743284760540543
 10
35.89984219887188
 20
-0.8466768634924939
 30
21.799281916488134
 10
35.869491686442785
 20
-0.7756417213293476
 30
21.849121618752875
 10
35.842788001011414
 20
-0.701502990134748
 30
21.892841307467464
 10
35.79447925420142
 20
-0.5413104132508684
 30
21.971745290748416
 10
35.773545480931205
 20
-0.454648246885645
 30
22.00581269834156
 10
35.75686827745558
 20
-0.365777300196239
 30
22.03288077906787
 10
35.74440026107705
 20
-0.27533899239745985
 30
22.05308164099402
 10
35.73610298635181
 20
-0.18389144648004674
 30
22.06651322791533
 10
35.73195428662857
 20
-0.0919458367422532
 30
22.073229099030463
 10
35.73195428662857
 20
0.09194583674229584
 30
22.073229099030463
 10
35.73610298635181
 20
0.1838914464800272
 30
22.066513227915344
 10
35.74440026107705
 20
0.2753389923975007
 30
22.053081640994
 10
35.75686827745557
 20
0.36577730019627275
 30
22.03288077906786
 10
35.773545480931205
 20
0.4546482468856201
 30
22.00581269834158
 10
35.794479254201434
 20
0.5413104132509261
 30
21.97174529074841
 10
35.84278800100094
 20
0.7015029901000478
 30
21.892841307484574
 10
35.86949168643963
 20
0.7756417213316436
 30
21.849121618758147
 10
35.8998421988819
 20
0.8466768635194644
 30
21.79928191647182
 10
35.933816687173746
 20
0.9138059178552993
 30
21.74328476051921
 10
35.97134837639799
 20
0.9761524854260522
 30
21.681149088155795
 10
36.01231737418479
 20
1.032751689951322
 30
21.61296909617335
 10
36.12554425750248
 20
1.1602093046295963
 30
21.42342543837977
 10
36.20347938581377
 20
1.2224206498865158
 30
21.291979482947525
 10
36.287724501482344
 20
1.261571105804716
 30
21.148514406341533
 10
36.37453690262478
 20
1.2733823583672539
 30
20.99890999706725
 10
36.45991344798437
 20
1.2569165522309174
 30
20.849944886821802
 10
36.54024197480729
 20
1.2146122382770326
 30
20.708275460308556
 10
36.65586958666968
 20
1.115419886069299
 30
20.50255923700869
 10
36.69619316390888
 20
1.0714842690130268
 30
20.43038134619561
 10
36.733638273712316
 20
1.0214050587376722
 30
20.36297946519797
 10
36.768087011678
 20
0.9660369919936969
 30
20.300660436910764
 10
36.79947060296183
 20
0.9062126362441987
 30
20.24363919898496
 10
36.82776323761327
 20
0.8427461480344434
 30
20.192043451288967
 10
36.89056472481612
 20
0.6776011733054297
 30
20.077160504398698
 10
36.921431724463105
 20
0.5721467188696554
 30
20.020339783561546
 10
36.945816200567336
 20
0.46195532009843276
 30
19.975246032473954
 10
36.96393265643278
 20
0.34850490858617356
 30
19.941642885892236
 10
36.97594738205866
 20
0.23300137218002526
 30
19.91932425253828
 10
36.981954286628564
 20
0.11649794431957083
 30
19.90816558956937
 10
36.981954286628564
 20
8.881784197001252e-15
 30
19.90816558956937
  0
CIRCLE
  5
41
330
17
100
AcDbEntity
  8
0
100
AcDbCircle
 10
1.6813695642973587e-13
 20
-8.375
 30
-1.0013657505114479e-13
 40
36.25
  0
SPLINE
  5
42
330
17
100
AcDbEntity
  8
0
100
AcDbSpline
 70
0
 71
6
 72
24
 73
17
 74
0
 40
0.0
 40
0.0
 40
0.0
 40
0.0
 40
0.0
 40
0.0
 40
0.0
 40
0.4636148435862576
 40
0.4636148435862576
 40
0.4636148435862576
 40
0.4636148435862576
 40
0.4636148435862576
 40
0.7746820865766182
 40
0.7746820865766182
 40
0.7746820865766182
 40
0.7746820865766182
 40
0.7746820865766182
 40
1.0
 40
1.0
 40
1.0
 40
1.0
 40
1.0
 40
1.0
 40
1.0
 10
32.26615572612207
 20
0.0
 30
-20.072249367164996
 10
32.26615572612207
 20
0.13591589924491743
 30
-20.072249367164996
 10
32.27552846760219
 20
0.27183946060128505
 30
-20.057182778559774
 10
32.29427510218755
 20
0.4060105872187556
 30
-20.0270470654865
 10
32.32253300323045
 20
0.5365577105850576
 30
-19.981506102283145
 10
32.36048465222421
 20
0.6611312277615546
 30
-19.920024861222718
 10
32.44024827440789
 20
0.8537988166782675
 30
-19.789746190771783
 10
32.47675996502311
 20
0.9271793713650514
 30
-19.729883767542226
 10
32.517674334332824
 20
0.9951815823891135
 30
-19.662480705800334
 10
32.56278149176517
 20
1.0563710171960672
 30
-19.587729871180755
 10
32.611744998746985
 20
1.1092685203510069
 30
-19.506014024330028
 10
32.702012863082096
 20
1.183519249649045
 30
-19.35416908735261
 10
32.741689426789506
 20
1.209533103638309
 30
-19.287086725413822
 10
32.78270806670709
 20
1.229600479011781
 30
-19.217341467297047
 10
32.82459295827318
 20
1.243186638937976
 30
-19.145689264382217
 10
32.86684281398354
 20
1.2499999999999982
 30
-19.07295836180087
 10
32.908965343808845
 20
1.25
 30
-19.000000000000096
  0
LINE
  5
43
330
17
100
AcDbEntity
  8
0
100
AcDbLine
 10
32.266155726122044
 20
-6.775471197885515e-31
 30
-20.07224936716501
 11
35.73195428662857
 21
-7.51539058035815e-31
 31
-22.073229099030474
  0
SPLINE
  5
44
330
17
100
AcDbEntity
  8
0
100
AcDbSpline
 70
0
 71
6
 72
24
 73
17
 74
0
 40
0.0
 40
0.0
 40
0.0
 40
0.0
 40
0.0
 40
0.0
 40
0.0
 40
0.22531791334046417
 40
0.22531791334046417
 40
0.22531791334046417
 40
0.22531791334046417
 40
0.22531791334046417
 40
0.53638515631145
 40
0.53638515631145
 40
0.53638515631145
 40
0.53638515631145
 40
0.53638515631145
 40
1.0
 40
1.0
 40
1.0
 40
1.0
 40
1.0
 40
1.0
 40
1.0
 10
32.908965343808845
 20
-1.25
 30
-19.0000000000001
 10
32.866842813986075
 20
-1.2499999999999991
 30
-19.07295836179647
 10
32.82459295826923
 20
-1.2431866389366597
 30
-19.145689264388974
 10
32.78270806670696
 20
-1.2296004790126434
 30
-19.21734146729734
 10
32.74168942679338
 20
-1.2095331036400268
 30
-19.287086725407224
 10
32.70201286307982
 20
-1.1835192496471754
 30
-19.354169087356443
 10
32.61174499873408
 20
-1.1092685203403994
 30
-19.506014024351717
 10
32.56278149176917
 20
-1.0563710171932241
 30
-19.587729871173728
 10
32.51767433434441
 20
-0.9951815824058752
 30
-19.662480705781302
 10
32.47675996502431
 20
-0.9271793713762309
 30
-19.729883767540414
 10
32.440248274398826
 20
-0.8537988166563579
 30
-19.789746190786595
 10
32.36048465222421
 20
-0.6611312277615351
 30
-19.92002486122272
 10
32.32253300323045
 20
-0.5365577105851234
 30
-19.981506102283134
 10
32.29427510218754
 20
-0.4060105872186641
 30
-20.027047065486506
 10
32.275528467602186
 20
-0.2718394606012584
 30
-20.057182778559785
 10
32.26615572612207
 20
-0.13591589924495295
 30
-20.072249367164996
 10
32.26615572612207
 20
0.0
 30
-20.072249367164996
  0
SPLINE
  5
45
330
17
100
AcDbEntity
  8
0
100
AcDbSpline
 70
0
 71
6
 72
39
 73
32
 74
0
 40
0.0
 40
0.0
 40
0.0
 40
0.0
 40
0.0
 40
0.0
 40
0.0
 40
1.0
 40
1.0
 40
1.0
 40
1.0
 40
1.0
 40
2.117264380811749
 40
2.117264380811749
 40
2.117264380811749
 40
2.117264380811749
 40
2.117264380811749
 40
3.3394477928685964
 40
3.3394477928685964
 40
3.3394477928685964
 40
3.3394477928685964
 40
3.3394477928685964
 40
4.5616312046971705
 40
4.5616312046971705
 40
4.5616312046971705
 40
4.5616312046971705
 40
4.5616312046971705
 40
5.678895585972507
 40
5.678895585972507
 40
5.678895585972507
 40
5.678895585972507
 40
5.678895585972507
 40
6.678911342039298
 40
6.678911342039298
 40
6.678911342039298
 40
6.678911342039298
 40
6.678911342039298
 40
6.678911342039298
 40
6.678911342039298
 10
32.908965343808845
 20
-1.25
 30
-19.000000000000096
 10
32.96503246989166
 20
-1.2500000000000018
 30
-18.902888888990287
 10
33.02051268657864
 20
-1.2379287674113417
 30
-18.80600025236239
 10
33.074340542125825
 20
-1.2139832699115765
 30
-18.711191942111444
 10
33.125532893886806
 20
-1.1790184808959232
 30
-18.620282256433672
 10
33.17327981257803
 20
-1.1345124736075434
 30
-18.534875630961622
 10
33.2658763176075
 20
-1.024455549040292
 30
-18.368222398931902
 10
33.30991152917098
 20
-0.9568326131706124
 30
-18.288310653324295
 10
33.3489937545731
 20
-0.8815383751870645
 30
-18.216884969332636
 10
33.38312650303699
 20
-0.8001987814164551
 30
-18.154152407652013
 10
33.41238111698678
 20
-0.7142548023414745
 30
-18.100150433719648
 10
33.46366884738248
 20
-0.5273635401417645
 30
-18.005167243869924
 10
33.48482092905004
 20
-0.4255648527895355
 30
-17.965782898996395
 10
33.50053023364931
 20
-0.3209404879665705
 30
-17.936431403679094
 10
33.51094718837443
 20
-0.21454166453049162
 30
-17.916934481809697
 10
33.51615572612207
 20
-0.1072709880506153
 30
-17.907185857703897
 10
33.51615572612207
 20
0.10727098803057977
 30
-17.907185857703897
 10
33.51094718837645
 20
0.21454166456374146
 30
-17.91693448180596
 10
33.500530233641754
 20
0.32094048796346897
 30
-17.93643140369308
 10
33.48482092906014
 20
0.42556485276079137
 30
-17.965782898977672
 10
33.46366884737738
 20
0.5273635401603549
 30
-18.005167243879367
 10
33.4123811169767
 20
0.7142548023782087
 30
-18.100150433738317
 10
33.38312650303728
 20
0.8001987813987945
 30
-18.154152407651335
 10
33.34899375458725
 20
0.8815383751576551
 30
-18.216884969306456
 10
33.30991152917745
 20
0.9568326131734999
 30
-18.288310653313122
 10
33.265876317590255
 20
1.0244555490607787
 30
-18.36822239896294
 10
33.17327912353529
 20
1.134513292579319
 30
-18.53487687108618
 10
33.125532229203245
 20
1.1790188838078937
 30
-18.620283436338774
 10
33.07434047493419
 20
1.2139830129940261
 30
-18.71119204230458
 10
33.020513384573114
 20
1.2379283461443151
 30
-18.805999015536678
 10
32.9650334501633
 20
1.2500000000000018
 30
-18.90288719111002
 10
32.908965343808845
 20
1.25
 30
-19.000000000000092
  0
CIRCLE
  5
46
330
17
100
AcDbEntity
  8
0
100
AcDbCircle
 10
1.7257719986872603e-13
 20
3.625
 30
-1.0034486835983479e-13
 40
38.0
  0
LINE
  5
47
330
17
100
AcDbEntity
  8
0
100
AcDbLine
 10
1.250000000000005
 20
4.0364327754259315e-15
 30
-41.98139468859984
 11
1.2500000000000047
 21
3.651651839367217e-15
 31
-37.979435224868844
  0
SPLINE
  5
48
330
17
100
AcDbEntity
  8
0
100
AcDbSpline
 70
0
 71
7
 72
76
 73
68
 74
0
 40
0.0
 40
0.0
 40
0.0
 40
0.0
 40
0.0
 40
0.0
 40
0.0
 40
0.0
 40
0.35673602632382934
 40
0.35673602632382934
 40
0.35673602632382934
 40
0.35673602632382934
 40
0.35673602632382934
 40
0.35673602632382934
 40
0.5960918056505136
 40
0.5960918056505136
 40
0.5960918056505136
 40
0.5960918056505136
 40
0.5960918056505136
 40
0.5960918056505136
 40
1.0
 40
1.0
 40
1.0
 40
1.0
 40
1.0
 40
1.0
 40
1.2588463391806222
 40
1.2588463391806222
 40
1.2588463391806222
 40
1.2588463391806222
 40
1.2588463391806222
 40
1.2588463391806222
 40
1.5420001807570944
 40
1.5420001807570944
 40
1.5420001807570944
 40
1.5420001807570944
 40
1.5420001807570944
 40
1.5420001807570944
 40
1.8251540223334262
 40
1.8251540223334262
 40
1.8251540223334262
 40
1.8251540223334262
 40
1.8251540223334262
 40
1.8251540223334262
 40
2.0840003611829183
 40
2.0840003611829183
 40
2.0840003611829183
 40
2.0840003611829183
 40
2.0840003611829183
 40
2.0840003611829183
 40
2.3156795112035646
 40
2.3156795112035646
 40
2.3156795112035646
 40
2.3156795112035646
 40
2.3156795112035646
 40
2.3156795112035646
 40
2.489735269679835
 40
2.489735269679835
 40
2.489735269679835
 40
2.489735269679835
 40
2.489735269679835
 40
2.489735269679835
 40
2.7300314984649905
 40
2.7300314984649905
 40
2.7300314984649905
 40
2.7300314984649905
 40
2.7300314984649905
 40
2.7300314984649905
 40
3.088170401164944
 40
3.088170401164944
 40
3.088170401164944
 40
3.088170401164944
 40
3.088170401164944
 40
3.088170401164944
 40
3.088170401164944
 40
3.088170401164944
 10
1.2500000000000138
 20
8.881784197001252e-15
 30
-37.97943522486884
 10
1.2500000000000138
 20
0.11649934220990055
 30
-37.97943522486884
 10
1.2373325576996126
 20
0.23300415735668167
 30
-37.979852180527644
 10
1.2119960891364268
 20
0.34850867581126543
 30
-37.980685937219526
 10
1.1738360068748608
 20
0.46195935437570235
 30
-37.98191541599475
 10
1.1225910628039695
 20
0.5721501440640857
 30
-37.98349530991826
 10
1.0579497582862127
 20
0.6776031559882032
 30
-37.98535089265992
 10
0.9270585160469227
 20
0.8427468036371142
 30
-37.98872631084587
 10
0.8682286380521691
 20
0.9062134985968608
 30
-37.9901585203782
 10
0.8031548890894515
 20
0.9660377776598903
 30
-37.9916303902795
 10
0.7319607538615318
 20
1.0214056258751185
 30
-37.99309605281532
 10
0.654866709953811
 20
1.0714845895276977
 30
-37.994502558906255
 10
0.5721973595211121
 20
1.1154200088017348
 30
-37.99579319845537
 10
0.3362288470074186
 20
1.2146120378500882
 30
-37.99880138617434
 10
0.1733750215376477
 20
1.2569166212078002
 30
-38.00020305468362
 10
0.0016787573338237008
 20
1.273382457024173
 30
-38.000804634798314
 10
-0.17128906653677636
 20
1.2615711492028865
 30
-38.00038515000695
 10
-0.33765647272133537
 20
1.2224204641446779
 30
-37.99903024089127
 10
-0.49045960181138115
 20
1.16020868984163
 30
-37.99707298458276
 10
-0.7112208047031818
 20
1.0327521499254235
 30
-37.99344155253239
 10
-0.790750372918748
 20
0.9761534520230732
 30
-37.99190498328811
 10
-0.863327043466692
 20
0.9138073342586708
 30
-37.99031825618507
 10
-0.9288093016504182
 20
0.8466785491851407
 30
-37.98874407238601
 10
-0.9871473360815419
 20
0.7756433588151221
 30
-37.987235885175224
 10
-1.0383620825201878
 20
0.7015041164220026
 30
-37.98583626472002
 10
-1.1308492716292613
 20
0.5413116058358636
 30
-37.98320044971812
 10
-1.17081925111644
 20
0.45465019203303036
 30
-37.98198956733391
 10
-1.2025996710514932
 20
0.3657795014620895
 30
-37.98098496334262
 10
-1.2263284281431486
 20
0.27534099220829056
 30
-37.98021430435153
 10
-1.2421094107132746
 20
0.18389289982204815
 30
-37.979694929188035
 10
-1.249999999999997
 20
0.09194656118619093
 30
-37.97943522486883
 10
-1.249999999999997
 20
-0.09194656118612698
 30
-37.97943522486883
 10
-1.2421094107132764
 20
-0.18389289982203927
 30
-37.97969492918804
 10
-1.2263284281431504
 20
-0.27534099220828523
 30
-37.980214304351506
 10
-1.2025996710514986
 20
-0.36577950146205573
 30
-37.98098496334261
 10
-1.170819251116431
 20
-0.4546501920329904
 30
-37.98198956733392
 10
-1.1308492716292649
 20
-0.5413116058358467
 30
-37.98320044971811
 10
-1.0383620825766866
 20
-0.7015041163241316
 30
-37.9858362647184
 10
-0.9871473360989076
 20
-0.7756433588214948
 30
-37.98723588517486
 10
-0.9288093015964951
 20
-0.8466785492610018
 30
-37.988744072387604
 10
-0.863327043396469
 20
-0.9138073343072639
 30
-37.99031825618654
 10
-0.7907503729216594
 20
-0.9761534519984014
 30
-37.99190498328756
 10
-0.7112208047978279
 20
-1.0327521498707632
 30
-37.99344155253084
 10
-0.5478284902214701
 20
-1.127086746674939
 30
-37.9961292896883
 10
-0.46508264439522096
 20
-1.1663024379070892
 30
-37.99730747928775
 10
-0.3775144005197224
 20
-1.1989981451327036
 30
-37.998334673437526
 10
-0.2860806315540043
 20
-1.224245341557201
 30
-37.99915274101153
 10
-0.19188414244771626
 20
-1.241377504710102
 30
-37.999716392954134
 10
-0.09611611492186303
 20
-1.2499999999999902
 30
-38.0000000000001
 10
0.07221005119809074
 20
-1.2499999999999902
 30
-38.0000000000001
 10
0.14432487182147422
 20
-1.2451333135420324
 30
-37.99984000210003
 10
0.2157825531510755
 20
-1.2354231189812248
 30
-37.99952041512594
 10
0.2860277928387407
 20
-1.2210001752606798
 30
-37.99904991491997
 10
0.3545290162849919
 20
-1.2021005739159811
 30
-37.99844396023053
 10
0.42079549801676164
 20
-1.17906349107965
 30
-37.99772330860251
 10
0.572197359542638
 20
-1.1154200087926736
 30
-37.99579319845509
 10
0.65486670995536
 20
-1.0714845895225613
 30
-37.99450255890612
 10
0.7319607538453066
 20
-1.0214056258834923
 30
-37.9930960528156
 10
0.8031548890756777
 20
-0.9660377776742974
 30
-37.99163039027985
 10
0.868228638055601
 20
-0.906213498598536
 30
-37.99015852037816
 10
0.9270585160617979
 20
-0.8427468036183345
 30
-37.988726310845486
 10
1.0579500272548716
 20
-0.6776028166342041
 30
-37.98535088572376
 10
1.1225909506825462
 20
-0.5721501210102806
 30
-37.98349531169909
 10
1.1738356138796529
 20
-0.4619599907540053
 30
-37.98191542785316
 10
1.2119957244575335
 20
-0.3485098152145003
 30
-37.98068594960125
 10
1.2373324031158428
 20
-0.23300532289590592
 30
-37.97985218549271
 10
1.2500000000000138
 20
-0.11650005351032533
 30
-37.97943522486884
 10
1.2500000000000138
 20
8.881784197001252e-15
 30
-37.97943522486884
  0
SPLINE
  5
49
330
17
100
AcDbEntity
  8
0
100
AcDbSpline
 70
0
 71
7
 72
76
 73
68
 74
0
 40
0.0
 40
0.0
 40
0.0
 40
0.0
 40
0.0
 40
0.0
 40
0.0
 40
0.0
 40
0.3566516510943547
 40
0.3566516510943547
 40
0.3566516510943547
 40
0.3566516510943547
 40
0.3566516510943547
 40
0.3566516510943547
 40
0.595949996238711
 40
0.595949996238711
 40
0.595949996238711
 40
0.595949996238711
 40
0.595949996238711
 40
0.595949996238711
 40
0.7692829492480989
 40
0.7692829492480989
 40
0.7692829492480989
 40
0.7692829492480989
 40
0.7692829492480989
 40
0.7692829492480989
 40
1.0
 40
1.0
 40
1.0
 40
1.0
 40
1.0
 40
1.0
 40
1.257771421460912
 40
1.257771421460912
 40
1.257771421460912
 40
1.257771421460912
 40
1.257771421460912
 40
1.257771421460912
 40
1.5397494028858711
 40
1.5397494028858711
 40
1.5397494028858711
 40
1.5397494028858711
 40
1.5397494028858711
 40
1.5397494028858711
 40
1.8217273843634547
 40
1.8217273843634547
 40
1.8217273843634547
 40
1.8217273843634547
 40
1.8217273843634547
 40
1.8217273843634547
 40
2.079498805493685
 40
2.079498805493685
 40
2.079498805493685
 40
2.079498805493685
 40
2.079498805493685
 40
2.079498805493685
 40
2.4817296791420036
 40
2.4817296791420036
 40
2.4817296791420036
 40
2.4817296791420036
 40
2.4817296791420036
 40
2.4817296791420036
 40
2.720091479190252
 40
2.720091479190252
 40
2.720091479190252
 40
2.720091479190252
 40
2.720091479190252
 40
2.720091479190252
 40
3.0753460781989106
 40
3.0753460781989106
 40
3.0753460781989106
 40
3.0753460781989106
 40
3.0753460781989106
 40
3.0753460781989106
 40
3.0753460781989106
 40
3.0753460781989106
 10
1.2499999999999996
 20
8.881784197001252e-15
 30
37.97943522486863
 10
1.2499999999999996
 20
-0.11650005351035553
 30
37.97943522486863
 10
1.2373324031158393
 20
-0.2330053228959006
 30
37.97985218549254
 10
1.211995724457569
 20
-0.3485098152144186
 30
37.98068594960101
 10
1.173835613879644
 20
-0.4619599907540355
 30
37.98191542785294
 10
1.1225909506824876
 20
-0.5721501210104192
 30
37.98349531169894
 10
1.057950027254941
 20
-0.677602816634101
 30
37.985350885723555
 10
0.9270585160617695
 20
-0.8427468036183594
 30
37.98872631084528
 10
0.8682286380556135
 20
-0.9062134985985271
 30
37.990158520377975
 10
0.8031548890757167
 20
-0.966037777674277
 30
37.99163039027967
 10
0.7319607538452924
 20
-1.0214056258835047
 30
37.99309605281539
 10
0.6548667099553103
 20
-1.071484589522587
 30
37.994502558905914
 10
0.572197359542677
 20
-1.115420008792655
 30
37.99579319845489
 10
0.42079549806843586
 20
-1.179063491057927
 30
37.99772330860165
 10
0.35452901622789623
 20
-1.2021005739254829
 30
37.998443960230624
 10
0.28602779279645274
 20
-1.2210001752774575
 30
37.99904991492028
 10
0.21578255319879555
 20
-1.2354231189802976
 30
37.9995204151257
 10
0.14432487187748275
 20
-1.2451333135292684
 30
37.99984000209944
 10
0.07221005113902687
 20
-1.2499999999999902
 30
37.99999999999989
 10
-0.09611611493479491
 20
-1.2499999999999902
 30
37.99999999999989
 10
-0.19188414243399568
 20
-1.2413775047081037
 30
37.999716392953886
 10
-0.2860806315454991
 20
-1.2242453415621002
 30
37.99915274101146
 10
-0.37751440052997554
 20
-1.1989981451327205
 30
37.99833467343734
 10
-0.4650826444049838
 20
-1.1663024378989473
 30
37.997307479287336
 10
-0.547828490211089
 20
-1.1270867466809342
 30
37.99612928968827
 10
-0.7112208047031676
 20
-1.0327521499254164
 30
37.99344155253219
 10
-0.7907503729187408
 20
-0.9761534520230537
 30
37.991904983287924
 10
-0.8633270434667506
 20
-0.9138073342585953
 30
37.99031825618484
 10
-0.9288093016504253
 20
-0.8466785491851239
 30
37.988744072385785
 10
-0.9871473360814709
 20
-0.7756433588151772
 30
37.98723588517504
 10
-1.0383620825202375
 20
-0.7015041164219182
 30
37.98583626471981
 10
-1.1308492716200438
 20
-0.5413116058518215
 30
37.98320044971816
 10
-1.1708192511285884
 20
-0.45465019201771817
 30
37.981989567333386
 10
-1.2025996710515412
 20
-0.3657795014479426
 30
37.98098496334241
 10
-1.2263284281358833
 20
-0.27534099222072506
 30
37.980214304351506
 10
-1.2421094107163069
 20
-0.18389289984000357
 30
37.97969492918775
 10
-1.249999999999997
 20
-0.09194656116905442
 30
37.97943522486863
 10
-1.249999999999997
 20
0.09194656118623357
 30
37.97943522486863
 10
-1.2421094107133048
 20
0.18389289982197532
 30
37.97969492918781
 10
-1.2263284281431521
 20
0.27534099220827635
 30
37.98021430435131
 10
-1.2025996710514701
 20
0.3657795014621339
 30
37.980984963342436
 10
-1.1708192511164275
 20
0.454650192033041
 30
37.98198956733372
 10
-1.1308492716292595
 20
0.5413116058358582
 30
37.983200449717906
 10
-1.038362082576683
 20
0.7015041163241467
 30
37.985836264718195
 10
-0.9871473360988934
 20
0.7756433588215312
 30
37.9872358851747
 10
-0.9288093015964916
 20
0.8466785492610285
 30
37.98874407238739
 10
-0.8633270433964779
 20
0.9138073343072719
 30
37.99031825618631
 10
-0.7907503729216541
 20
0.9761534519984085
 30
37.991904983287384
 10
-0.7112208047978226
 20
1.0327521498707881
 30
37.99344155253064
 10
-0.4904596018114522
 20
1.1602086898415944
 30
37.99707298458256
 10
-0.3376564727211613
 20
1.222420464144701
 30
37.999030240891095
 10
-0.1712890665370357
 20
1.261571149202954
 30
38.0003851500067
 10
0.0016787573341150233
 20
1.2733824570240273
 30
38.00080463479816
 10
0.173375021537399
 20
1.2569166212079264
 30
38.0002030546834
 10
0.33622884700752875
 20
1.2146120378500438
 30
37.998801386174144
 10
0.5721973595466241
 20
1.1154200087910144
 30
37.99579319845485
 10
0.6548667099555501
 20
1.0714845895216936
 30
37.994502558905864
 10
0.7319607538423667
 20
1.02140562588502
 30
37.99309605281546
 10
0.8031548890732156
 20
0.9660377776769309
 30
37.991630390279745
 10
0.8682286380561623
 20
0.9062134985989232
 30
37.99015852037794
 10
0.9270585160645264
 20
0.8427468036149008
 30
37.98872631084521
 10
1.0579497582862305
 20
0.6776031559881766
 30
37.98535089265971
 10
1.122591062803973
 20
0.5721501440640928
 30
37.983495309918084
 10
1.1738360068748483
 20
0.4619593543757379
 30
37.98191541599455
 10
1.2119960891364232
 20
0.3485086758112548
 30
37.98068593721932
 10
1.2373325576996268
 20
0.2330041573566337
 30
37.979852180527445
 10
1.2499999999999996
 20
0.11649934220995384
 30
37.97943522486863
 10
1.2499999999999996
 20
8.881784197001252e-15
 30
37.97943522486863
  0
LINE
  5
4A
330
17
100
AcDbEntity
  8
0
100
AcDbLine
 10
1.2499999999999962
 20
-3.651651839367202e-15
 30
37.97943522486869
 11
1.2499999999999958
 21
-4.036432775425936e-15
 31
41.981394688599885
  0
LINE
  5
4B
330
17
100
AcDbEntity
  8
0
100
AcDbLine
 10
-35.73195428662856
 20
4.036432775425933e-15
 30
-22.073229099030478
 11
-32.26615572612178
 21
3.651651839367198e-15
 31
-20.07224936716487
  0
SPLINE
  5
4C
330
17
100
AcDbEntity
  8
0
100
AcDbSpline
 70
0
 71
7
 72
76
 73
68
 74
0
 40
0.0
 40
0.0
 40
0.0
 40
0.0
 40
0.0
 40
0.0
 40
0.0
 40
0.0
 40
0.35673602638987384
 40
0.35673602638987384
 40
0.35673602638987384
 40
0.35673602638987384
 40
0.35673602638987384
 40
0.35673602638987384
 40
0.5960918056931398
 40
0.5960918056931398
 40
0.5960918056931398
 40
0.5960918056931398
 40
0.5960918056931398
 40
0.5960918056931398
 40
1.0
 40
1.0
 40
1.0
 40
1.0
 40
1.0
 40
1.0
 40
1.2588463393553881
 40
1.2588463393553881
 40
1.2588463393553881
 40
1.2588463393553881
 40
1.2588463393553881
 40
1.2588463393553881
 40
1.5420001814852946
 40
1.5420001814852946
 40
1.5420001814852946
 40
1.5420001814852946
 40
1.5420001814852946
 40
1.5420001814852946
 40
1.8251540236153796
 40
1.8251540236153796
 40
1.8251540236153796
 40
1.8251540236153796
 40
1.8251540236153796
 40
1.8251540236153796
 40
2.0840003633018984
 40
2.0840003633018984
 40
2.0840003633018984
 40
2.0840003633018984
 40
2.0840003633018984
 40
2.0840003633018984
 40
2.3156795143573428
 40
2.3156795143573428
 40
2.3156795143573428
 40
2.3156795143573428
 40
2.3156795143573428
 40
2.3156795143573428
 40
2.4897352692605375
 40
2.4897352692605375
 40
2.4897352692605375
 40
2.4897352692605375
 40
2.4897352692605375
 40
2.4897352692605375
 40
2.7300314990487626
 40
2.7300314990487626
 40
2.7300314990487626
 40
2.7300314990487626
 40
2.7300314990487626
 40
2.7300314990487626
 40
3.0881704032438164
 40
3.0881704032438164
 40
3.0881704032438164
 40
3.0881704032438164
 40
3.0881704032438164
 40
3.0881704032438164
 40
3.0881704032438164
 40
3.0881704032438164
 10
-32.266155726121795
 20
5.329070518200751e-15
 30
-20.07224936716488
 10
-32.266155726121795
 20
0.11649934220992364
 30
-20.07224936716488
 10
-32.27285054146476
 20
0.23300415735663904
 30
-20.06148751816118
 10
-32.28624083022212
 20
0.3485086758112814
 30
-20.03996237108918
 10
-32.306385631205664
 20
0.461959354375729
 30
-20.007529509827798
 10
-32.333376331514124
 20
0.5721501440640608
 30
-19.96394003340866
 10
-32.36730396556612
 20
0.6776031559882121
 30
-19.908886812933332
 10
-32.435672784575424
 20
0.8427468036183434
 30
-19.797219381126872
 10
-32.46632805341737
 20
0.9062134985986035
 30
-19.746987317038247
 10
-32.500139604633226
 20
0.9660377776742859
 30
-19.691367732253088
 10
-32.53700597323776
 20
1.021405625883487
 30
-19.630444633810967
 10
-32.576771065187735
 20
1.071484589522628
 30
-19.564382486366945
 10
-32.61922346703058
 20
1.1154200087926665
 30
-19.493434048569796
 10
-32.739812890300456
 20
1.214612037864912
 30
-19.290583416050346
 10
-32.822453683534164
 20
1.2569166211794744
 30
-19.15024870040778
 10
-32.90882279930166
 20
1.2733824570430983
 30
-19.001856163925808
 10
-32.994943426789604
 20
1.2615711492147135
 30
-18.85185189195384
 10
-33.07695374416248
 20
1.2224204641077154
 30
-18.707096037284984
 10
-33.15166027498486
 20
1.1602086898662716
 30
-18.573786017629942
 10
-33.258895964089746
 20
1.0327521498707721
 30
-18.380785491610375
 10
-33.29733004015226
 20
0.9761534519984654
 30
-18.311142580641544
 10
-33.33224422941135
 20
0.9138073343072541
 30
-18.247495976737717
 10
-33.36362207535127
 20
0.8466785492610001
 30
-18.189999585739855
 10
-33.39148496416256
 20
0.7756433588215685
 30
-18.13872327224758
 10
-33.415880230530504
 20
0.7015041163241342
 30
-18.093670190521173
 10
-33.45984114230686
 20
0.5413116058358511
 30
-18.01225602777688
 10
-33.47877747714473
 20
0.454650192033057
 30
-17.97703556896016
 10
-33.493797674535045
 20
0.3657795014621019
 30
-17.949010615957818
 10
-33.50499464281694
 20
0.27534099220827635
 30
-17.928075580020653
 10
-33.51243534201633
 20
0.1838928998220304
 30
-17.914149160636498
 10
-33.51615572612178
 20
0.09194656118618205
 30
-17.907185857703773
 10
-33.51615572612178
 20
-0.09194656118622468
 30
-17.907185857703773
 10
-33.51243534201633
 20
-0.18389289982196821
 30
-17.91414916063649
 10
-33.50499464281695
 20
-0.27534099220822483
 30
-17.928075580020653
 10
-33.493797674535045
 20
-0.3657795014621108
 30
-17.94901061595782
 10
-33.47877747714472
 20
-0.4546501920330579
 30
-17.97703556896016
 10
-33.45984114230688
 20
-0.5413116058357694
 30
-18.012256027776857
 10
-33.415880230503646
 20
-0.7015041164219769
 30
-18.093670190570904
 10
-33.39148496415419
 20
-0.7756433588151115
 30
-18.13872327226276
 10
-33.363622075376824
 20
-0.8466785491851008
 30
-18.18999958569234
 10
-33.33224422944518
 20
-0.9138073342586184
 30
-18.24749597667615
 10
-33.29733004015131
 20
-0.9761534520230528
 30
-18.3111425806443
 10
-33.258895964043745
 20
-1.0327521499254235
 30
-18.380785491693153
 10
-33.17952745545355
 20
-1.1270867466809413
 30
-18.52363125540446
 10
-33.1391748746738
 20
-1.1663024378989455
 30
-18.5958803547297
 10
-33.09628032896478
 20
-1.1989981451327187
 30
-18.672230275565234
 10
-33.051271911773746
 20
-1.224245341562102
 30
-18.751823276056626
 10
-33.00466180411906
 20
-1.241377504708102
 30
-18.833681654545714
 10
-32.95702340127598
 20
-1.2499999999999902
 30
-18.91676100275337
 10
-32.87286031910713
 20
-1.2499999999999902
 30
-19.062535737191403
 10
-32.83666434479008
 20
-1.2451333131539943
 30
-19.12490900791402
 10
-32.80065873382266
 20
-1.2354231189530491
 30
-19.18663338154093
 10
-32.76512865023054
 20
-1.221000175770718
 30
-19.247232291140726
 10
-32.730353266572045
 20
-1.2021005742048327
 30
-19.306253113097753
 10
-32.69659592141046
 20
-1.1790634904192556
 30
-19.363281246732328
 10
-32.61922346703058
 20
-1.1154200087926496
 30
-19.493434048569796
 10
-32.576771065187764
 20
-1.0714845895226324
 30
-19.564382486366924
 10
-32.53700597323775
 20
-1.0214056258834558
 30
-19.63044463381099
 10
-32.50013960463321
 20
-0.9660377776742539
 30
-19.691367732253116
 10
-32.466328053417385
 20
-0.9062134985985999
 30
-19.746987317038222
 10
-32.43567278457542
 20
-0.842746803618315
 30
-19.79721938112688
 10
-32.367303825074906
 20
-0.6776028166341979
 30
-19.90888704239894
 10
-32.3333763891171
 20
-0.5721501210103268
 30
-19.963939937199058
 10
-32.30638583797292
 20
-0.4619599907539875
 30
-20.007529175413165
 10
-32.286241023284425
 20
-0.3485098152144648
 30
-20.039962061458873
 10
-32.27285062305654
 20
-0.2330053228959308
 30
-20.061487386770224
 10
-32.266155726121795
 20
-0.11650005351035553
 30
-20.07224936716488
 10
-32.266155726121795
 20
5.329070518200751e-15
 30
-20.07224936716488
  0
LINE
  5
4D
330
17
100
AcDbEntity
  8
0
100
AcDbLine
 10
-36.98195428662857
 20
8.008428646121283e-31
 30
19.908165589569375
 11
-33.516155726121696
 21
7.268509263648574e-31
 31
17.907185857703713
  0
SPLINE
  5
4E
330
17
100
AcDbEntity
  8
0
100
AcDbSpline
 70
0
 71
6
 72
79
 73
72
 74
0
 40
0.0
 40
0.0
 40
0.0
 40
0.0
 40
0.0
 40
0.0
 40
0.0
 40
0.35678951038563683
 40
0.35678951038563683
 40
0.35678951038563683
 40
0.35678951038563683
 40
0.35678951038563683
 40
0.5961811753369447
 40
0.5961811753369447
 40
0.5961811753369447
 40
0.5961811753369447
 40
0.5961811753369447
 40
0.7695817235079713
 40
0.7695817235079713
 40
0.7695817235079713
 40
0.7695817235079713
 40
0.7695817235079713
 40
0.8734737980417159
 40
0.8734737980417159
 40
0.8734737980417159
 40
0.8734737980417159
 40
0.8734737980417159
 40
1.0
 40
1.0
 40
1.0
 40
1.0
 40
1.0
 40
1.2569469391704113
 40
1.2569469391704113
 40
1.2569469391704113
 40
1.2569469391704113
 40
1.2569469391704113
 40
1.5380230135854336
 40
1.5380230135854336
 40
1.5380230135854336
 40
1.5380230135854336
 40
1.5380230135854336
 40
1.8190990880004745
 40
1.8190990880004745
 40
1.8190990880004745
 40
1.8190990880004745
 40
1.8190990880004745
 40
2.0760460271706753
 40
2.0760460271706753
 40
2.0760460271706753
 40
2.0760460271706753
 40
2.0760460271706753
 40
2.2071322842544174
 40
2.2071322842544174
 40
2.2071322842544174
 40
2.2071322842544174
 40
2.2071322842544174
 40
2.304207125271013
 40
2.304207125271013
 40
2.304207125271013
 40
2.304207125271013
 40
2.304207125271013
 40
2.4798499820496596
 40
2.4798499820496596
 40
2.4798499820496596
 40
2.4798499820496596
 40
2.4798499820496596
 40
2.7192432604548182
 40
2.7192432604548182
 40
2.7192432604548182
 40
2.7192432604548182
 40
2.7192432604548182
 40
3.07603517553324
 40
3.07603517553324
 40
3.07603517553324
 40
3.07603517553324
 40
3.07603517553324
 40
3.07603517553324
 40
3.07603517553324
 10
-33.5161557261217
 20
0.0
 30
17.90718585770373
 10
-33.5161557261217
 20
0.13591589924491032
 30
17.90718585770373
 10
-33.507794048381285
 20
0.2718394606012957
 30
17.922836184231233
 10
-33.49106907259129
 20
0.4060105872187947
 30
17.954139102554265
 10
-33.46575839206592
 20
0.5365577105849741
 30
18.001381644316677
 10
-33.4314898999482
 20
0.6611312277615973
 30
18.064989356991052
 10
-33.35854707286392
 20
0.8537988166634012
 30
18.19920601531507
 10
-33.32496053891636
 20
0.9271793713726435
 30
18.26075727854951
 10
-33.28704495980327
 20
0.9951815824005426
 30
18.329891692634323
 10
-33.24486241678933
 20
1.0563710171941025
 30
18.406331054164514
 10
-33.19857617102682
 20
1.1092685203438357
 30
18.489592618474894
 10
-33.11220853031156
 20
1.1835192496627958
 30
18.64368935066661
 10
-33.073951782624285
 20
1.2095331036255939
 30
18.7115914436639
 10
-33.03405993723134
 20
1.2296004790053878
 30
18.781987256970417
 10
-32.99294975502578
 20
1.2431866389476678
 30
18.854086738606945
 10
-32.95108787365247
 20
1.2499999999999982
 30
18.9270416381668
 10
-32.883727839912126
 20
1.25
 30
19.04371263900463
 10
-32.85842617255866
 20
1.2475541396853291
 30
19.08737551600091
 10
-32.833174961926986
 20
1.2426646273567812
 30
19.130790173541186
 10
-32.80808956058042
 20
1.2353711961720695
 30
19.173761936290187
 10
-32.78328398648906
 20
1.2257508901020682
 30
19.216102936960574
 10
-32.729134598281426
 20
1.1995068407437142
 30
19.308215633759886
 10
-32.6999931760415
 20
1.1818205946741571
 30
19.357573153636796
 10
-32.67158597855454
 20
1.1610438367659714
 30
19.405485735396937
 10
-32.6440442088933
 20
1.1373958415701164
 30
19.451754514323195
 10
-32.61748605206384
 20
1.1111297280833252
 30
19.496206242229412
 10
-32.54028537871586
 20
1.0244555491245748
 30
19.624982770607836
 10
-32.493097382639085
 20
0.9568326131824527
 30
19.703074255457867
 10
-32.45078203848287
 20
0.881538375065805
 30
19.77263329754678
 10
-32.413520420717596
 20
0.800198781344232
 30
19.833559405555583
 10
-32.38138064645988
 20
0.7142548024923236
 30
19.885895631303814
 10
-32.32476665627534
 20
0.5273635401603851
 30
19.97780370371883
 10
-32.301234853920434
 20
0.4255648527607683
 30
20.01581411624988
 10
-32.28367036565571
 20
0.32094048796345653
 30
20.044094520735626
 10
-32.271994013373245
 20
0.2145416645637539
 30
20.062864329109534
 10
-32.266155726121696
 20
0.1072709880305549
 30
20.072249367164822
 10
-32.266155726121696
 20
-0.10727098803056201
 30
20.072249367164822
 10
-32.271994013373245
 20
-0.21454166456369705
 30
20.06286432910954
 10
-32.28367036565573
 20
-0.3209404879635791
 30
20.044094520735612
 10
-32.301234853920434
 20
-0.42556485276071765
 30
20.015814116249892
 10
-32.32476665627532
 20
-0.5273635401603176
 30
19.97780370371886
 10
-32.381380646459874
 20
-0.7142548024922828
 30
19.885895631303836
 10
-32.41352042071764
 20
-0.8001987813443412
 30
19.83355940555552
 10
-32.450782038482785
 20
-0.8815383750656425
 30
19.77263329754691
 10
-32.49309738263914
 20
-0.9568326131825327
 30
19.703074255457768
 10
-32.540285378715836
 20
-1.0244555491245535
 30
19.624982770607875
 10
-32.618404080703755
 20
-1.1121604105265703
 30
19.494674901425306
 10
-32.64596237915575
 20
-1.1392888056056139
 30
19.44854380313973
 10
-32.67457357703699
 20
-1.1635958168820233
 30
19.400466091647626
 10
-32.70410409836656
 20
-1.1847997268739858
 30
19.35063807533579
 10
-32.73440543371683
 20
-1.2026590949526792
 30
19.2992856295732
 10
-32.78820938563201
 20
-1.22757413781434
 30
19.20769033571112
 10
-32.81142582597143
 20
-1.2362258870323082
 30
19.16803955255823
 10
-32.83487602790843
 20
-1.2428393644468807
 30
19.127855488772617
 10
-32.858466643518526
 20
-1.2473535196765937
 30
19.08729222067746
 10
-32.88210336166979
 20
-1.2497359131184353
 30
19.046508943949373
 10
-32.94837328535395
 20
-1.250429689510426
 30
18.93177171167339
 10
-32.99081580151019
 20
-1.2438847902627712
 30
18.857828826851378
 10
-33.03250745323106
 20
-1.2303783596877258
 30
18.784726687242706
 10
-33.07296055753472
 20
-1.2102063930146407
 30
18.71335075196129
 10
-33.11173962451154
 20
-1.1839223705231694
 30
18.64452597015615
 10
-33.198576171026815
 20
-1.109268520343842
 30
18.489592618474905
 10
-33.244862416789395
 20
-1.056371017194076
 30
18.406331054164433
 10
-33.287044959803204
 20
-0.9951815824005203
 30
18.32989169263435
 10
-33.32496053891642
 20
-0.9271793713726053
 30
18.260757278549452
 10
-33.35854707286391
 20
-0.8537988166634083
 30
18.19920601531507
 10
-33.431489899948225
 20
-0.6611312277615351
 30
18.064989356991013
 10
-33.46575839206591
 20
-0.5365577105851242
 30
18.001381644316762
 10
-33.49106907259131
 20
-0.4060105872185549
 30
17.95413910255418
 10
-33.507794048381285
 20
-0.2718394606014076
 30
17.92283618423126
 10
-33.5161557261217
 20
-0.13591589924490677
 30
17.90718585770373
 10
-33.5161557261217
 20
0.0
 30
17.90718585770373
  0
SPLINE
  5
4F
330
17
100
AcDbEntity
  8
0
100
AcDbSpline
 70
0
 71
7
 72
76
 73
68
 74
0
 40
0.0
 40
0.0
 40
0.0
 40
0.0
 40
0.0
 40
0.0
 40
0.0
 40
0.0
 40
0.3566516511139175
 40
0.3566516511139175
 40
0.3566516511139175
 40
0.3566516511139175
 40
0.3566516511139175
 40
0.3566516511139175
 40
0.5959499962714501
 40
0.5959499962714501
 40
0.5959499962714501
 40
0.5959499962714501
 40
0.5959499962714501
 40
0.5959499962714501
 40
0.7692829492442956
 40
0.7692829492442956
 40
0.7692829492442956
 40
0.7692829492442956
 40
0.7692829492442956
 40
0.7692829492442956
 40
1.0
 40
1.0
 40
1.0
 40
1.0
 40
1.0
 40
1.0
 40
1.2577714217586542
 40
1.2577714217586542
 40
1.2577714217586542
 40
1.2577714217586542
 40
1.2577714217586542
 40
1.2577714217586542
 40
1.5397494039238886
 40
1.5397494039238886
 40
1.5397494039238886
 40
1.5397494039238886
 40
1.5397494039238886
 40
1.5397494039238886
 40
1.8217273860892678
 40
1.8217273860892678
 40
1.8217273860892678
 40
1.8217273860892678
 40
1.8217273860892678
 40
1.8217273860892678
 40
2.07949880784821
 40
2.07949880784821
 40
2.07949880784821
 40
2.07949880784821
 40
2.07949880784821
 40
2.07949880784821
 40
2.481729682477482
 40
2.481729682477482
 40
2.481729682477482
 40
2.481729682477482
 40
2.481729682477482
 40
2.481729682477482
 40
2.7200914830964247
 40
2.7200914830964247
 40
2.7200914830964247
 40
2.7200914830964247
 40
2.7200914830964247
 40
2.7200914830964247
 40
3.0753460829371972
 40
3.0753460829371972
 40
3.0753460829371972
 40
3.0753460829371972
 40
3.0753460829371972
 40
3.0753460829371972
 40
3.0753460829371972
 40
3.0753460829371972
 10
33.51615572612198
 20
8.881784197001252e-15
 30
17.90718585770388
 10
33.51615572612198
 20
-0.1165000535103271
 30
17.90718585770388
 10
33.510183026172534
 20
-0.23300532289591658
 30
17.918364798722372
 10
33.498236747742126
 20
-0.3485098152144843
 30
17.940723888142287
 10
33.48022145185275
 20
-0.46195999075402305
 30
17.974386252439942
 10
33.45596733979981
 20
-0.5721501210103295
 30
18.019555374499944
 10
33.42525385232996
 20
-0.6776028166341383
 30
18.07646384332469
 10
33.36273130063738
 20
-0.8427468036183496
 30
18.19150692971855
 10
33.334556691473125
 20
-0.9062134985985315
 30
18.243171203339763
 10
33.30329449370912
 20
-0.966037777674277
 30
18.300262658026718
 10
33.268966727083225
 20
-1.0214056258834985
 30
18.362651419004585
 10
33.2316377751432
 20
-1.071484589522587
 30
18.43012007253901
 10
33.191420826573435
 20
-1.115420008792655
 30
18.502359149885212
 10
33.11739142026378
 20
-1.1790634910508198
 30
18.634442063160797
 10
33.08488228194396
 20
-1.2021005739285915
 30
18.692190845699606
 10
33.0511564423855
 20
-1.2210001752829474
 30
18.751817622722214
 10
33.016441287731624
 20
-1.2354231189799965
 30
18.812887034785824
 10
32.980989217510185
 20
-1.2451333135250922
 30
18.87493099559005
 10
32.94507036936862
 20
-1.2499999999999902
 30
18.937464261321814
 10
32.86090728634329
 20
-1.2499999999999902
 30
19.083238997243317
 10
32.81277766168317
 20
-1.2413775047086988
 30
19.16603473841183
 10
32.765191280227114
 20
-1.2242453415606374
 30
19.24732946495714
 10
32.71876592843651
 20
-1.1989981451327187
 30
19.326104397869543
 10
32.674092230270475
 20
-1.1663024379013844
 30
19.40142712455522
 10
32.63169896524103
 20
-1.1270867466791366
 30
19.472498034286595
 10
32.547675159292055
 20
-1.032752149870749
 30
19.612656060920393
 10
32.506579667230824
 20
-0.9761534519984592
 30
19.680762402645893
 10
32.46891718601503
 20
-0.9138073343072106
 30
19.742822279448752
 10
32.434812773754906
 20
-0.8466785492609468
 30
19.79874448664772
 10
32.40433762806384
 20
-0.7756433588215561
 30
19.848512612927212
 10
32.377518147953985
 20
-0.7015041163241342
 30
19.892166074197128
 10
32.32899187067773
 20
-0.5413116058357454
 30
19.97094442194117
 10
32.3079582260285
 20
-0.45465019203309875
 30
20.004953998373672
 10
32.29119800348373
 20
-0.3657795014620806
 30
20.03197434738472
 10
32.27866621467394
 20
-0.2753409922082213
 30
20.05213872433079
 10
32.270325931303226
 20
-0.18389289982203572
 30
20.065545768551445
 10
32.26615572612196
 20
-0.09194656118613409
 30
20.072249367164964
 10
32.26615572612196
 20
0.09194656118620159
 30
20.072249367164964
 10
32.270325931303226
 20
0.1838928998220215
 30
20.06554576855146
 10
32.27866621467395
 20
0.2753409922082586
 30
20.052138724330774
 10
32.291198003483736
 20
0.36577950146211613
 30
20.031974347384704
 10
32.307958226028475
 20
0.4546501920330801
 30
20.004953998373665
 10
32.32899187067774
 20
0.5413116058358085
 30
19.970944421941148
 10
32.37751814795399
 20
0.7015041163241804
 30
19.892166074197107
 10
32.404337628063814
 20
0.7756433588215046
 30
19.848512612927266
 10
32.43481277375493
 20
0.8466785492609983
 30
19.798744486647685
 10
32.46891718601506
 20
0.913807334307295
 30
19.74282227944872
 10
32.50657966723082
 20
0.9761534519984565
 30
19.680762402645936
 10
32.54767515929205
 20
1.0327521498707597
 30
19.612656060920386
 10
32.66120067319436
 20
1.160208689841621
 30
19.42328696699006
 10
32.73929727142436
 20
1.222420464144788
 30
19.291934203574524
 10
32.823654360230435
 20
1.2615711492026893
 30
19.148533258014968
 10
32.91050155665183
 20
1.273382457024308
 30
18.998948470901134
 10
32.995828705091746
 20
1.2569166212077967
 30
18.849954354308686
 10
33.07604173729007
 20
1.2146120378500562
 30
18.708217970093532
 10
33.19142082657345
 20
1.1154200087926522
 30
18.50235914988517
 10
33.23163777514314
 20
1.0714845895226475
 30
18.430120072539108
 10
33.26896672708326
 20
1.0214056258834852
 30
18.362651419004543
 10
33.303294493709146
 20
0.9660377776742735
 30
18.300262658026654
 10
33.334556691473075
 20
0.9062134985986052
 30
18.243171203339834
 10
33.362731300637385
 20
0.8427468036183381
 30
18.19150692971852
 10
33.42525372385249
 20
0.6776031559881854
 30
18.076464079726488
 10
33.45596739431825
 20
0.5721501440640839
 30
18.01955527650952
 10
33.4802216380807
 20
0.46195935437575386
 30
17.974385906166894
 10
33.49823691935872
 20
0.34850867581126543
 30
17.940723566130256
 10
33.51018309916452
 20
0.2330041573566124
 30
17.918364662366365
 10
33.51615572612198
 20
0.11649934220994851
 30
17.90718585770388
 10
33.51615572612198
 20
8.881784197001252e-15
 30
17.90718585770388
  0
LINE
  5
50
330
17
100
AcDbEntity
  8
0
100
AcDbLine
 10
33.51615572612195
 20
-3.651651839367217e-15
 30
17.90718585770387
 11
36.98195428662857
 21
-4.036432775425934e-15
 31
19.908165589569386
  0
LINE
  5
51
330
17
100
AcDbEntity
  8
0
100
AcDbLine
 10
31.393420887186075
 20
-8.375
 30
-18.1250000000001
 11
31.393420887186075
 21
-5.375
 31
-18.1250000000001
  0
CIRCLE
  5
52
330
17
100
AcDbEntity
  8
0
100
AcDbCircle
 10
1.6830348988342965e-13
 20
-5.375
 30
-9.984813064818726e-14
 40
36.25
  0
CIRCLE
  5
53
330
17
100
AcDbEntity
  8
0
100
AcDbCircle
 10
1.7224413296133848e-13
 20
-2.375
 30
-1.0092175716574986e-13
 40
38.0
  0
LINE
  5
54
330
17
100
AcDbEntity
  8
0
100
AcDbLine
 10
32.908965343808845
 20
-2.375
 30
-19.0000000000001
 11
32.908965343808845
 21
-1.25
 31
-19.0000000000001
  0
LINE
  5
55
330
17
100
AcDbEntity
  8
0
100
AcDbLine
 10
32.908965343808845
 20
1.25
 30
-19.0000000000001
 11
32.908965343808845
 21
3.625
 31
-19.0000000000001
  0
CIRCLE
  5
56
330
17
100
AcDbEntity
  8
0
100
AcDbCircle
 10
28.57883832488648
 20
-5.375
 30
-16.499999999999993
 40
1.625
  0
CIRCLE
  5
57
330
17
100
AcDbEntity
  8
0
100
AcDbCircle
 10
28.578838324886476
 20
-5.3750000000000036
 30
16.5
 40
1.625
  0
CIRCLE
  5
58
330
17
100
AcDbEntity
  8
0
100
AcDbCircle
 10
1.7886186492697043e-13
 20
-5.375
 30
-1.0619263680042408e-13
 40
29.75
  0
CIRCLE
  5
59
330
17
100
AcDbEntity
  8
0
100
AcDbCircle
 10
4.864164626638967e-15
 20
-5.3749999999999964
 30
-33.0
 40
1.625
  0
CIRCLE
  5
5A
330
17
100
AcDbEntity
  8
0
100
AcDbCircle
 10
-1.822847428556429e-14
 20
-5.3750000000000036
 30
33.0
 40
1.625
  0
CIRCLE
  5
5B
330
17
100
AcDbEntity
  8
0
100
AcDbCircle
 10
-28.57883832488647
 20
-5.3749999999999964
 30
-16.500000000000007
 40
1.625
  0
CIRCLE
  5
5C
330
17
100
AcDbEntity
  8
0
100
AcDbCircle
 10
-28.57883832488648
 20
-5.375
 30
16.499999999999996
 40
1.625
  0
CIRCLE
  5
5D
330
17
100
AcDbEntity
  8
0
100
AcDbCircle
 10
28.57883832488648
 20
-2.375
 30
-16.499999999999993
 40
1.625
  0
CIRCLE
  5
5E
330
17
100
AcDbEntity
  8
0
100
AcDbCircle
 10
28.578838324886476
 20
-2.3750000000000036
 30
16.5
 40
1.625
  0
CIRCLE
  5
5F
330
17
100
AcDbEntity
  8
0
100
AcDbCircle
 10
1.7224413296133848e-13
 20
-2.375
 30
-1.0092175716574986e-13
 40
29.75
  0
CIRCLE
  5
60
330
17
100
AcDbEntity
  8
0
100
AcDbCircle
 10
4.864164626638967e-15
 20
-2.3749999999999964
 30
-33.0
 40
1.625
  0
CIRCLE
  5
61
330
17
100
AcDbEntity
  8
0
100
AcDbCircle
 10
-1.822847428556429e-14
 20
-2.3750000000000036
 30
33.0
 40
1.625
  0
CIRCLE
  5
62
330
17
100
AcDbEntity
  8
0
100
AcDbCircle
 10
-28.57883832488647
 20
-2.3749999999999964
 30
-16.500000000000007
 40
1.625
  0
CIRCLE
  5
63
330
17
100
AcDbEntity
  8
0
100
AcDbCircle
 10
-28.57883832488648
 20
-2.375
 30
16.499999999999996
 40
1.625
  0
LINE
  5
64
330
17
100
AcDbEntity
  8
0
100
AcDbLine
 10
27.171547043736766
 20
-2.375
 30
-15.687499999999993
 11
27.171547043736766
 21
-5.375
 31
-15.687499999999993
  0
LINE
  5
65
330
17
100
AcDbEntity
  8
0
100
AcDbLine
 10
27.171547043736762
 20
-2.375000000000003
 30
15.6875
 11
27.171547043736762
 21
-5.3750000000000036
 31
15.6875
  0
LINE
  5
66
330
17
100
AcDbEntity
  8
0
100
AcDbLine
 10
25.764255762587222
 20
-2.375
 30
-14.8750000000001
 11
25.764255762587233
 21
-5.375
 31
-14.875000000000107
  0
LINE
  5
67
330
17
100
AcDbEntity
  8
0
100
AcDbLine
 10
5.324624881497021e-15
 20
-2.374999999999997
 30
-31.375
 11
5.158091427803248e-15
 21
-5.3749999999999964
 31
-31.375
  0
LINE
  5
68
330
17
100
AcDbEntity
  8
0
100
AcDbLine
 10
-1.739136138039169e-14
 20
-2.375000000000003
 30
31.375
 11
-1.7557894834085465e-14
 21
-5.3750000000000036
 31
31.375
  0
LINE
  5
69
330
17
100
AcDbEntity
  8
0
100
AcDbLine
 10
-27.171547043736755
 20
-2.374999999999997
 30
-15.687500000000007
 11
-27.171547043736755
 21
-5.3749999999999964
 31
-15.687500000000007
  0
LINE
  5
6A
330
17
100
AcDbEntity
  8
0
100
AcDbLine
 10
-27.171547043736766
 20
-2.375
 30
15.687499999999996
 11
-27.171547043736766
 21
-5.375
 31
15.687499999999995
  0
ENDSEC
  0
SECTION
  2
OBJECTS
  0
DICTIONARY
  5
A
330
0
100
AcDbDictionary
280
0
281
1
  3
ACAD_COLOR
350
B
  3
ACAD_GROUP
350
C
  3
ACAD_LAYOUT
350
D
  3
ACAD_MATERIAL
350
E
  3
ACAD_MLEADERSTYLE
350
F
  3
ACAD_MLINESTYLE
350
10
  3
ACAD_PLOTSETTINGS
350
11
  3
ACAD_PLOTSTYLENAME
350
12
  3
ACAD_SCALELIST
350
14
  3
ACAD_TABLESTYLE
350
15
  3
ACAD_VISUALSTYLE
350
16
  3
EZDXF_META
350
2D
  0
DICTIONARY
  5
B
330
A
100
AcDbDictionary
280
0
281
1
  0
DICTIONARY
  5
C
330
A
100
AcDbDictionary
280
0
281
1
  0
DICTIONARY
  5
D
330
A
100
AcDbDictionary
280
0
281
1
  3
Model
350
1A
  3
Layout1
350
1E
  0
DICTIONARY
  5
E
330
A
100
AcDbDictionary
280
0
281
1
  3
ByBlock
350
1F
  3
ByLayer
350
20
  3
Global
350
21
  0
DICTIONARY
  5
F
330
A
100
AcDbDictionary
280
0
281
1
  3
Standard
350
2C
  0
DICTIONARY
  5
10
330
A
100
AcDbDictionary
280
0
281
1
  3
Standard
350
22
  0
DICTIONARY
  5
11
330
A
100
AcDbDictionary
280
0
281
1
  0
ACDBDICTIONARYWDFLT
  5
12
330
A
100
AcDbDictionary
280
0
281
1
  3
Normal
350
13
100
AcDbDictionaryWithDefault
340
13
  0
ACDBPLACEHOLDER
  5
13
330
12
  0
DICTIONARY
  5
14
330
A
100
AcDbDictionary
280
0
281
1
  0
DICTIONARY
  5
15
330
A
100
AcDbDictionary
280
0
281
1
  0
DICTIONARY
  5
16
330
A
100
AcDbDictionary
280
0
281
1
  0
LAYOUT
  5
1A
330
D
100
AcDbPlotSettings
  1

  2
Adobe PDF
  4
A3
  6

 40
7.5
 41
20.0
 42
7.5
 43
20.0
 44
420.0
 45
297.0
 46
0.0
 47
0.0
 48
0.0
 49
0.0
140
0.0
141
0.0
142
1.0
143
1.0
 70
1024
 72
1
 73
0
 74
5
  7

 75
16
 76
0
 77
2
 78
300
147
1.0
148
0.0
149
0.0
100
AcDbLayout
  1
Model
 70
1
 71
0
 10
0.0
 20
0.0
 11
420.0
 21
297.0
 12
0.0
 22
0.0
 32
0.0
 14
1e+20
 24
1e+20
 34
1e+20
 15
-1e+20
 25
-1e+20
 35
-1e+20
146
0.0
 13
0.0
 23
0.0
 33
0.0
 16
1.0
 26
0.0
 36
0.0
 17
0.0
 27
1.0
 37
0.0
 76
1
330
17
  0
LAYOUT
  5
1E
330
D
100
AcDbPlotSettings
  1

  2
Adobe PDF
  4
A3
  6

 40
7.5
 41
20.0
 42
7.5
 43
20.0
 44
420.0
 45
297.0
 46
0.0
 47
0.0
 48
0.0
 49
0.0
140
0.0
141
0.0
142
1.0
143
1.0
 70
0
 72
1
 73
0
 74
5
  7

 75
16
 76
0
 77
2
 78
300
147
1.0
148
0.0
149
0.0
100
AcDbLayout
  1
Layout1
 70
1
 71
1
 10
0.0
 20
0.0
 11
420.0
 21
297.0
 12
0.0
 22
0.0
 32
0.0
 14
1e+20
 24
1e+20
 34
1e+20
 15
-1e+20
 25
-1e+20
 35
-1e+20
146
0.0
 13
0.0
 23
0.0
 33
0.0
 16
1.0
 26
0.0
 36
0.0
 17
0.0
 27
1.0
 37
0.0
 76
1
330
1B
  0
MATERIAL
  5
1F
102
{ACAD_REACTORS
330
E
102
}
330
E
100
AcDbMaterial
  1
ByBlock
  2

 70
0
 40
1.0
 71
1
 41
1.0
 91
-1023410177
 42
1.0
 72
1
  3

 73
1
 74
1
 75
1
 44
0.5
 73
0
 45
1.0
 46
1.0
 77
1
  4

 78
1
 79
1
170
1
 48
1.0
171
1
  6

172
1
173
1
174
1
140
1.0
141
1.0
175
1
  7

176
1
177
1
178
1
143
1.0
179
1
  8

270
1
271
1
272
1
145
1.0
146
1.0
273
1
  9

274
1
275
1
276
1
 42
1.0
 72
1
  3

 73
1
 74
1
 75
1
 94
63
  0
MATERIAL
  5
20
102
{ACAD_REACTORS
330
E
102
}
330
E
100
AcDbMaterial
  1
ByLayer
  2

 70
0
 40
1.0
 71
1
 41
1.0
 91
-1023410177
 42
1.0
 72
1
  3

 73
1
 74
1
 75
1
 44
0.5
 73
0
 45
1.0
 46
1.0
 77
1
  4

 78
1
 79
1
170
1
 48
1.0
171
1
  6

172
1
173
1
174
1
140
1.0
141
1.0
175
1
  7

176
1
177
1
178
1
143
1.0
179
1
  8

270
1
271
1
272
1
145
1.0
146
1.0
273
1
  9

274
1
275
1
276
1
 42
1.0
 72
1
  3

 73
1
 74
1
 75
1
 94
63
  0
MATERIAL
  5
21
102
{ACAD_REACTORS
330
E
102
}
330
E
100
AcDbMaterial
  1
Global
  2

 70
0
 40
1.0
 71
1
 41
1.0
 91
-1023410177
 42
1.0
 72
1
  3

 73
1
 74
1
 75
1
 44
0.5
 73
0
 45
1.0
 46
1.0
 77
1
  4

 78
1
 79
1
170
1
 48
1.0
171
1
  6

172
1
173
1
174
1
140
1.0
141
1.0
175
1
  7

176
1
177
1
178
1
143
1.0
179
1
  8

270
1
271
1
272
1
145
1.0
146
1.0
273
1
  9

274
1
275
1
276
1
 42
1.0
 72
1
  3

 73
1
 74
1
 75
1
 94
63
  0
MLINESTYLE
  5
22
102
{ACAD_REACTORS
330
10
102
}
330
10
100
AcDbMlineStyle
  2
Standard
 70
0
  3

 62
256
 51
90.0
 52
90.0
 71
2
 49
0.5
 62
256
  6
BYLAYER
 49
-0.5
 62
256
  6
BYLAYER
  0
MLEADERSTYLE
  5
2C
102
{ACAD_REACTORS
330
F
102
}
330
F
100
AcDbMLeaderStyle
179
2
170
2
171
1
172
0
 90
2
 40
0.0
 41
0.0
173
1
 91
-1056964608
 92
-2
290
1
 42
2.0
291
1
 43
8.0
  3
Standard
 44
4.0
300

342
29
174
1
175
1
176
0
178
1
 93
-1056964608
 45
4.0
292
0
297
0
 46
4.0
 94
-1056964608
 47
1.0
 49
1.0
140
1.0
294
1
141
0.0
177
0
142
1.0
295
0
296
0
143
3.75
271
0
272
9
273
9
  0
DICTIONARY
  5
2D
330
A
100
AcDbDictionary
281
1
  3
CREATED_BY_EZDXF
350
2E
  3
WRITTEN_BY_EZDXF
350
6E
  0
DICTIONARYVAR
  5
2E
330
2D
100
DictionaryVariables
280
0
  1
1.0.3 @ 2023-09-28T16:13:09.379088+00:00
  0
DICTIONARYVAR
  5
6E
330
2D
100
DictionaryVariables
280
0
  1
1.0.3 @ 2023-09-28T16:13:09.442234+00:00
  0
ENDSEC
  0
EOF
