<?xml version="1.0" encoding="UTF-8" standalone="no"?>
<svg
   xmlns:svg="http://www.w3.org/2000/svg"
   xmlns="http://www.w3.org/2000/svg"
   width="800.0"
   height="800.0"

>
    <g transform="scale(130.0, -130.0)   translate(3.076923076923077,-3.076923076923077)" stroke-width="0.5"  fill="none">
       <!-- hidden lines -->
       <g  stroke="rgb(127,127,127)" fill="none" stroke-dasharray="0.5,0.5" >

       </g>

       <!-- solid lines -->
       <g  stroke="rgb(10,10,10)" fill="none">
			<path d="M0.0,-3.0 L0.1544362643110396,-2.9960222696544916 L0.3084629914120812,-2.984099626843767 L0.4616717301121853,-2.9642636882732316 L0.6136561983786024,-2.9365670552860736 L0.7640133607236861,-2.9010831743739613 L0.9123444969825534,-2.857906142410148 L1.058256259647284,-2.807150457121481 L1.2013617169537991,-2.7489507134610145 L1.3412813789553413,-2.683461246686387 L1.4776442038615927,-2.610855723090466 L1.610088581974801,-2.531326679469557 L1.7382632946136902,-2.445085012550434 L1.8618284454822678,-2.352359419730132 L1.9804563620136946,-2.25339579261156 L2.09383246429903,-2.148456564943181 L2.2016560992965966,-2.0378200166918803 L2.3036413381097995,-1.9217795360945265 L2.3995177342191574,-1.8006428416451057 L2.4890310406578555,-1.6747311660805957 L2.5719438842289963,-1.5443784045294933 L2.6480363949766414,-1.409930229081961 L2.7171067892414142,-1.2717431721295829 L2.7789719047544845,-1.1301836809055559 L2.833467686350984,-0.9856271457325045 L2.8804496210148054,-0.8384569045548285 L2.9197931211011476,-0.6890632263953865 L2.951393854720549,-0.5378422764322066 L2.9751680224083046,-0.3851950654396523 L2.99105257934558,-0.23152638637993825 L2.9990054025429393,-0.07724374096496464 L2.999005402542939,0.07724374096496694 L2.9910525793455798,0.23152638637994055 L2.975168022408304,0.38519506543965454 L2.951393854720549,0.5378422764322088 L2.919793121101147,0.6890632263953889 L2.8804496210148045,0.8384569045548308 L2.833467686350983,0.9856271457325068 L2.778971904754484,1.1301836809055579 L2.7171067892414134,1.2717431721295842 L2.648036394976641,1.4099302290819624 L2.5719438842289954,1.5443784045294946 L2.4890310406578546,1.674731166080597 L2.399517734219156,1.8006428416451072 L2.3036413381097978,1.9217795360945282 L2.201656099296595,2.037820016691882 L2.0938324642990276,2.148456564943183 L1.980456362013692,2.2533957926115624 L1.861828445482265,2.352359419730134 L1.7382632946136871,2.445085012550437 L1.6100885819747972,2.5313266794695597 L1.4776442038615887,2.6108557230904683 L1.3412813789553368,2.683461246686389 L1.201361716953794,2.7489507134610167 L1.0582562596472787,2.807150457121483 L0.9123444969825477,2.8579061424101493 L0.7640133607236801,2.9010831743739627 L0.613656198378596,2.9365670552860745 L0.46167173011217855,2.9642636882732325 L0.30846299141207406,2.9840996268437676 L0.15443626431103222,2.996022269654492 L-7.626211737556922e-15,3.0 L-0.15443626431104746,2.996022269654491 L-0.30846299141208927,2.9840996268437663 L-0.4616717301121936,2.9642636882732303 L-0.6136561983786109,2.936567055286072 L-0.7640133607236947,2.9010831743739587 L-0.9123444969825624,2.857906142410145 L-1.058256259647293,2.8071504571214776 L-1.2013617169538082,2.74895071346101 L-1.3412813789553504,2.6834612466863823 L-1.477644203861602,2.6108557230904608 L-1.6100885819748103,2.5313266794695517 L-1.7382632946136995,2.445085012550428 L-1.8618284454822769,2.3523594197301247 L-1.9804563620137037,2.253395792611552 L-2.0938324642990387,2.148456564943172 L-2.201656099296605,2.037820016691871 L-2.3036413381098066,1.9217795360945176 L-2.3995177342191636,1.8006428416450975 L-2.489031040657861,1.6747311660805877 L-2.5719438842290003,1.5443784045294864 L-2.648036394976645,1.4099302290819549 L-2.7171067892414165,1.2717431721295778 L-2.7789719047544863,1.1301836809055519 L-2.8334676863509847,0.9856271457325017 L-2.8804496210148054,0.8384569045548269 L-2.9197931211011476,0.6890632263953863 L-2.951393854720549,0.5378422764322077 L-2.975168022408304,0.38519506543965465 L-2.9910525793455798,0.23152638637994194 L-2.999005402542939,0.07724374096496966 L-2.9990054025429393,-0.07724374096496057 L-2.99105257934558,-0.2315263863799329 L-2.9751680224083055,-0.38519506543964566 L-2.9513938547205507,-0.5378422764321987 L-2.91979312110115,-0.6890632263953774 L-2.880449621014808,-0.8384569045548181 L-2.8334676863509873,-0.9856271457324932 L-2.7789719047544894,-1.1301836809055434 L-2.71710678924142,-1.2717431721295696 L-2.648036394976649,-1.4099302290819469 L-2.571943884229005,-1.5443784045294784 L-2.489031040657866,-1.67473116608058 L-2.399517734219169,-1.80064284164509 L-2.303641338109813,-1.9217795360945107 L-2.201656099296611,-2.0378200166918643 L-2.0938324642990462,-2.148456564943165 L-1.9804563620137121,-2.2533957926115447 L-1.861828445482287,-2.3523594197301168 L-1.7382632946137113,-2.44508501255042 L-1.6100885819748232,-2.531326679469543 L-1.4776442038616167,-2.6108557230904523 L-1.341281378955367,-2.683461246686374 L-1.2013617169538262,-2.7489507134610025 L-1.0582562596473126,-2.8071504571214705 L-0.9123444969825837,-2.857906142410138 L-0.7640133607237176,-2.901083174373953 L-0.6136561983786354,-2.9365670552860665 L-0.46167173011221974,-2.9642636882732263 L-0.30846299141211686,-2.9840996268437636 L-0.1544362643110765,-2.99602226965449 L-3.803828170689367e-14,-3.0 " />
			<path d="M2.5905203907920316e-16,-2.000000000000014 L0.125581039058627,-1.9960534568565573 L0.2506664671286088,-1.98422940262897 L0.37476262917144954,-1.9645745014573917 L0.49737977432970987,-1.9371663222572764 L0.618033988749895,-1.9021130325903213 L0.7362491053693561,-1.8595529717765171 L0.8515585831301454,-1.8096541049320534 L0.9635073482034306,-1.7526133600877414 L1.0716535899579933,-1.6886558510040446 L1.1755705045849463,-1.6180339887499091 L1.2748479794973795,-1.541026485551593 L1.3690942118573772,-1.4579372548428375 L1.4579372548428229,-1.3690942118573919 L1.5410264855515783,-1.274847979497394 L1.6180339887498947,-1.175570504584961 L1.6886558510040302,-1.0716535899580077 L1.7526133600877274,-0.9635073482034449 L1.8096541049320394,-0.8515585831301595 L1.8595529717765031,-0.7362491053693699 L1.9021130325903075,-0.6180339887499088 L1.9371663222572626,-0.4973797743297233 L1.9645745014573777,-0.3747626291714628 L1.984229402628956,-0.25066646712862184 L1.9960534568565433,-0.12558103905863993 L2.0000000000000004,-1.3001051765566548e-14 L1.9960534568565433,0.12558103905861392 L1.9842294026289558,0.2506664671285958 L1.9645745014573772,0.37476262917143677 L1.937166322257262,0.4973797743296972 L1.9021130325903066,0.6180339887498826 L1.8595529717765023,0.7362491053693438 L1.8096541049320385,0.8515585831301329 L1.7526133600877263,0.9635073482034182 L1.688655851004029,1.0716535899579809 L1.6180339887498936,1.175570504584934 L1.541026485551577,1.2748479794973673 L1.4579372548428213,1.3690942118573652 L1.3690942118573755,1.457937254842811 L1.2748479794973773,1.5410264855515663 L1.1755705045849438,1.6180339887498827 L1.0716535899579904,1.688655851004018 L0.9635073482034275,1.7526133600877147 L0.851558583130142,1.8096541049320265 L0.7362491053693524,1.85955297177649 L0.618033988749891,1.9021130325902942 L0.4973797743297056,1.937166322257249 L0.37476262917144504,1.964574501457364 L0.2506664671286041,1.984229402628942 L0.1255810390586221,1.9960534568565291 L-4.825089119292078e-15,1.9999999999999858 L-0.12558103905863174,1.9960534568565287 L-0.2506664671286136,1.9842294026289409 L-0.3747626291714545,1.9645745014573621 L-0.4973797743297149,1.9371663222572466 L-0.6180339887499002,1.902113032590291 L-0.7362491053693614,1.8595529717764863 L-0.8515585831301508,1.809654104932022 L-0.963507348203436,1.7526133600877098 L-1.0716535899579986,1.6886558510040124 L-1.1755705045849516,1.6180339887498767 L-1.2748479794973846,1.5410264855515599 L-1.3690942118573823,1.457937254842804 L-1.4579372548428278,1.3690942118573577 L-1.541026485551583,1.2748479794973595 L-1.6180339887498987,1.1755705045849265 L-1.6886558510040333,1.071653589957974 L-1.7526133600877296,0.9635073482034117 L-1.8096541049320407,0.8515585831301269 L-1.859552971776504,0.7362491053693381 L-1.902113032590308,0.6180339887498776 L-1.9371663222572626,0.49737977432969294 L-1.9645745014573774,0.3747626291714333 L-1.9842294026289555,0.25066646712859325 L-1.996053456856543,0.1255810390586122 L-1.9999999999999998,-1.3843460675457795e-14 L-1.996053456856543,-0.12558103905863988 L-1.9842294026289558,-0.2506664671286209 L-1.9645745014573777,-0.374762629171461 L-1.9371663222572628,-0.49737977432972064 L-1.9021130325903082,-0.6180339887499053 L-1.8595529717765042,-0.7362491053693658 L-1.8096541049320412,-0.8515585831301546 L-1.7526133600877298,-0.9635073482034394 L-1.6886558510040335,-1.0716535899580018 L-1.6180339887498991,-1.1755705045849545 L-1.5410264855515834,-1.2748479794973873 L-1.4579372548428289,-1.369094211857385 L-1.3690942118573841,-1.4579372548428307 L-1.2748479794973873,-1.541026485551586 L-1.175570504584955,-1.6180339887499025 L-1.071653589958003,-1.6886558510040381 L-0.9635073482034413,-1.7526133600877354 L-0.8515585831301571,-1.8096541049320476 L-0.7362491053693687,-1.8595529717765118 L-0.6180339887499086,-1.9021130325903168 L-0.4973797743297242,-1.9371663222572726 L-0.3747626291714648,-1.9645745014573885 L-0.2506664671286249,-1.9842294026289677 L-0.125581039058644,-1.9960534568565562 L-1.799437507458224e-14,-2.000000000000014 " />

       </g>
    </g>
    
</svg>
