<?xml version="1.0" encoding="UTF-8" standalone="no"?>
<svg
   xmlns:svg="http://www.w3.org/2000/svg"
   xmlns="http://www.w3.org/2000/svg"
   width="800.0"
   height="800.00000000031"

>
    <g transform="scale(8.773903242353423, -8.773903242353423)   translate(45.5897436923077,-45.589743692343035)" stroke-width="0.5"  fill="none">
       <!-- hidden lines -->
       <g  stroke="rgb(127,127,127)" fill="none" stroke-dasharray="0.5,0.5" >

       </g>

       <!-- solid lines -->
       <g  stroke="rgb(10,10,10)" fill="none">
			<path d="M0.16383962900363175,-44.44969804705847 L0.5388557333370948,-44.446733671020965 L0.9120844623484984,-44.4406413263206 L1.283061640573125,-44.43147817440408 L1.651329215218075,-44.41931575468001 L2.0164360807239925,-44.40423950383247 L2.377938892663608,-44.38634820317622 L2.7354028705066176,-44.365753357917235 L3.0884025887804265,-44.34257851218243 L3.436522756156291,-44.31695850368202 L3.7793589819903692,-44.28903866186835 L4.11651852984923,-44.258973953454856 L4.447621057549325,-44.226928079158775 L4.772299343239954,-44.19307252553138 L5.0901999970592735,-44.157585575739326 L5.400984157892845,-44.1206512831609 L5.704328174764252,-44.08245841166078 L6.287714842192134,-44.003035598768534 L6.8416451993880845,-43.920318651620676 L7.36704193254913,-43.835250578062016 L7.864225696590465,-43.74878803547979 L8.333567649116137,-43.661815700377154 L8.775477800083165,-43.57514760776431 L9.19039418731252,-43.489529251693014 L9.578772838415498,-43.405640315535045 L9.941078479703965,-43.32409790060506 L10.277775952653041,-43.24546012172841 L10.58932229848468,-43.1702299383544 L10.876164574327271,-43.09885780333087 L11.37744492926522,-42.9692476755857 L11.784223132531283,-42.859474870849375 L12.321903551964287,-42.707999155794795 L12.455518755419547,-42.66922256147096 L12.488880941758215,-42.65946968740557 L12.497220130369243,-42.65702743373726 L12.500000000000002,-42.656212912071794 " />
			<path d="M0.0,-44.45 L0.5954781078786331,-44.44601113511805 L1.1908493414394938,-44.43404525637963 L1.786006845546237,-44.41410451137862 L2.380843803421928,-44.38619247900982 L2.9752534558201433,-44.3503141688267 L3.569129120185746,-44.30647602014228 L4.162364209801892,-44.254685900873376 L4.754852252919843,-44.19495310612857 L5.34648691186814,-44.127288356539914 L5.937162002137716,-44.05170379633882 L6.526771511439515,-43.96821299117649 L7.115209618731212,-43.87683092568919 L7.702370713209597,-43.77757400080881 L8.288149413265225,-43.67046003081936 L8.872440585395953,-43.555508240159696 L9.455139363075912,-43.43273925997315 L10.036141165576597,-43.30217512440477 L10.615341716736642,-43.16383926664669 L11.192637063676944,-43.01775651473244 L11.767923595457749,-42.86395308708086 L12.341098061674396,-42.70245658779056 L12.91205759098832,-42.533296001685564 L13.480699709590056,-42.356501689113315 L14.046922359590855,-42.17210538049561 L14.610623917339696,-41.980140170633796 L15.17170321166234,-41.78064051276901 L15.73005954201916,-41.57364221239862 L16.285592696578533,-41.35918242085001 L16.83820297020251,-41.137299628612766 L17.387791182341534,-40.90803365843054 L17.934258694835023,-40.671425658153844 L18.4775074296146,-40.42751809335489 L19.017439886306796,-40.176354739706134 L19.553959159732077,-39.91798067512346 L20.08696895729705,-39.65244227167584 L20.6163736162767,-39.37978718726258 L21.142078120983633,-39.10006435705989 L21.663988119821123,-38.81332398473815 L22.18200994221703,-38.51961753345151 L22.696050615435443,-38.21899771660153 L23.206017881263133,-37.911518488376274 L23.711820212567687,-37.59723503406689 L24.213366829724524,-37.276203760163085 L24.710567716909658,-36.94848228422951 L25.20333363825546,-36.61412942456479 L25.691576153866382,-36.27320518964494 L26.175207635691827,-35.92577076735335 L26.654141283253335,-35.57188851399895 L27.128291139223247,-35.21162194312472 L27.597572104851974,-34.8450357141085 L28.061899955241273,-34.47219562055817 L28.521191354460615,-34.09316857850325 L28.975363870504008,-33.70802261438501 L29.424335990084646,-33.31682685284734 L29.86802713326458,-32.91965150433053 L30.306357667916938,-32.51656785247011 L30.739248924018053,-32.10764824130312 L31.166623207766833,-31.692966062284075 L31.58840381552899,-31.272595741112912 L32.00451504760356,-30.84661272437733 L32.41488222180919,-30.415093466011893 L32.81943168688782,-29.978115413576354 L33.21809083572341,-29.535756994355648 L33.610788118373165,-29.088097601284023 L33.99745305490909,-28.635217578695876 L34.378016248067425,-28.17719820790585 L34.75240939570391,-27.71412169262073 L35.120565303052345,-27.246071144185834 L35.48241789478451,-26.773130566668442 L35.8379022268691,-26.295384841781097 L36.18695449822767,-25.81291971364728 L36.52951206218544,-25.325821773412375 L36.865513437714874,-24.834178443702626 L37.194898320470095,-24.338077962934772 L37.51760759361008,-23.83760936947938 L37.83358333840879,-23.33286248568051 L38.14276884465015,-22.82392790173475 L38.445108620806245,-22.31089695943239 L38.74054840399675,-21.793861735763706 L39.029035169727784,-21.272915026393342 L39.31051714140866,-20.74815032900563 L39.58494379964445,-20.21966182652397 L39.85226589130312,-19.687544370207227 L40.112435438355256,-19.15189346262613 L40.365405746485024,-18.612805240522828 L40.61113141347067,-18.070376457556595 L40.84956833733319,-17.524704466938836 L41.080673724251554,-16.975887203960454 L41.30440609624323,-16.424023168414788 L41.520725298608475,-15.869211406919204 L41.729592507137184,-15.311551495138566 L41.930970235076934,-14.75114351991373 L42.1248223398609,-14.188088061298338 L42.3111140295947,-13.622486174507022 L42.489811869300645,-13.054439371778411 L42.66088378691857,-12.484049604156048 L42.82429907906199,-11.911419243190572 L42.98002841652866,-11.336651062566455 L43.12804384956446,-10.75984821965651 L43.26831881287972,-10.181114237007598 L43.40082813041708,-9.60055298376075 L43.52554801986998,-9.018268657009097 L43.64245609695103,-8.43436576309695 L43.75153137940948,-7.848949098863364 L43.85275429079701,-7.262123732833572 L43.94610666398128,-6.673994986361651 L44.03157174440646,-6.084668414727818 L44.10913419310034,-5.4942497881937475 L44.17878008942722,-4.90284507301928 L44.24049693358644,-4.310560412443982 L44.29427364885573,-3.7175021076369297 L44.340100583579265,-3.1237765986181456 L44.37796951289985,-2.529490445155119 L44.40787364023519,-1.9347503076378325 L44.4298075984976,-1.3396629279357322 L44.44376745105735,-0.7443351102400705 L44.44975069244916,-0.14887370189506616 L44.447756248821904,0.44661442577868227 L44.43778447813132,1.0420223966650846 L44.419837170075745,1.63724334903431 L44.39391754577497,2.232170454721952 L44.36003025719204,2.826696938302176 L44.31818138629841,3.420716096251393 L44.26837844398233,4.014121316099036 L44.21063036870084,4.606806095561992 L44.14494752487551,5.198664061659253 L44.071341701032296,5.789588989803369 L43.98982610768572,6.379474822865263 L43.900415374967984,6.968215690208992 L43.80312555000312,7.555705926693033 L43.69797409402695,8.141840091634696 L43.5849798792532,8.726512987734244 L43.46416318548637,9.309619679955334 L43.335545696482015,9.891055514358394 L43.199150496054976,10.470716136883539 L43.05500206393642,11.048497512079669 L42.90312627138029,11.624295941776394 L42.743550376519984,12.198008083695408 L42.57630301947624,12.769530969998005 L42.40141421721685,13.338762025765385 L42.218915358169326,13.90559908740843 L42.028839196587434,14.469940421003676 L41.83121984667255,15.031684740552157 L41.626092776451,15.590731226157866 L41.41349480140835,16.146979542122537 L41.193464077881906,16.700329854953566 L40.96604009621254,17.25068285128176 L40.731263673657125,17.79793975568576 L40.48917694706277,18.342002348419904 L40.239823365304254,18.882772983042344 L39.98324768148599,19.420154603940343 L39.71949594490988,19.954050763749397 L39.448615492810546,20.48436564066332 L39.170654941859425,21.011004055631993 L38.8856641794392,21.53387148944377 L38.593694354690214,22.052874099689433 L38.29479786933037,22.56791873760473 L37.989028368250274,23.078912964788362 L37.67644072988524,23.58576506979251 L37.3570910563659,24.088384084582906 L37.031036663449186,24.586679800865394 L36.6983360702315,25.080562786276275 L36.359048988645895,25.569944400433258 L36.01323631274524,26.05473681084435 L35.66096010777312,26.534853008671718 L35.302283599024584,27.010206824347716 L34.93727116049873,27.48071294304032 L34.56598830334505,27.946286919965114 L34.188501664105736,28.40684519554116 L33.804878992755974,28.862305110387943 L33.41518914054444,29.312584920160848 L33.019502047636095,29.75760381022228 L32.61788873055959,30.197281910146053 L32.21042126946145,30.631540308052184 L31.797172795169395,31.060301064769796 L31.378217476067075,31.483487227825304 L30.95363050478259,31.90102284525361 L30.52348808469318,32.31283297922969 L30.087867416248503,32.71884371951814 L29.64684668311498,33.11898219673839 L29.200505038143664,33.51317659544298 L28.74892258916416,33.90135616700675 L28.292180384607153,34.28345124232464 L27.83036039895813,34.65939324431551 L27.363545518044873,35.02911470023024 L26.89181952416142,35.39254925376146 L26.41526708103109,35.749631676952916 L25.93397371861136,36.1002978819064 L25.448025817743225,36.444484932283984 L24.957510594647896,36.78213105460365 L24.46251608527351,37.113175649326145 L23.963131129494766,37.437559301731184 L23.45944535516826,37.755223792581006 L22.95154916204637,38.066112108569335 L22.439533705552645,38.370168452553955 L21.92349088042156,38.667338253570975 L21.40351330420553,38.95756817662901 L20.879694300652286,39.24080613228159 L20.35212788295543,39.517001285975994 L19.82090873688128,39.786104067176815 L19.286132203775,40.04806617826276 L18.74789426344909,40.302840603194866 L18.206291516957236,40.550381615954876 L17.661421169256716,40.790644788751884 L17.113381011762385,41.02358699999613 L16.56226940479542,41.24916644203829 L16.008185259929945,41.46734262867301 L15.451228022240757,41.67807640240517 L14.891497652455234,41.88132994147775 L14.329094609012765,42.077066766659975 L13.764119830034815,42.26525174779446 L13.1966747152089,42.445851110102225 L12.62686110758973,42.61883244024451 L12.05478127532078,42.784164692140195 L11.480537893279553,42.94181819253782 L10.904234024649872,43.09176464634128 L10.325973102424442,43.23397714168808 L9.745858910841068,43.36843015477941 L9.163995566755831,43.49509955446107 L8.580487500956549,43.61396260655444 L7.995439439419917,43.7249979779367 L7.408956384515649,43.82818574036969 L6.821143596161027,43.92350737407649 L6.232106572929217,44.01094577106532 L5.6419510331147595,44.09048523820004 L5.0507828957596175,44.16211150001664 L4.458708261643204,44.22581170128542 L3.865833394239782,44.28157440931816 L3.2722647006466743,44.32938961602 L2.6781087124866882,44.36924873968572 L2.0834720667881963,44.40114462653991 L1.4884614868462962,44.42507155202089 L0.8931837630684895,44.44102522180818 L0.29774573380831443,44.44900277259321 L-0.2977457338096261,44.449002772593204 L-0.893183763069801,44.44102522180816 L-1.4884614868476072,44.425071552020846 L-2.0834720667895064,44.401144626539846 L-2.6781087124879974,44.369248739685645 L-3.2722647006479826,44.32938961601991 L-3.865833394241089,44.28157440931805 L-4.458708261644509,44.225811701285295 L-5.050782895760921,44.16211150001649 L-5.641951033116062,44.090485238199875 L-6.232106572930516,44.01094577106514 L-6.821143596162323,43.92350737407629 L-7.408956384516943,43.82818574036947 L-7.995439439421207,43.72499797793647 L-8.580487500957835,43.61396260655418 L-9.163995566757114,43.4950995544608 L-9.74585891084235,43.36843015477912 L-10.325973102425719,43.233977141687774 L-10.904234024651144,43.091764646340955 L-11.480537893280822,42.94181819253748 L-12.054781275322041,42.78416469213984 L-12.626861107590988,42.61883244024414 L-13.196674715210152,42.445851110101835 L-13.764119830036064,42.26525174779405 L-14.329094609014009,42.077066766659556 L-14.89149765245647,41.88132994147731 L-15.451228022241986,41.67807640240471 L-16.00818525993117,41.46734262867253 L-16.562269404796638,41.249166442037804 L-17.113381011763597,41.023586999995615 L-17.66142116925792,40.79064478875136 L-18.206291516958434,40.550381615954336 L-18.74789426345028,40.30284060319432 L-19.286132203776184,40.04806617826218 L-19.82090873688245,39.78610406717623 L-20.352127882956594,39.51700128597539 L-20.879694300653444,39.24080613228098 L-21.40351330420668,38.95756817662838 L-21.923490880422698,38.66733825357033 L-22.43953370555378,38.370168452553294 L-22.95154916204749,38.06611210856865 L-23.459445355169372,37.75522379258031 L-23.96313112949587,37.43755930173048 L-24.462516085274608,37.11317564932542 L-24.95751059464898,36.782131054602914 L-25.4480258177443,36.44448493228324 L-25.933973718612425,36.10029788190563 L-26.415267081032145,35.74963167695214 L-26.89181952416246,35.39254925376067 L-27.36354551804591,35.029114700229435 L-27.83036039895915,34.659393244314685 L-28.292180384608162,34.2834512423238 L-28.74892258916516,33.90135616700591 L-29.20050503814465,33.51317659544211 L-29.64684668311596,33.11898219673751 L-30.08786741624947,32.71884371951725 L-30.523488084694133,32.31283297922878 L-30.953630504783533,31.901022845252697 L-31.378217476068006,31.48348722782438 L-31.797172795170308,31.060301064768858 L-32.21042126946235,30.631540308051235 L-32.61788873056049,30.19728191014509 L-33.019502047636976,29.75760381022131 L-33.4151891405453,29.31258492015986 L-33.80487899275683,28.862305110386945 L-34.18850166410656,28.40684519554016 L-34.56598830334585,27.94628691996413 L-34.937271160499506,27.48071294303934 L-35.30228359902534,27.01020682434674 L-35.66096010777384,26.534853008670748 L-36.01323631274594,26.054736810843387 L-36.35904898864657,25.5699444004323 L-36.698336070232145,25.080562786275323 L-37.03103666344982,24.58667980086445 L-37.35709105636651,24.088384084581968 L-37.676440729885826,23.585765069791584 L-37.98902836825083,23.078912964787442 L-38.29479786933091,22.56791873760382 L-38.593694354690726,22.05287409968853 L-38.885664179439694,21.53387148944288 L-39.170654941859894,21.011004055631116 L-39.448615492810994,20.484365640662453 L-39.719495944910314,19.95405076374854 L-39.9832476814864,19.4201546039395 L-40.239823365304645,18.882772983041516 L-40.48917694706314,18.342002348419076 L-40.73126367365748,17.797939755684947 L-40.96604009621288,17.25068285128096 L-41.193464077882226,16.70032985495278 L-41.41349480140865,16.146979542121763 L-41.62609277645129,15.590731226157107 L-41.831219846672816,15.031684740551418 L-42.02883919658768,14.469940421002947 L-42.21891535816957,13.905599087407715 L-42.401414217217074,13.338762025764689 L-42.57630301947645,12.769530969997327 L-42.743550376520176,12.198008083694743 L-42.90312627138046,11.624295941775747 L-43.055002063936584,11.048497512079038 L-43.199150496055125,10.470716136882926 L-43.33554569648215,9.891055514357799 L-43.46416318548649,9.309619679954755 L-43.584979879253304,8.726512987733683 L-43.697974094027046,8.141840091634155 L-43.80312555000321,7.55570592669251 L-43.90041537496807,6.968215690208487 L-43.98982610768579,6.379474822864776 L-44.07134170103235,5.7895889898029 L-44.14494752487557,5.1986640616588025 L-44.21063036870089,4.606806095561561 L-44.26837844398237,4.014121316098624 L-44.31818138629844,3.420716096251 L-44.360030257192065,2.8266969383018026 L-44.39391754577498,2.232170454721598 L-44.419837170075766,1.6372433490339755 L-44.43778447813133,1.04202239666477 L-44.44775624882191,0.44661442577838717 L-44.44975069244916,-0.1488737018953415 L-44.44376745105734,-0.7443351102403261 L-44.42980759849759,-1.3396629279359678 L-44.40787364023518,-1.9347503076380483 L-44.377969512899845,-2.5294904451553153 L-44.34010058357925,-3.1237765986183224 L-44.29427364885572,-3.7175021076370864 L-44.24049693358643,-4.310560412444119 L-44.17878008942721,-4.902845073019396 L-44.109134193100324,-5.494249788193844 L-44.031571744406456,-6.084668414727896 L-43.94610666398127,-6.673994986361707 L-43.85275429079701,-7.26212373283361 L-43.75153137940948,-7.8489490988633825 L-43.64245609695103,-8.434365763096949 L-43.52554801986999,-9.018268657009077 L-43.40082813041709,-9.60055298376071 L-43.268318812879734,-10.18111423700754 L-43.12804384956448,-10.759848219656433 L-42.98002841652869,-11.336651062566359 L-42.82429907906202,-11.91141924319046 L-42.6608837869186,-12.484049604155915 L-42.48981186930069,-13.05443937177826 L-42.311114029594755,-13.622486174506852 L-42.12482233986096,-14.18808806129815 L-41.930970235077,-14.751143519913526 L-41.72959250713727,-15.31155149513834 L-41.52072529860856,-15.869211406918962 L-41.304406096243326,-16.424023168414532 L-41.08067372425167,-16.97588720396018 L-40.84956833733332,-17.524704466938545 L-40.61113141347081,-18.07037645755629 L-40.36540574648517,-18.612805240522505 L-40.11243543835542,-19.15189346262579 L-39.8522658913033,-19.687544370206872 L-39.58494379964464,-20.219661826523602 L-39.31051714140886,-20.748150329005245 L-39.029035169728004,-21.272915026392944 L-38.740548403996975,-21.793861735763294 L-38.445108620806494,-22.31089695943196 L-38.14276884465041,-22.82392790173431 L-37.83358333840907,-23.332862485680053 L-37.517607593610386,-23.837609369478912 L-37.19489832047041,-24.3380779629343 L-36.8655134377152,-24.834178443702143 L-36.52951206218578,-25.32582177341189 L-36.186954498228026,-25.812919713646778 L-35.83790222686947,-26.29538484178059 L-35.482417894784895,-26.77313056666793 L-35.12056530305275,-27.246071144185315 L-34.752409395704326,-27.714121692620207 L-34.37801624806786,-28.177198207905317 L-33.997453054909535,-28.63521757869534 L-33.610788118373634,-29.08809760128348 L-33.2180908357239,-29.535756994355104 L-32.81943168688832,-29.978115413575804 L-32.414882221809705,-30.415093466011335 L-32.0045150476041,-30.846612724376772 L-31.58840381552955,-31.27259574111235 L-31.166623207767405,-31.69296606228351 L-30.73924892401865,-32.10764824130255 L-30.306357667917553,-32.516567852469535 L-29.868027133265205,-32.919651504329956 L-29.424335990085293,-33.316826852846766 L-28.97536387050468,-33.70802261438443 L-28.5211913544613,-34.09316857850268 L-28.06189995524198,-34.4721956205576 L-27.59757210485269,-34.84503571410792 L-27.128291139223986,-35.21162194312414 L-26.6541412832541,-35.571888513998374 L-26.175207635692608,-35.92577076735278 L-25.691576153867185,-36.27320518964437 L-25.203333638256286,-36.61412942456422 L-24.710567716910504,-36.94848228422895 L-24.21336682972538,-37.276203760162524 L-23.711820212568572,-37.59723503406634 L-23.20601788126403,-37.91151848837572 L-22.696050615436366,-38.218997716600974 L-22.18200994221797,-38.51961753345097 L-21.663988119822086,-38.813323984737615 L-21.142078120984614,-39.10006435705936 L-20.616373616277702,-39.37978718726206 L-20.08696895729807,-39.652442271675326 L-19.55395915973312,-39.917980675122955 L-19.01743988630786,-40.17635473970563 L-18.477507429615684,-40.4275180933544 L-17.934258694836128,-40.67142565815335 L-17.387791182342657,-40.908033658430064 L-16.838202970203653,-41.1372996286123 L-16.285592696579695,-41.35918242084955 L-15.73005954202034,-41.57364221239817 L-15.171703211663543,-41.78064051276857 L-14.61062391734092,-41.980140170633376 L-14.046922359592095,-42.172105380495196 L-13.480699709591315,-42.35650168911291 L-12.912057590989601,-42.53329600168517 L-12.341098061675696,-42.70245658779018 L-11.767923595459068,-42.8639530870805 L-11.192637063678282,-43.01775651473209 L-10.615341716738,-43.16383926664636 L-10.036141165577972,-43.30217512440445 L-9.455139363077306,-43.43273925997284 L-8.872440585397367,-43.555508240159405 L-8.288149413266657,-43.670460030819086 L-7.702370713211046,-43.777574000808556 L-7.11520961873268,-43.87683092568895 L-6.526771511441001,-43.96821299117628 L-5.9371620021392175,-44.05170379633862 L-5.346486911869659,-44.12728835653973 L-4.75485225292138,-44.1949531061284 L-4.162364209803446,-44.25468590087323 L-3.569129120187318,-44.30647602014215 L-2.9752534558217323,-44.35031416882659 L-2.3808438034235335,-44.38619247900973 L-1.7860068455478586,-44.41410451137855 L-1.1908493414411316,-44.43404525637959 L-0.5954781078802867,-44.44601113511803 L-1.6690274017825838e-12,-44.45 " />
			<path d="M-0.3276770320859018,-44.4487921992238 L-5.595524044110789e-14,-44.449999999999996 " />
			<path d="M-3.552713678800501e-15,-44.45 L-0.37820085860824654,-44.44839101437618 L-0.7547934285591343,-44.443591060654995 L-1.129301588887585,-44.435652101475014 L-1.501255149430021,-44.424641058149824 L-1.8701907081357345,-44.41063934575129 L-2.2356524975097702,-44.39374233157847 L-2.59719321969189,-44.37405872106243 L-2.9543748696762093,-44.35170987515777 L-3.306769546176083,-44.32682906327122 L-3.653960249638819,-44.299560655777896 L-3.9955416669147965,-44.270059260175756 L-4.3311209420855725,-44.23848880492879 L-4.660318432955558,-44.20502157504938 L-4.982768452711835,-44.16983720347053 L-5.298119996256707,-44.133121622258386 L-5.606037450717542,-44.095065977715535 L-5.906201289638518,-44.05586551342577 L-6.198376373448884,-44.01570890348472 L-6.760503269215249,-43.93288170625458 L-7.293663273902865,-43.847519610923854 L-7.798175019910464,-43.760609762020636 L-8.27441081691861,-43.67306522004091 L-8.722784476941754,-43.5857262259671 L-9.143740005133019,-43.49936227719 L-9.537741114992278,-43.41467487704357 L-9.905261526627985,-43.3323008201614 L-10.246776006723346,-43.25281587586429 L-10.56275210885726,-43.176738731787985 L-10.853645644183253,-43.104534287075715 L-11.361947580271073,-42.97334808983486 L-11.774378933769864,-42.862180319486434 L-12.319466757834594,-42.70870213222039 L-12.454910888259349,-42.66939999838379 L-12.488729029488029,-42.65951416066084 L-12.4971821519449,-42.65703856030554 L-12.500000000000009,-42.65621291207179 " />
			<path d="M30.691364011103477,-32.15342400333037 L30.693621134180948,-32.151269364744685 L30.700390355650637,-32.14480568040641 L30.727450718483208,-32.118939468194945 L30.835534213105603,-32.01518904526036 L31.01525077757164,-31.84111680293889 L31.266062776731765,-31.594870130261448 L31.587195503751612,-31.273816205509117 L31.97756199360351,-30.8745530989949 L32.19826172715136,-30.64432152718869 L32.43568774949416,-30.392904762790852 L32.68991547614732,-30.11929487066256 L32.96080001645505,-29.822611582713762 L33.24796692588354,-29.50212190890473 L33.55095740430515,-29.157087620220405 L33.86922226557854,-28.786772692567602 L34.2021162023987,-28.390451660159847 L34.54889239451537,-27.967419157670943 L34.90869750841798,-27.517000930438396 L35.09318898743572,-27.28132307149876 L35.280567136585574,-27.038566591997892 L35.470693381231584,-26.78866197273955 L35.66342172439999,-26.531544408229873 L35.858598649546224,-26.267154399149234 L36.056063032820596,-25.995438387399386 L36.25564606520818,-25.716349435907684 L36.45645690941714,-25.43087198493618 L36.65678900870927,-25.1412473900139 L36.85636205884399,-24.847757977462535 L37.054949000970566,-24.55062636273708 L37.25232961505244,-24.25008119542152 L37.44829078566559,-23.946357064320427 L37.642626746347005,-23.639694395156884 L37.83513930249328,-23.330339340876623 L38.02563803280943,-23.018543664558543 L38.213940469307744,-22.70456461493144 L38.39987225585683,-22.388664794497103 L38.58326728528081,-22.071112020259648 L38.763967815008655,-21.75217917706117 L38.941824561273584,-21.432144063523687 L39.116696771862735,-21.11128923059737 L39.28845227741687,-20.789901812715062 L39.45693388013889,-20.468338202394722 L39.621000298083615,-20.148916476680665 L39.780161995959666,-19.832831650445623 L39.93445586985464,-19.520290319467076 L40.083925793383244,-19.211491169387912 L40.22862200807208,-18.90662506812072 L40.36860054888016,-18.60587514589508 L40.50392270278058,-18.309416863469533 L40.634654498438614,-18.017418069055402 L40.76086622513068,-17.73003904452502 L40.88263197915856,-17.447432541502522 L41.00002923612267,-17.16974380796074 L41.11313844752764,-16.897110605973264 L41.326827157933764,-16.367524465479544 L41.524387313019965,-15.859626681802839 L41.70653352553776,-15.374249943541496 L41.8739964594063,-14.912106501462931 L42.02751454573511,-14.47378737543441 L42.167826697619226,-14.059761443727979 L42.295665975566244,-13.670374532016751 L42.41184534201466,-13.305558026224862 L42.5175883938793,-12.963686830120789 L42.613623672031764,-12.644428693272353 L42.778905475446976,-12.073431450488652 L42.91190050368828,-11.591863312571823 L43.01610408520724,-11.198986061360984 L43.148711538957336,-10.676665809852569 L43.180767229944394,-10.54627141550077 L43.18871815312903,-10.513663674348315 L43.190702652128344,-10.505508281733757 L43.191364011095715,-10.502788908714919 " />
			<path d="M43.19136401108818,10.502788908745913 L43.190626600873976,10.505820953970568 L43.18841349676453,10.514915113918068 L43.17954288128471,10.551283181759505 L43.14373412659433,10.696761445648178 L43.08284142473262,10.939436677699597 L42.99499154995317,11.279769577703068 L42.87751705833356,11.71840564072204 L42.72692830981205,12.256104492276167 L42.63789178639736,12.562351854781346 L42.53887149240544,12.89367720456895 L42.42903223860562,13.250649819583888 L42.30753924472588,13.633584356099592 L42.17357050041192,14.042523031059558 L42.02625728068504,14.477437626015517 L41.86468757699316,14.93822054363118 L41.687910463812955,15.424675664431454 L41.49494166660347,15.936508906095225 L41.28477059691174,16.47331838758975 L41.1729133237255,16.750931624087496 L41.05636912043094,17.03458410044475 L40.93500849435122,17.32419056703114 L40.80870232381125,17.619656989464275 L40.67732232259629,17.920880168215966 L40.54074154602417,18.227747345174407 L40.3988349407072,18.54013579639905 L40.25200963813696,18.856781814342852 L40.1013534310686,19.175086799058654 L39.94697066916908,19.494666836745257 L39.788940613652166,19.815213980941866 L39.62735117084774,20.136423190710005 L39.462298942907886,20.45799260827582 L39.29388926138488,20.779623821793148 L39.12223620368116,21.101022113227277 L38.9474625923712,21.421896691359457 L38.7696999773953,21.74196090991214 L38.58908860112535,22.060932470794942 L38.405777346302486,22.378533612471344 L38.21992366684671,22.69449128344611 L38.03169350153843,23.008537300873442 L37.8412611705719,23.320408494285886 L37.648809254980655,23.62984683444391 L37.454567800832116,23.936537987815473 L37.2599736807389,24.23833453675472 L37.06581704032613,24.534215023773942 L36.87229524482951,24.82410810393328 L36.679602297870765,25.10795243007592 L36.48792861667453,25.3856960786837 L36.29746081415158,25.657296012339604 L36.108381487262996,25.922717576739803 L35.920869011156675,26.181934030279947 L35.735097338644294,26.43492610432271 L35.551235804664,26.681681592335547 L35.369448935450606,26.92219496617004 L35.189896262212095,27.156467017836068 L34.83810556604339,27.60631994016979 L34.49703326018286,28.031360945442568 L34.167757780487754,28.431792562151507 L33.85126128617782,28.80789143842826 L33.54842483102869,29.160001564438886 L33.260023932084444,29.48852841855888 L32.986724613418644,29.79393393697387 L32.728873934723275,30.076956472841427 L32.48567631983427,30.339468240292938 L32.25720830187047,30.58226629945094 L31.845351085538994,31.01090316172103 L31.494798358316718,31.366864303987477 L31.206658468748618,31.65354587857134 L30.820619588622613,32.02954742828626 L30.72372257602538,32.122505668261255 L30.69945890540182,32.145695240315995 L30.69338837771493,32.15149156317477 L30.691364011080417,32.153424003352406 " />
			<path d="M12.500000000000002,42.65621291207179 L12.497184211047138,42.6570379517196 L12.488738067192442,42.65951150126918 L12.454952601943605,42.66938780551947 L12.319665827743203,42.70864472064445 L11.775269015812016,42.86193578904702 L11.363307871044361,42.972988425732716 L10.855483761324225,43.104071412167265 L10.564843174637637,43.17622712397279 L10.249253432958128,43.25222889126535 L9.908100880117425,43.33165164711325 L9.540452211630052,43.41407915359001 L9.145877079579902,43.49891301165781 L8.723997255891181,43.585483529092684 L8.27447618590218,43.6730528433082 L7.797026996176257,43.76081429928981 L7.291421094308792,43.847892495311584 L6.757497536573,43.933344140901795 L6.195173339247322,44.01615987152425 L5.60445490946722,44.09526716444185 L5.298477404893454,44.13307870983427 L4.985450771444139,44.169534500229084 L4.665406859189351,44.204484787856295 L4.338385763894457,44.237776914400214 L4.004436363510515,44.26925557066763 L3.6636258635829897,44.298762347624944 L3.3162762628464297,44.32611884372488 L2.962986807153656,44.3511353764704 L2.6043829206249534,44.373637326741964 L2.241102039130263,44.39346755606651 L1.873792216634141,44.410487530849814 L1.503110688868281,44.42457831262054 L1.1297224004337663,44.43564140749339 L0.7542985014359456,44.443599469103376 L0.37751481975554313,44.44839685030829 L5.0315060339034545e-05,44.450000000001275 L-0.3774144793375389,44.44839770242009 L-0.754199020672933,44.44360115738491 L-1.129624320861088,44.435643900940946 L-1.503014504466011,44.42458156692736 L-1.8736983543957941,44.41049149103868 L-2.241010839216281,44.393472159989805 L-2.6042946159736897,44.37364250944064 L-2.962901502416108,44.35114107538107 L-3.3161939125030506,44.32612500472214 L-3.663546249091556,44.298768931883934 L-4.004359159394372,44.26926255420899 L-4.338310912765683,44.23778425496872 L-4.665334340710438,44.20449244150379 L-4.985380562892483,44.16954242466429 L-5.29840948136717,44.13308686445922 L-5.604389244078176,44.09527551037927 L-6.195112102416769,44.01616849042481 L-6.757440601225447,43.93335289823582 L-7.29136832328186,43.84790127052056 L-7.796978244310679,43.76082298556085 L-8.274431301873763,43.6730613471937 L-8.723956083818285,43.58549177000534 L-9.14583946043716,43.49892092126874 L-9.54041798449612,43.41408667515542 L-9.9080698832818,43.33165873475263 L-10.249225511796219,43.252235507574895 L-10.564818627799571,43.17623313023504 L-10.855462860081046,43.10407667593036 L-11.363294001514603,42.97299209333127 L-11.775260863805606,42.861938028551116 L-12.319664162125367,42.70864520119096 L-12.454952207786546,42.66938792047388 L-12.488737968457851,42.6595115300819 L-12.497184186102011,42.65703795898987 L-12.5,42.6562129120718 " />
			<path d="M-43.19136401108818,10.502788908745913 L-43.190626600870885,10.505820953983267 L-43.18841349675216,10.514915113968854 L-43.179542881235086,10.551283181962585 L-43.14373412639288,10.696761446460707 L-43.08284142426781,10.93943667953014 L-42.994991549097584,11.27976958096426 L-42.87751705693712,11.718405645831607 L-42.72692830769485,12.256104499657184 L-42.637891783840885,12.562351863458332 L-42.53887148934869,12.893677214653756 L-42.42903223497838,13.250649831198405 L-42.3075392404561,13.633584369349515 L-42.17357049542027,14.04252304605085 L-42.02625727488465,14.477437642853301 L-41.86468757028953,14.938220562418183 L-41.68791045610399,15.424675685266248 L-41.494941657779634,15.936508929070406 L-41.28477058685639,16.473318412790086 L-41.17291331300854,16.750931650429223 L-41.05636910902078,17.034584127945223 L-40.9350084822156,17.324190595706135 L-40.80870231091727,17.61965701932781 L-40.67732230891059,17.9208801992801 L-40.54074153151301,18.22774737744899 L-40.39883492533661,18.540135829891447 L-40.25200962201884,18.856781848748877 L-40.10135341422946,19.17508683427479 L-39.94697065160188,19.494666872742602 L-39.78894059535133,19.815214017689925 L-39.62735115180921,20.136423228176742 L-39.46229892312921,20.457992646427734 L-39.29388924086528,20.77962386059531 L-39.122236182421624,21.101022152643402 L-38.94746257037451,21.421896731351957 L-38.769699954666144,21.74196095044219 L-38.58908857767036,22.06093251182254 L-38.40577732213031,22.378533653955362 L-38.219923641968094,22.694491325344362 L-38.03169347596623,23.008537343142745 L-37.84126114432118,23.320408536882105 L-37.64880922806872,23.629846877322027 L-37.4545677733327,23.936538030845067 L-37.25997365288805,24.23833457956803 L-37.06581701215423,24.534215066335566 L-36.87229521636761,24.824108146208985 L-36.679602269150585,25.107952472032572 L-36.48792858772839,25.385696120289207 L-36.29746078501238,25.657296053562906 L-36.10838145796416,25.922717617550845 L-35.920868981732035,26.181934070649692 L-35.73509730912808,26.43492614422312 L-35.551235775090724,26.681681631739607 L-35.36944890585499,26.922195005051744 L-35.189896232629025,27.15646705617042 L-34.8381055365903,27.606319977338465 L-34.49703323099928,28.0313609813576 L-34.167757751711804,28.431792596732834 L-33.85126125794503,28.80789147160371 L-33.54842480347069,29.16000159614422 L-33.2600239053276,29.488528448737842 L-32.98672458758297,29.793933965578155 L-32.728873910224074,30.07695649950929 L-32.48567629827539,30.339468263401656 L-32.257208283528925,30.58226631880726 L-31.845351072186777,31.01090317541054 L-31.494798348573696,31.36686431377951 L-31.206658462479297,31.653545884769766 L-30.820619587163996,32.02954742968013 L-30.72372257536567,32.122505668920546 L-30.699458905137192,32.145695240586846 L-30.69338837763011,32.151491563262354 L-30.691364011080395,32.1534240033524 " />
			<path d="M-30.6913640110804,32.1534240033524 L-30.693513690253653,32.151371939606165 L-30.69996152261417,32.14521524451808 L-30.725742244395548,32.12057384512015 L-30.828745364996802,32.02172635274762 L-31.239154095007354,31.621476116294627 L-31.545301146702165,31.31607374655951 L-31.917464667650012,30.936676438255834 L-32.12794306554226,30.718036619150052 L-32.35449914526452,30.479318973293815 L-32.59694944976403,30.219883968435553 L-32.85507084931128,29.939051748598764 L-33.12859291407759,29.636106881756366 L-33.41719008058743,29.31030376499029 L-33.72047371107261,28.960872794131788 L-34.037984144755534,28.587027404877905 L-34.36918284008863,28.1879720923796 L-34.71344470697696,27.762911516297034 L-35.07005072801145,27.311060798317445 L-35.252941223395595,27.07457543122574 L-35.43898402828353,26.830596536661293 L-35.6278507943094,26.579291704483694 L-35.81920504946143,26.320848196431456 L-36.012706120270806,26.055469642293517 L-36.208010481567094,25.783375986620616 L-36.40477308470037,25.504803403634728 L-36.60264866030926,25.220004178670106 L-36.80129299171389,24.92924655447945 L-37.00036415501312,24.632814540738707 L-37.19952372196491,24.331007685084018 L-37.39843792172912,24.024140804014394 L-37.596778757551924,23.712543671993544 L-37.79422507447077,23.396560667084483 L-37.990463574119204,23.076550371450352 L-38.18518977271057,22.75288512505505 L-38.378108898279855,22.425950530897115 L-38.56881053971062,22.096365166506498 L-38.755841309265904,21.766654876780276 L-38.93876376980452,21.43770454605549 L-39.117471894828824,21.109852974626055 L-39.29187264940038,20.783436762746046 L-39.46188562227724,20.458789872713126 L-39.62744265058821,20.136243167554284 L-39.78848743644773,19.816123927036983 L-39.94497515507706,19.498755341886095 L-40.09687205415917,19.18445598724458 L-40.24415504431688,18.873539276573073 L-40.386811280765265,18.566312897341106 L-40.524837736351756,18.263078230019953 L-40.65824076635859,17.96412975204455 L-40.78703566560481,17.66975442856937 L-40.91124621854637,17.380231092000443 L-41.03090424323506,17.095829812443156 L-41.14604913015871,16.8168112613629 L-41.25672737714718,16.543426070912908 L-41.46490267217534,16.01450425064587 L-41.65592647240254,15.510844261465852 L-41.83037894901732,15.034024644062093 L-41.988912899509586,14.585393155824443 L-42.13336686649604,14.162693795841822 L-42.26544507875179,13.763526122938678 L-42.38593672839519,13.387862698930183 L-42.49558009857703,13.035650072714962 L-42.595062842722825,12.706814003072806 L-42.68502247143487,12.401264317351558 L-42.76604699966598,12.118899432663525 L-42.90339998380106,11.623285659673195 L-43.01086647513456,11.219084889446792 L-43.147448313701354,10.681769672667071 L-43.18044998205319,10.547570348739855 L-43.18863818442113,10.513992229186844 L-43.19068254706022,10.505590961755471 L-43.19136401108818,10.502788908745911 " />
			<path d="M-43.191364011095736,-10.502788908714917 L-43.19066171135515,-10.505676617332423 L-43.18855377320744,-10.51433895141102 L-43.18010405632189,-10.548986410744133 L-43.14600117748279,-10.68761347461247 L-43.004578671373444,-11.243162973232092 L-42.89316598790921,-11.66099527783763 L-42.750680042930306,-12.172996990183668 L-42.666571605265695,-12.464596536226248 L-42.5731141006348,-12.780158676285728 L-42.469661949348605,-13.11984429801784 L-42.35551481401066,-13.483800093395903 L-42.229917897412406,-13.872149579332223 L-42.09206270676488,-14.284983611047265 L-41.94108842644086,-14.722350420448848 L-41.776084041402164,-15.18424521178359 L-41.59609135348618,-15.67059934682287 L-41.4001090327262,-16.181269151845513 L-41.18709784587986,-16.716024378679474 L-41.0737407595208,-16.992654875010157 L-40.95547024239856,-17.275762116167094 L-40.83226725767686,-17.564977948504282 L-40.7041257429246,-17.859917347486245 L-40.571051710028755,-18.16018346623711 L-40.43306387395374,-18.465368831011546 L-40.2901942431927,-18.77505653393276 L-40.14248866850479,-19.0888214204365 L-39.99000734653281,-19.40623126886008 L-39.83282527489564,-19.726847959615295 L-39.67103265534944,-20.0502286313843 L-39.50473524161237,-20.37592682177732 L-39.334054628446644,-20.703493589891224 L-39.15912847859262,-21.032478618207875 L-38.980110684149004,-21.362431291271257 L-38.797171458993496,-21.692901748582322 L-38.610497358838245,-22.023441909150527 L-38.42041888141419,-22.353387058709153 L-38.22839677969952,-22.68021560233344 L-38.03497866757405,-23.00310626594833 L-37.84040494112288,-23.321797828324613 L-37.644920587103144,-23.63604141894956 L-37.448774619698504,-23.94560041853291 L-37.25221949329465,-24.250250364715907 L-37.055510491602234,-24.54977886211051 L-36.858905093670444,-24.843985495856952 L-36.66266231755208,-25.132681747949114 L-36.46704204259824,-25.415690915638294 L-36.272304311577734,-25.692848031287088 L-36.078708614034255,-25.963999783106303 L-35.88651315251094,-26.22900443626899 L-35.695974093489866,-26.48773175395676 L-35.5073448051108,-26.740062917954837 L-35.32087508395144,-26.9858904484734 L-35.13681037336806,-27.22511812293386 L-34.955390976113115,-27.457660893520046 L-34.60141888891269,-27.902406901227483 L-34.26074844199168,-28.319668362673884 L-33.93503677733076,-28.709158450515098 L-33.62577748428165,-29.07076862709602 L-33.331936080250344,-29.407219117142354 L-33.05228583779762,-29.721186045282813 L-32.78719759083031,-30.01336659105028 L-32.536994190923416,-30.28442685197572 L-32.301955170016704,-30.534999474020495 L-32.08232119161212,-30.765681643902504 L-31.878298289831676,-30.977033388966884 L-31.517760659371746,-31.343791454049327 L-31.22144576595057,-31.63896055470647 L-30.824408052492405,-32.02590151013523 L-30.72468886167456,-32.121581456514434 L-30.69970345798768,-32.14546170786558 L-30.693449928205847,-32.151432811639495 L-30.691364011103495,-32.15342400333037 " />
			<path d="M-30.6913640111035,-32.15342400333037 L-30.693621134183264,-32.1512693647425 L-30.700390355659838,-32.144805680397646 L-30.72745071851988,-32.118939468159894 L-30.83553421325185,-32.015189045119506 L-31.015250777899794,-31.841116802619258 L-31.266062777313078,-31.594870129686218 L-31.58719550465558,-31.273816204596113 L-31.977561994897126,-30.87455309765506 L-32.19826172866393,-30.644321525599423 L-32.43568775123958,-30.392904760928136 L-32.68991547808138,-30.11929486856343 L-32.96080001852474,-29.822611580426276 L-33.24796692806218,-29.50212190644948 L-33.55095740658868,-29.15708761759279 L-33.86922226797973,-28.786772689742506 L-34.202116204939834,-28.390451657098552 L-34.548892397219824,-27.96741915433006 L-34.9086975113012,-27.51700092678067 L-35.09318899040913,-27.281323067673924 L-35.28056713964595,-27.038566588004652 L-35.47069338437218,-26.788661968581145 L-35.66342172761003,-26.53154440391501 L-35.85859865281045,-26.267154394693115 L-36.056063036118815,-25.99543838282473 L-36.25564606851489,-25.716349431245806 L-36.4564569126814,-25.430871980256704 L-36.65678901191938,-25.141247385333468 L-36.85636206199659,-24.84775797278634 L-37.05494900406256,-24.550626358070282 L-37.25232961808096,-24.250081190769222 L-37.448290788628015,-23.946357059687692 L-37.64262674924098,-23.639694390548684 L-37.8351393053167,-23.330339336297868 L-38.02563803556042,-23.018543660014046 L-38.21394047198467,-22.704564610425937 L-38.399872258458295,-22.38866479003523 L-38.58326728780564,-22.07111201584593 L-38.76396781745589,-21.752179172700036 L-38.9418245636425,-21.432144059219446 L-39.11669677415279,-21.111289226354195 L-39.28845227962775,-20.789901808536996 L-39.45693388226629,-20.46833819829373 L-39.621000300112755,-20.148916472690498 L-39.780161997893025,-19.832831646567623 L-39.934455871694865,-19.520290315702244 L-40.08392579513304,-19.21149116573697 L-40.22862200973421,-18.90662506458414 L-40.36860055045738,-18.605875142473113 L-40.50392270427567,-18.309416860162244 L-40.63465449985435,-18.017418065862657 L-40.760866226469815,-17.730039041446506 L-40.88263198042387,-17.447432538537754 L-41.00002923731688,-17.16974380510906 L-41.11313844865349,-16.897110603233855 L-41.32682715893097,-16.367524462961576 L-41.524387313899055,-15.859626679501176 L-41.70653352630885,-15.37424994144988 L-41.87399646007903,-14.912106499574055 L-42.02751454631864,-14.473787373739999 L-42.167826698122326,-14.05976144221891 L-42.29566597599722,-13.670374530683308 L-42.41184534238245,-13.305558025052514 L-42.517588394192884,-12.963686829092277 L-42.61362367229747,-12.644428692376845 L-42.77890547563234,-12.07343144983199 L-42.911900503810905,-11.591863312117969 L-43.01610408528254,-11.198986061071768 L-43.148711538975306,-10.676665809780038 L-43.18076722994879,-10.546271415482755 L-43.18871815313012,-10.513663674343878 L-43.19070265212863,-10.50550828173266 L-43.191364011095736,-10.502788908714916 " />
			<path d="M44.417479667356865,-1.6999999999823383 L44.43107245291746,-1.2970353219322583 L44.4434938692464,-0.760495002721667 L44.44805525924364,-0.4157928687655206 L44.449986466552026,-0.03468592540699755 L44.4485780098783,0.35554539305823113 L44.44423635511794,0.7157894461310118 L44.43178578579045,1.2723646476656365 L44.4174796673555,1.7000000000176574 " />
			<path d="M44.449953976821,0.06396828815811686 L44.449999999999996,1.7678525310316218e-11 " />
			<path d="M-44.41747966735551,1.7000000000176676 L-44.43178578579059,1.2723646476606694 L-44.44423635511812,0.7157894461192587 L-44.44857800987842,0.3555453930425665 L-44.44998646655201,-0.034685925425776275 L-44.448055259243475,-0.415792868782799 L-44.44349386924617,-0.7604950027355843 L-44.43107245291719,-1.2970353219415436 L-44.417479667356865,-1.6999999999823276 " />
			<path d="M-44.41810035704397,-1.6837044460047834 L-44.43400960992341,-1.192178695391721 L-44.44493552388847,-0.670974674674027 L-44.448643045459065,-0.34731945025850075 L-44.449999999999996,1.7640777727478962e-11 " />
			<path d="M-23.680983020022957,-37.616665764081354 L-23.67966149947535,-37.61749767674272 L-23.675695132268512,-37.619994155509595 L-23.65980187346206,-37.6299916967558 L-23.59578694898811,-37.670165095673774 L-23.33041625342083,-37.83509187787125 L-22.861814720891378,-38.12007250299361 L-22.559794401683803,-38.2995845483248 L-22.225001487252168,-38.49482833955283 L-21.88851874794078,-38.6871457598201 L-21.582046285915148,-38.858947207541185 L-21.10094422126277,-39.12227821760898 L-20.825427014097414,-39.269633175817745 L-20.7586279555282,-39.30498524573294 L-20.742023096002548,-39.31375049714047 L-20.737877875605918,-39.3159372449809 L-20.736496647252352,-39.31666576400511 " />
			<path d="M12.500000000000007,-40.56787522165805 L12.497177212947605,-40.56874488726754 L12.488710485656535,-40.571352090405526 L12.454845515680555,-40.58176096709529 L12.319262854220895,-40.62312472853909 L11.773857358062049,-40.78454097915291 L11.361261484968216,-40.90139652239173 L10.852773908980641,-41.039247050770165 L10.561806550165063,-41.11509141841479 L10.245902779397968,-41.19495085799907 L9.904655260616208,-41.27832728706875 L9.537073301239468,-41.36480061826562 L9.142547567342472,-41.45378539354862 L8.720695794094258,-41.54457806636888 L8.271178372613932,-41.63640365794436 L7.79370635621135,-41.72841526128 L7.288050032534793,-41.81969422284389 L6.75404824470217,-41.90925115250423 L6.191618644492337,-41.99602791233132 L5.899742002025582,-42.03802500402592 L5.600769060673107,-42.07890073486946 L5.294716966753479,-42.11850510047898 L4.9816101655424765,-42.156684621483066 L4.6614808809711175,-42.1932825615636 L4.334369622759685,-42.22813917138169 L4.000325722418064,-42.26109195956433 L3.6594470625971196,-42.29197260826633 L3.3122659335942184,-42.320578848472074 L2.959368679564839,-42.34671931722503 L2.6013159863385447,-42.37022132747954 L2.2386810556905696,-42.390928361092186 L1.8720483356535844,-42.40870117040126 L1.5020122468624102,-42.42341875639217 L1.129175904931694,-42.43497922344859 L0.7541498388665353,-42.443300510689525 L0.3775507055060685,-42.448320999892076 L5.551115123125783e-14,-42.450000000000216 " />
			<path d="M0.16383959322177946,-42.449683820825584 L0.5391355153274253,-42.44657621559286 L0.9126167926766668,-42.44018885625522 L1.2838193030255578,-42.43058222475779 L1.6522850570159666,-42.41783179722205 L2.017563013689525,-42.40202754426273 L2.3792098858217394,-42.38327335766391 L2.736790934594167,-42.361686407207735 L3.0898807531225576,-42.3373964314496 L3.438064038358864,-42.31054496623338 L3.7809363508850176,-42.2812845147404 L4.118104862116377,-42.249777662865846 L4.44918908843274,-42.21619614371626 L4.77382161175484,-42.180719855021806 L5.0916487860842015,-42.143535833256976 L5.402331429524277,-42.10483718826343 L5.705545501300762,-42.06482200216861 L6.000982763298981,-42.02369219639382 L6.288594020622229,-41.981616037135964 L6.84216363863343,-41.89495549882399 L7.3672071835360295,-41.805822063325316 L7.86405597192565,-41.71521453907546 L8.333090782575512,-41.6240567223542 L8.774730074827833,-41.53319891101242 L9.189419039192938,-41.44342019642202 L9.577619438977553,-41.35543139859802 L9.93980020176371,-41.26987850944213 L10.276428719559725,-41.18734650905697 L10.58796281644468,-41.10836342008025 L10.874847784756156,-41.03340328916627 L11.376332108056408,-40.897207322969095 L11.783401863190166,-40.78178443176637 L12.321657604063514,-40.622398415411574 L12.455453981747112,-40.58157423530251 L12.488864452248007,-40.57130470865977 L12.49721597823102,-40.56873295060702 L12.50000000000001,-40.56787522165805 " />
			<path d="M-12.500000000000014,-40.56787522165805 L-12.497253266906672,-40.56872145880916 L-12.48901465150912,-40.5712584605457 L-12.45606228072081,-40.58138751287533 L-12.32413848041716,-40.621645839324195 L-11.793544419274362,-40.778852485097815 L-11.39225052766789,-40.892775986964615 L-10.897800302982759,-41.02731344579253 L-10.614916564869043,-41.10141173096313 L-10.30782925659157,-41.17949921943369 L-9.97618505257111,-41.261098285348986 L-9.619126451328832,-41.3457966877416 L-9.235935490683085,-41.43307850464816 L-8.826237075616637,-41.52228366294482 L-8.389694806566848,-41.612684637313635 L-7.926018356865527,-41.703485856449596 L-7.434971329704284,-41.79382369983675 L-6.9163797612474855,-41.88276722193163 L-6.370141436515006,-41.96931974059245 L-5.796236184656926,-42.0524214265924 L-5.498927381049631,-42.09233063568756 L-5.194737320242322,-42.13095303105546 L-4.883691865605532,-42.16814024253839 L-4.56582439718432,-42.203740887652906 L-4.241176293758846,-42.237600807243425 L-3.9097974419235655,-42.269563326399144 L-3.5718518126876373,-42.29946068725035 L-3.2279265362785736,-42.327095222339345 L-2.8785638706989323,-42.35228884045716 L-2.524306617854867,-42.37487907166441 L-2.165709115239231,-42.39471906019839 L-1.8033360450064984,-42.41167856851691 L-1.4377612388035015,-42.42564486684211 L-1.0695664783559962,-42.43652350820426 L-0.6993402918110405,-42.44423898898561 L-0.3276767458352223,-42.4487352949642 " />
			<path d="M-6.394085361170755e-16,-42.450000000000216 L0.5823424673286639,-42.44600543338282 L1.1645753372118688,-42.43402248531214 L1.7465890328305052,-42.41405341099121 L2.328274018614284,-42.38610196862014 L2.9095208208564416,-42.35017341868887 L3.4902200483168033,-42.30627452298708 L4.070262412809326,-42.25441354333166 L4.649538749770247,-42.19460024001179 L5.2279400388029655,-42.126845869952085 L5.805357424195789,-42.05116318459399 L6.381682235408696,-41.967566427495974 L6.956806007525235,-41.87607133165287 L7.53062050166574,-41.77669511653488 L8.103017725357988,-41.66945648484693 L8.673889952861503,-41.55437561900872 L9.24312974544164,-41.43147417735639 L9.810629971589675,-41.300775290066454 L10.376283827185052,-41.16230355480261 L10.93998485559604,-41.016085032086465 L11.501626967714966,-40.86214724039291 L12.061104461924307,-40.700519150971125 L12.618312043989832,-40.53123118239216 L13.173144846877083,-40.354315194824125 L13.725498450487471,-40.16980448403606 L14.275268901310229,-39.977733775131654 L14.822352731986578,-39.778139216013955 L15.366646980782388,-39.571058370582264 L15.908049210965679,-39.3565302116626 L16.44645753008532,-39.13459511367298 L16.981770609147283,-38.90529484502486 L17.513887701684887,-38.668672560262365 L18.04270866271936,-38.42477279194047 L18.568133967607235,-38.17364144224398 L19.090064730770997,-37.91532577434869 L19.608402724309435,-37.649874403526375 L20.123050396484253,-37.377337287995395 L20.63391089007937,-37.09776571951847 L21.1408880606296,-36.81121231374953 L21.64388649451509,-36.51773100033137 L22.142811526918283,-36.21737701274611 L22.637569259639935,-35.9102068779201 L23.128066578770852,-35.59627840558558 L23.61421117221599,-35.27565067740076 L24.09591154706774,-34.94838403583065 L24.573077046824952,-34.614540072790504 L25.04561786845458,-34.274181618054186 L25.51344507929272,-33.92737272742953 L25.97647063378181,-33.57417867070296 L26.434607390040917,-33.214665919355696 L26.8877691262659,-32.84890213405368 L27.335870556956465,-32.476956151913846 L27.778827348966974,-32.09889797354885 L28.216556137378017,-31.714798749892903 L28.648974541185797,-31.324730768811104 L29.076001178806308,-30.928767441494774 L29.497555683391425,-30.526983288645393 L29.913558717954043,-30.11945392644974 L30.32393199029935,-29.70625605234884 L30.728598267759544,-29.28746743060345 L31.127481391729052,-28.863166877658692 L31.52050629199769,-28.433434247310792 L31.907599000878932,-27.998350415678452 L32.288686667130726,-27.55799726598191 L32.663697569666134,-27.112457673132443 L33.032561131051374,-26.661815488135186 L33.3952079307885,-26.206155522308347 L33.75156971838045,-25.74556353132156 L34.10157942617585,-25.28012619905665 L34.44517118199122,-24.80993112129359 L34.78228032150816,-24.335066789224896 L35.11284340044328,-23.855622572801515 L35.43679820648845,-23.371688703913275 L35.75408377101921,-22.883356259407194 L36.064640380569195,-22.390717143946674 L36.36840958806817,-21.893864072715004 L36.665334223841896,-21.39289055396622 L36.95535840637152,-20.887890871426794 L37.23842755281049,-20.37896006655131 L37.51448838925716,-19.866193920635588 L37.783488960780936,-19.34968893679053 L38.04537864120028,-18.829542321780153 L38.30010814261061,-18.305851967727165 L38.547629524660316,-17.77871643368957 L38.78789620357321,-17.24823492711176 L39.020862960915615,-16.71450728515355 L39.24648595210651,-16.177633955900763 L39.464722714669165,-15.63771597946076 L39.675532176222596,-15.094854968946605 L39.87887466221143,-14.549153091353372 L40.07471190337271,-14.000713048330217 L40.26300704293818,-13.449638056851818 L40.443724643570796,-12.89603182979283 L40.61683069403408,-12.339998556409029 L40.782292615593,-11.78164288272878 L40.94007926814542,-11.221069891858544 L41.09016095608262,-10.658385084206143 L41.23250943387807,-10.093694357625463 L41.36709791140328,-9.527103987486377 L41.49390105896969,-8.95872060667361 L41.61289501209578,-8.388651185518324 L41.724057375998385,-7.817003011666186 L41.8273672298074,-7.243883669885734 L41.922805130503114,-6.669401021820805 L42.01035311657542,-6.093663185690869 L42.089994711404174,-5.516778515943066 L42.16171492636011,-4.938855582859793 L42.225500263625726,-4.360003152125663 L42.28133871873558,-3.780330164357695 L42.32921978283557,-3.1999457146025763 L42.369134444660645,-2.6189590318048643 L42.401075192230806,-2.0374794582499907 L42.42503601426482,-1.4556164289859268 L42.44101240131159,-0.8734794512274008 L42.44900134659879,-0.29117808374652604 L42.44900134659879,0.2911780837462711 L42.44101240131158,0.8734794512271459 L42.42503601426481,1.4556164289856717 L42.40107519223079,2.0374794582497353 L42.36913444466064,2.6189590318046094 L42.32921978283556,3.199945714602321 L42.28133871873557,3.7803301643574394 L42.22550026362571,4.360003152125407 L42.16171492636009,4.938855582859537 L42.08999471140416,5.516778515942809 L42.0103531165754,6.0936631856906125 L41.92280513050309,6.669401021820549 L41.82736722980737,7.243883669885477 L41.724057375998356,7.817003011665929 L41.61289501209575,8.388651185518066 L41.49390105896965,8.958720606673351 L41.36709791140324,9.527103987486118 L41.232509433878036,10.093694357625203 L41.09016095608258,10.658385084205884 L40.940079268145375,11.221069891858283 L40.78229261559296,11.78164288272852 L40.61683069403403,12.339998556408768 L40.44372464357075,12.896031829792568 L40.26300704293813,13.449638056851555 L40.07471190337265,14.000713048329953 L39.87887466221137,14.549153091353107 L39.67553217622254,15.094854968946338 L39.46472271466911,15.637715979460493 L39.24648595210645,16.177633955900497 L39.02086296091555,16.714507285153285 L38.78789620357315,17.24823492711149 L38.54762952466026,17.778716433689294 L38.30010814261054,18.305851967726888 L38.04537864120021,18.829542321779872 L37.783488960780865,19.349688936790248 L37.51448838925709,19.866193920635304 L37.23842755281042,20.378960066551027 L36.955358406371445,20.88789087142651 L36.66533422384182,21.392890553965938 L36.36840958806808,21.893864072714717 L36.06464038056911,22.390717143946386 L35.75408377101913,22.883356259406902 L35.43679820648836,23.371688703912987 L35.11284340044319,23.855622572801227 L34.78228032150807,24.33506678922461 L34.44517118199113,24.8099311212933 L34.10157942617576,25.28012619905636 L33.75156971838036,25.74556353132127 L33.3952079307884,26.20615552230805 L33.032561131051274,26.661815488134895 L32.663697569666034,27.112457673132145 L32.28868666713062,27.557997265981616 L31.90759900087883,27.99835041567815 L31.520506291997584,28.43343424731049 L31.127481391728942,28.863166877658394 L30.728598267759434,29.287467430603144 L30.323931990299236,29.70625605234854 L29.91355871795393,30.11945392644943 L29.497555683391315,30.526983288645088 L29.07600117880619,30.928767441494465 L28.64897454118568,31.324730768810795 L28.2165561373779,31.714798749892587 L27.77882734896685,32.09889797354853 L27.335870556956344,32.47695615191352 L26.88776912626578,32.84890213405336 L26.43460739004079,33.21466591935537 L25.976470633781688,33.57417867070263 L25.51344507929259,33.927372727429194 L25.04561786845445,34.27418161805385 L24.57307704682482,34.61454007279017 L24.095911547067608,34.948384035830315 L23.614211172215853,35.27565067740043 L23.128066578770714,35.596278405585245 L22.637569259639804,35.91020687791976 L22.14281152691815,36.21737701274577 L21.643886494514952,36.51773100033103 L21.140888060629457,36.81121231374918 L20.633910890079232,37.09776571951812 L20.123050396484107,37.37733728799505 L19.608402724309293,37.64987440352603 L19.090064730770855,37.91532577434833 L18.568133967607093,38.17364144224362 L18.04270866271921,38.424772791940114 L17.51388770168474,38.668672560262 L16.981770609147134,38.90529484502451 L16.446457530085166,39.13459511367262 L15.908049210965528,39.35653021166224 L15.366646980782237,39.571058370581895 L14.822352731986426,39.778139216013585 L14.275268901310076,39.977733775131284 L13.725498450487319,40.16980448403568 L13.173144846876928,40.35431519482375 L12.618312043989675,40.531231182391785 L12.06110446192415,40.70051915097074 L11.501626967714811,40.862147240392524 L10.939984855595881,41.01608503208608 L10.376283827184894,41.16230355480223 L9.810629971589513,41.30077529006607 L9.243129745441479,41.43147417735601 L8.67388995286134,41.554375619008326 L8.103017725357823,41.66945648484654 L7.530620501665573,41.77669511653448 L6.956806007525068,41.87607133165247 L6.381682235408526,41.967566427495576 L5.805357424195618,42.051163184593584 L5.227940038802793,42.12684586995168 L4.649538749770073,42.19460024001138 L4.07026241280915,42.254413543331246 L3.490220048316626,42.30627452298667 L2.909520820856263,42.35017341868845 L2.328274018614105,42.38610196861972 L1.7465890328303249,42.41405341099078 L1.1645753372116874,42.43402248531172 L0.5823424673284816,42.446005433382396 L-1.8395665245508818e-13,42.44999999999979 L-0.5823424673288495,42.446005433382396 L-1.1645753372120553,42.43402248531171 L-1.7465890328306923,42.41405341099077 L-2.3282740186144713,42.386101968619705 L-2.90952082085663,42.35017341868843 L-3.490220048316993,42.30627452298664 L-4.070262412809518,42.25441354333121 L-4.64953874977044,42.19460024001135 L-5.227940038803158,42.12684586995164 L-5.805357424195983,42.051163184593534 L-6.381682235408891,41.96756642749552 L-6.956806007525431,41.876071331652405 L-7.530620501665936,41.77669511653443 L-8.103017725358184,41.66945648484647 L-8.673889952861698,41.55437561900825 L-9.243129745441838,41.43147417735593 L-9.81062997158987,41.300775290065985 L-10.376283827185249,41.162303554802136 L-10.939984855596235,41.01608503208598 L-11.501626967715163,40.862147240392424 L-12.061104461924504,40.700519150970635 L-12.618312043990025,40.53123118239167 L-13.173144846877278,40.354315194823634 L-13.725498450487665,40.169804484035566 L-14.275268901310422,39.977733775131156 L-14.82235273198677,39.77813921601346 L-15.366646980782578,39.57105837058176 L-15.908049210965867,39.3565302116621 L-16.446457530085507,39.134595113672475 L-16.981770609147468,38.90529484502436 L-17.513887701685075,38.668672560261854 L-18.042708662719544,38.42477279193995 L-18.56813396760742,38.173641442243465 L-19.090064730771182,37.91532577434817 L-19.608402724309617,37.64987440352586 L-20.12305039648443,37.37733728799488 L-20.63391089007955,37.097765719517945 L-21.140888060629777,36.811212313749 L-21.643886494515264,36.51773100033084 L-22.142811526918457,36.21737701274557 L-22.637569259640117,35.91020687791957 L-23.12806657877102,35.59627840558504 L-23.61421117221616,35.27565067740022 L-24.09591154706791,34.9483840358301 L-24.573077046825123,34.61454007278996 L-25.045617868454748,34.27418161805364 L-25.513445079292882,33.927372727428974 L-25.976470633781975,33.57417867070241 L-26.434607390041077,33.214665919355134 L-26.88776912626606,32.84890213405312 L-27.33587055695663,32.476956151913285 L-27.77882734896713,32.09889797354829 L-28.216556137378173,31.71479874989235 L-28.648974541185954,31.32473076881055 L-29.07600117880646,30.928767441494216 L-29.497555683391578,30.526983288644832 L-29.91355871795419,30.119453926449175 L-30.323931990299496,29.706256052348277 L-30.728598267759683,29.287467430602877 L-31.127481391729194,28.863166877658124 L-31.52050629199783,28.433434247310217 L-31.90759900087907,27.998350415677876 L-32.288686667130854,27.557997265981335 L-32.66369756966627,27.11245767313186 L-33.03256113105151,26.661815488134607 L-33.39520793078863,26.20615552230776 L-33.75156971838058,25.74556353132098 L-34.101579426175974,25.280126199056067 L-34.44517118199134,24.809931121293 L-34.78228032150828,24.335066789224307 L-35.112843400443396,23.85562257280092 L-35.43679820648856,23.37168870391268 L-35.75408377101933,22.883356259406597 L-36.0646403805693,22.390717143946077 L-36.368409588068275,21.893864072714408 L-36.665334223842,21.392890553965625 L-36.95535840637162,20.88789087142619 L-37.23842755281059,20.378960066550704 L-37.51448838925726,19.86619392063498 L-37.78348896078103,19.34968893678992 L-38.04537864120037,18.82954232177954 L-38.300108142610696,18.305851967726554 L-38.54762952466041,17.778716433688963 L-38.787896203573304,17.248234927111145 L-39.02086296091569,16.714507285152937 L-39.24648595210659,16.17763395590015 L-39.46472271466924,15.637715979460145 L-39.67553217622267,15.094854968945986 L-39.8788746622115,14.549153091352753 L-40.07471190337278,14.000713048329597 L-40.26300704293824,13.449638056851196 L-40.44372464357086,12.896031829792209 L-40.616830694034135,12.339998556408407 L-40.78229261559306,11.781642882728155 L-40.940079268145475,11.221069891857923 L-41.09016095608268,10.658385084205518 L-41.23250943387812,10.093694357624837 L-41.36709791140333,9.527103987485752 L-41.49390105896973,8.958720606672985 L-41.61289501209582,8.388651185517697 L-41.72405737599843,7.81700301166556 L-41.827367229807436,7.243883669885107 L-41.92280513050316,6.669401021820178 L-42.01035311657545,6.09366318569024 L-42.0899947114042,5.516778515942437 L-42.16171492636013,4.938855582859163 L-42.22550026362575,4.360003152125033 L-42.281338718735604,3.780330164357065 L-42.32921978283559,3.1999457146019457 L-42.36913444466066,2.618959031804234 L-42.40107519223081,2.03747945824936 L-42.425036014264826,1.455616428985296 L-42.441012401311596,0.8734794512267698 L-42.4490013465988,0.291178083745895 L-42.44900134659879,-0.29117808374690207 L-42.44101240131158,-0.8734794512277768 L-42.42503601426481,-1.4556164289863027 L-42.401075192230785,-2.0374794582503664 L-42.369134444660624,-2.61895903180524 L-42.329219782835544,-3.199945714602951 L-42.281338718735554,-3.7803301643580696 L-42.22550026362569,-4.360003152126037 L-42.16171492636007,-4.938855582860166 L-42.08999471140413,-5.516778515943438 L-42.010353116575374,-6.093663185691241 L-41.92280513050306,-6.669401021821177 L-41.82736722980734,-7.243883669886105 L-41.72405737599832,-7.817003011666556 L-41.612895012095706,-8.388651185518693 L-41.493901058969605,-8.958720606673978 L-41.36709791140319,-9.527103987486743 L-41.232509433877986,-10.093694357625829 L-41.09016095608253,-10.658385084206508 L-40.94007926814532,-11.221069891858907 L-40.7822926155929,-11.781642882729141 L-40.616830694033965,-12.33999855640939 L-40.44372464357068,-12.89603182979319 L-40.26300704293806,-13.449638056852173 L-40.07471190337258,-14.000713048330573 L-39.8788746622113,-14.549153091353725 L-39.67553217622246,-15.094854968946956 L-39.46472271466903,-15.637715979461111 L-39.24648595210637,-16.177633955901115 L-39.020862960915466,-16.7145072851539 L-38.78789620357306,-17.2482349271121 L-38.54762952466017,-17.77871643368991 L-38.30010814261045,-18.305851967727506 L-38.04537864120011,-18.82954232178049 L-37.78348896078076,-19.349688936790862 L-37.51448838925698,-19.86619392063592 L-37.238427552810315,-20.378960066551638 L-36.95535840637134,-20.887890871427125 L-36.66533422384171,-21.39289055396655 L-36.36840958806797,-21.893864072715324 L-36.064640380568996,-22.390717143946997 L-35.75408377101901,-22.88335625940751 L-35.436798206488234,-23.37168870391359 L-35.11284340044306,-23.855622572801824 L-34.78228032150795,-24.33506678922521 L-34.445171181991,-24.809931121293896 L-34.101579426175626,-25.280126199056955 L-33.75156971838022,-25.745563531321864 L-33.39520793078826,-26.20615552230864 L-33.03256113105114,-26.66181548813548 L-32.6636975696659,-27.112457673132734 L-32.28868666713048,-27.5579972659822 L-31.907599000878683,-27.99835041567874 L-31.52050629199744,-28.433434247311077 L-31.127481391728793,-28.863166877658973 L-30.728598267759278,-29.287467430603723 L-30.323931990299087,-29.706256052349115 L-29.91355871795377,-30.119453926450007 L-29.497555683391152,-30.526983288645656 L-29.07600117880603,-30.928767441495033 L-28.64897454118552,-31.324730768811364 L-28.216556137377736,-31.71479874989316 L-27.778827348966686,-32.0988979735491 L-27.335870556956174,-32.47695615191409 L-26.887769126265603,-32.84890213405392 L-26.434607390040615,-33.21466591935593 L-25.976470633781506,-33.5741786707032 L-25.513445079292417,-33.927372727429756 L-25.045617868454272,-34.27418161805441 L-24.573077046824643,-34.614540072790724 L-24.09591154706743,-34.94838403583087 L-23.614211172215672,-35.275650677400975 L-23.12806657877053,-35.596278405585785 L-22.637569259639616,-35.91020687792031 L-22.14281152691796,-36.21737701274631 L-21.64388649451476,-36.51773100033157 L-21.14088806062927,-36.81121231374972 L-20.633910890079036,-37.09776571951866 L-20.123050396483915,-37.37733728799558 L-19.608402724309098,-37.64987440352655 L-19.090064730770656,-37.91532577434886 L-18.56813396760689,-38.17364144224415 L-18.04270866271901,-38.424772791940626 L-17.513887701684535,-38.66867256026252 L-16.98177060914693,-38.90529484502502 L-16.446457530084963,-39.13459511367313 L-15.908049210965324,-39.356530211662744 L-15.366646980782033,-39.5710583705824 L-14.822352731986221,-39.77813921601409 L-14.275268901309868,-39.97773377513178 L-13.725498450487107,-40.169804484036185 L-13.173144846876719,-40.354315194824245 L-12.618312043989464,-40.531231182392276 L-12.06110446192394,-40.70051915097123 L-11.501626967714596,-40.86214724039301 L-10.939984855595668,-41.016085032086565 L-10.376283827184679,-41.162303554802705 L-9.8106299715893,-41.30077529006655 L-9.243129745441264,-41.43147417735648 L-8.673889952861122,-41.5543756190088 L-8.103017725357606,-41.66945648484701 L-7.530620501665358,-41.77669511653495 L-6.956806007524851,-41.87607133165293 L-6.38168223540831,-41.96756642749603 L-5.8053574241954005,-42.051163184594046 L-5.227940038802576,-42.126845869952135 L-4.649538749769856,-42.19460024001183 L-4.070262412808932,-42.254413543331694 L-3.4902200483164068,-42.30627452298711 L-2.9095208208560437,-42.3501734186889 L-2.3282740186138846,-42.38610196862016 L-1.7465890328301052,-42.41405341099122 L-1.1645753372114678,-42.43402248531215 L-0.5823424673282619,-42.44600543338282 L4.036982532180954e-13,-42.450000000000216 " />
			<path d="M28.882810519524813,-31.109255158123595 L28.885111958350883,-31.10711827316762 L28.89201389491813,-31.10070792360815 L28.91960285148099,-31.075055449045095 L29.0297730097832,-30.972161351475155 L29.212881584243718,-30.799513788616004 L29.468275552273017,-30.555248912293898 L29.795026479971394,-30.236714386254217 L30.191857054989306,-29.840480353498936 L30.41603703444185,-29.61194338875024 L30.657068801830878,-29.362333561149132 L30.91499892191211,-29.090640057693452 L31.189653582217318,-28.795972092927457 L31.48063369454492,-28.477573703806744 L31.78745478030541,-28.13468002007176 L32.10954059880625,-27.766524835370145 L32.44621708510797,-27.372349096012634 L32.79670664923092,-26.95141059405498 L33.16012288849214,-26.502995151398334 L33.346370559769525,-26.268271209807075 L33.53546576475193,-26.026429581600535 L33.72726503651643,-25.77739498781822 L33.921617298349574,-25.521096716090792 L34.11836376108014,-25.25746922326438 L34.317337830507675,-24.986452781480153 L34.51836502533151,-24.707994169948876 L34.72051408572384,-24.423112045003098 L34.922071093548496,-24.134030980444887 L35.12275752274469,-23.841023568122353 L35.322343094258436,-23.544310960600075 L35.520604728516254,-23.24412053441976 L35.71732681123858,-22.940685796745747 L35.91230143767745,-22.634246284567503 L36.105328635278646,-22.32504745645914 L36.2962165647682,-22.01334057689595 L36.48478169966325,-21.699382593127932 L36.67084898420734,-21.38343600461034 L36.85425196973002,-21.065768724991223 L37.03483292943094,-20.746653936656003 L37.21244295158818,-20.426369937829026 L37.38694201119111,-20.10519998223215 L37.55819901999753,-19.783432111300336 L37.72605174108036,-19.46143674079298 L37.88933905057096,-19.1415904798715 L38.04759833385946,-18.82505672515213 L38.20087393652947,-18.512042843836976 L38.34921715173262,-18.202748248884404 L38.49268559389659,-17.89736449637594 L38.631342609123536,-17.596075370683238 L38.76525672003855,-17.29905695790688 L38.89450110296821,-17.006477708088184 L39.019153095449035,-16.718498486724858 L39.13929373218616,-16.435272616150655 L39.25500730770248,-16.156945907368875 L39.36638096403863,-15.883656682958849 L39.57646901444316,-15.352706615621331 L39.77029774007008,-14.843379597860551 L39.948629870802975,-14.356513207919534 L40.11224144190143,-13.892824993036788 L40.26191331596054,-13.45291180429641 L40.398423715518206,-13.037249003212185 L40.52254171791742,-12.646189658956397 L40.63511011385301,-12.279671240824216 L40.73736142371211,-11.936074875801905 L40.83004054221134,-11.615088844195682 L40.913760526310895,-11.316655858265737 L40.989086753307895,-11.040709564614472 L41.1165865765225,-10.555984473060395 L41.21614428879137,-10.160312472311468 L41.34234675965746,-9.633943357956058 L41.3727634626026,-9.502470359651806 L41.38030225589286,-9.46958736562693 L41.38218356990337,-9.46136263262327 L41.38281051951656,-9.458620063507853 " />
			<path d="M41.38281051950934,9.45862006353903 L41.38211064226048,9.46168161052775 L41.380010084963274,9.470864037776325 L41.37158886854213,9.507583012570384 L41.337565045049075,9.654440218245158 L41.2796021565082,9.89934067857968 L41.19575955172906,10.242650783514717 L41.083276023145544,10.684892653841981 L40.93854257123809,11.226675033124277 L40.85271374304974,11.5350890749706 L40.75706117419503,11.868633624792329 L40.65073275775713,12.22785441391242 L40.53287014425217,12.613046310280762 L40.402619106281456,13.024241675317608 L40.25907500762745,13.461403373006114 L40.101286173843874,13.924415467221351 L39.92825821259972,14.413073727607056 L39.738959557836985,14.927075845785332 L39.53232851180202,15.466011263684498 L39.42217545068106,15.744668449847431 L39.30728205901027,16.029350515770325 L39.18751140986757,16.31997085485433 L39.06272672620427,16.61643398696581 L38.93279185137883,16.918635168261076 L38.797571762364754,17.226459988044752 L38.65693312777368,17.539783951894414 L38.51129249998105,17.857291236932035 L38.36171945753614,18.17638525915439 L38.20831080885808,18.496688512027376 L38.05114293816027,18.81789099175614 L37.890301219518776,19.13968581749036 L37.72588006893163,19.46176950820258 L37.5579829791445,19.783842244603083 L37.38672253724276,20.105608116091176 L37.21222042500988,20.426775352742947 L37.03460740205224,20.747056542335486 L36.854023271690274,21.066168832407552 L36.67061682961604,21.38383411735674 L36.48454579531707,21.699779210573066 L36.29597672626671,22.013736001609015 L36.105084914880734,22.325441598386092 L35.91205426824036,22.634638454437784 L35.7171244573959,22.94100086049938 L35.521773124464325,23.242334949016932 L35.326776492983235,23.53765838597137 L35.13233632100989,23.82690589216531 L34.93865095180835,24.11002218229359 L34.74591508502574,24.38696137387505 L34.55431955564819,24.657686434059052 L34.36405112002493,24.922168662130847 L34.17529224833461,25.18038720562891 L33.98822092295334,25.432328608077 L33.80301044226996,25.67798638642272 L33.61982922957911,25.91736063636381 L33.438840646768924,26.15045766383265 L33.08406842550008,26.597874285238145 L32.739892652219254,27.020398393457246 L32.40742005590478,27.41827174283059 L32.08766006832327,27.79180762599399 L31.78152000897255,28.141383864255126 L31.48980066426692,28.46743673734989 L31.21319233974796,28.77045575121352 L30.95206227788458,29.051202049039755 L30.705624754894597,29.311552460079145 L30.473982259634333,29.552307943327783 L30.25739170721783,29.774028066317772 L30.056078322480186,29.97723563692857 L29.700043994425762,30.330016264913162 L29.407160849714327,30.614071769851115 L29.014413065023014,30.986550868266313 L28.91576246081895,31.07862900418557 L28.89105434967331,31.101599287330153 L28.88487217913592,31.107340919380533 L28.88281051950108,31.109255158145228 " />
			<path d="M-41.38281051950934,9.458620063539028 L-41.38211064226449,9.461681610510249 L-41.38001008497931,9.470864037706328 L-41.371588868606516,9.507583012290395 L-41.33756504531073,9.654440217124847 L-41.279602157113246,9.899340676056616 L-41.19575955284611,10.24265077902203 L-41.083276024975206,10.684892646806944 L-40.93854257402312,11.22667502296843 L-40.85271374641957,11.535089063035974 L-40.757061178203124,11.868633611017229 L-40.6507327620473,12.227854399554456 L-40.532870148890986,12.61304629534449 L-40.40261911141762,13.024241659442497 L-40.259075013242004,13.46140335625984 L-40.10128617983863,13.924415449931118 L-39.928258218949736,14.413073709961779 L-39.738959564645654,14.927075827652441 L-39.532328519210296,15.466011244796043 L-39.42217545840572,15.744668430554496 L-39.30728206702436,16.029350496143906 L-39.187511418115754,16.319970835036774 L-39.06272673461896,16.616433967136846 L-38.932791859916975,16.918635148554422 L-38.797571771072406,17.226459968397453 L-38.65693313688639,17.53978393180872 L-38.511292509737466,17.8572912158912 L-38.36171946794339,18.176385237189635 L-38.20831081993121,18.496688489153808 L-38.051142949913114,18.817890967991058 L-37.89030123196385,19.139685792853204 L-37.72588008208004,19.461769482714914 L-37.557982993005815,19.783842218288537 L-37.38672255182494,20.105608088975373 L-37.21222044031917,20.42677532485345 L-37.03460741809309,20.747056513701708 L-36.85402328846526,21.06616880306072 L-36.67061684712574,21.383834087329795 L-36.48454581356003,21.699779179900606 L-36.29597674523932,22.01373597032724 L-36.105084934577135,22.32544156653275 L-35.91205428865239,22.634638422052124 L-35.71712447846723,22.94100082769317 L-35.52177314601515,23.242334916080374 L-35.32677651498674,23.537658352947222 L-35.13233634343858,23.826905859094698 L-34.938650974634065,24.110022149216142 L-34.74591510821965,24.386961340829004 L-34.55431957918082,24.65768640108134 L-34.36405114386622,24.922168629257133 L-34.17529227245394,25.180387172893653 L-33.98822094731957,25.432328575513495 L-33.80301046685145,25.677986354063133 L-33.619829254343784,25.917360604239242 L-33.43884067168429,26.150457631973172 L-33.08406845061781,26.597874253995226 L-32.73989267740516,27.020398362940178 L-32.40742008102252,27.418271713142275 L-32.087660093235016,27.791807597231518 L-31.781520033539778,28.14138383651011 L-31.48980068835126,28.467436710708625 L-31.213192363212038,28.770455725757273 L-30.952062300285345,29.051202025164518 L-30.70562477461108,29.311552439399627 L-30.473982276375793,29.55230792605379 L-30.257391721420042,29.774028051898878 L-30.05607833466387,29.977235624735318 L-29.700044003359586,30.330016256155357 L-29.407160855466625,30.614071764307567 L-29.01441306635395,30.986550867029976 L-28.915762461446814,31.078629003572395 L-28.891054349929906,31.10159928707321 L-28.8848721792187,31.107340919296874 L-28.88281051950108,31.109255158145228 " />
			<path d="M-28.882810519524813,-31.10925515812358 L-28.885111958363314,-31.10711827315604 L-28.89201389496766,-31.100707923562048 L-28.919602851678253,-31.075055448861413 L-29.029773010569745,-30.97216135073799 L-29.212881586009303,-30.79951378694141 L-29.468275555398005,-30.555248909280046 L-29.79502648482482,-30.236714381471717 L-30.191857061930786,-29.840480346475704 L-30.416037042555324,-29.611943380416424 L-30.657068811191937,-29.362333551375293 L-30.91499893252732,-29.090640046412506 L-31.18965359407223,-28.79597208008707 L-31.480633707654924,-28.477573689314248 L-31.787454794709923,-28.134680003797122 L-32.10954061456016,-27.766524817152174 L-32.4462171022709,-27.372349075668314 L-32.79670666785496,-26.95141057139167 L-33.16012290860883,-26.502995126228626 L-33.34637058063429,-26.268271183320184 L-33.535465786359,-26.026429553759503 L-33.7272650588538,-25.77739495859194 L-33.92161732139838,-25.521096685455316 L-34.118363784813944,-25.257469191204294 L-34.3173378548919,-24.986452747989986 L-34.518365050322956,-24.707994135034532 L-34.7205141110501,-24.423112008998675 L-34.92207111912297,-24.134030943438514 L-35.12275754853468,-23.841023530128393 L-35.32234312023097,-23.5443109216348 L-35.5206047546382,-23.244120494501402 L-35.71732683747669,-22.940685755894524 L-35.91230146399846,-22.63424624280566 L-36.10532866164934,-22.325047413810974 L-36.296216591155506,-22.013340533387833 L-36.48478172603432,-21.699382548788314 L-36.67084901052962,-21.38343595946978 L-36.85425199597137,-21.065768679082396 L-37.03483295555963,-20.746653890013718 L-37.21244297757303,-20.426369890490243 L-37.38694203700152,-20.105199934236015 L-37.55819904560353,-19.783432062688192 L-37.72605176639811,-19.46143669171447 L-37.8893390753941,-19.141590430735988 L-38.04759835817962,-18.82505667599833 L-38.200873960338875,-18.512042794704655 L-38.34921717502419,-18.202748199814167 L-38.49268561666398,-17.897364447409068 L-38.63134263136118,-17.596075321861537 L-38.765256741741695,-17.29905690927253 L-38.894501124132915,-17.006477659683622 L-39.01915311607219,-16.718498438592633 L-39.139293752265495,-16.43527256833331 L-39.255007327236555,-16.1569458599088 L-39.366380983026836,-15.883656635898141 L-39.576469032341095,-15.352706569483791 L-39.77029775688513,-14.843379552807491 L-39.948629886548865,-14.356513164104747 L-40.112241456597836,-13.892824950604346 L-40.261913329632605,-13.452911763378669 L-40.39842372819592,-13.037248963927961 L-40.52254172963508,-12.646189621409194 L-40.63511012452811,-12.2796712055196 L-40.737361432783196,-11.936074844904951 L-40.830040549661774,-11.615088818032119 L-40.91376053241787,-11.316655836150384 L-40.98908675837305,-11.040709545748802 L-41.11658658003464,-10.555984459407616 L-41.21614429095818,-10.160312463576009 L-41.34234676011967,-9.633943355940726 L-41.372763462833774,-9.50247035874015 L-41.380302255990614,-9.469587365260818 L-41.38218356993532,-9.461362632505875 L-41.38281051951656,-9.458620063507851 " />

       </g>
    </g>
    
</svg>
