<?xml version="1.0" encoding="UTF-8" standalone="no"?>
<svg
   xmlns:svg="http://www.w3.org/2000/svg"
   xmlns="http://www.w3.org/2000/svg"
   width="800.0"
   height="800.0"

>
    <g transform="scale(159.1836734693877, -159.1836734693877)   translate(2.5128205128205137,-2.512820512820514)" stroke-width="0.5"  fill="none">
       <!-- hidden lines -->
       <g  stroke="rgb(127,127,127)" fill="none" stroke-dasharray="0.5,0.5" >

       </g>

       <!-- solid lines -->
       <g  stroke="rgb(10,10,10)" fill="none">
			<path d="M0.0,-2.0 L0.12558103905862675,-1.9960534568565431 L0.2506664671286085,-1.9842294026289558 L0.37476262917144926,-1.9645745014573774 L0.4973797743297096,-1.9371663222572622 L0.6180339887498948,-1.902113032590307 L0.7362491053693558,-1.859552971776503 L0.8515585831301452,-1.8096541049320392 L0.9635073482034304,-1.7526133600877272 L1.071653589957993,-1.6886558510040304 L1.175570504584946,-1.618033988749895 L1.2748479794973793,-1.5410264855515787 L1.369094211857377,-1.4579372548428233 L1.4579372548428227,-1.3690942118573777 L1.541026485551578,-1.2748479794973797 L1.6180339887498945,-1.1755705045849467 L1.68865585100403,-1.0716535899579935 L1.7526133600877272,-0.9635073482034306 L1.8096541049320392,-0.8515585831301453 L1.859552971776503,-0.7362491053693557 L1.9021130325903073,-0.6180339887498946 L1.9371663222572624,-0.4973797743297091 L1.9645745014573774,-0.3747626291714486 L1.9842294026289558,-0.25066646712860763 L1.9960534568565431,-0.12558103905862572 L2.0,1.2098029496354525e-15 L1.9960534568565431,0.12558103905862814 L1.9842294026289555,0.25066646712861 L1.964574501457377,0.374762629171451 L1.9371663222572617,0.4973797743297114 L1.9021130325903064,0.6180339887498968 L1.859552971776502,0.7362491053693581 L1.8096541049320383,0.8515585831301471 L1.752613360087726,0.9635073482034324 L1.6886558510040288,1.071653589957995 L1.6180339887498933,1.1755705045849483 L1.5410264855515767,1.2748479794973815 L1.457937254842821,1.3690942118573795 L1.3690942118573752,1.457937254842825 L1.274847979497377,1.5410264855515805 L1.1755705045849436,1.618033988749897 L1.0716535899579902,1.6886558510040321 L0.9635073482034273,1.752613360087729 L0.8515585831301418,1.8096541049320407 L0.7362491053693522,1.8595529717765042 L0.6180339887498908,1.9021130325903084 L0.4973797743297053,1.9371663222572633 L0.37476262917144476,1.964574501457378 L0.2506664671286038,1.9842294026289562 L0.12558103905862186,1.9960534568565433 L-5.084141158371281e-15,2.0 L-0.125581039058632,1.996053456856543 L-0.2506664671286139,1.984229402628955 L-0.37476262917145475,1.9645745014573763 L-0.4973797743297152,1.9371663222572608 L-0.6180339887499005,1.9021130325903053 L-0.7362491053693616,1.8595529717765005 L-0.851558583130151,1.8096541049320363 L-0.9635073482034362,1.752613360087724 L-1.0716535899579989,1.6886558510040266 L-1.1755705045849518,1.618033988749891 L-1.2748479794973848,1.541026485551574 L-1.3690942118573826,1.4579372548428182 L-1.457937254842828,1.369094211857372 L-1.5410264855515832,1.2748479794973737 L-1.618033988749899,1.1755705045849407 L-1.6886558510040335,1.0716535899579882 L-1.7526133600877298,0.9635073482034259 L-1.809654104932041,0.8515585831301411 L-1.8595529717765042,0.7362491053693523 L-1.9021130325903082,0.6180339887498918 L-1.9371663222572628,0.49737977432970715 L-1.9645745014573777,0.37476262917144754 L-1.9842294026289558,0.25066646712860746 L-1.9960534568565431,0.12558103905862641 L-2.0,3.6739403974420594e-16 L-1.9960534568565431,-0.12558103905862567 L-1.984229402628956,-0.2506664671286067 L-1.9645745014573779,-0.3747626291714468 L-1.937166322257263,-0.4973797743297064 L-1.9021130325903084,-0.6180339887498911 L-1.8595529717765045,-0.7362491053693516 L-1.8096541049320414,-0.8515585831301404 L-1.75261336008773,-0.9635073482034252 L-1.6886558510040337,-1.0716535899579875 L-1.6180339887498993,-1.1755705045849403 L-1.5410264855515836,-1.274847979497373 L-1.457937254842829,-1.3690942118573708 L-1.3690942118573843,-1.4579372548428164 L-1.2748479794973875,-1.5410264855515718 L-1.1755705045849552,-1.6180339887498882 L-1.0716535899580033,-1.688655851004024 L-0.9635073482034415,-1.7526133600877212 L-0.8515585831301573,-1.8096541049320334 L-0.7362491053693689,-1.8595529717764976 L-0.6180339887499088,-1.9021130325903026 L-0.49737977432972447,-1.9371663222572584 L-0.3747626291714651,-1.9645745014573743 L-0.25066646712862517,-1.9842294026289535 L-0.12558103905864426,-1.996053456856542 L-1.8253427113661445e-14,-2.0 " />
			<path d="M0.0,-1.0 L-0.08838010459734248,-0.9960868220749448 L-0.17606851504603618,-0.9843779142227256 L-0.26237895064197914,-0.96496491452281 L-0.3466359152026193,-0.9379997560189675 L-0.4281799837404552,-0.9036934776372039 L-0.5063729633576438,-0.8623145725200279 L-0.5806028879707206,-0.8141868867035743 L-0.6502888077749368,-0.759687084583285 L-0.7148853359641624,-0.6992417010043142 L-0.7738869171221067,-0.6333238030480471 L-0.8268317838789085,-0.5624492876407808 L-0.8733055708668926,-0.48717284396079663 L-0.9129445576913886,-0.40808361224346507 L-0.9454385155359702,-0.3258005729601177 L-0.9705331351235672,-0.24096770245661464 L-0.988032017031364,-0.1542489329653026 L-0.9977982087825711,-0.06632295643510426 L-0.999755276685243,0.022122087153186552 L-0.9938879040295507,0.11039399541526937 L-0.980242010961803,0.19780192098551685 L-0.9589243950970403,0.2836617783342963 L-0.9301018956828964,0.36730159766475634 L-0.8940000878562759,0.44806678398757804 L-0.8509015172120623,0.5253252402142986 L-0.8011434885007482,0.5984723141740573 L-0.7451154257614284,0.6669355308366508 L-0.6832558245506933,0.7301790727058344 L-0.6160488201203638,0.7877079733177186 L-0.5440203984027318,0.839071991024449 L-0.4677342794574811,0.8838691327455614 L-0.3877875055979012,0.9217488001088788 L-0.3048057687252855,0.9524145333581318 L-0.2194385134414592,0.9756263315525071 L-0.13235385426422086,0.9912025308994148 L-0.04423334672537708,0.9990212265199737 L0.044233346725380825,0.9990212265199735 L0.13235385426422458,0.9912025308994143 L0.21943851344146287,0.9756263315525063 L0.30480576872528903,0.9524145333581305 L0.38778750559790465,0.9217488001088773 L0.46773427945748436,0.8838691327455598 L0.5440203984027349,0.839071991024447 L0.6160488201203668,0.7877079733177162 L0.683255824550696,0.7301790727058318 L0.745115425761431,0.666935530836648 L0.8011434885007502,0.5984723141740547 L0.8509015172120638,0.5253252402142962 L0.894000087856277,0.4480667839875759 L0.9301018956828971,0.3673015976647543 L0.9589243950970409,0.28366177833429435 L0.9802420109618033,0.19780192098551513 L0.993887904029551,0.11039399541526786 L0.999755276685243,0.02212208715318524 L0.997798208782571,-0.06632295643510534 L0.9880320170313639,-0.15424893296530345 L0.9705331351235671,-0.24096770245661525 L0.9454385155359701,-0.3258005729601181 L0.9129445576913886,-0.4080836122434653 L0.8733055708668926,-0.48717284396079663 L0.8268317838789088,-0.5624492876407805 L0.773886917122107,-0.6333238030480467 L0.7148853359641629,-0.6992417010043136 L0.6502888077749376,-0.7596870845832844 L0.5806028879707216,-0.8141868867035735 L0.506372963357645,-0.8623145725200271 L0.42817998374045674,-0.9036934776372032 L0.34663591520262116,-0.9379997560189668 L0.2623789506419812,-0.9649649145228094 L0.17606851504603854,-0.9843779142227251 L0.08838010459734513,-0.9960868220749446 L2.9094646189298464e-15,-1.0 " />
			<path d="M-6.000769315822031e-16,-2.45 L-0.1398675866137822,-2.4460043046190325 L-0.2792789542318252,-2.4340302516039483 L-0.417779371949929,-2.414116897826848 L-0.5549170801931234,-2.386329196508717 L-0.6902447642615034,-2.3507577853555186 L-0.8233210133778045,-2.3075186909168357 L-0.9537117604776099,-2.2567529501313826 L-1.080991698045893,-2.198626150293828 L-1.20474566538173,-2.1333278889434535 L-1.3245700027662148,-2.0610711554363936 L-1.44007386811656,-1.9820916362186212 L-1.5508805118317333,-1.896646946065752 L-1.6566285056713483,-1.805015787797192 L-1.7569729216594614,-1.707497043205469 L-1.8515864571679337,-1.6044087981659483 L-1.940160502509575,-1.4960873051068233 L-2.022406147558797,-1.3828858862235844 L-2.098055124116394,-1.2651737810154564 L-2.1668606809446462,-1.1433349419029 L-2.2285983886185714,-1.017766781854621 L-2.283066871568059,-0.8888788781090692 L-2.330088464923127,-0.7570916362186197 L-2.369509794019796,-0.6228349187740412 L-2.401202274676365,-0.4865466432820743 L-2.425062532608286,-0.34867135376954617 L-2.4410127406135946,-0.20965877077315467 L-2.4490008724290644,-0.06996232444455283 L-2.4490008724290644,0.06996232444455909 L-2.441012740613594,0.2096587707731609 L-2.4250625326082855,0.3486713537695524 L-2.401202274676364,0.4865466432820804 L-2.3695097940197947,0.6228349187740472 L-2.3300884649231257,0.7570916362186256 L-2.283066871568057,0.8888788781090751 L-2.2285983886185683,1.0177667818546263 L-2.166860680944643,1.1433349419029053 L-2.098055124116391,1.2651737810154613 L-2.022406147558794,1.3828858862235884 L-1.9401605025095718,1.496087305106827 L-1.8515864571679308,1.6044087981659518 L-1.7569729216594585,1.7074970432054721 L-1.656628505671346,1.8050157877971948 L-1.5508805118317308,1.8966469460657547 L-1.4400738681165575,1.9820916362186236 L-1.3245700027662126,2.0610711554363963 L-1.204745665381728,2.133327888943456 L-1.0809916980458911,2.19862615029383 L-0.9537117604776082,2.2567529501313843 L-0.8233210133778031,2.3075186909168366 L-0.6902447642615023,2.3507577853555195 L-0.5549170801931225,2.386329196508718 L-0.4177793719499282,2.414116897826849 L-0.2792789542318248,2.434030251603949 L-0.13986758661378207,2.4460043046190334 L-7.879800983415522e-16,2.450000000000001 L0.13986758661378051,2.446004304619034 L0.27927895423182325,2.4340302516039496 L0.4177793719499267,2.4141168978268492 L0.5549170801931209,2.386329196508719 L0.6902447642615007,2.3507577853555204 L0.8233210133778015,2.307518690916838 L0.9537117604776068,2.2567529501313848 L1.0809916980458893,2.1986261502938302 L1.2047456653817263,2.1333278889434566 L1.3245700027662113,2.0610711554363967 L1.4400738681165561,1.9820916362186243 L1.5508805118317295,1.8966469460657553 L1.6566285056713446,1.805015787797196 L1.7569729216594574,1.7074970432054732 L1.85158645716793,1.604408798165953 L1.9401605025095716,1.4960873051068275 L2.0224061475587947,1.3828858862235882 L2.0980551241163923,1.2651737810154597 L2.166860680944645,1.143334941902903 L2.22859838861857,1.0177667818546237 L2.2830668715680584,0.8888788781090714 L2.3300884649231266,0.7570916362186214 L2.3695097940197956,0.6228349187740424 L2.401202274676365,0.486546643282075 L2.425062532608286,0.3486713537695464 L2.4410127406135946,0.2096587707731543 L2.4490008724290644,0.06996232444455197 L2.4490008724290644,-0.06996232444456049 L2.441012740613594,-0.20965877077316286 L2.425062532608285,-0.3486713537695549 L2.401202274676363,-0.4865466432820834 L2.369509794019794,-0.6228349187740507 L2.3300884649231244,-0.7570916362186295 L2.2830668715680553,-0.8888788781090794 L2.228598388618566,-1.017766781854631 L2.16686068094464,-1.1433349419029104 L2.0980551241163874,-1.265173781015467 L2.0224061475587893,-1.382885886223595 L1.940160502509566,-1.4960873051068342 L1.851586457167924,-1.6044087981659594 L1.7569729216594503,-1.70749704320548 L1.6566285056713363,-1.805015787797203 L1.55088051183172,-1.896646946065763 L1.4400738681165455,-1.9820916362186318 L1.3245700027661993,-2.061071155436404 L1.204745665381713,-2.1333278889434637 L1.0809916980458747,-2.1986261502938373 L0.9537117604775904,-2.2567529501313914 L0.823321013377784,-2.3075186909168424 L0.6902447642614816,-2.350757785355525 L0.5549170801931005,-2.386329196508722 L0.41777937194990494,-2.414116897826852 L0.2792789542318002,-2.434030251603951 L0.1398675866137563,-2.446004304619034 L-2.6112445539183687e-14,-2.45 " />
			<path d="M-6.000769315822031e-16,-2.45 L-4.898587196589413e-16,-2.0 " />

       </g>
    </g>
    
</svg>
