<?xml version="1.0" encoding="UTF-8" standalone="no"?>
<svg
   xmlns:svg="http://www.w3.org/2000/svg"
   xmlns="http://www.w3.org/2000/svg"
   width="800.0"
   height="800.0"

>
    <g transform="scale(9.454545454545455, -9.454545454545455)   translate(42.30769230769231,-42.30769230769231)" stroke-width="0.5"  fill="none">
       <!-- hidden lines -->
       <g  stroke="rgb(127,127,127)" fill="none" stroke-dasharray="0.5,0.5" >

       </g>

       <!-- solid lines -->
       <g  stroke="rgb(10,10,10)" fill="none">
			<path d="M0.0,-41.25 L0.5733916966929993,-41.24601461913822 L1.1466725965717293,-41.234059246650354 L1.7197319242312537,-41.21413619268005 L2.2924589470811676,-41.18624930697074 L2.8647429967425175,-41.15040397812171 L3.4364734904323218,-41.106607132546905 L4.007539952331542,-41.05486723313652 L4.577832034932394,-40.9951942776217 L5.147239540360857,-40.927599796642674 L5.715652441670284,-40.85209685152071 L6.282960904101958,-40.76870003173423 L6.849055306308539,-40.67742545209968 L7.413826261536258,-40.5782907496577 L7.97716463876178,-40.47131508026504 L8.53896158377966,-40.35651911489314 L9.099108540236303,-40.23392503563378 L9.657497270606374,-40.1035565314129 L10.214019877107596,-39.96543879341313 L10.768568822549906,-39.81959851020608 L11.321036951114921,-39.66606386259532 L11.871317509061727,-39.50486451817098 L12.419304165354973,-39.336031625577036 L12.964891032211257,-39.15959780849247 L13.507972685559915,-38.975597159327364 L14.048444185414144,-38.784065232635214 L14.586201096148647,-38.585039038242684 L15.12113950667977,-38.3785570340982 L15.653156050544311,-38.16465911884067 L16.18214792587308,-37.94338662408986 L16.708012915255356,-37.71478230645989 L17.23064940549044,-37.478890339297294 L17.74995640722241,-37.235756304145404 L18.265833574454366,-36.985427181936615 L18.778181223938336,-36.727951343914214 L19.286900354437144,-36.463378542285575 L19.791892665854466,-36.19175990060854 L20.293060578229415,-35.91314790391273 L20.790307250591976,-35.62759638855788 L21.283536599675646,-35.335160531831 L21.772653318483666,-35.0358968412844 L22.25756289470522,-34.72986314381676 L22.738171628978147,-34.417118574499135 L23.214386652994488,-34.09772356514832 L23.6861159474455,-33.771739832649544 L24.153268359802606,-33.43923036703085 L24.61575362193083,-33.100259419291554 L25.07348236753138,-32.75489248898694 L25.526366149409956,-32.40319631157176 L25.974317456567427,-32.04523884550491 L26.41724973110966,-31.68108925911776 L26.855077384973143,-31.31081791724873 L27.287715816463198,-30.934496367646652 L27.715081426601664,-30.552197327145546 L28.13709163528072,-30.163994667613505 L28.553664897219917,-29.769963401678396 L28.96472071772323,-29.370179668233128 L29.370179668233078,-28.964720717723285 L29.769963401678343,-28.553664897219974 L30.163994667613455,-28.137091635280772 L30.552197327145496,-27.71508142660172 L30.934496367646602,-27.28771581646326 L31.31081791724868,-26.855077384973196 L31.68108925911771,-26.417249731109717 L32.045238845504855,-25.974317456567483 L32.40319631157171,-25.526366149410016 L32.7548924889869,-25.073482367531444 L33.10025941929151,-24.615753621930892 L33.43923036703081,-24.15326835980267 L33.7717398326495,-23.68611594744557 L34.097723565148286,-23.214386652994552 L34.41711857449909,-22.73817162897821 L34.729863143816715,-22.257562894705284 L35.03589684128436,-21.77265331848373 L35.33516053183096,-21.28353659967571 L35.62759638855784,-20.79030725059204 L35.913147903912694,-20.29306057822948 L36.1917599006085,-19.791892665854533 L36.46337854228554,-19.28690035443721 L36.72795134391418,-18.778181223938404 L36.98542718193658,-18.265833574454433 L37.23575630414537,-17.74995640722248 L37.478890339297266,-17.23064940549051 L37.71478230645987,-16.708012915255424 L37.94338662408983,-16.18214792587315 L38.16465911884064,-15.65315605054438 L38.378557034098165,-15.12113950667984 L38.585039038242655,-14.586201096148718 L38.784065232635186,-14.048444185414215 L38.97559715932734,-13.507972685559986 L39.15959780849244,-12.964891032211332 L39.336031625577014,-12.419304165355044 L39.504864518170955,-11.871317509061802 L39.6660638625953,-11.321036951114994 L39.819598510206056,-10.768568822549978 L39.96543879341311,-10.21401987710767 L40.103556531412885,-9.657497270606447 L40.23392503563377,-9.099108540236378 L40.356519114893125,-8.538961583779736 L40.47131508026503,-7.977164638761858 L40.57829074965768,-7.413826261536337 L40.67742545209967,-6.849055306308619 L40.76870003173421,-6.2829609041020404 L40.852096851520706,-5.715652441670367 L40.92759979664267,-5.147239540360942 L40.99519427762169,-4.577832034932478 L41.054867233136505,-4.007539952331628 L41.10660713254689,-3.4364734904324097 L41.150403978121695,-2.8647429967426064 L41.18624930697073,-2.2924589470812577 L41.21413619268005,-1.719731924231345 L41.23405924665035,-1.1466725965718212 L41.246014619138215,-0.5733916966930923 L41.25,-9.411923355481683e-14 L41.24601461913822,0.5733916966929041 L41.234059246650354,1.1466725965716331 L41.21413619268006,1.7197319242311568 L41.186249306970744,2.2924589470810695 L41.15040397812171,2.8647429967424185 L41.10660713254691,3.436473490432222 L41.05486723313653,4.007539952331441 L40.99519427762171,4.577832034932291 L40.92759979664269,5.147239540360755 L40.85209685152073,5.71565244167018 L40.76870003173424,6.282960904101854 L40.6774254520997,6.8490553063084345 L40.57829074965772,7.413826261536151 L40.471315080265065,7.977164638761672 L40.35651911489316,8.538961583779551 L40.23392503563381,9.099108540236195 L40.10355653141293,9.657497270606266 L39.965438793413156,10.214019877107487 L39.819598510206106,10.768568822549796 L39.66606386259535,11.321036951114811 L39.50486451817101,11.87131750906162 L39.33603162557707,12.419304165354866 L39.15959780849251,12.964891032211153 L38.9755971593274,13.507972685559807 L38.78406523263525,14.048444185414038 L38.585039038242726,14.586201096148542 L38.37855703409824,15.121139506679667 L38.16465911884071,15.653156050544206 L37.94338662408991,16.182147925872975 L37.71478230645994,16.708012915255253 L37.478890339297344,17.23064940549034 L37.23575630414545,17.74995640722231 L36.985427181936664,18.265833574454263 L36.72795134391426,18.778181223938237 L36.46337854228563,19.286900354437048 L36.191759900608595,19.79189266585437 L35.91314790391279,20.29306057822932 L35.62759638855794,20.79030725059188 L35.33516053183106,21.28353659967555 L35.03589684128446,21.77265331848357 L34.729863143816814,22.25756289470512 L34.4171185744992,22.738171628978055 L34.097723565148385,23.214386652994396 L33.77173983264961,23.686115947445412 L33.439230367030916,24.153268359802514 L33.10025941929162,24.61575362193074 L32.75489248898701,25.07348236753129 L32.403196311571826,25.526366149409863 L32.045238845504976,25.974317456567338 L31.68108925911783,26.417249731109575 L31.310817917248805,26.855077384973054 L30.934496367646727,27.287715816463116 L30.552197327145624,27.715081426601582 L30.163994667613583,28.137091635280637 L29.76996340167847,28.553664897219836 L29.370179668233206,28.96472071772315 L28.964720717723363,29.370179668232996 L28.553664897220052,29.769963401678265 L28.137091635280854,30.163994667613377 L27.715081426601802,30.552197327145418 L27.28771581646334,30.93449636764653 L26.855077384973285,31.310817917248606 L26.417249731109806,31.681089259117634 L25.974317456567572,32.04523884550479 L25.5263661494101,32.40319631157164 L25.07348236753153,32.754892488986826 L24.615753621930978,33.10025941929144 L24.15326835980276,33.43923036703074 L23.686115947445657,33.77173983264944 L23.214386652994644,34.09772356514822 L22.7381716289783,34.41711857449903 L22.25756289470538,34.72986314381665 L21.77265331848382,35.035896841284305 L21.283536599675806,35.3351605318309 L20.790307250592136,35.62759638855779 L20.29306057822958,35.91314790391264 L19.791892665854633,36.191759900608446 L19.286900354437314,36.46337854228549 L18.778181223938503,36.72795134391413 L18.265833574454533,36.98542718193653 L17.74995640722258,37.23575630414532 L17.230649405490613,37.478890339297216 L16.708012915255527,37.71478230645982 L16.182147925873252,37.94338662408979 L15.653156050544485,38.164659118840596 L15.121139506679947,38.37855703409813 L14.586201096148823,38.58503903824262 L14.048444185414322,38.78406523263515 L13.507972685560091,38.97559715932731 L12.964891032211437,39.15959780849241 L12.419304165355152,39.33603162557698 L11.871317509061909,39.504864518170926 L11.321036951115103,39.66606386259527 L10.768568822550087,39.81959851020603 L10.214019877107779,39.96543879341308 L9.657497270606557,40.103556531412856 L9.099108540236488,40.23392503563374 L8.538961583779846,40.356519114893096 L7.977164638761967,40.47131508026501 L7.413826261536448,40.57829074965766 L6.84905530630873,40.67742545209965 L6.2829609041021515,40.7687000317342 L5.715652441670478,40.852096851520685 L5.147239540361053,40.92759979664265 L4.57783203493259,40.99519427762168 L4.00753995233174,41.0548672331365 L3.436473490432521,41.106607132546884 L2.8647429967427187,41.150403978121695 L2.2924589470813697,41.18624930697072 L1.7197319242314573,41.214136192680044 L1.1466725965719338,41.23405924665035 L0.5733916966932048,41.246014619138215 L2.0655714701594874e-13,41.25 L-0.5733916966927918,41.24601461913822 L-1.1466725965715208,41.23405924665036 L-1.7197319242310445,41.21413619268006 L-2.2924589470809575,41.18624930697075 L-2.8647429967423066,41.15040397812172 L-3.4364734904321095,41.10660713254692 L-4.007539952331329,41.054867233136534 L-4.57783203493218,40.99519427762172 L-5.147239540360643,40.9275997966427 L-5.715652441670069,40.85209685152074 L-6.282960904101743,40.76870003173426 L-6.8490553063083235,40.67742545209972 L-7.413826261536042,40.57829074965773 L-7.977164638761562,40.471315080265086 L-8.538961583779441,40.35651911489318 L-9.099108540236085,40.23392503563383 L-9.657497270606155,40.103556531412956 L-10.21401987710738,39.965438793413185 L-10.768568822549689,39.819598510206134 L-11.321036951114703,39.66606386259539 L-11.871317509061512,39.50486451817105 L-12.419304165354758,39.33603162557711 L-12.964891032211046,39.159597808492535 L-13.507972685559702,38.975597159327435 L-14.048444185413933,38.78406523263529 L-14.586201096148436,38.58503903824276 L-15.121139506679562,38.378557034098286 L-15.653156050544103,38.16465911884075 L-16.182147925872872,37.94338662408995 L-16.70801291525515,37.71478230645998 L-17.230649405490237,37.478890339297386 L-17.749956407222207,37.235756304145504 L-18.265833574454163,36.985427181936714 L-18.778181223938134,36.72795134391431 L-19.286900354436945,36.46337854228568 L-19.79189266585427,36.191759900608645 L-20.29306057822922,35.913147903912844 L-20.79030725059178,35.627596388558 L-21.283536599675454,35.335160531831114 L-21.77265331848347,35.03589684128452 L-22.257562894705032,34.72986314381688 L-22.73817162897796,34.41711857449926 L-23.2143866529943,34.09772356514845 L-23.68611594744532,33.77173983264967 L-24.15326835980242,33.43923036703099 L-24.615753621930647,33.10025941929169 L-25.0734823675312,32.754892488987075 L-25.526366149409778,32.4031963115719 L-25.974317456567253,32.04523884550505 L-26.41724973110949,31.6810892591179 L-26.85507738497297,31.31081791724888 L-27.287715816463034,30.934496367646805 L-27.715081426601497,30.552197327145695 L-28.13709163528055,30.163994667613657 L-28.553664897219754,29.76996340167855 L-28.964720717723072,29.370179668233288 L-29.370179668232918,28.96472071772345 L-29.76996340167819,28.553664897220134 L-30.1639946676133,28.13709163528094 L-30.552197327145343,27.715081426601884 L-30.934496367646457,27.28771581646343 L-31.31081791724855,26.855077384973352 L-31.681089259117577,26.417249731109877 L-32.04523884550473,25.974317456567643 L-32.403196311571584,25.526366149410176 L-32.75489248898676,25.073482367531604 L-33.10025941929139,24.615753621931056 L-33.43923036703069,24.153268359802833 L-33.77173983264938,23.686115947445735 L-34.097723565148165,23.214386652994722 L-34.41711857449898,22.738171628978385 L-34.7298631438166,22.25756289470546 L-35.035896841284256,21.772653318483904 L-35.33516053183085,21.28353659967589 L-35.62759638855774,20.790307250592218 L-35.91314790391259,20.29306057822966 L-36.1917599006084,19.791892665854714 L-36.46337854228545,19.286900354437396 L-36.72795134391408,18.77818122393859 L-36.98542718193649,18.265833574454618 L-37.23575630414528,17.749956407222665 L-37.47889033929717,17.2306494054907 L-37.714782306459774,16.708012915255615 L-37.943386624089754,16.182147925873338 L-38.16465911884056,15.653156050544572 L-38.378557034098094,15.121139506680034 L-38.585039038242584,14.58620109614891 L-38.784065232635115,14.048444185414409 L-38.97559715932727,13.50797268556018 L-39.15959780849238,12.964891032211526 L-39.33603162557695,12.419304165355241 L-39.5048645181709,11.871317509061997 L-39.666063862595244,11.321036951115191 L-39.819598510206006,10.76856882255018 L-39.96543879341306,10.21401987710787 L-40.103556531412835,9.65749727060665 L-40.23392503563372,9.099108540236578 L-40.356519114893075,8.538961583779937 L-40.471315080264986,7.97716463876206 L-40.57829074965765,7.413826261536539 L-40.677425452099634,6.8490553063088235 L-40.768700031734184,6.282960904102244 L-40.85209685152067,5.715652441670571 L-40.92759979664264,5.147239540361147 L-40.995194277621664,4.577832034932684 L-41.05486723313649,4.007539952331833 L-41.10660713254688,3.436473490432615 L-41.15040397812168,2.8647429967428124 L-41.18624930697072,2.292458947081464 L-41.214136192680044,1.7197319242315514 L-41.23405924665035,1.1466725965720277 L-41.246014619138215,0.5733916966932989 L-41.25,3.006763805707656e-13 L-41.24601461913822,-0.5733916966926976 L-41.23405924665036,-1.1466725965714266 L-41.214136192680066,-1.7197319242309506 L-41.18624930697075,-2.2924589470808634 L-41.15040397812172,-2.8647429967422124 L-41.10660713254693,-3.4364734904320158 L-41.05486723313655,-4.007539952331236 L-40.99519427762173,-4.5778320349320865 L-40.92759979664272,-5.14723954036055 L-40.852096851520756,-5.715652441669976 L-40.76870003173428,-6.28296090410165 L-40.67742545209973,-6.84905530630823 L-40.578290749657754,-7.413826261535949 L-40.4713150802651,-7.97716463876147 L-40.3565191148932,-8.538961583779349 L-40.23392503563385,-9.099108540235992 L-40.10355653141298,-9.657497270606063 L-39.965438793413206,-10.214019877107289 L-39.81959851020616,-10.768568822549597 L-39.66606386259541,-11.321036951114614 L-39.50486451817107,-11.871317509061424 L-39.336031625577135,-12.419304165354669 L-39.15959780849257,-12.964891032210955 L-38.97559715932747,-13.507972685559611 L-38.78406523263532,-14.048444185413844 L-38.5850390382428,-14.586201096148349 L-38.378557034098314,-15.121139506679475 L-38.16465911884079,-15.653156050544016 L-37.94338662408999,-16.182147925872783 L-37.71478230646002,-16.708012915255065 L-37.47889033929743,-17.23064940549015 L-37.23575630414554,-17.749956407222122 L-36.98542718193676,-18.26583357445408 L-36.727951343914356,-18.778181223938052 L-36.463378542285724,-19.286900354436863 L-36.191759900608695,-19.79189266585419 L-35.913147903912886,-20.293060578229138 L-35.62759638855805,-20.790307250591702 L-35.335160531831164,-21.283536599675372 L-35.03589684128457,-21.77265331848339 L-34.72986314381693,-22.257562894704954 L-34.41711857449931,-22.73817162897788 L-34.0977235651485,-23.21438665299422 L-33.77173983264973,-23.68611594744524 L-33.43923036703104,-24.153268359802347 L-33.100259419291746,-24.61575362193057 L-32.75489248898713,-25.073482367531128 L-32.40319631157195,-25.526366149409704 L-32.04523884550511,-25.974317456567178 L-31.68108925911796,-26.417249731109415 L-31.310817917248936,-26.8550773849729 L-30.934496367646865,-27.28771581646296 L-30.552197327145763,-27.715081426601426 L-30.16399466761372,-28.137091635280484 L-29.769963401678613,-28.553664897219686 L-29.37017966823335,-28.964720717723004 L-28.964720717723512,-29.370179668232854 L-28.5536648972202,-29.769963401678126 L-28.137091635281006,-30.163994667613235 L-27.71508142660196,-30.55219732714528 L-27.287715816463496,-30.934496367646393 L-26.85507738497344,-31.310817917248475 L-26.417249731109965,-31.681089259117506 L-25.974317456567732,-32.045238845504656 L-25.52636614941026,-32.40319631157151 L-25.073482367531696,-32.7548924889867 L-24.615753621931148,-33.10025941929132 L-24.153268359802926,-33.439230367030625 L-23.686115947445828,-33.77173983264932 L-23.214386652994815,-34.0977235651481 L-22.738171628978474,-34.417118574498915 L-22.257562894705554,-34.729863143816544 L-21.772653318484,-35.03589684128419 L-21.283536599675987,-35.335160531830795 L-20.790307250592317,-35.627596388557684 L-20.29306057822976,-35.91314790391253 L-19.791892665854814,-36.191759900608346 L-19.286900354437496,-36.46337854228539 L-18.778181223938688,-36.72795134391403 L-18.265833574454717,-36.98542718193644 L-17.74995640722277,-37.235756304145234 L-17.2306494054908,-37.47889033929712 L-16.70801291525572,-37.71478230645973 L-16.18214792587344,-37.943386624089705 L-15.653156050544675,-38.16465911884052 L-15.121139506680139,-38.37855703409805 L-14.586201096149017,-38.58503903824254 L-14.048444185414514,-38.78406523263508 L-13.507972685560288,-38.975597159327236 L-12.964891032211634,-39.15959780849234 L-12.41930416535535,-39.336031625576915 L-11.871317509062106,-39.50486451817086 L-11.321036951115298,-39.666063862595216 L-10.768568822550286,-39.81959851020598 L-10.21401987710798,-39.96543879341303 L-9.657497270606758,-40.10355653141281 L-9.099108540236688,-40.233925035633696 L-8.538961583780047,-40.356519114893054 L-7.9771646387621695,-40.471315080264965 L-7.41382626153665,-40.578290749657626 L-6.8490553063089346,-40.67742545209961 L-6.282960904102355,-40.76870003173416 L-5.715652441670683,-40.852096851520656 L-5.147239540361258,-40.927599796642625 L-4.577832034932795,-40.99519427762165 L-4.007539952331946,-41.05486723313648 L-3.436473490432727,-41.10660713254687 L-2.8647429967429248,-41.15040397812168 L-2.2924589470815757,-41.186249306970716 L-1.7197319242316635,-41.21413619268004 L-1.1466725965721403,-41.23405924665034 L-0.5733916966934114,-41.24601461913821 L-4.131142940318975e-13,-41.25 " />
			<path d="M0.0,28.0 L0.12558103905862675,27.996053456856544 L0.2506664671286085,27.984229402628955 L0.37476262917144926,27.964574501457378 L0.4973797743297096,27.937166322257262 L0.6180339887498948,27.902113032590307 L0.7362491053693558,27.859552971776502 L0.8515585831301452,27.80965410493204 L0.9635073482034304,27.75261336008773 L1.071653589957993,27.68865585100403 L1.175570504584946,27.618033988749893 L1.2748479794973793,27.54102648555158 L1.369094211857377,27.45793725484282 L1.4579372548428227,27.369094211857377 L1.541026485551578,27.27484797949738 L1.6180339887498945,27.175570504584947 L1.68865585100403,27.071653589957993 L1.7526133600877272,26.963507348203432 L1.8096541049320392,26.851558583130146 L1.859552971776503,26.736249105369357 L1.9021130325903073,26.618033988749893 L1.9371663222572624,26.49737977432971 L1.9645745014573774,26.37476262917145 L1.9842294026289558,26.250666467128607 L1.9960534568565431,26.125581039058627 L2.0,26.0 L1.9960534568565431,25.874418960941373 L1.9842294026289555,25.74933353287139 L1.964574501457377,25.62523737082855 L1.9371663222572617,25.502620225670288 L1.9021130325903064,25.381966011250103 L1.859552971776502,25.263750894630643 L1.8096541049320383,25.148441416869854 L1.752613360087726,25.036492651796568 L1.6886558510040288,24.928346410042003 L1.6180339887498933,24.824429495415053 L1.5410264855515767,24.72515202050262 L1.457937254842821,24.63090578814262 L1.3690942118573752,24.542062745157175 L1.274847979497377,24.45897351444842 L1.1755705045849436,24.381966011250103 L1.0716535899579902,24.311344148995968 L0.9635073482034273,24.24738663991227 L0.8515585831301418,24.19034589506796 L0.7362491053693522,24.140447028223495 L0.6180339887498908,24.097886967409693 L0.4973797743297053,24.062833677742738 L0.37476262917144476,24.035425498542622 L0.2506664671286038,24.015770597371045 L0.12558103905862186,24.003946543143456 L-5.084141158371281e-15,24.0 L-0.125581039058632,24.003946543143456 L-0.2506664671286139,24.015770597371045 L-0.37476262917145475,24.035425498542622 L-0.4973797743297152,24.062833677742738 L-0.6180339887499005,24.097886967409696 L-0.7362491053693616,24.140447028223498 L-0.851558583130151,24.190345895067964 L-0.9635073482034362,24.247386639912275 L-1.0716535899579989,24.311344148995975 L-1.1755705045849518,24.38196601125011 L-1.2748479794973848,24.458973514448427 L-1.3690942118573826,24.542062745157182 L-1.457937254842828,24.630905788142627 L-1.5410264855515832,24.725152020502627 L-1.618033988749899,24.82442949541506 L-1.6886558510040335,24.92834641004201 L-1.7526133600877298,25.036492651796575 L-1.809654104932041,25.148441416869858 L-1.8595529717765042,25.263750894630647 L-1.9021130325903082,25.381966011250107 L-1.9371663222572628,25.50262022567029 L-1.9645745014573777,25.625237370828554 L-1.9842294026289558,25.749333532871393 L-1.9960534568565431,25.874418960941373 L-2.0,26.0 L-1.9960534568565431,26.125581039058627 L-1.984229402628956,26.250666467128607 L-1.9645745014573779,26.374762629171446 L-1.937166322257263,26.497379774329705 L-1.9021130325903084,26.61803398874989 L-1.8595529717765045,26.736249105369353 L-1.8096541049320414,26.851558583130142 L-1.75261336008773,26.963507348203425 L-1.6886558510040337,27.071653589957986 L-1.6180339887498993,27.17557050458494 L-1.5410264855515836,27.274847979497373 L-1.457937254842829,27.36909421185737 L-1.3690942118573843,27.457937254842818 L-1.2748479794973875,27.541026485551573 L-1.1755705045849552,27.61803398874989 L-1.0716535899580033,27.688655851004025 L-0.9635073482034415,27.75261336008772 L-0.8515585831301573,27.809654104932033 L-0.7362491053693689,27.8595529717765 L-0.6180339887499088,27.902113032590304 L-0.49737977432972447,27.93716632225726 L-0.3747626291714651,27.964574501457374 L-0.25066646712862517,27.984229402628955 L-0.12558103905864426,27.996053456856544 L-1.8253427113661445e-14,28.0 " />
			<path d="M0.0,-36.0 L0.5359865257152678,-35.99600975725298 L1.0718542338557169,-35.98403991356954 L1.6074843331860267,-35.96409312242645 L2.142758085144034,-35.93617380563142 L2.6775568301627155,-35.90028815234286 L3.211762013974659,-35.85644411769786 L3.7452552138931896,-35.80465142104872 L4.277918165064333,-35.744921543808324 L4.809632786683782,-35.677267726904994 L5.34028120817307,-35.60170496784717 L5.869745795309138,-35.51825001739881 L6.397909176301506,-35.42692137586608 L6.924654267811272,-35.32773928899616 L7.449864300906163,-35.22072574348921 L7.973422846945889,-35.105904462124336 L8.49521384339206,-34.9833008985007 L9.015121619536956,-34.852942231395005 L9.53303092214541,-34.71485735873647 L10.04882694100419,-34.56907689120073 L10.562395334373111,-34.41563314542409 L11.073622254332358,-34.25456013683952 L11.582394372020294,-34.08589357213615 L12.088598902756226,-33.90967084134378 L12.592123631042526,-33.725931009544276 L13.092856935440583,-33.53471480821158 L13.59068781331506,-33.3360646261824 L14.085505905440979,-33.13002450025939 L14.577201520468156,-32.91664010544911 L15.065665659237617,-32.69595874483677 L15.550790038944532,-32.46802933910008 L16.032467117142374,-32.232902415664476 L16.510590115582936,-31.990630097502223 L16.985053043886953,-31.7412660915778 L17.455750723040076,-31.484865676942086 L17.922578808708955,-31.22148569247813 L18.385433814372316,-30.951184524301087 L18.84421313426186,-30.674022092815164 L19.298815066107945,-30.390059839430474 L19.74913883368494,-30.099360712942683 L20.19508460915132,-29.801989155578514 L20.636553535179527,-29.498011088710193 L21.073447746870663,-29.18749389824196 L21.50567039344921,-28.870506419671997 L21.933125659732905,-28.547118922832933 L22.355718787373085,-28.21740309631441 L22.773356095860724,-27.881432031571173 L23.18594500329354,-27.539280206720132 L23.59339404689957,-27.191023470030032 L23.995612903312637,-26.836739023107416 L24.392512408595273,-26.476505403782532 L24.784004578004573,-26.110402468699103 L25.17000262549668,-25.73851137561165 L25.550420982965516,-25.36091456539443 L25.92517531921154,-24.977695743765977 L26.2941825586363,-24.588939862733135 L26.65736089965865,-24.19473310175895 L27.01462983284852,-23.795162848658354 L27.36591015877428,-23.390317680226033 L27.71112400555967,-22.98028734260071 L28.050194846146454,-22.565162731370208 L28.383047515258934,-22.145035871421694 L28.70960822606663,-21.7199998965416 L29.02980458654134,-21.2901490287697 L29.343565615505,-20.855578557511965 L29.65082175836482,-20.416384818416784 L29.95150490253217,-19.972665172019262 L30.245548392521762,-19.524517982158336 L30.532887044727858,-19.072042594171446 L30.81345716187418,-18.61533931287165 L31.087196547134347,-18.15450938031205 L31.35404451791966,-17.68965495334242 L31.613941919331232,-17.220879080963073 L31.866831137273447,-16.74828568148094 L32.11265611122588,-16.271979519472946 L32.3513623466708,-15.792066182561769 L32.58289692717348,-15.30865205800918 L32.80720852611281,-14.821844309132082 L33.02424741805928,-14.331750851546541 L33.23396548979821,-13.838480329245028 L33.43631625099545,-13.342142090512207 L33.63125484450338,-12.842846163684586 L33.81873805630484,-12.340703232759424 L33.998724325092816,-11.835824612858278 L34.17117375148379,-11.328322225550664 L34.3360481068626,-10.818308574043249 L34.49331084185697,-10.305896718240135 L34.64292709443981,-9.791200249679711 L34.78486369765743,-9.274333266353686 L34.91908918698194,-8.755410347413795 L35.04557380728642,-8.234546527771908 L35.1642895194409,-7.71185727259905 L35.27521000652821,-7.187458451729079 L35.37831067967785,-6.661466313972635 L35.47356868351685,-6.133997461347088 L35.56096290123639,-5.605168823228185 L35.64047395927294,-5.075097630429132 L35.71208423160303,-4.543901389212843 L35.77577784365055,-4.011697855243139 L35.83154067580587,-3.47860500748065 L35.879360366555844,-2.9447410220292243 L35.91922631522413,-2.410224245938632 L35.95112968432114,-1.8751731709693704 L35.97506340150315,-1.3397064073253937 L35.99102216114007,-0.8039426573605856 L35.999002425491646,-0.2680006892648021 L35.999002425491646,0.2680006892646778 L35.99102216114007,0.8039426573604611 L35.97506340150315,1.3397064073252696 L35.951129684321145,1.8751731709692463 L35.91922631522414,2.410224245938508 L35.87936036655586,2.9447410220291004 L35.83154067580588,3.478605007480526 L35.775777843650566,4.011697855243016 L35.71208423160304,4.54390138921272 L35.64047395927296,5.075097630429009 L35.56096290123641,5.6051688232280625 L35.47356868351687,6.133997461346964 L35.378310679677874,6.661466313972513 L35.27521000652824,7.187458451728958 L35.16428951944093,7.7118572725989285 L35.045573807286445,8.234546527771787 L34.91908918698198,8.755410347413674 L34.78486369765746,9.274333266353564 L34.64292709443985,9.791200249679592 L34.493310841857,10.305896718240014 L34.336048106862634,10.818308574043131 L34.17117375148383,11.328322225550547 L33.99872432509286,11.835824612858163 L33.81873805630488,12.340703232759305 L33.631254844503424,12.842846163684468 L33.436316250995496,13.342142090512091 L33.23396548979826,13.838480329244913 L33.02424741805933,14.331750851546428 L32.80720852611286,14.82184430913197 L32.582896927173536,15.308652058009073 L32.35136234667085,15.792066182561673 L32.112656111225924,16.271979519472858 L31.86683113727349,16.74828568148086 L31.613941919331275,17.220879080962998 L31.3540445179197,17.68965495334235 L31.087196547134383,18.15450938031199 L30.81345716187421,18.6153393128716 L30.532887044727886,19.072042594171403 L30.245548392521783,19.5245179821583 L29.951504902532193,19.972665172019234 L29.650821758364838,20.41638481841676 L29.34356561550501,20.85557855751195 L29.029804586541346,21.290149028769687 L28.709608226066635,21.719999896541594 L28.383047515258934,22.145035871421697 L28.050194846146447,22.56516273137022 L27.711124005559657,22.98028734260073 L27.365910158774266,23.390317680226055 L27.014629832848495,23.795162848658382 L26.65736089965862,24.19473310175898 L26.294182558636265,24.58893986273317 L25.925175319211498,24.977695743766017 L25.55042098296547,25.36091456539448 L25.170002625496625,25.7385113756117 L24.78400457800451,26.110402468699164 L24.392512408595202,26.476505403782596 L23.995612903312562,26.83673902310748 L23.593394046899483,27.191023470030103 L23.185945003293455,27.539280206720207 L22.773356095860628,27.881432031571254 L22.355718787372982,28.21740309631449 L21.933125659732795,28.547118922833015 L21.50567039344909,28.870506419672086 L21.07344774687054,29.187493898242053 L20.636553535179395,29.498011088710285 L20.19508460915118,29.80198915557861 L19.74913883368479,30.099360712942783 L19.29881506610779,30.390059839430574 L18.844213134261693,30.674022092815264 L18.385433814372142,30.95118452430119 L17.922578808708774,31.221485692478236 L17.455750723039884,31.484865676942192 L16.985053043886754,31.741266091577906 L16.510590115582723,31.990630097502333 L16.032467117142154,32.23290241566458 L15.550790038944307,32.46802933910019 L15.065665659237382,32.69595874483689 L14.577201520467913,32.91664010544922 L14.085505905440725,33.130024500259495 L13.5906878133148,33.336064626182505 L13.092856935440311,33.534714808211696 L12.592123631042245,33.72593100954438 L12.088598902755937,33.90967084134389 L11.582394372019996,34.08589357213625 L11.07362225433205,34.25456013683962 L10.562395334372795,34.41563314542419 L10.048826941003863,34.56907689120082 L9.533030922145077,34.71485735873656 L9.01512161953661,34.85294223139509 L8.495213843391708,34.98330089850079 L7.973422846945527,35.105904462124414 L7.449864300905795,35.2207257434893 L6.9246542678108955,35.327739288996234 L6.3979091763011215,35.42692137586615 L5.869745795308745,35.51825001739888 L5.34028120817267,35.601704967847226 L4.809632786683374,35.67726772690504 L4.277918165063918,35.744921543808374 L3.745255213892767,35.80465142104876 L3.2117620139742282,35.8564441176979 L2.6775568301622776,35.90028815234289 L2.1427580851435883,35.93617380563145 L1.6074843331855737,35.96409312242647 L1.0718542338552564,35.98403991356955 L0.5359865257147999,35.996009757252985 L-4.752076181611372e-13,36.0 L-0.5359865257157501,35.99600975725297 L-1.0718542338562063,35.984039913569525 L-1.6074843331865232,35.964093122426426 L-2.1427580851445374,35.93617380563139 L-2.6775568301632253,35.90028815234282 L-3.211762013975175,35.85644411769781 L-3.7452552138937123,35.80465142104866 L-4.277918165064862,35.74492154380827 L-4.8096327866843165,35.67726772690492 L-5.340281208173611,35.601704967847084 L-5.869745795309683,35.51825001739872 L-6.397909176302057,35.42692137586598 L-6.924654267811829,35.32773928899605 L-7.449864300906724,35.2207257434891 L-7.9734228469464545,35.10590446212421 L-8.495213843392632,34.98330089850056 L-9.015121619537531,34.852942231394856 L-9.533030922145992,34.7148573587363 L-10.048826941004778,34.56907689120056 L-10.562395334373704,34.415633145423904 L-11.073622254332957,34.25456013683933 L-11.582394372020897,34.085893572135944 L-12.088598902756832,33.90967084134357 L-12.592123631043135,33.72593100954405 L-13.092856935441196,33.53471480821135 L-13.590687813315679,33.33606462618215 L-14.085505905441599,33.130024500259125 L-14.577201520468781,32.916640105448835 L-15.065665659238244,32.69595874483648 L-15.550790038945163,32.46802933909978 L-16.032467117143003,32.23290241566416 L-16.510590115583568,31.990630097501896 L-16.985053043887593,31.741266091577458 L-17.455750723040715,31.48486567694173 L-17.9225788087096,31.221485692477764 L-18.385433814372956,30.951184524300704 L-18.844213134262503,30.67402209281477 L-19.298815066108588,30.390059839430066 L-19.749138833685585,30.09936071294226 L-20.195084609151962,29.801989155578077 L-20.63655353518017,29.49801108870974 L-21.07344774687131,29.187493898241495 L-21.505670393449854,28.870506419671518 L-21.933125659733548,28.547118922832436 L-22.355718787373725,28.2174030963139 L-22.773356095861363,27.88143203157065 L-23.18594500329418,27.539280206719592 L-23.593394046900205,27.19102347002948 L-23.99561290331327,26.836739023106848 L-24.392512408595902,26.476505403781953 L-24.784004578005202,26.11040246869851 L-25.170002625497304,25.73851137561104 L-25.550420982966138,25.36091456539381 L-25.925175319212155,24.97769574376533 L-26.294182558636916,24.588939862732477 L-26.657360899659256,24.194733101758278 L-27.014629832849124,23.795162848657668 L-27.36591015877488,23.390317680225333 L-27.711124005560265,22.980287342599997 L-28.05019484614704,22.565162731369476 L-28.38304751525952,22.145035871420944 L-28.70960822606721,21.719999896540838 L-29.02980458654191,21.290149028768923 L-29.343565615505558,20.855578557511173 L-29.650821758365378,20.416384818415978 L-29.95150490253272,19.972665172018445 L-30.245548392522302,19.5245179821575 L-30.532887044728387,19.072042594170597 L-30.813457161874705,18.615339312870784 L-31.087196547134862,18.15450938031117 L-31.35404451792017,17.689654953341524 L-31.613941919331726,17.220879080962163 L-31.866831137273934,16.748285681480017 L-32.11265611122636,16.27197951947201 L-32.35136234667126,15.792066182560816 L-32.58289692717394,15.308652058008214 L-32.80720852611325,14.821844309131102 L-33.024247418059716,14.331750851545547 L-33.23396548979863,13.838480329244021 L-33.43631625099586,13.342142090511185 L-33.63125484450377,12.84284616368355 L-33.81873805630522,12.340703232758376 L-33.998724325093185,11.83582461285722 L-34.17117375148415,11.328322225549591 L-34.33604810686293,10.818308574042163 L-34.493310841857294,10.305896718239035 L-34.642927094440125,9.791200249678601 L-34.78486369765773,9.274333266352562 L-34.919089186982234,8.75541034741266 L-35.04557380728669,8.23454652777076 L-35.164289519441155,7.711857272597891 L-35.275210006528454,7.187458451727909 L-35.37831067967807,6.661466313971453 L-35.47356868351706,6.133997461345894 L-35.56096290123658,5.605168823226981 L-35.64047395927311,5.075097630427918 L-35.712084231603185,4.5439013892116185 L-35.77577784365069,4.011697855241904 L-35.83154067580599,3.478605007479405 L-35.87936036655594,2.94474102202797 L-35.919226315224215,2.4102242459373686 L-35.95112968432121,1.8751731709680977 L-35.97506340150319,1.3397064073241118 L-35.9910221611401,0.8039426573592953 L-35.99900242549165,0.26800068926350357 L-35.99900242549164,-0.26800068926598425 L-35.99102216114005,-0.8039426573617755 L-35.97506340150311,-1.3397064073265912 L-35.951129684321074,-1.875173170970575 L-35.919226315224044,-2.4102242459398435 L-35.879360366555744,-2.944741022030443 L-35.83154067580575,-3.4786050074818746 L-35.77577784365041,-4.011697855244369 L-35.712084231602866,-4.54390138921408 L-35.64047395927277,-5.075097630430374 L-35.560962901236195,-5.605168823229432 L-35.47356868351663,-6.133997461348339 L-35.37831067967761,-6.661466313973891 L-35.275210006527956,-7.18745845173034 L-35.16428951944062,-7.711857272600314 L-35.04557380728612,-8.234546527773176 L-34.91908918698163,-8.755410347415067 L-34.78486369765709,-9.27433326635496 L-34.64292709443945,-9.791200249680989 L-34.493310841856584,-10.305896718241414 L-34.336048106862194,-10.81830857404453 L-34.171173751483366,-11.328322225551947 L-33.99872432509237,-11.835824612859561 L-33.81873805630437,-12.340703232760706 L-33.63125484450289,-12.84284616368587 L-33.43631625099494,-13.342142090513489 L-33.233965489797676,-13.83848032924631 L-33.02424741805873,-14.331750851547824 L-32.807208526112234,-14.821844309133363 L-32.58289692717288,-15.308652058010459 L-32.35136234667017,-15.792066182563048 L-32.112656111225235,-16.271979519474222 L-31.866831137272776,-16.748285681482216 L-31.613941919330536,-17.22087908096434 L-31.35404451791895,-17.689654953343684 L-31.087196547133612,-18.15450938031331 L-30.813457161873423,-18.61533931287291 L-30.532887044727072,-19.0720425941727 L-30.24554839252096,-19.524517982159583 L-29.951504902531344,-19.972665172020506 L-29.65082175836397,-20.41638481841802 L-29.343565615504122,-20.855578557513198 L-29.029804586540443,-21.290149028770923 L-28.709608226065715,-21.719999896542816 L-28.383047515257992,-22.145035871422905 L-28.050194846145487,-22.56516273137141 L-27.711124005558684,-22.980287342601905 L-27.365910158773268,-23.39031768022722 L-27.014629832847483,-23.79516284865953 L-26.65736089965759,-24.194733101760114 L-26.29418255863522,-24.58893986273429 L-25.92517531921044,-24.977695743767118 L-25.55042098296439,-25.360914565395568 L-25.17000262549553,-25.738511375612774 L-24.784004578003405,-26.110402468700215 L-24.392512408594076,-26.476505403783634 L-23.99561290331142,-26.8367390231085 L-23.59339404689833,-27.191023470031105 L-23.185945003292282,-27.53928020672119 L-22.773356095859445,-27.88143203157222 L-22.355718787371785,-28.217403096315444 L-21.93312565973158,-28.547118922833953 L-21.505670393447865,-28.870506419673 L-21.0734477468693,-29.18749389824295 L-20.63655353517814,-29.49801108871116 L-20.195084609149912,-29.80198915557947 L-19.74913883368351,-30.09936071294362 L-19.298815066106492,-30.390059839431395 L-18.84421313426039,-30.67402209281607 L-18.385433814370828,-30.951184524301972 L-17.922578808707446,-31.221485692479 L-17.45575072303855,-31.48486567694293 L-16.985053043885404,-31.741266091578627 L-16.510590115581365,-31.990630097503036 L-16.032467117140783,-32.23290241566526 L-15.550790038942925,-32.468029339100845 L-15.065665659235991,-32.695958744837526 L-14.577201520466511,-32.916640105449844 L-14.085505905439316,-33.1300245002601 L-13.59068781331338,-33.33606462618308 L-13.092856935438885,-33.53471480821225 L-12.592123631040812,-33.725931009544915 L-12.088598902754496,-33.9096708413444 L-11.582394372018546,-34.08589357213675 L-11.073622254330596,-34.25456013684009 L-10.562395334371333,-34.415633145424636 L-10.048826941002392,-34.56907689120125 L-9.5330309221436,-34.714857358736964 L-9.01512161953513,-34.852942231395474 L-8.495213843390221,-34.98330089850115 L-7.973422846944036,-35.105904462124755 L-7.449864300904297,-35.22072574348961 L-6.924654267809394,-35.32773928899653 L-6.397909176299615,-35.42692137586642 L-5.869745795307236,-35.518250017399126 L-5.340281208171156,-35.60170496784745 L-4.809632786681857,-35.67726772690525 L-4.277918165062398,-35.74492154380856 L-3.745255213891245,-35.80465142104892 L-3.2117620139727037,-35.85644411769803 L-2.6775568301607517,-35.900288152343 L-2.142758085142061,-35.93617380563154 L-1.607484333184045,-35.96409312242654 L-1.0718542338537267,-35.984039913569596 L-0.5359865257132697,-35.996009757253006 L2.005571198926023e-12,-36.0 " />
			<path d="M-15.687500000000014,-27.17154704373675 L-15.59131153186005,-27.231652269484524 L-15.49955010259582,-27.298320850275545 L-15.41266276466687,-27.3712279834857 L-15.331072824449706,-27.450018472890594 L-15.255177779931675,-27.53430845914584 L-15.185347384140725,-27.623687289911196 L-15.121921843745822,-27.717719520507508 L-15.065210161604258,-27.815947035359393 L-15.015488631330788,-27.91789127988829 L-14.972999491222913,-28.023055591982256 L-14.937949744100246,-28.130927621683842 L-14.91051014880758,-28.240981827307607 L-14.890814388294963,-28.35268203582636 L-14.8789584183278,-28.46548405505226 L-14.875000000000014,-28.578838324886465 L-14.8789584183278,-28.69219259472067 L-14.890814388294963,-28.804994613946572 L-14.91051014880758,-28.916694822465324 L-14.937949744100246,-29.02674902808909 L-14.972999491222915,-29.134621057790678 L-15.015488631330788,-29.239785369884643 L-15.06521016160426,-29.341729614413538 L-15.121921843745822,-29.439957129265427 L-15.185347384140726,-29.533989359861735 L-15.255177779931676,-29.623368190627094 L-15.331072824449707,-29.707658176882337 L-15.412662764666871,-29.78644866628723 L-15.499550102595821,-29.85935579949739 L-15.591311531860052,-29.92602438028841 L-15.687500000000016,-29.98612960603618 L-15.787646886467765,-30.039378650122615 L-15.89126428569916,-30.085512088557497 L-15.997847384140728,-30.12430516386609 L-16.106876919650556,-30.15556888008496 L-16.217821711291254,-30.179150923531303 L-16.33014124719008,-30.19493640485991 L-16.443288317858453,-30.202848418792495 L-16.556711682141582,-30.202848418792495 L-16.669858752809954,-30.19493640485991 L-16.78217828870878,-30.179150923531303 L-16.89312308034948,-30.15556888008496 L-17.00215261585931,-30.12430516386609 L-17.108735714300877,-30.085512088557493 L-17.21235311353227,-30.03937865012261 L-17.312500000000018,-29.986129606036176 L-17.40868846813998,-29.926024380288407 L-17.500449897404213,-29.859355799497386 L-17.587337235333163,-29.786448666287228 L-17.668927175550326,-29.707658176882333 L-17.744822220068357,-29.623368190627087 L-17.81465261585931,-29.533989359861728 L-17.878078156254208,-29.43995712926542 L-17.934789838395773,-29.34172961441353 L-17.984511368669242,-29.239785369884636 L-18.027000508777117,-29.13462105779067 L-18.062050255899784,-29.026749028089082 L-18.08948985119245,-28.916694822465317 L-18.109185611705065,-28.804994613946565 L-18.12104158167223,-28.692192594720662 L-18.125000000000014,-28.57883832488646 L-18.121041581672227,-28.465484055052254 L-18.109185611705065,-28.35268203582635 L-18.089489851192447,-28.2409818273076 L-18.06205025589978,-28.130927621683835 L-18.027000508777114,-28.023055591982246 L-17.98451136866924,-27.917891279888284 L-17.934789838395766,-27.815947035359386 L-17.8780781562542,-27.7177195205075 L-17.8146526158593,-27.62368728991119 L-17.744822220068347,-27.534308459145834 L-17.668927175550316,-27.450018472890587 L-17.587337235333152,-27.371227983485692 L-17.500449897404202,-27.298320850275537 L-17.40868846813997,-27.231652269484517 L-17.312500000000007,-27.171547043736748 L-17.212353113532256,-27.118297999650316 L-17.108735714300863,-27.07216456121543 L-17.002152615859295,-27.033371485906837 L-16.893123080349465,-27.002107769687967 L-16.782178288708767,-26.978525726241624 L-16.66985875280994,-26.96274024491302 L-16.556711682141568,-26.954828230980436 L-16.44328831785844,-26.954828230980436 L-16.330141247190067,-26.96274024491302 L-16.21782171129124,-26.978525726241628 L-16.106876919650542,-27.002107769687974 L-15.997847384140714,-27.033371485906844 L-15.891264285699146,-27.07216456121544 L-15.787646886467753,-27.118297999650324 L-15.687500000000004,-27.17154704373676 " />
			<path d="M15.687499999999996,-27.171547043736762 L15.787646886467746,-27.11829799965033 L15.89126428569914,-27.072164561215445 L15.997847384140707,-27.03337148590685 L16.106876919650535,-27.00210776968798 L16.217821711291236,-26.97852572624164 L16.33014124719006,-26.962740244913032 L16.443288317858432,-26.954828230980446 L16.55671168214156,-26.954828230980446 L16.669858752809933,-26.962740244913032 L16.78217828870876,-26.97852572624164 L16.893123080349458,-27.00210776968798 L17.002152615859288,-27.03337148590685 L17.108735714300852,-27.07216456121545 L17.21235311353225,-27.11829799965033 L17.312499999999996,-27.171547043736762 L17.40868846813996,-27.231652269484535 L17.50044989740419,-27.29832085027555 L17.58733723533314,-27.37122798348571 L17.668927175550305,-27.450018472890605 L17.744822220068336,-27.53430845914585 L17.814652615859288,-27.623687289911206 L17.87807815625419,-27.71771952050752 L17.934789838395755,-27.815947035359404 L17.984511368669224,-27.917891279888302 L18.0270005087771,-28.023055591982267 L18.062050255899766,-28.130927621683853 L18.089489851192432,-28.240981827307618 L18.109185611705048,-28.352682035826373 L18.121041581672213,-28.465484055052276 L18.124999999999996,-28.57883832488648 L18.12104158167221,-28.69219259472068 L18.109185611705048,-28.804994613946583 L18.08948985119243,-28.916694822465338 L18.062050255899763,-29.026749028089103 L18.027000508777096,-29.13462105779069 L17.98451136866922,-29.239785369884654 L17.93478983839575,-29.341729614413552 L17.878078156254187,-29.439957129265437 L17.814652615859284,-29.53398935986175 L17.744822220068333,-29.623368190627104 L17.6689271755503,-29.70765817688235 L17.587337235333138,-29.786448666287246 L17.500449897404188,-29.8593557994974 L17.408688468139957,-29.92602438028842 L17.312499999999993,-29.98612960603619 L17.21235311353224,-30.039378650122625 L17.10873571430085,-30.085512088557508 L17.00215261585928,-30.1243051638661 L16.89312308034945,-30.15556888008497 L16.782178288708753,-30.179150923531314 L16.66985875280993,-30.19493640485992 L16.556711682141554,-30.202848418792506 L16.44328831785843,-30.202848418792506 L16.330141247190053,-30.19493640485992 L16.21782171129123,-30.179150923531314 L16.10687691965053,-30.15556888008497 L15.997847384140702,-30.124305163866097 L15.891264285699133,-30.085512088557504 L15.78764688646774,-30.039378650122618 L15.687499999999991,-29.986129606036187 L15.591311531860027,-29.926024380288414 L15.499550102595796,-29.859355799497393 L15.412662764666846,-29.786448666287235 L15.331072824449683,-29.70765817688234 L15.255177779931653,-29.623368190627097 L15.185347384140702,-29.53398935986174 L15.1219218437458,-29.439957129265427 L15.065210161604236,-29.34172961441354 L15.015488631330767,-29.239785369884643 L14.972999491222893,-29.13462105779068 L14.937949744100226,-29.026749028089093 L14.91051014880756,-28.916694822465328 L14.890814388294944,-28.804994613946572 L14.878958418327782,-28.69219259472067 L14.874999999999996,-28.57883832488647 L14.878958418327782,-28.465484055052265 L14.890814388294945,-28.352682035826362 L14.910510148807564,-28.240981827307607 L14.93794974410023,-28.130927621683842 L14.972999491222899,-28.023055591982256 L15.015488631330774,-27.91789127988829 L15.065210161604245,-27.815947035359393 L15.12192184374581,-27.717719520507508 L15.185347384140712,-27.6236872899112 L15.255177779931664,-27.53430845914584 L15.331072824449695,-27.450018472890598 L15.41266276466686,-27.371227983485703 L15.49955010259581,-27.298320850275545 L15.591311531860041,-27.231652269484528 L15.687500000000007,-27.17154704373676 " />
			<path d="M-31.375,5.701179172776222e-15 L-31.378958418327784,-0.11335426983419791 L-31.39081438829495,-0.22615628906010066 L-31.410510148807568,-0.3378564975788532 L-31.43794974410023,-0.44791070320261794 L-31.4729994912229,-0.5557827329042059 L-31.515488631330776,-0.6609470449981695 L-31.565210161604245,-0.7628912895270668 L-31.62192184374581,-0.8611188043789522 L-31.685347384140712,-0.9551510349752631 L-31.75517777993166,-1.0445298657406206 L-31.83107282444969,-1.1288198519958648 L-31.912662764666855,-1.20761034140076 L-31.999550102595805,-1.2805174746109174 L-32.091311531860036,-1.3471860554019368 L-32.1875,-1.407291281149707 L-32.28764688646775,-1.4605403252361406 L-32.391264285699144,-1.506673763671024 L-32.49784738414071,-1.545466838979619 L-32.60687691965054,-1.5767305551984885 L-32.717821711291236,-1.6003125986448323 L-32.83014124719006,-1.6160980799734384 L-32.94328831785844,-1.6240100939060247 L-33.05671168214157,-1.6240100939060247 L-33.16985875280994,-1.6160980799734381 L-33.282178288708764,-1.6003125986448319 L-33.39312308034946,-1.5767305551984878 L-33.502152615859295,-1.5454668389796178 L-33.608735714300856,-1.5066737636710226 L-33.71235311353225,-1.4605403252361395 L-33.8125,-1.4072912811497056 L-33.908688468139964,-1.3471860554019355 L-34.000449897404195,-1.2805174746109156 L-34.087337235333145,-1.207610341400758 L-34.16892717555031,-1.1288198519958628 L-34.24482222006834,-1.0445298657406183 L-34.314652615859295,-0.9551510349752602 L-34.37807815625419,-0.8611188043789492 L-34.43478983839576,-0.7628912895270634 L-34.48451136866923,-0.660947044998166 L-34.5270005087771,-0.5557827329042021 L-34.56205025589977,-0.4479107032026139 L-34.58948985119243,-0.33785649757884895 L-34.60918561170505,-0.22615628906009613 L-34.621041581672216,-0.11335426983419322 L-34.625,1.055368882995924e-14 L-34.621041581672216,0.11335426983421433 L-34.60918561170505,0.22615628906011717 L-34.58948985119243,0.3378564975788698 L-34.56205025589977,0.44791070320263465 L-34.5270005087771,0.5557827329042228 L-34.484511368669224,0.6609470449981864 L-34.43478983839575,0.7628912895270836 L-34.37807815625419,0.861118804378969 L-34.31465261585929,0.9551510349752798 L-34.244822220068336,1.044529865740637 L-34.1689271755503,1.128819851995881 L-34.08733723533314,1.207610341400776 L-34.00044989740419,1.2805174746109331 L-33.90868846813996,1.3471860554019526 L-33.81249999999999,1.4072912811497222 L-33.712353113532245,1.4605403252361555 L-33.60873571430085,1.5066737636710383 L-33.50215261585928,1.5454668389796329 L-33.393123080349454,1.576730555198502 L-33.28217828870876,1.6003125986448452 L-33.16985875280993,1.616098079973451 L-33.056711682141554,1.6240100939060367 L-32.943288317858425,1.6240100939060362 L-32.830141247190056,1.6160980799734495 L-32.71782171129123,1.6003125986448428 L-32.60687691965053,1.5767305551984983 L-32.497847384140705,1.5454668389796278 L-32.39126428569914,1.5066737636710321 L-32.28764688646774,1.4605403252361484 L-32.18749999999999,1.4072912811497142 L-32.09131153186003,1.3471860554019435 L-31.999550102595798,1.2805174746109234 L-31.912662764666848,1.2076103414007653 L-31.831072824449684,1.1288198519958696 L-31.755177779931653,1.0445298657406248 L-31.685347384140705,0.9551510349752667 L-31.621921843745803,0.8611188043789555 L-31.565210161604238,0.7628912895270694 L-31.51548863133077,0.6609470449981718 L-31.472999491222897,0.5557827329042077 L-31.43794974410023,0.4479107032026193 L-31.410510148807564,0.33785649757885416 L-31.390814388294945,0.2261562890601013 L-31.378958418327784,0.11335426983419836 L-31.375,-5.447130073602517e-15 " />
			<path d="M-15.687500000000004,27.17154704373676 L-15.787646886467753,27.118297999650327 L-15.891264285699146,27.072164561215445 L-15.997847384140714,27.033371485906848 L-16.106876919650542,27.002107769687978 L-16.21782171129124,26.978525726241635 L-16.330141247190067,26.96274024491303 L-16.44328831785844,26.954828230980443 L-16.556711682141568,26.954828230980443 L-16.66985875280994,26.96274024491303 L-16.782178288708764,26.978525726241635 L-16.893123080349465,27.002107769687978 L-17.00215261585929,27.033371485906848 L-17.10873571430086,27.072164561215445 L-17.212353113532252,27.118297999650327 L-17.312500000000004,27.17154704373676 L-17.408688468139967,27.23165226948453 L-17.5004498974042,27.298320850275548 L-17.58733723533315,27.371227983485706 L-17.668927175550312,27.4500184728906 L-17.744822220068343,27.534308459145848 L-17.814652615859295,27.623687289911203 L-17.878078156254197,27.717719520507515 L-17.93478983839576,27.8159470353594 L-17.98451136866923,27.9178912798883 L-18.027000508777107,28.023055591982263 L-18.062050255899774,28.13092762168385 L-18.08948985119244,28.240981827307614 L-18.109185611705055,28.35268203582637 L-18.12104158167222,28.465484055052272 L-18.125000000000004,28.578838324886476 L-18.121041581672216,28.692192594720677 L-18.109185611705055,28.80499461394658 L-18.089489851192436,28.916694822465335 L-18.06205025589977,29.0267490280891 L-18.027000508777103,29.134621057790685 L-17.984511368669228,29.23978536988465 L-17.93478983839576,29.34172961441355 L-17.878078156254194,29.439957129265434 L-17.81465261585929,29.533989359861742 L-17.74482222006834,29.6233681906271 L-17.66892717555031,29.707658176882347 L-17.587337235333145,29.786448666287242 L-17.500449897404195,29.859355799497397 L-17.408688468139964,29.926024380288418 L-17.3125,29.986129606036187 L-17.212353113532252,30.03937865012262 L-17.108735714300856,30.085512088557504 L-17.002152615859288,30.124305163866097 L-16.893123080349458,30.155568880084967 L-16.78217828870876,30.17915092353131 L-16.669858752809937,30.194936404859916 L-16.55671168214156,30.202848418792502 L-16.443288317858435,30.202848418792502 L-16.33014124719006,30.194936404859916 L-16.217821711291236,30.17915092353131 L-16.10687691965054,30.155568880084964 L-15.997847384140709,30.124305163866097 L-15.89126428569914,30.0855120885575 L-15.787646886467748,30.039378650122615 L-15.687499999999998,29.986129606036183 L-15.591311531860034,29.92602438028841 L-15.499550102595803,29.859355799497393 L-15.412662764666853,29.786448666287235 L-15.331072824449691,29.707658176882337 L-15.25517777993166,29.623368190627094 L-15.185347384140709,29.533989359861735 L-15.121921843745808,29.439957129265423 L-15.065210161604243,29.341729614413538 L-15.015488631330774,29.23978536988464 L-14.9729994912229,29.134621057790678 L-14.937949744100234,29.02674902808909 L-14.910510148807568,28.916694822465324 L-14.89081438829495,28.804994613946572 L-14.87895841832779,28.69219259472067 L-14.875000000000004,28.578838324886465 L-14.87895841832779,28.46548405505226 L-14.890814388294952,28.35268203582636 L-14.910510148807571,28.240981827307603 L-14.937949744100237,28.13092762168384 L-14.972999491222906,28.023055591982253 L-15.015488631330781,27.917891279888288 L-15.065210161604252,27.815947035359393 L-15.121921843745817,27.717719520507504 L-15.18534738414072,27.623687289911196 L-15.255177779931671,27.534308459145837 L-15.331072824449702,27.450018472890594 L-15.412662764666866,27.3712279834857 L-15.499550102595817,27.298320850275545 L-15.591311531860049,27.231652269484524 L-15.687500000000012,27.171547043736755 " />
			<path d="M31.375,-1.8402559770915448e-15 L31.378958418327784,0.11335426983420177 L31.39081438829495,0.2261562890601045 L31.410510148807568,0.3378564975788571 L31.43794974410023,0.44791070320262183 L31.4729994912229,0.5557827329042099 L31.515488631330772,0.6609470449981734 L31.565210161604245,0.7628912895270706 L31.62192184374581,0.861118804378956 L31.685347384140712,0.955151034975267 L31.75517777993166,1.0445298657406246 L31.83107282444969,1.1288198519958688 L31.912662764666855,1.207610341400764 L31.999550102595805,1.2805174746109214 L32.091311531860036,1.3471860554019406 L32.1875,1.4072912811497107 L32.28764688646775,1.4605403252361444 L32.391264285699144,1.5066737636710277 L32.49784738414071,1.5454668389796227 L32.60687691965054,1.5767305551984925 L32.717821711291236,1.6003125986448363 L32.83014124719006,1.6160980799734423 L32.94328831785844,1.6240100939060287 L33.05671168214157,1.6240100939060287 L33.16985875280994,1.6160980799734421 L33.282178288708764,1.6003125986448359 L33.39312308034946,1.5767305551984918 L33.502152615859295,1.545466838979622 L33.608735714300856,1.5066737636710268 L33.71235311353225,1.4605403252361437 L33.8125,1.4072912811497098 L33.908688468139964,1.3471860554019397 L34.000449897404195,1.2805174746109196 L34.087337235333145,1.207610341400762 L34.16892717555031,1.1288198519958668 L34.24482222006834,1.0445298657406223 L34.31465261585929,0.9551510349752645 L34.37807815625419,0.8611188043789535 L34.43478983839576,0.7628912895270678 L34.484511368669224,0.6609470449981704 L34.5270005087771,0.5557827329042063 L34.56205025589977,0.4479107032026181 L34.58948985119243,0.33785649757885317 L34.60918561170505,0.22615628906010035 L34.621041581672216,0.11335426983419744 L34.625,-6.331943151271387e-15 L34.621041581672216,-0.11335426983421011 L34.60918561170505,-0.22615628906011295 L34.58948985119243,-0.3378564975788656 L34.56205025589977,-0.44791070320263043 L34.5270005087771,-0.5557827329042185 L34.484511368669224,-0.660947044998182 L34.43478983839575,-0.7628912895270793 L34.37807815625419,-0.8611188043789647 L34.31465261585929,-0.9551510349752754 L34.244822220068336,-1.044529865740633 L34.1689271755503,-1.128819851995877 L34.08733723533314,-1.207610341400772 L34.00044989740419,-1.2805174746109291 L33.90868846813996,-1.3471860554019484 L33.81249999999999,-1.407291281149718 L33.712353113532245,-1.4605403252361513 L33.60873571430085,-1.5066737636710341 L33.50215261585928,-1.5454668389796287 L33.393123080349454,-1.576730555198498 L33.28217828870876,-1.6003125986448412 L33.16985875280993,-1.616098079973447 L33.056711682141554,-1.6240100939060327 L32.943288317858425,-1.6240100939060322 L32.830141247190056,-1.6160980799734455 L32.71782171129123,-1.6003125986448388 L32.60687691965053,-1.5767305551984943 L32.497847384140705,-1.545466838979624 L32.39126428569914,-1.5066737636710283 L32.28764688646774,-1.4605403252361446 L32.18749999999999,-1.4072912811497105 L32.09131153186003,-1.3471860554019397 L31.999550102595798,-1.2805174746109194 L31.912662764666848,-1.2076103414007613 L31.831072824449684,-1.1288198519958657 L31.755177779931653,-1.0445298657406208 L31.685347384140705,-0.9551510349752628 L31.621921843745803,-0.8611188043789516 L31.565210161604238,-0.7628912895270655 L31.51548863133077,-0.6609470449981679 L31.472999491222897,-0.5557827329042037 L31.43794974410023,-0.4479107032026154 L31.410510148807564,-0.3378564975788503 L31.390814388294945,-0.22615628906009747 L31.378958418327784,-0.1133542698341945 L31.375,9.308053269287194e-15 " />
			<path d="M15.687499999999996,27.171547043736762 L15.591311531860033,27.231652269484535 L15.499550102595801,27.29832085027555 L15.412662764666852,27.37122798348571 L15.331072824449688,27.450018472890605 L15.255177779931657,27.534308459145848 L15.185347384140707,27.623687289911206 L15.121921843745804,27.71771952050752 L15.06521016160424,27.815947035359404 L15.01548863133077,27.917891279888302 L14.972999491222895,28.023055591982263 L14.937949744100228,28.130927621683853 L14.910510148807562,28.240981827307618 L14.890814388294945,28.35268203582637 L14.878958418327782,28.465484055052272 L14.874999999999996,28.578838324886476 L14.878958418327782,28.69219259472068 L14.890814388294945,28.804994613946583 L14.910510148807562,28.916694822465335 L14.937949744100228,29.0267490280891 L14.972999491222895,29.13462105779069 L15.01548863133077,29.23978536988465 L15.06521016160424,29.34172961441355 L15.121921843745804,29.439957129265434 L15.185347384140707,29.533989359861746 L15.255177779931657,29.623368190627104 L15.33107282444969,29.707658176882347 L15.412662764666852,29.786448666287242 L15.499550102595803,29.8593557994974 L15.591311531860034,29.92602438028842 L15.687499999999998,29.98612960603619 L15.787646886467748,30.03937865012262 L15.89126428569914,30.085512088557508 L15.997847384140709,30.1243051638661 L16.10687691965054,30.15556888008497 L16.217821711291236,30.179150923531314 L16.330141247190063,30.19493640485992 L16.443288317858435,30.202848418792506 L16.556711682141565,30.202848418792506 L16.669858752809937,30.19493640485992 L16.78217828870876,30.179150923531314 L16.89312308034946,30.15556888008497 L17.002152615859288,30.1243051638661 L17.108735714300856,30.085512088557504 L17.212353113532252,30.03937865012262 L17.3125,29.986129606036187 L17.408688468139964,29.926024380288418 L17.500449897404195,29.859355799497397 L17.587337235333145,29.78644866628724 L17.66892717555031,29.707658176882344 L17.74482222006834,29.623368190627097 L17.814652615859288,29.533989359861742 L17.87807815625419,29.43995712926543 L17.934789838395755,29.341729614413545 L17.984511368669224,29.239785369884647 L18.0270005087771,29.13462105779068 L18.062050255899766,29.026749028089096 L18.089489851192432,28.91669482246533 L18.109185611705048,28.804994613946576 L18.121041581672213,28.692192594720673 L18.124999999999996,28.57883832488647 L18.12104158167221,28.465484055052265 L18.109185611705048,28.352682035826362 L18.08948985119243,28.24098182730761 L18.062050255899763,28.130927621683846 L18.027000508777096,28.023055591982256 L17.98451136866922,27.917891279888295 L17.934789838395748,27.815947035359397 L17.878078156254183,27.71771952050751 L17.81465261585928,27.6236872899112 L17.744822220068333,27.534308459145844 L17.668927175550298,27.450018472890598 L17.587337235333134,27.371227983485706 L17.500449897404184,27.298320850275548 L17.408688468139953,27.231652269484528 L17.31249999999999,27.17154704373676 L17.212353113532238,27.118297999650327 L17.108735714300845,27.072164561215445 L17.002152615859277,27.033371485906848 L16.893123080349447,27.002107769687978 L16.78217828870875,26.978525726241635 L16.669858752809922,26.962740244913032 L16.55671168214155,26.954828230980446 L16.44328831785842,26.954828230980446 L16.33014124719005,26.962740244913032 L16.217821711291226,26.97852572624164 L16.106876919650528,27.002107769687985 L15.997847384140696,27.033371485906855 L15.89126428569913,27.072164561215452 L15.787646886467735,27.118297999650334 L15.687499999999988,27.17154704373677 " />

       </g>
    </g>
    
</svg>
