<?xml version="1.0" encoding="UTF-8" standalone="no"?>
<svg
   xmlns:svg="http://www.w3.org/2000/svg"
   xmlns="http://www.w3.org/2000/svg"
   width="800.0"
   height="800.0"

>
    <g transform="scale(9.285714285714286, -9.285714285714286)   translate(43.07692307692308,-43.07692307692308)" stroke-width="0.5"  fill="none">
       <!-- hidden lines -->
       <g  stroke="rgb(127,127,127)" fill="none" stroke-dasharray="0.5,0.5" >

       </g>

       <!-- solid lines -->
       <g  stroke="rgb(10,10,10)" fill="none">
			<path d="M0.0,-42.0 L0.5786961240520452,-41.99601303452516 L1.1572823794628038,-41.98405289504796 L1.7356489184501547,-41.96412185226664 L2.3136859349463483,-41.93622369019928 L2.891283685445292,-41.900363705465345 L3.468332509837958,-41.85654870628014 L4.044722852231957,-41.80478701116216 L4.62034528175133,-41.74508844735388 L5.1950905133126,-41.677464348955894 L5.768849428373143,-41.60192755477514 L6.341513095647949,-41.51849240588735 L6.912972791790824,-41.42717474291434 L7.483120022036108,-41.32799190301656 L8.051846540797014,-41.22096271660155 L8.61904437221664,-41.10610750374889 L9.184605830667783,-40.983448070352296 L9.748423541197647,-40.853007703979685 L10.310390459913565,-40.71481116945188 L10.870399894305871,-40.56888470414087 L11.428345523504069,-40.415256012988515 L11.98412141846242,-40.25395426324661 L12.53762206207117,-40.08501007893931 L13.088742369189532,-39.908455535048994 L13.637377706596705,-39.72432415142666 L14.183423912857043,-39.53265088642798 L14.726777318095683,-39.3334721302763 L15.267334763680854,-39.126825698153716 L15.804993621809087,-38.912750823021675 L16.339651814989693,-38.69128814817237 L16.871207835424716,-38.46247971951241 L17.399560764280753,-38.226368977580144 L17.924610290848953,-37.983000749298256 L18.446256731589553,-37.732421239463115 L18.964401049057354,-37.47467802197255 L19.478944870704503,-37.20982003079368 L19.98979050755709,-36.93789755067254 L20.496840972761916,-36.65896220758722 L20.999999999999996,-36.373066958946424 L21.49917206176324,-36.08026608353518 L21.99426238749087,-35.78061517120974 L22.485176981562137,-35.474171112343534 L22.971822641141927,-35.1609920870262 L23.454106973875792,-34.84113755401782 L23.93193841543118,-34.5146682394603 L24.405226246881405,-34.181646125348195 L24.87388061192916,-33.84213443776108 L25.337812533966197,-33.496197634859776 L25.79693393296605,-33.14390139464853 L26.251157642206493,-32.78531260250577 L26.700397424818657,-32.42049933848548 L27.14456799015952,-32.049530864391876 L27.583585010004843,-31.67247761062964 L28.017365134559352,-31.289411162832355 L28.445826008281127,-30.90040424827153 L28.868886285517263,-30.505530722048967 L29.286465645947807,-30.104865553074955 L29.698484809834994,-29.698484809834998 L30.10486555307495,-29.286465645947807 L30.505530722048967,-28.868886285517263 L30.900404248271528,-28.445826008281127 L31.289411162832355,-28.017365134559356 L31.67247761062964,-27.583585010004846 L32.04953086439187,-27.14456799015952 L32.42049933848548,-26.700397424818657 L32.78531260250577,-26.251157642206497 L33.14390139464853,-25.79693393296605 L33.496197634859776,-25.337812533966197 L33.84213443776108,-24.87388061192916 L34.18164612534819,-24.405226246881412 L34.5146682394603,-23.93193841543118 L34.84113755401782,-23.454106973875792 L35.1609920870262,-22.97182264114193 L35.47417111234353,-22.48517698156214 L35.78061517120974,-21.994262387490874 L36.08026608353517,-21.49917206176325 L36.37306695894642,-21.000000000000014 L36.658962207587216,-20.496840972761934 L36.93789755067253,-19.989790507557107 L37.20982003079367,-19.478944870704527 L37.47467802197254,-18.964401049057383 L37.7324212394631,-18.44625673158959 L37.98300074929824,-17.924610290848992 L38.22636897758013,-17.399560764280796 L38.462479719512395,-16.871207835424766 L38.691288148172355,-16.339651814989747 L38.91275082302165,-15.804993621809146 L39.126825698153695,-15.267334763680914 L39.33347213027628,-14.726777318095749 L39.53265088642796,-14.183423912857112 L39.72432415142663,-13.63737770659678 L39.908455535048965,-13.088742369189614 L40.085010078939284,-12.537622062071254 L40.253954263246584,-11.984121418462513 L40.415256012988486,-11.428345523504163 L40.56888470414084,-10.87039989430597 L40.71481116945185,-10.310390459913666 L40.853007703979664,-9.748423541197754 L40.983448070352274,-9.184605830667897 L41.106107503748866,-8.619044372216758 L41.22096271660153,-8.051846540797136 L41.32799190301654,-7.483120022036235 L41.42717474291432,-6.912972791790955 L41.51849240588733,-6.341513095648087 L41.601927554775116,-5.768849428373285 L41.67746434895587,-5.1950905133127465 L41.74508844735386,-4.620345281751482 L41.80478701116215,-4.0447228522321135 L41.85654870628012,-3.4683325098381186 L41.90036370546534,-2.8912836854454578 L41.93622369019927,-2.313685934946519 L41.964121852266636,-1.73564891845033 L41.98405289504795,-1.1572823794629836 L41.996013034525156,-0.5786961240522297 L42.0,-1.8908922641523574e-13 L41.99601303452516,0.5786961240518516 L41.98405289504797,1.1572823794626057 L41.96412185226665,1.7356489184499522 L41.93622369019929,2.3136859349461414 L41.90036370546537,2.8912836854450807 L41.85654870628015,3.4683325098377416 L41.80478701116218,4.044722852231737 L41.7450884473539,4.620345281751106 L41.67746434895592,5.195090513312371 L41.601927554775166,5.768849428372911 L41.518492405887386,6.341513095647713 L41.42717474291438,6.912972791790582 L41.3279919030166,7.4831200220358625 L41.220962716601605,8.051846540796765 L41.10610750374894,8.619044372216388 L40.98344807035235,9.184605830667527 L40.85300770397975,9.748423541197388 L40.71481116945195,10.3103904599133 L40.56888470414094,10.870399894305605 L40.41525601298859,11.428345523503799 L40.25395426324669,11.984121418462149 L40.0850100789394,12.537622062070895 L39.908455535049086,13.088742369189255 L39.72432415142675,13.637377706596423 L39.53265088642809,14.183423912856755 L39.33347213027641,14.726777318095394 L39.12682569815383,15.267334763680562 L38.912750823021796,15.804993621808794 L38.6912881481725,16.3396518149894 L38.462479719512544,16.871207835424418 L38.226368977580286,17.39956076428045 L37.9830007492984,17.92461029084865 L37.732421239463264,18.446256731589248 L37.4746780219727,18.96440104905704 L37.20982003079384,19.478944870704193 L36.93789755067271,19.989790507556776 L36.6589622075874,20.496840972761603 L36.3730669589466,20.999999999999684 L36.08026608353536,21.499172061762923 L35.78061517120993,21.994262387490554 L35.47417111234373,22.48517698156182 L35.16099208702641,22.97182264114161 L34.84113755401803,23.454106973875472 L34.51466823946052,23.93193841543086 L34.18164612534842,24.405226246881085 L33.84213443776132,24.87388061192884 L33.49619763486002,25.337812533965874 L33.14390139464878,25.796933932965725 L32.785312602506025,26.251157642206174 L32.42049933848574,26.70039742481833 L32.049530864392146,27.144567990159196 L31.672477610629922,27.583585010004523 L31.289411162832643,28.01736513455903 L30.900404248271826,28.445826008280804 L30.50553072204927,28.86888628551694 L30.104865553075264,29.28646564594749 L29.698484809835314,29.698484809834675 L29.286465645948134,30.104865553074635 L28.868886285517597,30.50553072204865 L28.445826008281465,30.900404248271215 L28.017365134559704,31.289411162832042 L27.5835850100052,31.67247761062933 L27.14456799015988,32.04953086439156 L26.70039742481903,32.42049933848517 L26.251157642206877,32.78531260250546 L25.796933932966436,33.143901394648225 L25.33781253396659,33.49619763485948 L24.873880611929565,33.842134437760784 L24.40522624688182,34.181646125347896 L23.9319384154316,34.51466823946 L23.454106973876222,34.84113755401753 L22.971822641142364,35.16099208702592 L22.485176981562585,35.47417111234324 L21.99426238749132,35.78061517120946 L21.4991720617637,36.0802660835349 L21.000000000000465,36.373066958946154 L20.496840972762392,36.65896220758696 L19.98979050755757,36.93789755067228 L19.478944870704993,37.20982003079342 L18.96440104905785,37.474678021972295 L18.44625673159006,37.732421239462866 L17.924610290849465,37.983000749298014 L17.399560764281276,38.22636897757991 L16.871207835425245,38.46247971951218 L16.33965181499023,38.69128814817215 L15.804993621809631,38.912750823021454 L15.267334763681403,39.1268256981535 L14.72677731809624,39.33347213027609 L14.183423912857606,39.53265088642778 L13.637377706597276,39.72432415142646 L13.088742369190113,39.9084555350488 L12.537622062071755,40.08501007893913 L11.984121418463015,40.253954263246435 L11.42834552350467,40.41525601298835 L10.870399894306477,40.56888470414071 L10.310390459914176,40.71481116945172 L9.748423541198266,40.853007703979536 L9.184605830668408,40.98344807035215 L8.619044372217271,41.10610750374876 L8.051846540797651,41.22096271660143 L7.483120022036751,41.32799190301644 L6.912972791791473,41.42717474291423 L6.341513095648605,41.51849240588725 L5.768849428373805,41.601927554775045 L5.195090513313267,41.67746434895581 L4.620345281752003,41.7450884473538 L4.044722852232636,41.8047870111621 L3.4683325098386413,41.85654870628008 L2.891283685445982,41.9003637054653 L2.313685934947043,41.93622369019924 L1.7356489184508543,41.964121852266615 L1.1572823794635083,41.98405289504794 L0.5786961240527545,41.99601303452515 L7.139098954771189e-13,42.0 L-0.5786961240513269,41.99601303452517 L-1.157282379462081,41.98405289504798 L-1.735648918449428,41.96412185226667 L-2.3136859349456174,41.93622369019932 L-2.891283685444557,41.900363705465395 L-3.4683325098372184,41.85654870628019 L-4.044722852231215,41.80478701116223 L-4.620345281750584,41.745088447353965 L-5.19509051331185,41.677464348955986 L-5.768849428372391,41.601927554775244 L-6.341513095647194,41.518492405887464 L-6.9129727917900645,41.42717474291447 L-7.483120022035346,41.327991903016695 L-8.05184654079625,41.2209627166017 L-8.619044372215875,41.10610750374905 L-9.184605830667016,40.983448070352466 L-9.748423541196876,40.85300770397987 L-10.310390459912792,40.71481116945207 L-10.870399894305097,40.56888470414108 L-11.428345523503296,40.415256012988735 L-11.984121418461648,40.25395426324685 L-12.537622062070394,40.085010078939554 L-13.088742369188756,39.90845553504925 L-13.637377706595926,39.72432415142693 L-14.183423912856261,39.53265088642826 L-14.726777318094902,39.33347213027659 L-15.267334763680072,39.12682569815402 L-15.80499362180831,38.912750823021995 L-16.339651814988915,38.6912881481727 L-16.871207835423938,38.46247971951276 L-17.399560764279972,38.2263689775805 L-17.924610290848175,37.98300074929862 L-18.44625673158878,37.73242123946349 L-18.964401049056576,37.47467802197294 L-19.478944870703728,37.20982003079409 L-19.989790507556314,36.93789755067296 L-20.496840972761145,36.658962207587656 L-20.99999999999923,36.37306695894687 L-21.499172061762476,36.08026608353563 L-21.994262387490107,35.78061517121021 L-22.485176981561377,35.47417111234401 L-22.97182264114117,35.1609920870267 L-23.454106973875035,34.84113755401833 L-23.931938415430423,34.51466823946082 L-24.40522624688066,34.18164612534872 L-24.873880611928413,33.84213443776163 L-25.337812533965455,33.49619763486033 L-25.796933932965313,33.143901394649106 L-26.25115764220576,32.78531260250636 L-26.70039742481793,32.42049933848608 L-27.144567990158794,32.04953086439249 L-27.583585010004125,31.672477610630267 L-28.01736513455864,31.28941116283299 L-28.445826008280417,30.900404248272178 L-28.86888628551656,30.505530722049635 L-29.28646564594711,30.10486555307563 L-29.69848480983431,29.698484809835687 L-30.10486555307427,29.28646564594851 L-30.50553072204829,28.86888628551798 L-30.90040424827086,28.445826008281852 L-31.28941116283169,28.017365134560098 L-31.672477610628984,27.5835850100056 L-32.04953086439122,27.144567990160283 L-32.42049933848484,26.700397424819435 L-32.78531260250514,26.251157642207286 L-33.143901394647905,25.79693393296685 L-33.49619763485916,25.337812533967014 L-33.84213443776048,24.87388061192999 L-34.18164612534759,24.40522624688225 L-34.5146682394597,23.93193841543203 L-34.84113755401724,23.454106973876655 L-35.16099208702563,22.971822641142804 L-35.474171112342965,22.48517698156303 L-35.780615171209185,21.99426238749177 L-36.08026608353464,21.49917206176415 L-36.37306695894589,21.000000000000924 L-36.658962207586704,20.49684097276285 L-36.93789755067203,19.98979050755803 L-37.20982003079318,19.478944870705455 L-37.47467802197206,18.964401049058317 L-37.73242123946264,18.44625673159053 L-37.98300074929779,17.92461029084994 L-38.226368977579696,17.399560764281752 L-38.462479719511975,16.871207835425725 L-38.69128814817194,16.339651814990713 L-38.912750823021256,15.804993621810118 L-39.12682569815331,15.267334763681893 L-39.33347213027591,14.726777318096731 L-39.532650886427604,14.183423912858101 L-39.72432415142629,13.637377706597773 L-39.90845553504864,13.088742369190612 L-40.08501007893897,12.537622062072256 L-40.253954263246285,11.984121418463516 L-40.4152560129882,11.428345523505175 L-40.56888470414057,10.870399894306983 L-40.71481116945159,10.310390459914684 L-40.853007703979415,9.748423541198775 L-40.98344807035204,9.184605830668922 L-41.10610750374865,8.619044372217784 L-41.22096271660133,8.051846540798167 L-41.32799190301635,7.483120022037268 L-41.42717474291415,6.91297279179199 L-41.51849240588717,6.341513095649124 L-41.601927554774974,5.768849428374325 L-41.677464348955745,5.195090513313788 L-41.74508844735375,4.620345281752526 L-41.80478701116204,4.044722852233158 L-41.85654870628004,3.468332509839165 L-41.90036370546527,2.891283685446505 L-41.93622369019921,2.313685934947567 L-41.964121852266594,1.7356489184513788 L-41.984052895047924,1.157282379464033 L-41.99601303452514,0.5786961240532793 L-42.0,1.2387305645390019e-12 L-41.99601303452518,-0.5786961240508021 L-41.984052895047995,-1.1572823794615563 L-41.96412185226669,-1.7356489184489035 L-41.93622369019935,-2.3136859349450933 L-41.90036370546544,-2.891283685444033 L-41.856548706280236,-3.4683325098366957 L-41.80478701116228,-4.0447228522306915 L-41.74508844735402,-4.620345281750063 L-41.67746434895605,-5.19509051331133 L-41.601927554775315,-5.768849428371871 L-41.51849240588754,-6.3415130956466745 L-41.42717474291455,-6.912972791789547 L-41.32799190301679,-7.4831200220348295 L-41.220962716601804,-8.051846540795735 L-41.10610750374916,-8.61904437221536 L-40.98344807035259,-9.184605830666504 L-40.85300770397999,-9.748423541196367 L-40.714811169452204,-10.310390459912282 L-40.56888470414121,-10.87039989430459 L-40.415256012988884,-11.42834552350279 L-40.253954263246996,-11.984121418461143 L-40.08501007893971,-12.537622062069893 L-39.90845553504941,-13.088742369188257 L-39.72432415142709,-13.63737770659543 L-39.532650886428435,-14.183423912855767 L-39.333472130276775,-14.726777318094413 L-39.126825698154214,-15.267334763679585 L-38.912750823022186,-15.804993621807823 L-38.69128814817291,-16.33965181498843 L-38.46247971951296,-16.87120783542346 L-38.22636897758072,-17.399560764279496 L-37.983000749298846,-17.924610290847703 L-37.732421239463726,-18.446256731588306 L-37.474678021973176,-18.964401049056107 L-37.20982003079433,-19.478944870703263 L-36.937897550673206,-19.989790507555853 L-36.65896220758791,-20.496840972760687 L-36.37306695894713,-20.999999999998774 L-36.0802660835359,-21.499172061762025 L-35.780615171210485,-21.99426238748966 L-35.474171112344294,-22.485176981560933 L-35.16099208702698,-22.971822641140726 L-34.84113755401862,-23.4541069738746 L-34.514668239461116,-23.931938415429997 L-34.18164612534903,-24.40522624688023 L-33.84213443776194,-24.87388061192799 L-33.49619763486065,-25.337812533965035 L-33.14390139464943,-25.796933932964897 L-32.785312602506686,-26.251157642205353 L-32.42049933848641,-26.700397424817524 L-32.04953086439283,-27.144567990158393 L-31.67247761063061,-27.58358501000373 L-31.289411162833343,-28.01736513455825 L-30.900404248272533,-28.44582600828003 L-30.505530722049993,-28.86888628551618 L-30.104865553075996,-29.286465645946734 L-29.698484809836057,-29.698484809833936 L-29.286465645948887,-30.1048655530739 L-28.868886285518357,-30.505530722047926 L-28.44582600828224,-30.9004042482705 L-28.017365134560485,-31.289411162831342 L-27.583585010005994,-31.67247761062864 L-27.144567990160684,-32.04953086439089 L-26.70039742481984,-32.420499338484504 L-26.251157642207698,-32.7853126025048 L-25.796933932967264,-33.143901394647585 L-25.337812533967433,-33.49619763485884 L-24.87388061193041,-33.842134437760166 L-24.405226246882673,-34.181646125347285 L-23.931938415432462,-34.514668239459404 L-23.454106973877092,-34.841137554016946 L-22.971822641143245,-35.16099208702534 L-22.48517698156347,-35.47417111234269 L-21.994262387492217,-35.780615171208915 L-21.499172061764604,-36.08026608353437 L-21.000000000001375,-36.37306695894563 L-20.49684097276331,-36.65896220758645 L-19.989790507558492,-36.93789755067178 L-19.478944870705924,-37.20982003079294 L-18.964401049058786,-37.47467802197182 L-18.446256731591003,-37.732421239462404 L-17.924610290850413,-37.98300074929757 L-17.399560764282228,-38.226368977579476 L-16.871207835426205,-38.462479719511755 L-16.339651814991196,-38.691288148171736 L-15.804993621810603,-38.91275082302106 L-15.26733476368238,-39.12682569815312 L-14.726777318097223,-39.33347213027572 L-14.183423912858595,-39.532650886427426 L-13.637377706598269,-39.72432415142612 L-13.08874236919111,-39.908455535048475 L-12.537622062072758,-40.085010078938815 L-11.98412141846402,-40.253954263246136 L-11.428345523505678,-40.41525601298806 L-10.870399894307491,-40.56888470414044 L-10.310390459915194,-40.714811169451465 L-9.748423541199287,-40.853007703979294 L-9.184605830669433,-40.983448070351926 L-8.6190443722183,-41.10610750374854 L-8.051846540798682,-41.22096271660122 L-7.483120022037784,-41.327991903016255 L-6.912972791792508,-41.427174742914055 L-6.341513095649643,-41.518492405887095 L-5.768849428374844,-41.6019275547749 L-5.195090513314309,-41.67746434895568 L-4.620345281753046,-41.74508844735369 L-4.04472285223368,-41.804787011162 L-3.4683325098396875,-41.85654870627999 L-2.8912836854470285,-41.90036370546523 L-2.313685934948091,-41.936223690199185 L-1.7356489184519033,-41.96412185226657 L-1.1572823794645575,-41.98405289504791 L-0.578696124053804,-41.996013034525134 L-1.763551233600885e-12,-42.0 " />
			<path d="M1.0150610510858574e-15,-36.0000000000002 L0.5359865257152688,-35.99600975725318 L1.071854233855718,-35.98403991356974 L1.6074843331860278,-35.96409312242665 L2.142758085144035,-35.93617380563162 L2.6775568301627164,-35.90028815234306 L3.21176201397466,-35.85644411769806 L3.7452552138931905,-35.804651421048916 L4.277918165064334,-35.74492154380852 L4.809632786683783,-35.67726772690519 L5.340281208173071,-35.60170496784737 L5.8697457953091385,-35.51825001739901 L6.397909176301507,-35.42692137586628 L6.924654267811273,-35.32773928899636 L7.449864300906164,-35.22072574348941 L7.97342284694589,-35.105904462124535 L8.495213843392062,-34.9833008985009 L9.015121619536957,-34.852942231395204 L9.533030922145413,-34.714857358736666 L10.048826941004192,-34.56907689120093 L10.562395334373113,-34.41563314542429 L11.07362225433236,-34.25456013683972 L11.582394372020296,-34.08589357213635 L12.088598902756228,-33.90967084134398 L12.592123631042528,-33.725931009544475 L13.092856935440585,-33.53471480821178 L13.590687813315062,-33.3360646261826 L14.08550590544098,-33.13002450025959 L14.577201520468158,-32.91664010544931 L15.065665659237618,-32.69595874483697 L15.550790038944534,-32.468029339100276 L16.032467117142374,-32.232902415664675 L16.510590115582936,-31.99063009750242 L16.985053043886953,-31.741266091577998 L17.455750723040076,-31.484865676942285 L17.922578808708955,-31.22148569247833 L18.385433814372316,-30.951184524301286 L18.84421313426186,-30.674022092815363 L19.298815066107945,-30.390059839430673 L19.74913883368494,-30.099360712942882 L20.19508460915132,-29.801989155578713 L20.636553535179527,-29.498011088710392 L21.073447746870663,-29.18749389824216 L21.50567039344921,-28.870506419672196 L21.933125659732905,-28.547118922833132 L22.355718787373085,-28.21740309631461 L22.773356095860724,-27.88143203157137 L23.18594500329354,-27.53928020672033 L23.59339404689957,-27.19102347003023 L23.995612903312637,-26.836739023107615 L24.392512408595273,-26.47650540378273 L24.784004578004573,-26.110402468699302 L25.17000262549668,-25.73851137561185 L25.550420982965516,-25.36091456539463 L25.92517531921154,-24.977695743766176 L26.2941825586363,-24.588939862733334 L26.65736089965865,-24.194733101759148 L27.01462983284852,-23.795162848658553 L27.36591015877428,-23.390317680226232 L27.71112400555967,-22.98028734260091 L28.050194846146454,-22.565162731370407 L28.383047515258934,-22.145035871421893 L28.70960822606663,-21.7199998965418 L29.02980458654134,-21.2901490287699 L29.343565615505,-20.855578557512164 L29.65082175836482,-20.416384818416983 L29.95150490253217,-19.97266517201946 L30.245548392521762,-19.524517982158535 L30.532887044727858,-19.072042594171645 L30.81345716187418,-18.61533931287185 L31.087196547134347,-18.15450938031225 L31.35404451791966,-17.689654953342618 L31.613941919331232,-17.22087908096327 L31.866831137273447,-16.74828568148114 L32.11265611122588,-16.271979519473145 L32.3513623466708,-15.792066182561967 L32.58289692717348,-15.308652058009379 L32.80720852611281,-14.821844309132281 L33.02424741805928,-14.33175085154674 L33.23396548979821,-13.838480329245227 L33.43631625099545,-13.342142090512406 L33.63125484450338,-12.842846163684785 L33.81873805630484,-12.340703232759623 L33.998724325092816,-11.835824612858477 L34.17117375148379,-11.328322225550863 L34.3360481068626,-10.818308574043447 L34.49331084185697,-10.305896718240334 L34.64292709443981,-9.79120024967991 L34.78486369765743,-9.274333266353885 L34.91908918698194,-8.755410347413994 L35.04557380728642,-8.234546527772107 L35.1642895194409,-7.71185727259925 L35.27521000652821,-7.187458451729279 L35.37831067967785,-6.661466313972835 L35.47356868351685,-6.133997461347287 L35.56096290123639,-5.605168823228385 L35.64047395927294,-5.075097630429332 L35.71208423160303,-4.543901389213043 L35.77577784365055,-4.011697855243339 L35.83154067580587,-3.4786050074808497 L35.879360366555844,-2.944741022029424 L35.91922631522413,-2.410224245938832 L35.95112968432114,-1.87517317096957 L35.97506340150315,-1.3397064073255933 L35.99102216114007,-0.8039426573607852 L35.999002425491646,-0.2680006892650017 L35.999002425491646,0.2680006892644782 L35.99102216114007,0.8039426573602615 L35.97506340150315,1.33970640732507 L35.951129684321145,1.8751731709690467 L35.91922631522414,2.4102242459383083 L35.87936036655586,2.9447410220289005 L35.83154067580588,3.478605007480326 L35.775777843650566,4.011697855242816 L35.71208423160304,4.54390138921252 L35.64047395927296,5.075097630428809 L35.56096290123641,5.605168823227863 L35.47356868351687,6.133997461346764 L35.378310679677874,6.661466313972313 L35.27521000652824,7.187458451728758 L35.16428951944093,7.711857272598729 L35.045573807286445,8.234546527771588 L34.91908918698198,8.755410347413475 L34.78486369765746,9.274333266353365 L34.64292709443985,9.791200249679394 L34.493310841857,10.305896718239815 L34.336048106862634,10.818308574042932 L34.17117375148383,11.328322225550348 L33.99872432509286,11.835824612857964 L33.81873805630488,12.340703232759106 L33.631254844503424,12.84284616368427 L33.436316250995496,13.342142090511892 L33.23396548979826,13.838480329244714 L33.02424741805933,14.331750851546229 L32.80720852611286,14.821844309131771 L32.582896927173536,15.308652058008875 L32.35136234667085,15.792066182561474 L32.112656111225924,16.27197951947266 L31.86683113727349,16.74828568148066 L31.613941919331275,17.2208790809628 L31.3540445179197,17.689654953342153 L31.087196547134383,18.15450938031179 L30.81345716187421,18.615339312871402 L30.532887044727886,19.072042594171204 L30.245548392521783,19.524517982158102 L29.951504902532193,19.972665172019035 L29.650821758364838,20.41638481841656 L29.34356561550501,20.855578557511752 L29.029804586541346,21.290149028769488 L28.709608226066635,21.719999896541395 L28.383047515258934,22.1450358714215 L28.050194846146447,22.56516273137002 L27.711124005559657,22.98028734260053 L27.365910158774266,23.390317680225856 L27.014629832848495,23.795162848658183 L26.65736089965862,24.194733101758782 L26.294182558636265,24.58893986273297 L25.925175319211498,24.977695743765818 L25.55042098296547,25.360914565394282 L25.170002625496625,25.738511375611502 L24.78400457800451,26.110402468698965 L24.392512408595202,26.476505403782397 L23.995612903312562,26.83673902310728 L23.593394046899483,27.191023470029904 L23.185945003293455,27.539280206720008 L22.773356095860628,27.881432031571055 L22.355718787372982,28.217403096314293 L21.933125659732795,28.547118922832816 L21.50567039344909,28.870506419671887 L21.07344774687054,29.187493898241854 L20.636553535179395,29.498011088710086 L20.19508460915118,29.80198915557841 L19.74913883368479,30.099360712942584 L19.29881506610779,30.390059839430375 L18.844213134261693,30.674022092815065 L18.385433814372142,30.95118452430099 L17.922578808708774,31.221485692478037 L17.455750723039884,31.484865676941993 L16.985053043886754,31.741266091577707 L16.510590115582723,31.990630097502134 L16.032467117142154,32.232902415664384 L15.550790038944308,32.46802933909999 L15.065665659237384,32.69595874483669 L14.577201520467915,32.91664010544902 L14.085505905440726,33.130024500259296 L13.590687813314801,33.336064626182306 L13.092856935440313,33.5347148082115 L12.592123631042247,33.72593100954418 L12.088598902755939,33.90967084134369 L11.582394372019998,34.08589357213605 L11.073622254332053,34.25456013683942 L10.562395334372797,34.41563314542399 L10.048826941003865,34.56907689120062 L9.533030922145079,34.71485735873636 L9.015121619536611,34.85294223139489 L8.49521384339171,34.98330089850059 L7.973422846945528,35.105904462124215 L7.449864300905796,35.2207257434891 L6.924654267810896,35.327739288996035 L6.397909176301122,35.42692137586595 L5.869745795308746,35.51825001739868 L5.340281208172671,35.60170496784703 L4.809632786683375,35.677267726904844 L4.277918165063919,35.744921543808175 L3.7452552138927677,35.80465142104856 L3.211762013974229,35.8564441176977 L2.6775568301622785,35.90028815234269 L2.1427580851435892,35.93617380563125 L1.6074843331855748,35.96409312242627 L1.0718542338552575,35.984039913569354 L0.5359865257148009,35.996009757252786 L-4.741925571100513e-13,35.9999999999998 L-0.5359865257157491,35.99600975725277 L-1.0718542338562052,35.984039913569326 L-1.607484333186522,35.96409312242623 L-2.1427580851445365,35.93617380563119 L-2.6775568301632244,35.90028815234262 L-3.211762013975174,35.85644411769761 L-3.7452552138937114,35.80465142104846 L-4.277918165064861,35.74492154380807 L-4.809632786684316,35.677267726904724 L-5.34028120817361,35.601704967846885 L-5.869745795309682,35.51825001739852 L-6.397909176302056,35.42692137586578 L-6.924654267811828,35.32773928899585 L-7.449864300906723,35.2207257434889 L-7.973422846946454,35.10590446212401 L-8.49521384339263,34.98330089850036 L-9.01512161953753,34.85294223139466 L-9.53303092214599,34.714857358736104 L-10.048826941004776,34.56907689120036 L-10.562395334373702,34.415633145423705 L-11.073622254332955,34.25456013683913 L-11.582394372020895,34.085893572135745 L-12.08859890275683,33.90967084134337 L-12.592123631043133,33.72593100954385 L-13.092856935441194,33.53471480821115 L-13.590687813315677,33.33606462618195 L-14.085505905441597,33.130024500258926 L-14.57720152046878,32.916640105448636 L-15.065665659238242,32.69595874483628 L-15.550790038945161,32.46802933909958 L-16.032467117143003,32.23290241566396 L-16.510590115583568,31.990630097501697 L-16.985053043887593,31.74126609157726 L-17.455750723040715,31.48486567694153 L-17.9225788087096,31.221485692477565 L-18.385433814372956,30.951184524300505 L-18.844213134262503,30.67402209281457 L-19.298815066108588,30.390059839429867 L-19.749138833685585,30.09936071294206 L-20.195084609151962,29.80198915557788 L-20.63655353518017,29.498011088709543 L-21.07344774687131,29.187493898241296 L-21.505670393449854,28.87050641967132 L-21.933125659733548,28.547118922832237 L-22.355718787373725,28.217403096313703 L-22.773356095861363,27.88143203157045 L-23.18594500329418,27.539280206719393 L-23.593394046900205,27.191023470029283 L-23.99561290331327,26.83673902310665 L-24.392512408595902,26.476505403781754 L-24.784004578005202,26.11040246869831 L-25.170002625497304,25.73851137561084 L-25.550420982966138,25.36091456539361 L-25.925175319212155,24.977695743765132 L-26.294182558636916,24.58893986273228 L-26.657360899659256,24.19473310175808 L-27.014629832849124,23.79516284865747 L-27.36591015877488,23.390317680225134 L-27.711124005560265,22.980287342599798 L-28.05019484614704,22.565162731369277 L-28.38304751525952,22.145035871420745 L-28.70960822606721,21.71999989654064 L-29.02980458654191,21.290149028768724 L-29.343565615505558,20.855578557510974 L-29.650821758365378,20.41638481841578 L-29.95150490253272,19.972665172018246 L-30.245548392522302,19.524517982157302 L-30.532887044728387,19.072042594170398 L-30.813457161874705,18.615339312870585 L-31.087196547134862,18.15450938031097 L-31.35404451792017,17.689654953341325 L-31.613941919331726,17.220879080961964 L-31.866831137273934,16.748285681479818 L-32.11265611122636,16.27197951947181 L-32.35136234667126,15.792066182560617 L-32.58289692717394,15.308652058008015 L-32.80720852611325,14.821844309130903 L-33.024247418059716,14.331750851545348 L-33.23396548979863,13.838480329243822 L-33.43631625099586,13.342142090510986 L-33.63125484450377,12.842846163683351 L-33.81873805630522,12.340703232758177 L-33.998724325093185,11.83582461285702 L-34.17117375148415,11.328322225549392 L-34.33604810686293,10.818308574041964 L-34.493310841857294,10.305896718238836 L-34.642927094440125,9.791200249678402 L-34.78486369765773,9.274333266352363 L-34.919089186982234,8.755410347412461 L-35.04557380728669,8.234546527770561 L-35.164289519441155,7.711857272597691 L-35.275210006528454,7.187458451727709 L-35.37831067967807,6.661466313971253 L-35.47356868351706,6.133997461345694 L-35.56096290123658,5.605168823226781 L-35.64047395927311,5.075097630427718 L-35.712084231603185,4.543901389211419 L-35.77577784365069,4.011697855241704 L-35.83154067580599,3.478605007479205 L-35.87936036655594,2.9447410220277703 L-35.919226315224215,2.4102242459371688 L-35.95112968432121,1.875173170967898 L-35.97506340150319,1.3397064073239122 L-35.9910221611401,0.8039426573590956 L-35.99900242549165,0.26800068926330395 L-35.99900242549164,-0.26800068926618387 L-35.99102216114005,-0.8039426573619751 L-35.97506340150311,-1.3397064073267908 L-35.951129684321074,-1.8751731709707746 L-35.919226315224044,-2.4102242459400434 L-35.879360366555744,-2.9447410220306427 L-35.83154067580575,-3.4786050074820745 L-35.77577784365041,-4.011697855244569 L-35.712084231602866,-4.543901389214279 L-35.64047395927277,-5.075097630430574 L-35.560962901236195,-5.605168823229632 L-35.47356868351663,-6.133997461348539 L-35.37831067967761,-6.661466313974091 L-35.275210006527956,-7.1874584517305395 L-35.16428951944062,-7.711857272600514 L-35.04557380728612,-8.234546527773375 L-34.91908918698163,-8.755410347415266 L-34.78486369765709,-9.274333266355159 L-34.64292709443945,-9.791200249681188 L-34.493310841856584,-10.305896718241613 L-34.336048106862194,-10.818308574044728 L-34.171173751483366,-11.328322225552146 L-33.99872432509237,-11.83582461285976 L-33.81873805630437,-12.340703232760905 L-33.63125484450289,-12.842846163686069 L-33.43631625099494,-13.342142090513688 L-33.233965489797676,-13.83848032924651 L-33.02424741805873,-14.331750851548023 L-32.807208526112234,-14.821844309133562 L-32.58289692717288,-15.308652058010658 L-32.35136234667017,-15.792066182563246 L-32.112656111225235,-16.27197951947442 L-31.866831137272776,-16.748285681482415 L-31.613941919330536,-17.22087908096454 L-31.35404451791895,-17.689654953343883 L-31.087196547133612,-18.15450938031351 L-30.813457161873423,-18.615339312873108 L-30.532887044727072,-19.0720425941729 L-30.24554839252096,-19.524517982159782 L-29.951504902531344,-19.972665172020704 L-29.65082175836397,-20.41638481841822 L-29.343565615504122,-20.855578557513397 L-29.029804586540443,-21.290149028771122 L-28.709608226065715,-21.719999896543015 L-28.383047515257992,-22.145035871423104 L-28.050194846145487,-22.565162731371608 L-27.711124005558684,-22.980287342602104 L-27.365910158773268,-23.39031768022742 L-27.014629832847483,-23.79516284865973 L-26.65736089965759,-24.194733101760313 L-26.29418255863522,-24.588939862734488 L-25.92517531921044,-24.977695743767317 L-25.55042098296439,-25.360914565395767 L-25.17000262549553,-25.738511375612973 L-24.784004578003405,-26.110402468700414 L-24.392512408594076,-26.476505403783833 L-23.99561290331142,-26.8367390231087 L-23.59339404689833,-27.191023470031304 L-23.185945003292282,-27.53928020672139 L-22.773356095859445,-27.88143203157242 L-22.355718787371785,-28.217403096315643 L-21.93312565973158,-28.54711892283415 L-21.505670393447865,-28.870506419673198 L-21.0734477468693,-29.187493898243147 L-20.63655353517814,-29.49801108871136 L-20.195084609149912,-29.80198915557967 L-19.74913883368351,-30.09936071294382 L-19.298815066106492,-30.390059839431594 L-18.84421313426039,-30.67402209281627 L-18.385433814370828,-30.95118452430217 L-17.922578808707446,-31.2214856924792 L-17.45575072303855,-31.48486567694313 L-16.985053043885404,-31.741266091578826 L-16.510590115581365,-31.990630097503235 L-16.032467117140783,-32.23290241566546 L-15.550790038942923,-32.468029339101044 L-15.06566565923599,-32.695958744837725 L-14.57720152046651,-32.91664010545004 L-14.085505905439314,-33.1300245002603 L-13.590687813313378,-33.33606462618328 L-13.092856935438883,-33.53471480821245 L-12.59212363104081,-33.725931009545114 L-12.088598902754494,-33.9096708413446 L-11.582394372018545,-34.085893572136946 L-11.073622254330594,-34.25456013684029 L-10.562395334371331,-34.415633145424835 L-10.04882694100239,-34.56907689120145 L-9.533030922143599,-34.71485735873716 L-9.015121619535128,-34.85294223139567 L-8.49521384339022,-34.98330089850135 L-7.973422846944035,-35.105904462124954 L-7.449864300904296,-35.22072574348981 L-6.924654267809393,-35.32773928899673 L-6.397909176299614,-35.42692137586662 L-5.869745795307235,-35.518250017399325 L-5.340281208171155,-35.60170496784765 L-4.809632786681856,-35.67726772690545 L-4.277918165062397,-35.74492154380876 L-3.745255213891244,-35.80465142104912 L-3.211762013972703,-35.85644411769823 L-2.677556830160751,-35.9002881523432 L-2.1427580851420602,-35.93617380563174 L-1.6074843331840438,-35.96409312242674 L-1.0718542338537256,-35.984039913569795 L-0.5359865257132687,-35.996009757253205 L2.006586259977109e-12,-36.0000000000002 " />

       </g>
    </g>
    
</svg>
