<?xml version="1.0" encoding="UTF-8" standalone="no"?>
<svg
   xmlns:svg="http://www.w3.org/2000/svg"
   xmlns="http://www.w3.org/2000/svg"
   width="800.0"
   height="800.0"

>
    <g transform="scale(8.773903262092238, -8.773903262092238)   translate(45.58974358974359,-45.58974358974359)" stroke-width="0.5"  fill="none">
       <!-- hidden lines -->
       <g  stroke="rgb(127,127,127)" fill="none" stroke-dasharray="0.5,0.5" >

       </g>

       <!-- solid lines -->
       <g  stroke="rgb(10,10,10)" fill="none">
			<path d="M0.0,-44.45 L0.5954781078786331,-44.44601113511805 L1.1908493414394938,-44.43404525637963 L1.786006845546237,-44.41410451137862 L2.380843803421928,-44.38619247900982 L2.9752534558201433,-44.3503141688267 L3.569129120185746,-44.30647602014228 L4.162364209801892,-44.254685900873376 L4.754852252919843,-44.19495310612857 L5.34648691186814,-44.127288356539914 L5.937162002137716,-44.05170379633882 L6.526771511439515,-43.96821299117649 L7.115209618731212,-43.87683092568919 L7.702370713209597,-43.77757400080881 L8.288149413265225,-43.67046003081936 L8.872440585395953,-43.555508240159696 L9.455139363075912,-43.43273925997315 L10.036141165576597,-43.30217512440477 L10.615341716736642,-43.16383926664669 L11.192637063676944,-43.01775651473244 L11.767923595457749,-42.86395308708086 L12.341098061674396,-42.70245658779056 L12.91205759098832,-42.533296001685564 L13.480699709590056,-42.356501689113315 L14.046922359590855,-42.17210538049561 L14.610623917339696,-41.980140170633796 L15.17170321166234,-41.78064051276901 L15.73005954201916,-41.57364221239862 L16.285592696578533,-41.35918242085001 L16.83820297020251,-41.137299628612766 L17.387791182341534,-40.90803365843054 L17.934258694835023,-40.671425658153844 L18.4775074296146,-40.42751809335489 L19.017439886306796,-40.176354739706134 L19.553959159732077,-39.91798067512346 L20.08696895729705,-39.65244227167584 L20.6163736162767,-39.37978718726258 L21.142078120983633,-39.10006435705989 L21.663988119821123,-38.81332398473815 L22.18200994221703,-38.51961753345151 L22.696050615435443,-38.21899771660153 L23.206017881263133,-37.911518488376274 L23.711820212567687,-37.59723503406689 L24.213366829724524,-37.276203760163085 L24.710567716909658,-36.94848228422951 L25.20333363825546,-36.61412942456479 L25.691576153866382,-36.27320518964494 L26.175207635691827,-35.92577076735335 L26.654141283253335,-35.57188851399895 L27.128291139223247,-35.21162194312472 L27.597572104851974,-34.8450357141085 L28.061899955241273,-34.47219562055817 L28.521191354460615,-34.09316857850325 L28.975363870504008,-33.70802261438501 L29.424335990084646,-33.31682685284734 L29.86802713326458,-32.91965150433053 L30.306357667916938,-32.51656785247011 L30.739248924018053,-32.10764824130312 L31.166623207766833,-31.692966062284075 L31.58840381552899,-31.272595741112912 L32.00451504760356,-30.84661272437733 L32.41488222180919,-30.415093466011893 L32.81943168688782,-29.978115413576354 L33.21809083572341,-29.535756994355648 L33.610788118373165,-29.088097601284023 L33.99745305490909,-28.635217578695876 L34.378016248067425,-28.17719820790585 L34.75240939570391,-27.71412169262073 L35.120565303052345,-27.246071144185834 L35.48241789478451,-26.773130566668442 L35.8379022268691,-26.295384841781097 L36.18695449822767,-25.81291971364728 L36.52951206218544,-25.325821773412375 L36.865513437714874,-24.834178443702626 L37.194898320470095,-24.338077962934772 L37.51760759361008,-23.83760936947938 L37.83358333840879,-23.33286248568051 L38.14276884465015,-22.82392790173475 L38.445108620806245,-22.31089695943239 L38.74054840399675,-21.793861735763706 L39.029035169727784,-21.272915026393342 L39.31051714140866,-20.74815032900563 L39.58494379964445,-20.21966182652397 L39.85226589130312,-19.687544370207227 L40.112435438355256,-19.15189346262613 L40.365405746485024,-18.612805240522828 L40.61113141347067,-18.070376457556595 L40.84956833733319,-17.524704466938836 L41.080673724251554,-16.975887203960454 L41.30440609624323,-16.424023168414788 L41.520725298608475,-15.869211406919204 L41.729592507137184,-15.311551495138566 L41.930970235076934,-14.75114351991373 L42.1248223398609,-14.188088061298338 L42.3111140295947,-13.622486174507022 L42.489811869300645,-13.054439371778411 L42.66088378691857,-12.484049604156048 L42.82429907906199,-11.911419243190572 L42.98002841652866,-11.336651062566455 L43.12804384956446,-10.75984821965651 L43.26831881287972,-10.181114237007598 L43.40082813041708,-9.60055298376075 L43.52554801986998,-9.018268657009097 L43.64245609695103,-8.43436576309695 L43.75153137940948,-7.848949098863364 L43.85275429079701,-7.262123732833572 L43.94610666398128,-6.673994986361651 L44.03157174440646,-6.084668414727818 L44.10913419310034,-5.4942497881937475 L44.17878008942722,-4.90284507301928 L44.24049693358644,-4.310560412443982 L44.29427364885573,-3.7175021076369297 L44.340100583579265,-3.1237765986181456 L44.37796951289985,-2.529490445155119 L44.40787364023519,-1.9347503076378325 L44.4298075984976,-1.3396629279357322 L44.44376745105735,-0.7443351102400705 L44.44975069244916,-0.14887370189506616 L44.447756248821904,0.44661442577868227 L44.43778447813132,1.0420223966650846 L44.419837170075745,1.63724334903431 L44.39391754577497,2.232170454721952 L44.36003025719204,2.826696938302176 L44.31818138629841,3.420716096251393 L44.26837844398233,4.014121316099036 L44.21063036870084,4.606806095561992 L44.14494752487551,5.198664061659253 L44.071341701032296,5.789588989803369 L43.98982610768572,6.379474822865263 L43.900415374967984,6.968215690208992 L43.80312555000312,7.555705926693033 L43.69797409402695,8.141840091634696 L43.5849798792532,8.726512987734244 L43.46416318548637,9.309619679955334 L43.335545696482015,9.891055514358394 L43.199150496054976,10.470716136883539 L43.05500206393642,11.048497512079669 L42.90312627138029,11.624295941776394 L42.743550376519984,12.198008083695408 L42.57630301947624,12.769530969998005 L42.40141421721685,13.338762025765385 L42.218915358169326,13.90559908740843 L42.028839196587434,14.469940421003676 L41.83121984667255,15.031684740552157 L41.626092776451,15.590731226157866 L41.41349480140835,16.146979542122537 L41.193464077881906,16.700329854953566 L40.96604009621254,17.25068285128176 L40.731263673657125,17.79793975568576 L40.48917694706277,18.342002348419904 L40.239823365304254,18.882772983042344 L39.98324768148599,19.420154603940343 L39.71949594490988,19.954050763749397 L39.448615492810546,20.48436564066332 L39.170654941859425,21.011004055631993 L38.8856641794392,21.53387148944377 L38.593694354690214,22.052874099689433 L38.29479786933037,22.56791873760473 L37.989028368250274,23.078912964788362 L37.67644072988524,23.58576506979251 L37.3570910563659,24.088384084582906 L37.031036663449186,24.586679800865394 L36.6983360702315,25.080562786276275 L36.359048988645895,25.569944400433258 L36.01323631274524,26.05473681084435 L35.66096010777312,26.534853008671718 L35.302283599024584,27.010206824347716 L34.93727116049873,27.48071294304032 L34.56598830334505,27.946286919965114 L34.188501664105736,28.40684519554116 L33.804878992755974,28.862305110387943 L33.41518914054444,29.312584920160848 L33.019502047636095,29.75760381022228 L32.61788873055959,30.197281910146053 L32.21042126946145,30.631540308052184 L31.797172795169395,31.060301064769796 L31.378217476067075,31.483487227825304 L30.95363050478259,31.90102284525361 L30.52348808469318,32.31283297922969 L30.087867416248503,32.71884371951814 L29.64684668311498,33.11898219673839 L29.200505038143664,33.51317659544298 L28.74892258916416,33.90135616700675 L28.292180384607153,34.28345124232464 L27.83036039895813,34.65939324431551 L27.363545518044873,35.02911470023024 L26.89181952416142,35.39254925376146 L26.41526708103109,35.749631676952916 L25.93397371861136,36.1002978819064 L25.448025817743225,36.444484932283984 L24.957510594647896,36.78213105460365 L24.46251608527351,37.113175649326145 L23.963131129494766,37.437559301731184 L23.45944535516826,37.755223792581006 L22.95154916204637,38.066112108569335 L22.439533705552645,38.370168452553955 L21.92349088042156,38.667338253570975 L21.40351330420553,38.95756817662901 L20.879694300652286,39.24080613228159 L20.35212788295543,39.517001285975994 L19.82090873688128,39.786104067176815 L19.286132203775,40.04806617826276 L18.74789426344909,40.302840603194866 L18.206291516957236,40.550381615954876 L17.661421169256716,40.790644788751884 L17.113381011762385,41.02358699999613 L16.56226940479542,41.24916644203829 L16.008185259929945,41.46734262867301 L15.451228022240757,41.67807640240517 L14.891497652455234,41.88132994147775 L14.329094609012765,42.077066766659975 L13.764119830034815,42.26525174779446 L13.1966747152089,42.445851110102225 L12.62686110758973,42.61883244024451 L12.05478127532078,42.784164692140195 L11.480537893279553,42.94181819253782 L10.904234024649872,43.09176464634128 L10.325973102424442,43.23397714168808 L9.745858910841068,43.36843015477941 L9.163995566755831,43.49509955446107 L8.580487500956549,43.61396260655444 L7.995439439419917,43.7249979779367 L7.408956384515649,43.82818574036969 L6.821143596161027,43.92350737407649 L6.232106572929217,44.01094577106532 L5.6419510331147595,44.09048523820004 L5.0507828957596175,44.16211150001664 L4.458708261643204,44.22581170128542 L3.865833394239782,44.28157440931816 L3.2722647006466743,44.32938961602 L2.6781087124866882,44.36924873968572 L2.0834720667881963,44.40114462653991 L1.4884614868462962,44.42507155202089 L0.8931837630684895,44.44102522180818 L0.29774573380831443,44.44900277259321 L-0.2977457338096261,44.449002772593204 L-0.893183763069801,44.44102522180816 L-1.4884614868476072,44.425071552020846 L-2.0834720667895064,44.401144626539846 L-2.6781087124879974,44.369248739685645 L-3.2722647006479826,44.32938961601991 L-3.865833394241089,44.28157440931805 L-4.458708261644509,44.225811701285295 L-5.050782895760921,44.16211150001649 L-5.641951033116062,44.090485238199875 L-6.232106572930516,44.01094577106514 L-6.821143596162323,43.92350737407629 L-7.408956384516943,43.82818574036947 L-7.995439439421207,43.72499797793647 L-8.580487500957835,43.61396260655418 L-9.163995566757114,43.4950995544608 L-9.74585891084235,43.36843015477912 L-10.325973102425719,43.233977141687774 L-10.904234024651144,43.091764646340955 L-11.480537893280822,42.94181819253748 L-12.054781275322041,42.78416469213984 L-12.626861107590988,42.61883244024414 L-13.196674715210152,42.445851110101835 L-13.764119830036064,42.26525174779405 L-14.329094609014009,42.077066766659556 L-14.89149765245647,41.88132994147731 L-15.451228022241986,41.67807640240471 L-16.00818525993117,41.46734262867253 L-16.562269404796638,41.249166442037804 L-17.113381011763597,41.023586999995615 L-17.66142116925792,40.79064478875136 L-18.206291516958434,40.550381615954336 L-18.74789426345028,40.30284060319432 L-19.286132203776184,40.04806617826218 L-19.82090873688245,39.78610406717623 L-20.352127882956594,39.51700128597539 L-20.879694300653444,39.24080613228098 L-21.40351330420668,38.95756817662838 L-21.923490880422698,38.66733825357033 L-22.43953370555378,38.370168452553294 L-22.95154916204749,38.06611210856865 L-23.459445355169372,37.75522379258031 L-23.96313112949587,37.43755930173048 L-24.462516085274608,37.11317564932542 L-24.95751059464898,36.782131054602914 L-25.4480258177443,36.44448493228324 L-25.933973718612425,36.10029788190563 L-26.415267081032145,35.74963167695214 L-26.89181952416246,35.39254925376067 L-27.36354551804591,35.029114700229435 L-27.83036039895915,34.659393244314685 L-28.292180384608162,34.2834512423238 L-28.74892258916516,33.90135616700591 L-29.20050503814465,33.51317659544211 L-29.64684668311596,33.11898219673751 L-30.08786741624947,32.71884371951725 L-30.523488084694133,32.31283297922878 L-30.953630504783533,31.901022845252697 L-31.378217476068006,31.48348722782438 L-31.797172795170308,31.060301064768858 L-32.21042126946235,30.631540308051235 L-32.61788873056049,30.19728191014509 L-33.019502047636976,29.75760381022131 L-33.4151891405453,29.31258492015986 L-33.80487899275683,28.862305110386945 L-34.18850166410656,28.40684519554016 L-34.56598830334585,27.94628691996413 L-34.937271160499506,27.48071294303934 L-35.30228359902534,27.01020682434674 L-35.66096010777384,26.534853008670748 L-36.01323631274594,26.054736810843387 L-36.35904898864657,25.5699444004323 L-36.698336070232145,25.080562786275323 L-37.03103666344982,24.58667980086445 L-37.35709105636651,24.088384084581968 L-37.676440729885826,23.585765069791584 L-37.98902836825083,23.078912964787442 L-38.29479786933091,22.56791873760382 L-38.593694354690726,22.05287409968853 L-38.885664179439694,21.53387148944288 L-39.170654941859894,21.011004055631116 L-39.448615492810994,20.484365640662453 L-39.719495944910314,19.95405076374854 L-39.9832476814864,19.4201546039395 L-40.239823365304645,18.882772983041516 L-40.48917694706314,18.342002348419076 L-40.73126367365748,17.797939755684947 L-40.96604009621288,17.25068285128096 L-41.193464077882226,16.70032985495278 L-41.41349480140865,16.146979542121763 L-41.62609277645129,15.590731226157107 L-41.831219846672816,15.031684740551418 L-42.02883919658768,14.469940421002947 L-42.21891535816957,13.905599087407715 L-42.401414217217074,13.338762025764689 L-42.57630301947645,12.769530969997327 L-42.743550376520176,12.198008083694743 L-42.90312627138046,11.624295941775747 L-43.055002063936584,11.048497512079038 L-43.199150496055125,10.470716136882926 L-43.33554569648215,9.891055514357799 L-43.46416318548649,9.309619679954755 L-43.584979879253304,8.726512987733683 L-43.697974094027046,8.141840091634155 L-43.80312555000321,7.55570592669251 L-43.90041537496807,6.968215690208487 L-43.98982610768579,6.379474822864776 L-44.07134170103235,5.7895889898029 L-44.14494752487557,5.1986640616588025 L-44.21063036870089,4.606806095561561 L-44.26837844398237,4.014121316098624 L-44.31818138629844,3.420716096251 L-44.360030257192065,2.8266969383018026 L-44.39391754577498,2.232170454721598 L-44.419837170075766,1.6372433490339755 L-44.43778447813133,1.04202239666477 L-44.44775624882191,0.44661442577838717 L-44.44975069244916,-0.1488737018953415 L-44.44376745105734,-0.7443351102403261 L-44.42980759849759,-1.3396629279359678 L-44.40787364023518,-1.9347503076380483 L-44.377969512899845,-2.5294904451553153 L-44.34010058357925,-3.1237765986183224 L-44.29427364885572,-3.7175021076370864 L-44.24049693358643,-4.310560412444119 L-44.17878008942721,-4.902845073019396 L-44.109134193100324,-5.494249788193844 L-44.031571744406456,-6.084668414727896 L-43.94610666398127,-6.673994986361707 L-43.85275429079701,-7.26212373283361 L-43.75153137940948,-7.8489490988633825 L-43.64245609695103,-8.434365763096949 L-43.52554801986999,-9.018268657009077 L-43.40082813041709,-9.60055298376071 L-43.268318812879734,-10.18111423700754 L-43.12804384956448,-10.759848219656433 L-42.98002841652869,-11.336651062566359 L-42.82429907906202,-11.91141924319046 L-42.6608837869186,-12.484049604155915 L-42.48981186930069,-13.05443937177826 L-42.311114029594755,-13.622486174506852 L-42.12482233986096,-14.18808806129815 L-41.930970235077,-14.751143519913526 L-41.72959250713727,-15.31155149513834 L-41.52072529860856,-15.869211406918962 L-41.304406096243326,-16.424023168414532 L-41.08067372425167,-16.97588720396018 L-40.84956833733332,-17.524704466938545 L-40.61113141347081,-18.07037645755629 L-40.36540574648517,-18.612805240522505 L-40.11243543835542,-19.15189346262579 L-39.8522658913033,-19.687544370206872 L-39.58494379964464,-20.219661826523602 L-39.31051714140886,-20.748150329005245 L-39.029035169728004,-21.272915026392944 L-38.740548403996975,-21.793861735763294 L-38.445108620806494,-22.31089695943196 L-38.14276884465041,-22.82392790173431 L-37.83358333840907,-23.332862485680053 L-37.517607593610386,-23.837609369478912 L-37.19489832047041,-24.3380779629343 L-36.8655134377152,-24.834178443702143 L-36.52951206218578,-25.32582177341189 L-36.186954498228026,-25.812919713646778 L-35.83790222686947,-26.29538484178059 L-35.482417894784895,-26.77313056666793 L-35.12056530305275,-27.246071144185315 L-34.752409395704326,-27.714121692620207 L-34.37801624806786,-28.177198207905317 L-33.997453054909535,-28.63521757869534 L-33.610788118373634,-29.08809760128348 L-33.2180908357239,-29.535756994355104 L-32.81943168688832,-29.978115413575804 L-32.414882221809705,-30.415093466011335 L-32.0045150476041,-30.846612724376772 L-31.58840381552955,-31.27259574111235 L-31.166623207767405,-31.69296606228351 L-30.73924892401865,-32.10764824130255 L-30.306357667917553,-32.516567852469535 L-29.868027133265205,-32.919651504329956 L-29.424335990085293,-33.316826852846766 L-28.97536387050468,-33.70802261438443 L-28.5211913544613,-34.09316857850268 L-28.06189995524198,-34.4721956205576 L-27.59757210485269,-34.84503571410792 L-27.128291139223986,-35.21162194312414 L-26.6541412832541,-35.571888513998374 L-26.175207635692608,-35.92577076735278 L-25.691576153867185,-36.27320518964437 L-25.203333638256286,-36.61412942456422 L-24.710567716910504,-36.94848228422895 L-24.21336682972538,-37.276203760162524 L-23.711820212568572,-37.59723503406634 L-23.20601788126403,-37.91151848837572 L-22.696050615436366,-38.218997716600974 L-22.18200994221797,-38.51961753345097 L-21.663988119822086,-38.813323984737615 L-21.142078120984614,-39.10006435705936 L-20.616373616277702,-39.37978718726206 L-20.08696895729807,-39.652442271675326 L-19.55395915973312,-39.917980675122955 L-19.01743988630786,-40.17635473970563 L-18.477507429615684,-40.4275180933544 L-17.934258694836128,-40.67142565815335 L-17.387791182342657,-40.908033658430064 L-16.838202970203653,-41.1372996286123 L-16.285592696579695,-41.35918242084955 L-15.73005954202034,-41.57364221239817 L-15.171703211663543,-41.78064051276857 L-14.61062391734092,-41.980140170633376 L-14.046922359592095,-42.172105380495196 L-13.480699709591315,-42.35650168911291 L-12.912057590989601,-42.53329600168517 L-12.341098061675696,-42.70245658779018 L-11.767923595459068,-42.8639530870805 L-11.192637063678282,-43.01775651473209 L-10.615341716738,-43.16383926664636 L-10.036141165577972,-43.30217512440445 L-9.455139363077306,-43.43273925997284 L-8.872440585397367,-43.555508240159405 L-8.288149413266657,-43.670460030819086 L-7.702370713211046,-43.777574000808556 L-7.11520961873268,-43.87683092568895 L-6.526771511441001,-43.96821299117628 L-5.9371620021392175,-44.05170379633862 L-5.346486911869659,-44.12728835653973 L-4.75485225292138,-44.1949531061284 L-4.162364209803446,-44.25468590087323 L-3.569129120187318,-44.30647602014215 L-2.9752534558217323,-44.35031416882659 L-2.3808438034235335,-44.38619247900973 L-1.7860068455478586,-44.41410451137855 L-1.1908493414411316,-44.43404525637959 L-0.5954781078802867,-44.44601113511803 L-1.6690274017825838e-12,-44.45 " />
			<path d="M-6.394085361170755e-16,-41.450000000000216 L0.5748999569225319,-41.44601295709333 L1.1496893154954668,-41.43405259539372 L1.7242574986459422,-41.41412121581697 L2.2984939718504775,-41.386222652730524 L2.8722882643994283,-41.35036227321607 L3.4455299906491708,-41.30654697603704 L4.018108871257915,-41.254785190311395 L4.589914754401076,-41.195086873890055 L5.160837636962102,-41.12746351144127 L5.7307676856947065,-41.05192811224114 L6.299595258352414,-40.968495207671 L6.86721092478136,-40.877180848421794 L7.433505487972299,-40.77800260140635 L7.998370005067744,-40.670979546379876 L8.56169580832023,-40.55613227226937 L9.123374525997638,-40.433482873212824 L9.683298103231587,-40.303054944308734 L10.241358822804848,-40.16487357707695 L10.797449325873826,-40.0189653546316 L11.35146263262207,-39.865358346567035 L11.903292162840902,-39.70408210355791 L12.452831756433122,-39.53516765167422 L12.999975693835955,-39.35864748641258 L13.544618716359185,-39.17455556644477 L14.086656046434673,-38.98292730708486 L14.625983407773285,-38.783799573476 L15.162497045425427,-38.577210673498435 L15.69609374574123,-38.36320035039986 L16.226670856226647,-38.141809775149646 L16.75412630529157,-37.91308153851851 L17.27835862188622,-37.677059642884906 L17.799266955021952,-37.43378949376993 L18.316751093172847,-37.183317891102284 L18.83071148355423,-36.925693020215 L19.341049251274473,-36.66096444257558 L19.847666218356405,-36.389183086251464 L20.350464922624628,-36.110401236112565 L20.849348636455144,-35.8246725237728 L21.34422138538365,-35.532051917272476 L21.83498796656897,-35.2325957105037 L22.321553967108017,-34.92636151238058 L22.803825782198807,-34.61340823575656 L23.281710633147988,-34.29379608609083 L23.755116585219486,-33.967586549866105 L24.223952565320744,-33.63484238275995 L24.688128379523214,-33.29562759757195 L25.147554730413756,-32.95000745190901 L25.60214323427349,-32.598048435631206 L26.051806438080963,-32.239818258060595 L26.49645783633618,-31.875385834955356 L26.936011887702428,-31.504821275251935 L27.370384031462564,-31.128195867577553 L27.799490703786695,-30.745582066535842 L28.22324935380802,-30.35705347876813 L28.641578459503883,-29.96268484879311 L29.054397543378805,-29.562552044627612 L29.46162718794665,-29.156732043191244 L29.86318905100883,-28.74530291549766 L30.259005880725645,-28.32834381163542 L30.64900153047787,-27.90593494554119 L31.033100973515733,-27.478157579568332 L31.411230317392434,-27.04509400885377 L31.78331681817946,-26.606827545486176 L32.14928889446096,-26.163442502478542 L32.50907614110443,-25.715024177548145 L32.86260934280519,-25.261658836707138 L33.20982048740188,-24.803433697666808 L33.55064277896053,-24.34043691305877 L33.8850106506247,-23.872757553476326 L34.21285977722907,-23.400485590339173 L34.534127087674264,-22.92371187858486 L34.84875077706033,-22.44252813919026 L35.1566703185767,-21.957026941526422 L35.457826475146234,-21.467301685550236 L35.75216131082113,-20.973446583836278 L36.0396182019286,-20.475556643452357 L36.32014184796398,-19.9737276476822 L36.59367828222943,-19.46805613759881 L36.860174882215894,-18.958639393492057 L37.11958037972657,-18.445575416154036 L37.37184487073981,-17.92896290802584 L37.616919825009546,-17.408901254209333 L37.85475809540149,-16.885490503347608 L38.08531392696324,-16.358831348377766 L38.30854296572648,-15.829025107159797 L38.5244022672398,-15.29617370298519 L38.73285030483025,-14.760379644969086 L38.93384697759217,-14.221746008329756 L39.12735361810175,-13.680376414559134 L39.31333299985581,-13.136375011488289 L39.491749344433366,-12.589846453251615 L39.66256832837863,-12.040895880153657 L39.82575708980412,-11.489628898442357 L39.98128423471255,-10.936151559992707 L40.12911984303636,-10.380570341904658 L40.26923547439371,-9.822992126019209 L40.40160417355981,-9.263524178356658 L40.52620047565248,-8.702274128480934 L40.64300041103106,-8.139349948793978 L40.75198150990767,-7.5748599337642 L40.85312280666991,-7.0089126790929495 L40.94640484391415,-6.4416170608230425 L41.03180967618878,-5.873082214393367 L41.109320873446464,-5.303417513643573 L41.17892352420498,-4.732732549772909 L41.240604238415834,-4.161137110257241 L41.29435115004023,-3.5887411577283013 L41.340153919331826,-3.0156548088192623 L41.37800373482592,-2.4419883129806648 L41.4078933150345,-1.8678520312708022 L41.42981690984715,-1.2933564151246364 L41.44377030163717,-0.7186119851053224 L41.449750806073006,-0.14372930964243708 L41.44775727263461,0.4311810162390016 L41.43779008483481,1.006008392194632 L41.41985116014551,1.580642233837868 L41.39394394962885,2.154971994013952 L41.360073437273236,2.7288871840668376 L41.318246139034564,3.30227739509483 L41.26847010158269,3.875032319190871 L41.210754900753436,4.447041770663406 L41.14511163970635,5.018195707233729 L41.07155294678877,5.588384251205747 L40.99009297310636,6.1574977106040745 L40.900747389800735,6.72542660027641 L40.80353338503472,7.292061662956106 L40.69846966068566,7.857293890280926 L40.585576428747615,8.421014543763887 L40.464875407443,8.983115175712202 L40.33638981704449,9.543487650090286 L40.20014437540789,10.102024163322787 L40.056165293217,10.65861726503367 L39.90448026894122,11.21315987871735 L39.74511848350697,11.76554532233791 L39.57811059468393,12.315667328852413 L39.40348873118709,12.863420066654392 L39.221286486495934,13.40869815993357 L39.03153891239176,13.951396708947895 L38.83428251221447,14.491411310203977 L38.62955523384011,15.028638076542084 L38.41739646238052,15.562973657121773 L38.19784701260652,16.094315257304373 L37.970949121095984,16.622560658428455 L37.73674643810844,17.147608237474497 L37.49528401918772,17.66935698661495 L37.24660831649425,18.187706532645986 L36.99076716986864,18.702557156297125 L36.72780979762832,19.213809811415057 L36.457786787099025,19.721366144018017 L36.18075008488286,20.225128511216944 L35.89675298686493,20.72499999999988 L35.60585012796032,21.22088444587593 L35.308097471603546,21.71268645137525 L35.00355229898236,22.200311404401454 L34.69227319801815,22.683665496432937 L34.37432005209481,23.16265574056963 L34.04975402853854,23.637189989421632 L33.7186375668505,24.107176952836436 L33.38103436669488,24.572526215461146 L33.037009375644395,25.03314825413644 L32.68662877668579,25.488954455118915 L32.329959975487654,25.939857131128452 L31.967071587433068,26.385769538217353 L31.59803342441942,26.826605892457998 L31.222916481428147,27.262281386445842 L30.841792922866812,27.69271220561452 L30.454736068686238,28.11781554435995 L30.061820380275332,28.53750962197036 L29.663121446136312,28.951713698359136 L29.258715967343107,29.36034808959746 L28.848681742785757,29.763334183243778 L28.433097654203525,30.160594453467155 L28.01204365100981,30.552052475961553 L27.585600734911587,30.937632942648225 L27.1538509443264,31.317261676163376 L26.716877338599975,31.69086564412828 L26.274763982027377,32.05837297319912 L25.827595927680854,32.41971296289389 L25.375459201047462,32.77481609919363 L24.91844078347962,33.12361406791544 L24.456628595461776,33.466039767854625 L23.990111479696388,33.80202732369355 L23.518979184012522,34.13151209867461 L23.043322344100293,34.454430707034966 L22.563232466074524,34.77072102620056 L22.078801908870947,35.08032220873722 L21.5901238664783,35.38317469405634 L21.09729235000988,35.67922021987308 L20.60040216961776,35.96840183341474 L20.09954891625342,36.2506639023773 L19.59482894327807,36.52595212562784 L19.08633934792637,36.79421354365088 L18.574177952626997,37.055396548736724 L18.058443286183728,37.30945089490959 L17.539234564820628,37.55632770759391 L17.016651673094977,37.79597949301669 L16.49079514468165,38.02836014734436 L15.961766143032587,38.25342496555207 L15.429666441915163,38.471130650024065 L14.894598405833065,38.681435318883125 L14.356664970333604,38.8842985140478 L13.815969622205122,39.079681209015625 L13.272616379568365,39.26754581637102 L12.726709771865657,39.44785619501626 L12.178354819751661,39.62057765712427 L11.627657014889696,39.7856769748118 L11.074722299657413,39.943122386531755 L10.519657046765754,40.09288360318343 L9.96256803879515,40.2349318139395 L9.403562447652847,40.36923969178855 L8.842747813955352,40.49578139879228 L8.280232026339934,40.61453259105609 L7.716123300709172,40.725470423412375 L7.150530159412561,40.828573553815396 L6.583561410369143,40.92382214744709 L6.01532612613522,41.0111978805328 L5.445933622921138,41.0906839438664 L4.875493439561211,41.162265046044034 L4.304115316440813,41.22592741640583 L3.7319091743846937,41.28165880768511 L3.158985093510583,41.329448498364464 L2.5854532920521525,41.36928729473834 L2.0114241051554034,41.40116753268176 L1.4370079636525648,41.42508307912468 L0.8623153728175859,41.44102933323188 L0.28745689110730205,41.44900322728808 L-0.28745689110762457,41.449003227288074 L-0.8623153728179082,41.441029333231874 L-1.4370079636528872,41.42508307912467 L-2.011424105155725,41.40116753268175 L-2.5854532920524744,41.36928729473832 L-3.1589850935109043,41.32944849836444 L-3.731909174385015,41.28165880768508 L-4.304115316441134,41.2259274164058 L-4.875493439561532,41.16226504604399 L-5.4459336229214586,41.09068394386635 L-6.015326126135539,41.011197880532755 L-6.583561410369462,40.92382214744704 L-7.150530159412879,40.828573553815346 L-7.716123300709488,40.72547042341231 L-8.280232026340249,40.614532591056026 L-8.842747813955667,40.49578139879221 L-9.403562447653162,40.36923969178848 L-9.962568038795462,40.23493181393942 L-10.519657046766065,40.092883603183346 L-11.074722299657724,39.94312238653167 L-11.627657014890005,39.78567697481171 L-12.178354819751966,39.62057765712417 L-12.726709771865963,39.44785619501616 L-13.272616379568673,39.26754581637091 L-13.815969622205424,39.07968120901552 L-14.356664970333906,38.884298514047686 L-14.894598405833365,38.68143531888301 L-15.42966644191546,38.471130650023944 L-15.961766143032884,38.25342496555195 L-16.490795144681943,38.02836014734422 L-17.016651673095268,37.79597949301656 L-17.539234564820916,37.556327707593766 L-18.05844328618402,37.30945089490945 L-18.574177952627284,37.05539654873658 L-19.086339347926657,36.794213543650734 L-19.594828943278355,36.52595212562768 L-20.0995489162537,36.25066390237715 L-20.60040216961804,35.96840183341458 L-21.097292350010154,35.67922021987291 L-21.590123866478578,35.38317469405617 L-22.078801908871217,35.08032220873705 L-22.563232466074798,34.770721026200384 L-23.04332234410056,34.45443070703478 L-23.518979184012785,34.13151209867443 L-23.99011147969665,33.802027323693366 L-24.456628595462035,33.46603976785443 L-24.91844078347988,33.12361406791525 L-25.37545920104772,32.77481609919343 L-25.827595927681106,32.41971296289368 L-26.274763982027626,32.05837297319891 L-26.71687733860022,31.690865644128074 L-27.153850944326642,31.317261676163167 L-27.585600734911825,30.937632942648012 L-28.01204365101005,30.552052475961336 L-28.43309765420376,30.160594453466935 L-28.848681742785985,29.763334183243554 L-29.25871596734334,29.360348089597235 L-29.663121446136536,28.95171369835891 L-30.061820380275556,28.537509621970127 L-30.454736068686454,28.11781554435971 L-30.841792922867025,27.69271220561428 L-31.222916481428356,27.2622813864456 L-31.598033424419615,26.826605892457767 L-31.96707158743326,26.38576953821712 L-32.329959975487846,25.939857131128218 L-32.68662877668597,25.488954455118673 L-33.03700937564458,25.033148254136197 L-33.38103436669506,24.5725262154609 L-33.718637566850674,24.107176952836195 L-34.04975402853871,23.637189989421383 L-34.37432005209498,23.162655740569377 L-34.69227319801832,22.683665496432685 L-35.00355229898253,22.200311404401198 L-35.3080974716037,21.712686451374992 L-35.60585012796048,21.22088444587567 L-35.89675298686508,20.724999999999618 L-36.18075008488301,20.22512851121668 L-36.45778678709917,19.72136614401775 L-36.72780979762846,19.21380981141479 L-36.990767169868775,18.70255715629685 L-37.24660831649439,18.187706532645716 L-37.49528401918785,17.669356986614677 L-37.73674643810856,17.14760823747422 L-37.970949121096105,16.622560658428178 L-38.19784701260664,16.094315257304096 L-38.41739646238064,15.562973657121493 L-38.629555233840215,15.028638076541801 L-38.83428251221457,14.491411310203693 L-39.031538912391866,13.951396708947609 L-39.221286486496034,13.408698159933284 L-39.40348873118718,12.863420066654104 L-39.57811059468402,12.315667328852124 L-39.74511848350706,11.76554532233762 L-39.9044802689413,11.21315987871706 L-40.05616529321708,10.658617265033378 L-40.200144375407966,10.102024163322493 L-40.336389817044555,9.543487650089991 L-40.46487540744307,8.983115175711907 L-40.58557642874767,8.42101454376359 L-40.69846966068572,7.857293890280629 L-40.803533385034775,7.292061662955809 L-40.90074738980079,6.72542660027611 L-40.99009297310641,6.157497710603775 L-41.07155294678881,5.588384251205446 L-41.145111639706386,5.018195707233429 L-41.21075490075347,4.447041770663105 L-41.26847010158272,3.8750323191905696 L-41.31824613903459,3.302277395094528 L-41.36007343727325,2.7288871840665356 L-41.39394394962887,2.1549719940136494 L-41.41985116014552,1.5806422338375656 L-41.437790084834816,1.0060083921943292 L-41.44775727263461,0.4311810162386989 L-41.449750806073006,-0.14372930964273986 L-41.44377030163717,-0.7186119851056252 L-41.42981690984714,-1.293356415124939 L-41.407893315034485,-1.8678520312711049 L-41.378003734825896,-2.4419883129809667 L-41.340153919331804,-3.0156548088195643 L-41.2943511500402,-3.588741157728603 L-41.240604238415806,-4.161137110257542 L-41.17892352420494,-4.7327325497732105 L-41.10932087344643,-5.303417513643873 L-41.031809676188736,-5.8730822143936665 L-40.9464048439141,-6.441617060823342 L-40.85312280666986,-7.008912679093248 L-40.75198150990762,-7.574859933764499 L-40.643000411031004,-8.139349948794274 L-40.526200475652416,-8.702274128481228 L-40.40160417355975,-9.263524178356954 L-40.26923547439364,-9.822992126019503 L-40.12911984303628,-10.380570341904951 L-39.98128423471247,-10.936151559993 L-39.82575708980404,-11.489628898442648 L-39.66256832837855,-12.040895880153947 L-39.49174934443327,-12.589846453251905 L-39.31333299985572,-13.136375011488576 L-39.12735361810165,-13.68037641455942 L-38.93384697759206,-14.22174600833004 L-38.73285030483014,-14.760379644969369 L-38.52440226723969,-15.29617370298547 L-38.30854296572636,-15.829025107160078 L-38.08531392696312,-16.358831348378047 L-37.85475809540137,-16.88549050334788 L-37.61691982500942,-17.40890125420961 L-37.37184487073968,-17.92896290802611 L-37.119580379726436,-18.445575416154306 L-36.86017488221575,-18.958639393492327 L-36.593678282229284,-19.468056137599078 L-36.32014184796383,-19.973727647682466 L-36.03961820192844,-20.47555664345262 L-35.75216131082097,-20.97344658383654 L-35.45782647514608,-21.467301685550495 L-35.156670318576545,-21.957026941526678 L-34.84875077706017,-22.44252813919051 L-34.534127087674094,-22.923711878585113 L-34.2128597772289,-23.40048559033942 L-33.88501065062452,-23.872757553476575 L-33.55064277896035,-24.340436913059015 L-33.20982048740169,-24.80343369766705 L-32.86260934280501,-25.26165883670738 L-32.50907614110424,-25.715024177548383 L-32.14928889446077,-26.163442502478777 L-31.78331681817927,-26.606827545486407 L-31.411230317392235,-27.045094008853997 L-31.03310097351553,-27.47815757956856 L-30.64900153047767,-27.905934945541414 L-30.25900588072544,-28.32834381163564 L-29.863189051008625,-28.74530291549788 L-29.46162718794644,-29.15673204319146 L-29.054397543378588,-29.56255204462783 L-28.641578459503663,-29.962684848793316 L-28.223249353807798,-30.357053478768336 L-27.799490703786468,-30.745582066536045 L-27.37038403146234,-31.12819586757775 L-26.936011887702197,-31.504821275252134 L-26.49645783633595,-31.875385834955548 L-26.051806438080728,-32.23981825806079 L-25.602143234273257,-32.5980484356314 L-25.14755473041351,-32.950007451909194 L-24.68812837952297,-33.29562759757213 L-24.223952565320495,-33.634842382760134 L-23.755116585219238,-33.967586549866276 L-23.28171063314774,-34.293796086091 L-22.80382578219855,-34.61340823575673 L-22.32155396710776,-34.926361512380744 L-21.83498796656871,-35.23259571050386 L-21.34422138538339,-35.53205191727263 L-20.84934863645488,-35.824672523772946 L-20.350464922624365,-36.11040123611272 L-19.84766621835614,-36.38918308625161 L-19.341049251274203,-36.660964442575725 L-18.83071148355396,-36.92569302021514 L-18.316751093172574,-37.18331789110242 L-17.799266955021675,-37.43378949377006 L-17.278358621885943,-37.677059642885034 L-16.754126305291294,-37.91308153851864 L-16.226670856226367,-38.14180977514977 L-15.696093745740946,-38.36320035039997 L-15.162497045425141,-38.577210673498556 L-14.625983407773,-38.78379957347611 L-14.086656046434385,-38.982927307084964 L-13.544618716358897,-39.17455556644487 L-12.999975693835665,-39.35864748641268 L-12.452831756432833,-39.535167651674314 L-11.903292162840609,-39.704082103557994 L-11.351462632621779,-39.86535834656712 L-10.797449325873531,-40.018965354631675 L-10.241358822804553,-40.16487357707703 L-9.68329810323129,-40.30305494430881 L-9.123374525997338,-40.433482873212895 L-8.561695808319929,-40.55613227226944 L-7.998370005067442,-40.67097954637993 L-7.433505487971995,-40.778002601406406 L-6.867210924781054,-40.877180848421844 L-6.299595258352106,-40.96849520767105 L-5.730767685694397,-41.05192811224119 L-5.160837636961791,-41.12746351144131 L-4.589914754400764,-41.1950868738901 L-4.018108871257603,-41.25478519031142 L-3.445529990648856,-41.30654697603707 L-2.872288264399113,-41.3503622732161 L-2.298493971850161,-41.38622265273054 L-1.7242574986456252,-41.414121215816984 L-1.1496893154951486,-41.43405259539374 L-0.574899956922213,-41.44601295709334 L3.205432289680831e-13,-41.450000000000216 " />

       </g>
    </g>
    
</svg>
