<?xml version="1.0" encoding="UTF-8" standalone="no"?>
<svg
   xmlns:svg="http://www.w3.org/2000/svg"
   xmlns="http://www.w3.org/2000/svg"
   width="800.0"
   height="800.0000000000019"

>
    <g transform="scale(9.454545454545455, -9.454545454545455)   translate(42.30769230769231,-42.30769230769231)" stroke-width="0.5"  fill="none">
       <!-- hidden lines -->
       <g  stroke="rgb(127,127,127)" fill="none" stroke-dasharray="0.5,0.5" >

       </g>

       <!-- solid lines -->
       <g  stroke="rgb(10,10,10)" fill="none">
			<path d="M0.0,-41.25 L0.5733916966929993,-41.24601461913822 L1.1466725965717293,-41.234059246650354 L1.7197319242312537,-41.21413619268005 L2.2924589470811676,-41.18624930697074 L2.8647429967425175,-41.15040397812171 L3.4364734904323218,-41.106607132546905 L4.007539952331542,-41.05486723313652 L4.577832034932394,-40.9951942776217 L5.147239540360857,-40.927599796642674 L5.715652441670284,-40.85209685152071 L6.282960904101958,-40.76870003173423 L6.849055306308539,-40.67742545209968 L7.413826261536258,-40.5782907496577 L7.97716463876178,-40.47131508026504 L8.53896158377966,-40.35651911489314 L9.099108540236303,-40.23392503563378 L9.657497270606374,-40.1035565314129 L10.214019877107596,-39.96543879341313 L10.768568822549906,-39.81959851020608 L11.321036951114921,-39.66606386259532 L11.871317509061727,-39.50486451817098 L12.419304165354973,-39.336031625577036 L12.964891032211257,-39.15959780849247 L13.507972685559915,-38.975597159327364 L14.048444185414144,-38.784065232635214 L14.586201096148647,-38.585039038242684 L15.12113950667977,-38.3785570340982 L15.653156050544311,-38.16465911884067 L16.18214792587308,-37.94338662408986 L16.708012915255356,-37.71478230645989 L17.23064940549044,-37.478890339297294 L17.74995640722241,-37.235756304145404 L18.265833574454366,-36.985427181936615 L18.778181223938336,-36.727951343914214 L19.286900354437144,-36.463378542285575 L19.791892665854466,-36.19175990060854 L20.293060578229415,-35.91314790391273 L20.790307250591976,-35.62759638855788 L21.283536599675646,-35.335160531831 L21.772653318483666,-35.0358968412844 L22.25756289470522,-34.72986314381676 L22.738171628978147,-34.417118574499135 L23.214386652994488,-34.09772356514832 L23.6861159474455,-33.771739832649544 L24.153268359802606,-33.43923036703085 L24.61575362193083,-33.100259419291554 L25.07348236753138,-32.75489248898694 L25.526366149409956,-32.40319631157176 L25.974317456567427,-32.04523884550491 L26.41724973110966,-31.68108925911776 L26.855077384973143,-31.31081791724873 L27.287715816463198,-30.934496367646652 L27.715081426601664,-30.552197327145546 L28.13709163528072,-30.163994667613505 L28.553664897219917,-29.769963401678396 L28.96472071772323,-29.370179668233128 L29.370179668233078,-28.964720717723285 L29.769963401678343,-28.553664897219974 L30.163994667613455,-28.137091635280772 L30.552197327145496,-27.71508142660172 L30.934496367646602,-27.28771581646326 L31.31081791724868,-26.855077384973196 L31.68108925911771,-26.417249731109717 L32.045238845504855,-25.974317456567483 L32.40319631157171,-25.526366149410016 L32.7548924889869,-25.073482367531444 L33.10025941929151,-24.615753621930892 L33.43923036703081,-24.15326835980267 L33.7717398326495,-23.68611594744557 L34.097723565148286,-23.214386652994552 L34.41711857449909,-22.73817162897821 L34.729863143816715,-22.257562894705284 L35.03589684128436,-21.77265331848373 L35.33516053183096,-21.28353659967571 L35.62759638855784,-20.79030725059204 L35.913147903912694,-20.29306057822948 L36.1917599006085,-19.791892665854533 L36.46337854228554,-19.286900354437215 L36.72795134391418,-18.778181223938404 L36.98542718193658,-18.265833574454433 L37.23575630414537,-17.74995640722248 L37.478890339297266,-17.23064940549051 L37.71478230645987,-16.708012915255424 L37.94338662408983,-16.18214792587315 L38.16465911884064,-15.65315605054438 L38.378557034098165,-15.12113950667984 L38.585039038242655,-14.586201096148718 L38.784065232635186,-14.048444185414215 L38.97559715932734,-13.507972685559986 L39.15959780849244,-12.964891032211332 L39.336031625577014,-12.419304165355044 L39.504864518170955,-11.871317509061802 L39.6660638625953,-11.321036951114994 L39.819598510206056,-10.768568822549978 L39.96543879341311,-10.21401987710767 L40.103556531412885,-9.657497270606447 L40.23392503563377,-9.099108540236378 L40.356519114893125,-8.538961583779736 L40.47131508026503,-7.977164638761858 L40.57829074965768,-7.413826261536337 L40.67742545209967,-6.849055306308619 L40.76870003173421,-6.2829609041020404 L40.852096851520706,-5.715652441670367 L40.92759979664267,-5.147239540360942 L40.99519427762169,-4.577832034932478 L41.054867233136505,-4.007539952331628 L41.10660713254689,-3.4364734904324097 L41.150403978121695,-2.8647429967426064 L41.18624930697073,-2.2924589470812577 L41.21413619268005,-1.719731924231345 L41.23405924665035,-1.1466725965718212 L41.246014619138215,-0.5733916966930923 L41.25,-9.411923355481683e-14 L41.24601461913822,0.5733916966929041 L41.234059246650354,1.1466725965716331 L41.21413619268006,1.7197319242311568 L41.186249306970744,2.2924589470810695 L41.15040397812171,2.8647429967424185 L41.10660713254691,3.436473490432222 L41.05486723313653,4.007539952331441 L40.99519427762171,4.577832034932291 L40.92759979664269,5.147239540360755 L40.85209685152073,5.71565244167018 L40.76870003173424,6.282960904101854 L40.6774254520997,6.8490553063084345 L40.57829074965772,7.413826261536151 L40.471315080265065,7.977164638761672 L40.35651911489316,8.538961583779551 L40.23392503563381,9.099108540236195 L40.10355653141293,9.657497270606266 L39.965438793413156,10.214019877107487 L39.819598510206106,10.768568822549796 L39.66606386259535,11.321036951114811 L39.50486451817101,11.87131750906162 L39.33603162557707,12.419304165354866 L39.15959780849251,12.964891032211153 L38.9755971593274,13.507972685559807 L38.78406523263525,14.048444185414038 L38.585039038242726,14.586201096148542 L38.37855703409824,15.121139506679667 L38.16465911884071,15.653156050544206 L37.94338662408991,16.182147925872975 L37.71478230645994,16.708012915255253 L37.478890339297344,17.23064940549034 L37.23575630414545,17.74995640722231 L36.985427181936664,18.265833574454263 L36.72795134391426,18.778181223938237 L36.46337854228563,19.286900354437048 L36.191759900608595,19.79189266585437 L35.91314790391279,20.29306057822932 L35.62759638855794,20.79030725059188 L35.33516053183106,21.28353659967555 L35.03589684128446,21.77265331848357 L34.729863143816814,22.25756289470512 L34.4171185744992,22.738171628978055 L34.097723565148385,23.214386652994396 L33.77173983264961,23.686115947445412 L33.439230367030916,24.153268359802514 L33.10025941929162,24.61575362193074 L32.75489248898701,25.07348236753129 L32.403196311571826,25.526366149409863 L32.045238845504976,25.974317456567338 L31.68108925911783,26.417249731109575 L31.310817917248805,26.855077384973054 L30.934496367646727,27.287715816463116 L30.552197327145624,27.715081426601582 L30.163994667613583,28.137091635280637 L29.76996340167847,28.553664897219836 L29.370179668233206,28.96472071772315 L28.964720717723363,29.370179668232996 L28.553664897220052,29.769963401678265 L28.137091635280854,30.163994667613377 L27.715081426601802,30.552197327145418 L27.28771581646334,30.93449636764653 L26.855077384973285,31.310817917248606 L26.417249731109806,31.681089259117634 L25.974317456567572,32.04523884550479 L25.5263661494101,32.40319631157164 L25.07348236753153,32.754892488986826 L24.615753621930978,33.10025941929144 L24.15326835980276,33.43923036703074 L23.686115947445657,33.77173983264944 L23.214386652994644,34.09772356514822 L22.7381716289783,34.41711857449903 L22.25756289470538,34.72986314381665 L21.77265331848382,35.035896841284305 L21.283536599675806,35.3351605318309 L20.790307250592136,35.62759638855779 L20.29306057822958,35.91314790391264 L19.791892665854633,36.191759900608446 L19.286900354437314,36.46337854228549 L18.778181223938503,36.72795134391413 L18.265833574454533,36.98542718193653 L17.74995640722258,37.23575630414532 L17.230649405490613,37.478890339297216 L16.708012915255527,37.71478230645982 L16.182147925873252,37.94338662408979 L15.653156050544485,38.164659118840596 L15.121139506679947,38.37855703409813 L14.586201096148823,38.58503903824262 L14.048444185414322,38.78406523263515 L13.507972685560091,38.97559715932731 L12.964891032211437,39.15959780849241 L12.419304165355152,39.33603162557698 L11.871317509061909,39.504864518170926 L11.321036951115103,39.66606386259527 L10.768568822550087,39.81959851020603 L10.214019877107779,39.96543879341308 L9.657497270606557,40.103556531412856 L9.099108540236488,40.23392503563374 L8.538961583779846,40.356519114893096 L7.977164638761967,40.47131508026501 L7.413826261536448,40.57829074965766 L6.84905530630873,40.67742545209965 L6.2829609041021515,40.7687000317342 L5.715652441670478,40.852096851520685 L5.147239540361053,40.92759979664265 L4.57783203493259,40.99519427762168 L4.00753995233174,41.0548672331365 L3.436473490432521,41.106607132546884 L2.8647429967427187,41.150403978121695 L2.2924589470813697,41.18624930697072 L1.7197319242314573,41.214136192680044 L1.1466725965719338,41.23405924665035 L0.5733916966932048,41.246014619138215 L2.0655714701594874e-13,41.25 L-0.5733916966927918,41.24601461913822 L-1.1466725965715208,41.23405924665036 L-1.7197319242310445,41.21413619268006 L-2.2924589470809575,41.18624930697075 L-2.8647429967423066,41.15040397812172 L-3.4364734904321095,41.10660713254692 L-4.007539952331329,41.054867233136534 L-4.57783203493218,40.99519427762172 L-5.147239540360643,40.9275997966427 L-5.715652441670069,40.85209685152074 L-6.282960904101743,40.76870003173426 L-6.8490553063083235,40.67742545209972 L-7.413826261536042,40.57829074965773 L-7.977164638761562,40.471315080265086 L-8.538961583779441,40.35651911489318 L-9.099108540236085,40.23392503563383 L-9.657497270606155,40.103556531412956 L-10.21401987710738,39.965438793413185 L-10.768568822549689,39.819598510206134 L-11.321036951114703,39.66606386259539 L-11.871317509061512,39.50486451817105 L-12.419304165354758,39.33603162557711 L-12.964891032211046,39.159597808492535 L-13.507972685559702,38.975597159327435 L-14.048444185413933,38.78406523263529 L-14.586201096148436,38.58503903824276 L-15.121139506679562,38.378557034098286 L-15.653156050544103,38.16465911884075 L-16.182147925872872,37.94338662408995 L-16.70801291525515,37.71478230645998 L-17.230649405490237,37.478890339297386 L-17.749956407222207,37.235756304145504 L-18.265833574454163,36.985427181936714 L-18.778181223938134,36.72795134391431 L-19.286900354436945,36.46337854228568 L-19.79189266585427,36.191759900608645 L-20.29306057822922,35.913147903912844 L-20.79030725059178,35.627596388558 L-21.283536599675454,35.335160531831114 L-21.77265331848347,35.03589684128452 L-22.257562894705032,34.72986314381688 L-22.73817162897796,34.41711857449926 L-23.2143866529943,34.09772356514845 L-23.68611594744532,33.77173983264967 L-24.15326835980242,33.43923036703099 L-24.615753621930647,33.10025941929169 L-25.0734823675312,32.754892488987075 L-25.526366149409778,32.4031963115719 L-25.974317456567253,32.04523884550505 L-26.41724973110949,31.6810892591179 L-26.85507738497297,31.31081791724888 L-27.287715816463034,30.934496367646805 L-27.715081426601497,30.552197327145695 L-28.13709163528055,30.163994667613657 L-28.553664897219754,29.76996340167855 L-28.964720717723072,29.370179668233288 L-29.370179668232918,28.96472071772345 L-29.76996340167819,28.553664897220134 L-30.1639946676133,28.13709163528094 L-30.552197327145343,27.715081426601884 L-30.934496367646457,27.28771581646343 L-31.31081791724855,26.855077384973352 L-31.681089259117577,26.417249731109877 L-32.04523884550473,25.974317456567643 L-32.403196311571584,25.526366149410176 L-32.75489248898676,25.073482367531604 L-33.10025941929139,24.615753621931056 L-33.43923036703069,24.153268359802833 L-33.77173983264938,23.686115947445735 L-34.097723565148165,23.214386652994722 L-34.41711857449898,22.738171628978385 L-34.7298631438166,22.25756289470546 L-35.035896841284256,21.772653318483904 L-35.33516053183085,21.28353659967589 L-35.62759638855774,20.790307250592218 L-35.91314790391259,20.29306057822966 L-36.1917599006084,19.791892665854714 L-36.46337854228545,19.286900354437396 L-36.72795134391408,18.77818122393859 L-36.98542718193649,18.265833574454618 L-37.23575630414528,17.749956407222665 L-37.47889033929717,17.2306494054907 L-37.714782306459774,16.708012915255615 L-37.943386624089754,16.182147925873338 L-38.16465911884056,15.653156050544572 L-38.378557034098094,15.121139506680034 L-38.585039038242584,14.58620109614891 L-38.784065232635115,14.048444185414409 L-38.97559715932727,13.50797268556018 L-39.15959780849238,12.964891032211526 L-39.33603162557695,12.419304165355241 L-39.5048645181709,11.871317509061997 L-39.666063862595244,11.321036951115191 L-39.819598510206006,10.76856882255018 L-39.96543879341306,10.21401987710787 L-40.103556531412835,9.65749727060665 L-40.23392503563372,9.099108540236578 L-40.356519114893075,8.538961583779937 L-40.471315080264986,7.97716463876206 L-40.57829074965765,7.413826261536539 L-40.677425452099634,6.8490553063088235 L-40.768700031734184,6.282960904102244 L-40.85209685152067,5.715652441670571 L-40.92759979664264,5.147239540361147 L-40.995194277621664,4.577832034932684 L-41.05486723313649,4.007539952331833 L-41.10660713254688,3.436473490432615 L-41.15040397812168,2.8647429967428124 L-41.18624930697072,2.292458947081464 L-41.214136192680044,1.7197319242315514 L-41.23405924665035,1.1466725965720277 L-41.246014619138215,0.5733916966932989 L-41.25,3.006763805707656e-13 L-41.24601461913822,-0.5733916966926976 L-41.23405924665036,-1.1466725965714266 L-41.214136192680066,-1.7197319242309506 L-41.18624930697075,-2.2924589470808634 L-41.15040397812172,-2.8647429967422124 L-41.10660713254693,-3.4364734904320158 L-41.05486723313655,-4.007539952331236 L-40.99519427762173,-4.5778320349320865 L-40.92759979664272,-5.14723954036055 L-40.852096851520756,-5.715652441669976 L-40.76870003173428,-6.28296090410165 L-40.67742545209973,-6.84905530630823 L-40.578290749657754,-7.413826261535949 L-40.4713150802651,-7.97716463876147 L-40.3565191148932,-8.538961583779349 L-40.23392503563385,-9.099108540235992 L-40.10355653141298,-9.657497270606063 L-39.965438793413206,-10.214019877107289 L-39.81959851020616,-10.768568822549597 L-39.66606386259541,-11.321036951114614 L-39.50486451817107,-11.871317509061424 L-39.336031625577135,-12.419304165354669 L-39.15959780849257,-12.964891032210955 L-38.97559715932747,-13.507972685559611 L-38.78406523263532,-14.048444185413844 L-38.5850390382428,-14.586201096148349 L-38.378557034098314,-15.121139506679475 L-38.16465911884079,-15.653156050544016 L-37.94338662408999,-16.182147925872783 L-37.71478230646002,-16.708012915255065 L-37.47889033929743,-17.23064940549015 L-37.23575630414554,-17.749956407222122 L-36.98542718193676,-18.26583357445408 L-36.727951343914356,-18.778181223938052 L-36.463378542285724,-19.286900354436863 L-36.191759900608695,-19.79189266585419 L-35.913147903912886,-20.293060578229138 L-35.62759638855805,-20.790307250591702 L-35.335160531831164,-21.283536599675372 L-35.03589684128457,-21.77265331848339 L-34.72986314381693,-22.257562894704954 L-34.41711857449931,-22.73817162897788 L-34.0977235651485,-23.21438665299422 L-33.77173983264973,-23.68611594744524 L-33.43923036703104,-24.153268359802347 L-33.100259419291746,-24.61575362193057 L-32.75489248898713,-25.073482367531128 L-32.40319631157195,-25.526366149409704 L-32.04523884550511,-25.974317456567178 L-31.68108925911796,-26.417249731109415 L-31.310817917248936,-26.8550773849729 L-30.934496367646865,-27.28771581646296 L-30.552197327145763,-27.715081426601426 L-30.16399466761372,-28.137091635280484 L-29.769963401678613,-28.553664897219686 L-29.37017966823335,-28.964720717723004 L-28.964720717723512,-29.370179668232854 L-28.5536648972202,-29.769963401678126 L-28.137091635281006,-30.163994667613235 L-27.71508142660196,-30.55219732714528 L-27.287715816463496,-30.934496367646393 L-26.85507738497344,-31.310817917248475 L-26.417249731109965,-31.681089259117506 L-25.974317456567732,-32.045238845504656 L-25.52636614941026,-32.40319631157151 L-25.073482367531696,-32.7548924889867 L-24.615753621931148,-33.10025941929132 L-24.153268359802926,-33.439230367030625 L-23.686115947445828,-33.77173983264932 L-23.214386652994815,-34.0977235651481 L-22.738171628978474,-34.417118574498915 L-22.257562894705554,-34.729863143816544 L-21.772653318484,-35.03589684128419 L-21.283536599675987,-35.335160531830795 L-20.790307250592317,-35.627596388557684 L-20.29306057822976,-35.91314790391253 L-19.791892665854814,-36.191759900608346 L-19.286900354437496,-36.46337854228539 L-18.778181223938688,-36.72795134391403 L-18.265833574454717,-36.98542718193644 L-17.74995640722277,-37.235756304145234 L-17.2306494054908,-37.47889033929712 L-16.70801291525572,-37.71478230645973 L-16.18214792587344,-37.943386624089705 L-15.653156050544675,-38.16465911884052 L-15.121139506680139,-38.37855703409805 L-14.586201096149017,-38.58503903824254 L-14.048444185414514,-38.78406523263508 L-13.507972685560288,-38.975597159327236 L-12.964891032211634,-39.15959780849234 L-12.41930416535535,-39.336031625576915 L-11.871317509062106,-39.50486451817086 L-11.321036951115298,-39.666063862595216 L-10.768568822550286,-39.81959851020598 L-10.21401987710798,-39.96543879341303 L-9.657497270606758,-40.10355653141281 L-9.099108540236688,-40.233925035633696 L-8.538961583780047,-40.356519114893054 L-7.9771646387621695,-40.471315080264965 L-7.41382626153665,-40.578290749657626 L-6.8490553063089346,-40.67742545209961 L-6.282960904102355,-40.76870003173416 L-5.715652441670683,-40.852096851520656 L-5.147239540361258,-40.927599796642625 L-4.577832034932795,-40.99519427762165 L-4.007539952331946,-41.05486723313648 L-3.436473490432727,-41.10660713254687 L-2.8647429967429248,-41.15040397812168 L-2.2924589470815757,-41.186249306970716 L-1.7197319242316635,-41.21413619268004 L-1.1466725965721403,-41.23405924665034 L-0.5733916966934114,-41.24601461913821 L-4.131142940318975e-13,-41.25 " />
			<path d="M1.7225278442669098e-15,-41.2500000000002 L0.573391696693001,-41.24601461913842 L1.146672596571731,-41.23405924665055 L1.7197319242312554,-41.21413619268025 L2.2924589470811694,-41.186249306970936 L2.8647429967425193,-41.15040397812191 L3.4364734904323235,-41.106607132547104 L4.007539952331544,-41.05486723313672 L4.5778320349323955,-40.9951942776219 L5.147239540360859,-40.92759979664287 L5.715652441670286,-40.85209685152091 L6.28296090410196,-40.768700031734426 L6.849055306308541,-40.67742545209988 L7.41382626153626,-40.578290749657896 L7.977164638761781,-40.47131508026524 L8.538961583779662,-40.35651911489334 L9.099108540236305,-40.23392503563398 L9.657497270606376,-40.1035565314131 L10.214019877107598,-39.96543879341333 L10.768568822549907,-39.819598510206276 L11.321036951114923,-39.66606386259552 L11.87131750906173,-39.50486451817118 L12.419304165354975,-39.336031625577235 L12.96489103221126,-39.15959780849267 L13.507972685559917,-38.97559715932756 L14.048444185414146,-38.78406523263541 L14.586201096148649,-38.58503903824288 L15.121139506679771,-38.3785570340984 L15.653156050544313,-38.164659118840866 L16.18214792587308,-37.94338662409006 L16.708012915255356,-37.71478230646009 L17.23064940549044,-37.47889033929749 L17.74995640722241,-37.2357563041456 L18.265833574454366,-36.985427181936814 L18.778181223938336,-36.72795134391441 L19.286900354437144,-36.463378542285774 L19.791892665854466,-36.19175990060874 L20.293060578229415,-35.91314790391293 L20.790307250591976,-35.62759638855808 L21.283536599675646,-35.3351605318312 L21.772653318483666,-35.0358968412846 L22.25756289470522,-34.72986314381696 L22.738171628978147,-34.417118574499334 L23.214386652994488,-34.09772356514852 L23.6861159474455,-33.77173983264974 L24.153268359802606,-33.43923036703105 L24.61575362193083,-33.10025941929175 L25.07348236753138,-32.75489248898714 L25.526366149409956,-32.40319631157196 L25.974317456567427,-32.04523884550511 L26.41724973110966,-31.681089259117954 L26.855077384973143,-31.310817917248926 L27.287715816463198,-30.934496367646847 L27.715081426601664,-30.55219732714574 L28.13709163528072,-30.1639946676137 L28.553664897219917,-29.76996340167859 L28.96472071772323,-29.370179668233323 L29.370179668233078,-28.96472071772348 L29.769963401678343,-28.55366489722017 L30.163994667613455,-28.137091635280967 L30.552197327145496,-27.715081426601916 L30.934496367646602,-27.287715816463454 L31.31081791724868,-26.85507738497339 L31.68108925911771,-26.417249731109912 L32.045238845504855,-25.97431745656768 L32.40319631157171,-25.52636614941021 L32.7548924889869,-25.07348236753164 L33.10025941929151,-24.615753621931088 L33.43923036703081,-24.153268359802865 L33.7717398326495,-23.686115947445764 L34.097723565148286,-23.214386652994747 L34.41711857449909,-22.738171628978407 L34.729863143816715,-22.25756289470548 L35.03589684128436,-21.772653318483925 L35.33516053183096,-21.283536599675905 L35.62759638855784,-20.790307250592235 L35.913147903912694,-20.293060578229674 L36.1917599006085,-19.79189266585473 L36.46337854228554,-19.28690035443741 L36.72795134391418,-18.7781812239386 L36.98542718193658,-18.26583357445463 L37.23575630414537,-17.749956407222676 L37.478890339297266,-17.230649405490706 L37.71478230645987,-16.70801291525562 L37.94338662408983,-16.182147925873345 L38.16465911884064,-15.653156050544576 L38.378557034098165,-15.121139506680036 L38.585039038242655,-14.586201096148914 L38.784065232635186,-14.04844418541441 L38.97559715932734,-13.507972685560182 L39.15959780849244,-12.964891032211527 L39.336031625577014,-12.41930416535524 L39.504864518170955,-11.871317509061997 L39.6660638625953,-11.32103695111519 L39.819598510206056,-10.768568822550174 L39.96543879341311,-10.214019877107866 L40.103556531412885,-9.657497270606642 L40.23392503563377,-9.099108540236573 L40.356519114893125,-8.538961583779932 L40.47131508026503,-7.977164638762053 L40.57829074965768,-7.413826261536532 L40.67742545209967,-6.849055306308815 L40.76870003173421,-6.282960904102236 L40.852096851520706,-5.715652441670563 L40.92759979664267,-5.147239540361137 L40.99519427762169,-4.5778320349326735 L41.054867233136505,-4.007539952331824 L41.10660713254689,-3.4364734904326055 L41.150403978121695,-2.864742996742802 L41.18624930697073,-2.2924589470814536 L41.21413619268005,-1.7197319242315405 L41.23405924665035,-1.1466725965720168 L41.246014619138215,-0.573391696693288 L41.25,-2.897983966635378e-13 L41.24601461913822,0.5733916966927084 L41.234059246650354,1.1466725965714375 L41.21413619268006,1.7197319242309612 L41.186249306970744,2.2924589470808736 L41.15040397812171,2.8647429967422227 L41.10660713254691,3.436473490432026 L41.05486723313653,4.007539952331245 L40.99519427762171,4.577832034932095 L40.92759979664269,5.14723954036056 L40.85209685152073,5.7156524416699845 L40.76870003173424,6.2829609041016585 L40.6774254520997,6.849055306308239 L40.57829074965772,7.413826261535956 L40.471315080265065,7.977164638761477 L40.35651911489316,8.538961583779356 L40.23392503563381,9.099108540236 L40.10355653141293,9.65749727060607 L39.965438793413156,10.214019877107292 L39.819598510206106,10.7685688225496 L39.66606386259535,11.321036951114616 L39.50486451817101,11.871317509061425 L39.33603162557707,12.41930416535467 L39.15959780849251,12.964891032210957 L38.9755971593274,13.507972685559611 L38.78406523263525,14.048444185413842 L38.585039038242726,14.586201096148347 L38.37855703409824,15.121139506679471 L38.16465911884071,15.65315605054401 L37.94338662408991,16.18214792587278 L37.71478230645994,16.708012915255058 L37.478890339297344,17.230649405490144 L37.23575630414545,17.749956407222115 L36.985427181936664,18.265833574454067 L36.72795134391426,18.77818122393804 L36.46337854228563,19.286900354436852 L36.191759900608595,19.791892665854174 L35.91314790391279,20.293060578229124 L35.62759638855794,20.790307250591685 L35.33516053183106,21.283536599675354 L35.03589684128446,21.772653318483375 L34.729863143816814,22.257562894704925 L34.4171185744992,22.73817162897786 L34.097723565148385,23.2143866529942 L33.77173983264961,23.686115947445217 L33.439230367030916,24.15326835980232 L33.10025941929162,24.615753621930544 L32.75489248898701,25.073482367531096 L32.403196311571826,25.526366149409668 L32.045238845504976,25.974317456567142 L31.68108925911783,26.41724973110938 L31.310817917248805,26.85507738497286 L30.934496367646727,27.28771581646292 L30.552197327145624,27.715081426601387 L30.163994667613583,28.13709163528044 L29.76996340167847,28.55366489721964 L29.370179668233206,28.964720717722955 L28.964720717723363,29.3701796682328 L28.553664897220052,29.76996340167807 L28.137091635280854,30.16399466761318 L27.715081426601802,30.552197327145223 L27.28771581646334,30.934496367646336 L26.855077384973285,31.31081791724841 L26.417249731109806,31.68108925911744 L25.974317456567572,32.04523884550459 L25.5263661494101,32.40319631157144 L25.07348236753153,32.75489248898663 L24.615753621930978,33.10025941929124 L24.15326835980276,33.43923036703054 L23.686115947445657,33.77173983264924 L23.214386652994644,34.09772356514802 L22.7381716289783,34.41711857449883 L22.25756289470538,34.72986314381645 L21.77265331848382,35.03589684128411 L21.283536599675806,35.3351605318307 L20.790307250592136,35.62759638855759 L20.29306057822958,35.91314790391244 L19.791892665854633,36.19175990060825 L19.286900354437314,36.46337854228529 L18.778181223938503,36.72795134391393 L18.265833574454533,36.98542718193633 L17.74995640722258,37.23575630414512 L17.230649405490613,37.47889033929702 L16.708012915255527,37.71478230645962 L16.182147925873252,37.94338662408959 L15.653156050544487,38.1646591188404 L15.121139506679949,38.37855703409793 L14.586201096148825,38.58503903824242 L14.048444185414324,38.78406523263495 L13.507972685560093,38.97559715932711 L12.964891032211439,39.15959780849221 L12.419304165355154,39.33603162557678 L11.87131750906191,39.50486451817073 L11.321036951115104,39.666063862595074 L10.768568822550089,39.81959851020583 L10.21401987710778,39.96543879341288 L9.657497270606559,40.10355653141266 L9.09910854023649,40.23392503563354 L8.538961583779848,40.3565191148929 L7.977164638761969,40.47131508026481 L7.41382626153645,40.57829074965746 L6.849055306308732,40.67742545209945 L6.282960904102153,40.768700031734 L5.71565244167048,40.852096851520486 L5.1472395403610545,40.927599796642454 L4.577832034932592,40.99519427762148 L4.007539952331742,41.0548672331363 L3.436473490432523,41.106607132546685 L2.8647429967427205,41.150403978121496 L2.2924589470813714,41.186249306970524 L1.719731924231459,41.214136192679845 L1.1466725965719355,41.23405924665015 L0.5733916966932066,41.246014619138016 L2.0827967486021565e-13,41.2499999999998 L-0.57339169669279,41.24601461913802 L-1.146672596571519,41.23405924665016 L-1.7197319242310427,41.21413619267986 L-2.2924589470809558,41.18624930697055 L-2.864742996742305,41.150403978121524 L-3.4364734904321077,41.10660713254672 L-4.007539952331327,41.054867233136335 L-4.577832034932178,40.99519427762152 L-5.1472395403606415,40.927599796642504 L-5.715652441670067,40.85209685152054 L-6.282960904101741,40.76870003173406 L-6.849055306308322,40.67742545209952 L-7.41382626153604,40.57829074965753 L-7.97716463876156,40.47131508026489 L-8.53896158377944,40.35651911489298 L-9.099108540236083,40.23392503563363 L-9.657497270606154,40.10355653141276 L-10.214019877107377,39.965438793412986 L-10.768568822549687,39.819598510205935 L-11.321036951114701,39.66606386259519 L-11.87131750906151,39.50486451817085 L-12.419304165354756,39.33603162557691 L-12.964891032211044,39.159597808492336 L-13.5079726855597,38.975597159327236 L-14.048444185413931,38.78406523263509 L-14.586201096148434,38.58503903824256 L-15.12113950667956,38.37855703409809 L-15.653156050544101,38.164659118840554 L-16.182147925872872,37.943386624089754 L-16.70801291525515,37.71478230645978 L-17.230649405490237,37.47889033929719 L-17.749956407222207,37.235756304145305 L-18.265833574454163,36.985427181936515 L-18.778181223938134,36.727951343914114 L-19.286900354436945,36.46337854228548 L-19.79189266585427,36.191759900608446 L-20.29306057822922,35.913147903912645 L-20.79030725059178,35.6275963885578 L-21.283536599675454,35.335160531830915 L-21.77265331848347,35.03589684128432 L-22.257562894705032,34.72986314381668 L-22.73817162897796,34.417118574499064 L-23.2143866529943,34.09772356514825 L-23.68611594744532,33.77173983264947 L-24.15326835980242,33.43923036703079 L-24.615753621930647,33.10025941929149 L-25.0734823675312,32.754892488986876 L-25.526366149409778,32.4031963115717 L-25.974317456567253,32.04523884550485 L-26.41724973110949,31.681089259117705 L-26.85507738497297,31.310817917248684 L-27.287715816463034,30.93449636764661 L-27.715081426601497,30.5521973271455 L-28.13709163528055,30.163994667613462 L-28.553664897219754,29.769963401678353 L-28.964720717723072,29.370179668233092 L-29.370179668232918,28.964720717723253 L-29.76996340167819,28.55366489721994 L-30.1639946676133,28.137091635280743 L-30.552197327145343,27.71508142660169 L-30.934496367646457,27.287715816463233 L-31.31081791724855,26.855077384973157 L-31.681089259117577,26.41724973110968 L-32.04523884550473,25.974317456567448 L-32.403196311571584,25.52636614940998 L-32.75489248898676,25.07348236753141 L-33.10025941929139,24.61575362193086 L-33.43923036703069,24.153268359802638 L-33.77173983264938,23.68611594744554 L-34.097723565148165,23.214386652994527 L-34.41711857449898,22.73817162897819 L-34.7298631438166,22.257562894705263 L-35.035896841284256,21.77265331848371 L-35.33516053183085,21.283536599675696 L-35.62759638855774,20.790307250592022 L-35.91314790391259,20.293060578229465 L-36.1917599006084,19.79189266585452 L-36.46337854228545,19.2869003544372 L-36.72795134391408,18.778181223938393 L-36.98542718193649,18.265833574454422 L-37.23575630414528,17.74995640722247 L-37.47889033929717,17.230649405490503 L-37.714782306459774,16.70801291525542 L-37.943386624089754,16.182147925873142 L-38.16465911884056,15.653156050544377 L-38.378557034098094,15.121139506679839 L-38.585039038242584,14.586201096148715 L-38.784065232635115,14.048444185414214 L-38.97559715932727,13.507972685559984 L-39.15959780849238,12.96489103221133 L-39.33603162557695,12.419304165355046 L-39.5048645181709,11.871317509061802 L-39.666063862595244,11.321036951114996 L-39.819598510206006,10.768568822549984 L-39.96543879341306,10.214019877107674 L-40.103556531412835,9.657497270606454 L-40.23392503563372,9.099108540236383 L-40.356519114893075,8.538961583779741 L-40.471315080264986,7.977164638761865 L-40.57829074965765,7.413826261536344 L-40.677425452099634,6.849055306308628 L-40.768700031734184,6.282960904102048 L-40.85209685152067,5.715652441670375 L-40.92759979664264,5.147239540360951 L-40.995194277621664,4.577832034932489 L-41.05486723313649,4.007539952331638 L-41.10660713254688,3.436473490432419 L-41.15040397812168,2.8647429967426166 L-41.18624930697072,2.292458947081268 L-41.214136192680044,1.7197319242313558 L-41.23405924665035,1.146672596571832 L-41.246014619138215,0.5733916966931032 L-41.25,1.0499721746204464e-13 L-41.24601461913822,-0.5733916966928934 L-41.23405924665036,-1.1466725965716222 L-41.214136192680066,-1.7197319242311462 L-41.18624930697075,-2.2924589470810592 L-41.15040397812172,-2.8647429967424083 L-41.10660713254693,-3.4364734904322116 L-41.05486723313655,-4.007539952331431 L-40.99519427762173,-4.577832034932282 L-40.92759979664272,-5.147239540360745 L-40.852096851520756,-5.715652441670171 L-40.76870003173428,-6.282960904101845 L-40.67742545209973,-6.849055306308426 L-40.578290749657754,-7.413826261536144 L-40.4713150802651,-7.977164638761665 L-40.3565191148932,-8.538961583779544 L-40.23392503563385,-9.099108540236188 L-40.10355653141298,-9.657497270606259 L-39.965438793413206,-10.214019877107484 L-39.81959851020616,-10.768568822549792 L-39.66606386259541,-11.32103695111481 L-39.50486451817107,-11.871317509061619 L-39.336031625577135,-12.419304165354864 L-39.15959780849257,-12.96489103221115 L-38.97559715932747,-13.507972685559807 L-38.78406523263532,-14.04844418541404 L-38.5850390382428,-14.586201096148544 L-38.378557034098314,-15.12113950667967 L-38.16465911884079,-15.653156050544212 L-37.94338662408999,-16.18214792587298 L-37.71478230646002,-16.70801291525526 L-37.47889033929743,-17.230649405490347 L-37.23575630414554,-17.749956407222317 L-36.98542718193676,-18.265833574454277 L-36.727951343914356,-18.778181223938248 L-36.463378542285724,-19.28690035443706 L-36.191759900608695,-19.791892665854384 L-35.913147903912886,-20.293060578229333 L-35.62759638855805,-20.790307250591898 L-35.335160531831164,-21.283536599675568 L-35.03589684128457,-21.772653318483584 L-34.72986314381693,-22.25756289470515 L-34.41711857449931,-22.738171628978076 L-34.0977235651485,-23.214386652994417 L-33.77173983264973,-23.686115947445437 L-33.43923036703104,-24.153268359802542 L-33.100259419291746,-24.615753621930764 L-32.75489248898713,-25.073482367531323 L-32.40319631157195,-25.5263661494099 L-32.04523884550511,-25.974317456567373 L-31.68108925911796,-26.41724973110961 L-31.310817917248936,-26.855077384973097 L-30.934496367646865,-27.287715816463155 L-30.552197327145763,-27.71508142660162 L-30.16399466761372,-28.13709163528068 L-29.769963401678613,-28.553664897219882 L-29.37017966823335,-28.9647207177232 L-28.964720717723512,-29.37017966823305 L-28.5536648972202,-29.76996340167832 L-28.137091635281006,-30.16399466761343 L-27.71508142660196,-30.552197327145475 L-27.287715816463496,-30.934496367646588 L-26.85507738497344,-31.31081791724867 L-26.417249731109965,-31.6810892591177 L-25.974317456567732,-32.045238845504855 L-25.52636614941026,-32.40319631157171 L-25.073482367531696,-32.7548924889869 L-24.615753621931148,-33.10025941929152 L-24.153268359802926,-33.439230367030824 L-23.686115947445828,-33.771739832649516 L-23.214386652994815,-34.0977235651483 L-22.738171628978474,-34.41711857449911 L-22.257562894705554,-34.72986314381674 L-21.772653318484,-35.03589684128439 L-21.283536599675987,-35.335160531830994 L-20.790307250592317,-35.62759638855788 L-20.29306057822976,-35.91314790391273 L-19.791892665854814,-36.191759900608545 L-19.286900354437496,-36.46337854228559 L-18.778181223938688,-36.72795134391423 L-18.265833574454717,-36.985427181936636 L-17.74995640722277,-37.23575630414543 L-17.2306494054908,-37.47889033929732 L-16.70801291525572,-37.71478230645993 L-16.18214792587344,-37.943386624089904 L-15.653156050544673,-38.16465911884072 L-15.121139506680137,-38.37855703409825 L-14.586201096149015,-38.58503903824274 L-14.048444185414512,-38.78406523263528 L-13.507972685560286,-38.975597159327435 L-12.964891032211632,-39.15959780849254 L-12.419304165355348,-39.336031625577114 L-11.871317509062104,-39.50486451817106 L-11.321036951115296,-39.666063862595415 L-10.768568822550284,-39.81959851020618 L-10.214019877107978,-39.96543879341323 L-9.657497270606756,-40.10355653141301 L-9.099108540236687,-40.233925035633895 L-8.538961583780045,-40.35651911489325 L-7.977164638762168,-40.471315080265164 L-7.413826261536649,-40.578290749657825 L-6.849055306308933,-40.67742545209981 L-6.282960904102353,-40.76870003173436 L-5.715652441670681,-40.852096851520855 L-5.147239540361256,-40.92759979664282 L-4.5778320349327934,-40.99519427762185 L-4.007539952331944,-41.054867233136676 L-3.4364734904327254,-41.10660713254707 L-2.864742996742923,-41.15040397812188 L-2.292458947081574,-41.186249306970915 L-1.7197319242316618,-41.214136192680236 L-1.1466725965721385,-41.23405924665054 L-0.5733916966934096,-41.24601461913841 L-4.113917661876306e-13,-41.2500000000002 " />

       </g>
    </g>
    
</svg>
