<?xml version="1.0" encoding="UTF-8" standalone="no"?>
<svg
   xmlns:svg="http://www.w3.org/2000/svg"
   xmlns="http://www.w3.org/2000/svg"
   width="800.0"
   height="800.0"

>
    <g transform="scale(8.863636363636363, -8.863636363636363)   translate(45.12820512820513,-45.12820512820513)" stroke-width="0.5"  fill="none">
       <!-- hidden lines -->
       <g  stroke="rgb(127,127,127)" fill="none" stroke-dasharray="0.5,0.5" >

       </g>

       <!-- solid lines -->
       <g  stroke="rgb(10,10,10)" fill="none">
			<path d="M0.0,-44.0 L0.5932441565765001,-43.996000515622875 L1.1863804644831797,-43.98400278957672 L1.7793010946565395,-43.964009002985094 L2.371898257242159,-43.93602279061331 L2.9640642211903248,-43.900049240207686 L3.555691333840969,-43.856094891570635 L4.14667204049436,-43.804167735371735 L4.736898903963975,-43.74427721169508 L5.326264624108025,-43.67643420832309 L5.914662057336048,-43.600651058757244 L6.501984236087057,-43.516941539975846 L7.088124388275677,-43.425320869929465 L7.672975956702748,-43.325805704774396 L8.256432618426867,-43.218414135844654 L8.838388304093339,-43.10316568636306 L9.41873721721703,-42.980081307892036 L9.997373853415604,-42.849183376524714 L10.574193019589675,-42.71049568881706 L11.149089853046355,-42.56404345746183 L11.721959840562741,-42.40985330670497 L12.29269883738587,-42.24795326750554 L12.861203086165686,-42.07837277243979 L13.42736923581758,-41.90114265035048 L13.991094360311084,-41.716295120742345 L14.552275977381273,-41.523863787924796 L15.110812067159493,-41.32388363490279 L15.66660109072006,-41.11639101701716 L16.21954200853949,-40.90142365533531 L16.769534298864947,-40.67902062979383 L17.316477975988587,-40.44922237209391 L17.860273608424414,-40.21207065835106 L18.40082233698441,-39.96760860150048 L18.938025892750634,-39.715880643459315 L19.47178661493996,-39.45693254704736 L20.002007468658316,-39.19081138766761 L20.528592062541122,-38.917565544748214 L21.05144466627672,-38.63724469294737 L21.57047022800964,-38.34989979312267 L22.085574391620547,-38.05558308306673 L22.596663513879676,-37.75434806801064 L23.103644681470662,-37.446249510896976 L23.60642572788173,-37.13134342242418 L24.104915250161042,-36.80968705086412 L24.599022625533312,-36.48133887165464 L25.088658027874505,-36.14635857676909 L25.573732444041813,-35.80480706386453 L26.054157690055717,-35.456746425210966 L26.529846427131403,-35.102239936403244 L27.000712177556508,-34.74135204485789 L27.466669340412267,-34.37414835809692 L27.92763320713535,-34.00069563182069 L28.383519976917437,-33.62106175777215 L28.834246771939714,-33.235315751394396 L29.27973165243969,-32.843527739284056 L29.71989363160737,-32.445768946442676 L30.15465269030825,-32.04211168332832 L30.583929791630375,-31.632629332709985 L31.007646895252822,-31.21739633632693 L31.425726971633036,-30.796488181355617 L31.838094016010388,-30.36998138668649 L32.244673062223434,-29.93795348901328 L32.64539019633839,-29.50048302873723 L33.04017257008628,-29.05764953568885 L33.42894841410636,-28.609533514669828 L33.81164705099343,-28.15621643081768 L34.18819890814662,-27.697780694795792 L34.558535530417295,-27.234309647811635 L34.922589592553855,-26.765887546465727 L35.28029491144113,-26.292599547434275 L35.63158645813209,-25.81453169198809 L35.976400369669804,-25.33177089035077 L36.314673960697334,-24.844404905898852 L36.64634573485366,-24.35252233920693 L36.97135539595338,-23.856212611940492 L37.289643858948224,-23.35556595059955 L37.6011532606684,-22.850673370115956 L37.905826970341835,-22.34162665730733 L38.20360959988936,-21.828518354190724 L38.49444701399395,-21.31144174115896 L38.77828633994223,-20.790490820022743 L39.055075977236484,-20.265760296921638 L39.324765606975355,-19.737345565106985 L39.587306201001525,-19.205342687599884 L39.8426500308148,-18.669848379727494 L40.09075067624891,-18.130959991540642 L40.33156303391043,-17.58877549011613 L40.56504332537833,-17.043393441746822 L40.791149105162724,-16.494912994022805 L41.009839268421146,-15.943433857806891 L41.22107405843126,-15.3890562891077 L41.424815073818415,-14.831881070853644 L41.62102527553679,-14.272009494571119 L41.8096689936029,-13.709543341970239 L41.99071193358024,-13.144584866441457 L42.164121182813815,-12.57723677446644 L42.32986521641348,-12.007602206946563 L42.48791390298501,-11.435784720452439 L42.63823851010781,-10.861888268397871 L42.780811709558364,-10.286017182141688 L42.91560758227831,-9.70827615202083 L43.042601623086426,-9.128770208318201 L43.16177074513351,-8.547604702168732 L43.27309328409949,-7.964885286407069 L43.37654900213183,-7.38071789636047 L43.47211909152473,-6.795208730590303 L43.55978617813821,-6.208464231585712 L43.639534324556664,-5.620591066412929 L43.71134903298619,-5.031696107323767 L43.77521724789023,-4.4418864123268 L43.831127358362984,-3.8512692057247833 L43.879069200240195,-3.259951858621839 L43.91903405794699,-2.668041869403951 L43.95101466608226,-2.0756468441963265 L43.97500521073953,-1.482874477301165 L43.99100133056386,-0.8898325316194033 L43.99900011754475,-0.29662881905998373 L43.99900011754475,0.29662881905978294 L43.99100133056387,0.8898325316192026 L43.97500521073954,1.4828744773009643 L43.951014666082266,2.0756468441961258 L43.919034057946995,2.6680418694037504 L43.87906920024022,3.2599518586216387 L43.831127358363,3.8512692057245834 L43.775217247890254,4.4418864123266 L43.71134903298621,5.031696107323567 L43.63953432455669,5.62059106641273 L43.55978617813824,6.208464231585513 L43.47211909152477,6.7952087305901046 L43.37654900213187,7.380717896360272 L43.273093284099524,7.964885286406872 L43.16177074513355,8.547604702168535 L43.04260162308646,9.128770208318006 L42.915607582278355,9.708276152020632 L42.780811709558414,10.286017182141492 L42.63823851010786,10.861888268397676 L42.487913902985056,11.435784720452244 L42.32986521641354,12.00760220694637 L42.16412118281388,12.57723677446625 L41.99071193358031,13.144584866441265 L41.80966899360296,13.709543341970045 L41.62102527553685,14.272009494570927 L41.42481507381848,14.831881070853456 L41.22107405843133,15.389056289107513 L41.00983926842122,15.943433857806705 L40.7911491051628,16.49491299402262 L40.56504332537841,17.043393441746638 L40.331563033910506,17.58877549011595 L40.090750676248994,18.13095999154046 L39.84265003081488,18.66984837972732 L39.58730620100161,19.205342687599714 L39.32476560697544,19.737345565106814 L39.05507597723657,20.26576029692147 L38.77828633994232,20.790490820022573 L38.49444701399404,21.31144174115879 L38.203609599889454,21.828518354190557 L37.905826970341934,22.341626657307167 L37.6011532606685,22.850673370115793 L37.289643858948324,23.35556595059939 L36.97135539595349,23.85621261194033 L36.64634573485377,24.352522339206775 L36.31467396069744,24.844404905898696 L35.97640036966991,25.331770890350615 L35.631586458132205,25.814531691987934 L35.280294911441246,26.292599547434126 L34.92258959255397,26.765887546465578 L34.55853553041741,27.234309647811482 L34.18819890814674,27.69778069479564 L33.81164705099355,28.15621643081753 L33.42894841410648,28.609533514669685 L33.040172570086405,29.057649535688707 L32.64539019633852,29.500483028737086 L32.24467306222356,29.93795348901314 L31.83809401601052,30.369981386686348 L31.425726971633168,30.79648818135548 L31.007646895252954,31.217396336326797 L30.58392979163051,31.63262933270985 L30.15465269030839,32.04211168332819 L29.719893631607512,32.44576894644255 L29.279731652439832,32.84352773928393 L28.83424677193986,33.23531575139427 L28.383519976917583,33.621061757772026 L27.927633207135504,34.00069563182057 L27.466669340412416,34.3741483580968 L27.00071217755666,34.74135204485778 L26.52984642713156,35.10223993640313 L26.05415769005587,35.45674642521085 L25.57373244404197,35.804807063864416 L25.08865802787466,36.146358576768975 L24.59902262553347,36.481338871654536 L24.104915250161206,36.809687050864014 L23.60642572788189,37.131343422424074 L23.10364468147083,37.44624951089688 L22.59666351387984,37.75434806801054 L22.085574391620714,38.05558308306664 L21.570470228009807,38.349899793122574 L21.051444666276886,38.63724469294728 L20.528592062541293,38.91756554474813 L20.00200746865849,39.190811387667516 L19.471786614940136,39.45693254704727 L18.938025892750815,39.715880643459236 L18.400822336984596,39.9676086015004 L17.8602736084246,40.212070658350974 L17.31647797598878,40.44922237209383 L16.769534298865143,40.67902062979375 L16.21954200853969,40.90142365533523 L15.666601090720262,41.11639101701708 L15.110812067159697,41.32388363490272 L14.55227597738148,41.523863787924725 L13.991094360311296,41.716295120742274 L13.427369235817794,41.90114265035041 L12.861203086165903,42.07837277243973 L12.29269883738609,42.24795326750547 L11.721959840562963,42.40985330670491 L11.149089853046583,42.564043457461764 L10.574193019589904,42.710495688817005 L9.997373853415835,42.849183376524664 L9.418737217217263,42.98008130789199 L8.838388304093575,43.10316568636301 L8.256432618427104,43.21841413584461 L7.672975956702986,43.32580570477435 L7.088124388275918,43.42532086992943 L6.5019842360873,43.51694153997581 L5.914662057336292,43.60065105875721 L5.326264624108271,43.67643420832306 L4.736898903964223,43.74427721169505 L4.146672040494608,43.80416773537171 L3.5556913338412195,43.85609489157061 L2.9640642211905766,43.900049240207665 L2.371898257242412,43.936022790613286 L1.7793010946567944,43.96400900298508 L1.186380464483436,43.984002789576714 L0.593244156576758,43.99600051562287 L2.5940747395048416e-13,44.0 L-0.5932441565762392,43.996000515622875 L-1.1863804644829175,43.98400278957673 L-1.779301094656276,43.9640090029851 L-2.3718982572418943,43.93602279061332 L-2.9640642211900587,43.90004924020771 L-3.555691333840702,43.85609489157066 L-4.146672040494091,43.80416773537176 L-4.736898903963707,43.744277211695106 L-5.326264624107756,43.67643420832312 L-5.914662057335779,43.600651058757286 L-6.501984236086788,43.51694153997589 L-7.088124388275404,43.42532086992951 L-7.672975956702476,43.325805704774446 L-8.256432618426595,43.218414135844704 L-8.838388304093067,43.10316568636312 L-9.418737217216757,42.9800813078921 L-9.997373853415331,42.84918337652478 L-10.574193019589401,42.71049568881713 L-11.14908985304608,42.5640434574619 L-11.721959840562466,42.409853306705045 L-12.292698837385592,42.24795326750562 L-12.861203086165407,42.07837277243988 L-13.4273692358173,41.901142650350565 L-13.991094360310804,41.71629512074244 L-14.552275977380988,41.523863787924896 L-15.110812067159209,41.3238836349029 L-15.666601090719778,41.116391017017264 L-16.219542008539207,40.90142365533542 L-16.769534298864667,40.679020629793946 L-17.316477975988303,40.44922237209403 L-17.860273608424126,40.21207065835119 L-18.400822336984124,39.967608601500615 L-18.938025892750346,39.71588064345946 L-19.47178661493967,39.4569325470475 L-20.00200746865803,39.19081138766775 L-20.528592062540834,38.91756554474837 L-21.05144466627643,38.637244692947526 L-21.570470228009356,38.34989979312282 L-22.085574391620263,38.05558308306689 L-22.596663513879392,37.75434806801081 L-23.103644681470385,37.446249510897154 L-23.60642572788145,37.13134342242436 L-24.104915250160772,36.8096870508643 L-24.59902262553304,36.481338871654835 L-25.08865802787424,36.14635857676927 L-25.573732444041546,35.804807063864715 L-26.054157690055455,35.45674642521116 L-26.529846427131144,35.10223993640344 L-27.00071217755625,34.74135204485809 L-27.46666934041201,34.374148358097116 L-27.927633207135102,34.000695631820896 L-28.38351997691718,33.62106175777236 L-28.83424677193947,33.23531575139461 L-29.279731652439445,32.843527739284276 L-29.71989363160713,32.4457689464429 L-30.154652690308012,32.04211168332855 L-30.583929791630137,31.632629332710213 L-31.007646895252588,31.217396336327162 L-31.425726971632805,30.79648818135585 L-31.838094016010157,30.369981386686725 L-32.244673062223214,29.937953489013523 L-32.64539019633817,29.500483028737474 L-33.04017257008606,29.057649535689098 L-33.42894841410616,28.609533514670062 L-33.811647050993244,28.1562164308179 L-34.18819890814645,27.697780694796002 L-34.55853553041714,27.234309647811827 L-34.92258959255372,26.76588754646591 L-35.280294911441004,26.292599547434445 L-35.631586458131984,25.814531691988247 L-35.976400369669705,25.331770890350906 L-36.31467396069725,24.84440490589898 L-36.64634573485359,24.35252233920704 L-36.971355395953324,23.856212611940585 L-37.289643858948175,23.35556595059963 L-37.601153260668355,22.85067337011602 L-37.90582697034181,22.341626657307376 L-38.20360959988935,21.828518354190756 L-38.49444701399394,21.311441741158973 L-38.77828633994223,20.79049082002274 L-39.0550759772365,20.26576029692162 L-39.324765606975376,19.737345565106946 L-39.587306201001546,19.205342687599828 L-39.84265003081484,18.66984837972742 L-40.09075067624896,18.13095999154055 L-40.33156303391048,17.58877549011602 L-40.56504332537839,17.04339344174669 L-40.79114910516279,16.494912994022656 L-41.00983926842121,15.943433857806724 L-41.22107405843133,15.389056289107515 L-41.424815073818486,14.831881070853438 L-41.62102527553686,14.272009494570892 L-41.809668993602976,13.709543341969992 L-41.99071193358032,13.144584866441193 L-42.1641211828139,12.577236774466156 L-42.329865216413566,12.007602206946258 L-42.48791390298509,11.435784720452114 L-42.6382385101079,10.861888268397527 L-42.78081170955845,10.286017182141322 L-42.9156075822784,9.708276152020442 L-43.04260162308651,9.128770208317796 L-43.161770745133595,8.547604702168305 L-43.273093284099566,7.964885286406623 L-43.37654900213192,7.380717896360004 L-43.47211909152481,6.795208730589816 L-43.55978617813828,6.208464231585204 L-43.63953432455673,5.620591066412401 L-43.711349032986256,5.031696107323219 L-43.77521724789029,4.441886412326232 L-43.831127358363034,3.8512692057241953 L-43.879069200240245,3.2599518586212306 L-43.91903405794703,2.6680418694033223 L-43.95101466608229,2.0756468441956777 L-43.97500521073955,1.4828744773004967 L-43.991001330563876,0.8898325316187152 L-43.99900011754476,0.29662881905927596 L-43.999000117544746,-0.2966288190605103 L-43.991001330563854,-0.8898325316199492 L-43.97500521073951,-1.4828744773017304 L-43.95101466608223,-2.075646844196911 L-43.91903405794695,-2.6680418694045547 L-43.87906920024015,-3.2599518586224616 L-43.83112735836293,-3.8512692057254245 L-43.77521724789017,-4.4418864123274595 L-43.711349032986114,-5.0316961073244455 L-43.63953432455657,-5.620591066413626 L-43.55978617813811,-6.208464231586426 L-43.47211909152462,-6.795208730591035 L-43.3765490021317,-7.38071789636122 L-43.273093284099346,-7.964885286407837 L-43.16177074513335,-8.547604702169515 L-43.042601623086256,-9.128770208319004 L-42.91560758227813,-9.708276152021647 L-42.780811709558165,-10.286017182142523 L-42.63823851010759,-10.861888268398722 L-42.48791390298477,-11.435784720453306 L-42.32986521641323,-12.007602206947444 L-42.16412118281355,-12.57723677446734 L-41.99071193357996,-13.14458486644237 L-41.80966899360259,-13.709543341971164 L-41.62102527553646,-14.272009494572059 L-41.424815073818074,-14.831881070854601 L-41.2210740584309,-15.38905628910867 L-41.00983926842076,-15.943433857807873 L-40.79114910516232,-16.4949129940238 L-40.565043325377914,-17.043393441747828 L-40.33156303390998,-17.58877549011715 L-40.09075067624844,-18.130959991541673 L-39.84265003081431,-18.66984837972854 L-39.58730620100101,-19.20534268760094 L-39.32476560697482,-19.737345565108047 L-39.05507597723593,-20.265760296922714 L-38.778286339941644,-20.790490820023827 L-38.494447013993344,-21.311441741160053 L-38.203609599888736,-21.828518354191825 L-37.90582697034118,-22.341626657308442 L-37.601153260667715,-22.85067337011707 L-37.28964385894752,-23.355565950600674 L-36.971355395952656,-23.85621261194162 L-36.64634573485291,-24.35252233920807 L-36.31467396069655,-24.8444049059 L-35.976400369668994,-25.33177089035192 L-35.63158645813126,-25.814531691989245 L-35.280294911440265,-26.292599547435433 L-34.92258959255297,-26.765887546466892 L-34.55853553041637,-27.234309647812797 L-34.18819890814567,-27.69778069479696 L-33.811647050992455,-28.15621643081885 L-33.42894841410535,-28.609533514671 L-33.04017257008525,-29.05764953569002 L-32.64539019633733,-29.5004830287384 L-32.24467306222234,-29.937953489014454 L-31.83809401600927,-30.369981386687662 L-31.42572697163189,-30.79648818135679 L-31.007646895251646,-31.2173963363281 L-30.583929791629163,-31.632629332711154 L-30.154652690307014,-32.04211168332949 L-29.719893631606105,-32.445768946443835 L-29.279731652438393,-32.843527739285214 L-28.834246771938385,-33.23531575139555 L-28.38351997691608,-33.6210617577733 L-27.927633207133965,-34.00069563182183 L-27.466669340410846,-34.37414835809805 L-27.00071217755506,-34.74135204485902 L-26.529846427129925,-35.10223993640437 L-26.054157690054204,-35.456746425212074 L-25.573732444040274,-35.804807063865624 L-25.08865802787293,-36.146358576770176 L-24.599022625531703,-36.48133887165572 L-24.10491525015941,-36.809687050865186 L-23.606425727880065,-37.13134342242524 L-23.103644681468968,-37.44624951089803 L-22.59666351387795,-37.75434806801167 L-22.085574391618792,-38.055583083067745 L-21.570470228007853,-38.34989979312367 L-21.0514446662749,-38.63724469294836 L-20.528592062539275,-38.91756554474919 L-20.00200746865644,-39.19081138766856 L-19.471786614938054,-39.4569325470483 L-18.9380258927487,-39.71588064346024 L-18.400822336982454,-39.96760860150139 L-17.86027360842243,-40.21207065835195 L-17.316477975986576,-40.449222372094766 L-16.769534298862908,-40.67902062979467 L-16.219542008537424,-40.90142365533613 L-15.666601090717966,-41.11639101701795 L-15.110812067157372,-41.323883634903574 L-14.552275977379123,-41.52386378792555 L-13.991094360308912,-41.71629512074307 L-13.42736923581538,-41.901142650351176 L-12.86120308616346,-42.07837277244047 L-12.292698837383618,-42.24795326750619 L-11.721959840560466,-42.4098533067056 L-11.149089853044055,-42.564043457462425 L-10.574193019587348,-42.71049568881764 L-9.997373853413253,-42.84918337652526 L-9.418737217214654,-42.98008130789256 L-8.83838830409094,-43.10316568636355 L-8.256432618424443,-43.218414135845116 L-7.672975956700299,-43.32580570477483 L-7.088124388273203,-43.42532086992987 L-6.501984236084561,-43.516941539976216 L-5.914662057333529,-43.600651058757585 L-5.326264624105483,-43.6764342083234 L-4.736898903961411,-43.74427721169535 L-4.146672040491773,-43.80416773537198 L-3.555691333838362,-43.85609489157085 L-2.964064221187696,-43.90004924020786 L-2.3718982572395104,-43.93602279061344 L-1.779301094653871,-43.9640090029852 L-1.186380464480492,-43.98400278957679 L-0.5932441565737936,-43.9960005156229 L2.7248126408438892e-12,-44.0 " />
			<path d="M-7.684658664649642e-15,-31.375 L0.11335426983419594,-31.378958418327784 L0.22615628906009866,-31.39081438829495 L0.3378564975788512,-31.410510148807568 L0.44791070320261595,-31.43794974410023 L0.5557827329042039,-31.4729994912229 L0.6609470449981675,-31.515488631330776 L0.7628912895270648,-31.565210161604245 L0.8611188043789502,-31.62192184374581 L0.9551510349752611,-31.685347384140712 L1.0445298657406186,-31.75517777993166 L1.1288198519958628,-31.83107282444969 L1.207610341400758,-31.912662764666855 L1.2805174746109154,-31.999550102595805 L1.3471860554019348,-32.091311531860036 L1.407291281149705,-32.1875 L1.4605403252361386,-32.28764688646775 L1.506673763671022,-32.391264285699144 L1.545466838979617,-32.49784738414071 L1.5767305551984865,-32.60687691965054 L1.6003125986448303,-32.717821711291236 L1.6160980799734364,-32.83014124719006 L1.6240100939060227,-32.94328831785844 L1.6240100939060227,-33.05671168214157 L1.6160980799734361,-33.16985875280994 L1.6003125986448299,-33.282178288708764 L1.5767305551984858,-33.39312308034946 L1.5454668389796158,-33.502152615859295 L1.5066737636710206,-33.608735714300856 L1.4605403252361375,-33.71235311353225 L1.4072912811497036,-33.8125 L1.3471860554019335,-33.908688468139964 L1.2805174746109136,-34.000449897404195 L1.207610341400756,-34.087337235333145 L1.1288198519958608,-34.16892717555031 L1.0445298657406163,-34.24482222006834 L0.9551510349752582,-34.314652615859295 L0.8611188043789472,-34.37807815625419 L0.7628912895270614,-34.43478983839576 L0.660947044998164,-34.48451136866923 L0.5557827329042001,-34.5270005087771 L0.4479107032026118,-34.56205025589977 L0.33785649757884684,-34.58948985119243 L0.22615628906009408,-34.60918561170505 L0.11335426983419117,-34.621041581672216 L-1.2611543775272088e-14,-34.625 L-0.11335426983421638,-34.621041581672216 L-0.22615628906011923,-34.60918561170505 L-0.33785649757887193,-34.58948985119243 L-0.44791070320263676,-34.56205025589977 L-0.5557827329042248,-34.5270005087771 L-0.6609470449981883,-34.484511368669224 L-0.7628912895270856,-34.43478983839575 L-0.861118804378971,-34.37807815625419 L-0.9551510349752818,-34.31465261585929 L-1.044529865740639,-34.244822220068336 L-1.128819851995883,-34.1689271755503 L-1.207610341400778,-34.08733723533314 L-1.2805174746109351,-34.00044989740419 L-1.3471860554019546,-33.90868846813996 L-1.4072912811497242,-33.81249999999999 L-1.4605403252361575,-33.712353113532245 L-1.5066737636710403,-33.60873571430085 L-1.5454668389796349,-33.50215261585928 L-1.576730555198504,-33.393123080349454 L-1.6003125986448472,-33.28217828870876 L-1.616098079973453,-33.16985875280993 L-1.6240100939060387,-33.056711682141554 L-1.6240100939060382,-32.943288317858425 L-1.6160980799734515,-32.830141247190056 L-1.6003125986448448,-32.71782171129123 L-1.5767305551985002,-32.60687691965053 L-1.5454668389796298,-32.497847384140705 L-1.5066737636710341,-32.39126428569914 L-1.4605403252361504,-32.28764688646774 L-1.4072912811497162,-32.18749999999999 L-1.3471860554019455,-32.09131153186003 L-1.2805174746109254,-31.999550102595798 L-1.2076103414007673,-31.912662764666848 L-1.1288198519958716,-31.831072824449684 L-1.0445298657406268,-31.755177779931653 L-0.9551510349752687,-31.685347384140705 L-0.8611188043789575,-31.621921843745803 L-0.7628912895270714,-31.565210161604238 L-0.6609470449981738,-31.51548863133077 L-0.5557827329042097,-31.472999491222897 L-0.4479107032026213,-31.43794974410023 L-0.33785649757885616,-31.410510148807564 L-0.2261562890601033,-31.390814388294945 L-0.11335426983420033,-31.378958418327784 L3.4636505817290972e-15,-31.375 " />
			<path d="M-27.17154704373676,-15.687500000000004 L-27.118297999650327,-15.787646886467753 L-27.072164561215445,-15.891264285699146 L-27.033371485906848,-15.997847384140714 L-27.002107769687978,-16.106876919650542 L-26.978525726241635,-16.21782171129124 L-26.96274024491303,-16.330141247190067 L-26.954828230980443,-16.44328831785844 L-26.954828230980443,-16.556711682141568 L-26.96274024491303,-16.66985875280994 L-26.978525726241635,-16.782178288708764 L-27.002107769687978,-16.893123080349465 L-27.033371485906848,-17.00215261585929 L-27.072164561215445,-17.10873571430086 L-27.118297999650327,-17.212353113532252 L-27.17154704373676,-17.312500000000004 L-27.23165226948453,-17.408688468139967 L-27.298320850275548,-17.5004498974042 L-27.371227983485706,-17.58733723533315 L-27.4500184728906,-17.668927175550312 L-27.534308459145848,-17.744822220068343 L-27.623687289911203,-17.814652615859295 L-27.717719520507515,-17.878078156254197 L-27.8159470353594,-17.93478983839576 L-27.9178912798883,-17.98451136866923 L-28.023055591982263,-18.027000508777107 L-28.13092762168385,-18.062050255899774 L-28.240981827307614,-18.08948985119244 L-28.35268203582637,-18.109185611705055 L-28.465484055052272,-18.12104158167222 L-28.578838324886476,-18.125000000000004 L-28.692192594720677,-18.121041581672216 L-28.80499461394658,-18.109185611705055 L-28.916694822465335,-18.089489851192436 L-29.0267490280891,-18.06205025589977 L-29.134621057790685,-18.027000508777103 L-29.23978536988465,-17.984511368669228 L-29.34172961441355,-17.93478983839576 L-29.439957129265434,-17.878078156254194 L-29.533989359861742,-17.81465261585929 L-29.6233681906271,-17.74482222006834 L-29.707658176882347,-17.66892717555031 L-29.786448666287242,-17.587337235333145 L-29.859355799497397,-17.500449897404195 L-29.926024380288418,-17.408688468139964 L-29.986129606036187,-17.3125 L-30.03937865012262,-17.212353113532252 L-30.085512088557504,-17.108735714300856 L-30.124305163866097,-17.002152615859288 L-30.155568880084967,-16.893123080349458 L-30.17915092353131,-16.78217828870876 L-30.194936404859916,-16.669858752809937 L-30.202848418792502,-16.55671168214156 L-30.202848418792502,-16.443288317858435 L-30.194936404859916,-16.33014124719006 L-30.17915092353131,-16.217821711291236 L-30.155568880084964,-16.10687691965054 L-30.124305163866097,-15.997847384140709 L-30.0855120885575,-15.89126428569914 L-30.039378650122615,-15.787646886467748 L-29.986129606036183,-15.687499999999998 L-29.92602438028841,-15.591311531860034 L-29.859355799497393,-15.499550102595803 L-29.786448666287235,-15.412662764666853 L-29.707658176882337,-15.331072824449691 L-29.623368190627094,-15.25517777993166 L-29.533989359861735,-15.185347384140709 L-29.439957129265423,-15.121921843745808 L-29.341729614413538,-15.065210161604243 L-29.23978536988464,-15.015488631330774 L-29.134621057790678,-14.9729994912229 L-29.02674902808909,-14.937949744100234 L-28.916694822465324,-14.910510148807568 L-28.804994613946572,-14.89081438829495 L-28.69219259472067,-14.87895841832779 L-28.578838324886465,-14.875000000000004 L-28.46548405505226,-14.87895841832779 L-28.35268203582636,-14.890814388294952 L-28.240981827307603,-14.910510148807571 L-28.13092762168384,-14.937949744100237 L-28.023055591982253,-14.972999491222906 L-27.917891279888288,-15.015488631330781 L-27.815947035359393,-15.065210161604252 L-27.717719520507504,-15.121921843745817 L-27.623687289911196,-15.18534738414072 L-27.534308459145837,-15.255177779931671 L-27.450018472890594,-15.331072824449702 L-27.3712279834857,-15.412662764666866 L-27.298320850275545,-15.499550102595817 L-27.231652269484524,-15.591311531860049 L-27.171547043736755,-15.687500000000012 " />
			<path d="M29.703703703703617,-4.205946538246299 L29.631431172543806,-4.688100539323097 L29.551332789469196,-5.169016382837785 L29.463429708978893,-5.648567055817114 L29.367745146842914,-6.126625905838171 L29.264304373970685,-6.6030666744781 L29.153134709736893,-7.077763530659766 L29.034265514766222,-7.550591103884548 L28.90772818317905,-8.0214245173435 L28.77355613430004,-8.490139420898124 L28.6317848038319,-8.956612023922036 L28.482451634496556,-9.420719127994872 L28.325596066146336,-9.882338159439785 L28.16125952534759,-10.34134720169594 L27.98948541443971,-10.797625027517467 L27.810319100072288,-11.251051130990357 L27.62380790122348,-11.701505759358843 L27.43000107670277,-12.148869944652892 L27.22894981214137,-12.59302553510839 L27.020707206473816,-13.033855226371811 L26.805328257914155,-13.471242592481014 L26.582869849430594,-13.905072116614136 L26.353390733722303,-14.335229221598297 L26.116951517702486,-14.761600300170173 L25.873614646491692,-15.184072744980424 L25.62344438692563,-15.602534978334 L25.366506810581946,-16.01687648165855 L25.10286977633022,-16.426987824693054 L24.83260291241006,-16.83276069438911 L24.555777598041786,-17.23408792351706 L24.272466944574777,-17.630863518969583 L23.982745776178223,-18.02298268975514 L23.686690610079648,-18.410341874673936 L23.38437963635616,-18.792838769669135 L23.07589269728399,-19.170372354846 L22.761311266251603,-19.54284292115188 L22.440718426242068,-19.910152096710068 L22.114198847890304,-20.272202872800378 L21.781838767121016,-20.62889962947983 L21.44372596237322,-20.980148160836467 L21.099949731417432,-21.325855699869738 L20.750600867771496,-21.665930942990887 L20.395771636721488,-22.00028407413679 L20.035555750953797,-22.328826788490968 L19.670048345805064,-22.651472315805467 L19.299345954136275,-22.968135443317415 L18.923546480837842,-23.278732538254307 L18.54274917697229,-23.583181569921894 L18.15705461356137,-23.88140213136909 L17.766564655024684,-24.17331546062389 L17.371382432276544,-24.458844461494994 L16.971612315488496,-24.737913723933342 L16.567359886524475,-25.010449543948436 L16.158731911055924,-25.276379943074005 L15.745836310364323,-25.535634687378018 L15.328782132838485,-25.788145306011877 L14.907679525174148,-26.033845109294067 L14.482639703283537,-26.27266920632326 L14.053774922922532,-26.504554522116475 L13.621198450043194,-26.729439814267565 L13.185024530879486,-26.947265689121735 L12.745368361774132,-27.157974617461786 L12.302346058754484,-27.361510949701945 L11.856074626865567,-27.55782093058532 L11.406671929268276,-27.746852713380935 L10.954256656110955,-27.928556373576864 L10.498948293182563,-28.102883922065562 L10.040867090355716,-28.26978931781812 L9.580134029827908,-28.429228480044006 L9.116870794169351,-28.581159299833065 L8.651199734185804,-28.725541651276757 L8.183243836604946,-28.862337402065677 L7.713126691594793,-28.991510423560552 L7.240972460122734,-29.113026600334027 L6.766905841163817,-29.226853839180766 L6.291052038766951,-29.332962077593507 L5.813536728987702,-29.431323291702725 L5.33448602669645,-29.521911503677956 L4.854026452270626,-29.604702788588664 L4.372284898179869,-29.679675280723014 L3.889388595472915,-29.746809179362714 L3.4054650801750466,-29.806086754012522 L2.9206421596050074,-29.85749234908301 L2.435047878620278,-29.90101238802525 L1.9488104857995874,-29.936635376916527 L1.462058399571646,-29.964351907495924 L0.9749201742990127,-29.984154659649114 L0.487524466326054,-29.996038403341633 L-2.3819330346503357e-14,-30.000000000000213 L-0.4875244663261003,-29.996038403341633 L-0.97492017429906,-29.984154659649107 L-1.4620583995716931,-29.96435190749592 L-1.9488104857996336,-29.936635376916524 L-2.435047878620326,-29.901012388025247 L-2.9206421596050554,-29.857492349083007 L-3.4054650801750928,-29.806086754012522 L-3.889388595472963,-29.746809179362707 L-4.372284898179916,-29.679675280723004 L-4.854026452270673,-29.60470278858866 L-5.334486026696497,-29.521911503677945 L-5.813536728987749,-29.431323291702718 L-6.291052038766996,-29.332962077593493 L-6.766905841163865,-29.22685383918075 L-7.24097246012278,-29.11302660033401 L-7.713126691594839,-28.99151042356054 L-8.18324383660499,-28.86233740206567 L-8.651199734185846,-28.72554165127674 L-9.116870794169396,-28.58115929983305 L-9.580134029827954,-28.429228480043992 L-10.040867090355759,-28.269789317818102 L-10.498948293182607,-28.102883922065544 L-10.954256656111,-27.928556373576843 L-11.40667192926832,-27.746852713380914 L-11.856074626865611,-27.557820930585297 L-12.302346058754527,-27.36151094970193 L-12.745368361774174,-27.15797461746176 L-13.185024530879533,-26.947265689121714 L-13.621198450043238,-26.729439814267543 L-14.053774922922578,-26.504554522116454 L-14.482639703283581,-26.272669206323233 L-14.90767952517419,-26.033845109294038 L-15.328782132838528,-25.78814530601185 L-15.745836310364368,-25.535634687377986 L-16.15873191105596,-25.27637994307398 L-16.567359886524507,-25.01044954394841 L-16.971612315488525,-24.737913723933325 L-17.371382432276565,-24.458844461494973 L-17.7665646550247,-24.173315460623876 L-18.15705461356138,-23.881402131369075 L-18.54274917697229,-23.583181569921887 L-18.923546480837842,-23.2787325382543 L-19.299345954136268,-22.968135443317415 L-19.67004834580505,-22.651472315805467 L-20.03555575095378,-22.328826788490975 L-20.395771636721467,-22.0002840741368 L-20.750600867771478,-21.6659309429909 L-21.0999497314174,-21.325855699869763 L-21.443725962373186,-20.980148160836496 L-21.78183876712097,-20.628899629479868 L-22.114198847890265,-20.272202872800413 L-22.44071842624202,-19.910152096710114 L-22.761311266251553,-19.542842921151937 L-23.075892697283937,-19.170372354846048 L-23.384379636356105,-18.7928387696692 L-23.686690610079584,-18.410341874674003 L-23.982745776178163,-18.02298268975521 L-24.27246694457471,-17.630863518969665 L-24.555777598041722,-17.234087923517148 L-24.832602912409993,-16.8327606943892 L-25.102869776330145,-16.42698782469315 L-25.36650681058187,-16.016876481658652 L-25.62344438692556,-15.602534978334118 L-25.87361464649161,-15.184072744980545 L-26.116951517702407,-14.761600300170299 L-26.353390733722225,-14.33522922159843 L-26.582869849430512,-13.905072116614278 L-26.805328257914077,-13.47124259248116 L-27.020707206473734,-13.033855226371966 L-27.228949812141288,-12.593025535108556 L-27.430001076702684,-12.148869944653063 L-27.6238079012234,-11.701505759359021 L-27.81031910007221,-11.251051130990541 L-27.989485414439628,-10.79762502751766 L-28.161259525347507,-10.34134720169614 L-28.325596066146254,-9.882338159439993 L-28.48245163449648,-9.420719127995088 L-28.63178480383182,-8.956612023922256 L-28.773556134299966,-8.490139420898355 L-28.907728183178975,-8.021424517343736 L-29.03426551476615,-7.55059110388479 L-29.153134709736822,-7.077763530660018 L-29.26430437397062,-6.60306667447836 L-29.367745146842854,-6.126625905838436 L-29.463429708978836,-5.648567055817386 L-29.551332789469136,-5.169016382838064 L-29.631431172543753,-4.688100539323382 L-29.703703703703567,-4.205946538246593 " />
			<path d="M-29.70370370370305,-4.20594653824587 L-29.86964868175013,-4.0945227369413555 L-30.03100761693361,-3.9765553970855763 L-30.18752263831692,-3.852233044640099 L-30.338943616118872,-3.721754361639016 L-30.48502856145104,-3.585327868671218 L-30.625544013045058,-3.443171591639479 L-30.760265410351714,-3.2955127133289053 L-30.888977452415666,-3.142587210341593 L-31.01147444195218,-2.9846394759777013 L-31.12756061407608,-2.8219219296656473 L-31.23705044915752,-2.654694613565572 L-31.3397689693046,-2.4832247769907716 L-31.43555201799905,-2.307786449311235 L-31.52424652243801,-2.128660002021833 L-31.605710738162756,-1.9461317006750352 L-31.679814475583342,-1.7604932473942128 L-31.74643930803719,-1.572041314698652 L-31.805478761049088,-1.381077071385274 L-31.856838482490197,-1.1879057012247691 L-31.90043639336406,-0.9928359152413156 L-31.936202818978675,-0.7961794583553301 L-31.964080600295038,-0.5982506111776829 L-31.98402518527412,-0.3993656877515782 L-31.996004700076384,-0.19984253004476543 L-32.0,5.6813112181147626e-14 L-31.996004700076377,0.19984253004487895 L-31.98402518527411,0.39936568775169146 L-31.964080600295024,0.5982506111777957 L-31.936202818978657,0.7961794583554422 L-31.900436393364036,0.992835915241427 L-31.856838482490172,1.1879057012248793 L-31.805478761049056,1.3810770713853833 L-31.746439308037154,1.5720413146987597 L-31.6798144755833,1.7604932473943191 L-31.60571073816271,1.9461317006751397 L-31.52424652243796,2.1286600020219355 L-31.435552017998997,2.307786449311336 L-31.339768969304547,2.48322477699087 L-31.237050449157458,2.6546946135656677 L-31.127560614076017,2.821921929665741 L-31.01147444195211,2.9846394759777928 L-30.888977452415595,3.1425872103416816 L-30.76026541035164,3.2955127133289923 L-30.625544013044976,3.4431715916395627 L-30.485028561450957,3.5853278686712993 L-30.338943616118783,3.7217543616390936 L-30.187522638316832,3.8522330446401734 L-30.031007616933522,3.9765553970856464 L-29.869648681750036,4.094522736941421 L-29.70370370370295,4.205946538245933 " />
			<path d="M29.70370370370355,4.205946538246342 L29.63143117254373,4.688100539323133 L29.55133278946911,5.169016382837813 L29.463429708978808,5.648567055817135 L29.36774514684282,6.126625905838186 L29.26430437397059,6.603066674478107 L29.15313470973679,7.077763530659764 L29.034265514766112,7.550591103884538 L28.907728183178936,8.021424517343483 L28.773556134299923,8.4901394208981 L28.631784803831774,8.956612023922004 L28.482451634496435,9.42071912799483 L28.325596066146208,9.882338159439735 L28.16125952534745,10.34134720169588 L27.98948541443957,10.7976250275174 L27.81031910007215,11.25105113099028 L27.623807901223344,11.70150575935876 L27.430001076702624,12.1488699446528 L27.22894981214122,12.593025535108298 L27.020707206473663,13.033855226371706 L26.805328257914002,13.471242592480902 L26.582869849430438,13.905072116614017 L26.353390733722147,14.335229221598166 L26.11695151770233,14.761600300170036 L25.87361464649153,15.184072744980279 L25.623444386925474,15.602534978333848 L25.366506810581786,16.016876481658382 L25.10286977633006,16.42698782469288 L24.832602912409893,16.832760694388924 L24.555777598041622,17.23408792351687 L24.27246694457461,17.630863518969388 L23.982745776178064,18.02298268975493 L23.686690610079488,18.410341874673723 L23.384379636356,18.79283876966891 L23.07589269728383,19.170372354845767 L22.761311266251447,19.542842921151646 L22.440718426241915,19.910152096709822 L22.11419884789015,20.272202872800126 L21.78183876712086,20.628899629479573 L21.44372596237307,20.980148160836197 L21.099949731417283,21.325855699869464 L20.75060086777135,21.66593094299061 L20.395771636721342,22.0002840741365 L20.035555750953655,22.32882678849067 L19.670048345804926,22.65147231580516 L19.29934595413614,22.968135443317106 L18.923546480837715,23.27873253825399 L18.54274917697216,23.58318156992157 L18.15705461356125,23.88140213136876 L17.766564655024563,24.17331546062356 L17.371382432276427,24.458844461494657 L16.971612315488386,24.737913723933 L16.567359886524365,25.010449543948084 L16.158731911055817,25.27637994307365 L15.745836310364227,25.53563468737765 L15.328782132838393,25.788145306011515 L14.907679525174059,26.033845109293697 L14.482639703283454,26.272669206322885 L14.053774922922456,26.5045545221161 L13.62119845004312,26.729439814267185 L13.185024530879419,26.94726568912135 L12.745368361774068,27.15797461746139 L12.302346058754425,27.361510949701554 L11.856074626865515,27.55782093058492 L11.40667192926823,27.74685271338053 L10.954256656110914,27.928556373576455 L10.498948293182528,28.102883922065153 L10.040867090355684,28.26978931781771 L9.580134029827885,28.429228480043594 L9.116870794169333,28.58115929983265 L8.651199734185791,28.725541651276338 L8.183243836604941,28.862337402065258 L7.713126691594795,28.991510423560133 L7.240972460122743,29.1130266003336 L6.766905841163833,29.22685383918034 L6.291052038766972,29.33296207759308 L5.8135367289877315,29.431323291702302 L5.334486026696485,29.52191150367753 L4.854026452270666,29.604702788588238 L4.372284898179918,29.679675280722588 L3.8893885954729703,29.746809179362288 L3.405465080175108,29.8060867540121 L2.9206421596050767,29.857492349082584 L2.4350478786203533,29.901012388024824 L1.948810485799669,29.9366353769161 L1.4620583995717347,29.964351907495498 L0.9749201742991079,29.984154659648688 L0.48752446632615587,29.99603840334121 L8.55478419952536e-14,29.99999999999979 L-0.48752446632598484,29.996038403341213 L-0.9749201742989371,29.98415465964869 L-1.462058399571564,29.96435190749551 L-1.9488104857994981,29.936635376916115 L-2.4350478786201832,29.90101238802484 L-2.920642159604907,29.857492349082595 L-3.405465080174938,29.806086754012117 L-3.889388595472801,29.746809179362305 L-4.372284898179749,29.679675280722613 L-4.854026452270498,29.604702788588266 L-5.334486026696317,29.52191150367756 L-5.813536728987564,29.43132329170233 L-6.291052038766805,29.332962077593113 L-6.766905841163666,29.22685383918038 L-7.240972460122577,29.11302660033364 L-7.7131266915946295,28.991510423560175 L-8.183243836604776,28.862337402065307 L-8.651199734185628,28.725541651276384 L-9.11687079416917,28.5811592998327 L-9.580134029827724,28.429228480043648 L-10.040867090355524,28.269789317817768 L-10.498948293182368,28.102883922065207 L-10.954256656110754,27.928556373576516 L-11.406671929268072,27.746852713380594 L-11.856074626865357,27.557820930584985 L-12.302346058754269,27.36151094970162 L-12.745368361773911,27.157974617461463 L-13.185024530879266,26.947265689121423 L-13.62119845004297,26.72943981426726 L-14.053774922922303,26.504554522116177 L-14.482639703283304,26.272669206322966 L-14.90767952517391,26.03384510929378 L-15.328782132838244,25.7881453060116 L-15.74583631036408,25.53563468737774 L-16.15873191105567,25.27637994307374 L-16.56735988652422,25.010449543948177 L-16.971612315488244,24.737913723933097 L-17.37138243227628,24.458844461494753 L-17.76656465502442,24.173315460623655 L-18.157054613561108,23.88140213136886 L-18.54274917697202,23.583181569921674 L-18.923546480837576,23.278732538254093 L-19.299345954136005,22.968135443317212 L-19.67004834580479,22.65147231580527 L-20.035555750953524,22.328826788490783 L-20.395771636721214,22.000284074136612 L-20.750600867771226,21.66593094299072 L-21.09994973141716,21.32585569986958 L-21.443725962372945,20.98014816083632 L-21.78183876712074,20.62889962947969 L-22.11419884789003,20.272202872800246 L-22.440718426241798,19.910152096709947 L-22.761311266251333,19.54284292115177 L-23.075892697283717,19.170372354845895 L-23.38437963635589,18.792838769669043 L-23.686690610079378,18.410341874673854 L-23.982745776177957,18.022982689755064 L-24.272466944574507,17.630863518969523 L-24.555777598041523,17.23408792351701 L-24.832602912409794,16.832760694389066 L-25.102869776329964,16.426987824693022 L-25.36650681058169,16.016876481658525 L-25.623444386925378,15.602534978333992 L-25.87361464649144,15.184072744980421 L-26.116951517702237,14.761600300170182 L-26.35339073372206,14.335229221598313 L-26.582869849430352,13.905072116614164 L-26.805328257913924,13.471242592481053 L-27.020707206473585,13.033855226371857 L-27.228949812141142,12.59302553510845 L-27.430001076702542,12.14886994465296 L-27.623807901223266,11.70150575935892 L-27.81031910007208,11.251051130990442 L-27.989485414439503,10.797625027517563 L-28.161259525347386,10.341347201696044 L-28.325596066146144,9.882338159439898 L-28.48245163449637,9.420719127994996 L-28.631784803831717,8.956612023922169 L-28.773556134299866,8.490139420898267 L-28.907728183178882,8.02142451734365 L-29.034265514766062,7.550591103884706 L-29.15313470973674,7.077763530659934 L-29.264304373970543,6.603066674478277 L-29.36774514684278,6.126625905838355 L-29.463429708978772,5.648567055817305 L-29.551332789469075,5.1690163828379845 L-29.6314311725437,4.688100539323305 L-29.70370370370352,4.205946538246514 " />
			<path d="M29.703703703702995,4.205946538245905 L29.86964868175008,4.094522736941393 L30.031007616933557,3.976555397085617 L30.18752263831687,3.852233044640143 L30.33894361611882,3.721754361639063 L30.48502856145099,3.5853278686712686 L30.625544013045005,3.4431715916395325 L30.760265410351664,3.2955127133289617 L30.88897745241562,3.1425872103416514 L31.011474441952135,2.9846394759777626 L31.127560614076035,2.8219219296657116 L31.23705044915748,2.6546946135656393 L31.339768969304565,2.4832247769908418 L31.43555201799901,2.3077864493113074 L31.524246522437974,2.1286600020219075 L31.60571073816272,1.9461317006751122 L31.67981447558331,1.7604932473942922 L31.74643930803716,1.5720413146987335 L31.805478761049063,1.381077071385358 L31.856838482490176,1.1879057012248546 L31.90043639336404,0.9928359152414032 L31.93620281897866,0.7961794583554194 L31.964080600295027,0.5982506111777738 L31.98402518527411,0.39936568775167053 L31.99600470007638,0.19984253004485913 L32.0,3.805374453704216e-14 L31.996004700076384,-0.19984253004478308 L31.984025185274117,-0.3993656877515947 L31.964080600295034,-0.5982506111776982 L31.93620281897867,-0.7961794583553443 L31.900436393364053,-0.9928359152413285 L31.856838482490197,-1.1879057012247807 L31.805478761049084,-1.3810770713852847 L31.746439308037182,-1.5720413146986612 L31.67981447558334,-1.760493247394221 L31.60571073816275,-1.946131700675042 L31.524246522438006,-2.128660002021838 L31.435552017999047,-2.307786449311238 L31.3397689693046,-2.4832247769907725 L31.237050449157522,-2.654694613565571 L31.12756061407608,-2.8219219296656446 L31.01147444195218,-2.984639475977697 L30.88897745241567,-3.142587210341587 L30.76026541035172,-3.295512713328899 L30.625544013045065,-3.4431715916394716 L30.48502856145105,-3.58532786867121 L30.338943616118883,-3.7217543616390065 L30.187522638316935,-3.852233044640089 L30.03100761693363,-3.9765553970855647 L29.86964868175015,-4.094522736941343 L29.703703703703066,-4.205946538245858 " />
			<path d="M27.17154704373676,-15.687500000000004 L27.23165226948453,-15.59131153186004 L27.298320850275548,-15.499550102595808 L27.371227983485706,-15.412662764666859 L27.4500184728906,-15.331072824449695 L27.534308459145848,-15.255177779931664 L27.623687289911203,-15.185347384140714 L27.717719520507515,-15.121921843745811 L27.8159470353594,-15.065210161604247 L27.9178912798883,-15.015488631330777 L28.02305559198226,-14.972999491222902 L28.13092762168385,-14.937949744100235 L28.240981827307614,-14.91051014880757 L28.352682035826366,-14.890814388294952 L28.46548405505227,-14.87895841832779 L28.578838324886473,-14.875000000000004 L28.692192594720677,-14.87895841832779 L28.80499461394658,-14.890814388294952 L28.91669482246533,-14.91051014880757 L29.026749028089096,-14.937949744100235 L29.134621057790685,-14.972999491222902 L29.23978536988465,-15.015488631330777 L29.341729614413545,-15.065210161604249 L29.43995712926543,-15.121921843745811 L29.533989359861742,-15.185347384140714 L29.6233681906271,-15.255177779931666 L29.707658176882344,-15.331072824449697 L29.78644866628724,-15.41266276466686 L29.859355799497397,-15.49955010259581 L29.926024380288418,-15.591311531860041 L29.986129606036187,-15.687500000000005 L30.03937865012262,-15.787646886467755 L30.085512088557504,-15.89126428569915 L30.124305163866097,-15.997847384140716 L30.155568880084967,-16.106876919650546 L30.17915092353131,-16.217821711291244 L30.194936404859916,-16.33014124719007 L30.202848418792502,-16.443288317858443 L30.202848418792502,-16.55671168214157 L30.194936404859916,-16.669858752809944 L30.17915092353131,-16.78217828870877 L30.155568880084967,-16.89312308034947 L30.124305163866097,-17.0021526158593 L30.0855120885575,-17.108735714300863 L30.039378650122618,-17.21235311353226 L29.986129606036183,-17.312500000000007 L29.926024380288414,-17.40868846813997 L29.859355799497393,-17.500449897404202 L29.786448666287235,-17.587337235333152 L29.70765817688234,-17.668927175550316 L29.623368190627094,-17.744822220068347 L29.53398935986174,-17.814652615859295 L29.439957129265427,-17.878078156254197 L29.34172961441354,-17.934789838395762 L29.239785369884643,-17.98451136866923 L29.134621057790678,-18.027000508777107 L29.02674902808909,-18.062050255899774 L28.916694822465324,-18.08948985119244 L28.804994613946572,-18.109185611705055 L28.69219259472067,-18.12104158167222 L28.578838324886465,-18.125000000000004 L28.46548405505226,-18.121041581672216 L28.35268203582636,-18.109185611705055 L28.240981827307607,-18.089489851192436 L28.130927621683842,-18.06205025589977 L28.023055591982253,-18.027000508777103 L27.91789127988829,-17.984511368669228 L27.815947035359393,-17.934789838395755 L27.717719520507508,-17.87807815625419 L27.623687289911196,-17.814652615859288 L27.53430845914584,-17.744822220068336 L27.450018472890594,-17.668927175550305 L27.371227983485703,-17.58733723533314 L27.298320850275545,-17.50044989740419 L27.231652269484524,-17.40868846813996 L27.171547043736755,-17.312499999999996 L27.118297999650324,-17.212353113532245 L27.072164561215438,-17.108735714300852 L27.033371485906844,-17.002152615859284 L27.002107769687974,-16.893123080349454 L26.97852572624163,-16.782178288708756 L26.96274024491303,-16.66985875280993 L26.954828230980443,-16.556711682141557 L26.954828230980443,-16.44328831785843 L26.96274024491303,-16.330141247190056 L26.978525726241635,-16.217821711291233 L27.00210776968798,-16.10687691965053 L27.03337148590685,-15.997847384140703 L27.07216456121545,-15.891264285699137 L27.11829799965033,-15.787646886467742 L27.171547043736766,-15.687499999999993 " />
			<path d="M-27.17154704373675,15.687500000000014 L-27.231652269484524,15.59131153186005 L-27.298320850275545,15.49955010259582 L-27.3712279834857,15.41266276466687 L-27.450018472890594,15.331072824449706 L-27.53430845914584,15.255177779931675 L-27.623687289911196,15.185347384140725 L-27.717719520507508,15.121921843745822 L-27.815947035359393,15.065210161604258 L-27.91789127988829,15.015488631330788 L-28.023055591982256,14.972999491222913 L-28.130927621683842,14.937949744100246 L-28.240981827307607,14.91051014880758 L-28.35268203582636,14.890814388294963 L-28.46548405505226,14.8789584183278 L-28.578838324886465,14.875000000000014 L-28.69219259472067,14.8789584183278 L-28.804994613946572,14.890814388294963 L-28.916694822465324,14.91051014880758 L-29.02674902808909,14.937949744100246 L-29.134621057790678,14.972999491222915 L-29.239785369884643,15.015488631330788 L-29.341729614413538,15.06521016160426 L-29.439957129265427,15.121921843745822 L-29.533989359861735,15.185347384140726 L-29.623368190627094,15.255177779931676 L-29.707658176882337,15.331072824449707 L-29.78644866628723,15.412662764666871 L-29.85935579949739,15.499550102595821 L-29.92602438028841,15.591311531860052 L-29.98612960603618,15.687500000000016 L-30.039378650122615,15.787646886467765 L-30.085512088557497,15.89126428569916 L-30.12430516386609,15.997847384140728 L-30.15556888008496,16.106876919650556 L-30.179150923531303,16.217821711291254 L-30.19493640485991,16.33014124719008 L-30.202848418792495,16.443288317858453 L-30.202848418792495,16.556711682141582 L-30.19493640485991,16.669858752809954 L-30.179150923531303,16.78217828870878 L-30.15556888008496,16.89312308034948 L-30.12430516386609,17.00215261585931 L-30.085512088557493,17.108735714300877 L-30.03937865012261,17.21235311353227 L-29.986129606036176,17.312500000000018 L-29.926024380288407,17.40868846813998 L-29.859355799497386,17.500449897404213 L-29.786448666287228,17.587337235333163 L-29.707658176882333,17.668927175550326 L-29.623368190627087,17.744822220068357 L-29.533989359861728,17.81465261585931 L-29.43995712926542,17.878078156254208 L-29.34172961441353,17.934789838395773 L-29.239785369884636,17.984511368669242 L-29.13462105779067,18.027000508777117 L-29.026749028089082,18.062050255899784 L-28.916694822465317,18.08948985119245 L-28.804994613946565,18.109185611705065 L-28.692192594720662,18.12104158167223 L-28.57883832488646,18.125000000000014 L-28.465484055052254,18.121041581672227 L-28.35268203582635,18.109185611705065 L-28.2409818273076,18.089489851192447 L-28.130927621683835,18.06205025589978 L-28.023055591982246,18.027000508777114 L-27.917891279888284,17.98451136866924 L-27.815947035359386,17.934789838395766 L-27.7177195205075,17.8780781562542 L-27.62368728991119,17.8146526158593 L-27.534308459145834,17.744822220068347 L-27.450018472890587,17.668927175550316 L-27.371227983485692,17.587337235333152 L-27.298320850275537,17.500449897404202 L-27.231652269484517,17.40868846813997 L-27.171547043736748,17.312500000000007 L-27.118297999650316,17.212353113532256 L-27.07216456121543,17.108735714300863 L-27.033371485906837,17.002152615859295 L-27.002107769687967,16.893123080349465 L-26.978525726241624,16.782178288708767 L-26.96274024491302,16.66985875280994 L-26.954828230980436,16.556711682141568 L-26.954828230980436,16.44328831785844 L-26.96274024491302,16.330141247190067 L-26.978525726241628,16.21782171129124 L-27.002107769687974,16.106876919650542 L-27.033371485906844,15.997847384140714 L-27.07216456121544,15.891264285699146 L-27.118297999650324,15.787646886467753 L-27.17154704373676,15.687500000000004 " />
			<path d="M27.171547043736762,15.687499999999993 L27.11829799965033,15.787646886467742 L27.072164561215445,15.891264285699137 L27.03337148590685,15.997847384140703 L27.00210776968798,16.10687691965053 L26.97852572624164,16.217821711291233 L26.962740244913032,16.330141247190056 L26.954828230980446,16.44328831785843 L26.954828230980446,16.556711682141557 L26.962740244913032,16.66985875280993 L26.97852572624164,16.782178288708756 L27.00210776968798,16.893123080349454 L27.03337148590685,17.002152615859284 L27.07216456121545,17.10873571430085 L27.11829799965033,17.212353113532245 L27.171547043736762,17.312499999999993 L27.231652269484535,17.408688468139957 L27.29832085027555,17.500449897404188 L27.37122798348571,17.587337235333138 L27.450018472890605,17.6689271755503 L27.53430845914585,17.744822220068333 L27.623687289911206,17.814652615859284 L27.71771952050752,17.878078156254187 L27.815947035359404,17.93478983839575 L27.917891279888302,17.98451136866922 L28.023055591982267,18.027000508777096 L28.130927621683853,18.062050255899763 L28.240981827307618,18.08948985119243 L28.352682035826373,18.109185611705044 L28.465484055052276,18.12104158167221 L28.57883832488648,18.124999999999993 L28.692192594720684,18.12104158167221 L28.804994613946587,18.109185611705044 L28.916694822465338,18.089489851192425 L29.026749028089103,18.06205025589976 L29.134621057790692,18.027000508777093 L29.239785369884654,17.984511368669217 L29.341729614413552,17.934789838395748 L29.439957129265437,17.878078156254183 L29.53398935986175,17.81465261585928 L29.623368190627104,17.74482222006833 L29.70765817688235,17.668927175550298 L29.786448666287246,17.587337235333134 L29.8593557994974,17.500449897404184 L29.92602438028842,17.408688468139953 L29.98612960603619,17.31249999999999 L30.039378650122625,17.212353113532238 L30.085512088557508,17.108735714300845 L30.1243051638661,17.002152615859277 L30.15556888008497,16.893123080349447 L30.179150923531317,16.78217828870875 L30.19493640485992,16.669858752809926 L30.202848418792506,16.55671168214155 L30.202848418792506,16.443288317858425 L30.19493640485992,16.33014124719005 L30.179150923531314,16.217821711291226 L30.15556888008497,16.106876919650528 L30.124305163866097,15.997847384140696 L30.085512088557504,15.89126428569913 L30.039378650122618,15.787646886467735 L29.986129606036187,15.687499999999988 L29.926024380288414,15.591311531860024 L29.859355799497393,15.499550102595792 L29.786448666287235,15.412662764666843 L29.70765817688234,15.331072824449679 L29.623368190627097,15.25517777993165 L29.53398935986174,15.185347384140698 L29.439957129265427,15.121921843745797 L29.34172961441354,15.065210161604233 L29.239785369884643,15.015488631330763 L29.13462105779068,14.97299949122289 L29.026749028089093,14.937949744100223 L28.916694822465328,14.910510148807557 L28.804994613946572,14.89081438829494 L28.69219259472067,14.878958418327777 L28.578838324886465,14.874999999999993 L28.46548405505226,14.878958418327779 L28.352682035826362,14.890814388294942 L28.240981827307607,14.91051014880756 L28.130927621683842,14.937949744100226 L28.023055591982256,14.972999491222895 L27.91789127988829,15.01548863133077 L27.815947035359393,15.065210161604242 L27.717719520507508,15.121921843745806 L27.6236872899112,15.185347384140709 L27.53430845914584,15.25517777993166 L27.450018472890598,15.331072824449691 L27.371227983485703,15.412662764666857 L27.298320850275545,15.499550102595807 L27.231652269484528,15.591311531860038 L27.17154704373676,15.687500000000004 " />
			<path d="M3.842329332324821e-15,31.375 L-0.11335426983419977,31.378958418327784 L-0.2261562890601025,31.39081438829495 L-0.3378564975788551,31.410510148807568 L-0.4479107032026198,31.43794974410023 L-0.5557827329042079,31.4729994912229 L-0.6609470449981715,31.515488631330772 L-0.7628912895270687,31.565210161604245 L-0.8611188043789542,31.62192184374581 L-0.955151034975265,31.685347384140712 L-1.0445298657406226,31.75517777993166 L-1.1288198519958668,31.83107282444969 L-1.207610341400762,31.912662764666855 L-1.2805174746109194,31.999550102595805 L-1.3471860554019388,32.091311531860036 L-1.4072912811497087,32.1875 L-1.4605403252361424,32.28764688646775 L-1.5066737636710257,32.391264285699144 L-1.5454668389796207,32.49784738414071 L-1.5767305551984905,32.60687691965054 L-1.6003125986448343,32.717821711291236 L-1.6160980799734403,32.83014124719006 L-1.6240100939060267,32.94328831785844 L-1.6240100939060267,33.05671168214157 L-1.6160980799734401,33.16985875280994 L-1.6003125986448339,33.282178288708764 L-1.5767305551984898,33.39312308034946 L-1.54546683897962,33.502152615859295 L-1.5066737636710248,33.608735714300856 L-1.4605403252361417,33.71235311353225 L-1.4072912811497078,33.8125 L-1.3471860554019375,33.908688468139964 L-1.2805174746109176,34.000449897404195 L-1.20761034140076,34.087337235333145 L-1.1288198519958648,34.16892717555031 L-1.0445298657406203,34.24482222006834 L-0.9551510349752625,34.314652615859295 L-0.8611188043789514,34.37807815625419 L-0.7628912895270656,34.43478983839576 L-0.6609470449981683,34.484511368669224 L-0.5557827329042043,34.5270005087771 L-0.44791070320261606,34.56205025589977 L-0.33785649757885106,34.58948985119243 L-0.2261562890600983,34.60918561170505 L-0.11335426983419541,34.621041581672216 L8.371204233224377e-15,34.625 L0.11335426983421214,34.621041581672216 L0.226156289060115,34.60918561170505 L0.3378564975788677,34.58948985119243 L0.4479107032026325,34.56205025589977 L0.5557827329042205,34.5270005087771 L0.6609470449981841,34.484511368669224 L0.7628912895270814,34.43478983839575 L0.8611188043789668,34.37807815625419 L0.9551510349752774,34.31465261585929 L1.044529865740635,34.244822220068336 L1.128819851995879,34.1689271755503 L1.207610341400774,34.08733723533314 L1.2805174746109311,34.00044989740419 L1.3471860554019506,33.90868846813996 L1.40729128114972,33.81249999999999 L1.4605403252361533,33.712353113532245 L1.5066737636710361,33.60873571430085 L1.5454668389796307,33.50215261585928 L1.5767305551985,33.393123080349454 L1.6003125986448432,33.28217828870876 L1.616098079973449,33.16985875280993 L1.6240100939060347,33.056711682141554 L1.6240100939060342,32.943288317858425 L1.6160980799734475,32.830141247190056 L1.6003125986448408,32.71782171129123 L1.5767305551984963,32.60687691965053 L1.545466838979626,32.497847384140705 L1.5066737636710303,32.39126428569914 L1.4605403252361466,32.28764688646774 L1.4072912811497125,32.18749999999999 L1.3471860554019415,32.09131153186003 L1.2805174746109214,31.999550102595798 L1.2076103414007633,31.912662764666848 L1.1288198519958677,31.831072824449684 L1.0445298657406228,31.755177779931653 L0.9551510349752648,31.685347384140705 L0.8611188043789535,31.621921843745803 L0.7628912895270674,31.565210161604238 L0.6609470449981698,31.51548863133077 L0.5557827329042057,31.472999491222897 L0.44791070320261744,31.43794974410023 L0.3378564975788523,31.410510148807564 L0.22615628906009946,31.390814388294945 L0.1133542698341965,31.378958418327784 L-7.305979914053917e-15,31.375 " />

       </g>
    </g>
    
</svg>
