<?xml version="1.0" encoding="UTF-8" standalone="no"?>
<svg
   xmlns:svg="http://www.w3.org/2000/svg"
   xmlns="http://www.w3.org/2000/svg"
   width="800.0"
   height="800.0"

>
    <g transform="scale(8.863636363636363, -8.863636363636363)   translate(45.12820512820513,-45.12820512820513)" stroke-width="0.5"  fill="none">
       <!-- hidden lines -->
       <g  stroke="rgb(127,127,127)" fill="none" stroke-dasharray="0.5,0.5" >

       </g>

       <!-- solid lines -->
       <g  stroke="rgb(10,10,10)" fill="none">
			<path d="M0.0,-44.0 L0.5932441565765001,-43.996000515622875 L1.1863804644831797,-43.98400278957672 L1.7793010946565395,-43.964009002985094 L2.371898257242159,-43.93602279061331 L2.9640642211903248,-43.900049240207686 L3.555691333840969,-43.856094891570635 L4.14667204049436,-43.804167735371735 L4.736898903963975,-43.74427721169508 L5.326264624108025,-43.67643420832309 L5.914662057336048,-43.600651058757244 L6.501984236087057,-43.516941539975846 L7.088124388275677,-43.425320869929465 L7.672975956702748,-43.325805704774396 L8.256432618426867,-43.218414135844654 L8.838388304093339,-43.10316568636306 L9.41873721721703,-42.980081307892036 L9.997373853415604,-42.849183376524714 L10.574193019589675,-42.71049568881706 L11.149089853046355,-42.56404345746183 L11.721959840562741,-42.40985330670497 L12.29269883738587,-42.24795326750554 L12.861203086165686,-42.07837277243979 L13.42736923581758,-41.90114265035048 L13.991094360311084,-41.716295120742345 L14.552275977381273,-41.523863787924796 L15.110812067159493,-41.32388363490279 L15.66660109072006,-41.11639101701716 L16.21954200853949,-40.90142365533531 L16.769534298864947,-40.67902062979383 L17.316477975988587,-40.44922237209391 L17.860273608424414,-40.21207065835106 L18.40082233698441,-39.96760860150048 L18.938025892750634,-39.715880643459315 L19.47178661493996,-39.45693254704736 L20.002007468658316,-39.19081138766761 L20.528592062541122,-38.917565544748214 L21.05144466627672,-38.63724469294737 L21.57047022800964,-38.34989979312267 L22.085574391620547,-38.05558308306673 L22.596663513879676,-37.75434806801064 L23.103644681470662,-37.446249510896976 L23.60642572788173,-37.13134342242418 L24.104915250161042,-36.80968705086412 L24.599022625533312,-36.48133887165464 L25.088658027874505,-36.14635857676909 L25.573732444041813,-35.80480706386453 L26.054157690055717,-35.456746425210966 L26.529846427131403,-35.102239936403244 L27.000712177556508,-34.74135204485789 L27.466669340412267,-34.37414835809692 L27.92763320713535,-34.00069563182069 L28.383519976917437,-33.62106175777215 L28.834246771939714,-33.235315751394396 L29.27973165243969,-32.843527739284056 L29.71989363160737,-32.445768946442676 L30.15465269030825,-32.04211168332832 L30.583929791630375,-31.632629332709985 L31.007646895252822,-31.21739633632693 L31.425726971633036,-30.796488181355617 L31.838094016010388,-30.36998138668649 L32.244673062223434,-29.93795348901328 L32.64539019633839,-29.50048302873723 L33.04017257008628,-29.05764953568885 L33.42894841410636,-28.609533514669828 L33.81164705099343,-28.15621643081768 L34.18819890814662,-27.697780694795792 L34.558535530417295,-27.234309647811635 L34.922589592553855,-26.765887546465727 L35.28029491144113,-26.292599547434275 L35.63158645813209,-25.81453169198809 L35.976400369669804,-25.33177089035077 L36.314673960697334,-24.844404905898852 L36.64634573485366,-24.35252233920693 L36.97135539595338,-23.856212611940492 L37.289643858948224,-23.35556595059955 L37.6011532606684,-22.850673370115956 L37.905826970341835,-22.34162665730733 L38.20360959988936,-21.828518354190724 L38.49444701399395,-21.31144174115896 L38.77828633994223,-20.790490820022743 L39.055075977236484,-20.265760296921638 L39.324765606975355,-19.737345565106985 L39.587306201001525,-19.205342687599884 L39.8426500308148,-18.669848379727494 L40.09075067624891,-18.130959991540642 L40.33156303391043,-17.58877549011613 L40.56504332537833,-17.043393441746822 L40.791149105162724,-16.494912994022805 L41.009839268421146,-15.943433857806891 L41.22107405843126,-15.3890562891077 L41.424815073818415,-14.831881070853644 L41.62102527553679,-14.272009494571119 L41.8096689936029,-13.709543341970239 L41.99071193358024,-13.144584866441457 L42.164121182813815,-12.57723677446644 L42.32986521641348,-12.007602206946563 L42.48791390298501,-11.435784720452439 L42.63823851010781,-10.861888268397871 L42.780811709558364,-10.286017182141688 L42.91560758227831,-9.70827615202083 L43.042601623086426,-9.128770208318201 L43.16177074513351,-8.547604702168732 L43.27309328409949,-7.964885286407069 L43.37654900213183,-7.38071789636047 L43.47211909152473,-6.795208730590303 L43.55978617813821,-6.208464231585712 L43.639534324556664,-5.620591066412929 L43.71134903298619,-5.031696107323767 L43.77521724789023,-4.4418864123268 L43.831127358362984,-3.8512692057247833 L43.879069200240195,-3.259951858621839 L43.91903405794699,-2.668041869403951 L43.95101466608226,-2.0756468441963265 L43.97500521073953,-1.482874477301165 L43.99100133056386,-0.8898325316194033 L43.99900011754475,-0.29662881905998373 L43.99900011754475,0.29662881905978294 L43.99100133056387,0.8898325316192026 L43.97500521073954,1.4828744773009643 L43.951014666082266,2.0756468441961258 L43.919034057946995,2.6680418694037504 L43.87906920024022,3.2599518586216387 L43.831127358363,3.8512692057245834 L43.775217247890254,4.4418864123266 L43.71134903298621,5.031696107323567 L43.63953432455669,5.62059106641273 L43.55978617813824,6.208464231585513 L43.47211909152477,6.7952087305901046 L43.37654900213187,7.380717896360272 L43.273093284099524,7.964885286406872 L43.16177074513355,8.547604702168535 L43.04260162308646,9.128770208318006 L42.915607582278355,9.708276152020632 L42.780811709558414,10.286017182141492 L42.63823851010786,10.861888268397676 L42.487913902985056,11.435784720452244 L42.32986521641354,12.00760220694637 L42.16412118281388,12.57723677446625 L41.99071193358031,13.144584866441265 L41.80966899360296,13.709543341970045 L41.62102527553685,14.272009494570927 L41.42481507381848,14.831881070853456 L41.22107405843133,15.389056289107513 L41.00983926842122,15.943433857806705 L40.7911491051628,16.49491299402262 L40.56504332537841,17.043393441746638 L40.331563033910506,17.58877549011595 L40.090750676248994,18.13095999154046 L39.84265003081488,18.66984837972732 L39.58730620100161,19.205342687599714 L39.32476560697544,19.737345565106814 L39.05507597723657,20.26576029692147 L38.77828633994232,20.790490820022573 L38.49444701399404,21.31144174115879 L38.203609599889454,21.828518354190557 L37.905826970341934,22.341626657307167 L37.6011532606685,22.850673370115793 L37.289643858948324,23.35556595059939 L36.97135539595349,23.85621261194033 L36.64634573485377,24.352522339206775 L36.31467396069744,24.844404905898696 L35.97640036966991,25.331770890350615 L35.631586458132205,25.814531691987934 L35.280294911441246,26.292599547434126 L34.92258959255397,26.765887546465578 L34.55853553041741,27.234309647811482 L34.18819890814674,27.69778069479564 L33.81164705099355,28.15621643081753 L33.42894841410648,28.609533514669685 L33.040172570086405,29.057649535688707 L32.64539019633852,29.500483028737086 L32.24467306222356,29.93795348901314 L31.83809401601052,30.369981386686348 L31.425726971633168,30.79648818135548 L31.007646895252954,31.217396336326797 L30.58392979163051,31.63262933270985 L30.15465269030839,32.04211168332819 L29.719893631607512,32.44576894644255 L29.279731652439832,32.84352773928393 L28.83424677193986,33.23531575139427 L28.383519976917583,33.621061757772026 L27.927633207135504,34.00069563182057 L27.466669340412416,34.3741483580968 L27.00071217755666,34.74135204485778 L26.52984642713156,35.10223993640313 L26.05415769005587,35.45674642521085 L25.57373244404197,35.804807063864416 L25.08865802787466,36.146358576768975 L24.59902262553347,36.481338871654536 L24.104915250161206,36.809687050864014 L23.60642572788189,37.131343422424074 L23.10364468147083,37.44624951089688 L22.59666351387984,37.75434806801054 L22.085574391620714,38.05558308306664 L21.570470228009807,38.349899793122574 L21.051444666276886,38.63724469294728 L20.528592062541293,38.91756554474813 L20.00200746865849,39.190811387667516 L19.471786614940136,39.45693254704727 L18.938025892750815,39.715880643459236 L18.400822336984596,39.9676086015004 L17.8602736084246,40.212070658350974 L17.31647797598878,40.44922237209383 L16.769534298865143,40.67902062979375 L16.21954200853969,40.90142365533523 L15.666601090720262,41.11639101701708 L15.110812067159697,41.32388363490272 L14.55227597738148,41.523863787924725 L13.991094360311296,41.716295120742274 L13.427369235817794,41.90114265035041 L12.861203086165903,42.07837277243973 L12.29269883738609,42.24795326750547 L11.721959840562963,42.40985330670491 L11.149089853046583,42.564043457461764 L10.574193019589904,42.710495688817005 L9.997373853415835,42.849183376524664 L9.418737217217263,42.98008130789199 L8.838388304093575,43.10316568636301 L8.256432618427104,43.21841413584461 L7.672975956702986,43.32580570477435 L7.088124388275918,43.42532086992943 L6.5019842360873,43.51694153997581 L5.914662057336292,43.60065105875721 L5.326264624108271,43.67643420832306 L4.736898903964223,43.74427721169505 L4.146672040494608,43.80416773537171 L3.5556913338412195,43.85609489157061 L2.9640642211905766,43.900049240207665 L2.371898257242412,43.936022790613286 L1.7793010946567944,43.96400900298508 L1.186380464483436,43.984002789576714 L0.593244156576758,43.99600051562287 L2.5940747395048416e-13,44.0 L-0.5932441565762392,43.996000515622875 L-1.1863804644829175,43.98400278957673 L-1.779301094656276,43.9640090029851 L-2.3718982572418943,43.93602279061332 L-2.9640642211900587,43.90004924020771 L-3.555691333840702,43.85609489157066 L-4.146672040494091,43.80416773537176 L-4.736898903963707,43.744277211695106 L-5.326264624107756,43.67643420832312 L-5.914662057335779,43.600651058757286 L-6.501984236086788,43.51694153997589 L-7.088124388275404,43.42532086992951 L-7.672975956702476,43.325805704774446 L-8.256432618426595,43.218414135844704 L-8.838388304093067,43.10316568636312 L-9.418737217216757,42.9800813078921 L-9.997373853415331,42.84918337652478 L-10.574193019589401,42.71049568881713 L-11.14908985304608,42.5640434574619 L-11.721959840562466,42.409853306705045 L-12.292698837385592,42.24795326750562 L-12.861203086165407,42.07837277243988 L-13.4273692358173,41.901142650350565 L-13.991094360310804,41.71629512074244 L-14.552275977380988,41.523863787924896 L-15.110812067159209,41.3238836349029 L-15.666601090719778,41.116391017017264 L-16.219542008539207,40.90142365533542 L-16.769534298864667,40.679020629793946 L-17.316477975988303,40.44922237209403 L-17.860273608424126,40.21207065835119 L-18.400822336984124,39.967608601500615 L-18.938025892750346,39.71588064345946 L-19.47178661493967,39.4569325470475 L-20.00200746865803,39.19081138766775 L-20.528592062540834,38.91756554474837 L-21.05144466627643,38.637244692947526 L-21.570470228009356,38.34989979312282 L-22.085574391620263,38.05558308306689 L-22.596663513879392,37.75434806801081 L-23.103644681470385,37.446249510897154 L-23.60642572788145,37.13134342242436 L-24.104915250160772,36.8096870508643 L-24.59902262553304,36.481338871654835 L-25.08865802787424,36.14635857676927 L-25.573732444041546,35.804807063864715 L-26.054157690055455,35.45674642521116 L-26.529846427131144,35.10223993640344 L-27.00071217755625,34.74135204485809 L-27.46666934041201,34.374148358097116 L-27.927633207135102,34.000695631820896 L-28.38351997691718,33.62106175777236 L-28.83424677193947,33.23531575139461 L-29.279731652439445,32.843527739284276 L-29.71989363160713,32.4457689464429 L-30.154652690308012,32.04211168332855 L-30.583929791630137,31.632629332710213 L-31.007646895252588,31.217396336327162 L-31.425726971632805,30.79648818135585 L-31.838094016010157,30.369981386686725 L-32.244673062223214,29.937953489013523 L-32.64539019633817,29.500483028737474 L-33.04017257008606,29.057649535689098 L-33.42894841410616,28.609533514670062 L-33.811647050993244,28.1562164308179 L-34.18819890814645,27.697780694796002 L-34.55853553041714,27.234309647811827 L-34.92258959255372,26.76588754646591 L-35.280294911441004,26.292599547434445 L-35.631586458131984,25.814531691988247 L-35.976400369669705,25.331770890350906 L-36.31467396069725,24.84440490589898 L-36.64634573485359,24.35252233920704 L-36.971355395953324,23.856212611940585 L-37.289643858948175,23.35556595059963 L-37.601153260668355,22.85067337011602 L-37.90582697034181,22.341626657307376 L-38.20360959988935,21.828518354190756 L-38.49444701399394,21.311441741158973 L-38.77828633994223,20.79049082002274 L-39.0550759772365,20.26576029692162 L-39.324765606975376,19.737345565106946 L-39.587306201001546,19.205342687599828 L-39.84265003081484,18.66984837972742 L-40.09075067624896,18.13095999154055 L-40.33156303391048,17.58877549011602 L-40.56504332537839,17.04339344174669 L-40.79114910516279,16.494912994022656 L-41.00983926842121,15.943433857806724 L-41.22107405843133,15.389056289107515 L-41.424815073818486,14.831881070853438 L-41.62102527553686,14.272009494570892 L-41.809668993602976,13.709543341969992 L-41.99071193358032,13.144584866441193 L-42.1641211828139,12.577236774466156 L-42.329865216413566,12.007602206946258 L-42.48791390298509,11.435784720452114 L-42.6382385101079,10.861888268397527 L-42.78081170955845,10.286017182141322 L-42.9156075822784,9.708276152020442 L-43.04260162308651,9.128770208317796 L-43.161770745133595,8.547604702168305 L-43.273093284099566,7.964885286406623 L-43.37654900213192,7.380717896360004 L-43.47211909152481,6.795208730589816 L-43.55978617813828,6.208464231585204 L-43.63953432455673,5.620591066412401 L-43.711349032986256,5.031696107323219 L-43.77521724789029,4.441886412326232 L-43.831127358363034,3.8512692057241953 L-43.879069200240245,3.2599518586212306 L-43.91903405794703,2.6680418694033223 L-43.95101466608229,2.0756468441956777 L-43.97500521073955,1.4828744773004967 L-43.991001330563876,0.8898325316187152 L-43.99900011754476,0.29662881905927596 L-43.999000117544746,-0.2966288190605103 L-43.991001330563854,-0.8898325316199492 L-43.97500521073951,-1.4828744773017304 L-43.95101466608223,-2.075646844196911 L-43.91903405794695,-2.6680418694045547 L-43.87906920024015,-3.2599518586224616 L-43.83112735836293,-3.8512692057254245 L-43.77521724789017,-4.4418864123274595 L-43.711349032986114,-5.0316961073244455 L-43.63953432455657,-5.620591066413626 L-43.55978617813811,-6.208464231586426 L-43.47211909152462,-6.795208730591035 L-43.3765490021317,-7.38071789636122 L-43.273093284099346,-7.964885286407837 L-43.16177074513335,-8.547604702169515 L-43.042601623086256,-9.128770208319004 L-42.91560758227813,-9.708276152021647 L-42.780811709558165,-10.286017182142523 L-42.63823851010759,-10.861888268398722 L-42.48791390298477,-11.435784720453306 L-42.32986521641323,-12.007602206947444 L-42.16412118281355,-12.57723677446734 L-41.99071193357996,-13.14458486644237 L-41.80966899360259,-13.709543341971164 L-41.62102527553646,-14.272009494572059 L-41.424815073818074,-14.831881070854601 L-41.2210740584309,-15.38905628910867 L-41.00983926842076,-15.943433857807873 L-40.79114910516232,-16.4949129940238 L-40.565043325377914,-17.043393441747828 L-40.33156303390998,-17.58877549011715 L-40.09075067624844,-18.130959991541673 L-39.84265003081431,-18.66984837972854 L-39.58730620100101,-19.20534268760094 L-39.32476560697482,-19.737345565108047 L-39.05507597723593,-20.265760296922714 L-38.778286339941644,-20.790490820023827 L-38.494447013993344,-21.311441741160053 L-38.203609599888736,-21.828518354191825 L-37.90582697034118,-22.341626657308442 L-37.601153260667715,-22.85067337011707 L-37.28964385894752,-23.355565950600674 L-36.971355395952656,-23.85621261194162 L-36.64634573485291,-24.35252233920807 L-36.31467396069655,-24.8444049059 L-35.976400369668994,-25.33177089035192 L-35.63158645813126,-25.814531691989245 L-35.280294911440265,-26.292599547435433 L-34.92258959255297,-26.765887546466892 L-34.55853553041637,-27.234309647812797 L-34.18819890814567,-27.69778069479696 L-33.811647050992455,-28.15621643081885 L-33.42894841410535,-28.609533514671 L-33.04017257008525,-29.05764953569002 L-32.64539019633733,-29.5004830287384 L-32.24467306222234,-29.937953489014454 L-31.83809401600927,-30.369981386687662 L-31.42572697163189,-30.79648818135679 L-31.007646895251646,-31.2173963363281 L-30.583929791629163,-31.632629332711154 L-30.154652690307014,-32.04211168332949 L-29.719893631606105,-32.445768946443835 L-29.279731652438393,-32.843527739285214 L-28.834246771938385,-33.23531575139555 L-28.38351997691608,-33.6210617577733 L-27.927633207133965,-34.00069563182183 L-27.466669340410846,-34.37414835809805 L-27.00071217755506,-34.74135204485902 L-26.529846427129925,-35.10223993640437 L-26.054157690054204,-35.456746425212074 L-25.573732444040274,-35.804807063865624 L-25.08865802787293,-36.146358576770176 L-24.599022625531703,-36.48133887165572 L-24.10491525015941,-36.809687050865186 L-23.606425727880065,-37.13134342242524 L-23.103644681468968,-37.44624951089803 L-22.59666351387795,-37.75434806801167 L-22.085574391618792,-38.055583083067745 L-21.570470228007853,-38.34989979312367 L-21.0514446662749,-38.63724469294836 L-20.528592062539275,-38.91756554474919 L-20.00200746865644,-39.19081138766856 L-19.471786614938054,-39.4569325470483 L-18.9380258927487,-39.71588064346024 L-18.400822336982454,-39.96760860150139 L-17.86027360842243,-40.21207065835195 L-17.316477975986576,-40.449222372094766 L-16.769534298862908,-40.67902062979467 L-16.219542008537424,-40.90142365533613 L-15.666601090717966,-41.11639101701795 L-15.110812067157372,-41.323883634903574 L-14.552275977379123,-41.52386378792555 L-13.991094360308912,-41.71629512074307 L-13.42736923581538,-41.901142650351176 L-12.86120308616346,-42.07837277244047 L-12.292698837383618,-42.24795326750619 L-11.721959840560466,-42.4098533067056 L-11.149089853044055,-42.564043457462425 L-10.574193019587348,-42.71049568881764 L-9.997373853413253,-42.84918337652526 L-9.418737217214654,-42.98008130789256 L-8.83838830409094,-43.10316568636355 L-8.256432618424443,-43.218414135845116 L-7.672975956700299,-43.32580570477483 L-7.088124388273203,-43.42532086992987 L-6.501984236084561,-43.516941539976216 L-5.914662057333529,-43.600651058757585 L-5.326264624105483,-43.6764342083234 L-4.736898903961411,-43.74427721169535 L-4.146672040491773,-43.80416773537198 L-3.555691333838362,-43.85609489157085 L-2.964064221187696,-43.90004924020786 L-2.3718982572395104,-43.93602279061344 L-1.779301094653871,-43.9640090029852 L-1.186380464480492,-43.98400278957679 L-0.5932441565737936,-43.9960005156229 L2.7248126408438892e-12,-44.0 " />
			<path d="M0.0,-42.0 L0.5786961240520452,-41.99601303452516 L1.1572823794628038,-41.98405289504796 L1.7356489184501547,-41.96412185226664 L2.3136859349463483,-41.93622369019928 L2.891283685445292,-41.900363705465345 L3.468332509837958,-41.85654870628014 L4.044722852231957,-41.80478701116216 L4.62034528175133,-41.74508844735388 L5.1950905133126,-41.677464348955894 L5.768849428373143,-41.60192755477514 L6.341513095647949,-41.51849240588735 L6.912972791790824,-41.42717474291434 L7.483120022036108,-41.32799190301656 L8.051846540797014,-41.22096271660155 L8.61904437221664,-41.10610750374889 L9.184605830667783,-40.983448070352296 L9.748423541197647,-40.853007703979685 L10.310390459913565,-40.71481116945188 L10.870399894305871,-40.56888470414087 L11.428345523504069,-40.415256012988515 L11.98412141846242,-40.25395426324661 L12.53762206207117,-40.08501007893931 L13.088742369189532,-39.908455535048994 L13.637377706596705,-39.72432415142666 L14.183423912857043,-39.53265088642798 L14.726777318095683,-39.3334721302763 L15.267334763680854,-39.126825698153716 L15.804993621809087,-38.912750823021675 L16.339651814989693,-38.69128814817237 L16.871207835424716,-38.46247971951241 L17.399560764280753,-38.226368977580144 L17.924610290848953,-37.983000749298256 L18.446256731589553,-37.732421239463115 L18.964401049057354,-37.47467802197255 L19.478944870704503,-37.20982003079368 L19.98979050755709,-36.93789755067254 L20.496840972761916,-36.65896220758722 L20.999999999999996,-36.373066958946424 L21.49917206176324,-36.08026608353518 L21.99426238749087,-35.78061517120974 L22.485176981562137,-35.474171112343534 L22.971822641141927,-35.1609920870262 L23.454106973875792,-34.84113755401782 L23.93193841543118,-34.5146682394603 L24.405226246881405,-34.181646125348195 L24.87388061192916,-33.84213443776108 L25.337812533966197,-33.496197634859776 L25.79693393296605,-33.14390139464853 L26.251157642206493,-32.78531260250577 L26.700397424818657,-32.42049933848548 L27.14456799015952,-32.049530864391876 L27.583585010004843,-31.67247761062964 L28.017365134559352,-31.289411162832355 L28.445826008281127,-30.90040424827153 L28.868886285517263,-30.505530722048967 L29.286465645947807,-30.104865553074955 L29.698484809834994,-29.698484809834998 L30.10486555307495,-29.286465645947807 L30.505530722048967,-28.868886285517263 L30.900404248271528,-28.445826008281127 L31.289411162832355,-28.017365134559356 L31.67247761062964,-27.583585010004846 L32.04953086439187,-27.14456799015952 L32.42049933848548,-26.700397424818657 L32.78531260250577,-26.251157642206497 L33.14390139464853,-25.79693393296605 L33.496197634859776,-25.337812533966197 L33.84213443776108,-24.87388061192916 L34.18164612534819,-24.405226246881412 L34.5146682394603,-23.93193841543118 L34.84113755401782,-23.454106973875792 L35.1609920870262,-22.97182264114193 L35.47417111234353,-22.48517698156214 L35.78061517120974,-21.994262387490874 L36.08026608353517,-21.49917206176325 L36.37306695894642,-21.000000000000014 L36.658962207587216,-20.496840972761934 L36.93789755067253,-19.989790507557107 L37.20982003079367,-19.478944870704527 L37.47467802197254,-18.964401049057383 L37.7324212394631,-18.44625673158959 L37.98300074929824,-17.924610290848992 L38.22636897758013,-17.399560764280796 L38.462479719512395,-16.871207835424766 L38.691288148172355,-16.339651814989747 L38.91275082302165,-15.804993621809146 L39.126825698153695,-15.267334763680914 L39.33347213027628,-14.726777318095749 L39.53265088642796,-14.183423912857112 L39.72432415142663,-13.63737770659678 L39.908455535048965,-13.088742369189614 L40.085010078939284,-12.537622062071254 L40.253954263246584,-11.984121418462513 L40.415256012988486,-11.428345523504163 L40.56888470414084,-10.87039989430597 L40.71481116945185,-10.310390459913666 L40.853007703979664,-9.748423541197754 L40.983448070352274,-9.184605830667897 L41.106107503748866,-8.619044372216758 L41.22096271660153,-8.051846540797136 L41.32799190301654,-7.483120022036235 L41.42717474291432,-6.912972791790955 L41.51849240588733,-6.341513095648087 L41.601927554775116,-5.768849428373285 L41.67746434895587,-5.1950905133127465 L41.74508844735386,-4.620345281751482 L41.80478701116215,-4.0447228522321135 L41.85654870628012,-3.4683325098381186 L41.90036370546534,-2.8912836854454578 L41.93622369019927,-2.313685934946519 L41.964121852266636,-1.73564891845033 L41.98405289504795,-1.1572823794629836 L41.996013034525156,-0.5786961240522297 L42.0,-1.8908922641523574e-13 L41.99601303452516,0.5786961240518516 L41.98405289504797,1.1572823794626057 L41.96412185226665,1.7356489184499522 L41.93622369019929,2.3136859349461414 L41.90036370546537,2.8912836854450807 L41.85654870628015,3.4683325098377416 L41.80478701116218,4.044722852231737 L41.7450884473539,4.620345281751106 L41.67746434895592,5.195090513312371 L41.601927554775166,5.768849428372911 L41.518492405887386,6.341513095647713 L41.42717474291438,6.912972791790582 L41.3279919030166,7.4831200220358625 L41.220962716601605,8.051846540796765 L41.10610750374894,8.619044372216388 L40.98344807035235,9.184605830667527 L40.85300770397975,9.748423541197388 L40.71481116945195,10.3103904599133 L40.56888470414094,10.870399894305605 L40.41525601298859,11.428345523503799 L40.25395426324669,11.984121418462149 L40.0850100789394,12.537622062070895 L39.908455535049086,13.088742369189255 L39.72432415142675,13.637377706596423 L39.53265088642809,14.183423912856755 L39.33347213027641,14.726777318095394 L39.12682569815383,15.267334763680562 L38.912750823021796,15.804993621808794 L38.6912881481725,16.3396518149894 L38.462479719512544,16.871207835424418 L38.226368977580286,17.39956076428045 L37.9830007492984,17.92461029084865 L37.732421239463264,18.446256731589248 L37.4746780219727,18.96440104905704 L37.20982003079384,19.478944870704193 L36.93789755067271,19.989790507556776 L36.6589622075874,20.496840972761603 L36.3730669589466,20.999999999999684 L36.08026608353536,21.499172061762923 L35.78061517120993,21.994262387490554 L35.47417111234373,22.48517698156182 L35.16099208702641,22.97182264114161 L34.84113755401803,23.454106973875472 L34.51466823946052,23.93193841543086 L34.18164612534842,24.405226246881085 L33.84213443776132,24.87388061192884 L33.49619763486002,25.337812533965874 L33.14390139464878,25.796933932965725 L32.785312602506025,26.251157642206174 L32.42049933848574,26.70039742481833 L32.049530864392146,27.144567990159196 L31.672477610629922,27.583585010004523 L31.289411162832643,28.01736513455903 L30.900404248271826,28.445826008280804 L30.50553072204927,28.86888628551694 L30.104865553075264,29.28646564594749 L29.698484809835314,29.698484809834675 L29.286465645948134,30.104865553074635 L28.868886285517597,30.50553072204865 L28.445826008281465,30.900404248271215 L28.017365134559704,31.289411162832042 L27.5835850100052,31.67247761062933 L27.14456799015988,32.04953086439156 L26.70039742481903,32.42049933848517 L26.251157642206877,32.78531260250546 L25.796933932966436,33.143901394648225 L25.33781253396659,33.49619763485948 L24.873880611929565,33.842134437760784 L24.40522624688182,34.181646125347896 L23.9319384154316,34.51466823946 L23.454106973876222,34.84113755401753 L22.971822641142364,35.16099208702592 L22.485176981562585,35.47417111234324 L21.99426238749132,35.78061517120946 L21.4991720617637,36.0802660835349 L21.000000000000465,36.373066958946154 L20.496840972762392,36.65896220758696 L19.98979050755757,36.93789755067228 L19.478944870704993,37.20982003079342 L18.96440104905785,37.474678021972295 L18.44625673159006,37.732421239462866 L17.924610290849465,37.983000749298014 L17.399560764281276,38.22636897757991 L16.871207835425245,38.46247971951218 L16.33965181499023,38.69128814817215 L15.804993621809631,38.912750823021454 L15.267334763681403,39.1268256981535 L14.72677731809624,39.33347213027609 L14.183423912857606,39.53265088642778 L13.637377706597276,39.72432415142646 L13.088742369190113,39.9084555350488 L12.537622062071755,40.08501007893913 L11.984121418463015,40.253954263246435 L11.42834552350467,40.41525601298835 L10.870399894306477,40.56888470414071 L10.310390459914176,40.71481116945172 L9.748423541198266,40.853007703979536 L9.184605830668408,40.98344807035215 L8.619044372217271,41.10610750374876 L8.051846540797651,41.22096271660143 L7.483120022036751,41.32799190301644 L6.912972791791473,41.42717474291423 L6.341513095648605,41.51849240588725 L5.768849428373805,41.601927554775045 L5.195090513313267,41.67746434895581 L4.620345281752003,41.7450884473538 L4.044722852232636,41.8047870111621 L3.4683325098386413,41.85654870628008 L2.891283685445982,41.9003637054653 L2.313685934947043,41.93622369019924 L1.7356489184508543,41.964121852266615 L1.1572823794635083,41.98405289504794 L0.5786961240527545,41.99601303452515 L7.139098954771189e-13,42.0 L-0.5786961240513269,41.99601303452517 L-1.157282379462081,41.98405289504798 L-1.735648918449428,41.96412185226667 L-2.3136859349456174,41.93622369019932 L-2.891283685444557,41.900363705465395 L-3.4683325098372184,41.85654870628019 L-4.044722852231215,41.80478701116223 L-4.620345281750584,41.745088447353965 L-5.19509051331185,41.677464348955986 L-5.768849428372391,41.601927554775244 L-6.341513095647194,41.518492405887464 L-6.9129727917900645,41.42717474291447 L-7.483120022035346,41.327991903016695 L-8.05184654079625,41.2209627166017 L-8.619044372215875,41.10610750374905 L-9.184605830667016,40.983448070352466 L-9.748423541196876,40.85300770397987 L-10.310390459912792,40.71481116945207 L-10.870399894305097,40.56888470414108 L-11.428345523503296,40.415256012988735 L-11.984121418461648,40.25395426324685 L-12.537622062070394,40.085010078939554 L-13.088742369188756,39.90845553504925 L-13.637377706595926,39.72432415142693 L-14.183423912856261,39.53265088642826 L-14.726777318094902,39.33347213027659 L-15.267334763680072,39.12682569815402 L-15.80499362180831,38.912750823021995 L-16.339651814988915,38.6912881481727 L-16.871207835423938,38.46247971951276 L-17.399560764279972,38.2263689775805 L-17.924610290848175,37.98300074929862 L-18.44625673158878,37.73242123946349 L-18.964401049056576,37.47467802197294 L-19.478944870703728,37.209820030794084 L-19.989790507556314,36.93789755067296 L-20.496840972761145,36.658962207587656 L-20.99999999999923,36.37306695894687 L-21.499172061762476,36.08026608353563 L-21.994262387490107,35.78061517121021 L-22.485176981561377,35.47417111234401 L-22.97182264114117,35.1609920870267 L-23.454106973875035,34.84113755401833 L-23.931938415430423,34.51466823946082 L-24.40522624688066,34.18164612534872 L-24.873880611928413,33.84213443776163 L-25.337812533965455,33.49619763486033 L-25.796933932965313,33.143901394649106 L-26.25115764220576,32.78531260250636 L-26.70039742481793,32.42049933848608 L-27.144567990158794,32.04953086439249 L-27.583585010004125,31.672477610630267 L-28.01736513455864,31.28941116283299 L-28.445826008280417,30.900404248272178 L-28.86888628551656,30.505530722049635 L-29.28646564594711,30.10486555307563 L-29.69848480983431,29.698484809835687 L-30.10486555307427,29.28646564594851 L-30.50553072204829,28.86888628551798 L-30.90040424827086,28.445826008281852 L-31.28941116283169,28.017365134560098 L-31.672477610628984,27.5835850100056 L-32.04953086439122,27.144567990160283 L-32.42049933848484,26.700397424819435 L-32.78531260250514,26.251157642207286 L-33.143901394647905,25.79693393296685 L-33.49619763485916,25.337812533967014 L-33.84213443776048,24.87388061192999 L-34.18164612534759,24.40522624688225 L-34.5146682394597,23.93193841543203 L-34.84113755401724,23.454106973876655 L-35.16099208702563,22.971822641142804 L-35.474171112342965,22.48517698156303 L-35.780615171209185,21.99426238749177 L-36.08026608353464,21.49917206176415 L-36.37306695894589,21.000000000000924 L-36.658962207586704,20.49684097276285 L-36.93789755067203,19.98979050755803 L-37.20982003079318,19.478944870705455 L-37.47467802197206,18.964401049058317 L-37.73242123946264,18.44625673159053 L-37.98300074929779,17.92461029084994 L-38.226368977579696,17.399560764281752 L-38.462479719511975,16.871207835425725 L-38.69128814817194,16.339651814990713 L-38.912750823021256,15.804993621810118 L-39.12682569815331,15.267334763681893 L-39.33347213027591,14.726777318096731 L-39.532650886427604,14.183423912858101 L-39.72432415142629,13.637377706597773 L-39.90845553504864,13.088742369190612 L-40.08501007893897,12.537622062072256 L-40.253954263246285,11.984121418463516 L-40.4152560129882,11.428345523505175 L-40.56888470414057,10.870399894306983 L-40.71481116945159,10.310390459914684 L-40.853007703979415,9.748423541198775 L-40.98344807035204,9.184605830668922 L-41.10610750374865,8.619044372217784 L-41.22096271660133,8.051846540798167 L-41.32799190301635,7.483120022037268 L-41.42717474291415,6.91297279179199 L-41.51849240588717,6.341513095649124 L-41.601927554774974,5.768849428374325 L-41.677464348955745,5.195090513313788 L-41.74508844735375,4.620345281752526 L-41.80478701116204,4.044722852233158 L-41.85654870628004,3.468332509839165 L-41.90036370546527,2.891283685446505 L-41.93622369019921,2.313685934947567 L-41.964121852266594,1.7356489184513788 L-41.984052895047924,1.157282379464033 L-41.99601303452514,0.5786961240532793 L-42.0,1.2387305645390019e-12 L-41.99601303452518,-0.5786961240508021 L-41.984052895047995,-1.1572823794615563 L-41.96412185226669,-1.7356489184489035 L-41.93622369019935,-2.3136859349450933 L-41.90036370546544,-2.891283685444033 L-41.856548706280236,-3.4683325098366957 L-41.80478701116228,-4.0447228522306915 L-41.74508844735402,-4.620345281750063 L-41.67746434895605,-5.19509051331133 L-41.601927554775315,-5.768849428371871 L-41.51849240588754,-6.3415130956466745 L-41.42717474291455,-6.912972791789547 L-41.32799190301679,-7.4831200220348295 L-41.220962716601804,-8.051846540795735 L-41.10610750374916,-8.61904437221536 L-40.98344807035259,-9.184605830666504 L-40.85300770397999,-9.748423541196367 L-40.714811169452204,-10.310390459912282 L-40.56888470414121,-10.87039989430459 L-40.415256012988884,-11.42834552350279 L-40.253954263246996,-11.984121418461143 L-40.08501007893971,-12.537622062069893 L-39.90845553504941,-13.088742369188257 L-39.72432415142709,-13.63737770659543 L-39.532650886428435,-14.183423912855767 L-39.333472130276775,-14.726777318094413 L-39.126825698154214,-15.267334763679585 L-38.912750823022186,-15.804993621807823 L-38.69128814817291,-16.33965181498843 L-38.46247971951296,-16.87120783542346 L-38.22636897758072,-17.399560764279496 L-37.983000749298846,-17.924610290847703 L-37.732421239463726,-18.446256731588306 L-37.474678021973176,-18.964401049056107 L-37.20982003079433,-19.478944870703263 L-36.937897550673206,-19.989790507555853 L-36.65896220758791,-20.496840972760687 L-36.37306695894713,-20.999999999998774 L-36.0802660835359,-21.499172061762025 L-35.780615171210485,-21.99426238748966 L-35.474171112344294,-22.485176981560933 L-35.16099208702698,-22.971822641140726 L-34.84113755401862,-23.4541069738746 L-34.514668239461116,-23.931938415429997 L-34.18164612534903,-24.40522624688023 L-33.84213443776194,-24.87388061192799 L-33.49619763486065,-25.337812533965035 L-33.14390139464943,-25.796933932964897 L-32.785312602506686,-26.251157642205353 L-32.42049933848641,-26.700397424817524 L-32.04953086439283,-27.144567990158393 L-31.67247761063061,-27.58358501000373 L-31.289411162833343,-28.01736513455825 L-30.900404248272533,-28.44582600828003 L-30.505530722049993,-28.86888628551618 L-30.104865553075996,-29.286465645946734 L-29.698484809836057,-29.698484809833936 L-29.286465645948887,-30.1048655530739 L-28.868886285518357,-30.505530722047926 L-28.44582600828224,-30.9004042482705 L-28.017365134560485,-31.289411162831342 L-27.583585010005994,-31.67247761062864 L-27.144567990160684,-32.04953086439089 L-26.70039742481984,-32.420499338484504 L-26.251157642207698,-32.7853126025048 L-25.796933932967264,-33.143901394647585 L-25.337812533967433,-33.49619763485884 L-24.87388061193041,-33.842134437760166 L-24.405226246882673,-34.181646125347285 L-23.931938415432462,-34.514668239459404 L-23.454106973877092,-34.841137554016946 L-22.971822641143245,-35.16099208702534 L-22.48517698156347,-35.47417111234269 L-21.994262387492217,-35.780615171208915 L-21.499172061764604,-36.08026608353437 L-21.000000000001375,-36.37306695894563 L-20.49684097276331,-36.65896220758645 L-19.989790507558492,-36.93789755067178 L-19.478944870705924,-37.20982003079294 L-18.964401049058786,-37.47467802197182 L-18.446256731591003,-37.732421239462404 L-17.924610290850413,-37.98300074929757 L-17.399560764282228,-38.226368977579476 L-16.871207835426205,-38.462479719511755 L-16.339651814991196,-38.691288148171736 L-15.804993621810603,-38.91275082302106 L-15.26733476368238,-39.12682569815312 L-14.726777318097223,-39.33347213027572 L-14.183423912858595,-39.532650886427426 L-13.637377706598269,-39.72432415142612 L-13.08874236919111,-39.908455535048475 L-12.537622062072758,-40.085010078938815 L-11.98412141846402,-40.253954263246136 L-11.428345523505678,-40.41525601298806 L-10.870399894307491,-40.56888470414044 L-10.310390459915194,-40.714811169451465 L-9.748423541199287,-40.853007703979294 L-9.184605830669433,-40.983448070351926 L-8.6190443722183,-41.10610750374854 L-8.051846540798682,-41.22096271660122 L-7.483120022037784,-41.327991903016255 L-6.912972791792508,-41.427174742914055 L-6.341513095649643,-41.518492405887095 L-5.768849428374844,-41.6019275547749 L-5.195090513314309,-41.67746434895568 L-4.620345281753046,-41.74508844735369 L-4.04472285223368,-41.804787011162 L-3.4683325098396875,-41.85654870627999 L-2.8912836854470285,-41.90036370546523 L-2.313685934948091,-41.936223690199185 L-1.7356489184519033,-41.96412185226657 L-1.1572823794645575,-41.98405289504791 L-0.578696124053804,-41.996013034525134 L-1.763551233600885e-12,-42.0 " />
			<path d="M1.0150610510858574e-15,-38.0000000000002 L0.5501214314572382,-37.99601777042782 L1.1001275623969626,-37.984071916350274 L1.649903116467615,-37.96416494151143 L2.1993328656444793,-37.936301018234644 L2.748301654380445,-37.90048598654831 L3.2966944237415743,-37.8567273529618 L3.8443962355224226,-37.805034288892216 L4.391292296336059,-37.745417628742096 L4.937267981673724,-37.677889867628664 L5.482208859929107,-37.60246515876492 L6.026000716382175,-37.5191593104933 L6.56852957713756,-37.42798978297237 L7.109681733012464,-37.328975684517296 L7.649343763369084,-37.22213776759499 L8.187402559886559,-37.10749842447451 L8.723745350267453,-36.98508168253386 L9.258259721873836,-36.85491319922411 L9.790833645287943,-36.71702025669175 L10.321355497792547,-36.57143175606066 L10.849714086766081,-36.418178211374666 L11.375798672987603,-36.25729174320205 L11.899498993846757,-36.088806071903434 L12.420705286453815,-35.912756510564215 L12.939308310645002,-35.72917995759331 L13.455199371878255,-35.538114888989554 L13.968270344014613,-35.33960135027751 L14.478413691980498,-35.13368094811425 L14.985522494306103,-34.920396841568966 L15.48949046553516,-34.69979373307728 L15.99021197850143,-34.471917859071944 L16.487582086467203,-34.23681698029213 L16.9814965451192,-33.994540371773205 L17.471851834417233,-33.74513881251912 L17.958545180291097,-33.488664574859605 L18.441474576181072,-33.22517141349432 L18.920538804417596,-32.9547145542264 L19.395637457435573,-32.67735068238756 L19.86667095881891,-32.393137930957444 L20.333540584170834,-32.102135868379385 L20.796148481805623,-31.804405486075453 L21.25439769325747,-31.500009185663167 L21.708192173602097,-31.189010765876706 L22.1574368115869,-30.871475409195234 L22.602037449565426,-30.547469668181265 L23.041900903231966,-30.217061451531816 L23.476934981152155,-29.88032000984538 L23.90704850408546,-29.53731592110761 L24.332151324095534,-29.188121075898795 L24.752154343444428,-28.832808662326265 L25.166969533266663,-28.47145315068479 L25.576509952019286,-28.104130277848302 L25.980689763704056,-27.7309170313961 L26.379424255857884,-27.351891633476974 L26.77262985730782,-26.967133524414507 L27.160224155686794,-26.576723346057136 L27.542125914706542,-26.180742924876302 L27.918255091183987,-25.779275254816405 L28.288532851817575,-25.372404479899966 L28.652881589710017,-24.96021587659183 L29.01122494063401,-24.54279583592597 L29.363487799037497,-24.1202318453987 L29.709596333785115,-23.692612470632092 L30.049478003632526,-23.26002733681141 L30.38306157243043,-22.82256710990046 L30.71027712405501,-22.38032347763884 L31.031056077061727,-21.933389130325004 L31.345331199059373,-21.48185774138921 L31.65303662080139,-21.02582394776039 L31.954107849991463,-20.565383330031125 L32.24848178480052,-20.1006323924248 L32.53609672709232,-19.63166854256917 L32.81689239535484,-19.158590071080624 L33.090809937334704,-18.68149613096334 L33.357791942372124,-18.200486716827676 L33.617782453433634,-17.715662643932255 L33.8707269788402,-17.22712552705394 L34.11657250368818,-16.73497775919031 L34.355267500960764,-16.239322490099006 L34.5867619423276,-15.74026360467847 L34.81100730863024,-15.237905701194583 L35.02795660005136,-14.73235406935783 L35.237564345965495,-14.223714668255512 L35.439786614469256,-13.712094104143665 L35.634581021589064,-13.197599608103355 L35.82190674016447,-12.680339013566 L36.00172450840516,-12.160420733712455 L36.173996638119846,-11.637953738750577 L36.3386870226154,-11.113047533076038 L36.495761144264485,-10.585812132321216 L36.64518608174013,-10.056358040296866 L36.786930516915774,-9.524796225831539 L36.92096474142923,-8.991238099513508 L37.04726066290931,-8.455795490340098 L37.16579181086372,-7.9185806222793405 L37.27653334222708,-7.3797060907488286 L37.379462046567745,-6.8392848390167345 L37.47455635095253,-6.29743013452991 L37.56179632446825,-5.754255545174048 L37.64116368239895,-5.209874915470868 L37.71264179005834,-4.664402342717331 L37.776215666276215,-4.117952153071865 L37.83187198653835,-3.57063887759263 L37.87959908577927,-3.022577228232835 L37.91938696082706,-2.4738820737981415 L37.95122727250001,-1.924668415871192 L37.9751133473544,-1.3750513647083105 L37.99104017908319,-0.8251461151134248 L37.99900442956532,-0.27506792229426863 L37.99900442956532,0.2750679222940756 L37.991040179083186,0.8251461151132318 L37.975113347354394,1.3750513647081175 L37.9512272725,1.9246684158709986 L37.91938696082705,2.473882073797948 L37.87959908577925,3.022577228232641 L37.83187198653833,3.570638877592436 L37.776215666276194,4.117952153071671 L37.71264179005832,4.664402342717136 L37.64116368239892,5.209874915470673 L37.56179632446821,5.7542555451738515 L37.474556350952504,6.297430134529713 L37.37946204656771,6.839284839016537 L37.27653334222704,7.379706090748631 L37.16579181086368,7.918580622279142 L37.04726066290927,8.455795490339902 L36.92096474142918,8.99123809951331 L36.78693051691572,9.524796225831341 L36.64518608174008,10.056358040296665 L36.49576114426442,10.585812132321015 L36.33868702261534,11.11304753307584 L36.17399663811978,11.637953738750374 L36.0017245084051,12.160420733712254 L35.82190674016441,12.680339013565796 L35.63458102158899,13.197599608103149 L35.43978661446918,13.712094104143459 L35.23756434596542,14.223714668255305 L35.02795660005128,14.732354069357624 L34.81100730863015,15.237905701194375 L34.58676194232751,15.740263604678258 L34.35526750096068,16.239322490098797 L34.11657250368809,16.73497775919009 L33.87072697884011,17.227125527053712 L33.61778245343355,17.715662643932017 L33.35779194237204,18.20048671682743 L33.090809937334626,18.681496130963083 L32.81689239535476,19.15859007108036 L32.53609672709225,19.6316685425689 L32.24848178480045,20.10063239242452 L31.95410784999139,20.56538333003084 L31.65303662080132,21.025823947760102 L31.345331199059302,21.481857741388914 L31.03105607706166,21.93338913032471 L30.710277124054944,22.38032347763854 L30.383061572430364,22.822567109900152 L30.049478003632466,23.260027336811095 L29.70959633378505,23.69261247063178 L29.363487799037436,24.12023184539838 L29.011224940633948,24.542795835925645 L28.652881589709953,24.9602158765915 L28.288532851817514,25.372404479899636 L27.918255091183934,25.77927525481607 L27.54212591470649,26.180742924875965 L27.160224155686738,26.576723346056788 L26.772629857307766,26.96713352441416 L26.37942425585784,27.351891633476622 L25.980689763704007,27.730917031395744 L25.576509952019244,28.10413027784794 L25.166969533266624,28.47145315068443 L24.752154343444392,28.8328086623259 L24.332151324095502,29.188121075898426 L23.907048504085427,29.537315921107236 L23.476934981152127,29.880320009845004 L23.04190090323194,30.21706145153144 L22.602037449565405,30.54746966818088 L22.15743681158688,30.87147540919485 L21.70819217360208,31.189010765876322 L21.254397693257456,31.50000918566278 L20.796148481805613,31.804405486075062 L20.333540584170827,32.102135868378994 L19.86667095881891,32.39313793095705 L19.395637457435573,32.677350682387164 L18.9205388044176,32.954714554225994 L18.44147457618108,33.22517141349392 L17.958545180291107,33.4886645748592 L17.47185183441725,33.74513881251872 L16.98149654511922,33.99454037177279 L16.487582086467228,34.23681698029172 L15.99021197850146,34.47191785907153 L15.489490465535193,34.699793733076866 L14.98552249430614,34.920396841568554 L14.47841369198054,35.13368094811383 L13.968270344014657,35.33960135027709 L13.455199371878303,35.53811488898914 L12.939308310645057,35.72917995759289 L12.420705286453874,35.912756510563796 L11.89949899384682,36.08880607190302 L11.37579867298767,36.257291743201634 L10.849714086766152,36.41817821137425 L10.321355497792624,36.57143175606024 L9.790833645288023,36.71702025669133 L9.258259721873921,36.85491319922369 L8.723745350267544,36.98508168253344 L8.187402559886655,37.10749842447409 L7.6493437633691865,37.22213776759457 L7.109681733012573,37.32897568451688 L6.568529577137673,37.42798978297195 L6.026000716382293,37.51915931049289 L5.482208859929231,37.6024651587645 L4.937267981673854,37.677889867628245 L4.391292296336193,37.745417628741684 L3.844396235522562,37.805034288891804 L3.296694423741718,37.85672735296139 L2.748301654380594,37.9004859865479 L2.199332865644633,37.93630101823424 L1.6499031164677733,37.96416494151102 L1.100127562397126,37.98407191634987 L0.5501214314574068,37.99601777042742 L1.7442261863086958e-13,37.9999999999998 L-0.5501214314570579,37.99601777042742 L-1.1001275623967772,37.98407191634988 L-1.6499031164674247,37.964164941511044 L-2.1993328656442848,37.93630101823426 L-2.748301654380246,37.90048598654793 L-3.2966944237413704,37.85672735296142 L-3.8443962355222148,37.80503428889184 L-4.3912922963358465,37.74541762874172 L-4.937267981673507,37.67788986762829 L-5.482208859928885,37.60246515876455 L-6.026000716381949,37.519159310492945 L-6.568529577137329,37.42798978297201 L-7.10968173301223,37.32897568451695 L-7.6493437633688455,37.222137767594646 L-8.187402559886312,37.10749842447416 L-8.723745350267203,36.985081682533526 L-9.258259721873582,36.85491319922377 L-9.790833645287684,36.71702025669142 L-10.321355497792288,36.571431756060335 L-10.849714086765816,36.41817821137434 L-11.375798672987337,36.25729174320174 L-11.899498993846487,36.08880607190313 L-12.420705286453543,35.91275651056391 L-12.939308310644726,35.72917995759301 L-13.455199371877976,35.53811488898926 L-13.96827034401433,35.33960135027722 L-14.478413691980217,35.13368094811396 L-14.985522494305819,34.92039684156869 L-15.489490465534873,34.69979373307701 L-15.990211978501142,34.471917859071674 L-16.487582086466915,34.23681698029187 L-16.981496545118908,33.99454037177295 L-17.471851834416942,33.745138812518874 L-17.958545180290802,33.488664574859364 L-18.441474576180777,33.22517141349409 L-18.920538804417298,32.95471455422617 L-19.395637457435278,32.67735068238734 L-19.866670958818613,32.39313793095723 L-20.33354058417053,32.10213586837918 L-20.79614848180532,31.804405486075254 L-21.254397693257168,31.50000918566297 L-21.708192173601795,31.18901076587652 L-22.157436811586596,30.871475409195053 L-22.60203744956512,30.54746966818109 L-23.041900903231667,30.217061451531645 L-23.47693498115185,29.880320009845217 L-23.907048504085157,29.537315921107453 L-24.332151324095236,29.18812107589865 L-24.75215434344413,28.832808662326123 L-25.166969533266364,28.471453150684656 L-25.576509952018988,28.104130277848174 L-25.980689763703754,27.730917031395983 L-26.379424255857586,27.35189163347686 L-26.772629857307518,26.967133524414404 L-27.1602241556865,26.576723346057037 L-27.542125914706247,26.180742924876217 L-27.918255091183696,25.779275254816323 L-28.288532851817283,25.372404479899895 L-28.652881589709725,24.960215876591764 L-29.011224940633724,24.542795835925908 L-29.363487799037223,24.120231845398635 L-29.709596333784855,23.692612470632024 L-30.049478003632284,23.260027336811333 L-30.3830615724302,22.822567109900376 L-30.710277124054787,22.38032347763875 L-31.031056077061514,21.93338913032491 L-31.345331199059174,21.481857741389106 L-31.653036620801203,21.025823947760276 L-31.954107849991285,20.565383330031004 L-32.248481784800354,20.10063239242467 L-32.536096727092165,19.631668542569038 L-32.81689239535469,19.15859007108049 L-33.09080993733456,18.681496130963193 L-33.35779194237199,18.200486716827527 L-33.617782453433506,17.7156626439321 L-33.87072697884008,17.22712552705378 L-34.11657250368807,16.73497775919014 L-34.355267500960665,16.239322490098836 L-34.5867619423275,15.74026360467829 L-34.811007308630145,15.237905701194398 L-35.027956600051276,14.732354069357639 L-35.23756434596542,14.223714668255312 L-35.43978661446918,13.712094104143459 L-35.63458102158899,13.197599608103143 L-35.82190674016441,12.680339013565781 L-36.00172450840511,12.16042073371223 L-36.173996638119796,11.637953738750342 L-36.33868702261535,11.1130475330758 L-36.49576114426444,10.585812132320967 L-36.64518608174009,10.056358040296608 L-36.78693051691574,9.524796225831276 L-36.9209647414292,8.991238099513238 L-37.04726066290928,8.45579549033982 L-37.1657918108637,7.918580622279053 L-37.27653334222706,7.379706090748533 L-37.37946204656773,6.839284839016431 L-37.474556350952525,6.297430134529598 L-37.56179632446823,5.754255545173727 L-37.64116368239894,5.2098749154705395 L-37.712641790058335,4.664402342716994 L-37.77621566627621,4.117952153071521 L-37.83187198653835,3.5706388775922773 L-37.87959908577927,3.022577228232474 L-37.91938696082706,2.473882073797772 L-37.951227272500006,1.9246684158708143 L-37.9751133473544,1.3750513647079246 L-37.99104017908319,0.8251461151130303 L-37.99900442956532,0.27506792229386556 L-37.99900442956532,-0.2750679222944871 L-37.991040179083186,-0.8251461151136518 L-37.975113347354394,-1.3750513647085456 L-37.9512272725,-1.9246684158714356 L-37.91938696082704,-2.4738820737983938 L-37.87959908577925,-3.0225772282330947 L-37.83187198653833,-3.5706388775928977 L-37.77621566627619,-4.1179521530721415 L-37.712641790058306,-4.664402342717615 L-37.64116368239891,-5.20987491547116 L-37.5617963244682,-5.754255545174347 L-37.47455635095248,-6.2974301345302175 L-37.37946204656769,-6.839284839017049 L-37.27653334222702,-7.379706090749151 L-37.16579181086366,-7.91858062227967 L-37.04726066290923,-8.455795490340435 L-36.920964741429145,-8.991238099513852 L-36.78693051691568,-9.524796225831889 L-36.645186081740036,-10.056358040297221 L-36.49576114426438,-10.585812132321578 L-36.33868702261529,-11.113047533076411 L-36.17399663811973,-11.637953738750952 L-36.00172450840503,-12.16042073371284 L-35.82190674016434,-12.68033901356639 L-35.634581021588914,-13.197599608103749 L-35.4397866144691,-13.712094104144063 L-35.23756434596533,-14.223714668255917 L-35.02795660005118,-14.73235406935824 L-34.81100730863005,-15.237905701195 L-34.586761942327406,-15.74026360467889 L-34.355267500960565,-16.239322490099436 L-34.11657250368797,-16.73497775919074 L-33.870726978839976,-17.227125527054373 L-33.617782453433406,-17.715662643932692 L-33.35779194237188,-18.20048671682812 L-33.090809937334456,-18.681496130963787 L-32.81689239535458,-19.15859007108108 L-32.53609672709205,-19.631668542569628 L-32.248481784800234,-20.100632392425258 L-31.954107849991164,-20.565383330031587 L-31.65303662080108,-21.02582394776086 L-31.34533119905905,-21.481857741389685 L-31.03105607706139,-21.93338913032549 L-30.710277124054656,-22.380323477639326 L-30.383061572430066,-22.822567109900948 L-30.049478003632142,-23.260027336811905 L-29.709596333784717,-23.692612470632593 L-29.363487799037085,-24.120231845399204 L-29.01122494063358,-24.542795835926476 L-28.65288158970957,-24.960215876592343 L-28.288532851817116,-25.37240447990048 L-27.91825509118351,-25.779275254816923 L-27.542125914706048,-26.180742924876824 L-27.160224155686283,-26.576723346057655 L-26.77262985730729,-26.96713352441503 L-26.37942425585734,-27.351891633477496 L-25.9806897637035,-27.730917031396626 L-25.57650995201871,-28.104130277848824 L-25.166969533266066,-28.471453150685317 L-24.75215434344382,-28.832808662326787 L-24.332151324094905,-29.18812107589932 L-23.907048504084813,-29.53731592110813 L-23.47693498115149,-29.8803200098459 L-23.041900903231287,-30.217061451532334 L-22.60203744956473,-30.54746966818178 L-22.157436811586184,-30.871475409195746 L-21.70819217360136,-31.189010765877217 L-21.254397693256717,-31.500009185663675 L-20.796148481804853,-31.804405486075954 L-20.33354058417005,-32.10213586837989 L-19.866670958818112,-32.39313793095794 L-19.395637457434752,-32.67735068238805 L-18.920538804416754,-32.95471455422688 L-18.441474576180212,-33.2251714134948 L-17.95854518029022,-33.488664574860074 L-17.47185183441634,-33.745138812519585 L-16.981496545118286,-33.99454037177366 L-16.487582086466276,-34.23681698029258 L-15.99021197850048,-34.471917859072384 L-15.489490465534193,-34.699793733077705 L-14.985522494305117,-34.920396841569385 L-14.478413691979494,-35.13368094811465 L-13.968270344013591,-35.33960135027791 L-13.455199371877216,-35.53811488898995 L-12.939308310643947,-35.72917995759369 L-12.420705286452742,-35.91275651056459 L-11.899498993845667,-36.0888060719038 L-11.375798672986496,-36.2572917432024 L-10.849714086764957,-36.41817821137499 L-10.321355497791405,-36.57143175606098 L-9.790833645286785,-36.71702025669206 L-9.258259721872662,-36.8549131992244 L-8.723745350266265,-36.985081682534144 L-8.187402559885353,-37.10749842447477 L-7.649343763367867,-37.222137767595235 L-7.109681733011232,-37.32897568451754 L-6.568529577136312,-37.42798978297259 L-6.026000716380913,-37.51915931049351 L-5.48220885992783,-37.602465158765106 L-4.937267981672433,-37.67788986762883 L-4.391292296334754,-37.745417628742246 L-3.844396235521104,-37.80503428889235 L-3.2966944237402416,-37.85672735296192 L-2.7483016543790986,-37.90048598654841 L-2.1993328656431195,-37.93630101823473 L-1.6499031164662417,-37.96416494151149 L-1.1001275623955766,-37.98407191635032 L-0.5501214314558401,-37.99601777042784 L1.409240503218966e-12,-38.0000000000002 " />
			<path d="M-7.59281015471359e-15,-31.0 L0.12558103905861917,-31.003946543143456 L0.2506664671286009,-31.015770597371045 L0.37476262917144165,-31.035425498542622 L0.497379774329702,-31.062833677742738 L0.6180339887498871,-31.097886967409693 L0.7362491053693482,-31.140447028223498 L0.8515585831301375,-31.19034589506796 L0.9635073482034228,-31.24738663991227 L1.0716535899579855,-31.31134414899597 L1.1755705045849385,-31.381966011250107 L1.2748479794973717,-31.45897351444842 L1.3690942118573695,-31.54206274515718 L1.4579372548428151,-31.630905788142623 L1.5410264855515703,-31.72515202050262 L1.6180339887498867,-31.824429495415053 L1.6886558510040222,-31.928346410042007 L1.7526133600877194,-32.03649265179657 L1.8096541049320314,-32.14844141686986 L1.8595529717764951,-32.26375089463065 L1.9021130325902995,-32.38196601125011 L1.9371663222572546,-32.50262022567029 L1.9645745014573694,-32.62523737082855 L1.9842294026289478,-32.74933353287139 L1.9960534568565351,-32.87441896094138 L1.999999999999992,-33.0 L1.9960534568565351,-33.12558103905863 L1.9842294026289475,-33.25066646712861 L1.964574501457369,-33.37476262917145 L1.9371663222572535,-33.497379774329715 L1.9021130325902982,-33.6180339887499 L1.8595529717764938,-33.73624910536936 L1.80965410493203,-33.85155858313015 L1.7526133600877178,-33.963507348203436 L1.6886558510040206,-34.071653589958 L1.6180339887498851,-34.17557050458495 L1.5410264855515685,-34.27484797949738 L1.4579372548428127,-34.36909421185738 L1.3690942118573668,-34.457937254842825 L1.2748479794973686,-34.54102648555158 L1.1755705045849352,-34.6180339887499 L1.0716535899579818,-34.68865585100403 L0.9635073482034188,-34.75261336008773 L0.8515585831301332,-34.809654104932044 L0.7362491053693436,-34.8595529717765 L0.6180339887498822,-34.90211303259031 L0.4973797743296967,-34.93716632225726 L0.37476262917143616,-34.96457450145738 L0.2506664671285952,-34.984229402628955 L0.1255810390586133,-34.996053456856544 L-1.3656668752402754e-14,-35.0 L-0.12558103905864057,-34.996053456856544 L-0.2506664671286225,-34.984229402628955 L-0.37476262917146336,-34.96457450145738 L-0.4973797743297238,-34.93716632225726 L-0.618033988749909,-34.90211303259031 L-0.7362491053693702,-34.8595529717765 L-0.8515585831301595,-34.80965410493204 L-0.9635073482034447,-34.75261336008772 L-1.0716535899580073,-34.68865585100403 L-1.1755705045849603,-34.61803398874989 L-1.2748479794973933,-34.541026485551576 L-1.369094211857391,-34.45793725484282 L-1.4579372548428364,-34.36909421185737 L-1.5410264855515914,-34.27484797949737 L-1.6180339887499071,-34.17557050458494 L-1.6886558510040417,-34.07165358995799 L-1.752613360087738,-33.96350734820343 L-1.8096541049320491,-33.85155858313014 L-1.8595529717765125,-33.73624910536935 L-1.9021130325903164,-33.61803398874989 L-1.937166322257271,-33.49737977432971 L-1.9645745014573857,-33.37476262917145 L-1.9842294026289637,-33.25066646712861 L-1.9960534568565511,-33.12558103905862 L-2.000000000000008,-33.0 L-1.9960534568565511,-32.87441896094138 L-1.984229402628964,-32.74933353287139 L-1.9645745014573859,-32.62523737082855 L-1.9371663222572708,-32.50262022567029 L-1.9021130325903162,-32.38196601125011 L-1.8595529717765122,-32.26375089463065 L-1.8096541049320491,-32.14844141686986 L-1.7526133600877378,-32.03649265179657 L-1.6886558510040415,-31.92834641004201 L-1.6180339887499071,-31.82442949541506 L-1.5410264855515914,-31.725152020502627 L-1.4579372548428366,-31.630905788142627 L-1.3690942118573919,-31.542062745157182 L-1.274847979497395,-31.458973514448427 L-1.1755705045849627,-31.38196601125011 L-1.0716535899580109,-31.311344148995975 L-0.9635073482034492,-31.24738663991228 L-0.851558583130165,-31.190345895067967 L-0.7362491053693766,-31.1404470282235 L-0.6180339887499164,-31.097886967409696 L-0.49737977432973207,-31.06283367774274 L-0.3747626291714727,-31.035425498542626 L-0.2506664671286328,-31.015770597371045 L-0.12558103905865184,-31.003946543143456 L-2.5846237268375037e-14,-31.0 " />
			<path d="M-26.846787517317594,-15.500000000000004 L-26.787414804407646,-15.610729641630149 L-26.735112021709472,-15.724968827095797 L-26.69008558441151,-15.842266706522837 L-26.652513191291156,-15.962160358769472 L-26.62254312341886,-16.084176618364484 L-26.600293658960496,-16.20783394287518 L-26.585852606387462,-16.332644313335372 L-26.57927695793678,-16.45811516023329 L-26.580592664688755,-16.583751307458403 L-26.589794534149927,-16.70905692653531 L-26.606846250745463,-16.833537493432207 L-26.63168051914015,-16.956701740221316 L-26.66419932982234,-17.078063593888945 L-26.70427434590269,-17.197144094643633 L-26.751747409601272,-17.313473286151602 L-26.806431166424044,-17.426592070239728 L-26.86810980456546,-17.536054018746263 L-26.936539906619064,-17.64142713536887 L-27.01145141023479,-17.742295560556624 L-27.092548673931685,-17.83826121271772 L-27.17951164385974,-17.92894535926561 L-27.271997116906263,-18.013990111303517 L-27.369640095161724,-18.093059836048397 L-27.472055226399785,-18.165842481420203 L-27.578838324886473,-18.232050807568882 L-27.68956796651662,-18.29142352047883 L-27.80380715198227,-18.343726303177004 L-27.921105031409308,-18.388752740474967 L-28.040998683655943,-18.42632513359532 L-28.163014943250957,-18.456295201467615 L-28.286672267761652,-18.47854466592598 L-28.411482638221845,-18.492985718499014 L-28.53695348511976,-18.499561366949695 L-28.662589632344872,-18.49824566019772 L-28.78789525142178,-18.48904379073655 L-28.91237581831868,-18.471992074141014 L-29.035540065107785,-18.447157805746322 L-29.156901918775418,-18.414638995064138 L-29.275982419530106,-18.374563978983787 L-29.392311611038075,-18.327090915285204 L-29.5054303951262,-18.272407158462432 L-29.614892343632736,-18.210728520321016 L-29.72026546025534,-18.14229841826741 L-29.821133885443096,-18.06738691465168 L-29.91709953760419,-17.986289650954788 L-30.00778368415208,-17.899326681026732 L-30.09282843618999,-17.806841207980213 L-30.171898160934866,-17.70919822972475 L-30.244680806306675,-17.606783098486687 L-30.31088913245535,-17.5 L-30.3702618453653,-17.389270358369853 L-30.422564628063476,-17.275031172904203 L-30.467591065361436,-17.157733293477165 L-30.50516345848179,-17.03783964123053 L-30.535133526354084,-16.915823381635516 L-30.55738299081245,-16.79216605712482 L-30.571824043385483,-16.667355686664628 L-30.578399691836164,-16.541884839766713 L-30.57708398508419,-16.416248692541597 L-30.567882115623018,-16.29094307346469 L-30.550830399027483,-16.166462506567793 L-30.52599613063279,-16.043298259778684 L-30.493477319950607,-15.921936406111053 L-30.453402303870252,-15.802855905356367 L-30.405929240171673,-15.686526713848398 L-30.3512454833489,-15.573407929760275 L-30.28956684520748,-15.463945981253739 L-30.221136743153878,-15.358572864631137 L-30.14622523953815,-15.25770443944338 L-30.06512797584126,-15.161738787282285 L-29.9781650059132,-15.071054640734395 L-29.885679532866682,-14.98600988869649 L-29.78803655461122,-14.90694016395161 L-29.68562142337316,-14.834157518579804 L-29.578838324886473,-14.767949192431127 L-29.46810868325633,-14.708576479521179 L-29.35386949779068,-14.656273696823003 L-29.23657161836364,-14.611247259525042 L-29.116677966117006,-14.573674866404689 L-28.994661706521995,-14.543704798532392 L-28.8710043820113,-14.521455334074027 L-28.746194011551108,-14.507014281500995 L-28.620723164653192,-14.500438633050313 L-28.49508701742808,-14.501754339802286 L-28.369781398351172,-14.510956209263457 L-28.245300831454276,-14.528007925858992 L-28.12213658466517,-14.552842194253682 L-28.000774730997538,-14.585361004935866 L-27.881694230242854,-14.625436021016217 L-27.76536503873488,-14.672909084714798 L-27.65224625464676,-14.727592841537568 L-27.542784306140224,-14.789271479678984 L-27.43741118951762,-14.857701581732588 L-27.336542764329863,-14.932613085348315 L-27.24057711216877,-15.013710349045205 L-27.14989296562088,-15.10067331897326 L-27.06484821358297,-15.19315879201978 L-26.98577848883809,-15.290801770275241 L-26.912995843466284,-15.3932169015133 L-26.846787517317605,-15.499999999999988 " />
			<path d="M1.0150610510858574e-15,-29.7500000000002 L0.4867615158879827,-29.746017602809662 L0.9733927139478411,-29.734071477422077 L1.4597633112406871,-29.714164822104078 L1.945743094596757,-29.686302966348652 L2.43120195547663,-29.650493369448313 L2.9160099248044284,-29.606745618498056 L3.4000372077636802,-29.555071425828668 L3.8831542185465353,-29.495484625871057 L4.365231615047013,-29.428001171452433 L4.846140333489016,-29.352639129525347 L5.325751622979824,-29.26941867633075 L5.803937079979817,-29.178362091996306 L6.280568682679216,-29.079493754571462 L6.755518825272605,-28.972840133500874 L7.228660352122103,-28.858429782537883 L7.699866591799995,-28.736293332099983 L8.169011391001739,-28.606463481068317 L8.635969148320257,-28.468974988033413 L9.100614847872468,-28.323864661989447 L9.562824092769057,-28.171171352479593 L10.022473138418547,-28.01093593919507 L10.479438925656696,-27.84320132103064 L10.933599113692429,-27.668012404599562 L11.38483211286142,-27.485416092210983 L11.833017117178576,-27.295461269313066 L12.278034136680741,-27.09819879140518 L12.71976402955089,-26.893681470422642 L13.158088534015285,-26.68196406059768 L13.59289030000501,-26.463103243800422 L14.024052920573425,-26.237157614363763 L14.45146096306111,-26.00418766339628 L14.874999999999995,-25.764255762587254 L15.29455663974834,-25.5174261475083 L15.710018556848443,-25.263764900415925 L16.121274522098854,-25.003339932559737 L16.528214432333158,-24.736220966000925 L16.930729339897212,-24.462479514946015 L17.328711481817106,-24.182188866600757 L17.72205430864988,-23.89542406154939 L18.11065251300943,-23.602261873664453 L18.494402057759793,-23.302780789552553 L18.873200203868443,-22.99706098754163 L19.246945537911994,-22.685184316215253 L19.615537999227037,-22.367234272499786 L19.978878906698785,-22.04329597931024 L20.33687098518041,-21.71345616276082 L20.689418391535934,-21.377803128946226 L21.036426740299778,-21.036426740299998 L21.377803128946006,-20.689418391536158 L21.7134561627606,-20.33687098518063 L22.04329597931002,-19.97887890669901 L22.367234272499562,-19.615537999227264 L22.685184316215032,-19.246945537912218 L22.997060987541413,-18.87320020386867 L23.302780789552337,-18.49440205776002 L23.602261873664233,-18.110652513009654 L23.895424061549175,-17.722054308650108 L24.18218886660054,-17.328711481817333 L24.462479514945795,-16.93072933989744 L24.736220966000708,-16.528214432333385 L25.003339932559516,-16.121274522099082 L25.26376490041571,-15.710018556848667 L25.517426147508086,-15.294556639748563 L25.76425576258704,-14.875000000000211 L26.004187663396067,-14.451460963061328 L26.237157614363557,-14.024052920573638 L26.463103243800216,-13.592890300005223 L26.681964060597476,-13.158088534015492 L26.89368147042244,-12.719764029551094 L27.09819879140498,-12.278034136680942 L27.295461269312867,-11.833017117178775 L27.485416092210784,-11.384832112861615 L27.668012404599363,-10.933599113692622 L27.843201321030445,-10.479438925656885 L28.010935939194873,-10.022473138418732 L28.171171352479398,-9.562824092769242 L28.323864661989255,-9.100614847872647 L28.46897498803322,-8.635969148320433 L28.606463481068122,-8.169011391001913 L28.736293332099788,-7.699866591800167 L28.85842978253769,-7.228660352122272 L28.972840133500682,-6.755518825272771 L29.07949375457127,-6.280568682679379 L29.17836209199611,-5.8039370799799785 L29.269418676330563,-5.325751622979982 L29.352639129525155,-4.8461403334891715 L29.42800117145224,-4.365231615047167 L29.495484625870866,-3.8831542185466863 L29.555071425828476,-3.4000372077638286 L29.60674561849786,-2.9160099248045737 L29.650493369448117,-2.4312019554767725 L29.686302966348457,-1.9457430945968963 L29.714164822103882,-1.459763311240823 L29.734071477421878,-0.9733927139479744 L29.746017602809463,-0.4867615158881133 L29.75,-1.287862385322338e-13 L29.74601760280946,0.48676151588785566 L29.734071477421875,0.9733927139477169 L29.714164822103875,1.4597633112405652 L29.68630296634845,1.9457430945966383 L29.650493369448107,2.431201955476514 L29.60674561849785,2.9160099248043148 L29.55507142582846,3.4000372077635697 L29.495484625870848,3.883154218546427 L29.42800117145222,4.365231615046906 L29.352639129525134,4.846140333488911 L29.269418676330535,5.3257516229797215 L29.178362091996085,5.803937079979718 L29.079493754571242,6.280568682679118 L28.972840133500654,6.755518825272509 L28.858429782537655,7.228660352122009 L28.736293332099752,7.6998665917999025 L28.606463481068086,8.169011391001652 L28.468974988033178,8.635969148320171 L28.32386466198921,9.100614847872384 L28.171171352479355,9.562824092768977 L28.010935939194827,10.022473138418468 L27.843201321030396,10.479438925656622 L27.668012404599313,10.933599113692358 L27.485416092210727,11.384832112861348 L27.295461269312813,11.833017117178507 L27.098198791404922,12.278034136680674 L26.89368147042238,12.719764029550818 L26.681964060597416,13.158088534015215 L26.463103243800152,13.592890300004944 L26.237157614363493,14.024052920573359 L26.004187663396007,14.451460963061047 L25.764255762586973,14.874999999999932 L25.517426147508015,15.294556639748281 L25.26376490041564,15.71001855684838 L25.003339932559445,16.1212745220988 L24.73622096600063,16.5282144323331 L24.462479514945716,16.93072933989716 L24.182188866600455,17.328711481817052 L23.895424061549086,17.722054308649827 L23.60226187366414,18.11065251300938 L23.30278078955224,18.494402057759743 L22.99706098754131,18.873200203868393 L22.68518431621493,19.246945537911948 L22.367234272499456,19.615537999226987 L22.043295979309907,19.97887890669874 L21.71345616276048,20.336870985180358 L21.37780312894588,20.689418391535888 L21.036426740299653,21.036426740299728 L20.689418391535806,21.377803128945956 L20.336870985180273,21.713456162760547 L19.978878906698647,22.04329597930997 L19.61553799922689,22.367234272499513 L19.24694553791185,22.685184316214983 L18.87320020386829,22.99706098754136 L18.494402057759636,23.302780789552283 L18.110652513009267,23.60226187366418 L17.722054308649714,23.895424061549118 L17.32871148181693,24.182188866600484 L16.930729339897038,24.462479514945738 L16.528214432332977,24.736220966000648 L16.12127452209867,25.003339932559456 L15.71001855684825,25.263764900415644 L15.294556639748144,25.517426147508015 L14.874999999999796,25.76425576258697 L14.451460963060907,26.004187663395996 L14.024052920573215,26.23715761436348 L13.592890300004797,26.46310324380013 L13.158088534015066,26.681964060597387 L12.719764029550666,26.89368147042235 L12.278034136680512,27.098198791404887 L11.833017117178343,27.29546126931277 L11.384832112861181,27.48541609221068 L10.933599113692187,27.66801240459926 L10.47943892565645,27.843201321030335 L10.022473138418293,28.01093593919476 L9.562824092768802,28.17117135247928 L9.100614847872206,28.32386466198913 L8.635969148319992,28.468974988033096 L8.16901139100147,28.606463481067998 L7.69986659179972,28.736293332099656 L7.228660352121825,28.858429782537552 L6.755518825272323,28.972840133500544 L6.28056868267893,29.079493754571125 L5.803937079979529,29.178362091995965 L5.325751622979531,29.269418676330407 L4.84614033348872,29.352639129525 L4.365231615046714,29.428001171452078 L3.8831542185462338,29.4954846258707 L3.4000372077633756,29.555071425828306 L2.9160099248041202,29.60674561849769 L2.4312019554763187,29.650493369447943 L1.9457430945964422,29.68630296634828 L1.459763311240369,29.714164822103697 L0.9733927139475202,29.73407147742169 L0.4867615158876589,29.746017602809268 L-3.2563296454743483e-13,29.7499999999998 L-0.48676151588831007,29.746017602809257 L-0.9733927139481712,29.73407147742167 L-1.4597633112410193,29.714164822103662 L-1.945743094597092,29.686302966348237 L-2.431201955476968,29.65049336944789 L-2.9160099248047686,29.606745618497623 L-3.400037207764023,29.55507142582823 L-3.8831542185468795,29.495484625870613 L-4.3652316150473585,29.428001171451985 L-4.846140333489363,29.352639129524896 L-5.325751622980173,29.26941867633029 L-5.803937079980168,29.178362091995837 L-6.280568682679567,29.07949375457099 L-6.755518825272958,28.972840133500394 L-7.228660352122457,28.858429782537396 L-7.699866591800349,28.73629333209949 L-8.169011391002094,28.606463481067816 L-8.635969148320612,28.468974988032905 L-9.100614847872823,28.32386466198893 L-9.562824092769418,28.171171352479075 L-10.022473138418906,28.010935939194542 L-10.479438925657059,27.843201321030104 L-10.933599113692793,27.66801240459902 L-11.384832112861782,27.485416092210432 L-11.833017117178938,27.29546126931251 L-12.278034136681104,27.09819879140462 L-12.719764029551252,26.89368147042207 L-13.158088534015649,26.6819640605971 L-13.592890300005376,26.463103243799836 L-14.024052920573789,26.23715761436317 L-14.451460963061475,26.004187663395676 L-14.875000000000359,25.764255762586643 L-15.294556639748702,25.51742614750768 L-15.710018556848803,25.263764900415303 L-16.121274522099217,25.003339932559104 L-16.528214432333517,24.73622096600029 L-16.93072933989757,24.462479514945365 L-17.328711481817464,24.182188866600104 L-17.72205430865024,23.89542406154873 L-18.110652513009786,23.60226187366378 L-18.494402057760148,23.302780789551875 L-18.873200203868794,22.997060987540944 L-19.246945537912342,22.68518431621456 L-19.615537999227385,22.367234272499083 L-19.978878906699133,22.04329597930953 L-20.33687098518075,21.713456162760103 L-20.689418391536275,21.3778031289455 L-21.036426740300115,21.036426740299266 L-21.37780312894634,20.68941839153542 L-21.713456162760927,20.336870985179885 L-22.043295979310347,19.978878906698252 L-22.36723427249989,19.6155379992265 L-22.685184316215352,19.246945537911447 L-22.997060987541715,18.8732002038679 L-23.302780789552628,18.49440205775925 L-23.602261873664514,18.11065251300889 L-23.89542406154944,17.722054308649348 L-24.182188866600796,17.328711481816576 L-24.462479514946043,16.930729339896686 L-24.736220966000943,16.528214432332636 L-25.00333993255974,16.12127452209834 L-25.26376490041592,15.710018556847928 L-25.517426147508285,15.294556639747832 L-25.764255762587226,14.874999999999492 L-26.004187663396245,14.451460963060615 L-26.23715761436372,14.024052920572935 L-26.463103243800365,13.592890300004527 L-26.68196406059762,13.158088534014807 L-26.893681470422568,12.719764029550419 L-27.098198791405103,12.278034136680276 L-27.29546126931298,11.833017117178121 L-27.485416092210887,11.38483211286097 L-27.66801240459946,10.933599113691988 L-27.843201321030527,10.479438925656263 L-28.010935939194948,10.022473138418121 L-28.171171352479465,9.56282409276864 L-28.32386466198931,9.100614847872057 L-28.468974988033274,8.635969148319855 L-28.60646348106817,8.169011391001346 L-28.73629333209983,7.69986659179961 L-28.858429782537726,7.228660352121728 L-28.972840133500714,6.75551882527224 L-29.079493754571295,6.280568682678861 L-29.178362091996135,5.803937079979472 L-29.269418676330577,5.325751622979488 L-29.35263912952517,4.846140333488691 L-29.42800117145225,4.3652316150466985 L-29.495484625870873,3.883154218546231 L-29.555071425828483,3.4000372077633867 L-29.606745618497865,2.9160099248041447 L-29.65049336944812,2.4312019554763564 L-29.686302966348457,1.9457430945964937 L-29.714164822103882,1.4597633112404338 L-29.734071477421878,0.9733927139475987 L-29.746017602809463,0.4867615158877507 L-29.75,-2.2058699502510228e-13 L-29.746017602809463,-0.48676151588819183 L-29.734071477421878,-0.97339271394804 L-29.71416482210388,-1.459763311240875 L-29.686302966348457,-1.945743094596935 L-29.650493369448117,-2.431201955476798 L-29.60674561849786,-2.916009924804586 L-29.555071425828476,-3.400037207763828 L-29.49548462587087,-3.883154218546672 L-29.428001171452244,-4.365231615047139 L-29.352639129525162,-4.846140333489132 L-29.26941867633057,-5.325751622979929 L-29.178362091996124,-5.803937079979913 L-29.07949375457129,-6.2805686826793 L-28.972840133500704,-6.75551882527268 L-28.858429782537716,-7.228660352122168 L-28.73629333209982,-7.699866591800052 L-28.60646348106816,-8.169011391001785 L-28.468974988033263,-8.635969148320294 L-28.3238646619893,-9.100614847872494 L-28.171171352479455,-9.562824092769079 L-28.010935939194933,-10.022473138418556 L-27.843201321030513,-10.4794389256567 L-27.66801240459944,-10.933599113692425 L-27.48541609221087,-11.384832112861407 L-27.29546126931296,-11.833017117178557 L-27.098198791405085,-12.278034136680715 L-26.893681470422553,-12.719764029550856 L-26.681964060597597,-13.158088534015244 L-26.463103243800347,-13.592890300004964 L-26.237157614363703,-14.02405292057337 L-26.004187663396223,-14.45146096306105 L-25.764255762587208,-14.874999999999927 L-25.51742614750826,-15.294556639748265 L-25.2637649004159,-15.710018556848363 L-25.00333993255972,-16.121274522098773 L-24.736220966000918,-16.52821443233307 L-24.46247951494602,-16.93072933989712 L-24.18218886660077,-17.328711481817006 L-23.89542406154942,-17.72205430864978 L-23.60226187366449,-18.11065251300932 L-23.302780789552603,-18.494402057759682 L-22.99706098754169,-18.87320020386833 L-22.685184316215324,-19.24694553791188 L-22.367234272499868,-19.615537999226916 L-22.043295979310333,-19.978878906698665 L-21.713456162760927,-20.336870985180283 L-21.377803128946343,-20.689418391535806 L-21.03642674030013,-21.036426740299646 L-20.6894183915363,-21.377803128945875 L-20.336870985180788,-21.713456162760465 L-19.97887890669918,-22.043295979309885 L-19.615537999227442,-22.36723427249943 L-19.246945537912413,-22.6851843162149 L-18.873200203868876,-22.99706098754128 L-18.49440205776024,-23.3027807895522 L-18.11065251300989,-23.6022618736641 L-17.722054308650353,-23.895424061549043 L-17.32871148181759,-24.18218886660041 L-16.930729339897713,-24.462479514945667 L-16.52821443233367,-24.736220966000584 L-16.121274522099384,-25.003339932559395 L-15.710018556848981,-25.263764900415588 L-15.294556639748894,-25.517426147507965 L-14.87500000000056,-25.764255762586924 L-14.451460963061692,-26.004187663395953 L-14.02405292057402,-26.237157614363444 L-13.59289030000562,-26.463103243800102 L-13.158088534015906,-26.68196406059737 L-12.719764029551525,-26.893681470422337 L-12.27803413668139,-27.098198791404887 L-11.83301711717924,-27.295461269312778 L-11.384832112862096,-27.4854160922107 L-10.933599113693122,-27.66801240459929 L-10.479438925657401,-27.843201321030374 L-10.022473138419265,-28.01093593919481 L-9.56282409276979,-28.17117135247934 L-9.100614847873212,-28.323864661989205 L-8.635969148321015,-28.46897498803318 L-8.169011391002512,-28.606463481068094 L-7.699866591800781,-28.73629333209977 L-7.228660352122903,-28.85842978253768 L-6.755518825273419,-28.972840133500686 L-6.280568682680043,-29.07949375457128 L-5.803937079980658,-29.178362091996135 L-5.325751622980677,-29.269418676330595 L-4.846140333489883,-29.35263912952521 L-4.365231615047892,-29.4280011714523 L-3.8831542185474275,-29.495484625870944 L-3.400037207764585,-29.555071425828565 L-2.9160099248053446,-29.606745618497964 L-2.431201955477558,-29.650493369448238 L-1.9457430945976963,-29.686302966348592 L-1.459763311241637,-29.71416482210403 L-0.9733927139488027,-29.734071477422045 L-0.48676151588895505,-29.746017602809648 L-9.839339828887537e-13,-29.7500000000002 " />
			<path d="M26.846787517317594,-15.500000000000004 L26.912995843466273,-15.393216901513314 L26.98577848883808,-15.290801770275253 L27.06484821358296,-15.193158792019792 L27.149892965620865,-15.100673318973273 L27.240577112168758,-15.013710349045216 L27.336542764329852,-14.932613085348324 L27.437411189517608,-14.857701581732595 L27.542784306140213,-14.789271479678991 L27.652246254646748,-14.727592841537573 L27.76536503873487,-14.672909084714801 L27.881694230242843,-14.62543602101622 L28.00077473099753,-14.58536100493587 L28.12213658466516,-14.552842194253683 L28.24530083145427,-14.528007925858994 L28.369781398351165,-14.510956209263457 L28.495087017428073,-14.501754339802286 L28.620723164653185,-14.500438633050312 L28.746194011551104,-14.507014281500995 L28.871004382011296,-14.521455334074027 L28.994661706521992,-14.543704798532392 L29.116677966117006,-14.573674866404687 L29.23657161836364,-14.611247259525042 L29.35386949779068,-14.656273696823003 L29.46810868325633,-14.708576479521179 L29.578838324886473,-14.767949192431127 L29.685621423373163,-14.834157518579806 L29.788036554611224,-14.906940163951612 L29.885679532866686,-14.986009888696492 L29.978165005913205,-15.071054640734399 L30.065127975841264,-15.161738787282289 L30.146225239538154,-15.257704439443385 L30.22113674315388,-15.358572864631142 L30.28956684520749,-15.463945981253746 L30.351245483348904,-15.573407929760283 L30.405929240171677,-15.686526713848405 L30.453402303870256,-15.802855905356376 L30.493477319950607,-15.921936406111064 L30.525996130632794,-16.043298259778695 L30.550830399027483,-16.166462506567804 L30.56788211562302,-16.2909430734647 L30.57708398508419,-16.416248692541608 L30.578399691836164,-16.54188483976672 L30.57182404338548,-16.66735568666464 L30.55738299081245,-16.79216605712483 L30.535133526354084,-16.915823381635526 L30.50516345848179,-17.03783964123054 L30.467591065361432,-17.157733293477175 L30.422564628063473,-17.275031172904214 L30.370261845365295,-17.389270358369863 L30.310889132455348,-17.500000000000007 L30.24468080630667,-17.606783098486698 L30.171898160934862,-17.70919822972476 L30.092828436189983,-17.80684120798022 L30.007783684152074,-17.89932668102674 L29.917099537604184,-17.986289650954795 L29.82113388544309,-18.06738691465169 L29.72026546025533,-18.142298418267416 L29.61489234363273,-18.21072852032102 L29.50543039512619,-18.272407158462435 L29.392311611038068,-18.327090915285208 L29.275982419530095,-18.37456397898379 L29.156901918775407,-18.41463899506414 L29.035540065107778,-18.447157805746325 L28.91237581831867,-18.471992074141014 L28.787895251421773,-18.489043790736552 L28.662589632344865,-18.49824566019772 L28.536953485119753,-18.499561366949695 L28.411482638221838,-18.49298571849901 L28.286672267761645,-18.47854466592598 L28.16301494325095,-18.456295201467615 L28.04099868365594,-18.42632513359532 L27.921105031409304,-18.388752740474963 L27.803807151982266,-18.343726303177004 L27.689567966516616,-18.29142352047883 L27.578838324886473,-18.232050807568882 L27.472055226399785,-18.165842481420203 L27.369640095161724,-18.093059836048397 L27.271997116906263,-18.013990111303517 L27.179511643859744,-17.92894535926561 L27.092548673931688,-17.838261212717722 L27.011451410234795,-17.742295560556627 L26.936539906619068,-17.641427135368872 L26.868109804565464,-17.53605401874627 L26.806431166424048,-17.42659207023973 L26.751747409601272,-17.31347328615161 L26.704274345902693,-17.19714409464364 L26.664199329822342,-17.078063593888956 L26.631680519140154,-16.956701740221323 L26.606846250745463,-16.833537493432218 L26.589794534149927,-16.70905692653532 L26.580592664688755,-16.583751307458414 L26.57927695793678,-16.4581151602333 L26.585852606387462,-16.332644313335386 L26.600293658960496,-16.207833942875194 L26.622543123418858,-16.0841766183645 L26.652513191291153,-15.962160358769486 L26.690085584411506,-15.842266706522851 L26.735112021709465,-15.724968827095813 L26.78741480440764,-15.610729641630163 L26.846787517317587,-15.50000000000002 " />
			<path d="M-26.846787517317587,15.500000000000014 L-26.912995843466266,15.393216901513325 L-26.985778488838072,15.290801770275264 L-27.064848213582952,15.193158792019803 L-27.14989296562086,15.100673318973282 L-27.24057711216875,15.013710349045224 L-27.336542764329845,14.932613085348335 L-27.437411189517604,14.857701581732606 L-27.542784306140206,14.789271479679 L-27.65224625464674,14.727592841537584 L-27.765365038734867,14.672909084714812 L-27.881694230242836,14.625436021016231 L-28.000774730997524,14.58536100493588 L-28.122136584665153,14.552842194253694 L-28.245300831454262,14.528007925859004 L-28.369781398351158,14.510956209263467 L-28.495087017428066,14.501754339802298 L-28.62072316465318,14.500438633050322 L-28.746194011551097,14.507014281501005 L-28.87100438201129,14.521455334074037 L-28.994661706521985,14.543704798532403 L-29.116677966117,14.573674866404698 L-29.236571618363634,14.611247259525053 L-29.353869497790672,14.656273696823014 L-29.46810868325632,14.70857647952119 L-29.57883832488647,14.767949192431137 L-29.685621423373156,14.834157518579817 L-29.788036554611217,14.906940163951623 L-29.88567953286668,14.986009888696504 L-29.978165005913198,15.07105464073441 L-30.065127975841257,15.1617387872823 L-30.146225239538147,15.257704439443396 L-30.221136743153874,15.358572864631153 L-30.28956684520748,15.463945981253756 L-30.351245483348897,15.573407929760293 L-30.40592924017167,15.686526713848417 L-30.45340230387025,15.802855905356388 L-30.4934773199506,15.921936406111074 L-30.525996130632787,16.043298259778705 L-30.550830399027475,16.166462506567814 L-30.567882115623014,16.29094307346471 L-30.577083985084183,16.41624869254162 L-30.578399691836157,16.541884839766734 L-30.571824043385472,16.66735568666465 L-30.557382990812442,16.79216605712484 L-30.535133526354077,16.915823381635537 L-30.505163458481782,17.03783964123055 L-30.467591065361425,17.157733293477186 L-30.422564628063466,17.275031172904225 L-30.370261845365288,17.389270358369874 L-30.31088913245534,17.50000000000002 L-30.24468080630666,17.60678309848671 L-30.171898160934855,17.70919822972477 L-30.092828436189976,17.80684120798023 L-30.007783684152066,17.89932668102675 L-29.917099537604177,17.986289650954806 L-29.821133885443082,18.0673869146517 L-29.720265460255323,18.142298418267426 L-29.614892343632718,18.21072852032103 L-29.505430395126183,18.272407158462446 L-29.39231161103806,18.32709091528522 L-29.275982419530088,18.3745639789838 L-29.1569019187754,18.414638995064152 L-29.035540065107767,18.447157805746336 L-28.91237581831866,18.471992074141024 L-28.787895251421766,18.489043790736563 L-28.662589632344858,18.498245660197732 L-28.536953485119746,18.499561366949706 L-28.41148263822183,18.49298571849902 L-28.286672267761638,18.47854466592599 L-28.163014943250943,18.456295201467626 L-28.040998683655932,18.42632513359533 L-27.921105031409297,18.388752740474974 L-27.80380715198226,18.343726303177014 L-27.68956796651661,18.29142352047884 L-27.578838324886465,18.232050807568893 L-27.472055226399778,18.165842481420214 L-27.369640095161717,18.093059836048408 L-27.271997116906256,18.013990111303528 L-27.179511643859737,17.928945359265622 L-27.092548673931677,17.838261212717732 L-27.011451410234788,17.742295560556638 L-26.93653990661906,17.641427135368883 L-26.868109804565456,17.536054018746277 L-26.80643116642404,17.426592070239742 L-26.751747409601265,17.31347328615162 L-26.704274345902686,17.19714409464365 L-26.664199329822335,17.078063593888967 L-26.631680519140147,16.956701740221334 L-26.606846250745456,16.833537493432228 L-26.58979453414992,16.709056926535332 L-26.580592664688748,16.583751307458424 L-26.579276957936774,16.458115160233312 L-26.585852606387455,16.332644313335397 L-26.60029365896049,16.207833942875205 L-26.62254312341885,16.08417661836451 L-26.652513191291145,15.962160358769497 L-26.6900855844115,15.842266706522862 L-26.735112021709458,15.724968827095823 L-26.787414804407632,15.610729641630174 L-26.84678751731758,15.500000000000028 " />
			<path d="M26.846787517317598,15.499999999999993 L26.78741480440765,15.610729641630138 L26.735112021709476,15.724968827095788 L26.690085584411513,15.842266706522826 L26.65251319129116,15.962160358769461 L26.622543123418865,16.084176618364474 L26.6002936589605,16.20783394287517 L26.585852606387466,16.33264431333536 L26.579276957936784,16.45811516023328 L26.58059266468876,16.583751307458392 L26.58979453414993,16.7090569265353 L26.606846250745466,16.833537493432196 L26.631680519140154,16.956701740221305 L26.664199329822342,17.078063593888935 L26.704274345902693,17.197144094643622 L26.751747409601276,17.31347328615159 L26.806431166424048,17.426592070239717 L26.868109804565464,17.536054018746253 L26.936539906619068,17.641427135368858 L27.0114514102348,17.742295560556613 L27.092548673931688,17.83826121271771 L27.179511643859747,17.9289453592656 L27.271997116906267,18.013990111303507 L27.369640095161728,18.093059836048386 L27.47205522639979,18.165842481420192 L27.578838324886476,18.23205080756887 L27.689567966516623,18.29142352047882 L27.803807151982273,18.343726303176993 L27.92110503140931,18.388752740474956 L28.040998683655946,18.42632513359531 L28.16301494325096,18.456295201467604 L28.286672267761656,18.47854466592597 L28.411482638221848,18.492985718499003 L28.536953485119763,18.499561366949685 L28.66258963234488,18.49824566019771 L28.787895251421787,18.489043790736538 L28.912375818318683,18.471992074141003 L29.035540065107792,18.447157805746315 L29.15690191877542,18.414638995064127 L29.27598241953011,18.374563978983776 L29.39231161103808,18.327090915285194 L29.505430395126204,18.27240715846242 L29.61489234363274,18.210728520321005 L29.720265460255344,18.142298418267398 L29.8211338854431,18.06738691465167 L29.917099537604194,17.986289650954777 L30.007783684152088,17.89932668102672 L30.092828436189993,17.8068412079802 L30.171898160934873,17.709198229724738 L30.24468080630668,17.606783098486677 L30.310889132455355,17.49999999999999 L30.370261845365306,17.389270358369842 L30.42256462806348,17.275031172904193 L30.46759106536144,17.157733293477154 L30.505163458481796,17.03783964123052 L30.535133526354088,16.915823381635505 L30.557382990812453,16.79216605712481 L30.571824043385487,16.667355686664617 L30.578399691836168,16.5418848397667 L30.577083985084194,16.416248692541586 L30.56788211562302,16.29094307346468 L30.550830399027486,16.166462506567782 L30.525996130632794,16.043298259778673 L30.493477319950607,15.921936406111042 L30.453402303870256,15.802855905356354 L30.405929240171677,15.686526713848385 L30.351245483348904,15.573407929760263 L30.289566845207485,15.463945981253728 L30.22113674315388,15.358572864631125 L30.146225239538154,15.25770443944337 L30.065127975841264,15.161738787282275 L29.978165005913205,15.071054640734385 L29.885679532866686,14.98600988869648 L29.788036554611224,14.9069401639516 L29.685621423373163,14.834157518579794 L29.578838324886476,14.767949192431116 L29.468108683256332,14.708576479521167 L29.353869497790683,14.656273696822993 L29.236571618363644,14.611247259525031 L29.11667796611701,14.573674866404676 L28.994661706522,14.543704798532382 L28.871004382011304,14.521455334074016 L28.74619401155111,14.507014281500984 L28.620723164653196,14.500438633050301 L28.495087017428084,14.501754339802275 L28.369781398351176,14.510956209263446 L28.24530083145428,14.528007925858981 L28.122136584665174,14.552842194253671 L28.00077473099754,14.585361004935855 L27.881694230242854,14.625436021016206 L27.765365038734885,14.672909084714787 L27.652246254646762,14.727592841537557 L27.542784306140227,14.789271479678973 L27.437411189517622,14.857701581732577 L27.336542764329867,14.932613085348304 L27.240577112168772,15.013710349045194 L27.14989296562088,15.100673318973252 L27.064848213582973,15.19315879201977 L26.985778488838093,15.29080177027523 L26.912995843466287,15.393216901513291 L26.84678751731761,15.499999999999977 " />
			<path d="M3.796405077356795e-15,31.0 L-0.12558103905862295,31.003946543143456 L-0.2506664671286047,31.015770597371045 L-0.3747626291714454,31.035425498542622 L-0.49737977432970576,31.062833677742738 L-0.618033988749891,31.097886967409693 L-0.7362491053693521,31.140447028223498 L-0.8515585831301414,31.19034589506796 L-0.9635073482034267,31.24738663991227 L-1.0716535899579893,31.31134414899597 L-1.1755705045849423,31.381966011250107 L-1.2748479794973755,31.45897351444842 L-1.3690942118573732,31.54206274515718 L-1.4579372548428189,31.630905788142623 L-1.5410264855515743,31.72515202050262 L-1.6180339887498907,31.824429495415053 L-1.6886558510040262,31.928346410042007 L-1.7526133600877234,32.03649265179657 L-1.8096541049320352,32.14844141686986 L-1.859552971776499,32.26375089463065 L-1.9021130325903033,32.38196601125011 L-1.9371663222572584,32.50262022567029 L-1.9645745014573734,32.62523737082855 L-1.9842294026289518,32.74933353287139 L-1.9960534568565391,32.87441896094138 L-1.999999999999996,33.0 L-1.9960534568565391,33.12558103905863 L-1.9842294026289515,33.25066646712861 L-1.964574501457373,33.37476262917145 L-1.9371663222572577,33.49737977432971 L-1.9021130325903024,33.6180339887499 L-1.859552971776498,33.73624910536936 L-1.8096541049320343,33.85155858313015 L-1.7526133600877218,33.963507348203436 L-1.6886558510040246,34.071653589958 L-1.6180339887498891,34.17557050458495 L-1.5410264855515725,34.27484797949738 L-1.4579372548428169,34.36909421185738 L-1.369094211857371,34.457937254842825 L-1.2748479794973728,34.54102648555158 L-1.1755705045849394,34.6180339887499 L-1.071653589957986,34.68865585100403 L-0.9635073482034231,34.75261336008773 L-0.8515585831301375,34.809654104932044 L-0.736249105369348,34.8595529717765 L-0.6180339887498866,34.90211303259031 L-0.49737977432970104,34.93716632225726 L-0.3747626291714405,34.96457450145738 L-0.2506664671285995,34.984229402628955 L-0.12558103905861756,34.996053456856544 L9.370404955387018e-15,35.0 L0.1255810390586363,34.996053456856544 L0.2506664671286182,34.984229402628955 L0.374762629171459,34.96457450145738 L0.49737977432971947,34.93716632225726 L0.6180339887499047,34.90211303259031 L0.7362491053693658,34.8595529717765 L0.8515585831301552,34.80965410493204 L0.9635073482034404,34.75261336008772 L1.071653589958003,34.68865585100403 L1.175570504584956,34.61803398874989 L1.274847979497389,34.541026485551576 L1.3690942118573868,34.45793725484282 L1.4579372548428322,34.36909421185737 L1.5410264855515874,34.27484797949737 L1.6180339887499031,34.17557050458494 L1.6886558510040377,34.07165358995799 L1.752613360087734,33.96350734820343 L1.809654104932045,33.85155858313014 L1.8595529717765082,33.73624910536935 L1.9021130325903122,33.61803398874989 L1.9371663222572668,33.49737977432971 L1.9645745014573817,33.37476262917145 L1.9842294026289597,33.25066646712861 L1.9960534568565471,33.12558103905862 L2.000000000000004,33.0 L1.9960534568565471,32.87441896094138 L1.98422940262896,32.74933353287139 L1.9645745014573819,32.62523737082855 L1.937166322257267,32.50262022567029 L1.9021130325903124,32.38196601125011 L1.8595529717765085,32.26375089463065 L1.8096541049320454,32.14844141686986 L1.7526133600877338,32.03649265179657 L1.6886558510040375,31.92834641004201 L1.6180339887499031,31.82442949541506 L1.5410264855515874,31.725152020502627 L1.4579372548428329,31.63090578814263 L1.369094211857388,31.542062745157182 L1.2748479794973913,31.458973514448427 L1.175570504584959,31.38196601125011 L1.071653589958007,31.311344148995975 L0.9635073482034453,31.24738663991228 L0.8515585831301611,31.190345895067967 L0.7362491053693727,31.1404470282235 L0.6180339887499126,31.097886967409696 L0.4973797743297283,31.06283367774274 L0.3747626291714689,31.035425498542626 L0.250666467128629,31.015770597371045 L0.12558103905864806,31.003946543143456 L2.204983219101824e-14,31.0 " />

       </g>
    </g>
    
</svg>
